<svg xmlns="http://www.w3.org/2000/svg" xmlns:xlink="http://www.w3.org/1999/xlink" width="174.171875" height="192.3740234375" viewBox="0 0 174.171875 192.3740234375" fill="none"><path d="M57.0859 40.4995L60.5342 37.0001L81.0859 57.8563L81.0859 41L93.0859 41L93.0859 57.8605L113.638 37.0042L117.086 40.5036L93.0859 64.8593L93.0859 120L111.605 120C112.97 120 114.086 121.108 114.086 122.462L114.086 152L109.125 152L109.125 124.923L93.0859 124.923L93.0859 152L81.0859 152L81.0859 124.923L65.0469 124.923L65.0469 152L60.0859 152L60.0859 122.462C60.0859 121.108 61.2022 120 62.5664 120L81.0859 120L81.0859 64.8552L57.0859 40.4995Z" fill-rule="evenodd"  fill="#7DA2CE" ></path><rect  x="73.0859375" y="88" width="28" height="48" rx="4"    fill="#EDF5FF" ></rect><rect x="43.0859375" y="152" width="88" height="12"   fill="#EDF5FF" ></rect><rect x="42.0859375" y="29" width="88" height="12"   fill="#EDF5FF" ></rect><path d="M26.4124 125.679L4.40207 135.942C1.96992 137.077 0.907784 139.942 2.02857 142.345L23.3285 188.023C24.4493 190.427 27.327 191.455 29.7592 190.321L51.7695 180.057C54.2016 178.923 55.2638 176.058 54.143 173.654L32.843 127.976C31.7222 125.573 28.8445 124.545 26.4124 125.679ZM31.9896 181.111L22.8903 177.86L24.5695 173.33L33.6689 176.581L31.9896 181.111ZM24.5904 165.244L15.4911 161.993L17.1703 157.463L26.2697 160.714L24.5904 165.244ZM17.1963 149.387L8.09694 146.136L9.77619 141.606L18.8755 144.857L17.1963 149.387ZM43.2809 175.846L38.7312 174.221L42.0897 165.16L46.6394 166.786L43.2809 175.846ZM35.8817 159.979L31.332 158.353L34.6905 149.293L39.2402 150.918L35.8817 159.979ZM28.4876 144.122L23.9379 142.496L27.2964 133.436L31.8461 135.062L28.4876 144.122Z"   fill="url(#linear_fill_6_15990)" ></path><path d="M122.402 135.942L144.412 125.679C146.845 124.545 149.722 125.573 150.843 127.976L172.143 173.654C173.264 176.058 172.202 178.923 169.77 180.057L147.759 190.321C145.327 191.455 142.449 190.427 141.329 188.023L120.029 142.345C118.908 139.942 119.97 137.077 122.402 135.942ZM161.281 175.846L164.639 166.786L160.09 165.16L156.731 174.221L161.281 175.846ZM153.882 159.979L157.24 150.918L152.691 149.293L149.332 158.353L153.882 159.979ZM146.488 144.122L149.846 135.062L145.296 133.436L141.938 142.496L146.488 144.122ZM149.99 181.111L151.669 176.581L142.57 173.33L140.89 177.86L149.99 181.111ZM142.59 165.244L144.27 160.714L135.17 157.463L133.491 161.993L142.59 165.244ZM135.196 149.387L136.876 144.857L127.776 141.606L126.097 146.136L135.196 149.387Z"   fill="url(#linear_fill_6_15991)" ></path><path d="M40.2288 4L15.9431 4C13.2595 4 11.0859 6.148 11.0859 8.8L11.0859 59.2C11.0859 61.852 13.2595 64 15.9431 64L40.2288 64C42.9124 64 45.0859 61.852 45.0859 59.2L45.0859 8.8C45.0859 6.148 42.9124 4 40.2288 4ZM21.8567 56.596L14.9838 49.804L18.4202 46.408L25.2931 53.2L21.8567 56.596ZM21.8567 39.088L14.9838 32.296L18.4202 28.9L25.2931 35.692L21.8567 39.088ZM21.8567 21.592L14.9838 14.8L18.4202 11.404L25.2931 18.196L21.8567 21.592ZM34.3152 56.596L30.8788 53.2L37.7517 46.408L41.1881 49.804L34.3152 56.596ZM34.3152 39.088L30.8788 35.692L37.7517 28.9L41.1881 32.296L34.3152 39.088ZM34.3152 21.592L30.8788 18.196L37.7517 11.404L41.1881 14.8L34.3152 21.592Z"   fill="url(#linear_fill_6_15992)" ></path><path d="M133.943 4L158.229 4C160.912 4 163.086 6.148 163.086 8.8L163.086 59.2C163.086 61.852 160.912 64 158.229 64L133.943 64C131.259 64 129.086 61.852 129.086 59.2L129.086 8.8C129.086 6.148 131.259 4 133.943 4ZM152.315 56.596L159.188 49.804L155.752 46.408L148.879 53.2L152.315 56.596ZM152.315 39.088L159.188 32.296L155.752 28.9L148.879 35.692L152.315 39.088ZM152.315 21.592L159.188 14.8L155.752 11.404L148.879 18.196L152.315 21.592ZM139.857 56.596L143.293 53.2L136.42 46.408L132.984 49.804L139.857 56.596ZM139.857 39.088L143.293 35.692L136.42 28.9L132.984 32.296L139.857 39.088ZM139.857 21.592L143.293 18.196L136.42 11.404L132.984 14.8L139.857 21.592Z"   fill="url(#linear_fill_6_15993)" ></path><defs><linearGradient id="linear_fill_6_15990" x1="40.763671875" y1="185.189453125" x2="15.408203125" y2="130.810546875" gradientUnits="userSpaceOnUse"><stop offset="0" stop-color="#0072FF"  /><stop offset="1" stop-color="#00C8FF"  /></linearGradient><linearGradient id="linear_fill_6_15991" x1="158.763671875" y1="185.189453125" x2="133.408203125" y2="130.810546875" gradientUnits="userSpaceOnUse"><stop offset="0" stop-color="#0072FF"  /><stop offset="1" stop-color="#00C8FF"  /></linearGradient><linearGradient id="linear_fill_6_15992" x1="28.0859375" y1="4" x2="28.0859375" y2="64" gradientUnits="userSpaceOnUse"><stop offset="0" stop-color="#EDF5FF"  /><stop offset="1" stop-color="#92C3FF"  /></linearGradient><linearGradient id="linear_fill_6_15993" x1="146.0859375" y1="4" x2="146.0859375" y2="64" gradientUnits="userSpaceOnUse"><stop offset="0" stop-color="#EDF5FF"  /><stop offset="1" stop-color="#92C3FF"  /></linearGradient></defs></svg>