<svg xmlns="http://www.w3.org/2000/svg" xmlns:xlink="http://www.w3.org/1999/xlink" width="174.171875" height="192.3740234375" viewBox="0 0 174.171875 192.3740234375" fill="none"><path d="M57.0859 40.8735L60.5342 37.3741L81.0859 58.2303L81.0859 41.374L93.0859 41.374L93.0859 58.2345L113.638 37.3783L117.086 40.8777L93.0859 65.2333L93.0859 120.374L111.605 120.374C112.97 120.374 114.086 121.482 114.086 122.836L114.086 152.374L109.125 152.374L109.125 125.297L93.0859 125.297L93.0859 152.374L81.0859 152.374L81.0859 125.297L65.0469 125.297L65.0469 152.374L60.0859 152.374L60.0859 122.836C60.0859 121.482 61.2022 120.374 62.5664 120.374L81.0859 120.374L81.0859 65.2292L57.0859 40.8735Z" fill-rule="evenodd"  fill="#7DA2CE" ></path><rect  x="73.0859375" y="88.3740234375" width="28" height="48" rx="4"    fill="#EDF5FF" ></rect><rect x="43.0859375" y="152.3740234375" width="88" height="12"   fill="#EDF5FF" ></rect><rect x="42.0859375" y="29.3740234375" width="88" height="12"   fill="#EDF5FF" ></rect><path d="M40.2288 128.374L15.9431 128.374C13.2595 128.374 11.0859 130.522 11.0859 133.174L11.0859 183.574C11.0859 186.226 13.2595 188.374 15.9431 188.374L40.2288 188.374C42.9124 188.374 45.0859 186.226 45.0859 183.574L45.0859 133.174C45.0859 130.522 42.9124 128.374 40.2288 128.374ZM21.8567 180.97L14.9838 174.178L18.4202 170.782L25.2931 177.574L21.8567 180.97ZM21.8567 163.462L14.9838 156.67L18.4202 153.274L25.2931 160.066L21.8567 163.462ZM21.8567 145.966L14.9838 139.174L18.4202 135.778L25.2931 142.57L21.8567 145.966ZM34.3152 180.97L30.8788 177.574L37.7517 170.782L41.1881 174.178L34.3152 180.97ZM34.3152 163.462L30.8788 160.066L37.7517 153.274L41.1881 156.67L34.3152 163.462ZM34.3152 145.966L30.8788 142.57L37.7517 135.778L41.1881 139.174L34.3152 145.966Z"   fill="url(#linear_fill_6_15980)" ></path><path d="M133.943 128.374L158.229 128.374C160.912 128.374 163.086 130.522 163.086 133.174L163.086 183.574C163.086 186.226 160.912 188.374 158.229 188.374L133.943 188.374C131.259 188.374 129.086 186.226 129.086 183.574L129.086 133.174C129.086 130.522 131.259 128.374 133.943 128.374ZM152.315 180.97L159.188 174.178L155.752 170.782L148.879 177.574L152.315 180.97ZM152.315 163.462L159.188 156.67L155.752 153.274L148.879 160.066L152.315 163.462ZM152.315 145.966L159.188 139.174L155.752 135.778L148.879 142.57L152.315 145.966ZM139.857 180.97L143.293 177.574L136.42 170.782L132.984 174.178L139.857 180.97ZM139.857 163.462L143.293 160.066L136.42 153.274L132.984 156.67L139.857 163.462ZM139.857 145.966L143.293 142.57L136.42 135.778L132.984 139.174L139.857 145.966Z"   fill="url(#linear_fill_6_15981)" ></path><path d="M51.7698 12.3163L29.7595 2.05272C27.3273 0.918591 24.4496 1.94675 23.3289 4.35028L2.02889 50.0282C0.90811 52.4317 1.97025 55.2971 4.40239 56.4312L26.4127 66.6948C28.8449 67.8289 31.7226 66.8007 32.8434 64.3972L54.1433 18.7193C55.2641 16.3158 54.202 13.4504 51.7698 12.3163ZM12.891 52.2201L9.53247 43.1598L14.0821 41.5343L17.4406 50.5945L12.891 52.2201ZM20.2902 36.3524L16.9317 27.2922L21.4813 25.6667L24.8398 34.7269L20.2902 36.3524ZM27.6843 20.4957L24.3258 11.4354L28.8755 9.80991L32.234 18.8701L27.6843 20.4957ZM24.1823 57.4853L22.503 52.9552L31.6024 49.7041L33.2816 54.2342L24.1823 57.4853ZM31.5815 41.6176L29.9022 37.0875L39.0016 33.8365L40.6808 38.3666L31.5815 41.6176ZM38.9756 25.7609L37.2964 21.2308L46.3957 17.9797L48.075 22.5098L38.9756 25.7609Z"   fill="url(#linear_fill_6_15982)" ></path><path d="M147.759 2.05272L169.77 12.3163C172.202 13.4504 173.264 16.3158 172.143 18.7193L150.843 64.3972C149.723 66.8007 146.845 67.8289 144.413 66.6948L122.402 56.4312C119.97 55.2971 118.908 52.4317 120.029 50.0282L141.329 4.35028C142.45 1.94675 145.327 0.918586 147.759 2.05272ZM142.182 57.4853L151.282 54.2342L149.602 49.7041L140.503 52.9552L142.182 57.4853ZM149.581 41.6176L158.681 38.3666L157.002 33.8365L147.902 37.0875L149.581 41.6176ZM156.976 25.7609L166.075 22.5098L164.396 17.9797L155.296 21.2308L156.976 25.7609ZM130.891 52.2201L135.441 50.5945L132.082 41.5343L127.532 43.1598L130.891 52.2201ZM138.29 36.3524L142.84 34.7269L139.481 25.6667L134.932 27.2922L138.29 36.3524ZM145.684 20.4957L150.234 18.8701L146.875 9.8099L142.326 11.4354L145.684 20.4957Z"   fill="url(#linear_fill_6_15983)" ></path><defs><linearGradient id="linear_fill_6_15980" x1="28.0859375" y1="128.3740234375" x2="28.0859375" y2="188.3740234375" gradientUnits="userSpaceOnUse"><stop offset="0" stop-color="#EDF5FF"  /><stop offset="1" stop-color="#92C3FF"  /></linearGradient><linearGradient id="linear_fill_6_15981" x1="146.0859375" y1="128.3740234375" x2="146.0859375" y2="188.3740234375" gradientUnits="userSpaceOnUse"><stop offset="0" stop-color="#EDF5FF"  /><stop offset="1" stop-color="#92C3FF"  /></linearGradient><linearGradient id="linear_fill_6_15982" x1="40.765625" y1="7.1845703125" x2="15.408203125" y2="61.5625" gradientUnits="userSpaceOnUse"><stop offset="0" stop-color="#EDF5FF"  /><stop offset="1" stop-color="#92C3FF"  /></linearGradient><linearGradient id="linear_fill_6_15983" x1="158.765625" y1="7.1845703125" x2="133.408203125" y2="61.5625" gradientUnits="userSpaceOnUse"><stop offset="0" stop-color="#EDF5FF"  /><stop offset="1" stop-color="#92C3FF"  /></linearGradient></defs></svg>