<svg xmlns="http://www.w3.org/2000/svg" xmlns:xlink="http://www.w3.org/1999/xlink" width="174.171875" height="192.74755859375" viewBox="0 0 174.171875 192.74755859375" fill="none"><path d="M57.0859 40.8735L60.5342 37.3741L81.0859 58.2303L81.0859 41.374L93.0859 41.374L93.0859 58.2345L113.638 37.3783L117.086 40.8777L93.0859 65.2333L93.0859 120.374L111.605 120.374C112.97 120.374 114.086 121.482 114.086 122.836L114.086 152.374L109.125 152.374L109.125 125.297L93.0859 125.297L93.0859 152.374L81.0859 152.374L81.0859 125.297L65.0469 125.297L65.0469 152.374L60.0859 152.374L60.0859 122.836C60.0859 121.482 61.2022 120.374 62.5664 120.374L81.0859 120.374L81.0859 65.2292L57.0859 40.8735Z" fill-rule="evenodd"  fill="#7DA2CE" ></path><rect  x="73.0859375" y="88.3740234375" width="28" height="48" rx="4"    fill="#EDF5FF" ></rect><rect x="43.0859375" y="152.3740234375" width="88" height="12"   fill="#EDF5FF" ></rect><rect x="42.0859375" y="29.3740234375" width="88" height="12"   fill="#EDF5FF" ></rect><path d="M51.7698 136.316L29.7595 126.053C27.3273 124.919 24.4496 125.947 23.3289 128.35L2.02889 174.028C0.90811 176.432 1.97025 179.297 4.40239 180.431L26.4127 190.695C28.8449 191.829 31.7226 190.801 32.8434 188.397L54.1433 142.719C55.2641 140.316 54.202 137.45 51.7698 136.316ZM12.891 176.22L9.53247 167.16L14.0821 165.534L17.4406 174.595L12.891 176.22ZM20.2902 160.352L16.9317 151.292L21.4813 149.667L24.8398 158.727L20.2902 160.352ZM27.6843 144.496L24.3258 135.435L28.8755 133.81L32.234 142.87L27.6843 144.496ZM24.1823 181.485L22.503 176.955L31.6024 173.704L33.2816 178.234L24.1823 181.485ZM31.5815 165.618L29.9022 161.088L39.0016 157.836L40.6808 162.367L31.5815 165.618ZM38.9756 149.761L37.2964 145.231L46.3957 141.98L48.075 146.51L38.9756 149.761Z"   fill="url(#linear_fill_6_16010)" ></path><path d="M147.759 126.053L169.77 136.316C172.202 137.45 173.264 140.316 172.143 142.719L150.843 188.397C149.723 190.801 146.845 191.829 144.413 190.695L122.402 180.431C119.97 179.297 118.908 176.432 120.029 174.028L141.329 128.35C142.45 125.947 145.327 124.919 147.759 126.053ZM142.182 181.485L151.282 178.234L149.602 173.704L140.503 176.955L142.182 181.485ZM149.581 165.618L158.681 162.367L157.002 157.836L147.902 161.088L149.581 165.618ZM156.976 149.761L166.075 146.51L164.396 141.98L155.296 145.231L156.976 149.761ZM130.891 176.22L135.441 174.595L132.082 165.534L127.532 167.16L130.891 176.22ZM138.29 160.352L142.84 158.727L139.481 149.667L134.932 151.292L138.29 160.352ZM145.684 144.496L150.234 142.87L146.875 133.81L142.326 135.435L145.684 144.496Z"   fill="url(#linear_fill_6_16011)" ></path><path d="M51.7698 12.3163L29.7595 2.05272C27.3273 0.918591 24.4496 1.94675 23.3289 4.35028L2.02889 50.0282C0.90811 52.4317 1.97025 55.2971 4.40239 56.4312L26.4127 66.6948C28.8449 67.8289 31.7226 66.8007 32.8434 64.3972L54.1433 18.7193C55.2641 16.3158 54.202 13.4504 51.7698 12.3163ZM12.891 52.2201L9.53247 43.1598L14.0821 41.5343L17.4406 50.5945L12.891 52.2201ZM20.2902 36.3524L16.9317 27.2922L21.4813 25.6667L24.8398 34.7269L20.2902 36.3524ZM27.6843 20.4957L24.3258 11.4354L28.8755 9.80991L32.234 18.8701L27.6843 20.4957ZM24.1823 57.4853L22.503 52.9552L31.6024 49.7041L33.2816 54.2342L24.1823 57.4853ZM31.5815 41.6176L29.9022 37.0875L39.0016 33.8365L40.6808 38.3666L31.5815 41.6176ZM38.9756 25.7609L37.2964 21.2308L46.3957 17.9797L48.075 22.5098L38.9756 25.7609Z"   fill="url(#linear_fill_6_16012)" ></path><path d="M147.759 2.05272L169.77 12.3163C172.202 13.4504 173.264 16.3158 172.143 18.7193L150.843 64.3972C149.723 66.8007 146.845 67.8289 144.413 66.6948L122.402 56.4312C119.97 55.2971 118.908 52.4317 120.029 50.0282L141.329 4.35028C142.45 1.94675 145.327 0.918586 147.759 2.05272ZM142.182 57.4853L151.282 54.2342L149.602 49.7041L140.503 52.9552L142.182 57.4853ZM149.581 41.6176L158.681 38.3666L157.002 33.8365L147.902 37.0875L149.581 41.6176ZM156.976 25.7609L166.075 22.5098L164.396 17.9797L155.296 21.2308L156.976 25.7609ZM130.891 52.2201L135.441 50.5945L132.082 41.5343L127.532 43.1598L130.891 52.2201ZM138.29 36.3524L142.84 34.7269L139.481 25.6667L134.932 27.2922L138.29 36.3524ZM145.684 20.4957L150.234 18.8701L146.875 9.8099L142.326 11.4354L145.684 20.4957Z"   fill="url(#linear_fill_6_16013)" ></path><defs><linearGradient id="linear_fill_6_16010" x1="40.765625" y1="131.1845703125" x2="15.408203125" y2="185.56298828125" gradientUnits="userSpaceOnUse"><stop offset="0" stop-color="#EDF5FF"  /><stop offset="1" stop-color="#92C3FF"  /></linearGradient><linearGradient id="linear_fill_6_16011" x1="158.765625" y1="131.1845703125" x2="133.408203125" y2="185.56298828125" gradientUnits="userSpaceOnUse"><stop offset="0" stop-color="#EDF5FF"  /><stop offset="1" stop-color="#92C3FF"  /></linearGradient><linearGradient id="linear_fill_6_16012" x1="40.765625" y1="7.1845703125" x2="15.408203125" y2="61.5625" gradientUnits="userSpaceOnUse"><stop offset="0" stop-color="#EDF5FF"  /><stop offset="1" stop-color="#92C3FF"  /></linearGradient><linearGradient id="linear_fill_6_16013" x1="158.765625" y1="7.1845703125" x2="133.408203125" y2="61.5625" gradientUnits="userSpaceOnUse"><stop offset="0" stop-color="#EDF5FF"  /><stop offset="1" stop-color="#92C3FF"  /></linearGradient></defs></svg>