<svg xmlns="http://www.w3.org/2000/svg" xmlns:xlink="http://www.w3.org/1999/xlink" width="174.171875" height="192.74755859375" viewBox="0 0 174.171875 192.74755859375" fill="none"><path d="M57.0859 40.8735L60.5342 37.3741L81.0859 58.2303L81.0859 41.374L93.0859 41.374L93.0859 58.2345L113.638 37.3783L117.086 40.8777L93.0859 65.2333L93.0859 120.374L111.605 120.374C112.97 120.374 114.086 121.482 114.086 122.836L114.086 152.374L109.125 152.374L109.125 125.297L93.0859 125.297L93.0859 152.374L81.0859 152.374L81.0859 125.297L65.0469 125.297L65.0469 152.374L60.0859 152.374L60.0859 122.836C60.0859 121.482 61.2022 120.374 62.5664 120.374L81.0859 120.374L81.0859 65.2292L57.0859 40.8735Z" fill-rule="evenodd"  fill="#7DA2CE" ></path><rect  x="73.0859375" y="88.3740234375" width="28" height="48" rx="4"    fill="#EDF5FF" ></rect><rect x="43.0859375" y="152.3740234375" width="88" height="12"   fill="#EDF5FF" ></rect><rect x="42.0859375" y="29.3740234375" width="88" height="12"   fill="#EDF5FF" ></rect><path d="M26.4124 126.053L4.40207 136.316C1.96992 137.451 0.907784 140.316 2.02857 142.719L23.3285 188.397C24.4493 190.801 27.327 191.829 29.7592 190.695L51.7695 180.431C54.2016 179.297 55.2638 176.432 54.143 174.028L32.843 128.35C31.7222 125.947 28.8445 124.919 26.4124 126.053ZM31.9896 181.485L22.8903 178.234L24.5695 173.704L33.6689 176.955L31.9896 181.485ZM24.5904 165.618L15.4911 162.367L17.1703 157.837L26.2697 161.088L24.5904 165.618ZM17.1963 149.761L8.09694 146.51L9.77619 141.98L18.8755 145.231L17.1963 149.761ZM43.2809 176.22L38.7312 174.595L42.0897 165.534L46.6394 167.16L43.2809 176.22ZM35.8817 160.353L31.332 158.727L34.6905 149.667L39.2402 151.292L35.8817 160.353ZM28.4876 144.496L23.9379 142.87L27.2964 133.81L31.8461 135.436L28.4876 144.496Z"   fill="url(#linear_fill_6_16030)" ></path><path d="M122.402 136.316L144.412 126.053C146.845 124.919 149.722 125.947 150.843 128.35L172.143 174.028C173.264 176.432 172.202 179.297 169.77 180.431L147.759 190.695C145.327 191.829 142.449 190.801 141.329 188.397L120.029 142.719C118.908 140.316 119.97 137.451 122.402 136.316ZM161.281 176.22L164.639 167.16L160.09 165.534L156.731 174.595L161.281 176.22ZM153.882 160.353L157.24 151.292L152.691 149.667L149.332 158.727L153.882 160.353ZM146.488 144.496L149.846 135.436L145.296 133.81L141.938 142.87L146.488 144.496ZM149.99 181.485L151.669 176.955L142.57 173.704L140.89 178.234L149.99 181.485ZM142.59 165.618L144.27 161.088L135.17 157.837L133.491 162.367L142.59 165.618ZM135.196 149.761L136.876 145.231L127.776 141.98L126.097 146.51L135.196 149.761Z"   fill="url(#linear_fill_6_16031)" ></path><path d="M51.7698 12.3163L29.7595 2.05272C27.3273 0.918591 24.4496 1.94675 23.3289 4.35028L2.02889 50.0282C0.90811 52.4317 1.97025 55.2971 4.40239 56.4312L26.4127 66.6948C28.8449 67.8289 31.7226 66.8007 32.8434 64.3972L54.1433 18.7193C55.2641 16.3158 54.202 13.4504 51.7698 12.3163ZM12.891 52.2201L9.53247 43.1598L14.0821 41.5343L17.4406 50.5945L12.891 52.2201ZM20.2902 36.3524L16.9317 27.2922L21.4813 25.6667L24.8398 34.7269L20.2902 36.3524ZM27.6843 20.4957L24.3258 11.4354L28.8755 9.80991L32.234 18.8701L27.6843 20.4957ZM24.1823 57.4853L22.503 52.9552L31.6024 49.7041L33.2816 54.2342L24.1823 57.4853ZM31.5815 41.6176L29.9022 37.0875L39.0016 33.8365L40.6808 38.3666L31.5815 41.6176ZM38.9756 25.7609L37.2964 21.2308L46.3957 17.9797L48.075 22.5098L38.9756 25.7609Z"   fill="url(#linear_fill_6_16032)" ></path><path d="M147.759 2.05272L169.77 12.3163C172.202 13.4504 173.264 16.3158 172.143 18.7193L150.843 64.3972C149.723 66.8007 146.845 67.8289 144.413 66.6948L122.402 56.4312C119.97 55.2971 118.908 52.4317 120.029 50.0282L141.329 4.35028C142.45 1.94675 145.327 0.918586 147.759 2.05272ZM142.182 57.4853L151.282 54.2342L149.602 49.7041L140.503 52.9552L142.182 57.4853ZM149.581 41.6176L158.681 38.3666L157.002 33.8365L147.902 37.0875L149.581 41.6176ZM156.976 25.7609L166.075 22.5098L164.396 17.9797L155.296 21.2308L156.976 25.7609ZM130.891 52.2201L135.441 50.5945L132.082 41.5343L127.532 43.1598L130.891 52.2201ZM138.29 36.3524L142.84 34.7269L139.481 25.6667L134.932 27.2922L138.29 36.3524ZM145.684 20.4957L150.234 18.8701L146.875 9.8099L142.326 11.4354L145.684 20.4957Z"   fill="url(#linear_fill_6_16033)" ></path><defs><linearGradient id="linear_fill_6_16030" x1="15.408203125" y1="131.1845703125" x2="40.763671875" y2="185.56298828125" gradientUnits="userSpaceOnUse"><stop offset="0" stop-color="#EDF5FF"  /><stop offset="1" stop-color="#92C3FF"  /></linearGradient><linearGradient id="linear_fill_6_16031" x1="133.408203125" y1="131.1845703125" x2="158.763671875" y2="185.56298828125" gradientUnits="userSpaceOnUse"><stop offset="0" stop-color="#EDF5FF"  /><stop offset="1" stop-color="#92C3FF"  /></linearGradient><linearGradient id="linear_fill_6_16032" x1="40.765625" y1="7.1845703125" x2="15.408203125" y2="61.5625" gradientUnits="userSpaceOnUse"><stop offset="0" stop-color="#EDF5FF"  /><stop offset="1" stop-color="#92C3FF"  /></linearGradient><linearGradient id="linear_fill_6_16033" x1="158.765625" y1="7.1845703125" x2="133.408203125" y2="61.5625" gradientUnits="userSpaceOnUse"><stop offset="0" stop-color="#EDF5FF"  /><stop offset="1" stop-color="#92C3FF"  /></linearGradient></defs></svg>