<svg xmlns="http://www.w3.org/2000/svg" xmlns:xlink="http://www.w3.org/1999/xlink" width="332" height="324" viewBox="0 0 332 324" fill="none"><g filter="url(#filter_6_15890)"><rect  x="0" y="0" width="332" height="324" rx="16"    fill="#1B2D4D" fill-opacity="0.4"></rect><rect  x="0" y="0" width="332" height="324" rx="16"    fill="url(#linear_fill_6_15890_1)" ></rect><path fill-rule="evenodd"  fill="url(#linear_border_6_15890_0)"  d="M316 0L16 0C7.16344 0 0 7.16344 0 16L0 308C0 316.837 7.16344 324 16 324L316 324C324.837 324 332 316.837 332 308L332 16C332 7.16344 324.837 0 316 0ZM1 16C1 7.71573 7.71573 1 16 1L316 1C324.284 1 331 7.71573 331 16L331 308C331 316.284 324.284 323 316 323L16 323C7.71573 323 1 316.284 1 308L1 16Z"></path></g><path d="M136 80.4995L139.448 77.0001L160 97.8563L160 81L172 81L172 97.8605L192.552 77.0042L196 80.5036L172 104.859L172 160L190.52 160C191.884 160 193 161.108 193 162.462L193 192L188.039 192L188.039 164.923L172 164.923L172 192L160 192L160 164.923L143.961 164.923L143.961 192L139 192L139 162.462C139 161.108 140.116 160 141.48 160L160 160L160 104.855L136 80.4995Z" fill-rule="evenodd"  fill="#7DA2CE" ></path><rect  x="152" y="128" width="28" height="48" rx="4"    fill="#EDF5FF" ></rect><rect x="122" y="192" width="88" height="12"   fill="#EDF5FF" ></rect><rect x="121" y="69" width="88" height="12"   fill="#EDF5FF" ></rect><path d="M119.143 168L94.8571 168C92.1736 168 90 170.148 90 172.8L90 223.2C90 225.852 92.1736 228 94.8571 228L119.143 228C121.826 228 124 225.852 124 223.2L124 172.8C124 170.148 121.826 168 119.143 168ZM100.771 220.596L93.8979 213.804L97.3343 210.408L104.207 217.2L100.771 220.596ZM100.771 203.088L93.8979 196.296L97.3343 192.9L104.207 199.692L100.771 203.088ZM100.771 185.592L93.8979 178.8L97.3343 175.404L104.207 182.196L100.771 185.592ZM113.229 220.596L109.793 217.2L116.666 210.408L120.102 213.804L113.229 220.596ZM113.229 203.088L109.793 199.692L116.666 192.9L120.102 196.296L113.229 203.088ZM113.229 185.592L109.793 182.196L116.666 175.404L120.102 178.8L113.229 185.592Z"   fill="url(#linear_fill_6_16051)" ></path><path d="M212.857 168L237.143 168C239.826 168 242 170.148 242 172.8L242 223.2C242 225.852 239.826 228 237.143 228L212.857 228C210.174 228 208 225.852 208 223.2L208 172.8C208 170.148 210.174 168 212.857 168ZM231.229 220.596L238.102 213.804L234.666 210.408L227.793 217.2L231.229 220.596ZM231.229 203.088L238.102 196.296L234.666 192.9L227.793 199.692L231.229 203.088ZM231.229 185.592L238.102 178.8L234.666 175.404L227.793 182.196L231.229 185.592ZM218.771 220.596L222.207 217.2L215.334 210.408L211.898 213.804L218.771 220.596ZM218.771 203.088L222.207 199.692L215.334 192.9L211.898 196.296L218.771 203.088ZM218.771 185.592L222.207 182.196L215.334 175.404L211.898 178.8L218.771 185.592Z"   fill="url(#linear_fill_6_16052)" ></path><path d="M130.684 51.9423L108.674 41.6787C106.241 40.5446 103.364 41.5727 102.243 43.9763L80.943 89.6542C79.8222 92.0577 80.8843 94.923 83.3165 96.0572L105.327 106.321C107.759 107.455 110.637 106.427 111.757 104.023L133.057 58.3453C134.178 55.9417 133.116 53.0764 130.684 51.9423ZM91.805 91.846L88.4465 82.7858L92.9962 81.1603L96.3547 90.2205L91.805 91.846ZM99.2042 75.9784L95.8457 66.9182L100.395 65.2926L103.754 74.3529L99.2042 75.9784ZM106.598 60.1216L103.24 51.0614L107.79 49.4359L111.148 58.4961L106.598 60.1216ZM103.096 97.1113L101.417 92.5811L110.516 89.3301L112.196 93.8602L103.096 97.1113ZM110.496 81.2436L108.816 76.7135L117.916 73.4625L119.595 77.9926L110.496 81.2436ZM117.89 65.3869L116.21 60.8567L125.31 57.6057L126.989 62.1358L117.89 65.3869Z"   fill="url(#linear_fill_6_16053)" ></path><path d="M226.674 41.6787L248.684 51.9423C251.116 53.0764 252.178 55.9417 251.057 58.3453L229.757 104.023C228.637 106.427 225.759 107.455 223.327 106.321L201.316 96.0572C198.884 94.923 197.822 92.0577 198.943 89.6542L220.243 43.9763C221.364 41.5727 224.241 40.5446 226.674 41.6787ZM221.096 97.1113L230.196 93.8602L228.516 89.3301L219.417 92.5811L221.096 97.1113ZM228.496 81.2436L237.595 77.9926L235.916 73.4625L226.816 76.7135L228.496 81.2436ZM235.89 65.3869L244.989 62.1358L243.31 57.6057L234.21 60.8567L235.89 65.3869ZM209.805 91.846L214.355 90.2205L210.996 81.1603L206.447 82.7858L209.805 91.846ZM217.204 75.9784L221.754 74.3529L218.395 65.2926L213.846 66.9182L217.204 75.9784ZM224.598 60.1216L229.148 58.4961L225.79 49.4359L221.24 51.0614L224.598 60.1216Z"   fill="url(#linear_fill_6_16054)" ></path><g ><text transform="translate(134, 247)"><tspan x="0" y="33.92" font-size="32" line-height="0"  fill="#EDF5FF"  font-family=".PingFang SC Regular; 10.11d9e1; 2015-05-20" letter-spacing="0" >前面</tspan></text></g><defs><linearGradient id="linear_fill_6_15890_1" x1="166" y1="324" x2="166" y2="0" gradientUnits="userSpaceOnUse"><stop offset="0" stop-color="#0072FF" stop-opacity="0.48" /><stop offset="1" stop-color="#0073FF" stop-opacity="0" /></linearGradient><linearGradient id="linear_border_6_15890_0" x1="166" y1="324" x2="166" y2="0" gradientUnits="userSpaceOnUse"><stop offset="0" stop-color="#7DA2CE" stop-opacity="0.4" /><stop offset="0.2807" stop-color="#7DA2CE" stop-opacity="0.64" /><stop offset="0.5394" stop-color="#7DA2CE"  /><stop offset="0.7815" stop-color="#7DA2CE" stop-opacity="0.64" /><stop offset="1" stop-color="#7DA2CE" stop-opacity="0.4" /></linearGradient><filter id="filter_6_15890" x="0" y="0" width="332" height="324" filterUnits="userSpaceOnUse" color-interpolation-filters="sRGB"><feFlood flood-opacity="0" result="feFloodId_6_15890"/><feBlend mode="normal" in="SourceGraphic" in2="feFloodId_6_15890" result="shape_6_15890"/><feColorMatrix in="SourceAlpha" type="matrix" values="0 0 0 0 0 0 0 0 0 0 0 0 0 0 0 0 0 0 127 0" result="hardAlpha_6_15890"/><feOffset dx="0" dy="0"/><feGaussianBlur stdDeviation="4"/><feComposite in2="hardAlpha_6_15890" operator="arithmetic" k2="-1" k3="1"/><feColorMatrix type="matrix" values="0 0 0 0 0 0 0 0 0 0.4470588235294118 0 0 0 0 1 0 0 0 0.64 0"/><feBlend mode="normal" in2="shape_6_15890" result="innerShadow_0_6_15890" /></filter><linearGradient id="linear_fill_6_16051" x1="107" y1="168" x2="107" y2="228" gradientUnits="userSpaceOnUse"><stop offset="0" stop-color="#EDF5FF"  /><stop offset="1" stop-color="#92C3FF"  /></linearGradient><linearGradient id="linear_fill_6_16052" x1="225" y1="168" x2="225" y2="228" gradientUnits="userSpaceOnUse"><stop offset="0" stop-color="#EDF5FF"  /><stop offset="1" stop-color="#92C3FF"  /></linearGradient><linearGradient id="linear_fill_6_16053" x1="94.321533203125" y1="101.18896484375" x2="119.6787109375" y2="46.810546875" gradientUnits="userSpaceOnUse"><stop offset="0" stop-color="#0072FF"  /><stop offset="1" stop-color="#00C8FF"  /></linearGradient><linearGradient id="linear_fill_6_16054" x1="212.32177734375" y1="101.18896484375" x2="237.6787109375" y2="46.810546875" gradientUnits="userSpaceOnUse"><stop offset="0" stop-color="#0072FF"  /><stop offset="1" stop-color="#00C8FF"  /></linearGradient></defs></svg>