<svg xmlns="http://www.w3.org/2000/svg" xmlns:xlink="http://www.w3.org/1999/xlink" width="308" height="96" viewBox="0 0 308 96" fill="none"><g filter="url(#filter_26_613)"><rect  x="182" y="16" width="126" height="64" rx="8"    fill="#1B2D4D" fill-opacity="0.4"></rect><rect  x="182" y="16" width="126" height="64" rx="8"    fill="url(#linear_fill_26_613_1)" ></rect><path fill-rule="evenodd"  fill="rgba(0, 198, 255, 1)"  d="M300 16L190 16C185.582 16 182 19.5817 182 24L182 72C182 76.4183 185.582 80 190 80L300 80C304.418 80 308 76.4183 308 72L308 24C308 19.5817 304.418 16 300 16ZM183 24C183 20.134 186.134 17 190 17L300 17C303.866 17 307 20.134 307 24L307 72C307 75.866 303.866 79 300 79L190 79C186.134 79 183 75.866 183 72L183 24Z"></path></g><g ><text transform="translate(220, 26)"><tspan x="0" y="33.92" font-size="32" line-height="0"  fill="#EDF5FF"  font-family=".PingFang SC Semibold; 10.11d9e1; 2015-05-20" letter-spacing="0" >高速</tspan></text></g><g filter="url(#filter_26_617)"><rect  x="0" y="16" width="126" height="64" rx="8"    fill="#1B2D4D" fill-opacity="0.4"></rect><path fill-rule="evenodd"  fill="rgba(0, 114, 255, 1)"  d="M118 16L8 16C3.58172 16 0 19.5817 0 24L0 72C0 76.4183 3.58172 80 8 80L118 80C122.418 80 126 76.4183 126 72L126 24C126 19.5817 122.418 16 118 16ZM1 24C1 20.134 4.13401 17 8 17L118 17C121.866 17 125 20.134 125 24L125 72C125 75.866 121.866 79 118 79L8 79C4.13401 79 1 75.866 1 72L1 24Z"></path></g><g ><text transform="translate(24, 26)"><tspan x="0" y="33.92" font-size="32" line-height="0"  fill="#7DA2CE"  font-family=".PingFang SC Semibold; 10.11d9e1; 2015-05-20" letter-spacing="0" >低速</tspan></text></g><circle  cx="154" cy="48" r="48"    fill="#1B2D4D" ></circle><path fill-rule="evenodd"  fill="url(#linear_border_26_621_0)"  d="M154 96C180.51 96 202 74.5097 202 48C202 21.4903 180.51 0 154 0C127.49 0 106 21.4903 106 48C106 74.5097 127.49 96 154 96ZM154 2C179.405 2 200 22.5949 200 48C200 73.4051 179.405 94 154 94C128.595 94 108 73.4051 108 48C108 22.5949 128.595 2 154 2Z"></path><path d="M148.92 53.934L148.92 71L141 71L141 25L158.41 25C163.485 25 167.535 26.334 170.517 29.025C173.498 31.693 175 35.235 175 39.651C175 44.067 173.544 47.678 170.608 50.185C167.672 52.692 163.576 53.957 158.296 53.957L148.897 53.957L148.92 53.934ZM148.92 47.494L158.432 47.494C161.254 47.494 163.394 46.827 164.873 45.493C166.352 44.159 167.08 42.227 167.08 39.697C167.08 37.167 166.329 35.235 164.827 33.74C163.325 32.245 161.254 31.486 158.637 31.44L148.92 31.44L148.92 47.494Z"   fill="#7DA2CE" ></path><defs><linearGradient id="linear_fill_26_613_1" x1="245" y1="80" x2="245" y2="16" gradientUnits="userSpaceOnUse"><stop offset="0" stop-color="#00C6FF" stop-opacity="0.5" /><stop offset="1" stop-color="#00C6FF" stop-opacity="0" /></linearGradient><filter id="filter_26_613" x="182" y="16" width="126" height="64" filterUnits="userSpaceOnUse" color-interpolation-filters="sRGB"><feFlood flood-opacity="0" result="feFloodId_26_613"/><feBlend mode="normal" in="SourceGraphic" in2="feFloodId_26_613" result="shape_26_613"/><feColorMatrix in="SourceAlpha" type="matrix" values="0 0 0 0 0 0 0 0 0 0 0 0 0 0 0 0 0 0 127 0" result="hardAlpha_26_613"/><feOffset dx="0" dy="0"/><feGaussianBlur stdDeviation="4"/><feComposite in2="hardAlpha_26_613" operator="arithmetic" k2="-1" k3="1"/><feColorMatrix type="matrix" values="0 0 0 0 0 0 0 0 0 0.4470588235294118 0 0 0 0 1 0 0 0 0.64 0"/><feBlend mode="normal" in2="shape_26_613" result="innerShadow_0_26_613" /></filter><filter id="filter_26_617" x="0" y="16" width="126" height="64" filterUnits="userSpaceOnUse" color-interpolation-filters="sRGB"><feFlood flood-opacity="0" result="feFloodId_26_617"/><feBlend mode="normal" in="SourceGraphic" in2="feFloodId_26_617" result="shape_26_617"/><feColorMatrix in="SourceAlpha" type="matrix" values="0 0 0 0 0 0 0 0 0 0 0 0 0 0 0 0 0 0 127 0" result="hardAlpha_26_617"/><feOffset dx="0" dy="0"/><feGaussianBlur stdDeviation="4"/><feComposite in2="hardAlpha_26_617" operator="arithmetic" k2="-1" k3="1"/><feColorMatrix type="matrix" values="0 0 0 0 0 0 0 0 0 0.4470588235294118 0 0 0 0 1 0 0 0 0.64 0"/><feBlend mode="normal" in2="shape_26_617" result="innerShadow_0_26_617" /></filter><linearGradient id="linear_border_26_621_0" x1="154" y1="96" x2="154" y2="0" gradientUnits="userSpaceOnUse"><stop offset="0" stop-color="#7EA2CF" stop-opacity="0.4" /><stop offset="0.2807" stop-color="#7DA2CE" stop-opacity="0.64" /><stop offset="0.5394" stop-color="#7DA2CE"  /><stop offset="0.7815" stop-color="#7DA2CE" stop-opacity="0.64" /><stop offset="1" stop-color="#7DA2CE" stop-opacity="0.4" /></linearGradient></defs></svg>