<svg xmlns="http://www.w3.org/2000/svg" xmlns:xlink="http://www.w3.org/1999/xlink" width="212" height="232" viewBox="0 0 212 232" fill="none"><g filter="url(#filter_5_2536)"><rect  x="0" y="0" width="212" height="232" rx="16"    fill="url(#linear_fill_5_2536_0)" ></rect><path fill-rule="evenodd"  fill="url(#linear_border_5_2536_0)"  d="M196 0L16 0C7.16344 0 0 7.16344 0 16L0 216C0 224.837 7.16344 232 16 232L196 232C204.837 232 212 224.837 212 216L212 16C212 7.16344 204.837 0 196 0ZM1 16C1 7.71573 7.71573 1 16 1L196 1C204.284 1 211 7.71573 211 16L211 216C211 224.284 204.284 231 196 231L16 231C7.71573 231 1 224.284 1 216L1 16Z"></path></g><g filter="url(#filter_5_2588)"><path d="M68.3591 43.2192L50.0243 43.2192L50.0243 115.526L68.4805 115.526C92.2793 115.526 104.009 102.743 104.009 79.1072C104.009 55.4713 92.255 43.2192 68.3591 43.2192ZM160.422 63.8886C160.422 76.1889 152.845 83.2797 140.994 85.0886L140.97 85.0886L162 115.526L154.739 115.526L134.049 85.6192L133.976 85.6192L133.976 80.289C146.798 80.0237 153.913 75.1277 153.913 63.8886C153.913 52.6495 146.458 48.5253 133.005 48.5253L118.167 48.5253L118.167 115.502L111.756 115.502L111.756 43.2192L134.486 43.2192C149.955 43.2192 160.422 48.8388 160.422 63.8886ZM97.2576 79.1072C97.2576 99.1495 88.1995 110.123 67.7034 110.123L56.3868 110.123L56.3868 48.5253L67.7034 48.5253C88.1752 48.5253 97.2576 59.0649 97.2576 79.1072ZM58.087 129.37L67.8493 136.219L67.8493 131.854L144.297 131.854L144.297 127.03L67.8493 127.03L67.8493 122.52L58.087 129.37ZM154.059 129.37L144.297 136.219L144.297 122.52L154.059 129.37Z" fill-rule="evenodd"  fill="#EDF5FF" ></path></g><g ><text transform="translate(16, 166)"><tspan x="48" y="29.68" font-size="28" line-height="0"  fill="#EDF5FF"  font-family=".PingFang SC Regular; 10.11d9e1; 2015-05-20" letter-spacing="0" >双比率</tspan></text></g><defs><linearGradient id="linear_fill_5_2536_0" x1="106" y1="0" x2="106" y2="232" gradientUnits="userSpaceOnUse"><stop offset="0" stop-color="#1B2D4D"  /><stop offset="1" stop-color="#1B2D4D" stop-opacity="0" /></linearGradient><linearGradient id="linear_border_5_2536_0" x1="106" y1="232" x2="106" y2="0" gradientUnits="userSpaceOnUse"><stop offset="0" stop-color="#7DA2CE" stop-opacity="0.4" /><stop offset="0.2807" stop-color="#7DA2CE" stop-opacity="0.64" /><stop offset="0.5394" stop-color="#7DA2CE"  /><stop offset="0.7815" stop-color="#7DA2CE" stop-opacity="0.64" /><stop offset="1" stop-color="#7DA2CE" stop-opacity="0.4" /></linearGradient><filter id="filter_5_2536" x="0" y="0" width="212" height="232" filterUnits="userSpaceOnUse" color-interpolation-filters="sRGB"><feFlood flood-opacity="0" result="feFloodId_5_2536"/><feBlend mode="normal" in="SourceGraphic" in2="feFloodId_5_2536" result="shape_5_2536"/><feColorMatrix in="SourceAlpha" type="matrix" values="0 0 0 0 0 0 0 0 0 0 0 0 0 0 0 0 0 0 127 0" result="hardAlpha_5_2536"/><feOffset dx="0" dy="0"/><feGaussianBlur stdDeviation="4"/><feComposite in2="hardAlpha_5_2536" operator="arithmetic" k2="-1" k3="1"/><feColorMatrix type="matrix" values="0 0 0 0 0 0 0 0 0 0.4470588235294118 0 0 0 0 1 0 0 0 0.64 0"/><feBlend mode="normal" in2="shape_5_2536" result="innerShadow_0_5_2536" /></filter><filter id="filter_5_2588" x="38.0242919921875" y="31.21923828125" width="127.97592163085938" height="111" filterUnits="userSpaceOnUse" color-interpolation-filters="sRGB"><feFlood flood-opacity="0" result="feFloodId_5_2588"/><feColorMatrix in="SourceAlpha" type="matrix" values="0 0 0 0 0 0 0 0 0 0 0 0 0 0 0 0 0 0 127 0" result="hardAlpha_5_2588"/><feOffset dx="0" dy="0"/><feGaussianBlur stdDeviation="6"/><feComposite in2="hardAlpha_5_2588" operator="out"/><feColorMatrix type="matrix" values="0 0 0 0 0 0 0 0 0 0.4470588235294118 0 0 0 0 1 0 0 0 0.64 0"/><feBlend mode="normal" in2="feFloodId_5_2588" result="dropShadow_1_5_2588"/><feColorMatrix in="SourceAlpha" type="matrix" values="0 0 0 0 0 0 0 0 0 0 0 0 0 0 0 0 0 0 127 0" result="hardAlpha_5_2588"/><feOffset dx="0" dy="2"/><feGaussianBlur stdDeviation="2"/><feComposite in2="hardAlpha_5_2588" operator="out"/><feColorMatrix type="matrix" values="0 0 0 0 0 0 0 0 0 0.06274509803921569 0 0 0 0 0.1411764705882353 0 0 0 0.48 0"/><feBlend mode="normal" in2="feFloodId_5_2588" result="dropShadow_1_5_2588"/><feBlend mode="normal" in="SourceGraphic" in2="dropShadow_1_5_2588" result="shape_5_2588"/></filter></defs></svg>