<svg xmlns="http://www.w3.org/2000/svg" xmlns:xlink="http://www.w3.org/1999/xlink" width="48.00030517578125" height="432" viewBox="0 0 48.00030517578125 432" fill="none"><rect  x="35.00030517578125" y="76" width="280" height="20" transform="rotate(90 35.00030517578125 76)"    fill="#1B2D4D" fill-opacity="0.4"></rect><path fill-rule="evenodd"  fill="rgba(125, 162, 206, 1)"  d="M35.0003 356L35.0003 76L15.0003 76L15.0003 356L35.0003 356ZM16.0003 77L34.0003 77L34.0003 355L16.0003 355L16.0003 77Z"></path><rect x="32.99835205078125" y="215" width="1" height="16" transform="rotate(90 32.99835205078125 215)"   fill="#7DA2CE" ></rect><rect x="32.99847412109375" y="216" width="1" height="16" transform="rotate(90 32.99847412109375 216)"   fill="#465D7A" ></rect><rect  x="43.99835205078125" y="194" width="40" height="40" transform="rotate(90 43.99835205078125 194)" rx="8"    fill="url(#linear_fill_2_324_0)" fill-opacity="1"></rect><path fill-rule="evenodd"  fill="rgba(237, 245, 255, 1)"  d="M43.9984 225.998L43.9984 202C43.9984 197.582 40.4168 194 35.9987 194L11.9999 194C7.58185 194 4.0003 197.582 4.0003 202L4.0003 225.998C4.0003 230.417 7.58185 233.998 11.9999 233.998L35.9987 233.998C40.4168 233.998 43.9984 230.417 43.9984 225.998ZM35.9987 195C39.8645 195 42.9984 198.134 42.9984 202L42.9984 225.998C42.9984 229.864 39.8645 232.998 35.9987 232.998L11.9999 232.998C8.13411 232.998 5.00025 229.864 5.00025 225.998L5.00025 202C5.00025 198.134 8.13411 195 11.9999 195L35.9987 195Z"></path><rect  x="33.99835205078125" y="204" width="4" height="19.9990234375" transform="rotate(89.99999999864629 33.99835205078125 204)" rx="2"    fill="#EDF5FF" ></rect><rect  x="33.99835205078125" y="212" width="4" height="19.9990234375" transform="rotate(89.99999999864629 33.99835205078125 212)" rx="2"    fill="#EDF5FF" ></rect><rect  x="33.99835205078125" y="220" width="4" height="19.9990234375" transform="rotate(89.99999999864629 33.99835205078125 220)" rx="2"    fill="#EDF5FF" ></rect><g filter="url(#filter_2_330)"><rect  x="0" y="0" width="48" height="48" rx="4"    fill="#1B2D4D" fill-opacity="0.4"></rect><path fill-rule="evenodd"  fill="rgba(0, 114, 255, 1)"  d="M44 0L4 0C1.79086 0 0 1.79086 0 4L0 44C0 46.2091 1.79086 48 4 48L44 48C46.2091 48 48 46.2091 48 44L48 4C48 1.79086 46.2091 0 44 0ZM1 4C1 2.34315 2.34315 1 4 1L44 1C45.6569 1 47 2.34315 47 4L47 44C47 45.6569 45.6569 47 44 47L4 47C2.34315 47 1 45.6569 1 44L1 4Z"></path></g><g filter="url(#filter_2_331)"><rect  x="12" y="21.88232421875" width="24" height="4" rx="2"    fill="#EDF5FF" ></rect></g><g filter="url(#filter_8_1)"><rect  x="0.00030517578125" y="384" width="48" height="48" rx="4"    fill="#1B2D4D" fill-opacity="0.4"></rect><rect  x="0.00030517578125" y="384" width="48" height="48" rx="4"    fill="url(#linear_fill_8_1_1)" ></rect><path fill-rule="evenodd"  fill="rgba(0, 198, 255, 1)"  d="M44.0003 384L4.00031 384C1.79117 384 0.000305176 385.791 0.000305176 388L0.000305176 428C0.000305176 430.209 1.79117 432 4.00031 432L44.0003 432C46.2094 432 48.0003 430.209 48.0003 428L48.0003 388C48.0003 385.791 46.2094 384 44.0003 384ZM1.00031 388C1.00031 386.343 2.34345 385 4.00031 385L44.0003 385C45.6572 385 47.0003 386.343 47.0003 388L47.0003 428C47.0003 429.657 45.6572 431 44.0003 431L4.00031 431C2.34345 431 1.00031 429.657 1.00031 428L1.00031 388Z"></path></g><g filter="url(#filter_8_2)"><path d="M26.0589 405.882L26.0589 398C26.0589 396.895 25.1635 396 24.0589 396C22.9543 396 22.0589 396.895 22.0589 398L22.0589 405.882L14.0003 405.882C12.8957 405.882 12.0003 406.778 12.0003 407.882C12.0003 408.987 12.8957 409.882 14.0003 409.882L22.0589 409.882L22.0589 418C22.0589 419.105 22.9543 420 24.0589 420C25.1635 420 26.0589 419.105 26.0589 418L26.0589 409.882L34.0003 409.882C35.1049 409.882 36.0003 408.987 36.0003 407.882C36.0003 406.778 35.1049 405.882 34.0003 405.882L26.0589 405.882Z" fill-rule="evenodd"  fill="#EDF5FF" ></path></g><defs><linearGradient id="linear_fill_2_324_0" x1="63.99835205078125" y1="234" x2="63.99835205078125" y2="194" gradientUnits="userSpaceOnUse"><stop offset="0" stop-color="#0072FF"  /><stop offset="1" stop-color="#00C8FF"  /></linearGradient><filter id="filter_2_330" x="0" y="0" width="48" height="48" filterUnits="userSpaceOnUse" color-interpolation-filters="sRGB"><feFlood flood-opacity="0" result="feFloodId_2_330"/><feBlend mode="normal" in="SourceGraphic" in2="feFloodId_2_330" result="shape_2_330"/><feColorMatrix in="SourceAlpha" type="matrix" values="0 0 0 0 0 0 0 0 0 0 0 0 0 0 0 0 0 0 127 0" result="hardAlpha_2_330"/><feOffset dx="0" dy="0"/><feGaussianBlur stdDeviation="2"/><feComposite in2="hardAlpha_2_330" operator="arithmetic" k2="-1" k3="1"/><feColorMatrix type="matrix" values="0 0 0 0 0 0 0 0 0 0.4470588235294118 0 0 0 0 1 0 0 0 0.64 0"/><feBlend mode="normal" in2="shape_2_330" result="innerShadow_0_2_330" /></filter><filter id="filter_2_331" x="8" y="17.88232421875" width="32" height="12" filterUnits="userSpaceOnUse" color-interpolation-filters="sRGB"><feFlood flood-opacity="0" result="feFloodId_2_331"/><feColorMatrix in="SourceAlpha" type="matrix" values="0 0 0 0 0 0 0 0 0 0 0 0 0 0 0 0 0 0 127 0" result="hardAlpha_2_331"/><feOffset dx="0" dy="0"/><feGaussianBlur stdDeviation="2"/><feComposite in2="hardAlpha_2_331" operator="out"/><feColorMatrix type="matrix" values="0 0 0 0 0 0 0 0 0 0.4470588235294118 0 0 0 0 1 0 0 0 1 0"/><feBlend mode="normal" in2="feFloodId_2_331" result="dropShadow_1_2_331"/><feBlend mode="normal" in="SourceGraphic" in2="dropShadow_1_2_331" result="shape_2_331"/></filter><linearGradient id="linear_fill_8_1_1" x1="24.00030517578125" y1="432" x2="24.00030517578125" y2="384" gradientUnits="userSpaceOnUse"><stop offset="0" stop-color="#00C6FF" stop-opacity="0.5" /><stop offset="1" stop-color="#00C6FF" stop-opacity="0" /></linearGradient><filter id="filter_8_1" x="0.00030517578125" y="384" width="48" height="48" filterUnits="userSpaceOnUse" color-interpolation-filters="sRGB"><feFlood flood-opacity="0" result="feFloodId_8_1"/><feBlend mode="normal" in="SourceGraphic" in2="feFloodId_8_1" result="shape_8_1"/><feColorMatrix in="SourceAlpha" type="matrix" values="0 0 0 0 0 0 0 0 0 0 0 0 0 0 0 0 0 0 127 0" result="hardAlpha_8_1"/><feOffset dx="0" dy="0"/><feGaussianBlur stdDeviation="4"/><feComposite in2="hardAlpha_8_1" operator="arithmetic" k2="-1" k3="1"/><feColorMatrix type="matrix" values="0 0 0 0 0 0 0 0 0 0.4470588235294118 0 0 0 0 1 0 0 0 0.64 0"/><feBlend mode="normal" in2="shape_8_1" result="innerShadow_0_8_1" /></filter><filter id="filter_8_2" x="8.00030517578125" y="392" width="32" height="32" filterUnits="userSpaceOnUse" color-interpolation-filters="sRGB"><feFlood flood-opacity="0" result="feFloodId_8_2"/><feColorMatrix in="SourceAlpha" type="matrix" values="0 0 0 0 0 0 0 0 0 0 0 0 0 0 0 0 0 0 127 0" result="hardAlpha_8_2"/><feOffset dx="0" dy="0"/><feGaussianBlur stdDeviation="2"/><feComposite in2="hardAlpha_8_2" operator="out"/><feColorMatrix type="matrix" values="0 0 0 0 0 0 0 0 0 0.4470588235294118 0 0 0 0 1 0 0 0 1 0"/><feBlend mode="normal" in2="feFloodId_8_2" result="dropShadow_1_8_2"/><feBlend mode="normal" in="SourceGraphic" in2="dropShadow_1_8_2" result="shape_8_2"/></filter></defs></svg>