<svg xmlns="http://www.w3.org/2000/svg" xmlns:xlink="http://www.w3.org/1999/xlink" width="39.998046875" height="39.998046875" viewBox="0 0 39.998046875 39.998046875" fill="none"><rect  x="39.998046875" y="0" width="40" height="40" transform="rotate(90 39.998046875 0)" rx="8"    fill="url(#linear_fill_2_324_0)" fill-opacity="1"></rect><path fill-rule="evenodd"  fill="rgba(237, 245, 255, 1)"  d="M39.998 31.9984L39.998 7.99961C39.998 3.58155 36.4165 0 31.9984 0L7.99961 0C3.58154 0 -3.8147e-06 3.58155 -3.8147e-06 7.99961L-3.8147e-06 31.9984C-3.8147e-06 36.4165 3.58154 39.9981 7.99961 39.9981L31.9984 39.9981C36.4165 39.9981 39.998 36.4165 39.998 31.9984ZM31.9984 0.999951C35.8642 0.999951 38.9981 4.13381 38.9981 7.99961L38.9981 31.9984C38.9981 35.8642 35.8642 38.9981 31.9984 38.9981L7.99961 38.9981C4.1338 38.9981 0.999947 35.8642 0.999947 31.9984L0.999947 7.99961C0.999947 4.13381 4.1338 0.999951 7.99961 0.999951L31.9984 0.999951Z"></path><rect  x="29.998046875" y="10" width="4" height="19.9990234375" transform="rotate(89.99999999864629 29.998046875 10)" rx="2"    fill="#EDF5FF" ></rect><rect  x="29.998046875" y="18" width="4" height="19.9990234375" transform="rotate(89.99999999864629 29.998046875 18)" rx="2"    fill="#EDF5FF" ></rect><rect  x="29.998046875" y="26" width="4" height="19.9990234375" transform="rotate(89.99999999864629 29.998046875 26)" rx="2"    fill="#EDF5FF" ></rect><defs><linearGradient id="linear_fill_2_324_0" x1="59.998046875" y1="40" x2="59.998046875" y2="0" gradientUnits="userSpaceOnUse"><stop offset="0" stop-color="#0072FF"  /><stop offset="1" stop-color="#00C8FF"  /></linearGradient></defs></svg>
