<svg xmlns="http://www.w3.org/2000/svg" xmlns:xlink="http://www.w3.org/1999/xlink" width="136" height="136" viewBox="0 0 136 136" fill="none"><g filter="url(#filter_5_2588)"><path d="M30.3591 21.2192L12.0243 21.2192L12.0243 93.5258L30.4805 93.5258C54.2793 93.5258 66.0087 80.7431 66.0087 57.1072C66.0087 33.4713 54.255 21.2192 30.3591 21.2192ZM122.422 41.8886C122.422 54.1889 114.845 61.2797 102.994 63.0886L102.97 63.0886L124 93.5258L116.739 93.5258L96.0488 63.6192L95.9759 63.6192L95.9759 58.289C108.798 58.0237 115.913 53.1277 115.913 41.8886C115.913 30.6495 108.458 26.5253 95.0046 26.5253L80.1667 26.5253L80.1667 93.5017L73.7557 93.5017L73.7557 21.2192L96.4859 21.2192C111.955 21.2192 122.422 26.8388 122.422 41.8886ZM59.2576 57.1072C59.2576 77.1495 50.1995 88.1233 29.7034 88.1233L18.3868 88.1233L18.3868 26.5253L29.7034 26.5253C50.1752 26.5253 59.2576 37.0649 59.2576 57.1072ZM20.087 107.37L29.8493 114.219L29.8493 109.854L106.297 109.854L106.297 105.03L29.8493 105.03L29.8493 100.52L20.087 107.37ZM116.059 107.37L106.297 114.219L106.297 100.52L116.059 107.37Z" fill-rule="evenodd"  fill="#EDF5FF" ></path></g><defs><filter id="filter_5_2588" x="0.0242919921875" y="9.21923828125" width="127.97592163085938" height="111" filterUnits="userSpaceOnUse" color-interpolation-filters="sRGB"><feFlood flood-opacity="0" result="feFloodId_5_2588"/><feColorMatrix in="SourceAlpha" type="matrix" values="0 0 0 0 0 0 0 0 0 0 0 0 0 0 0 0 0 0 127 0" result="hardAlpha_5_2588"/><feOffset dx="0" dy="0"/><feGaussianBlur stdDeviation="6"/><feComposite in2="hardAlpha_5_2588" operator="out"/><feColorMatrix type="matrix" values="0 0 0 0 0 0 0 0 0 0.4470588235294118 0 0 0 0 1 0 0 0 0.64 0"/><feBlend mode="normal" in2="feFloodId_5_2588" result="dropShadow_1_5_2588"/><feColorMatrix in="SourceAlpha" type="matrix" values="0 0 0 0 0 0 0 0 0 0 0 0 0 0 0 0 0 0 127 0" result="hardAlpha_5_2588"/><feOffset dx="0" dy="2"/><feGaussianBlur stdDeviation="2"/><feComposite in2="hardAlpha_5_2588" operator="out"/><feColorMatrix type="matrix" values="0 0 0 0 0 0 0 0 0 0.06274509803921569 0 0 0 0 0.1411764705882353 0 0 0 0.48 0"/><feBlend mode="normal" in2="feFloodId_5_2588" result="dropShadow_1_5_2588"/><feBlend mode="normal" in="SourceGraphic" in2="dropShadow_1_5_2588" result="shape_5_2588"/></filter></defs></svg>