<svg xmlns="http://www.w3.org/2000/svg" xmlns:xlink="http://www.w3.org/1999/xlink" width="212" height="270" viewBox="0 0 212 270" fill="none"><g filter="url(#filter_7_2001)"><rect  x="0" y="0" width="212" height="270" rx="16"    fill="#1B2D4D" fill-opacity="0.4"></rect><rect  x="0" y="0" width="212" height="270" rx="16"    fill="url(#linear_fill_7_2001_1)" ></rect><path fill-rule="evenodd"  fill="url(#linear_border_7_2001_0)"  d="M196 0L16 0C7.16344 0 0 7.16344 0 16L0 254C0 262.837 7.16344 270 16 270L196 270C204.837 270 212 262.837 212 254L212 16C212 7.16344 204.837 0 196 0ZM1 16C1 7.71573 7.71573 1 16 1L196 1C204.284 1 211 7.71573 211 16L211 254C211 262.284 204.284 269 196 269L16 269C7.71573 269 1 262.284 1 254L1 16Z"></path></g><path d="M82.3154 66.9758L85.0378 64.1978L101.263 80.7543L101.263 67.3731L110.736 67.3731L110.736 80.7576L126.961 64.2011L129.684 66.9791L110.736 86.3136L110.736 130.086L125.357 130.086C126.434 130.086 127.315 130.966 127.315 132.04L127.315 155.489L123.399 155.489L123.399 133.995L110.736 133.995L110.736 155.489L101.263 155.489L101.263 133.995L88.6004 133.995L88.6004 155.489L84.6838 155.489L84.6838 132.04C84.6838 130.966 85.5651 130.086 86.6421 130.086L101.263 130.086L101.263 86.3103L82.3154 66.9758Z" fill-rule="evenodd"  fill="#7DA2CE" ></path><rect  x="94.94677734375" y="104.65234375" width="22.10513687133789" height="38.08678436279297" rx="3.126436781609195"    fill="#EDF5FF" ></rect><rect x="71.2626953125" y="155.4345703125" width="69.47328186035156" height="9.521697998046875"   fill="#EDF5FF" ></rect><rect x="70.47314453125" y="57.8369140625" width="69.47330474853516" height="9.52169418334961"   fill="#EDF5FF" ></rect><path d="M69.0069 136.391L49.8341 136.391C47.7155 136.391 45.9995 138.095 45.9995 140.2L45.9995 180.191C45.9995 182.295 47.7155 184 49.8341 184L69.0069 184C71.1255 184 72.8415 182.295 72.8415 180.191L72.8415 140.2C72.8415 138.095 71.1255 136.391 69.0069 136.391ZM54.5027 178.125L49.0768 172.735L51.7897 170.041L57.2156 175.43L54.5027 178.125ZM54.5027 164.233L49.0768 158.843L51.7897 156.149L57.2156 161.538L54.5027 164.233ZM54.5027 150.35L49.0768 144.961L51.7897 142.266L57.2156 147.655L54.5027 150.35ZM64.3383 178.125L61.6254 175.43L67.0513 170.041L69.7642 172.735L64.3383 178.125ZM64.3383 164.233L61.6254 161.538L67.0513 156.149L69.7642 158.843L64.3383 164.233ZM64.3383 150.35L61.6254 147.655L67.0513 142.266L69.7642 144.961L64.3383 150.35Z"   fill="url(#linear_fill_12_3308)" ></path><path d="M142.992 136.391L162.165 136.391C164.283 136.391 165.999 138.095 165.999 140.2L165.999 180.191C165.999 182.295 164.283 184 162.165 184L142.992 184C140.873 184 139.157 182.295 139.157 180.191L139.157 140.2C139.157 138.095 140.873 136.391 142.992 136.391ZM157.496 178.125L162.922 172.735L160.209 170.041L154.783 175.43L157.496 178.125ZM157.496 164.233L162.922 158.843L160.209 156.149L154.783 161.538L157.496 164.233ZM157.496 150.35L162.922 144.961L160.209 142.266L154.783 147.655L157.496 150.35ZM147.66 178.125L150.373 175.43L144.947 170.041L142.234 172.735L147.66 178.125ZM147.66 164.233L150.373 161.538L144.947 156.149L142.234 158.843L147.66 164.233ZM147.66 150.35L150.373 147.655L144.947 142.266L142.234 144.961L147.66 150.35Z"   fill="url(#linear_fill_12_3309)" ></path><path d="M69.0069 37.9995L49.8341 37.9995C47.7155 37.9995 45.9995 39.7039 45.9995 41.8082L45.9995 81.7993C45.9995 83.9036 47.7155 85.608 49.8341 85.608L69.0069 85.608C71.1255 85.608 72.8415 83.9036 72.8415 81.7993L72.8415 41.8082C72.8415 39.7039 71.1255 37.9995 69.0069 37.9995ZM54.5027 79.7331L49.0768 74.3438L51.7897 71.6492L57.2156 77.0385L54.5027 79.7331ZM54.5027 65.841L49.0768 60.4517L51.7897 57.757L57.2156 63.1463L54.5027 65.841ZM54.5027 51.9583L49.0768 46.569L51.7897 43.8744L57.2156 49.2637L54.5027 51.9583ZM64.3383 79.7331L61.6254 77.0385L67.0513 71.6492L69.7642 74.3438L64.3383 79.7331ZM64.3383 65.841L61.6254 63.1463L67.0513 57.757L69.7642 60.4517L64.3383 65.841ZM64.3383 51.9583L61.6254 49.2637L67.0513 43.8744L69.7642 46.569L64.3383 51.9583Z"   fill="url(#linear_fill_12_3310)" ></path><path d="M142.992 37.9995L162.165 37.9995C164.283 37.9995 165.999 39.7039 165.999 41.8082L165.999 81.7993C165.999 83.9036 164.283 85.608 162.165 85.608L142.992 85.608C140.873 85.608 139.157 83.9036 139.157 81.7993L139.157 41.8082C139.157 39.7039 140.873 37.9995 142.992 37.9995ZM157.496 79.7331L162.922 74.3438L160.209 71.6492L154.783 77.0385L157.496 79.7331ZM157.496 65.841L162.922 60.4517L160.209 57.757L154.783 63.1463L157.496 65.841ZM157.496 51.9583L162.922 46.569L160.209 43.8744L154.783 49.2637L157.496 51.9583ZM147.66 79.7331L150.373 77.0385L144.947 71.6492L142.234 74.3438L147.66 79.7331ZM147.66 65.841L150.373 63.1463L144.947 57.757L142.234 60.4517L147.66 65.841ZM147.66 51.9583L150.373 49.2637L144.947 43.8744L142.234 46.569L147.66 51.9583Z"   fill="url(#linear_fill_12_3311)" ></path><g ><text transform="translate(78, 206)"><tspan x="0" y="29.68" font-size="28" line-height="0"  fill="#EDF5FF"  font-family=".PingFang SC Regular; 10.11d9e1; 2015-05-20" letter-spacing="0" >后驱</tspan></text></g><defs><linearGradient id="linear_fill_7_2001_1" x1="106" y1="270" x2="106" y2="0" gradientUnits="userSpaceOnUse"><stop offset="0" stop-color="#0072FF" stop-opacity="0.48" /><stop offset="1" stop-color="#0073FF" stop-opacity="0" /></linearGradient><linearGradient id="linear_border_7_2001_0" x1="106" y1="270" x2="106" y2="0" gradientUnits="userSpaceOnUse"><stop offset="0" stop-color="#7DA2CE" stop-opacity="0.4" /><stop offset="0.2807" stop-color="#7DA2CE" stop-opacity="0.64" /><stop offset="0.5394" stop-color="#7DA2CE"  /><stop offset="0.7815" stop-color="#7DA2CE" stop-opacity="0.64" /><stop offset="1" stop-color="#7DA2CE" stop-opacity="0.4" /></linearGradient><filter id="filter_7_2001" x="0" y="0" width="212" height="270" filterUnits="userSpaceOnUse" color-interpolation-filters="sRGB"><feFlood flood-opacity="0" result="feFloodId_7_2001"/><feBlend mode="normal" in="SourceGraphic" in2="feFloodId_7_2001" result="shape_7_2001"/><feColorMatrix in="SourceAlpha" type="matrix" values="0 0 0 0 0 0 0 0 0 0 0 0 0 0 0 0 0 0 127 0" result="hardAlpha_7_2001"/><feOffset dx="0" dy="0"/><feGaussianBlur stdDeviation="4"/><feComposite in2="hardAlpha_7_2001" operator="arithmetic" k2="-1" k3="1"/><feColorMatrix type="matrix" values="0 0 0 0 0 0 0 0 0 0.4470588235294118 0 0 0 0 1 0 0 0 0.64 0"/><feBlend mode="normal" in2="shape_7_2001" result="innerShadow_0_7_2001" /></filter><linearGradient id="linear_fill_12_3308" x1="59.42041015625" y1="183.99951171875" x2="59.42041015625" y2="136.39111328125" gradientUnits="userSpaceOnUse"><stop offset="0" stop-color="#0072FF"  /><stop offset="1" stop-color="#00C8FF"  /></linearGradient><linearGradient id="linear_fill_12_3309" x1="152.578125" y1="183.99951171875" x2="152.578125" y2="136.39111328125" gradientUnits="userSpaceOnUse"><stop offset="0" stop-color="#0072FF"  /><stop offset="1" stop-color="#00C8FF"  /></linearGradient><linearGradient id="linear_fill_12_3310" x1="59.42041015625" y1="37.99951171875" x2="59.42041015625" y2="85.60791015625" gradientUnits="userSpaceOnUse"><stop offset="0" stop-color="#EDF5FF"  /><stop offset="1" stop-color="#92C3FF"  /></linearGradient><linearGradient id="linear_fill_12_3311" x1="152.578125" y1="37.99951171875" x2="152.578125" y2="85.60791015625" gradientUnits="userSpaceOnUse"><stop offset="0" stop-color="#EDF5FF"  /><stop offset="1" stop-color="#92C3FF"  /></linearGradient></defs></svg>