<svg xmlns="http://www.w3.org/2000/svg" xmlns:xlink="http://www.w3.org/1999/xlink" width="212" height="270" viewBox="0 0 212 270" fill="none"><g filter="url(#filter_12_3289)"><rect  x="0" y="0" width="212" height="270" rx="16"    fill="url(#linear_fill_12_3289_0)" ></rect><path fill-rule="evenodd"  fill="url(#linear_border_12_3289_0)"  d="M196 0L16 0C7.16344 0 0 7.16344 0 16L0 254C0 262.837 7.16344 270 16 270L196 270C204.837 270 212 262.837 212 254L212 16C212 7.16344 204.837 0 196 0ZM1 16C1 7.71573 7.71573 1 16 1L196 1C204.284 1 211 7.71573 211 16L211 254C211 262.284 204.284 269 196 269L16 269C7.71573 269 1 262.284 1 254L1 16Z"></path></g><path d="M82.3154 66.9758L85.0378 64.1978L101.263 80.7543L101.263 67.3731L110.736 67.3731L110.736 80.7576L126.961 64.2011L129.684 66.9791L110.736 86.3136L110.736 130.086L125.357 130.086C126.434 130.086 127.315 130.966 127.315 132.04L127.315 155.489L123.399 155.489L123.399 133.995L110.736 133.995L110.736 155.489L101.263 155.489L101.263 133.995L88.6004 133.995L88.6004 155.489L84.6838 155.489L84.6838 132.04C84.6838 130.966 85.5651 130.086 86.6421 130.086L101.263 130.086L101.263 86.3103L82.3154 66.9758Z" fill-rule="evenodd"  fill="#7DA2CE" ></path><rect  x="94.947265625" y="104.65185546875" width="22.105247497558594" height="38.086769104003906" rx="3.126436781609195"    fill="#EDF5FF" ></rect><rect x="71.26318359375" y="155.43408203125" width="69.47362899780273" height="9.521690368652344"   fill="#EDF5FF" ></rect><rect x="70.4736328125" y="57.83642578125" width="69.4736328125" height="9.521692276000977"   fill="#EDF5FF" ></rect><path d="M69.0075 136.391L49.8346 136.391C47.716 136.391 46 138.095 46 140.199L46 180.19C46 182.295 47.716 183.999 49.8346 183.999L69.0075 183.999C71.1261 183.999 72.8421 182.295 72.8421 180.19L72.8421 140.199C72.8421 138.095 71.1261 136.391 69.0075 136.391ZM54.5032 178.124L49.0773 172.735L51.7902 170.04L57.2162 175.43L54.5032 178.124ZM54.5032 164.232L49.0773 158.843L51.7902 156.148L57.2162 161.537L54.5032 164.232ZM54.5032 150.349L49.0773 144.96L51.7902 142.266L57.2162 147.655L54.5032 150.349ZM64.3389 178.124L61.6259 175.43L67.0519 170.04L69.7648 172.735L64.3389 178.124ZM64.3389 164.232L61.6259 161.537L67.0519 156.148L69.7648 158.843L64.3389 164.232ZM64.3389 150.349L61.6259 147.655L67.0519 142.266L69.7648 144.96L64.3389 150.349Z"   fill="url(#linear_fill_12_3330)" ></path><path d="M142.992 136.391L162.165 136.391C164.284 136.391 166 138.095 166 140.199L166 180.19C166 182.295 164.284 183.999 162.165 183.999L142.992 183.999C140.874 183.999 139.158 182.295 139.158 180.19L139.158 140.199C139.158 138.095 140.874 136.391 142.992 136.391ZM157.497 178.124L162.923 172.735L160.21 170.04L154.784 175.43L157.497 178.124ZM157.497 164.232L162.923 158.843L160.21 156.148L154.784 161.537L157.497 164.232ZM157.497 150.349L162.923 144.96L160.21 142.266L154.784 147.655L157.497 150.349ZM147.661 178.124L150.374 175.43L144.948 170.04L142.235 172.735L147.661 178.124ZM147.661 164.232L150.374 161.537L144.948 156.148L142.235 158.843L147.661 164.232ZM147.661 150.349L150.374 147.655L144.948 142.266L142.235 144.96L147.661 150.349Z"   fill="url(#linear_fill_12_3331)" ></path><path d="M69.0075 37.9995L49.8346 37.9995C47.716 37.9995 46 39.7039 46 41.8082L46 81.7993C46 83.9036 47.716 85.608 49.8346 85.608L69.0075 85.608C71.1261 85.608 72.8421 83.9036 72.8421 81.7993L72.8421 41.8082C72.8421 39.7039 71.1261 37.9995 69.0075 37.9995ZM54.5032 79.7331L49.0773 74.3438L51.7902 71.6492L57.2162 77.0385L54.5032 79.7331ZM54.5032 65.841L49.0773 60.4517L51.7902 57.757L57.2162 63.1463L54.5032 65.841ZM54.5032 51.9583L49.0773 46.569L51.7902 43.8744L57.2162 49.2637L54.5032 51.9583ZM64.3389 79.7331L61.6259 77.0385L67.0519 71.6492L69.7648 74.3438L64.3389 79.7331ZM64.3389 65.841L61.6259 63.1463L67.0519 57.757L69.7648 60.4517L64.3389 65.841ZM64.3389 51.9583L61.6259 49.2637L67.0519 43.8744L69.7648 46.569L64.3389 51.9583Z"   fill="url(#linear_fill_12_3332)" ></path><path d="M142.992 37.9995L162.165 37.9995C164.284 37.9995 166 39.7039 166 41.8082L166 81.7993C166 83.9036 164.284 85.608 162.165 85.608L142.992 85.608C140.874 85.608 139.158 83.9036 139.158 81.7993L139.158 41.8082C139.158 39.7039 140.874 37.9995 142.992 37.9995ZM157.497 79.7331L162.923 74.3438L160.21 71.6492L154.784 77.0385L157.497 79.7331ZM157.497 65.841L162.923 60.4517L160.21 57.757L154.784 63.1463L157.497 65.841ZM157.497 51.9583L162.923 46.569L160.21 43.8744L154.784 49.2637L157.497 51.9583ZM147.661 79.7331L150.374 77.0385L144.948 71.6492L142.235 74.3438L147.661 79.7331ZM147.661 65.841L150.374 63.1463L144.948 57.757L142.235 60.4517L147.661 65.841ZM147.661 51.9583L150.374 49.2637L144.948 43.8744L142.235 46.569L147.661 51.9583Z"   fill="url(#linear_fill_12_3333)" ></path><g ><text transform="translate(78, 206)"><tspan x="0" y="29.68" font-size="28" line-height="0"  fill="#EDF5FF"  font-family=".PingFang SC Regular; 10.11d9e1; 2015-05-20" letter-spacing="0" >前驱</tspan></text></g><defs><linearGradient id="linear_fill_12_3289_0" x1="106" y1="0" x2="106" y2="270" gradientUnits="userSpaceOnUse"><stop offset="0" stop-color="#1B2D4D"  /><stop offset="1" stop-color="#1B2D4D" stop-opacity="0" /></linearGradient><linearGradient id="linear_border_12_3289_0" x1="106" y1="270" x2="106" y2="0" gradientUnits="userSpaceOnUse"><stop offset="0" stop-color="#7DA2CE" stop-opacity="0.4" /><stop offset="0.2807" stop-color="#7DA2CE" stop-opacity="0.64" /><stop offset="0.5394" stop-color="#7DA2CE"  /><stop offset="0.7815" stop-color="#7DA2CE" stop-opacity="0.64" /><stop offset="1" stop-color="#7DA2CE" stop-opacity="0.4" /></linearGradient><filter id="filter_12_3289" x="0" y="0" width="212" height="270" filterUnits="userSpaceOnUse" color-interpolation-filters="sRGB"><feFlood flood-opacity="0" result="feFloodId_12_3289"/><feBlend mode="normal" in="SourceGraphic" in2="feFloodId_12_3289" result="shape_12_3289"/><feColorMatrix in="SourceAlpha" type="matrix" values="0 0 0 0 0 0 0 0 0 0 0 0 0 0 0 0 0 0 127 0" result="hardAlpha_12_3289"/><feOffset dx="0" dy="0"/><feGaussianBlur stdDeviation="4"/><feComposite in2="hardAlpha_12_3289" operator="arithmetic" k2="-1" k3="1"/><feColorMatrix type="matrix" values="0 0 0 0 0 0 0 0 0 0.4470588235294118 0 0 0 0 1 0 0 0 0.64 0"/><feBlend mode="normal" in2="shape_12_3289" result="innerShadow_0_12_3289" /></filter><linearGradient id="linear_fill_12_3330" x1="59.4208984375" y1="136.390625" x2="59.4208984375" y2="183.9990234375" gradientUnits="userSpaceOnUse"><stop offset="0" stop-color="#EDF5FF"  /><stop offset="1" stop-color="#92C3FF"  /></linearGradient><linearGradient id="linear_fill_12_3331" x1="152.57861328125" y1="136.390625" x2="152.57861328125" y2="183.9990234375" gradientUnits="userSpaceOnUse"><stop offset="0" stop-color="#EDF5FF"  /><stop offset="1" stop-color="#92C3FF"  /></linearGradient><linearGradient id="linear_fill_12_3332" x1="59.4208984375" y1="85.60791015625" x2="59.4208984375" y2="37.99951171875" gradientUnits="userSpaceOnUse"><stop offset="0" stop-color="#0072FF"  /><stop offset="1" stop-color="#00C8FF"  /></linearGradient><linearGradient id="linear_fill_12_3333" x1="152.57861328125" y1="85.60791015625" x2="152.57861328125" y2="37.99951171875" gradientUnits="userSpaceOnUse"><stop offset="0" stop-color="#0072FF"  /><stop offset="1" stop-color="#00C8FF"  /></linearGradient></defs></svg>