<svg xmlns="http://www.w3.org/2000/svg" xmlns:xlink="http://www.w3.org/1999/xlink" width="212" height="270" viewBox="0 0 212 270" fill="none"><g filter="url(#filter_12_3276)"><rect  x="0" y="0" width="212" height="270" rx="16"    fill="url(#linear_fill_12_3276_0)" ></rect><path fill-rule="evenodd"  fill="url(#linear_border_12_3276_0)"  d="M196 0L16 0C7.16344 0 0 7.16344 0 16L0 254C0 262.837 7.16344 270 16 270L196 270C204.837 270 212 262.837 212 254L212 16C212 7.16344 204.837 0 196 0ZM1 16C1 7.71573 7.71573 1 16 1L196 1C204.284 1 211 7.71573 211 16L211 254C211 262.284 204.284 269 196 269L16 269C7.71573 269 1 262.284 1 254L1 16Z"></path></g><path d="M82.3154 66.9763L85.0378 64.1983L101.263 80.7548L101.263 67.3736L110.736 67.3736L110.736 80.7581L126.961 64.2016L129.684 66.9796L110.736 86.3141L110.736 130.087L125.357 130.087C126.434 130.087 127.315 130.966 127.315 132.041L127.315 155.49L123.399 155.49L123.399 133.995L110.736 133.995L110.736 155.49L101.263 155.49L101.263 133.995L88.6004 133.995L88.6004 155.49L84.6839 155.49L84.6839 132.041C84.6839 130.966 85.5651 130.087 86.6421 130.087L101.263 130.087L101.263 86.3108L82.3154 66.9763Z" fill-rule="evenodd"  fill="#7DA2CE" ></path><rect  x="94.947265625" y="104.65234375" width="22.105247497558594" height="38.08679962158203" rx="3.126436781609195"    fill="#EDF5FF" ></rect><rect x="71.26318359375" y="155.4345703125" width="69.4736442565918" height="9.521697998046875"   fill="#EDF5FF" ></rect><rect x="70.47314453125" y="57.8369140625" width="69.4736328125" height="9.521697998046875"   fill="#EDF5FF" ></rect><path d="M69.007 136.391L49.8341 136.391C47.7155 136.391 45.9995 138.096 45.9995 140.2L45.9995 180.191C45.9995 182.295 47.7155 184 49.8341 184L69.007 184C71.1256 184 72.8416 182.295 72.8416 180.191L72.8416 140.2C72.8416 138.096 71.1256 136.391 69.007 136.391ZM54.5027 178.125L49.0768 172.735L51.7897 170.041L57.2157 175.43L54.5027 178.125ZM54.5027 164.233L49.0768 158.843L51.7897 156.149L57.2157 161.538L54.5027 164.233ZM54.5027 150.35L49.0768 144.961L51.7897 142.266L57.2157 147.655L54.5027 150.35ZM64.3384 178.125L61.6254 175.43L67.0514 170.041L69.7643 172.735L64.3384 178.125ZM64.3384 164.233L61.6254 161.538L67.0514 156.149L69.7643 158.843L64.3384 164.233ZM64.3384 150.35L61.6254 147.655L67.0514 142.266L69.7643 144.961L64.3384 150.35Z"   fill="url(#linear_fill_12_3319)" ></path><path d="M142.992 136.391L162.165 136.391C164.284 136.391 166 138.096 166 140.2L166 180.191C166 182.295 164.284 184 162.165 184L142.992 184C140.874 184 139.158 182.295 139.158 180.191L139.158 140.2C139.158 138.096 140.874 136.391 142.992 136.391ZM157.497 178.125L162.923 172.735L160.21 170.041L154.784 175.43L157.497 178.125ZM157.497 164.233L162.923 158.843L160.21 156.149L154.784 161.538L157.497 164.233ZM157.497 150.35L162.923 144.961L160.21 142.266L154.784 147.655L157.497 150.35ZM147.661 178.125L150.374 175.43L144.948 170.041L142.235 172.735L147.661 178.125ZM147.661 164.233L150.374 161.538L144.948 156.149L142.235 158.843L147.661 164.233ZM147.661 150.35L150.374 147.655L144.948 142.266L142.235 144.961L147.661 150.35Z"   fill="url(#linear_fill_12_3320)" ></path><path d="M69.007 37.9995L49.8341 37.9995C47.7155 37.9995 45.9995 39.7039 45.9995 41.8082L45.9995 81.7993C45.9995 83.9036 47.7155 85.608 49.8341 85.608L69.007 85.608C71.1256 85.608 72.8416 83.9036 72.8416 81.7993L72.8416 41.8082C72.8416 39.7039 71.1256 37.9995 69.007 37.9995ZM54.5027 79.7331L49.0768 74.3438L51.7897 71.6492L57.2157 77.0385L54.5027 79.7331ZM54.5027 65.841L49.0768 60.4517L51.7897 57.757L57.2157 63.1463L54.5027 65.841ZM54.5027 51.9583L49.0768 46.569L51.7897 43.8744L57.2157 49.2637L54.5027 51.9583ZM64.3384 79.7331L61.6254 77.0385L67.0514 71.6492L69.7643 74.3438L64.3384 79.7331ZM64.3384 65.841L61.6254 63.1463L67.0514 57.757L69.7643 60.4517L64.3384 65.841ZM64.3384 51.9583L61.6254 49.2637L67.0514 43.8744L69.7643 46.569L64.3384 51.9583Z"   fill="url(#linear_fill_12_3321)" ></path><path d="M142.992 37.9995L162.165 37.9995C164.284 37.9995 166 39.7039 166 41.8082L166 81.7993C166 83.9036 164.284 85.608 162.165 85.608L142.992 85.608C140.874 85.608 139.158 83.9036 139.158 81.7993L139.158 41.8082C139.158 39.7039 140.874 37.9995 142.992 37.9995ZM157.497 79.7331L162.923 74.3438L160.21 71.6492L154.784 77.0385L157.497 79.7331ZM157.497 65.841L162.923 60.4517L160.21 57.757L154.784 63.1463L157.497 65.841ZM157.497 51.9583L162.923 46.569L160.21 43.8744L154.784 49.2637L157.497 51.9583ZM147.661 79.7331L150.374 77.0385L144.948 71.6492L142.235 74.3438L147.661 79.7331ZM147.661 65.841L150.374 63.1463L144.948 57.757L142.235 60.4517L147.661 65.841ZM147.661 51.9583L150.374 49.2637L144.948 43.8744L142.235 46.569L147.661 51.9583Z"   fill="url(#linear_fill_12_3322)" ></path><g ><text transform="translate(50, 206)"><tspan x="0" y="29.68" font-size="28" line-height="0"  fill="#EDF5FF"  font-family=".PingFang SC Regular; 10.11d9e1; 2015-05-20" letter-spacing="0" >前后混驱</tspan></text></g><defs><linearGradient id="linear_fill_12_3276_0" x1="106" y1="0" x2="106" y2="270" gradientUnits="userSpaceOnUse"><stop offset="0" stop-color="#1B2D4D"  /><stop offset="1" stop-color="#1B2D4D" stop-opacity="0" /></linearGradient><linearGradient id="linear_border_12_3276_0" x1="106" y1="270" x2="106" y2="0" gradientUnits="userSpaceOnUse"><stop offset="0" stop-color="#7DA2CE" stop-opacity="0.4" /><stop offset="0.2807" stop-color="#7DA2CE" stop-opacity="0.64" /><stop offset="0.5394" stop-color="#7DA2CE"  /><stop offset="0.7815" stop-color="#7DA2CE" stop-opacity="0.64" /><stop offset="1" stop-color="#7DA2CE" stop-opacity="0.4" /></linearGradient><filter id="filter_12_3276" x="0" y="0" width="212" height="270" filterUnits="userSpaceOnUse" color-interpolation-filters="sRGB"><feFlood flood-opacity="0" result="feFloodId_12_3276"/><feBlend mode="normal" in="SourceGraphic" in2="feFloodId_12_3276" result="shape_12_3276"/><feColorMatrix in="SourceAlpha" type="matrix" values="0 0 0 0 0 0 0 0 0 0 0 0 0 0 0 0 0 0 127 0" result="hardAlpha_12_3276"/><feOffset dx="0" dy="0"/><feGaussianBlur stdDeviation="4"/><feComposite in2="hardAlpha_12_3276" operator="arithmetic" k2="-1" k3="1"/><feColorMatrix type="matrix" values="0 0 0 0 0 0 0 0 0 0.4470588235294118 0 0 0 0 1 0 0 0 0.64 0"/><feBlend mode="normal" in2="shape_12_3276" result="innerShadow_0_12_3276" /></filter><linearGradient id="linear_fill_12_3319" x1="59.42041015625" y1="183.99951171875" x2="59.42041015625" y2="136.39111328125" gradientUnits="userSpaceOnUse"><stop offset="0" stop-color="#0072FF"  /><stop offset="1" stop-color="#00C8FF"  /></linearGradient><linearGradient id="linear_fill_12_3320" x1="152.57861328125" y1="183.99951171875" x2="152.57861328125" y2="136.39111328125" gradientUnits="userSpaceOnUse"><stop offset="0" stop-color="#0072FF"  /><stop offset="1" stop-color="#00C8FF"  /></linearGradient><linearGradient id="linear_fill_12_3321" x1="59.42041015625" y1="85.60791015625" x2="59.42041015625" y2="37.99951171875" gradientUnits="userSpaceOnUse"><stop offset="0" stop-color="#0072FF"  /><stop offset="1" stop-color="#00C8FF"  /></linearGradient><linearGradient id="linear_fill_12_3322" x1="152.57861328125" y1="85.60791015625" x2="152.57861328125" y2="37.99951171875" gradientUnits="userSpaceOnUse"><stop offset="0" stop-color="#0072FF"  /><stop offset="1" stop-color="#00C8FF"  /></linearGradient></defs></svg>