<svg xmlns="http://www.w3.org/2000/svg" xmlns:xlink="http://www.w3.org/1999/xlink" width="48" height="48" viewBox="0 0 48 48" fill="none"><path d="M38.3398 17.6643C38.9798 17.0251 39.6198 16.386 40.2598 15.7268C40.4198 15.567 40.5798 15.4073 40.7198 15.2475C41.5598 14.3087 41.9998 13.2102 41.9998 12.0517C41.9998 10.7334 41.5998 9.63491 40.7798 8.7361C40.3998 8.29668 39.9798 7.87723 39.5598 7.47776C37.4798 5.46044 34.5798 5.46044 32.5198 7.51771L30.3798 9.65488L38.3398 17.6643ZM10.84 10.1346L22.94 10.1346C23.0713 10.1346 23.2014 10.1218 23.3302 10.0962C23.459 10.0706 23.584 10.0328 23.7054 9.98256C23.8267 9.93238 23.942 9.87085 24.0512 9.79799C24.1604 9.72513 24.2614 9.64233 24.3542 9.5496C24.447 9.45685 24.5299 9.35596 24.603 9.24692C24.6759 9.13788 24.7375 9.02277 24.7878 8.9016C24.8381 8.78044 24.876 8.65554 24.9016 8.52691C24.9272 8.39829 24.94 8.2684 24.94 8.13725C24.94 8.0061 24.9272 7.87622 24.9016 7.74759C24.876 7.61896 24.8381 7.49406 24.7878 7.3729C24.7375 7.25174 24.6759 7.13663 24.603 7.02758C24.5299 6.91854 24.447 6.81765 24.3542 6.72491C24.2614 6.63218 24.1604 6.54938 24.0512 6.47652C23.942 6.40365 23.8267 6.34213 23.7054 6.29194C23.584 6.24175 23.459 6.20387 23.3302 6.17828C23.2014 6.15269 23.0713 6.1399 22.94 6.1399L10.84 6.1399C9.91911 6.1399 9.03729 6.31241 8.19454 6.65741C7.37677 6.99219 6.65239 7.46565 6.02142 8.07777C5.38649 8.69374 4.89436 9.40326 4.54501 10.2063C4.18167 11.0416 4 11.9165 4 12.831L4 37.2786C4 38.1931 4.18167 39.068 4.54501 39.9033C4.89436 40.7064 5.3865 41.4159 6.02142 42.0319C6.65239 42.644 7.37677 43.1175 8.19454 43.4522C9.0373 43.7972 9.91912 43.9697 10.84 43.9697L35.04 43.9697C35.9609 43.9697 36.8427 43.7972 37.6854 43.4522C38.5033 43.1175 39.2277 42.644 39.8586 42.0319C40.4935 41.4159 40.9857 40.7064 41.335 39.9033C41.6983 39.068 41.88 38.1931 41.88 37.2786L41.88 25.0748C41.88 24.9436 41.8672 24.8138 41.8416 24.6851C41.816 24.5565 41.7781 24.4316 41.7278 24.3104C41.6775 24.1893 41.6159 24.0742 41.543 23.9651C41.4701 23.8561 41.3871 23.7552 41.2942 23.6624C41.2014 23.5697 41.1004 23.4869 40.9912 23.4141C40.882 23.3412 40.7667 23.2797 40.6454 23.2295C40.5241 23.1793 40.399 23.1414 40.2702 23.1158C40.1414 23.0902 40.0113 23.0774 39.88 23.0774C39.7487 23.0774 39.6186 23.0902 39.4898 23.1158C39.361 23.1414 39.2359 23.1793 39.1146 23.2295C38.9933 23.2797 38.878 23.3412 38.7688 23.4141C38.6596 23.4869 38.5586 23.5697 38.4658 23.6624C38.3729 23.7552 38.2899 23.8561 38.217 23.9651C38.1441 24.0742 38.0825 24.1893 38.0322 24.3104C37.9819 24.4316 37.944 24.5565 37.9184 24.6851C37.8928 24.8138 37.88 24.9436 37.88 25.0748L37.88 37.2786C37.88 38.0143 37.6105 38.6436 37.0714 39.1665C36.5158 39.7055 35.8387 39.975 35.04 39.975L10.84 39.975C10.0413 39.975 9.36415 39.7055 8.80858 39.1665C8.26953 38.6436 8 38.0143 8 37.2786L8 12.831C8 12.0953 8.26953 11.466 8.80858 10.9431C9.36415 10.4041 10.0413 10.1346 10.84 10.1346ZM28.8002 11.2727C24.4202 15.6669 20.0601 20.061 15.6801 24.4552C15.2801 24.8547 15.0201 25.334 14.9201 25.8933C14.5401 27.8707 14.1401 29.8481 13.7401 31.8254C13.4001 33.5432 14.5801 34.7615 16.2801 34.402C17.9801 34.0625 19.6801 33.683 21.4001 33.4033C22.5201 33.2236 23.4001 32.7242 24.2202 31.9053C28.3802 27.6709 32.5802 23.4765 36.7602 19.2621L28.8002 11.2527L28.8002 11.2727ZM19.2601 27.7508L17.5401 26.0331L28.7402 14.7681L30.4602 16.4858L19.2601 27.7508Z" fill-rule="evenodd"  fill="#7DA2CE" ></path></svg>