<svg xmlns="http://www.w3.org/2000/svg" xmlns:xlink="http://www.w3.org/1999/xlink" width="332" height="324" viewBox="0 0 332 324" fill="none"><g filter="url(#filter_6_16080)"><rect  x="0" y="0" width="332" height="324" rx="16"    fill="url(#linear_fill_6_16080_0)" ></rect><path fill-rule="evenodd"  fill="url(#linear_border_6_16080_0)"  d="M316 0L16 0C7.16344 0 0 7.16344 0 16L0 308C0 316.837 7.16344 324 16 324L316 324C324.837 324 332 316.837 332 308L332 16C332 7.16344 324.837 0 316 0ZM1 16C1 7.71573 7.71573 1 16 1L316 1C324.284 1 331 7.71573 331 16L331 308C331 316.284 324.284 323 316 323L16 323C7.71573 323 1 316.284 1 308L1 16Z"></path></g><path d="M136 80.4995L139.448 77.0001L160 97.8563L160 81L172 81L172 97.8605L192.552 77.0042L196 80.5036L172 104.859L172 160L190.52 160C191.884 160 193 161.108 193 162.462L193 192L188.039 192L188.039 164.923L172 164.923L172 192L160 192L160 164.923L143.961 164.923L143.961 192L139 192L139 162.462C139 161.108 140.116 160 141.48 160L160 160L160 104.855L136 80.4995Z" fill-rule="evenodd"  fill="#7DA2CE" ></path><rect  x="152" y="128" width="28" height="48" rx="4"    fill="#EDF5FF" ></rect><rect x="122" y="192" width="88" height="12"   fill="#EDF5FF" ></rect><rect x="121" y="69" width="88" height="12"   fill="#EDF5FF" ></rect><path d="M130.684 175.942L108.674 165.679C106.241 164.545 103.364 165.573 102.243 167.976L80.943 213.654C79.8222 216.058 80.8843 218.923 83.3165 220.057L105.327 230.321C107.759 231.455 110.637 230.427 111.757 228.023L133.057 182.345C134.178 179.942 133.116 177.076 130.684 175.942ZM91.805 215.846L88.4465 206.786L92.9962 205.16L96.3547 214.221L91.805 215.846ZM99.2042 199.978L95.8457 190.918L100.395 189.293L103.754 198.353L99.2042 199.978ZM106.598 184.122L103.24 175.061L107.79 173.436L111.148 182.496L106.598 184.122ZM103.096 221.111L101.417 216.581L110.516 213.33L112.196 217.86L103.096 221.111ZM110.496 205.244L108.816 200.714L117.916 197.462L119.595 201.993L110.496 205.244ZM117.89 189.387L116.21 184.857L125.31 181.606L126.989 186.136L117.89 189.387Z"   fill="url(#linear_fill_6_16099)" ></path><path d="M226.674 165.679L248.684 175.942C251.116 177.076 252.178 179.942 251.057 182.345L229.757 228.023C228.637 230.427 225.759 231.455 223.327 230.321L201.316 220.057C198.884 218.923 197.822 216.058 198.943 213.654L220.243 167.976C221.364 165.573 224.241 164.545 226.674 165.679ZM221.096 221.111L230.196 217.86L228.516 213.33L219.417 216.581L221.096 221.111ZM228.496 205.244L237.595 201.993L235.916 197.462L226.816 200.714L228.496 205.244ZM235.89 189.387L244.989 186.136L243.31 181.606L234.21 184.857L235.89 189.387ZM209.805 215.846L214.355 214.221L210.996 205.16L206.447 206.786L209.805 215.846ZM217.204 199.978L221.754 198.353L218.395 189.293L213.846 190.918L217.204 199.978ZM224.598 184.122L229.148 182.496L225.79 173.436L221.24 175.061L224.598 184.122Z"   fill="url(#linear_fill_6_16100)" ></path><path d="M130.684 51.9423L108.674 41.6787C106.241 40.5446 103.364 41.5727 102.243 43.9763L80.943 89.6542C79.8222 92.0577 80.8843 94.923 83.3165 96.0572L105.327 106.321C107.759 107.455 110.637 106.427 111.757 104.023L133.057 58.3453C134.178 55.9417 133.116 53.0764 130.684 51.9423ZM91.805 91.846L88.4465 82.7858L92.9962 81.1603L96.3547 90.2205L91.805 91.846ZM99.2042 75.9784L95.8457 66.9182L100.395 65.2926L103.754 74.3529L99.2042 75.9784ZM106.598 60.1216L103.24 51.0614L107.79 49.4359L111.148 58.4961L106.598 60.1216ZM103.096 97.1113L101.417 92.5811L110.516 89.3301L112.196 93.8602L103.096 97.1113ZM110.496 81.2436L108.816 76.7135L117.916 73.4625L119.595 77.9926L110.496 81.2436ZM117.89 65.3869L116.21 60.8567L125.31 57.6057L126.989 62.1358L117.89 65.3869Z"   fill="url(#linear_fill_6_16101)" ></path><path d="M226.674 41.6787L248.684 51.9423C251.116 53.0764 252.178 55.9417 251.057 58.3453L229.757 104.023C228.637 106.427 225.759 107.455 223.327 106.321L201.316 96.0572C198.884 94.923 197.822 92.0577 198.943 89.6542L220.243 43.9763C221.364 41.5727 224.241 40.5446 226.674 41.6787ZM221.096 97.1113L230.196 93.8602L228.516 89.3301L219.417 92.5811L221.096 97.1113ZM228.496 81.2436L237.595 77.9926L235.916 73.4625L226.816 76.7135L228.496 81.2436ZM235.89 65.3869L244.989 62.1358L243.31 57.6057L234.21 60.8567L235.89 65.3869ZM209.805 91.846L214.355 90.2205L210.996 81.1603L206.447 82.7858L209.805 91.846ZM217.204 75.9784L221.754 74.3529L218.395 65.2926L213.846 66.9182L217.204 75.9784ZM224.598 60.1216L229.148 58.4961L225.79 49.4359L221.24 51.0614L224.598 60.1216Z"   fill="url(#linear_fill_6_16102)" ></path><g ><text transform="translate(102, 247)"><tspan x="0" y="33.92" font-size="32" line-height="0"  fill="#EDF5FF"  font-family=".PingFang SC Regular; 10.11d9e1; 2015-05-20" letter-spacing="0" >前面</tspan></text></g><defs><linearGradient id="linear_fill_6_16080_0" x1="166" y1="0" x2="166" y2="324" gradientUnits="userSpaceOnUse"><stop offset="0" stop-color="#1B2D4D"  /><stop offset="1" stop-color="#1B2D4D" stop-opacity="0" /></linearGradient><linearGradient id="linear_border_6_16080_0" x1="166" y1="324" x2="166" y2="0" gradientUnits="userSpaceOnUse"><stop offset="0" stop-color="#7DA2CE" stop-opacity="0.4" /><stop offset="0.2807" stop-color="#7DA2CE" stop-opacity="0.64" /><stop offset="0.5394" stop-color="#7DA2CE"  /><stop offset="0.7815" stop-color="#7DA2CE" stop-opacity="0.64" /><stop offset="1" stop-color="#7DA2CE" stop-opacity="0.4" /></linearGradient><filter id="filter_6_16080" x="0" y="0" width="332" height="324" filterUnits="userSpaceOnUse" color-interpolation-filters="sRGB"><feFlood flood-opacity="0" result="feFloodId_6_16080"/><feBlend mode="normal" in="SourceGraphic" in2="feFloodId_6_16080" result="shape_6_16080"/><feColorMatrix in="SourceAlpha" type="matrix" values="0 0 0 0 0 0 0 0 0 0 0 0 0 0 0 0 0 0 127 0" result="hardAlpha_6_16080"/><feOffset dx="0" dy="0"/><feGaussianBlur stdDeviation="4"/><feComposite in2="hardAlpha_6_16080" operator="arithmetic" k2="-1" k3="1"/><feColorMatrix type="matrix" values="0 0 0 0 0 0 0 0 0 0.4470588235294118 0 0 0 0 1 0 0 0 0.64 0"/><feBlend mode="normal" in2="shape_6_16080" result="innerShadow_0_6_16080" /></filter><linearGradient id="linear_fill_6_16099" x1="119.6787109375" y1="170.810546875" x2="94.321533203125" y2="225.18896484375" gradientUnits="userSpaceOnUse"><stop offset="0" stop-color="#EDF5FF"  /><stop offset="1" stop-color="#92C3FF"  /></linearGradient><linearGradient id="linear_fill_6_16100" x1="237.6787109375" y1="170.810546875" x2="212.32177734375" y2="225.18896484375" gradientUnits="userSpaceOnUse"><stop offset="0" stop-color="#EDF5FF"  /><stop offset="1" stop-color="#92C3FF"  /></linearGradient><linearGradient id="linear_fill_6_16101" x1="119.6787109375" y1="46.810546875" x2="94.321533203125" y2="101.18896484375" gradientUnits="userSpaceOnUse"><stop offset="0" stop-color="#EDF5FF"  /><stop offset="1" stop-color="#92C3FF"  /></linearGradient><linearGradient id="linear_fill_6_16102" x1="237.6787109375" y1="46.810546875" x2="212.32177734375" y2="101.18896484375" gradientUnits="userSpaceOnUse"><stop offset="0" stop-color="#EDF5FF"  /><stop offset="1" stop-color="#92C3FF"  /></linearGradient></defs></svg>