<svg xmlns="http://www.w3.org/2000/svg" xmlns:xlink="http://www.w3.org/1999/xlink" width="686" height="240" viewBox="0 0 686 240" fill="none"><rect  x="0" y="0" width="686" height="240" rx="16"    fill="url(#linear_fill_9_2827_0)" ></rect><g mask="url(#mask-9_2827)"><path d="M696.274 220L717 200L693.726 200L673 220L696.274 220ZM652.274 220L673 200L649.726 200L629 220L652.274 220ZM608.274 220L629 200L605.726 200L585 220L608.274 220ZM564.274 220L585 200L561.726 200L541 220L564.274 220ZM520.274 220L541 200L517.726 200L497 220L520.274 220ZM476.274 220L497 200L473.726 200L453 220L476.274 220ZM432.274 220L453 200L429.726 200L409 220L432.274 220ZM388.274 220L409 200L385.726 200L365 220L388.274 220ZM344.274 220L365 200L341.726 200L321 220L344.274 220ZM300.274 220L321 200L297.726 200L277 220L300.274 220ZM256.274 220L277 200L253.726 200L233 220L256.274 220ZM212.274 220L233 200L209.726 200L189 220L212.274 220ZM168.274 220L189 200L165.726 200L145 220L168.274 220ZM124.274 220L145 200L121.726 200L101 220L124.274 220ZM80.2741 220L101 200L77.7259 200L57 220L80.2741 220ZM36.2741 220L57 200L33.7259 200L13 220L36.2741 220ZM-7.72589 220L13 200L-10.2741 200L-31 220L-7.72589 220Z" fill-rule="evenodd"  fill="url(#linear_fill_9_2828)" ></path></g><g  opacity="0.32"><text transform="translate(40, 60)"><tspan x="0" y="37.109375" font-size="40" line-height="0"  fill="#001024"  font-family="Roboto Bold" letter-spacing="0" ></tspan></text></g><g  opacity="0.32"><text transform="translate(40, 115)"><tspan x="0" y="29.68" font-size="28" line-height="0"  fill="#001024"  font-family=".PingFang SC Regular; 10.11d9e1; 2015-05-20" letter-spacing="0" ></tspan></text></g><defs><linearGradient id="linear_fill_9_2827_0" x1="343" y1="240" x2="343" y2="0" gradientUnits="userSpaceOnUse"><stop offset="0" stop-color="#0072FF"  /><stop offset="1" stop-color="#00C6FF"  /></linearGradient><mask id="mask-9_2827" style="mask-type:alpha" maskUnits="userSpaceOnUse"><rect  x="0" y="0" width="686" height="240" rx="16"    fill="url(#linear_fill_9_2827_0)" ></rect></mask><linearGradient id="linear_fill_9_2828" x1="-31" y1="210" x2="717" y2="210" gradientUnits="userSpaceOnUse"><stop offset="0" stop-color="#001024" stop-opacity="0.24" /><stop offset="1" stop-color="#001024" stop-opacity="0.04" /></linearGradient></defs></svg>