<svg xmlns="http://www.w3.org/2000/svg" xmlns:xlink="http://www.w3.org/1999/xlink" width="48" height="48" viewBox="0 0 48 48" fill="none"><path d="M32.5361 1.21484L39.4642 5.21477L32.7323 12.8749L29.2683 10.8749L32.5361 1.21484Z"   fill="#0072FF" fill-opacity="0.92"></path><path d="M42.7847 8.53613L46.7846 15.4642L37.1245 18.7321L35.1246 15.2681L42.7847 8.53613Z"   fill="#0072FF" fill-opacity="0.88"></path><path d="M48 20L48 27.9999L38.0002 25.9999L38.0002 22L48 20Z"   fill="#0072FF" fill-opacity="0.8"></path><path d="M46.7847 32.5361L42.7847 39.4642L35.1246 32.7323L37.1246 29.2683L46.7847 32.5361Z"   fill="#0072FF" fill-opacity="0.72"></path><path d="M39.4639 42.7852L32.5358 46.7851L29.2679 37.125L32.7319 35.1251L39.4639 42.7852Z"   fill="#0072FF" fill-opacity="0.64"></path><path d="M28 48L20.0001 48L22.0001 38.0002L26 38.0002L28 48Z"   fill="#0072FF" fill-opacity="0.56"></path><path d="M15.4639 46.7852L8.53578 42.7852L15.2677 35.1251L18.7317 37.1251L15.4639 46.7852Z"   fill="#0072FF" fill-opacity="0.48"></path><path d="M5.21533 39.4639L1.2154 32.5358L10.8755 29.2679L12.8754 32.7319L5.21533 39.4639Z"   fill="#0072FF" fill-opacity="0.4"></path><path d="M0 28L8.38688e-15 20.0001L9.9998 22.0001L9.9998 26L0 28Z"   fill="#0072FF" fill-opacity="0.32"></path><path d="M1.21533 15.4639L5.21526 8.53578L12.8754 15.2677L10.8754 18.7317L1.21533 15.4639Z"   fill="#0072FF" fill-opacity="0.24"></path><path d="M8.53613 5.21484L15.4642 1.21491L18.7321 10.875L15.2681 12.8749L8.53613 5.21484Z"   fill="#0072FF" fill-opacity="0.16"></path><path d="M20 0L27.9999 0L25.9999 9.9998L22 9.9998L20 0Z"   fill="#0072FF" ></path></svg>