<svg xmlns="http://www.w3.org/2000/svg" xmlns:xlink="http://www.w3.org/1999/xlink" width="136" height="136" viewBox="0 0 136 136" fill="none"><g filter="url(#filter_5_2632)"><path d="M112.065 12C111.853 12 111.641 12.0286 111.437 12.0851L85.8476 19.146L79.3141 15.2704C78.679 14.8936 77.9022 14.8363 77.218 15.1159L27.1792 35.5601C26.5635 35.8117 26.0842 36.3112 25.8604 36.9343L24.0758 41.9053C24.0013 42.113 23.9567 42.3301 23.9435 42.5502L23.3806 51.8934C23.3618 52.0122 23.352 52.1342 23.352 52.2584L23.352 52.2591C23.352 52.2871 23.3525 52.3149 23.3535 52.3426L23.0042 58.1401C22.9414 59.1835 23.5843 60.1413 24.5778 60.4842L32.4206 63.1914C32.7476 63.3043 33.0957 63.344 33.4399 63.3076L46.5985 61.9127C47.6067 62.0507 48.2766 62.2733 48.6083 62.5806C49.0274 62.9687 49.2155 63.7699 49.1728 64.9845L38.3794 104.177L36.173 104.602C35.2902 104.772 34.5825 105.428 34.3506 106.291L30.3822 121.064C29.9842 122.546 31.1078 124 32.6509 124L97.9055 124C99.0023 124 99.9529 123.245 100.195 122.182L103.647 107.059C103.981 105.599 102.864 104.209 101.357 104.209L69.4863 104.209L77.964 73.7125C79.0438 72.7844 80.1347 72.2366 81.2366 72.069C82.0227 71.9506 82.732 71.6456 83.3645 71.1539C83.9606 70.6904 84.4214 70.112 84.747 69.4187C85.1148 68.5911 85.2412 67.7419 85.1265 66.8711C85.0094 65.9832 84.667 65.1983 84.0994 64.5165C82.4559 62.5543 81.6239 60.7092 81.6033 58.9814C81.5847 57.4005 82.3246 55.9292 83.823 54.5677C83.8122 54.7875 83.8028 55.0086 83.7946 55.231C83.7265 57.8336 84.3293 60.007 85.6029 61.751C87.2509 63.972 89.758 65.4708 93.1242 66.2475C93.8407 66.4059 94.5286 66.3447 95.1878 66.0639C95.8459 65.7835 96.3584 65.3394 96.7253 64.7315C97.1809 63.9909 97.3071 63.1889 97.1041 62.3255C96.9206 61.5456 96.5048 60.9092 95.8565 60.4165C95.8481 60.4102 95.8394 60.4036 95.8307 60.3973C95.8253 60.3934 95.8199 60.3894 95.8145 60.3854C94.5296 59.4533 93.5614 58.2981 92.9099 56.9197C92.487 56.0251 92.1902 55.0255 92.0192 53.921C93.3306 53.7903 94.5998 53.5158 95.8098 53.1137C96.6564 53.5834 97.3667 54.0639 97.9407 54.5551C98.7457 55.2437 99.3756 56.0308 99.8305 56.9162L100.724 59.3572C101.061 60.2795 101.943 60.8935 102.93 60.8935L106.053 60.8935C106.878 60.8935 107.596 60.4732 108.015 59.8433C108.03 59.8552 108.053 59.8452 108.079 59.8165C108.213 59.6701 108.451 59.0414 108.393 58.3634L108.392 58.3506C108.13 55.4531 107.066 52.8621 105.2 50.5776C105.191 50.5675 105.183 50.5575 105.175 50.5477C105.17 50.5416 105.165 50.5356 105.159 50.5295C104.562 49.8374 103.822 49.1956 102.937 48.6039C103.165 48.3663 103.385 48.1224 103.6 47.8722L113.366 44.7729C114.356 44.4588 115.02 43.5357 114.999 42.5035L114.436 14.2875C114.411 13.0169 113.367 12 112.088 12L112.065 12ZM27.9605 53.9642L27.7984 56.6548L33.4647 58.6108L46.3733 57.2425C46.4807 57.2313 46.5889 57.2271 46.6967 57.2306L46.7004 57.2299C46.7225 57.2299 46.8096 57.2352 46.8967 57.2453C47.847 57.3565 48.6631 57.5254 49.3451 57.752C50.3207 58.0762 51.1422 58.5474 51.8097 59.1656C53.3296 60.5732 54.0099 62.6788 53.8507 65.4825C53.8416 65.6463 53.8148 65.809 53.7711 65.9672L42.5237 106.809C42.2877 107.666 41.5826 108.315 40.705 108.484L38.5087 108.907L35.7082 119.332L96.0305 119.332L98.4169 108.877L68.906 108.877C68.7621 108.877 68.6184 108.864 68.4773 108.838C68.4808 108.839 68.4787 108.839 68.4719 108.838C68.443 108.834 68.3291 108.808 68.2176 108.774C66.8004 108.342 65.8056 107.608 65.2333 106.572C64.7698 105.733 64.6254 104.743 64.8001 103.601C64.8139 103.51 64.8334 103.42 64.8581 103.331L73.6166 71.8244C73.6854 71.577 73.7946 71.3434 73.9386 71.1331C73.9329 71.1369 73.9339 71.1327 73.94 71.1222C73.9672 71.0764 74.0973 70.9128 74.2481 70.7679C76.1726 68.9189 78.2429 67.8181 80.4589 67.4655C79.4078 66.2062 78.5844 64.9221 77.9886 63.6131C77.2858 62.0689 76.9254 60.5434 76.9075 59.0365C76.887 57.3168 77.3102 55.6916 78.177 54.1609C78.7843 53.0883 79.6008 52.084 80.6263 51.1479C76.4861 48.4372 73.5716 44.0275 72.8873 38.9171L27.9605 53.9642ZM72.9305 33.9771C73.7157 28.8092 76.7864 24.3861 81.0868 21.7576L77.9165 19.8771L29.9321 39.4821L28.6114 43.1609L28.2634 48.9371L72.9305 33.9771ZM106.936 41.9137L110.269 40.8558L109.8 17.3807L97.5416 20.7634C103.576 23.5126 107.767 29.5691 107.767 36.5985C107.767 38.4522 107.476 40.238 106.936 41.9137ZM100.661 44.0373C102.178 41.9441 103.071 39.375 103.071 36.5985C103.071 29.5609 97.3312 23.8558 90.2504 23.8558C83.1696 23.8558 77.4295 29.5609 77.4295 36.5985C77.4295 42.2542 81.137 47.0495 86.2682 48.7145C86.332 48.7252 86.4013 48.739 86.4699 48.7558C89.1665 49.4181 91.6261 49.4143 93.8486 48.7443C96.1808 48.0414 98.3319 46.5817 100.302 44.3652C100.41 44.2433 100.531 44.1334 100.661 44.0373ZM90.2506 41.2663C92.8443 41.2663 94.9471 39.1764 94.9471 36.5985C94.9471 34.0206 92.8443 31.9308 90.2506 31.9308C87.6571 31.9308 85.5543 34.0206 85.5543 36.5985C85.5543 39.1764 87.6571 41.2663 90.2506 41.2663Z" fill-rule="evenodd"  fill="#EDF5FF" ></path></g><defs><filter id="filter_5_2632" x="10.941368103027344" y="0" width="108.07877349853516" height="130" filterUnits="userSpaceOnUse" color-interpolation-filters="sRGB"><feFlood flood-opacity="0" result="feFloodId_5_2632"/><feColorMatrix in="SourceAlpha" type="matrix" values="0 0 0 0 0 0 0 0 0 0 0 0 0 0 0 0 0 0 127 0" result="hardAlpha_5_2632"/><feOffset dx="0" dy="0"/><feGaussianBlur stdDeviation="6"/><feComposite in2="hardAlpha_5_2632" operator="out"/><feColorMatrix type="matrix" values="0 0 0 0 0 0 0 0 0 0.4470588235294118 0 0 0 0 1 0 0 0 0.64 0"/><feBlend mode="normal" in2="feFloodId_5_2632" result="dropShadow_1_5_2632"/><feColorMatrix in="SourceAlpha" type="matrix" values="0 0 0 0 0 0 0 0 0 0 0 0 0 0 0 0 0 0 127 0" result="hardAlpha_5_2632"/><feOffset dx="0" dy="2"/><feGaussianBlur stdDeviation="2"/><feComposite in2="hardAlpha_5_2632" operator="out"/><feColorMatrix type="matrix" values="0 0 0 0 0 0 0 0 0 0.06274509803921569 0 0 0 0 0.1411764705882353 0 0 0 0.48 0"/><feBlend mode="normal" in2="feFloodId_5_2632" result="dropShadow_1_5_2632"/><feBlend mode="normal" in="SourceGraphic" in2="dropShadow_1_5_2632" result="shape_5_2632"/></filter></defs></svg>