<svg xmlns="http://www.w3.org/2000/svg" xmlns:xlink="http://www.w3.org/1999/xlink" width="136" height="136" viewBox="0 0 136 136" fill="none"><g filter="url(#filter_5_2594)"><path d="M112.313 33.8353C112.313 33.8353 112.191 33.6649 112.118 33.5919C101.868 20.4712 85.8957 12 67.9757 12C37.127 12.0243 12 37.1459 12 68.0123C12 80.8164 16.3339 92.6226 23.5896 102.068C23.6626 102.189 23.76 102.287 23.833 102.384C34.0835 115.529 50.0557 124 68 124C98.8731 124 124 98.8786 124 68.0123C124 55.1594 119.642 43.3045 112.313 33.8353ZM65.5652 21.6883L65.5652 17.1143C39.3409 18.3795 18.281 39.4504 17.04 65.6754L21.6905 65.6754L21.6905 70.5439L17.04 70.5439C17.527 80.7678 20.9844 90.1883 26.633 97.978L37.9304 94.3022L60.3792 72.1261C60.1113 71.6393 59.9165 71.1038 59.7461 70.5439L55.7774 70.5439L55.7774 65.6754L59.7461 65.6754C59.9165 65.0668 60.16 64.4826 60.4522 63.947L48.0348 51.0455C47.5722 50.5586 47.5722 49.804 48.0348 49.3415L48.9113 48.4408C49.3739 47.9783 50.1044 47.954 50.5913 48.3921L64.0313 60.4417C64.5426 60.1739 65.0539 59.9792 65.6139 59.8088L65.6139 55.8653L70.4835 55.8653L70.4835 59.8088C71.0679 59.9792 71.6279 60.1983 72.1635 60.4904L89.28 43.5723C89.3774 43.4263 89.4505 43.2559 89.5722 43.1341L92.9079 39.7992C90.4731 37.6571 87.7705 35.8314 84.8487 34.3708L83.0226 38.7525C82.7792 39.361 82.2922 39.8479 81.6592 40.1157C81.3426 40.2374 81.0261 40.3104 80.6852 40.3104C80.3444 40.3104 80.0279 40.2374 79.7113 40.1157C79.1026 39.8722 78.6157 39.3854 78.3479 38.7768C78.1044 38.1439 78.1044 37.4623 78.3479 36.8294L80.1983 32.4234C77.1548 31.3767 73.9652 30.7194 70.6296 30.5004L70.6296 35.2958C70.6296 35.6853 70.5079 36.0505 70.3374 36.3913L70.4592 36.3913L70.4592 41.2598L65.5896 41.2598L65.5896 36.3913L65.8331 36.3913C65.6626 36.0505 65.5652 35.6853 65.5652 35.2958L65.5652 30.5004C62.2296 30.7194 59.04 31.3523 55.9965 32.3747L57.847 36.8538C58.1148 37.4867 58.1148 38.1683 57.847 38.8012C57.5792 39.4341 57.0922 39.9209 56.4592 40.1644C56.1426 40.2861 55.8261 40.3347 55.5096 40.3347C54.5113 40.3347 53.5861 39.7505 53.1722 38.7768L51.3218 34.2978C48.3757 35.7583 45.6487 37.5597 43.2139 39.7018L46.6226 43.1098C47.0852 43.5967 47.3531 44.2296 47.3531 44.9112C47.3531 45.5927 47.1096 46.25 46.6226 46.7125C46.1113 47.1994 45.4783 47.4428 44.8209 47.4428C44.1635 47.4428 43.5304 47.1994 43.0435 46.7125L39.6348 43.3045C37.4922 45.7388 35.6661 48.4652 34.2052 51.4106L38.6365 53.2363C39.2452 53.4797 39.7322 53.9666 40 54.5995C40.2678 55.2081 40.2678 55.914 40 56.5226C39.7809 57.1068 39.3183 57.618 38.6852 57.8857C38.3687 58.0075 38.0278 58.0805 37.687 58.0805C37.3704 58.0805 37.0296 58.0075 36.7374 57.8857L32.2574 56.0357C31.2348 59.0785 30.6017 62.2674 30.3826 65.6023L35.1791 65.6023C35.5687 65.6023 35.9339 65.6997 36.2504 65.8458L36.2504 65.6023L41.12 65.6023L41.12 70.4709L36.2504 70.4709L36.2504 70.3978C35.9096 70.5439 35.5687 70.6413 35.1791 70.6413L30.407 70.6413C30.7235 75.4367 31.8922 80.0862 33.9861 84.4435C34.5704 85.6363 34.0591 87.0968 32.8418 87.681C31.6487 88.2653 30.1878 87.7541 29.6035 86.5369C26.8035 80.6947 25.3913 74.463 25.3913 68.0123C25.3913 44.5217 44.5044 25.4128 68 25.4128C79.2487 25.4128 89.4748 29.8188 97.0957 36.9755L106.129 34.0787C97.2661 24.1226 84.6053 17.6962 70.4348 17.0146L70.4348 21.6883L65.5652 21.6883ZM70.4348 119.01L70.4348 114.19L65.5652 114.19L65.5652 119.01C51.3948 118.328 38.7339 111.878 29.847 101.946L39.927 98.6595C40.2922 98.5378 40.6087 98.3431 40.8765 98.0753L63.6905 75.5341C64.2748 75.8749 64.8835 76.1183 65.5409 76.3131L65.5409 80.1105L70.4105 80.1105L70.4105 76.3131C73.2348 75.4854 75.4505 73.2702 76.2783 70.4465L80.0522 70.4465L80.0522 65.578L76.2783 65.578C76.1079 64.9694 75.8644 64.3852 75.5479 63.8253L92.6887 46.9072C92.8348 46.8099 92.9809 46.7612 93.1026 46.6395L96.4383 43.3045C98.5566 45.7388 100.358 48.4408 101.795 51.3863L97.4609 53.1876C96.1705 53.7232 95.5618 55.1837 96.0731 56.4739C96.4626 57.4476 97.4122 58.0561 98.4105 58.0561C98.727 58.0561 99.0679 57.9831 99.36 57.8614L103.718 56.0601C104.741 59.0785 105.35 62.2674 105.569 65.578L100.894 65.578C100.358 65.578 99.8957 65.7727 99.5061 66.0405L99.5061 65.6023L94.6366 65.6023L94.6366 70.4709L99.5061 70.4709L99.5061 70.1544C99.92 70.4222 100.383 70.6413 100.894 70.6413L105.544 70.6413C105.228 75.4367 104.059 80.0862 101.941 84.4678C101.357 85.685 101.868 87.1212 103.085 87.7054C103.426 87.8758 103.791 87.9488 104.132 87.9488C105.033 87.9488 105.91 87.4376 106.324 86.5613C109.124 80.7434 110.536 74.5117 110.536 68.0366C110.536 57.7397 106.859 48.2948 100.772 40.919L109.343 38.1683C114.991 45.9579 118.449 55.3785 118.936 65.6023L114.09 65.6023L114.09 70.4709L118.936 70.4709C117.694 96.7121 96.6087 117.793 70.3618 119.034L70.4348 119.01ZM70.4348 50.8994L70.4348 46.0309L65.5652 46.0309L65.5652 50.8994L70.4348 50.8994ZM50.8591 65.578L45.9896 65.578L45.9896 70.4465L50.8591 70.4465L50.8591 65.578ZM89.8157 65.578L84.9461 65.578L84.9461 70.4465L89.8157 70.4465L89.8157 65.578ZM70.4348 89.8475L70.4348 84.979L65.5652 84.979L65.5652 89.8475L70.4348 89.8475ZM70.4348 99.5846L70.4348 94.7161L65.5652 94.7161L65.5652 99.5846L70.4348 99.5846ZM70.4348 109.322L70.4348 104.453L65.5652 104.453L65.5652 109.322L70.4348 109.322Z" fill-rule="evenodd"  fill="#EDF5FF" ></path></g><defs><filter id="filter_5_2594" x="0" y="0" width="128.00005340576172" height="130.000244140625" filterUnits="userSpaceOnUse" color-interpolation-filters="sRGB"><feFlood flood-opacity="0" result="feFloodId_5_2594"/><feColorMatrix in="SourceAlpha" type="matrix" values="0 0 0 0 0 0 0 0 0 0 0 0 0 0 0 0 0 0 127 0" result="hardAlpha_5_2594"/><feOffset dx="0" dy="0"/><feGaussianBlur stdDeviation="6"/><feComposite in2="hardAlpha_5_2594" operator="out"/><feColorMatrix type="matrix" values="0 0 0 0 0 0 0 0 0 0.4470588235294118 0 0 0 0 1 0 0 0 0.64 0"/><feBlend mode="normal" in2="feFloodId_5_2594" result="dropShadow_1_5_2594"/><feColorMatrix in="SourceAlpha" type="matrix" values="0 0 0 0 0 0 0 0 0 0 0 0 0 0 0 0 0 0 127 0" result="hardAlpha_5_2594"/><feOffset dx="0" dy="2"/><feGaussianBlur stdDeviation="2"/><feComposite in2="hardAlpha_5_2594" operator="out"/><feColorMatrix type="matrix" values="0 0 0 0 0 0 0 0 0 0.06274509803921569 0 0 0 0 0.1411764705882353 0 0 0 0.48 0"/><feBlend mode="normal" in2="feFloodId_5_2594" result="dropShadow_1_5_2594"/><feBlend mode="normal" in="SourceGraphic" in2="dropShadow_1_5_2594" result="shape_5_2594"/></filter></defs></svg>