<svg xmlns="http://www.w3.org/2000/svg" xmlns:xlink="http://www.w3.org/1999/xlink" width="136" height="136" viewBox="0 0 136 136" fill="none"><g  clip-path="url(#clip-path-5_2522)"><g filter="url(#filter_5_2524)"><path d="M123.757 67.9353C123.757 98.8632 98.6852 123.935 67.7574 123.935C36.8295 123.935 11.7573 98.8632 11.7573 67.9353C11.7573 37.0075 36.8295 11.9353 67.7574 11.9353C98.6852 11.9353 123.757 37.0075 123.757 67.9353ZM118.888 67.9353C118.888 39.6967 95.996 16.8049 67.7574 16.8049C39.5187 16.8049 16.6269 39.6967 16.6269 67.9353C16.6269 73.4591 17.5028 78.7782 19.1233 83.7614L116.391 83.7614C118.012 78.7782 118.888 73.4591 118.888 67.9353ZM62.5956 64.8432L47.6947 64.8432L47.6947 72.8292C47.6947 74.9602 45.1509 76.0631 43.5955 74.6064L25.919 58.0496C24.9119 57.1064 24.8892 55.5155 25.8689 54.544L43.5454 37.0136C45.0822 35.4895 47.6947 36.578 47.6947 38.7423L47.6947 46.6553L62.5956 46.6553C63.9403 46.6553 65.0304 47.7454 65.0304 49.0901L65.0304 62.4084C65.0304 63.7531 63.9403 64.8432 62.5956 64.8432ZM72.9191 64.8432C71.5744 64.8432 70.4843 63.7531 70.4843 62.4084L70.4843 49.0901C70.4843 47.7454 71.5744 46.6553 72.9191 46.6553L87.82 46.6553L87.82 38.7423C87.82 36.578 90.4325 35.4895 91.9693 37.0136L109.646 54.544C110.626 55.5155 110.603 57.1064 109.596 58.0496L91.9192 74.6064C90.3638 76.0631 87.82 74.9602 87.82 72.8292L87.82 64.8432L72.9191 64.8432ZM45.2599 59.9736L60.1608 59.9736L60.1608 51.5249L45.2599 51.5249C43.9152 51.5249 42.8252 50.4348 42.8252 49.0901L42.8252 44.586L31.0916 56.2226L42.8252 67.2127L42.8252 62.4084C42.8252 61.0636 43.9152 59.9736 45.2599 59.9736ZM90.2548 59.9736L75.3539 59.9736L75.3539 51.5249L90.2548 51.5249C91.5995 51.5249 92.6895 50.4348 92.6895 49.0901L92.6895 44.586L104.423 56.2226L92.6895 67.2127L92.6895 62.4084C92.6895 61.0636 91.5995 59.9736 90.2548 59.9736ZM57.7988 99.9284C58.2128 100.634 58.9432 101 59.9658 101C60.8423 101 61.4997 100.805 61.9623 100.391C62.4249 99.9771 62.6684 99.344 62.6928 98.4432L66.4423 98.4432C66.3936 99.5388 66.1015 100.488 65.5658 101.316C65.0302 102.144 64.2754 102.801 63.3015 103.264C62.3275 103.727 61.2319 103.946 59.9901 103.946C57.9449 103.946 56.3136 103.288 55.1449 101.925C53.9519 100.586 53.3675 98.711 53.3675 96.2519L53.3675 95.4727C53.3675 93.9388 53.6354 92.5997 54.171 91.4553C54.7067 90.311 55.4614 89.4101 56.4841 88.8014C57.4823 88.1684 58.651 87.8519 59.9658 87.8519C61.8649 87.8519 63.3988 88.3388 64.5432 89.3371C65.6875 90.3353 66.3449 91.7232 66.5154 93.4762L62.7658 93.4762C62.7415 92.5266 62.498 91.8449 62.0597 91.431C61.5971 91.0171 60.9154 90.798 59.9901 90.798C59.0649 90.798 58.3588 91.1388 57.9206 91.8449C57.4823 92.551 57.2632 93.671 57.2388 95.2049L57.2388 96.3006C57.2388 97.9562 57.458 99.1493 57.8719 99.8797L57.7988 99.9284ZM82.3658 103.751L78.6162 103.751L78.6162 97.2258L73.0649 97.2258L73.0649 103.751L69.291 103.751L69.291 88.1197L73.0649 88.1197L73.0649 94.3284L78.6162 94.3284L78.6162 88.1197L82.3658 88.1197L82.3658 103.751ZM67.7574 119.066C55.8145 119.066 44.828 114.971 36.1251 108.109L99.3896 108.109C90.6867 114.971 79.7002 119.066 67.7574 119.066Z" fill-rule="evenodd"  fill="#EDF5FF" ></path></g></g><defs><clipPath id="clip-path-5_2522"><path d="M0 136L136 136L136 0L0 0L0 136Z" fill="white"/></clipPath><filter id="filter_5_2524" x="-0.24267578125" y="-0.064697265625" width="128.00006103515625" height="130" filterUnits="userSpaceOnUse" color-interpolation-filters="sRGB"><feFlood flood-opacity="0" result="feFloodId_5_2524"/><feColorMatrix in="SourceAlpha" type="matrix" values="0 0 0 0 0 0 0 0 0 0 0 0 0 0 0 0 0 0 127 0" result="hardAlpha_5_2524"/><feOffset dx="0" dy="0"/><feGaussianBlur stdDeviation="6"/><feComposite in2="hardAlpha_5_2524" operator="out"/><feColorMatrix type="matrix" values="0 0 0 0 0 0 0 0 0 0.4470588235294118 0 0 0 0 1 0 0 0 0.64 0"/><feBlend mode="normal" in2="feFloodId_5_2524" result="dropShadow_1_5_2524"/><feColorMatrix in="SourceAlpha" type="matrix" values="0 0 0 0 0 0 0 0 0 0 0 0 0 0 0 0 0 0 127 0" result="hardAlpha_5_2524"/><feOffset dx="0" dy="2"/><feGaussianBlur stdDeviation="2"/><feComposite in2="hardAlpha_5_2524" operator="out"/><feColorMatrix type="matrix" values="0 0 0 0 0 0 0 0 0 0.06274509803921569 0 0 0 0 0.1411764705882353 0 0 0 0.48 0"/><feBlend mode="normal" in2="feFloodId_5_2524" result="dropShadow_1_5_2524"/><feBlend mode="normal" in="SourceGraphic" in2="dropShadow_1_5_2524" result="shape_5_2524"/></filter></defs></svg>