<svg xmlns="http://www.w3.org/2000/svg" xmlns:xlink="http://www.w3.org/1999/xlink" width="136" height="136" viewBox="0 0 136 136" fill="none"><g  clip-path="url(#clip-path-5_2614)"><g filter="url(#filter_5_2616)"><path d="M109.243 17.4699C109.709 20.9139 107.283 24.1002 103.853 24.5453C103.582 24.5823 103.312 24.6012 103.046 24.6029L97.7479 37.9171C98.0149 38.0554 98.2694 38.2169 98.5083 38.3996L111.502 35.066C111.862 32.3131 114.029 30.0248 116.896 29.6526C120.326 29.1841 123.499 31.6207 123.943 35.0647C124.409 38.5088 121.983 41.695 118.553 42.1401C116.196 42.4621 113.961 41.4129 112.649 39.608L100.535 42.716L100.413 43.7755L111.861 53.1059C112.528 52.7355 113.273 52.4825 114.073 52.3787C117.503 51.9101 120.676 54.3467 121.119 57.7908C121.586 61.2348 119.159 64.4211 115.729 64.8662C112.299 65.3349 109.126 62.8982 108.683 59.4542C108.555 58.5121 108.645 57.5893 108.911 56.7366L99.7802 49.2947L99.2832 53.6284C100.675 55.9953 101.473 58.7556 101.473 61.7031C101.473 70.4889 94.3798 77.6112 85.6299 77.6112C82.6333 77.6112 79.8309 76.7757 77.4413 75.3242L70.1327 108.162L89.6666 108.162C90.0335 108.162 90.3838 108.237 90.7174 108.388C91.0315 108.529 91.3062 108.727 91.5415 108.979C91.7608 109.215 91.9302 109.483 92.0496 109.783C92.172 110.09 92.2332 110.409 92.2333 110.739L92.2333 121.423C92.2333 121.792 92.1584 122.143 92.0087 122.478C91.8678 122.793 91.6712 123.069 91.419 123.305C91.1841 123.526 90.9174 123.696 90.6189 123.816C90.3128 123.939 89.9954 124 89.6666 124L35.9542 124C35.5873 124 35.2371 123.925 34.9034 123.774C34.5893 123.633 34.3146 123.436 34.0793 123.183C33.86 122.947 33.6906 122.679 33.5712 122.379C33.4488 122.072 33.3875 121.753 33.3875 121.423L33.3875 110.739C33.3875 110.371 33.4624 110.02 33.6121 109.685C33.7531 109.369 33.9496 109.093 34.2017 108.857C34.4366 108.637 34.7034 108.467 35.0019 108.347C35.308 108.224 35.6255 108.162 35.9542 108.162L40.3617 108.162L48.6015 71.1648C48.8241 69.9664 48.824 69.032 48.6012 68.3617C48.4878 68.0205 48.3093 67.7685 48.0658 67.6059C47.8589 67.4678 47.6018 67.3749 47.2943 67.3271C47.2227 67.3159 47.1535 67.3081 47.0867 67.3036L42.607 68.3338L36.9424 82.5687C38.0379 83.6176 38.7607 85.0657 38.8708 86.7014C39.1041 90.1689 36.4908 93.1677 33.0376 93.402C29.5843 93.6363 26.5977 91.0122 26.3644 87.5449C26.1311 84.0774 28.7443 81.0785 32.1976 80.8443C32.3356 80.8349 32.4728 80.8301 32.6091 80.8297L38.3115 66.4998L38.055 65.6755L24.4894 69.2917C24.1322 72.2296 21.7376 74.5929 18.6878 74.7998C15.2345 75.034 12.2479 72.41 12.0146 68.9427C11.7813 65.4752 14.3945 62.4763 17.8478 62.2421C20.0516 62.0926 22.0653 63.1071 23.2947 64.7621L36.6627 61.1987L36.3689 60.2543L26.1499 51.9144C25.3709 52.3468 24.4874 52.6187 23.5408 52.683C20.0875 52.9172 17.1009 50.2932 16.8676 46.8258C16.6343 43.3584 19.2476 40.3595 22.7008 40.1253C26.1541 39.8909 29.1407 42.5149 29.374 45.9824C29.428 46.785 29.3295 47.5625 29.1034 48.2864L38.9008 56.2824L41.2636 55.4529L40.5396 53.0481C40.3185 53.0915 40.0952 53.1054 39.8697 53.0898C39.5113 53.065 39.1728 52.9684 38.8543 52.8001C38.3559 52.5367 37.9768 52.1441 37.717 51.6224L37.6353 51.4585L33.9635 39.8505C33.8614 39.5433 33.8221 39.2191 33.8458 38.878C33.8643 38.6124 33.9214 38.3584 34.0173 38.1162L34.0173 37.1132L35.627 36.5859L85.7695 20.1624C86.0864 20.0564 86.4145 20.0151 86.7539 20.0386C87.1125 20.0634 87.451 20.16 87.7695 20.3283C88.2679 20.5917 88.6469 20.9843 88.9067 21.5061L88.9829 21.6591L92.6294 32.7861C92.7363 33.1081 92.7781 33.4395 92.7547 33.7803C92.73 34.1403 92.6338 34.4802 92.4662 34.8C92.2039 35.3004 91.8129 35.6811 91.2932 35.942L91.1471 36.0153L90.7422 36.1518L91.4898 38.4357L92.6835 38.0151L98.7073 22.8774C97.6976 21.9189 96.9975 20.6199 96.8062 19.1333C96.3395 15.6893 98.7661 12.503 102.196 12.0578C105.626 11.5892 108.799 14.0258 109.243 17.4699ZM86.3181 37.6429L44.9721 51.5781L47.0245 58.3945L41.3039 60.4026L42.2977 63.5978L46.4842 62.6352L46.6661 62.6225L46.667 62.6225C47.0659 62.5949 47.5129 62.6196 48.0079 62.6965C48.9923 62.8494 49.873 63.1854 50.6501 63.7043C51.7835 64.4612 52.5761 65.5193 53.0278 66.8785C53.5091 68.3267 53.5598 70.0582 53.1798 72.0729L53.1727 72.1107L44.0999 112.848L38.0542 112.848L38.0542 119.314L87.5667 119.314L87.5667 112.848L64.308 112.848L73.4317 71.8549C71.1554 69.1003 69.7869 65.5622 69.7869 61.7031C69.7869 52.9173 76.88 45.795 85.6299 45.795C89.1898 45.795 92.4754 46.974 95.1207 48.9642L95.8671 42.4554C95.8243 42.1588 95.5545 41.9672 95.2454 42.0785L88.5431 44.4392L86.3181 37.6429ZM87.5522 32.2843L41.3881 47.8434L39.0333 40.399L85.2506 25.2611L87.5522 32.2843ZM38.4111 38.4321C38.4167 38.4488 38.422 38.4656 38.4271 38.4825L38.4111 38.4321ZM96.8064 61.7031C96.8064 55.5052 91.8025 50.4808 85.6299 50.4808C79.4574 50.4808 74.4535 55.5052 74.4535 61.7031C74.4535 67.901 79.4574 72.9254 85.6299 72.9254C91.8025 72.9254 96.8064 67.901 96.8064 61.7031Z" fill-rule="evenodd"  fill="#EDF5FF" ></path></g></g><defs><clipPath id="clip-path-5_2614"><path d="M0 136L136 136L136 0L0 0L0 136Z" fill="white"/></clipPath><filter id="filter_5_2616" x="-0.21875" y="-0.41064453125" width="128.6275634765625" height="130.41064453125" filterUnits="userSpaceOnUse" color-interpolation-filters="sRGB"><feFlood flood-opacity="0" result="feFloodId_5_2616"/><feColorMatrix in="SourceAlpha" type="matrix" values="0 0 0 0 0 0 0 0 0 0 0 0 0 0 0 0 0 0 127 0" result="hardAlpha_5_2616"/><feOffset dx="0" dy="0"/><feGaussianBlur stdDeviation="6"/><feComposite in2="hardAlpha_5_2616" operator="out"/><feColorMatrix type="matrix" values="0 0 0 0 0 0 0 0 0 0.4470588235294118 0 0 0 0 1 0 0 0 0.64 0"/><feBlend mode="normal" in2="feFloodId_5_2616" result="dropShadow_1_5_2616"/><feColorMatrix in="SourceAlpha" type="matrix" values="0 0 0 0 0 0 0 0 0 0 0 0 0 0 0 0 0 0 127 0" result="hardAlpha_5_2616"/><feOffset dx="0" dy="2"/><feGaussianBlur stdDeviation="2"/><feComposite in2="hardAlpha_5_2616" operator="out"/><feColorMatrix type="matrix" values="0 0 0 0 0 0 0 0 0 0.06274509803921569 0 0 0 0 0.1411764705882353 0 0 0 0.48 0"/><feBlend mode="normal" in2="feFloodId_5_2616" result="dropShadow_1_5_2616"/><feBlend mode="normal" in="SourceGraphic" in2="dropShadow_1_5_2616" result="shape_5_2616"/></filter></defs></svg>