<svg xmlns="http://www.w3.org/2000/svg" xmlns:xlink="http://www.w3.org/1999/xlink" width="136" height="136" viewBox="0 0 136 136" fill="none"><g filter="url(#filter_5_2612)"><path d="M25.6443 105.032L25.6346 105.021C21.3069 99.9952 17.9735 94.3916 15.6347 88.2102C13.2117 81.8066 12.0002 75.151 12.0002 68.2433C12.0002 37.1811 37.0724 12 68.0003 12C72.9301 12 77.7504 12.6318 82.4612 13.8954C85.9892 14.8418 89.3787 16.1213 92.6298 17.7339L94.8803 13.3692L101.625 26.4518L87.089 28.457L87.1133 28.4326L90.3901 22.0778C87.4522 20.6275 84.3904 19.4751 81.2046 18.6205C76.9054 17.4673 72.504 16.8907 68.0003 16.8907C39.7617 16.8907 16.8698 39.882 16.8698 68.2433C16.8698 74.5524 17.9754 80.6289 20.1867 86.473C22.3218 92.1159 25.3659 97.2325 29.3188 101.823L29.3267 101.832C29.5179 102.054 29.6646 102.302 29.7667 102.577C29.8688 102.852 29.92 103.137 29.9203 103.43L29.9203 103.432C29.9203 104.171 29.5942 104.833 29.0786 105.281C28.6517 105.653 28.0947 105.877 27.4855 105.877C26.8984 105.877 26.3598 105.669 25.9394 105.321C25.8783 105.271 25.8198 105.217 25.7638 105.161C25.7224 105.12 25.6826 105.077 25.6443 105.032ZM112.486 34.0599C116.16 38.8854 118.98 44.1572 120.945 49.8755C122.982 55.8016 124 61.9242 124 68.2433C124 99.3055 98.9281 124.487 68.0003 124.487C60.356 124.487 53.0888 123.019 46.1987 120.082L43.7739 125L36.8104 112.064L51.2599 109.816L48.3637 115.691C54.5694 118.294 61.1149 119.596 68.0003 119.596C96.2389 119.596 119.131 96.6046 119.131 68.2433C119.131 62.471 118.201 56.8803 116.342 51.4713C114.548 46.2503 111.973 41.436 108.616 37.0285C108.321 36.649 108.135 36.1798 108.105 35.6684C108.103 35.6204 108.101 35.5724 108.101 35.5244C108.101 34.2212 109.116 33.1562 110.395 33.0831C110.442 33.0804 110.489 33.079 110.536 33.079L110.538 33.079L110.55 33.0791C111.133 33.0823 111.667 33.2913 112.085 33.6375C112.145 33.6873 112.202 33.7399 112.258 33.7952C112.34 33.8778 112.416 33.9663 112.486 34.0599ZM51.2599 109.816L51.2731 109.79L51.2731 109.814L51.2599 109.816ZM98.9393 48.4183L90.4181 39.86L90.4176 39.8595C89.9769 39.4169 89.3682 39.1433 88.6959 39.1433C88.0237 39.1433 87.415 39.4169 86.9743 39.8595C86.5336 40.3021 86.2612 40.9135 86.2612 41.5886C86.2612 42.2638 86.5336 42.8751 86.9743 43.3177L86.9748 43.3182L91.3396 47.702L84.4107 47.702C72.5908 47.702 63.009 57.3255 63.009 69.1968C63.009 78.3669 55.6072 85.8008 46.4768 85.8008L38.7829 85.8008C38.623 85.8008 38.4646 85.8164 38.3078 85.8477C38.151 85.879 37.9988 85.9254 37.8511 85.9869C37.7034 86.0483 37.563 86.1236 37.4301 86.2128C37.2972 86.302 37.1742 86.4034 37.0612 86.517C36.9481 86.6305 36.8471 86.754 36.7583 86.8875C36.6696 87.021 36.5946 87.1619 36.5334 87.3103C36.4722 87.4586 36.426 87.6116 36.3948 87.769C36.3637 87.9265 36.3481 88.0856 36.3481 88.2461C36.3481 88.4067 36.3637 88.5657 36.3948 88.7232C36.426 88.8807 36.4722 89.0336 36.5334 89.182C36.5946 89.3303 36.6696 89.4713 36.7583 89.6048C36.8471 89.7383 36.9481 89.8618 37.0612 89.9753C37.1742 90.0887 37.2972 90.1901 37.4301 90.2795C37.563 90.3686 37.7034 90.4439 37.8511 90.5054C37.9988 90.5669 38.151 90.6132 38.3078 90.6445C38.4646 90.6758 38.623 90.6915 38.7829 90.6915L46.4768 90.6915C58.2967 90.6915 67.8785 81.068 67.8785 69.1968C67.8785 60.0267 75.2803 52.5928 84.4107 52.5928L91.3513 52.5928L86.9728 57.003L86.9719 57.0039C86.7442 57.2331 86.5689 57.4974 86.4457 57.7965C86.3228 58.0956 86.2612 58.4068 86.2612 58.7306L86.2612 58.734C86.2631 60.0809 87.349 61.1726 88.6898 61.176L88.6993 61.176L88.7054 61.176C89.0273 61.1748 89.3368 61.1119 89.6338 60.9874C89.9306 60.8627 90.1928 60.6862 90.42 60.4573L90.421 60.4563L98.9417 51.8741C99.8903 50.9187 99.8891 49.3722 98.9393 48.4183ZM39.3672 47.702L46.4768 47.702C49.5104 47.702 52.401 48.3141 55.1488 49.5383C57.7986 50.7187 60.1179 52.3775 62.1066 54.5146L62.7655 56.1874C62.7655 57.5314 61.6859 58.622 60.3504 58.6328L60.3307 58.6328L60.3288 58.6328L60.3149 58.6328C59.9805 58.6305 59.6601 58.562 59.3536 58.4271C59.0472 58.2923 58.7798 58.1022 58.5516 57.8569C57.0136 56.2035 55.2212 54.9208 53.1744 54.0089C51.0551 53.0648 48.8226 52.5928 46.4768 52.5928L39.3672 52.5928C39.2073 52.5928 39.049 52.5771 38.8922 52.5458C38.7354 52.5145 38.5831 52.4681 38.4354 52.4067C38.2877 52.3452 38.1474 52.2699 38.0145 52.1807C37.8815 52.0914 37.7586 51.99 37.6456 51.8765C37.5324 51.7631 37.4315 51.6396 37.3427 51.506C37.2539 51.3725 37.1789 51.2316 37.1177 51.0832C37.0565 50.9349 37.0103 50.782 36.9792 50.6245C36.948 50.467 36.9324 50.308 36.9324 50.1474C36.9324 49.9868 36.948 49.8278 36.9792 49.6703C37.0103 49.5128 37.0565 49.3599 37.1177 49.2116C37.1789 49.0632 37.2539 48.9223 37.3427 48.7888C37.4315 48.6552 37.5324 48.5317 37.6456 48.4183C37.7586 48.3047 37.8815 48.2033 38.0145 48.1141C38.1474 48.0249 38.2877 47.9496 38.4354 47.8881C38.5831 47.8267 38.7354 47.7803 38.8922 47.749C39.049 47.7177 39.2073 47.702 39.3672 47.702ZM98.9417 86.5195L90.4205 77.9367L90.42 77.9362C89.9793 77.4922 89.3696 77.2176 88.6959 77.2176C88.0249 77.2176 87.4172 77.4902 86.9767 77.9314C86.5346 78.374 86.2612 78.9863 86.2612 79.6629C86.2612 80.3369 86.5326 80.9472 86.9719 81.3896L86.9724 81.3901L91.3513 85.8008L84.4107 85.8008C82.055 85.8008 79.8126 85.3243 77.6836 84.3712C75.6303 83.4519 73.835 82.1612 72.2977 80.499L72.2928 80.4936C71.8482 80.0128 71.213 79.7118 70.5081 79.7118C69.8685 79.7118 69.2863 79.9595 68.8517 80.3647C68.373 80.8113 68.0733 81.4492 68.0733 82.1572C68.0733 82.7996 68.32 83.3843 68.7234 83.8208L68.7283 83.8259C70.7172 85.9767 73.0415 87.6474 75.7012 88.8382C78.4612 90.0737 81.3643 90.6915 84.4107 90.6915L91.3396 90.6915L86.975 95.0751L86.9743 95.0758C86.7459 95.3052 86.5701 95.5695 86.4464 95.8691C86.323 96.1686 86.2612 96.4806 86.2612 96.8049C86.2612 97.4801 86.5336 98.0914 86.9743 98.534C87.415 98.9766 88.0237 99.2503 88.6959 99.2503C89.3682 99.2503 89.9769 98.9766 90.4176 98.534L90.4183 98.5333L98.9393 89.9753C99.8891 89.0213 99.8903 87.4749 98.9417 86.5195Z" fill-rule="evenodd"  fill="#EDF5FF" ></path></g><defs><filter id="filter_5_2612" x="0.000244140625" y="0" width="128.00006103515625" height="131.000244140625" filterUnits="userSpaceOnUse" color-interpolation-filters="sRGB"><feFlood flood-opacity="0" result="feFloodId_5_2612"/><feColorMatrix in="SourceAlpha" type="matrix" values="0 0 0 0 0 0 0 0 0 0 0 0 0 0 0 0 0 0 127 0" result="hardAlpha_5_2612"/><feOffset dx="0" dy="0"/><feGaussianBlur stdDeviation="6"/><feComposite in2="hardAlpha_5_2612" operator="out"/><feColorMatrix type="matrix" values="0 0 0 0 0 0 0 0 0 0.4470588235294118 0 0 0 0 1 0 0 0 0.64 0"/><feBlend mode="normal" in2="feFloodId_5_2612" result="dropShadow_1_5_2612"/><feColorMatrix in="SourceAlpha" type="matrix" values="0 0 0 0 0 0 0 0 0 0 0 0 0 0 0 0 0 0 127 0" result="hardAlpha_5_2612"/><feOffset dx="0" dy="2"/><feGaussianBlur stdDeviation="2"/><feComposite in2="hardAlpha_5_2612" operator="out"/><feColorMatrix type="matrix" values="0 0 0 0 0 0 0 0 0 0.06274509803921569 0 0 0 0 0.1411764705882353 0 0 0 0.48 0"/><feBlend mode="normal" in2="feFloodId_5_2612" result="dropShadow_1_5_2612"/><feBlend mode="normal" in="SourceGraphic" in2="dropShadow_1_5_2612" result="shape_5_2612"/></filter></defs></svg>