<svg xmlns="http://www.w3.org/2000/svg" xmlns:xlink="http://www.w3.org/1999/xlink" width="136" height="136" viewBox="0 0 136 136" fill="none"><g  clip-path="url(#clip-path-5_2580)"><g filter="url(#filter_5_2582)"><path d="M123.473 75.409C122.541 82.1757 120.399 88.5566 117.274 94.3268L117.271 94.3331C117.218 94.4545 117.149 94.5806 117.064 94.7115C107.529 111.991 89.1313 123.695 68 123.695C37.0722 123.695 12 98.6227 12 67.6949C12 36.767 37.0722 11.6948 68 11.6948C98.9279 11.6948 124 36.767 124 67.6949C124 70.1494 123.842 72.5669 123.536 74.9379C123.53 75.0969 123.51 75.254 123.473 75.409ZM118.232 77.2877C117.318 82.1063 115.727 86.6854 113.562 90.9227L82.9274 90.9227C83.0862 89.43 83.0273 87.9428 82.7507 86.4612C82.4392 84.7922 81.8649 83.21 81.0278 81.7146L78.5266 77.2877L118.232 77.2877ZM75.7753 72.4181L118.915 72.4181C119.058 70.8627 119.13 69.2872 119.13 67.6949C119.13 39.4562 96.2386 16.5644 68 16.5644C39.7614 16.5644 16.8696 39.4562 16.8696 67.6949C16.8696 69.2872 16.9424 70.8627 17.0848 72.4181L59.3972 72.4181L65.4664 61.6763C66.3982 60.0267 68.774 60.0267 69.7061 61.6763L75.7753 72.4181ZM56.6459 77.2877L54.1442 81.7153C53.3025 83.2059 52.725 84.7886 52.4116 86.4634C52.1343 87.9436 52.0752 89.43 52.2343 90.9227L22.4379 90.9227C20.2734 86.6854 18.6826 82.1063 17.768 77.2877L56.6459 77.2877ZM53.5827 95.7923L25.2748 95.7923C34.4183 109.668 50.1397 118.825 68 118.825C85.8604 118.825 101.582 109.668 110.725 95.7923L81.5808 95.7923C81.5363 95.888 81.4908 95.9835 81.4442 96.0788C80.6973 97.6054 79.7214 98.9748 78.5163 100.187C77.0142 101.675 75.2995 102.809 73.3721 103.59C71.5084 104.344 69.5706 104.722 67.5588 104.722C65.5453 104.722 63.6104 104.344 61.7543 103.588C59.8346 102.806 58.1368 101.674 56.661 100.192L56.6569 100.188C55.4521 98.9823 54.4753 97.6172 53.7263 96.0927C53.6773 95.9929 53.6294 95.8927 53.5827 95.7923ZM69.9479 31.4409L69.9479 52.6966C69.9479 52.8565 69.9323 53.0148 69.9011 53.1716C69.8699 53.3284 69.8238 53.4807 69.7626 53.6284C69.7014 53.7761 69.6264 53.9164 69.5376 54.0493C69.4486 54.1823 69.3477 54.3052 69.2347 54.4182C69.1217 54.5314 68.9988 54.6323 68.8658 54.7211C68.7329 54.8099 68.5926 54.8849 68.4449 54.9461C68.2971 55.0073 68.1449 55.0535 67.9881 55.0846C67.8313 55.1158 67.673 55.1314 67.5131 55.1314C67.3532 55.1314 67.1948 55.1158 67.038 55.0846C66.8812 55.0535 66.729 55.0073 66.5813 54.9461C66.4336 54.8849 66.2932 54.8099 66.1603 54.7211C66.0274 54.6322 65.9044 54.5312 65.7914 54.4182C65.6783 54.3052 65.5773 54.1823 65.4885 54.0493C65.3998 53.9164 65.3248 53.7761 65.2636 53.6284C65.2024 53.4807 65.1562 53.3284 65.125 53.1716C65.0939 53.0148 65.0783 52.8565 65.0783 52.6966L65.0783 31.4409C65.0783 31.2811 65.0939 31.1227 65.125 30.9659C65.1562 30.8091 65.2024 30.6569 65.2636 30.5092C65.3248 30.3615 65.3998 30.2212 65.4885 30.0882C65.5773 29.9553 65.6783 29.8323 65.7914 29.7193C65.9044 29.6062 66.0274 29.5053 66.1603 29.4165C66.2932 29.3277 66.4336 29.2526 66.5813 29.1915C66.729 29.1303 66.8812 29.0841 67.038 29.0529C67.1948 29.0217 67.3532 29.0061 67.5131 29.0061C67.673 29.0061 67.8313 29.0217 67.9881 29.0529C68.1449 29.0841 68.2971 29.1303 68.4449 29.1915C68.5926 29.2526 68.7329 29.3277 68.8658 29.4165C68.9988 29.5053 69.1217 29.6062 69.2347 29.7193C69.3477 29.8323 69.4486 29.9553 69.5376 30.0882C69.6264 30.2212 69.7014 30.3615 69.7626 30.5092C69.8238 30.6569 69.8699 30.8091 69.9011 30.9659C69.9323 31.1227 69.9479 31.2811 69.9479 31.4409ZM35.7878 41.107L35.7878 52.7696C35.7878 52.9295 35.7722 53.0879 35.7411 53.2447C35.7099 53.4015 35.6637 53.5537 35.6025 53.7014C35.5413 53.8491 35.4663 53.9895 35.3775 54.1224C35.2887 54.2553 35.1878 54.3783 35.0747 54.4913C34.9617 54.6042 34.8387 54.7052 34.7057 54.7941C34.5728 54.8829 34.4325 54.9579 34.2848 55.0191C34.1371 55.0803 33.9849 55.1265 33.8281 55.1577C33.6713 55.1888 33.5129 55.2044 33.3531 55.2044C33.1932 55.2044 33.0349 55.1888 32.8781 55.1577C32.7213 55.1265 32.569 55.0803 32.4213 55.0191C32.2736 54.9579 32.1333 54.8829 32.0004 54.7941C31.8674 54.7052 31.7444 54.6042 31.6314 54.4913C31.5184 54.3783 31.4174 54.2553 31.3286 54.1224C31.2398 53.9895 31.1648 53.8491 31.1036 53.7014C31.0424 53.5537 30.9962 53.4015 30.965 53.2447C30.9339 53.0879 30.9183 52.9295 30.9183 52.7696L30.9183 41.107C30.9183 40.9471 30.9339 40.7888 30.965 40.632C30.9962 40.4752 31.0424 40.3229 31.1036 40.1752C31.1648 40.0275 31.2398 39.8872 31.3286 39.7542C31.4174 39.6213 31.5184 39.4984 31.6314 39.3854C31.7444 39.2722 31.8674 39.1713 32.0004 39.0825C32.1333 38.9937 32.2736 38.9187 32.4213 38.8575C32.569 38.7963 32.7213 38.7501 32.8781 38.719C33.0349 38.6878 33.1932 38.6722 33.3531 38.6722C33.5129 38.6722 33.6713 38.6878 33.8281 38.719C33.9849 38.7501 34.1371 38.7963 34.2848 38.8575C34.4325 38.9187 34.5728 38.9937 34.7057 39.0825C34.8387 39.1713 34.9617 39.2722 35.0747 39.3854C35.1878 39.4984 35.2887 39.6213 35.3775 39.7542C35.4663 39.8872 35.5413 40.0275 35.6025 40.1752C35.6637 40.3229 35.7099 40.4752 35.7411 40.632C35.7722 40.7888 35.7878 40.9471 35.7878 41.107ZM47.2313 41.107L47.2313 52.7696C47.2313 52.9295 47.2157 53.0879 47.1846 53.2447C47.1534 53.4015 47.1072 53.5537 47.046 53.7014C46.9848 53.8491 46.9098 53.9895 46.8211 54.1224C46.7321 54.2553 46.6311 54.3783 46.5182 54.4913C46.4052 54.6042 46.2822 54.7052 46.1493 54.7941C46.0164 54.8829 45.876 54.9579 45.7283 55.0191C45.5806 55.0803 45.4284 55.1265 45.2716 55.1577C45.1148 55.1888 44.9564 55.2044 44.7965 55.2044C44.6367 55.2044 44.4783 55.1888 44.3215 55.1577C44.1647 55.1265 44.0125 55.0803 43.8647 55.0191C43.717 54.9579 43.5767 54.8829 43.4438 54.7941C43.3108 54.7052 43.1879 54.6042 43.0749 54.4913C42.9618 54.3783 42.8608 54.2553 42.772 54.1224C42.6832 53.9895 42.6082 53.8491 42.547 53.7014C42.4858 53.5537 42.4397 53.4015 42.4085 53.2447C42.3773 53.0879 42.3618 52.9295 42.3618 52.7696L42.3618 41.107C42.3618 40.9471 42.3773 40.7888 42.4085 40.632C42.4397 40.4752 42.4858 40.3229 42.547 40.1752C42.6082 40.0275 42.6832 39.8872 42.772 39.7542C42.8608 39.6213 42.9618 39.4984 43.0749 39.3854C43.1879 39.2722 43.3108 39.1713 43.4438 39.0825C43.5767 38.9937 43.717 38.9187 43.8647 38.8575C44.0125 38.7963 44.1647 38.7501 44.3215 38.719C44.4783 38.6878 44.6367 38.6722 44.7965 38.6722C44.9564 38.6722 45.1148 38.6878 45.2716 38.719C45.4284 38.7501 45.5806 38.7963 45.7283 38.8575C45.876 38.9187 46.0164 38.9937 46.1493 39.0825C46.2822 39.1713 46.4052 39.2722 46.5182 39.3854C46.6311 39.4984 46.7321 39.6213 46.8211 39.7542C46.9098 39.8872 46.9848 40.0275 47.046 40.1752C47.1072 40.3229 47.1534 40.4752 47.1846 40.632C47.2157 40.7888 47.2313 40.9471 47.2313 41.107ZM58.6994 41.107L58.6994 52.7696C58.6994 52.9295 58.6838 53.0879 58.6526 53.2447C58.6215 53.4015 58.5753 53.5537 58.5141 53.7014C58.4529 53.8491 58.3779 53.9895 58.2891 54.1224C58.2002 54.2553 58.0992 54.3783 57.9862 54.4913C57.8733 54.6042 57.7503 54.7052 57.6174 54.7941C57.4844 54.8829 57.3441 54.9579 57.1964 55.0191C57.0487 55.0803 56.8964 55.1265 56.7396 55.1577C56.5828 55.1888 56.4245 55.2044 56.2646 55.2044C56.1047 55.2044 55.9464 55.1888 55.7896 55.1577C55.6328 55.1265 55.4805 55.0803 55.3328 55.0191C55.1851 54.9579 55.0448 54.8829 54.9118 54.7941C54.7789 54.7052 54.6559 54.6042 54.543 54.4913C54.4298 54.3783 54.3289 54.2553 54.2401 54.1224C54.1513 53.9895 54.0763 53.8491 54.0151 53.7014C53.9539 53.5537 53.9077 53.4015 53.8766 53.2447C53.8454 53.0879 53.8298 52.9295 53.8298 52.7696L53.8298 41.107C53.8298 40.9471 53.8454 40.7888 53.8766 40.632C53.9077 40.4752 53.9539 40.3229 54.0151 40.1752C54.0763 40.0275 54.1513 39.8872 54.2401 39.7542C54.3289 39.6213 54.4298 39.4984 54.543 39.3854C54.6559 39.2722 54.7789 39.1713 54.9118 39.0825C55.0448 38.9937 55.1851 38.9187 55.3328 38.8575C55.4805 38.7963 55.6328 38.7501 55.7896 38.719C55.9464 38.6878 56.1047 38.6722 56.2646 38.6722C56.4245 38.6722 56.5828 38.6878 56.7396 38.719C56.8964 38.7501 57.0487 38.7963 57.1964 38.8575C57.3441 38.9187 57.4844 38.9937 57.6174 39.0825C57.7503 39.1713 57.8733 39.2722 57.9862 39.3854C58.0992 39.4984 58.2002 39.6213 58.2891 39.7542C58.3779 39.8872 58.4529 40.0275 58.5141 40.1752C58.5753 40.3229 58.6215 40.4752 58.6526 40.632C58.6838 40.7888 58.6994 40.9471 58.6994 41.107ZM82.2679 41.107L82.2679 52.7696C82.2679 52.9295 82.2523 53.0879 82.2211 53.2447C82.1899 53.4015 82.1438 53.5537 82.0826 53.7014C82.0214 53.8491 81.9464 53.9895 81.8576 54.1224C81.7686 54.2553 81.6677 54.3783 81.5547 54.4913C81.4417 54.6042 81.3188 54.7052 81.1858 54.7941C81.0529 54.8829 80.9126 54.9579 80.7649 55.0191C80.6172 55.0803 80.4649 55.1265 80.3081 55.1577C80.1513 55.1888 79.993 55.2044 79.8331 55.2044C79.6732 55.2044 79.5148 55.1888 79.358 55.1577C79.2012 55.1265 79.049 55.0803 78.9013 55.0191C78.7536 54.9579 78.6133 54.8829 78.4803 54.7941C78.3474 54.7052 78.2244 54.6042 78.1114 54.4913C77.9983 54.3783 77.8973 54.2553 77.8086 54.1224C77.7198 53.9895 77.6448 53.8491 77.5836 53.7014C77.5224 53.5537 77.4762 53.4015 77.445 53.2447C77.4139 53.0879 77.3983 52.9295 77.3983 52.7696L77.3983 41.107C77.3983 40.9471 77.4139 40.7888 77.445 40.632C77.4762 40.4752 77.5224 40.3229 77.5836 40.1752C77.6448 40.0275 77.7198 39.8872 77.8086 39.7542C77.8973 39.6213 77.9983 39.4984 78.1114 39.3854C78.2244 39.2722 78.3474 39.1713 78.4803 39.0825C78.6133 38.9937 78.7536 38.9187 78.9013 38.8575C79.049 38.7963 79.2012 38.7501 79.358 38.719C79.5148 38.6878 79.6732 38.6722 79.8331 38.6722C79.993 38.6722 80.1513 38.6878 80.3081 38.719C80.4649 38.7501 80.6172 38.7963 80.7649 38.8575C80.9126 38.9187 81.0529 38.9937 81.1858 39.0825C81.3188 39.1713 81.4417 39.2722 81.5547 39.3854C81.6677 39.4984 81.7686 39.6213 81.8576 39.7542C81.9464 39.8872 82.0214 40.0275 82.0826 40.1752C82.1438 40.3229 82.1899 40.4752 82.2211 40.632C82.2523 40.7888 82.2679 40.9471 82.2679 41.107ZM93.7116 41.107L93.7116 52.7696C93.7116 52.9295 93.696 53.0879 93.6648 53.2447C93.6337 53.4015 93.5875 53.5537 93.5263 53.7014C93.4651 53.8491 93.3901 53.9895 93.3013 54.1224C93.2124 54.2553 93.1114 54.3783 92.9984 54.4913C92.8855 54.6042 92.7625 54.7052 92.6296 54.7941C92.4966 54.8829 92.3563 54.9579 92.2086 55.0191C92.0609 55.0803 91.9086 55.1265 91.7518 55.1577C91.595 55.1888 91.4367 55.2044 91.2768 55.2044C91.1169 55.2044 90.9586 55.1888 90.8018 55.1577C90.645 55.1265 90.4927 55.0803 90.345 55.0191C90.1973 54.9579 90.057 54.8829 89.924 54.7941C89.7911 54.7052 89.6681 54.6042 89.5552 54.4913C89.442 54.3783 89.3411 54.2553 89.2523 54.1224C89.1635 53.9895 89.0885 53.8491 89.0273 53.7014C88.9661 53.5537 88.9199 53.4015 88.8888 53.2447C88.8576 53.0879 88.842 52.9295 88.842 52.7696L88.842 41.107C88.842 40.9471 88.8576 40.7888 88.8888 40.632C88.9199 40.4752 88.9661 40.3229 89.0273 40.1752C89.0885 40.0275 89.1635 39.8872 89.2523 39.7542C89.3411 39.6213 89.442 39.4984 89.5552 39.3854C89.6681 39.2722 89.7911 39.1713 89.924 39.0825C90.057 38.9937 90.1973 38.9187 90.345 38.8575C90.4927 38.7963 90.645 38.7501 90.8018 38.719C90.9586 38.6878 91.1169 38.6722 91.2768 38.6722C91.4367 38.6722 91.595 38.6878 91.7518 38.719C91.9086 38.7501 92.0609 38.7963 92.2086 38.8575C92.3563 38.9187 92.4966 38.9937 92.6296 39.0825C92.7625 39.1713 92.8855 39.2722 92.9984 39.3854C93.1114 39.4984 93.2124 39.6213 93.3013 39.7542C93.3901 39.8872 93.4651 40.0275 93.5263 40.1752C93.5875 40.3229 93.6337 40.4752 93.6648 40.632C93.696 40.7888 93.7116 40.9471 93.7116 41.107ZM105.179 41.107L105.179 52.7696C105.179 52.9295 105.164 53.0879 105.132 53.2447C105.101 53.4015 105.055 53.5537 104.994 53.7014C104.933 53.8491 104.858 53.9895 104.769 54.1224C104.68 54.2553 104.579 54.3783 104.466 54.4913C104.353 54.6042 104.23 54.7052 104.097 54.7941C103.964 54.8829 103.824 54.9579 103.676 55.0191C103.528 55.0803 103.376 55.1265 103.219 55.1577C103.063 55.1888 102.904 55.2044 102.744 55.2044C102.585 55.2044 102.426 55.1888 102.269 55.1577C102.113 55.1265 101.96 55.0803 101.813 55.0191C101.665 54.9579 101.525 54.8829 101.392 54.7941C101.259 54.7052 101.136 54.6042 101.023 54.4913C100.91 54.3783 100.809 54.2553 100.72 54.1224C100.631 53.9895 100.556 53.8491 100.495 53.7014C100.434 53.5537 100.388 53.4015 100.356 53.2447C100.325 53.0879 100.31 52.9295 100.31 52.7696L100.31 41.107C100.31 40.9471 100.325 40.7888 100.356 40.632C100.388 40.4752 100.434 40.3229 100.495 40.1752C100.556 40.0275 100.631 39.8872 100.72 39.7542C100.809 39.6213 100.91 39.4984 101.023 39.3854C101.136 39.2722 101.259 39.1713 101.392 39.0825C101.525 38.9937 101.665 38.9187 101.813 38.8575C101.96 38.7963 102.113 38.7501 102.269 38.719C102.426 38.6878 102.585 38.6722 102.744 38.6722C102.904 38.6722 103.063 38.6878 103.219 38.719C103.376 38.7501 103.528 38.7963 103.676 38.8575C103.824 38.9187 103.964 38.9937 104.097 39.0825C104.23 39.1713 104.353 39.2722 104.466 39.3854C104.579 39.4984 104.68 39.6213 104.769 39.7542C104.858 39.8872 104.933 40.0275 104.994 40.1752C105.055 40.3229 105.101 40.4752 105.132 40.632C105.164 40.7888 105.179 40.9471 105.179 41.107ZM63.5914 99.078C62.2808 98.5441 61.1198 97.7691 60.1084 96.753L60.1043 96.7489C59.2784 95.923 58.6093 94.9886 58.097 93.9457C57.5968 92.927 57.2696 91.8541 57.1156 90.7269C56.9614 89.5988 56.9888 88.4763 57.1979 87.3594C57.4123 86.2142 57.8079 85.1308 58.3846 84.1092L67.5861 67.8237L76.7881 84.1099C77.3584 85.1286 77.7503 86.2103 77.9639 87.3548C78.1725 88.4718 78.2003 89.5936 78.0474 90.7201C77.8945 91.8468 77.5687 92.9197 77.0701 93.9389C76.5589 94.9837 75.8899 95.9221 75.0629 96.754C74.041 97.7661 72.8683 98.5401 71.5446 99.076C70.2668 99.5935 68.9382 99.8523 67.5588 99.8523C66.1811 99.8523 64.8586 99.5942 63.5914 99.078ZM67.5861 97.4236C72.0101 97.4236 75.5966 93.8371 75.5966 89.4131C75.5966 84.9891 72.0101 81.4027 67.5861 81.4027C63.1621 81.4027 59.5757 84.9891 59.5757 89.4131C59.5757 93.8371 63.1621 97.4236 67.5861 97.4236ZM67.5861 86.2723C69.3206 86.2723 70.727 87.6786 70.727 89.4131C70.727 91.1477 69.3206 92.554 67.5861 92.554C65.8516 92.554 64.4452 91.1477 64.4452 89.4131C64.4452 87.6786 65.8516 86.2723 67.5861 86.2723Z" fill-rule="evenodd"  fill="#EDF5FF" ></path></g></g><defs><clipPath id="clip-path-5_2580"><path d="M0 136L136 136L136 0L0 0L0 136Z" fill="white"/></clipPath><filter id="filter_5_2582" x="0" y="-0.30517578125" width="128.00006103515625" height="130" filterUnits="userSpaceOnUse" color-interpolation-filters="sRGB"><feFlood flood-opacity="0" result="feFloodId_5_2582"/><feColorMatrix in="SourceAlpha" type="matrix" values="0 0 0 0 0 0 0 0 0 0 0 0 0 0 0 0 0 0 127 0" result="hardAlpha_5_2582"/><feOffset dx="0" dy="0"/><feGaussianBlur stdDeviation="6"/><feComposite in2="hardAlpha_5_2582" operator="out"/><feColorMatrix type="matrix" values="0 0 0 0 0 0 0 0 0 0.4470588235294118 0 0 0 0 1 0 0 0 0.64 0"/><feBlend mode="normal" in2="feFloodId_5_2582" result="dropShadow_1_5_2582"/><feColorMatrix in="SourceAlpha" type="matrix" values="0 0 0 0 0 0 0 0 0 0 0 0 0 0 0 0 0 0 127 0" result="hardAlpha_5_2582"/><feOffset dx="0" dy="2"/><feGaussianBlur stdDeviation="2"/><feComposite in2="hardAlpha_5_2582" operator="out"/><feColorMatrix type="matrix" values="0 0 0 0 0 0 0 0 0 0.06274509803921569 0 0 0 0 0.1411764705882353 0 0 0 0.48 0"/><feBlend mode="normal" in2="feFloodId_5_2582" result="dropShadow_1_5_2582"/><feBlend mode="normal" in="SourceGraphic" in2="dropShadow_1_5_2582" result="shape_5_2582"/></filter></defs></svg>