<svg xmlns="http://www.w3.org/2000/svg" xmlns:xlink="http://www.w3.org/1999/xlink" width="136" height="136" viewBox="0 0 136 136" fill="none"><g  clip-path="url(#clip-path-5_2526)"><g filter="url(#filter_5_2528)"><path d="M18.1254 44.8216C17.0488 45.1076 16.27 46.1065 16.3201 47.2676L16.6839 55.6977C15.5762 55.1761 14.304 54.9699 13.0021 55.1762L12.3035 55.2869C8.87088 55.8309 6.532 59.0373 7.07949 62.4484L10.818 85.7414C11.3655 89.1525 14.592 91.4768 18.0246 90.9327L18.7233 90.822C20.6689 90.5136 22.2632 89.3499 23.1796 87.7784L29.8463 92.6767C31.5854 93.9545 34.0137 92.5179 33.7123 90.3896C33.3634 87.9251 33.403 85.6092 33.8313 83.4418C34.2237 81.4557 34.9303 79.6509 35.951 78.0275C36.9113 76.5004 38.1094 75.1945 39.5454 74.1097C40.9384 73.0574 42.4775 72.2701 44.1628 71.7477C45.844 71.2266 47.5637 71.002 49.3219 71.074C51.1241 71.1478 52.8591 71.5301 54.5267 72.2208C56.2861 72.9495 57.8874 73.9892 59.3306 75.3398C60.895 76.8041 62.2197 78.5854 63.3046 80.6838L63.3079 80.6901C63.5867 81.2255 64.041 81.6179 64.1993 81.6806C64.2318 81.6935 64.2519 81.6924 64.2553 81.6758C64.8536 82.0184 65.5905 82.1049 66.2833 81.863L91.4837 73.063C92.5939 72.6754 93.2674 71.5553 93.085 70.4C92.665 67.741 92.636 65.2905 92.9978 63.0487C93.3238 61.0285 93.9603 59.2196 94.9074 57.6217C95.7799 56.1496 96.8926 54.8939 98.2454 53.8549C99.5367 52.8631 100.992 52.1079 102.612 51.5893C104.197 51.0816 105.847 50.8291 107.56 50.832C109.272 50.8349 110.932 51.0923 112.542 51.6042C114.183 52.1258 115.668 52.8802 116.998 53.8673C118.384 54.8964 119.533 56.131 120.447 57.5711C120.486 57.6329 120.526 57.692 120.567 57.7484C121.43 58.9207 122.769 58.9592 123.255 58.6655C123.317 58.629 123.364 58.5875 123.395 58.5424C124.643 58.0359 125.52 56.5895 124.617 55.0547L111.273 32.3881C110.675 31.3735 109.431 30.9309 108.321 31.338L84.0852 40.2304L72.6259 26.853C71.9659 26.0824 70.8937 25.8004 69.9364 26.1454L18.1254 44.8216ZM21.2717 48.845L21.945 64.4469L24.9367 83.0396L28.6367 85.7581C28.6985 84.6514 28.8341 83.5679 29.0436 82.5077C29.5516 79.9368 30.4748 77.587 31.8133 75.4583C33.0892 73.4291 34.6824 71.693 36.5927 70.2499C38.4403 68.8541 40.4794 67.8105 42.7099 67.1192C44.9297 66.4311 47.2007 66.1346 49.5228 66.2297C51.9059 66.3273 54.1995 66.8325 56.4036 67.7454C58.7103 68.7007 60.8011 70.0557 62.6758 71.8103C64.1607 73.2001 65.4666 74.8018 66.5935 76.6155L88.0077 69.1377C87.7746 66.7235 87.8321 64.4379 88.1802 62.2808C88.6035 59.658 89.4446 57.2848 90.7033 55.1611C91.8937 53.1526 93.4132 51.4384 95.2617 50.0187C97.003 48.6812 98.9541 47.6665 101.115 46.9745C103.19 46.3101 105.341 45.9797 107.568 45.9835C109.785 45.9872 111.938 46.3215 114.029 46.9862C114.105 47.0105 114.181 47.0351 114.257 47.0601L108.093 36.5902L84.1768 45.3652C83.2168 45.7175 82.1376 45.4368 81.4743 44.6624L70.0083 31.2771L21.2717 48.845ZM51.8742 40.9458L66.9749 35.2488C67.9877 34.8667 69.1326 35.1941 69.7863 36.0526L76.8365 45.3132C77.7991 46.5776 77.3014 48.4048 75.8284 49.0139L54.141 57.9836C52.5695 58.6336 50.8282 57.5249 50.7657 55.8345L50.3022 43.3012C50.2637 42.2624 50.8962 41.3148 51.8742 40.9458ZM55.5123 52.1648L55.2422 44.8613L66.9979 40.4262L71.0441 45.7411L55.5123 52.1648ZM42.9769 44.0043L27.3151 49.4831C26.3387 49.8246 25.6856 50.7411 25.6856 51.7697L25.6856 65.6363C25.6856 67.3729 27.4691 68.5462 29.0778 67.8681L45.0079 61.1529C45.9266 60.7657 46.5153 59.8615 46.4942 58.87L46.2259 46.2398C46.1908 44.5899 44.5432 43.4563 42.9769 44.0043ZM30.5647 53.4864L30.5647 61.9747L41.5814 57.3308L41.419 49.6893L30.5647 53.4864ZM107.873 78.9698C115.095 78.9698 120.949 73.1522 120.949 65.9758C120.949 58.7995 115.095 52.9819 107.873 52.9819C100.652 52.9819 94.7976 58.7995 94.7976 65.9758C94.7976 73.1522 100.652 78.9698 107.873 78.9698ZM107.873 57.8305C112.401 57.8305 116.07 61.4773 116.07 65.9758C116.07 70.4745 112.401 74.1213 107.873 74.1213C103.347 74.1213 99.6767 70.4745 99.6767 65.9758C99.6767 61.4773 103.347 57.8305 107.873 57.8305ZM11.8976 61.6848C11.7745 60.918 12.3003 60.1971 13.072 60.0749L13.7706 59.9641C14.5423 59.8418 15.2676 60.3642 15.3907 61.1311L19.1292 84.4242C19.2523 85.191 18.7265 85.9118 17.9548 86.0341L17.2562 86.1448C16.4845 86.2671 15.7592 85.7446 15.6361 84.9778L11.8976 61.6848ZM48.7393 98.9214C55.9608 98.9214 61.8152 93.1038 61.8152 85.9275C61.8152 78.7511 55.9608 72.9335 48.7393 72.9335C41.5176 72.9335 35.6633 78.7511 35.6633 85.9275C35.6633 93.1038 41.5176 98.9214 48.7393 98.9214ZM116.848 82.392C119.961 81.4508 123.147 81.068 126.406 81.2437C126.453 81.2466 126.501 81.2483 126.549 81.2485L126.559 81.2485L126.56 81.2485L126.571 81.2485C127.909 81.2427 128.992 80.1669 129 78.838L129 78.836L129 78.8242C129 78.7813 128.999 78.7384 128.996 78.6956C128.989 78.5586 128.97 78.4232 128.94 78.2894C128.909 78.1556 128.868 78.0253 128.815 77.8985C128.763 77.7718 128.699 77.6503 128.626 77.5342C128.553 77.4181 128.47 77.3089 128.378 77.2067C127.956 76.7386 127.353 76.4346 126.678 76.4027C122.843 76.1951 119.093 76.6453 115.427 77.7534C111.749 78.8653 108.375 80.5734 105.305 82.8777L85.7648 97.5444C85.6074 97.6625 85.4352 97.7267 85.2482 97.7371C85.0746 97.7467 84.9156 97.7066 84.7711 97.6169C81.0763 95.3491 77.3479 94.006 73.5858 93.5877C69.6633 93.1516 65.73 93.7187 61.786 95.2891L35.5265 105.292C34.6199 105.613 33.961 106.452 33.91 107.451C33.9079 107.493 33.9068 107.534 33.9068 107.576C33.9068 107.618 33.9079 107.66 33.9101 107.702C33.976 108.982 35.0416 110 36.3464 110C36.3866 110 36.4267 109.999 36.4668 109.997C36.7506 109.983 37.0217 109.921 37.2719 109.819L63.6007 99.7898C66.7858 98.5216 69.9333 98.0603 73.0432 98.4061C76.0793 98.7437 79.1267 99.8512 82.1853 101.728C82.6912 102.043 83.2328 102.272 83.8099 102.416C84.3704 102.556 84.9404 102.61 85.5201 102.578C86.0921 102.546 86.6483 102.432 87.1887 102.235C87.7343 102.037 88.2399 101.763 88.7054 101.413L108.246 86.7465C110.855 84.7882 113.722 83.3367 116.848 82.392ZM48.7393 77.782C53.2662 77.782 56.936 81.4288 56.936 85.9275C56.936 90.4261 53.2662 94.0729 48.7393 94.0729C44.2122 94.0729 40.5424 90.4261 40.5424 85.9275C40.5424 81.4288 44.2122 77.782 48.7393 77.782Z" fill-rule="evenodd"  fill="#EDF5FF" ></path></g></g><defs><clipPath id="clip-path-5_2526"><path d="M0 136L136 136L136 0L0 0L0 136Z" fill="white"/></clipPath><filter id="filter_5_2528" x="-5.467987060546875" y="13.80029296875" width="138.46829223632812" height="102.19970703125" filterUnits="userSpaceOnUse" color-interpolation-filters="sRGB"><feFlood flood-opacity="0" result="feFloodId_5_2528"/><feColorMatrix in="SourceAlpha" type="matrix" values="0 0 0 0 0 0 0 0 0 0 0 0 0 0 0 0 0 0 127 0" result="hardAlpha_5_2528"/><feOffset dx="0" dy="0"/><feGaussianBlur stdDeviation="6"/><feComposite in2="hardAlpha_5_2528" operator="out"/><feColorMatrix type="matrix" values="0 0 0 0 0 0 0 0 0 0.4470588235294118 0 0 0 0 1 0 0 0 0.64 0"/><feBlend mode="normal" in2="feFloodId_5_2528" result="dropShadow_1_5_2528"/><feColorMatrix in="SourceAlpha" type="matrix" values="0 0 0 0 0 0 0 0 0 0 0 0 0 0 0 0 0 0 127 0" result="hardAlpha_5_2528"/><feOffset dx="0" dy="2"/><feGaussianBlur stdDeviation="2"/><feComposite in2="hardAlpha_5_2528" operator="out"/><feColorMatrix type="matrix" values="0 0 0 0 0 0 0 0 0 0.06274509803921569 0 0 0 0 0.1411764705882353 0 0 0 0.48 0"/><feBlend mode="normal" in2="feFloodId_5_2528" result="dropShadow_1_5_2528"/><feBlend mode="normal" in="SourceGraphic" in2="dropShadow_1_5_2528" result="shape_5_2528"/></filter></defs></svg>