<svg xmlns="http://www.w3.org/2000/svg" xmlns:xlink="http://www.w3.org/1999/xlink" width="136" height="136" viewBox="0 0 136 136" fill="none"><g filter="url(#filter_5_2598)"><path d="M22.8802 28.0935L68.0266 15L115 28.6394L115 57.0246C115 64.1673 113.887 71.1222 111.662 77.8892C109.487 84.5028 106.35 90.6369 102.251 96.2913C98.1522 101.946 93.2922 106.844 87.6708 110.986C81.9196 115.223 75.6377 118.47 68.8251 120.727L68 121L67.1751 120.727C60.3624 118.47 54.0804 115.223 48.3292 110.986C42.7078 106.844 37.8477 101.946 33.749 96.2913C29.6502 90.6369 26.5133 84.5028 24.3382 77.8892C22.1127 71.1222 21 64.1673 21 57.0246L21 28.6387L22.8802 28.0935ZM26.2222 57.0246L26.2222 32.5346L68.0256 20.4107L109.778 32.5339L109.778 57.0246C109.778 63.6155 108.751 70.0321 106.698 76.2744C104.691 82.3764 101.797 88.0362 98.015 93.2538C94.2329 98.4713 89.7486 102.991 84.5623 106.812C79.4897 110.55 73.969 113.452 68 115.519C62.031 113.452 56.5102 110.55 51.4377 106.812C46.2514 102.991 41.7671 98.4713 37.985 93.2538C34.2028 88.0362 31.3084 82.3764 29.3016 76.2744C27.2487 70.0319 26.2222 63.6153 26.2222 57.0246ZM90.0101 74.1783C91.1687 71.334 91.748 68.369 91.748 65.2832C91.748 62.1974 91.1687 59.2323 90.0101 56.388C88.8112 53.4447 87.0735 50.8409 84.797 48.5766C82.5205 46.3124 79.9026 44.584 76.9433 43.3916C74.0836 42.2393 71.1025 41.6631 68 41.6631C64.8975 41.6631 61.9164 42.2393 59.0567 43.3916C56.0974 44.584 53.4795 46.3124 51.203 48.5766C41.9263 57.8034 41.9263 72.7629 51.203 81.9897C51.6756 82.4597 51.9678 83.109 51.9678 83.826C51.9678 84.5291 51.6868 85.1672 51.2304 85.6346C51.225 85.6402 51.2195 85.6457 51.2139 85.6513C51.2103 85.6551 51.2066 85.6588 51.203 85.6624C51.1993 85.6661 51.1957 85.6697 51.192 85.6733C51.1859 85.6794 51.1798 85.6853 51.1737 85.691C50.9302 85.9258 50.6512 86.1065 50.3369 86.2332C50.0225 86.3598 49.6958 86.4231 49.3567 86.4231C49.019 86.4231 48.6935 86.3603 48.3804 86.2348C48.0672 86.1093 47.789 85.93 47.5459 85.697L47.5456 85.697C47.5338 85.6855 47.522 85.674 47.5103 85.6624C36.1942 74.4073 36.1942 56.159 47.5103 44.9039C50.2865 42.1427 53.4816 40.0339 57.0957 38.5776C60.5842 37.1718 64.2189 36.469 68 36.469C71.7811 36.469 75.4158 37.1718 78.9043 38.5776C82.5184 40.0339 85.7135 42.1427 88.4896 44.9039C91.2658 47.6651 93.386 50.843 94.8503 54.4376C96.2636 57.9073 96.9703 61.5225 96.9703 65.2832C96.9703 69.0439 96.2636 72.659 94.8503 76.1287C93.386 79.7233 91.2658 82.9012 88.4896 85.6624L84.8356 85.7001C84.3406 85.2277 84.0322 84.5626 84.0322 83.826L84.0322 83.8008C84.0355 83.4702 84.0999 83.1517 84.2254 82.8454C84.3509 82.5393 84.5288 82.2669 84.7591 82.0281C84.7715 82.0151 84.7841 82.0023 84.797 81.9897C87.0735 79.7254 88.8112 77.1216 90.0101 74.1783ZM77.3316 74.5598C82.4888 69.4278 82.488 61.1092 77.3292 55.9782C76.0585 54.7143 74.6008 53.7502 72.9561 53.0859C71.3667 52.4437 69.7103 52.1226 67.9869 52.1226C66.2636 52.1226 64.6072 52.4437 63.0177 53.0859C61.3731 53.7502 59.9154 54.7143 58.6446 55.9782C57.3739 57.2421 56.4046 58.692 55.7366 60.3277C55.091 61.9086 54.7682 63.5561 54.7682 65.2702C54.7682 66.9842 55.091 68.6317 55.7366 70.2126C56.4042 71.8472 57.3726 73.2961 58.6418 74.5593L58.6446 74.5621C59.1173 75.0322 59.4094 75.6815 59.4094 76.3985C59.4094 77.1155 59.1173 77.7648 58.6446 78.2349C58.172 78.7049 57.5193 78.9955 56.7983 78.9955C56.4521 78.9955 56.119 78.9297 55.7991 78.7979C55.4791 78.6662 55.1968 78.4785 54.952 78.2349L54.9486 78.2315C53.1811 76.4726 51.8309 74.4512 50.8983 72.1671C49.9967 69.9595 49.546 67.6605 49.546 65.2702C49.546 62.8797 49.9967 60.5807 50.8983 58.3732C51.8316 56.0876 53.1829 54.0651 54.952 52.3055C56.7211 50.5459 58.7547 49.2019 61.0526 48.2736C63.2722 47.3769 65.5837 46.9286 67.9869 46.9286C70.3904 46.9286 72.7018 47.3769 74.9213 48.2736C77.2192 49.2019 79.2527 50.5459 81.0219 52.3055C88.2191 59.4637 88.221 71.0686 81.0273 78.2294L81.0219 78.2349C80.7771 78.4785 80.4948 78.6662 80.1748 78.7979C79.8549 78.9297 79.5218 78.9955 79.1755 78.9955C77.7384 78.9955 76.5725 77.8406 76.5644 76.4133L76.5644 76.4006L76.5644 76.3964L76.5644 76.3837C76.5663 76.0419 76.6335 75.7133 76.766 75.3979C76.8985 75.0824 77.0862 74.8038 77.3292 74.5621L77.3316 74.5598ZM75.8855 65.2829C75.8855 68.7042 73.6828 71.614 70.6111 72.6858L70.6111 88.89L73.2744 88.89C73.4459 88.89 73.6157 88.9066 73.7839 88.9399C73.952 88.9731 74.1153 89.0224 74.2737 89.0877C74.4321 89.1529 74.5826 89.2329 74.7252 89.3276C74.8677 89.4223 74.9996 89.53 75.1208 89.6507C75.2419 89.7712 75.3502 89.9023 75.4456 90.0441C75.5408 90.1859 75.6212 90.3356 75.6868 90.4932C75.7525 90.6507 75.802 90.8131 75.8354 90.9804C75.8688 91.1476 75.8855 91.3165 75.8855 91.4871C75.8855 91.6576 75.8688 91.8265 75.8354 91.9937C75.802 92.161 75.7525 92.3234 75.6868 92.4809C75.6212 92.6385 75.5408 92.7882 75.4456 92.93C75.3502 93.0718 75.2419 93.2029 75.1208 93.3234C74.9996 93.4439 74.8677 93.5516 74.7252 93.6465C74.5826 93.7412 74.4321 93.8212 74.2737 93.8865C74.1153 93.9517 73.952 94.001 73.7839 94.0342C73.6157 94.0675 73.4459 94.0841 73.2744 94.0841L68.3293 94.0893C68.2199 94.1031 68.1102 94.1101 68 94.1101C67.8898 94.1101 67.7662 94.1014 67.6292 94.0841L62.7255 94.0841C62.5541 94.0841 62.3843 94.0675 62.2161 94.0342C62.048 94.001 61.8847 93.9517 61.7263 93.8865C61.5679 93.8212 61.4174 93.7412 61.2748 93.6465C61.1322 93.5516 61.0004 93.4439 60.8792 93.3234C60.7579 93.2029 60.6496 93.0718 60.5544 92.93C60.4592 92.7882 60.3788 92.6385 60.3131 92.4809C60.2475 92.3234 60.198 92.161 60.1646 91.9937C60.1311 91.8265 60.1144 91.6576 60.1144 91.4871C60.1144 91.3165 60.1311 91.1476 60.1646 90.9804C60.198 90.8131 60.2475 90.6507 60.3131 90.4932C60.3788 90.3356 60.4592 90.1859 60.5544 90.0441C60.6496 89.9023 60.7579 89.7712 60.8792 89.6507C61.0004 89.53 61.1322 89.4223 61.2748 89.3276C61.4174 89.2329 61.5679 89.1529 61.7263 89.0877C61.8847 89.0224 62.048 88.9731 62.2161 88.9399C62.3843 88.9066 62.5541 88.89 62.7255 88.89L65.3889 88.89L65.3889 72.6858C62.3172 71.614 60.1144 68.7042 60.1144 65.2829C60.1144 60.9513 63.6449 57.4398 68 57.4398C72.3551 57.4398 75.8855 60.9513 75.8855 65.2829ZM65.3367 65.2829C65.3367 66.7458 66.5292 67.9319 68 67.9319C69.4708 67.9319 70.6633 66.7458 70.6633 65.2829C70.6633 63.82 69.4708 62.6339 68 62.6339C66.5292 62.6339 65.3367 63.82 65.3367 65.2829Z" fill-rule="evenodd"  fill="#EDF5FF" ></path></g><defs><filter id="filter_5_2598" x="9" y="3" width="109.99998474121094" height="124" filterUnits="userSpaceOnUse" color-interpolation-filters="sRGB"><feFlood flood-opacity="0" result="feFloodId_5_2598"/><feColorMatrix in="SourceAlpha" type="matrix" values="0 0 0 0 0 0 0 0 0 0 0 0 0 0 0 0 0 0 127 0" result="hardAlpha_5_2598"/><feOffset dx="0" dy="0"/><feGaussianBlur stdDeviation="6"/><feComposite in2="hardAlpha_5_2598" operator="out"/><feColorMatrix type="matrix" values="0 0 0 0 0 0 0 0 0 0.4470588235294118 0 0 0 0 1 0 0 0 0.64 0"/><feBlend mode="normal" in2="feFloodId_5_2598" result="dropShadow_1_5_2598"/><feColorMatrix in="SourceAlpha" type="matrix" values="0 0 0 0 0 0 0 0 0 0 0 0 0 0 0 0 0 0 127 0" result="hardAlpha_5_2598"/><feOffset dx="0" dy="2"/><feGaussianBlur stdDeviation="2"/><feComposite in2="hardAlpha_5_2598" operator="out"/><feColorMatrix type="matrix" values="0 0 0 0 0 0 0 0 0 0.06274509803921569 0 0 0 0 0.1411764705882353 0 0 0 0.48 0"/><feBlend mode="normal" in2="feFloodId_5_2598" result="dropShadow_1_5_2598"/><feBlend mode="normal" in="SourceGraphic" in2="dropShadow_1_5_2598" result="shape_5_2598"/></filter></defs></svg>