<svg xmlns="http://www.w3.org/2000/svg" xmlns:xlink="http://www.w3.org/1999/xlink" width="136" height="136" viewBox="0 0 136 136" fill="none"><g filter="url(#filter_5_1055)"><path d="M68.0004 123.999C98.9281 123.999 124 98.9276 124 67.9998C124 37.0721 98.9281 12.0001 68.0004 12.0001C37.0726 12.0001 12.0007 37.0721 12.0007 67.9998C12.0007 98.9276 37.0726 123.999 68.0004 123.999ZM68.0004 16.8549C96.2469 16.8549 119.146 39.7533 119.146 67.9998C119.146 68.7172 119.131 69.4313 119.102 70.1416L99.1136 70.1416L93.5436 60.2579C92.6152 58.6104 90.2427 58.6104 89.3141 60.2579L83.744 70.1418L70.3338 70.1418L70.3338 40.8729C70.3338 40.7934 70.3299 40.7141 70.3221 40.635C70.3143 40.5559 70.3026 40.4773 70.2872 40.3994C70.2717 40.3214 70.2524 40.2444 70.2293 40.1683C70.2062 40.0922 70.1794 40.0175 70.149 39.944C70.1186 39.8705 70.0846 39.7988 70.0472 39.7287C70.0098 39.6586 69.9689 39.5905 69.9248 39.5244C69.8806 39.4583 69.8333 39.3945 69.7828 39.333C69.7324 39.2715 69.6791 39.2127 69.6229 39.1564C69.5667 39.1003 69.5078 39.047 69.4464 38.9965C69.3849 38.9461 69.3212 38.8988 69.2551 38.8546C69.189 38.8104 69.1209 38.7696 69.0508 38.7322C68.9807 38.6947 68.9089 38.6608 68.8355 38.6303C68.7621 38.5999 68.6873 38.5731 68.6112 38.55C68.5351 38.527 68.4581 38.5077 68.3801 38.4922C68.3021 38.4766 68.2236 38.465 68.1445 38.4572C68.0654 38.4494 67.9861 38.4455 67.9066 38.4455C67.8271 38.4455 67.7478 38.4494 67.6687 38.4572C67.5896 38.465 67.5111 38.4766 67.4332 38.4922C67.3552 38.5077 67.2782 38.527 67.2021 38.55C67.126 38.5731 67.0512 38.5999 66.9778 38.6303C66.9043 38.6608 66.8326 38.6947 66.7625 38.7322C66.6924 38.7696 66.6243 38.8104 66.5582 38.8546C66.4921 38.8988 66.4283 38.9461 66.3669 38.9965C66.3054 39.047 66.2466 39.1003 66.1904 39.1564C66.1342 39.2127 66.0809 39.2715 66.0304 39.333C65.98 39.3945 65.9327 39.4583 65.8885 39.5244C65.8443 39.5905 65.8035 39.6586 65.7661 39.7287C65.7286 39.7988 65.6947 39.8705 65.6642 39.944C65.6338 40.0175 65.6071 40.0922 65.5839 40.1683C65.5609 40.2444 65.5416 40.3214 65.5261 40.3994C65.5106 40.4773 65.499 40.5559 65.4912 40.635C65.4834 40.7141 65.4795 40.7934 65.4795 40.8729L65.4795 70.1418L52.4583 70.1418L46.888 60.2579C45.9596 58.6104 43.5871 58.6104 42.6586 60.2579L37.0884 70.1418L16.8996 70.1418C16.8703 69.4314 16.8555 68.7173 16.8555 67.9998C16.8555 39.7533 39.7539 16.8549 68.0004 16.8549ZM81.1904 74.6728L55.0117 74.6728L57.359 78.8377C58.1454 80.2228 58.6846 81.7012 58.9766 83.273C59.2606 84.8011 59.2959 86.3386 59.0826 87.8855C59.0732 87.9534 59.0634 88.0212 59.0532 88.0888L77.1491 88.0888C77.1388 88.0213 77.129 87.9535 77.1196 87.8855C76.9063 86.3386 76.9417 84.8011 77.2256 83.273C77.5176 81.7013 78.0581 80.2207 78.847 78.8311L81.1904 74.6728ZM78.6308 92.6199L70.403 92.6199L70.403 100.083C70.403 100.163 70.3992 100.242 70.3915 100.321C70.3838 100.4 70.3723 100.479 70.3569 100.557C70.3416 100.635 70.3226 100.712 70.2998 100.788C70.2769 100.864 70.2505 100.939 70.2204 101.012C70.1904 101.086 70.1568 101.158 70.1198 101.228C70.0828 101.298 70.0425 101.366 69.9988 101.432C69.9552 101.498 69.9084 101.562 69.8586 101.623C69.8087 101.685 69.756 101.744 69.7005 101.8C69.6449 101.856 69.5868 101.909 69.526 101.96C69.4653 102.01 69.4023 102.058 69.3369 102.102C69.2716 102.146 69.2043 102.187 69.135 102.224C69.0657 102.262 68.9948 102.296 68.9222 102.326C68.8497 102.356 68.7758 102.383 68.7006 102.406C68.6254 102.429 68.5493 102.449 68.4723 102.464C68.3952 102.48 68.3176 102.491 68.2394 102.499C68.1612 102.507 68.0828 102.511 68.0043 102.511C67.9257 102.511 67.8474 102.507 67.7692 102.499C67.691 102.491 67.6133 102.48 67.5363 102.464C67.4593 102.449 67.3831 102.429 67.3079 102.406C67.2327 102.383 67.1589 102.356 67.0863 102.326C67.0138 102.296 66.9428 102.262 66.8735 102.224C66.8042 102.187 66.7369 102.146 66.6716 102.102C66.6063 102.058 66.5432 102.01 66.4825 101.96C66.4218 101.909 66.3637 101.856 66.3081 101.8C66.2525 101.744 66.1998 101.685 66.15 101.623C66.1001 101.562 66.0534 101.498 66.0097 101.432C65.9661 101.366 65.9258 101.298 65.8888 101.228C65.8517 101.158 65.8182 101.086 65.7881 101.012C65.758 100.939 65.7316 100.864 65.7088 100.788C65.686 100.712 65.6669 100.635 65.6516 100.557C65.6363 100.479 65.6248 100.4 65.617 100.321C65.6094 100.242 65.6055 100.163 65.6055 100.083L65.6055 92.6199L57.5714 92.6199C56.8919 93.9223 56.0308 95.0948 54.9882 96.1374C49.3675 101.817 40.2045 101.808 34.5584 96.1374L34.554 96.133C33.5134 95.0915 32.6538 93.9205 31.9752 92.6199L23.1604 92.6199C31.8601 108.431 48.6791 119.145 68.0004 119.145C87.3216 119.145 104.141 108.431 112.841 92.6201L104.227 92.6201C103.547 93.9224 102.686 95.0949 101.644 96.1374C96.0231 101.817 86.8601 101.808 81.2139 96.1374L81.2095 96.133C80.169 95.0915 79.3094 93.9205 78.6308 92.6199ZM105.709 88.0886L115.049 88.0886C116.85 83.8774 118.101 79.3755 118.714 74.673L101.668 74.673L104.015 78.8377C104.801 80.2228 105.34 81.7012 105.632 83.273C105.916 84.8011 105.951 86.3386 105.738 87.8855C105.729 87.9534 105.719 88.0211 105.709 88.0886ZM35.706 51.977L35.706 40.8729C35.706 40.7934 35.7021 40.7141 35.6943 40.635C35.6865 40.5559 35.6749 40.4773 35.6593 40.3994C35.6438 40.3214 35.6245 40.2444 35.6015 40.1683C35.5784 40.0922 35.5516 40.0175 35.5212 39.944C35.4907 39.8705 35.4568 39.7988 35.4193 39.7287C35.3819 39.6586 35.3411 39.5905 35.2969 39.5244C35.2527 39.4583 35.2054 39.3945 35.155 39.333C35.1045 39.2715 35.0512 39.2127 34.995 39.1564C34.9388 39.1003 34.88 39.047 34.8185 38.9965C34.757 38.9461 34.6932 38.8988 34.6271 38.8546C34.561 38.8104 34.4929 38.7696 34.4228 38.7322C34.3527 38.6947 34.281 38.6608 34.2075 38.6303C34.134 38.5999 34.0593 38.5731 33.9832 38.55C33.9071 38.527 33.8301 38.5077 33.7521 38.4922C33.6742 38.4766 33.5956 38.465 33.5165 38.4572C33.4374 38.4494 33.3581 38.4455 33.2786 38.4455C33.1991 38.4455 33.1198 38.4494 33.0407 38.4572C32.9615 38.465 32.883 38.4766 32.805 38.4922C32.727 38.5077 32.65 38.527 32.5739 38.55C32.4979 38.5731 32.4231 38.5999 32.3496 38.6303C32.2762 38.6608 32.2044 38.6947 32.1343 38.7322C32.0642 38.7696 31.9961 38.8104 31.93 38.8546C31.8639 38.8988 31.8001 38.9461 31.7386 38.9965C31.6772 39.047 31.6183 39.1003 31.5621 39.1564C31.5059 39.2127 31.4526 39.2715 31.4022 39.333C31.3517 39.3945 31.3044 39.4583 31.2602 39.5244C31.2161 39.5905 31.1752 39.6586 31.1378 39.7287C31.1003 39.7988 31.0663 39.8705 31.0359 39.944C31.0055 40.0175 30.9787 40.0922 30.9557 40.1683C30.9326 40.2444 30.9133 40.3214 30.8978 40.3994C30.8823 40.4773 30.8706 40.5559 30.8628 40.635C30.855 40.7141 30.8511 40.7934 30.8511 40.8729L30.8511 51.977C30.8511 52.0565 30.855 52.1358 30.8628 52.215C30.8706 52.2941 30.8823 52.3726 30.8978 52.4506C30.9133 52.5285 30.9326 52.6056 30.9557 52.6816C30.9787 52.7577 31.0055 52.8325 31.0359 52.9059C31.0663 52.9794 31.1003 53.0511 31.1378 53.1212C31.1752 53.1913 31.2161 53.2594 31.2602 53.3255C31.3044 53.3917 31.3517 53.4555 31.4022 53.5169C31.4526 53.5784 31.5059 53.6372 31.5621 53.6935C31.6183 53.7496 31.6772 53.8029 31.7386 53.8534C31.8001 53.9038 31.8639 53.9511 31.93 53.9953C31.9961 54.0395 32.0642 54.0803 32.1343 54.1178C32.2044 54.1553 32.2762 54.1892 32.3496 54.2196C32.4231 54.2501 32.4979 54.2768 32.5739 54.2999C32.65 54.3229 32.727 54.3422 32.805 54.3577C32.883 54.3733 32.9615 54.3849 33.0407 54.3927C33.1198 54.4005 33.1991 54.4044 33.2786 54.4044C33.3581 54.4044 33.4374 54.4005 33.5165 54.3927C33.5956 54.3849 33.6742 54.3733 33.7521 54.3577C33.8301 54.3422 33.9071 54.3229 33.9832 54.2999C34.0593 54.2768 34.134 54.2501 34.2075 54.2196C34.281 54.1892 34.3527 54.1553 34.4228 54.1178C34.4929 54.0803 34.561 54.0395 34.6271 53.9953C34.6932 53.9511 34.757 53.9038 34.8185 53.8534C34.88 53.8029 34.9388 53.7496 34.995 53.6935C35.0512 53.6372 35.1045 53.5784 35.155 53.5169C35.2054 53.4555 35.2527 53.3917 35.2969 53.3255C35.3411 53.2594 35.3819 53.1913 35.4193 53.1212C35.4568 53.0511 35.4907 52.9794 35.5212 52.9059C35.5516 52.8325 35.5784 52.7577 35.6015 52.6816C35.6245 52.6056 35.6438 52.5285 35.6593 52.4506C35.6749 52.3726 35.6865 52.2941 35.6943 52.215C35.7021 52.1358 35.706 52.0565 35.706 51.977ZM47.2494 51.977L47.2494 40.8729C47.2494 40.7934 47.2455 40.7141 47.2377 40.635C47.2299 40.5559 47.2182 40.4773 47.2027 40.3994C47.1872 40.3214 47.1679 40.2444 47.1448 40.1683C47.1217 40.0922 47.095 40.0175 47.0645 39.944C47.0341 39.8705 47.0001 39.7988 46.9627 39.7287C46.9252 39.6586 46.8844 39.5905 46.8403 39.5244C46.7961 39.4583 46.7488 39.3945 46.6983 39.333C46.6479 39.2715 46.5946 39.2127 46.5384 39.1564C46.4822 39.1003 46.4233 39.047 46.3619 38.9965C46.3004 38.9461 46.2366 38.8988 46.1705 38.8546C46.1044 38.8104 46.0363 38.7696 45.9662 38.7322C45.8961 38.6947 45.8243 38.6608 45.7509 38.6303C45.6774 38.5999 45.6026 38.5731 45.5266 38.55C45.4505 38.527 45.3735 38.5077 45.2955 38.4922C45.2175 38.4766 45.139 38.465 45.0598 38.4572C44.9807 38.4494 44.9014 38.4455 44.8219 38.4455C44.7424 38.4455 44.6631 38.4494 44.584 38.4572C44.5049 38.465 44.4263 38.4766 44.3484 38.4922C44.2704 38.5077 44.1934 38.527 44.1173 38.55C44.0412 38.5731 43.9665 38.5999 43.893 38.6303C43.8195 38.6608 43.7478 38.6947 43.6777 38.7322C43.6076 38.7696 43.5395 38.8104 43.4734 38.8546C43.4073 38.8988 43.3435 38.9461 43.282 38.9965C43.2205 39.047 43.1617 39.1003 43.1054 39.1564C43.0493 39.2127 42.996 39.2715 42.9455 39.333C42.8951 39.3945 42.8478 39.4583 42.8036 39.5244C42.7594 39.5905 42.7186 39.6586 42.6812 39.7287C42.6436 39.7988 42.6097 39.8705 42.5793 39.944C42.5489 40.0175 42.5221 40.0922 42.499 40.1683C42.476 40.2444 42.4567 40.3214 42.4412 40.3994C42.4256 40.4773 42.414 40.5559 42.4062 40.635C42.3984 40.7141 42.3945 40.7934 42.3945 40.8729L42.3945 51.977C42.3945 52.0565 42.3984 52.1358 42.4062 52.215C42.414 52.2941 42.4256 52.3726 42.4412 52.4506C42.4567 52.5285 42.476 52.6056 42.499 52.6816C42.5221 52.7577 42.5489 52.8325 42.5793 52.9059C42.6097 52.9794 42.6436 53.0511 42.6812 53.1212C42.7186 53.1913 42.7594 53.2594 42.8036 53.3255C42.8478 53.3917 42.8951 53.4555 42.9455 53.5169C42.996 53.5784 43.0493 53.6372 43.1054 53.6935C43.1617 53.7496 43.2205 53.8029 43.282 53.8534C43.3435 53.9038 43.4073 53.9511 43.4734 53.9953C43.5395 54.0395 43.6076 54.0803 43.6777 54.1178C43.7478 54.1553 43.8195 54.1892 43.893 54.2196C43.9665 54.2501 44.0412 54.2768 44.1173 54.2999C44.1934 54.3229 44.2704 54.3422 44.3484 54.3577C44.4263 54.3733 44.5049 54.3849 44.584 54.3927C44.6631 54.4005 44.7424 54.4044 44.8219 54.4044C44.9014 54.4044 44.9807 54.4005 45.0598 54.3927C45.139 54.3849 45.2175 54.3733 45.2955 54.3577C45.3735 54.3422 45.4505 54.3229 45.5266 54.2999C45.6026 54.2768 45.6774 54.2501 45.7509 54.2196C45.8243 54.1892 45.8961 54.1553 45.9662 54.1178C46.0363 54.0803 46.1044 54.0395 46.1705 53.9953C46.2366 53.9511 46.3004 53.9038 46.3619 53.8534C46.4233 53.8029 46.4822 53.7496 46.5384 53.6935C46.5946 53.6372 46.6479 53.5784 46.6983 53.5169C46.7488 53.4555 46.7961 53.3917 46.8403 53.3255C46.8844 53.2594 46.9252 53.1913 46.9627 53.1212C47.0001 53.0511 47.0341 52.9794 47.0645 52.9059C47.095 52.8325 47.1217 52.7577 47.1448 52.6816C47.1679 52.6056 47.1872 52.5285 47.2027 52.4506C47.2182 52.3726 47.2299 52.2941 47.2377 52.215C47.2455 52.1358 47.2494 52.0565 47.2494 51.977ZM58.7927 51.977L58.7927 40.8729C58.7927 40.7934 58.7888 40.7141 58.781 40.635C58.7732 40.5559 58.7616 40.4773 58.746 40.3994C58.7305 40.3214 58.7112 40.2444 58.6882 40.1683C58.6651 40.0922 58.6384 40.0175 58.6079 39.944C58.5775 39.8705 58.5436 39.7988 58.506 39.7287C58.4686 39.6586 58.4278 39.5905 58.3836 39.5244C58.3394 39.4583 58.2921 39.3945 58.2417 39.333C58.1912 39.2715 58.1379 39.2127 58.0818 39.1564C58.0255 39.1003 57.9667 39.047 57.9052 38.9965C57.8437 38.9461 57.7799 38.8988 57.7138 38.8546C57.6477 38.8104 57.5796 38.7696 57.5095 38.7322C57.4394 38.6947 57.3677 38.6608 57.2942 38.6303C57.2207 38.5999 57.146 38.5731 57.0699 38.55C56.9938 38.527 56.9168 38.5077 56.8388 38.4922C56.7609 38.4766 56.6823 38.465 56.6032 38.4572C56.5241 38.4494 56.4448 38.4455 56.3653 38.4455C56.2858 38.4455 56.2065 38.4494 56.1274 38.4572C56.0482 38.465 55.9697 38.4766 55.8917 38.4922C55.8137 38.5077 55.7367 38.527 55.6606 38.55C55.5846 38.5731 55.5098 38.5999 55.4363 38.6303C55.3629 38.6608 55.2911 38.6947 55.221 38.7322C55.1509 38.7696 55.0828 38.8104 55.0167 38.8546C54.9506 38.8988 54.8868 38.9461 54.8253 38.9965C54.7639 39.047 54.705 39.1003 54.6488 39.1564C54.5926 39.2127 54.5393 39.2715 54.4889 39.333C54.4384 39.3945 54.3911 39.4583 54.3469 39.5244C54.3028 39.5905 54.262 39.6586 54.2245 39.7287C54.1871 39.7988 54.1531 39.8705 54.1227 39.944C54.0922 40.0175 54.0654 40.0922 54.0424 40.1683C54.0193 40.2444 54 40.3214 53.9845 40.3994C53.969 40.4773 53.9573 40.5559 53.9495 40.635C53.9417 40.7141 53.9378 40.7934 53.9378 40.8729L53.9378 51.977C53.9378 52.0565 53.9417 52.1358 53.9495 52.215C53.9573 52.2941 53.969 52.3726 53.9845 52.4506C54 52.5285 54.0193 52.6056 54.0424 52.6816C54.0654 52.7577 54.0922 52.8325 54.1227 52.9059C54.1531 52.9794 54.1871 53.0511 54.2245 53.1212C54.262 53.1913 54.3028 53.2594 54.3469 53.3255C54.3911 53.3917 54.4384 53.4555 54.4889 53.5169C54.5393 53.5784 54.5926 53.6372 54.6488 53.6935C54.705 53.7496 54.7639 53.8029 54.8253 53.8534C54.8868 53.9038 54.9506 53.9511 55.0167 53.9953C55.0828 54.0395 55.1509 54.0803 55.221 54.1178C55.2911 54.1553 55.3629 54.1892 55.4363 54.2196C55.5098 54.2501 55.5846 54.2768 55.6606 54.2999C55.7367 54.3229 55.8137 54.3422 55.8917 54.3577C55.9697 54.3733 56.0482 54.3849 56.1274 54.3927C56.2065 54.4005 56.2858 54.4044 56.3653 54.4044C56.4448 54.4044 56.5241 54.4005 56.6032 54.3927C56.6823 54.3849 56.7609 54.3733 56.8388 54.3577C56.9168 54.3422 56.9938 54.3229 57.0699 54.2999C57.146 54.2768 57.2207 54.2501 57.2942 54.2196C57.3677 54.1892 57.4394 54.1553 57.5095 54.1178C57.5796 54.0803 57.6477 54.0395 57.7138 53.9953C57.7799 53.9511 57.8437 53.9038 57.9052 53.8534C57.9667 53.8029 58.0255 53.7496 58.0818 53.6935C58.1379 53.6372 58.1912 53.5784 58.2417 53.5169C58.2921 53.4555 58.3394 53.3917 58.3836 53.3255C58.4278 53.2594 58.4686 53.1913 58.506 53.1212C58.5435 53.0511 58.5774 52.9794 58.6079 52.9059C58.6384 52.8325 58.6651 52.7577 58.6882 52.6816C58.7112 52.6056 58.7305 52.5285 58.746 52.4506C58.7616 52.3726 58.7732 52.2941 58.781 52.215C58.7888 52.1358 58.7927 52.0565 58.7927 51.977ZM81.924 51.977L81.924 40.8729C81.924 40.7934 81.9201 40.7141 81.9123 40.635C81.9045 40.5559 81.8929 40.4773 81.8774 40.3994C81.8619 40.3214 81.8426 40.2444 81.8195 40.1683C81.7964 40.0922 81.7697 40.0175 81.7393 39.944C81.7088 39.8705 81.6749 39.7988 81.6374 39.7287C81.6 39.6586 81.5592 39.5905 81.515 39.5244C81.4708 39.4583 81.4235 39.3945 81.3731 39.333C81.3226 39.2715 81.2693 39.2127 81.2131 39.1564C81.1569 39.1003 81.0981 39.047 81.0366 38.9965C80.9752 38.9461 80.9114 38.8988 80.8453 38.8546C80.7792 38.8104 80.7111 38.7696 80.641 38.7322C80.5709 38.6947 80.4991 38.6608 80.4257 38.6303C80.3523 38.5999 80.2775 38.5731 80.2014 38.55C80.1253 38.527 80.0483 38.5077 79.9703 38.4922C79.8924 38.4766 79.8138 38.465 79.7347 38.4572C79.6556 38.4494 79.5763 38.4455 79.4969 38.4455C79.4174 38.4455 79.3381 38.4494 79.259 38.4572C79.1799 38.465 79.1013 38.4766 79.0233 38.4922C78.9454 38.5077 78.8684 38.527 78.7923 38.55C78.7162 38.5731 78.6414 38.5999 78.568 38.6303C78.4946 38.6608 78.4228 38.6947 78.3527 38.7322C78.2826 38.7696 78.2145 38.8104 78.1484 38.8546C78.0823 38.8988 78.0185 38.9461 77.9571 38.9965C77.8957 39.047 77.8368 39.1003 77.7806 39.1564C77.7244 39.2127 77.6711 39.2715 77.6207 39.333C77.5702 39.3945 77.5229 39.4583 77.4787 39.5244C77.4345 39.5905 77.3937 39.6586 77.3563 39.7287C77.3188 39.7988 77.2849 39.8705 77.2544 39.944C77.2241 40.0175 77.1973 40.0922 77.1742 40.1683C77.1511 40.2444 77.1318 40.3214 77.1163 40.3994C77.1008 40.4773 77.0892 40.5559 77.0814 40.635C77.0736 40.7141 77.0697 40.7934 77.0697 40.8729L77.0697 51.977C77.0697 52.0565 77.0736 52.1358 77.0814 52.215C77.0892 52.2941 77.1008 52.3726 77.1163 52.4506C77.1318 52.5285 77.1511 52.6056 77.1742 52.6816C77.1973 52.7577 77.2241 52.8325 77.2544 52.9059C77.2849 52.9794 77.3188 53.0511 77.3563 53.1212C77.3937 53.1913 77.4345 53.2594 77.4787 53.3255C77.5229 53.3917 77.5702 53.4555 77.6207 53.5169C77.671 53.5784 77.7243 53.6372 77.7806 53.6935C77.8368 53.7496 77.8957 53.8029 77.9571 53.8534C78.0185 53.9038 78.0823 53.9511 78.1484 53.9953C78.2145 54.0395 78.2826 54.0803 78.3527 54.1178C78.4228 54.1553 78.4946 54.1892 78.568 54.2196C78.6414 54.2501 78.7162 54.2768 78.7923 54.2999C78.8684 54.3229 78.9454 54.3422 79.0233 54.3577C79.1013 54.3733 79.1799 54.3849 79.259 54.3927C79.3381 54.4005 79.4174 54.4044 79.4969 54.4044C79.5763 54.4044 79.6556 54.4005 79.7347 54.3927C79.8138 54.3849 79.8924 54.3733 79.9703 54.3577C80.0483 54.3422 80.1253 54.3229 80.2014 54.2999C80.2775 54.2768 80.3523 54.2501 80.4257 54.2196C80.4991 54.1892 80.5709 54.1553 80.641 54.1178C80.7111 54.0803 80.7792 54.0395 80.8453 53.9953C80.9114 53.9511 80.9752 53.9038 81.0366 53.8534C81.0981 53.8029 81.1569 53.7496 81.2131 53.6935C81.2693 53.6372 81.3226 53.5784 81.3731 53.5169C81.4235 53.4555 81.4708 53.3917 81.515 53.3255C81.5592 53.2594 81.6 53.1913 81.6374 53.1212C81.6749 53.0511 81.7088 52.9794 81.7393 52.9059C81.7697 52.8325 81.7964 52.7577 81.8195 52.6816C81.8426 52.6056 81.8619 52.5285 81.8774 52.4506C81.8929 52.3726 81.9045 52.2941 81.9123 52.215C81.9201 52.1358 81.924 52.0565 81.924 51.977ZM93.5161 51.977L93.5161 40.8729C93.5161 40.7934 93.5122 40.7141 93.5044 40.635C93.4967 40.5559 93.4851 40.4773 93.4695 40.3994C93.454 40.3214 93.4347 40.2444 93.4117 40.1683C93.3885 40.0922 93.3618 40.0175 93.3314 39.944C93.301 39.8705 93.267 39.7988 93.2296 39.7287C93.1921 39.6586 93.1513 39.5905 93.1071 39.5244C93.0629 39.4583 93.0156 39.3945 92.9652 39.333C92.9147 39.2715 92.8614 39.2127 92.8053 39.1564C92.749 39.1003 92.6902 39.047 92.6287 38.9965C92.5673 38.9461 92.5035 38.8988 92.4374 38.8546C92.3713 38.8104 92.3032 38.7696 92.2331 38.7322C92.163 38.6947 92.0913 38.6608 92.0178 38.6303C91.9444 38.5999 91.8696 38.5731 91.7935 38.55C91.7174 38.527 91.6404 38.5077 91.5625 38.4922C91.4845 38.4766 91.406 38.465 91.3269 38.4572C91.2478 38.4494 91.1685 38.4455 91.089 38.4455C91.0095 38.4455 90.9302 38.4494 90.8511 38.4572C90.772 38.465 90.6935 38.4766 90.6155 38.4922C90.5376 38.5077 90.4605 38.527 90.3844 38.55C90.3083 38.5731 90.2336 38.5999 90.1601 38.6303C90.0867 38.6608 90.0149 38.6947 89.9448 38.7322C89.8747 38.7696 89.8066 38.8104 89.7405 38.8546C89.6744 38.8988 89.6107 38.9461 89.5492 38.9965C89.4878 39.047 89.4289 39.1003 89.3727 39.1564C89.3165 39.2127 89.2632 39.2715 89.2128 39.333C89.1623 39.3945 89.115 39.4583 89.0709 39.5244C89.0267 39.5905 88.9859 39.6586 88.9484 39.7287C88.911 39.7988 88.877 39.8705 88.8466 39.944C88.8162 40.0175 88.7894 40.0922 88.7663 40.1683C88.7432 40.2444 88.724 40.3214 88.7084 40.3994C88.693 40.4773 88.6813 40.5559 88.6735 40.635C88.6658 40.7141 88.6619 40.7934 88.6619 40.8729L88.6619 51.977C88.6619 52.0565 88.6658 52.1358 88.6735 52.215C88.6813 52.2941 88.693 52.3726 88.7084 52.4506C88.724 52.5285 88.7432 52.6056 88.7663 52.6816C88.7894 52.7577 88.8162 52.8325 88.8466 52.9059C88.877 52.9794 88.911 53.0511 88.9484 53.1212C88.9859 53.1913 89.0267 53.2594 89.0709 53.3255C89.115 53.3917 89.1623 53.4555 89.2128 53.5169C89.2632 53.5784 89.3165 53.6372 89.3727 53.6935C89.4289 53.7496 89.4878 53.8029 89.5492 53.8534C89.6107 53.9038 89.6744 53.9511 89.7405 53.9953C89.8066 54.0395 89.8747 54.0803 89.9448 54.1178C90.0149 54.1553 90.0867 54.1892 90.1601 54.2196C90.2336 54.2501 90.3083 54.2768 90.3844 54.2999C90.4605 54.3229 90.5376 54.3422 90.6155 54.3577C90.6935 54.3733 90.772 54.3849 90.8511 54.3927C90.9302 54.4005 91.0095 54.4044 91.089 54.4044C91.1685 54.4044 91.2478 54.4005 91.3269 54.3927C91.406 54.3849 91.4845 54.3733 91.5625 54.3577C91.6404 54.3422 91.7174 54.3229 91.7935 54.2999C91.8696 54.2768 91.9444 54.2501 92.0178 54.2196C92.0913 54.1892 92.163 54.1553 92.2331 54.1178C92.3032 54.0803 92.3713 54.0395 92.4374 53.9953C92.5035 53.9511 92.5673 53.9038 92.6287 53.8534C92.6902 53.8029 92.749 53.7496 92.8053 53.6935C92.8614 53.6372 92.9147 53.5784 92.9652 53.5169C93.0156 53.4555 93.0629 53.3917 93.1071 53.3255C93.1513 53.2594 93.1921 53.1913 93.2296 53.1212C93.267 53.0511 93.301 52.9794 93.3314 52.9059C93.3618 52.8325 93.3885 52.7577 93.4117 52.6816C93.4347 52.6056 93.454 52.5285 93.4695 52.4506C93.4851 52.3726 93.4967 52.2941 93.5044 52.215C93.5122 52.1358 93.5161 52.0565 93.5161 51.977ZM105.106 51.977L105.106 40.8729C105.106 40.7934 105.102 40.7141 105.095 40.635C105.087 40.5559 105.075 40.4773 105.06 40.3994C105.044 40.3214 105.025 40.2444 105.002 40.1683C104.979 40.0922 104.952 40.0175 104.922 39.944C104.891 39.8705 104.857 39.7988 104.82 39.7287C104.782 39.6586 104.742 39.5905 104.697 39.5244C104.653 39.4583 104.606 39.3945 104.555 39.333C104.505 39.2715 104.452 39.2127 104.395 39.1564C104.339 39.1003 104.28 39.047 104.219 38.9965C104.158 38.9461 104.094 38.8988 104.028 38.8546C103.962 38.8104 103.893 38.7696 103.823 38.7322C103.753 38.6947 103.681 38.6608 103.608 38.6303C103.535 38.5999 103.46 38.5731 103.384 38.55C103.308 38.527 103.231 38.5077 103.153 38.4922C103.075 38.4766 102.996 38.465 102.917 38.4572C102.838 38.4494 102.759 38.4455 102.679 38.4455C102.6 38.4455 102.52 38.4494 102.441 38.4572C102.362 38.465 102.284 38.4766 102.206 38.4922C102.128 38.5077 102.051 38.527 101.975 38.55C101.899 38.5731 101.824 38.5999 101.75 38.6303C101.677 38.6608 101.605 38.6947 101.535 38.7322C101.465 38.7696 101.397 38.8104 101.331 38.8546C101.265 38.8988 101.201 38.9461 101.139 38.9965C101.078 39.047 101.019 39.1003 100.963 39.1564C100.907 39.2127 100.853 39.2715 100.803 39.333C100.753 39.3945 100.705 39.4583 100.661 39.5244C100.617 39.5905 100.576 39.6586 100.539 39.7287C100.501 39.7988 100.467 39.8705 100.437 39.944C100.406 40.0175 100.38 40.0922 100.357 40.1683C100.333 40.2444 100.314 40.3214 100.299 40.3994C100.283 40.4773 100.272 40.5559 100.264 40.635C100.256 40.7141 100.252 40.7934 100.252 40.8729L100.252 51.977C100.252 52.0565 100.256 52.1358 100.264 52.215C100.272 52.2941 100.283 52.3726 100.299 52.4506C100.314 52.5285 100.333 52.6056 100.357 52.6816C100.38 52.7577 100.406 52.8325 100.437 52.9059C100.467 52.9794 100.501 53.0511 100.539 53.1212C100.576 53.1913 100.617 53.2594 100.661 53.3255C100.705 53.3917 100.753 53.4555 100.803 53.5169C100.853 53.5784 100.907 53.6372 100.963 53.6935C101.019 53.7496 101.078 53.8029 101.139 53.8534C101.201 53.9038 101.265 53.9511 101.331 53.9953C101.397 54.0395 101.465 54.0803 101.535 54.1178C101.605 54.1553 101.677 54.1892 101.75 54.2196C101.824 54.2501 101.899 54.2768 101.975 54.2999C102.051 54.3229 102.128 54.3422 102.206 54.3577C102.284 54.3733 102.362 54.3849 102.441 54.3927C102.52 54.4005 102.6 54.4044 102.679 54.4044C102.759 54.4044 102.838 54.4005 102.917 54.3927C102.996 54.3849 103.075 54.3733 103.153 54.3577C103.231 54.3422 103.308 54.3229 103.384 54.2999C103.46 54.2768 103.535 54.2501 103.608 54.2196C103.681 54.1892 103.753 54.1553 103.823 54.1178C103.893 54.0803 103.962 54.0395 104.028 53.9953C104.094 53.9511 104.158 53.9038 104.219 53.8534C104.28 53.8029 104.339 53.7496 104.395 53.6935C104.452 53.6372 104.505 53.5784 104.555 53.5169C104.606 53.4555 104.653 53.3917 104.697 53.3255C104.742 53.2594 104.782 53.1913 104.82 53.1212C104.857 53.0511 104.891 52.9794 104.922 52.9059C104.952 52.8325 104.979 52.7577 105.002 52.6816C105.025 52.6056 105.044 52.5285 105.06 52.4506C105.075 52.3726 105.087 52.2941 105.095 52.215C105.102 52.1358 105.106 52.0565 105.106 51.977ZM51.5554 92.7045C47.8119 96.487 41.7401 96.4728 37.9957 92.7089L37.9912 92.7045C37.2432 91.9565 36.636 91.1075 36.1698 90.1575C35.7139 89.2287 35.4151 88.2503 35.2733 87.2224C35.1316 86.1941 35.1549 85.1733 35.3432 84.1598C35.536 83.1223 35.8927 82.145 36.4134 81.2279L44.7733 66.3938L53.1295 81.2212C53.6527 82.1428 54.0107 83.1223 54.2035 84.1598C54.3918 85.1733 54.4151 86.1941 54.2733 87.2224C54.1315 88.2503 53.8327 89.2287 53.3768 90.1575C52.9106 91.1075 52.3034 91.9565 51.5554 92.7045ZM98.211 92.7045C94.4675 96.487 88.3957 96.4728 84.6513 92.7089L84.6468 92.7045C83.8988 91.9565 83.2917 91.1075 82.8254 90.1576C82.3695 89.2288 82.0707 88.2503 81.9289 87.2224C81.7872 86.1941 81.8104 85.1733 81.9988 84.1598C82.1915 83.1223 82.5483 82.145 83.0689 81.2279L91.4289 66.3938L99.7851 81.2212C100.308 82.1428 100.666 83.1223 100.859 84.1598C101.047 85.1733 101.071 86.1941 100.929 87.2224C100.787 88.2503 100.488 89.2287 100.032 90.1575C99.5661 91.1075 98.959 91.9565 98.211 92.7045ZM30.464 87.8855C30.4734 87.9535 30.4832 88.0213 30.4935 88.0888L20.9518 88.0888C19.1513 83.8775 17.8997 79.3755 17.2869 74.6728L34.5349 74.6728L32.1914 78.8311C31.4025 80.2207 30.8621 81.7013 30.5701 83.273C30.2861 84.8011 30.2507 86.3386 30.464 87.8855ZM44.7725 92.4654C48.8029 92.4654 52.0702 89.1981 52.0702 85.1677C52.0702 81.1374 48.8029 77.8701 44.7725 77.8701C40.7423 77.8701 37.475 81.1374 37.475 85.1677C37.475 89.1981 40.7423 92.4654 44.7725 92.4654ZM98.7258 85.1677C98.7258 89.1981 95.4585 92.4654 91.4282 92.4654C87.3979 92.4654 84.1305 89.1981 84.1305 85.1677C84.1305 81.1374 87.3979 77.8701 91.4282 77.8701C95.4585 77.8701 98.7258 81.1374 98.7258 85.1677ZM44.7725 82.725C46.1217 82.725 47.2154 83.8187 47.2154 85.1677C47.2154 86.5169 46.1217 87.6106 44.7725 87.6106C43.4235 87.6106 42.3298 86.5169 42.3298 85.1677C42.3298 83.8187 43.4235 82.725 44.7725 82.725ZM93.8709 85.1677C93.8709 83.8187 92.7773 82.725 91.4282 82.725C90.0791 82.725 88.9854 83.8187 88.9854 85.1677C88.9854 86.5169 90.0791 87.6106 91.4282 87.6106C92.7773 87.6106 93.8709 86.5169 93.8709 85.1677Z" fill-rule="evenodd"  fill="#EDF5FF" ></path></g><defs><filter id="filter_5_1055" x="0.00072479248046875" y="0.000244140625" width="127.99944305419922" height="129.9990234375" filterUnits="userSpaceOnUse" color-interpolation-filters="sRGB"><feFlood flood-opacity="0" result="feFloodId_5_1055"/><feColorMatrix in="SourceAlpha" type="matrix" values="0 0 0 0 0 0 0 0 0 0 0 0 0 0 0 0 0 0 127 0" result="hardAlpha_5_1055"/><feOffset dx="0" dy="0"/><feGaussianBlur stdDeviation="6"/><feComposite in2="hardAlpha_5_1055" operator="out"/><feColorMatrix type="matrix" values="0 0 0 0 0 0 0 0 0 0.4470588235294118 0 0 0 0 1 0 0 0 0.64 0"/><feBlend mode="normal" in2="feFloodId_5_1055" result="dropShadow_1_5_1055"/><feColorMatrix in="SourceAlpha" type="matrix" values="0 0 0 0 0 0 0 0 0 0 0 0 0 0 0 0 0 0 127 0" result="hardAlpha_5_1055"/><feOffset dx="0" dy="2"/><feGaussianBlur stdDeviation="2"/><feComposite in2="hardAlpha_5_1055" operator="out"/><feColorMatrix type="matrix" values="0 0 0 0 0 0 0 0 0 0.06274509803921569 0 0 0 0 0.1411764705882353 0 0 0 0.48 0"/><feBlend mode="normal" in2="feFloodId_5_1055" result="dropShadow_1_5_1055"/><feBlend mode="normal" in="SourceGraphic" in2="dropShadow_1_5_1055" result="shape_5_1055"/></filter></defs></svg>