<svg xmlns="http://www.w3.org/2000/svg" xmlns:xlink="http://www.w3.org/1999/xlink" width="48" height="48" viewBox="0 0 48 48" fill="none"><path d="M41.6 25.4093C40.6 25.2073 39.4 26.0156 39.2 27.0259C38 34.5026 31.6 39.9586 24.2 39.9586C18.6 39.9586 13.6 36.9275 11 32.0777L12.8 32.0777C14 32.0777 14.8 31.2695 14.8 30.057C14.8 28.8446 14 28.0363 12.8 28.0363L6 28.0363C4.8 28.0363 4 28.8446 4 30.057L4 36.9275C4 38.1399 4.8 38.9482 6 38.9482C7.2 38.9482 8 38.1399 8 36.9275L8 34.9068C11.4 40.3627 17.6 44 24.2 44C33.6 44 41.6 37.1296 43.2 27.8342C43.4 26.6218 42.6 25.6114 41.6 25.4093Z"   fill="#EDF5FF" ></path><path d="M41.9997 10.0518C40.7997 10.0518 39.9997 10.8601 39.9997 12.0725L39.9997 13.285C36.3997 8.03109 30.5997 5 24.1998 5C14.9998 5 6.7998 11.8705 5.1998 20.9637C4.9998 21.9741 5.7998 23.1865 6.7998 23.3886C6.9998 23.3886 6.9998 23.3886 7.19981 23.3886C8.19981 23.3886 8.99981 22.7824 9.19981 21.772C10.3998 14.4974 16.7998 9.04145 24.1998 9.04145C29.5997 9.04145 34.5997 12.0725 37.3997 16.7202L35.1997 16.7202C33.9997 16.7202 33.1997 17.5285 33.1997 18.7409C33.1997 19.9534 33.9997 20.7617 35.1997 20.7617L41.9997 20.7617C43.1997 20.7617 43.9997 19.9534 43.9997 18.7409L43.9997 12.0725C43.9997 10.8601 43.1997 10.0518 41.9997 10.0518Z"   fill="#EDF5FF" ></path></svg>