<svg xmlns="http://www.w3.org/2000/svg" xmlns:xlink="http://www.w3.org/1999/xlink" width="368" height="160" viewBox="0 0 368 160" fill="none"><path d="M107.816 77.2035C107.816 77.2035 107.466 77.0537 107.317 77.0037C109.512 77.8027 111.757 78.6017 114.152 79.4007C123.033 82.4469 128.62 85.0437 130.915 87.2909C133.21 89.5381 134.358 91.985 134.358 94.6317C134.358 98.1273 132.612 101.223 129.02 103.97C125.477 106.717 120.289 108.065 113.453 108.015C106.718 108.015 101.43 106.267 97.6377 102.921C93.7961 99.6255 91.8503 93.9326 91.8503 85.8926L52.3861 85.8926L52.3861 91.186C52.3861 103.471 56.2278 113.558 65.4577 121.448C74.6876 129.338 90.3037 133.333 112.306 133.483C127.972 133.583 139.996 131.536 148.477 127.441C156.909 123.296 163.445 118.002 167.935 111.61C172.425 105.169 174.67 98.1773 174.67 90.6866C174.67 82.6966 172.525 76.1049 168.384 70.7116C165.44 66.9663 161.948 63.7203 157.907 60.9238L195.176 59.2759L198.119 56.1798L308.779 53.1336L308.928 52.2846L138.798 51.4357C137.501 50.8864 136.104 50.3371 134.707 49.7878L198.069 46.6916L201.312 43.4457L311.024 41.1486L311.174 40.3496L190.187 39.201L187.742 39.201C187.991 40.5493 188.191 41.9975 188.341 43.4956L147.43 42.9963C147.38 42.1473 147.23 41.3483 147.13 40.5493L184.649 40.9987C183.501 28.9638 178.163 19.2759 168.833 12.3346L169.332 12.6342L206.85 9.98752L209.495 6.94132L318.258 2.99625L318.458 1.89763L139.247 1.44819C134.458 0.799001 129.269 0.399501 123.781 0.399501C121.137 0.399501 118.592 0.499376 116.098 0.649188C116.447 0.649188 116.746 0.599251 117.095 0.549313L29.2863 0L0 128.639L42.8069 128.889L54.0824 76.804L107.866 77.1536L107.816 77.2035ZM143.588 39.6504L112.555 39.9501L111.208 39.9501C111.208 39.9501 111.009 39.8002 110.959 39.7503C108.764 37.9026 107.616 35.9051 107.616 33.9076C107.616 31.1111 109.013 28.7141 111.757 26.6667C114.501 24.6692 118.393 23.6704 123.531 23.7203C135.705 23.8202 142.39 29.1136 143.638 39.6504L143.588 39.6504ZM65.8069 27.8652L69.3991 27.8652C69.6985 27.0662 70.1475 26.2172 70.5466 25.4182C68.4512 29.8627 67.3536 34.5568 67.3536 39.6005C67.3536 44.6442 68.551 49.1386 70.6464 53.2834C70.2473 52.4844 69.7484 51.7353 69.449 50.9363L60.5184 50.9363L65.8568 27.9151L65.8069 27.8652ZM367.9 17.578L367.9 16.7291L367.701 15.8801L367.551 15.0811L367.351 14.2821L367.102 13.4831L366.853 12.6841L366.553 11.9351L366.204 11.186L365.855 10.4869L365.456 9.78776L365.007 9.08864L364.557 8.43945L364.059 7.79026L363.56 7.19101L363.011 6.59176L362.412 6.04245L361.813 5.49313L361.165 4.99376L360.516 4.54432L359.818 4.09488L359.119 3.69538L358.421 3.34582L357.672 2.99625L356.924 2.69663L356.126 2.44694L355.328 2.19725L354.529 1.9975L353.681 1.84769L352.833 1.74782L351.985 1.64794L351.137 1.64794L350.289 1.64794L349.44 1.64794L348.592 1.79775L347.744 1.94757L346.946 2.14732L346.147 2.34707L345.349 2.59675L344.601 2.89638L343.853 3.24594L343.154 3.59551L342.456 3.99501L341.757 4.44444L341.108 4.89388L340.46 5.39326L339.861 5.89263L339.262 6.44195L338.714 7.0412L338.215 7.64045L337.716 8.28964L337.267 8.93883L336.818 9.58801L336.419 10.2871L336.02 10.9863L335.67 11.7353L335.371 12.4844L335.121 13.2335L334.872 14.0325L334.672 14.8315L334.523 15.6305L334.423 16.4794L334.423 17.3283L334.323 18.1773L334.323 19.0262L334.423 19.8752L334.523 20.7241L334.672 21.5231L334.872 22.3221L335.121 23.1211L335.371 23.9201L335.67 24.6692L336.02 25.4182L336.419 26.1174L336.818 26.8165L337.267 27.5156L337.716 28.1648L338.215 28.814L338.764 29.4132L339.312 30.0125L339.911 30.5618L340.51 31.1111L341.158 31.6105L341.807 32.0599L342.505 32.5094L343.204 32.9089L343.902 33.3084L344.651 33.6579L345.399 33.9576L346.197 34.2072L346.996 34.4569L347.794 34.6567L348.642 34.8065L349.49 34.9064L350.338 35.0062L351.187 35.0062L352.035 35.0062L352.883 35.0062L353.731 34.8564L354.529 34.7066L355.328 34.5069L356.126 34.3071L356.924 34.0574L357.672 33.7578L358.421 33.4082L359.169 33.0587L359.868 32.6592L360.566 32.2097L361.215 31.7603L361.863 31.2609L362.462 30.7615L363.061 30.2122L363.61 29.613L364.158 29.0137L364.657 28.3645L365.106 27.7154L365.555 27.0162L365.954 26.3171L366.304 25.618L366.653 24.8689L366.952 24.1198L367.202 23.3208L367.451 22.5218L367.651 21.7228L367.8 20.9238L367.9 20.0749L367.9 19.226L368 18.377L368 17.5281L367.9 17.578ZM341.707 28.6142L341.208 28.1648L340.759 27.6654L340.31 27.166L339.911 26.6167L339.512 26.0674L339.163 25.5181L338.813 24.9188L338.514 24.3196L338.215 23.6704L337.965 23.0212L337.766 22.372L337.566 21.7228L337.416 21.0237L337.267 20.3246L337.167 19.6255L337.167 18.9263L337.067 18.1773L337.067 17.4782L337.167 16.779L337.267 16.0799L337.367 15.3808L337.516 14.6816L337.716 14.0325L337.915 13.3833L338.165 12.7341L338.464 12.1348L338.764 11.5356L339.113 10.9363L339.462 10.387L339.861 9.8377L340.26 9.28839L340.709 8.78901L341.158 8.28964L341.657 7.8402L341.907 7.64045L341.907 28.764L341.707 28.5643L341.707 28.6142ZM357.922 30.6617L357.323 30.9613L356.675 31.211L356.026 31.4607L355.377 31.6604L354.729 31.8602L354.03 32.01L353.332 32.1099L352.633 32.2097L351.935 32.2097L351.187 32.2597L350.438 32.2597L349.74 32.1598L349.041 32.0599L348.343 31.9101L347.644 31.7603L346.996 31.5605L346.347 31.3608L345.698 31.1111L345.05 30.8115L344.451 30.5119L343.853 30.1623L343.354 29.8127L344.751 29.8127L344.751 19.6754L348.043 19.6754C348.792 19.6754 349.291 19.7253 349.64 19.8252C350.089 19.9251 350.538 20.1248 350.937 20.4245C351.386 20.7241 351.835 21.2235 352.384 21.9725C352.933 22.7216 353.631 23.7703 354.43 25.1186L357.273 29.9126L358.97 29.9126L358.471 30.2622L357.872 30.6117L357.922 30.6617ZM344.751 9.63795L351.586 9.63795C353.182 9.68789 354.33 10.0375 355.078 10.7366C355.826 11.4357 356.176 12.3346 356.176 13.3833C356.176 14.1323 355.976 14.7815 355.627 15.4307C355.228 16.0799 354.679 16.5293 353.98 16.779C353.232 17.0787 352.234 17.1785 350.937 17.1785L344.8 17.1785L344.8 9.58801L344.751 9.63795ZM365.306 19.176L365.306 19.8752L365.156 20.5743L365.007 21.2734L364.857 21.9725L364.657 22.6217L364.458 23.2709L364.208 23.9201L363.909 24.5194L363.61 25.1186L363.26 25.7179L362.911 26.2672L362.512 26.8165L362.113 27.3658L361.664 27.8652L361.215 28.3645L360.716 28.814L360.367 29.1136L357.174 23.8702C356.425 22.6717 355.627 21.623 354.779 20.824C354.38 20.4245 353.831 20.0749 353.033 19.6754C355.078 19.3758 356.625 18.6767 357.623 17.578C358.62 16.4794 359.119 15.1311 359.119 13.4831C359.119 12.2347 358.82 11.0861 358.221 10.0375C357.623 8.98876 356.824 8.28964 355.826 7.8402C354.829 7.4407 353.382 7.19101 351.436 7.19101L342.655 7.19101L342.655 7.09114L343.204 6.69164L343.753 6.34207L344.351 5.99251L344.95 5.69288L345.599 5.39326L346.247 5.14357L346.896 4.94382L347.544 4.74407L348.243 4.59426L348.941 4.49439L349.64 4.39451L350.338 4.39451L351.087 4.34457L351.835 4.34457L352.534 4.44445L353.232 4.54432L353.931 4.69414L354.629 4.84395L355.278 5.04369L355.926 5.29338L356.575 5.54307L357.174 5.8427L357.772 6.14232L358.371 6.49188L358.97 6.89139L359.518 7.29089L360.067 7.69039L360.566 8.13982L361.065 8.58926L361.514 9.08864L361.963 9.58801L362.362 10.1373L362.761 10.6866L363.111 11.236L363.46 11.8352L363.759 12.4345L364.059 13.0337L364.308 13.6829L364.508 14.3321L364.707 14.9813L364.857 15.6804L364.957 16.3795L365.056 17.0787L365.056 17.7778L365.156 18.5268L365.156 19.226L365.306 19.176ZM256.043 146.317L274.354 159.8L256.093 159.8L245.965 150.861L238.282 154.457L238.282 159.7L223.464 159.7L223.464 138.127L238.232 138.127L238.232 146.267L253.798 138.127L273.505 138.127L256.043 146.267L256.043 146.317ZM39.4642 142.272L17.6616 142.272L17.6616 145.968L36.2711 145.968L36.2711 150.362L17.6616 150.362L17.6616 159.151L2.84382 159.151L2.84382 137.528L39.5141 137.628L39.5141 142.272L39.4642 142.272ZM143.288 137.878L124.679 150.362L124.679 159.401L109.811 159.401L109.811 150.362L91.0521 137.778L107.516 137.778L117.245 145.119L126.924 137.878L143.288 137.878ZM209.495 149.413C210.792 150.362 211.44 151.411 211.44 152.609C211.44 154.007 210.592 155.256 208.896 156.454C207.2 157.603 204.805 158.502 201.761 159.101C198.718 159.7 194.876 160 190.187 160C182.004 160 176.367 159.251 173.223 157.853C170.08 156.454 168.284 154.657 167.885 152.459L182.004 152.11C182.304 153.159 182.952 153.908 183.9 154.457C185.397 155.356 187.592 155.755 190.436 155.755C192.531 155.755 194.178 155.556 195.325 155.106C196.473 154.657 197.022 154.157 197.022 153.558C197.022 153.009 196.473 152.509 195.375 152.06C194.278 151.61 191.733 151.211 187.792 150.811C181.306 150.162 176.666 149.263 173.872 148.165C171.078 147.066 169.681 145.668 169.681 143.97C169.681 142.871 170.38 141.823 171.826 140.824C173.273 139.825 175.419 139.076 178.262 138.527C181.156 137.978 185.048 137.678 190.087 137.728C196.223 137.728 200.913 138.277 204.106 139.276C207.349 140.325 209.245 141.923 209.844 144.17L195.874 144.519C195.525 143.571 194.727 142.821 193.529 142.372C192.332 141.923 190.685 141.723 188.59 141.723C186.844 141.723 185.547 141.873 184.698 142.222C183.85 142.572 183.401 142.971 183.401 143.421C183.401 143.77 183.751 144.07 184.499 144.37C185.197 144.669 186.844 144.919 189.488 145.169C195.974 145.818 200.614 146.467 203.408 147.116C206.202 147.765 208.247 148.564 209.544 149.513L209.495 149.413ZM331.08 138.327L312.421 150.811L312.421 159.85L297.553 159.85L297.553 150.811L278.794 138.227L295.258 138.227L304.937 145.568L314.616 138.327L330.98 138.327L331.08 138.327ZM89.9046 154.007L89.9046 159.351L51.9371 159.251L51.9371 137.678L66.7549 137.678L66.7549 153.958L89.9544 154.007L89.9046 154.007ZM299.2 102.672L187.443 105.468L183.501 108.864L174.57 109.213C176.067 106.217 177.165 103.071 177.764 99.8252L299.399 101.723L299.2 102.672ZM306.184 66.2172L195.076 69.2634L192.432 72.5094L171.926 73.1585C169.182 69.6629 165.889 66.5668 162.148 63.9201L306.384 65.2684L306.184 66.2172ZM303.989 77.7029L192.781 81.1985L188.939 84.3446L177.464 85.1436C176.716 81.598 175.419 78.4519 173.573 75.5555L304.139 76.7041L303.939 77.7029L303.989 77.7029ZM173.423 111.261L297.304 112.459L297.104 113.558L184.698 117.703L181.306 120.3L165.74 120.899C167.985 118.801 169.98 116.554 171.627 114.157C172.275 113.208 172.874 112.26 173.473 111.311L173.423 111.261ZM301.445 90.9863L190.286 93.9326L186.345 96.779L178.163 97.1785C178.312 95.8801 178.362 94.5818 178.362 93.2335C178.362 91.4357 178.262 89.6879 178.013 88.0399L301.644 89.9376L301.445 90.9863ZM177.564 133.084L144.087 132.984C147.08 132.135 149.774 131.136 152.169 129.988C156.21 127.99 159.852 125.743 162.996 123.246L295.108 124.095L294.909 125.243L181.954 130.337L177.564 133.134L177.564 133.084ZM183.351 27.166L313.518 28.1149L313.319 29.0637L203.807 32.01L200.514 34.7566L186.694 35.2559C185.846 32.4095 184.748 29.7129 183.302 27.166L183.351 27.166ZM315.664 16.829L206.651 20.025L203.757 23.1211L181.306 23.8702C178.861 20.3745 175.768 17.3283 172.126 14.6816L315.913 15.8302L315.714 16.8789L315.664 16.829Z"   fill="url(#linear_fill_74_4)" ></path><defs><linearGradient id="linear_fill_74_4" x1="184" y1="0" x2="184" y2="160" gradientUnits="userSpaceOnUse"><stop offset="0.3681" stop-color="#EDF5FF"  /><stop offset="1" stop-color="#92C3FF"  /></linearGradient></defs></svg>