<svg xmlns="http://www.w3.org/2000/svg" xmlns:xlink="http://www.w3.org/1999/xlink" width="238" height="340" viewBox="0 0 238 340" fill="none"><path d="M123.61 0L114.38 0C114.012 0 113.702 0.131157 113.44 0.39C113.173 0.653605 113.04 0.974153 113.04 1.35L113.04 52.54C112.613 52.7636 112.32 53.2131 112.32 53.73L112.32 80.77C112.32 81.1855 112.504 81.5641 112.8 81.81L112.8 97.75L86.4 97.75L86.4 96.95C86.4 96.6606 86.3492 96.3869 86.25 96.12C86.1515 95.8553 86.0126 95.6175 85.83 95.41C85.6395 95.1935 85.4132 95.0215 85.16 94.9C84.8881 94.7696 84.5998 94.71 84.3 94.71L81.76 94.71L81.76 94.19C81.76 92.5759 80.4603 91.27 78.85 91.27C77.2396 91.27 75.93 92.5759 75.93 94.19L75.93 94.71L73.4 94.71C73.1002 94.71 72.8119 94.7696 72.54 94.9C72.2868 95.0215 72.0606 95.1935 71.87 95.41C71.6875 95.6175 71.5484 95.8553 71.45 96.12C71.3508 96.3869 71.3 96.6606 71.3 96.95L71.3 97.75L45.36 97.75L38.57 83.62L38.32 83.74C38.0104 83.3277 37.5246 83.06 36.97 83.06L1.7 83.06C0.762853 83.06 0 83.8206 0 84.76L0 336.83C0 337.767 0.762853 338.53 1.7 338.53L36.97 338.53C37.8344 338.53 38.5445 337.877 38.65 337.04L47.86 337.04C47.9679 337.04 48.0635 337.074 48.15 337.15L50.57 339.37C50.7952 339.577 51.046 339.731 51.33 339.84C51.6153 339.948 51.907 340 52.21 340L52.22 340L119 339.36L119.01 339.36L185.78 340L185.79 340C186.092 340 186.386 339.948 186.67 339.84C186.954 339.731 187.215 339.577 187.44 339.37L189.85 337.16L189.85 337.15C189.937 337.074 190.033 337.04 190.14 337.04L199.35 337.04C199.456 337.877 200.165 338.53 201.03 338.53L236.3 338.53C237.237 338.53 238 337.767 238 336.83L238 84.76C238 83.8206 237.237 83.06 236.3 83.06L201.03 83.06C200.475 83.06 199.979 83.3272 199.67 83.74L199.43 83.62L192.64 97.75L166.7 97.75L166.7 96.95C166.7 96.6606 166.649 96.3869 166.55 96.12C166.451 95.8553 166.303 95.6175 166.12 95.41C165.929 95.1935 165.713 95.0215 165.46 94.9C165.187 94.7696 164.9 94.71 164.6 94.71L162.07 94.71L162.07 94.19C162.07 92.5759 160.76 91.27 159.15 91.27C157.539 91.27 156.24 92.5759 156.24 94.19L156.24 94.71L153.7 94.71C153.4 94.71 153.112 94.7696 152.84 94.9C152.587 95.0215 152.37 95.1935 152.18 95.41C151.997 95.6175 151.848 95.8553 151.75 96.12C151.651 96.3869 151.6 96.6606 151.6 96.95L151.6 97.75L125.19 97.75L125.19 81.81C125.486 81.5641 125.68 81.1855 125.68 80.77L125.68 53.73C125.68 53.2131 125.387 52.7636 124.96 52.54L124.96 1.35C124.96 0.974153 124.827 0.653605 124.56 0.39C124.298 0.131157 123.977 0 123.61 0ZM122.97 1.99L115.02 1.99L115.02 11.88L122.97 11.88L122.97 1.99ZM122.97 13.87L115.02 13.87L115.02 49.02L122.97 49.02L122.97 13.87ZM122.97 52.39L115.02 52.39L115.02 51L122.97 51L122.97 52.39ZM123.69 80.12L114.3 80.12L114.3 54.38L123.69 54.38L123.69 80.12ZM123.21 83.77L114.79 83.77L114.79 82.1L123.21 82.1L123.21 83.77ZM1.98 99.16L36.68 99.16L36.68 85.05L1.98 85.05L1.98 99.16ZM201.32 99.16L236.02 99.16L236.02 85.05L201.32 85.05L201.32 99.16ZM119.01 195.02L137.01 194.94L154.88 194.95L154.92 194.95C155.431 194.971 155.844 194.961 156.15 194.92C156.48 194.875 156.832 194.78 157.22 194.63C158.133 194.27 158.965 193.752 159.7 193.07C160.427 192.396 161.012 191.609 161.47 190.71L168.91 176.14C168.357 174.714 167.619 173.348 166.7 172.04C165.893 170.891 164.961 169.807 163.91 168.8C163.159 168.08 162.385 167.434 161.59 166.86C161.318 166.664 161.084 166.504 160.89 166.38L119.01 166.38L119.01 164.39L124.49 164.39L124.49 149.97L130.62 149.97L130.62 164.39L142.11 164.39L142.11 149.97L148.23 149.97L148.23 164.39L160.18 164.39L160.18 155.68C159.32 153.794 158.51 152.329 157.74 151.27C157.097 150.386 156.378 149.659 155.59 149.1C154.302 148.179 152.764 147.579 150.98 147.31C144.034 146.267 137.276 146.043 130.7 146.63L130.05 146.69L129.74 146.12L125.03 137.53L119.01 137.53L119.01 135.54L123.21 135.54L123.21 85.76L114.79 85.76L114.79 135.54L119 135.54L119 137.53L112.98 137.53L108.27 146.12L107.96 146.69L107.31 146.63C100.734 146.043 93.9753 146.267 87.03 147.31C85.2455 147.579 83.7082 148.179 82.42 149.1C81.632 149.659 80.9127 150.386 80.27 151.27C79.5003 152.329 78.6892 153.794 77.83 155.68L77.83 164.39L89.77 164.39L89.77 149.97L95.88 149.97L95.88 164.39L107.38 164.39L107.38 149.97L113.5 149.97L113.5 164.39L119 164.39L119 166.38L77.1 166.38C76.9056 166.504 76.6717 166.664 76.4 166.86C75.6045 167.434 74.8313 168.08 74.08 168.8C73.0283 169.807 72.1077 170.891 71.3 172.04C70.3807 173.348 69.6431 174.714 69.09 176.14L76.52 190.71C76.9783 191.609 77.5732 192.396 78.3 193.07C79.0358 193.752 79.8575 194.27 80.77 194.63L80.78 194.63C81.1671 194.78 81.5199 194.875 81.85 194.92C82.1554 194.961 82.5699 194.971 83.08 194.95L83.12 194.95L100.99 194.94L118.99 195.02L119.01 195.02ZM199.34 118.02L194.31 98.84L199.34 88.4L199.34 118.02ZM38.66 118.01L43.69 98.84L38.66 88.41L38.66 118.01ZM79.78 94.19L79.78 97.75L77.92 97.75L77.92 94.19C77.92 93.674 78.3352 93.26 78.85 93.26C79.3648 93.26 79.78 93.674 79.78 94.19ZM158.22 94.19L158.22 97.75L160.08 97.75L160.08 94.19C160.08 93.674 159.665 93.26 159.15 93.26C158.635 93.26 158.22 93.674 158.22 94.19ZM75.93 96.7L75.93 97.75L73.29 97.75L73.29 96.95C73.29 96.8545 73.3105 96.7862 73.36 96.73C73.3725 96.7157 73.3795 96.7 73.39 96.7L75.93 96.7ZM84.41 96.95L84.41 97.75L81.76 97.75L81.76 96.7L84.3 96.7C84.3104 96.7 84.3274 96.7158 84.34 96.73C84.3895 96.7862 84.41 96.8545 84.41 96.95ZM156.24 96.7L156.24 97.75L153.59 97.75L153.59 96.95C153.59 96.8545 153.611 96.7862 153.66 96.73C153.673 96.7157 153.7 96.7 153.7 96.7L156.24 96.7ZM164.71 97.75L162.07 97.75L162.07 96.7L164.6 96.7C164.611 96.7 164.627 96.7158 164.64 96.73C164.69 96.7862 164.71 96.8545 164.71 96.95L164.71 97.75ZM75.93 100.64L75.93 99.73L45.5 99.73L45.27 100.64L75.93 100.64ZM77.92 99.73L77.92 107.47C77.92 107.986 78.3352 108.4 78.85 108.4C79.3648 108.4 79.78 107.986 79.78 107.47L79.78 99.73L77.92 99.73ZM81.76 100.64L112.8 100.64L112.8 99.73L81.76 99.73L81.76 100.64ZM125.19 99.73L125.19 100.64L156.24 100.64L156.24 99.73L125.19 99.73ZM160.08 107.47L160.08 99.73L158.22 99.73L158.22 107.47C158.22 107.986 158.635 108.4 159.15 108.4C159.665 108.4 160.08 107.986 160.08 107.47ZM192.49 99.73L192.73 100.64L162.07 100.64L162.07 99.73L192.49 99.73ZM36.68 113.95L36.68 101.15L1.98 101.15L1.98 113.95L36.68 113.95ZM236.02 113.95L236.02 101.15L201.32 101.15L201.32 113.95L236.02 113.95ZM38.96 124.72L44.75 102.63L75.93 102.63L75.93 107.47C75.93 109.084 77.2396 110.39 78.85 110.39C80.4603 110.39 81.76 109.084 81.76 107.47L81.76 102.63L112.8 102.63L112.8 124.55L38.96 124.72ZM125.19 102.63L125.19 124.55L199.04 124.72L193.25 102.63L162.07 102.63L162.07 107.47C162.07 109.084 160.76 110.39 159.15 110.39C157.539 110.39 156.24 109.084 156.24 107.47L156.24 102.63L125.19 102.63ZM36.68 125.59L36.39 126.71L36.68 126.71L36.68 128.76L1.98 128.76L1.98 115.94L36.68 115.94L36.68 125.59ZM201.32 126.71L201.61 126.71L201.32 125.6L201.32 115.94L236.02 115.94L236.02 128.76L201.32 128.76L201.32 126.71ZM112.8 126.53L38.66 126.71L38.66 197.62L45.51 182.82L45.69 182.43L46.1 182.3L67.01 175.48L67.01 163.89L67.3 163.6L76.01 154.89C76.9308 152.865 77.8169 151.263 78.67 150.09C79.4398 149.031 80.3061 148.164 81.27 147.48C82.8155 146.376 84.6434 145.666 86.74 145.35C93.6144 144.318 100.31 144.06 106.84 144.59L111.53 136.06L111.81 135.54L112.8 135.54L112.8 126.53ZM125.19 126.53L125.19 135.54L126.2 135.54L126.48 136.06L131.17 144.59C137.701 144.06 144.396 144.318 151.27 145.35C153.367 145.666 155.195 146.376 156.74 147.48C157.704 148.164 158.57 149.031 159.34 150.09C160.196 151.267 161.086 152.876 162.01 154.91L170.7 163.6L170.99 163.89L170.99 175.48L191.9 182.3L192.31 182.43L192.49 182.82L199.34 197.62L199.34 126.71L125.19 126.53ZM1.98 130.74L1.98 143.56L36.68 143.56L36.68 130.74L1.98 130.74ZM201.32 130.74L201.32 143.56L236.02 143.56L236.02 130.74L201.32 130.74ZM36.68 145.55L1.98 145.55L1.98 158.36L36.68 158.36L36.68 145.55ZM236.02 145.55L201.32 145.55L201.32 158.36L236.02 158.36L236.02 145.55ZM93.9 151.96L93.9 164.39L91.75 164.39L91.75 151.96L93.9 151.96ZM111.52 151.96L111.52 164.39L109.36 164.39L109.36 151.96L111.52 151.96ZM128.64 164.39L126.48 164.39L126.48 151.96L128.64 151.96L128.64 164.39ZM146.25 164.39L144.1 164.39L144.1 151.96L146.25 151.96L146.25 164.39ZM75.85 157.86L75.85 164.83C75.6688 164.95 75.4691 165.092 75.25 165.25C74.38 165.878 73.5276 166.587 72.71 167.37C71.5652 168.467 70.5519 169.635 69.67 170.89C69.4314 171.23 69.2063 171.573 68.99 171.92L68.99 164.71L75.85 157.86ZM162.17 164.84L162.17 157.87L169.01 164.71L169.01 171.92C168.793 171.573 168.559 171.23 168.32 170.89C167.438 169.635 166.425 168.467 165.28 167.37C164.463 166.587 163.62 165.878 162.75 165.25C162.536 165.095 162.348 164.959 162.17 164.84ZM36.68 160.35L1.98 160.35L1.98 173.15L36.68 173.15L36.68 160.35ZM236.02 160.35L201.32 160.35L201.32 173.15L236.02 173.15L236.02 160.35ZM36.68 175.14L1.98 175.14L1.98 187.96L36.68 187.96L36.68 175.14ZM236.02 175.14L201.32 175.14L201.32 187.96L236.02 187.96L236.02 175.14ZM58.17 180.45L66.9 177.61L64.1 214.23L58.17 180.45ZM171.1 177.61L173.9 214.23L179.83 180.45L171.1 177.61ZM119 300.84L119.01 300.84L139.71 300.71L159.79 283.41L172.51 222.12L169.28 179.79L163.24 191.62C162.676 192.728 161.94 193.696 161.04 194.53C160.407 195.118 159.722 195.604 158.98 196C159.01 196.054 159.04 196.113 159.07 196.17C159.564 197.105 159.993 198.05 160.36 199C160.879 200.344 161.233 201.609 161.42 202.8C161.662 204.334 161.621 205.704 161.3 206.91L155.96 230.21C155.917 230.446 155.956 230.678 156.07 230.9C158.16 234.972 159.516 238.962 160.13 242.88C160.717 246.634 160.617 250.243 159.83 253.71C159.075 257.039 157.701 260.157 155.72 263.05C153.808 265.843 151.386 268.343 148.45 270.56C148.241 270.718 148.113 270.914 148.07 271.15L148.07 271.17L148.06 271.2L145.91 280.41L145.91 280.43C145.558 282.038 144.902 283.481 143.93 284.77C142.924 286.104 141.688 287.132 140.23 287.84L140.2 287.85L140.19 287.86L140.16 287.87L140.11 287.9C139.088 288.38 137.961 288.62 136.72 288.62L103.38 288.62C102.138 288.62 101.012 288.379 99.99 287.9L99.94 287.88L99.92 287.87L99.91 287.86L99.87 287.85C98.4119 287.141 97.1855 286.114 96.18 284.78C95.2075 283.49 94.5418 282.04 94.19 280.43L76.7 206.92C76.3774 205.712 76.3379 204.336 76.58 202.8C76.7679 201.609 77.1208 200.344 77.64 199C78.0067 198.05 78.436 197.105 78.93 196.17C78.9601 196.113 78.9909 196.054 79.02 196C78.2789 195.603 77.5936 195.118 76.96 194.53C76.0606 193.696 75.3252 192.728 74.76 191.62L68.72 179.79L65.49 222.12L78.22 283.41L98.29 300.71L119 300.84ZM62.44 221.8L63.36 221.5L56.27 181.07L55.3 181.39L62.44 221.8ZM175.56 221.8L182.7 181.39L181.73 181.07L174.63 221.5L175.56 221.8ZM53.4 182.01L47.13 184.05L37.63 204.58L44.43 223.42L54.65 224.35L60.54 222.43L53.4 182.01ZM183.35 224.35L177.46 222.43L184.6 182.01L190.87 184.05L200.37 204.58L193.57 223.42L183.35 224.35ZM36.68 189.95L1.98 189.95L1.98 202.75L36.29 202.75L36.68 201.9L36.68 189.95ZM236.02 189.95L201.32 189.95L201.32 201.9L201.31 201.9L201.71 202.75L236.02 202.75L236.02 189.95ZM103.38 286.63L136.72 286.63C137.652 286.63 138.493 286.454 139.24 286.11C139.289 286.083 139.339 286.062 139.39 286.04C140.551 285.471 141.532 284.653 142.34 283.58C143.139 282.519 143.69 281.319 143.98 279.99L143.98 279.98L146.13 270.77C146.198 270.413 146.332 270.072 146.53 269.76C146.723 269.454 146.967 269.192 147.26 268.97C150.024 266.883 152.3 264.535 154.09 261.92C155.928 259.236 157.191 256.352 157.89 253.27C158.62 250.051 158.719 246.692 158.17 243.19C157.59 239.484 156.301 235.691 154.31 231.81C154.153 231.506 154.051 231.179 154 230.84C153.949 230.495 153.956 230.158 154.02 229.82L154.02 229.8L154.03 229.78L159.37 206.45L159.38 206.43L159.38 206.41C159.632 205.473 159.658 204.373 159.46 203.11C159.294 202.058 158.978 200.933 158.51 199.72C158.171 198.843 157.777 197.966 157.32 197.1C157.255 196.976 157.19 196.858 157.13 196.75C157.05 196.771 156.969 196.792 156.89 196.81C157.282 197.613 157.626 198.427 157.92 199.25C158.376 200.53 158.679 201.746 158.83 202.9C159.024 204.385 158.963 205.73 158.64 206.93L158.63 206.93L152.67 229.59C152.618 229.885 152.682 230.158 152.86 230.41L152.86 230.42C155.034 233.585 156.542 237.001 157.39 240.66C158.222 244.254 158.36 247.828 157.8 251.39C157.23 255.011 155.979 258.353 154.05 261.41C152.033 264.607 149.396 267.288 146.14 269.46C145.914 269.611 145.773 269.804 145.72 270.04L145.72 270.05L143.26 280.44L143.26 280.45C142.966 281.618 142.384 282.65 141.52 283.54C140.806 284.278 139.925 284.894 138.87 285.39C138.013 285.794 137.101 286.092 136.13 286.29C135.309 286.457 134.581 286.527 133.96 286.5L119.01 286.5L119.01 284.52L134.03 284.52C134.492 284.542 135.059 284.476 135.73 284.34C136.545 284.174 137.316 283.926 138.03 283.59C138.867 283.197 139.553 282.724 140.1 282.16C140.715 281.527 141.132 280.79 141.34 279.97L143.78 269.61L143.79 269.6C143.873 269.23 144.027 268.883 144.25 268.57C144.464 268.268 144.727 268.01 145.04 267.8C148.062 265.785 150.503 263.299 152.37 260.34C154.153 257.515 155.312 254.43 155.84 251.08C156.361 247.773 156.235 244.453 155.46 241.11C154.67 237.698 153.26 234.508 151.23 231.55C150.99 231.206 150.828 230.83 150.74 230.42C150.652 230.006 150.648 229.594 150.73 229.18L150.73 229.15L150.74 229.12L156.72 206.42L156.72 206.41C156.975 205.463 157.021 204.385 156.86 203.16C156.727 202.147 156.459 201.067 156.05 199.92C155.754 199.092 155.406 198.269 155 197.46C154.903 197.266 154.812 197.093 154.73 196.94L137.01 196.93L119 197.01L100.99 196.93L83.27 196.94C83.1878 197.093 83.0972 197.266 83 197.46C82.5947 198.268 82.2454 199.092 81.95 199.92C81.541 201.067 81.2728 202.147 81.14 203.16C80.9797 204.385 81.025 205.463 81.28 206.41L81.28 206.43L81.29 206.44L98.78 279.97L98.79 279.98C98.9981 280.798 99.407 281.528 100.02 282.16C100.567 282.724 101.254 283.196 102.09 283.59C102.804 283.926 103.575 284.174 104.39 284.34C105.062 284.477 105.627 284.542 106.09 284.52L118.99 284.52L118.99 286.5L106.16 286.5C105.539 286.527 104.811 286.458 103.99 286.29C103.019 286.092 102.107 285.793 101.25 285.39C100.195 284.894 99.315 284.278 98.6 283.54C97.7363 282.649 97.1538 281.618 96.86 280.45L96.86 280.44L79.36 206.92C79.0395 205.722 78.9762 204.38 79.17 202.9C79.3212 201.746 79.6236 200.53 80.08 199.25C80.3734 198.428 80.7182 197.613 81.11 196.81C81.0305 196.792 80.9506 196.772 80.87 196.75C80.8105 196.859 80.7459 196.975 80.68 197.1C80.2224 197.966 79.8286 198.843 79.49 199.72C79.0217 200.933 78.7058 202.058 78.54 203.11C78.3409 204.373 78.3673 205.473 78.62 206.41L78.62 206.44L96.12 279.98L96.13 279.99L96.13 280C96.4194 281.329 96.9604 282.518 97.76 283.58C98.5681 284.653 99.5585 285.48 100.72 286.05C100.771 286.072 100.821 286.092 100.87 286.12C101.617 286.463 102.448 286.63 103.38 286.63ZM102.97 208.24C102.97 212.447 99.5681 215.86 95.37 215.86C91.1721 215.86 87.77 212.447 87.77 208.24C87.77 204.032 91.1721 200.62 95.37 200.62C99.5681 200.62 102.97 204.032 102.97 208.24ZM100.99 208.24C100.99 205.13 98.4724 202.61 95.37 202.61C92.2677 202.61 89.75 205.13 89.75 208.24C89.75 211.349 92.2677 213.87 95.37 213.87C98.4724 213.87 100.99 211.349 100.99 208.24ZM35.58 204.74L1.98 204.74L1.98 217.55L36.68 217.55L36.68 207.79L35.63 204.87L35.58 204.74ZM236.02 204.74L202.42 204.74L202.37 204.87L201.32 207.79L201.32 217.55L236.02 217.55L236.02 204.74ZM76.29 213.62C76.29 215.591 74.6873 217.19 72.72 217.19C70.7527 217.19 69.16 215.591 69.16 213.62C69.16 211.648 70.7527 210.04 72.72 210.04C74.6873 210.04 76.29 211.648 76.29 213.62ZM165.98 217.19C167.947 217.19 169.54 215.591 169.54 213.62C169.54 211.648 167.947 210.04 165.98 210.04C164.012 210.04 162.42 211.648 162.42 213.62C162.42 215.591 164.012 217.19 165.98 217.19ZM141.14 223.92C138.528 222.655 135.785 221.871 132.91 221.57L132.91 212.92C132.91 211.969 132.139 211.2 131.19 211.2L128.44 211.2C127.491 211.2 126.72 211.969 126.72 212.92L126.72 221.67C123.937 222.06 121.29 222.906 118.78 224.2C116.076 225.595 113.699 227.424 111.65 229.69C109.592 231.966 108.007 234.525 106.89 237.37C105.733 240.317 105.15 243.386 105.15 246.58C105.15 260.47 116.39 271.73 130.25 271.73C144.109 271.73 155.34 260.47 155.34 246.58C155.34 243.313 154.74 240.184 153.53 237.18C152.363 234.278 150.705 231.673 148.56 229.38C146.423 227.092 143.945 225.278 141.14 223.92ZM74.3 213.62C74.3 212.746 73.5918 212.03 72.72 212.03C71.8482 212.03 71.14 212.746 71.14 213.62C71.14 214.493 71.8482 215.2 72.72 215.2C73.5918 215.2 74.3 214.493 74.3 213.62ZM165.98 212.03C166.852 212.03 167.56 212.746 167.56 213.62C167.56 214.493 166.852 215.2 165.98 215.2C165.108 215.2 164.4 214.493 164.4 213.62C164.4 212.746 165.108 212.03 165.98 212.03ZM130.25 230.4C129.73 230.4 129.208 230.424 128.7 230.47L128.7 213.19L130.93 213.19L130.93 230.41C130.704 230.41 130.478 230.4 130.25 230.4ZM49.54 261.34L61 271.209L61 298.87L38.66 298.87L38.66 213.28L42.78 224.69L43 225.28L43.62 225.34L53.72 226.27L53.18 234.02L53.16 234.33L53.32 234.6L57.62 241.68L46.88 245.59L46.08 245.89L46.25 246.73L49.22 260.79L49.29 261.12L49.54 261.34ZM199.34 213.28L195.22 224.69L195 225.28L194.38 225.34L184.28 226.27L184.82 234.02L184.84 234.33L184.68 234.6L180.38 241.68L191.12 245.59L191.93 245.89L191.75 246.73L188.78 260.79L188.71 261.12L188.45 261.34L177 271.201L177 298.87L199.34 298.87L199.34 213.28ZM177 300.86L177 302.05L199.34 302.05L199.34 300.86L177 300.86ZM177 304.03L177 335.731L184.4 335.8L184.42 335.8C184.521 335.8 184.61 335.773 184.69 335.7L187.11 333.47L187.12 333.47L187.12 333.46C187.342 333.262 187.595 333.116 187.87 333.01C188.15 332.902 188.431 332.84 188.73 332.84L199.34 332.84L199.34 304.03L192 304.03L192 307.47L195.94 314.47C196.04 314.638 196.09 314.822 196.09 315.02C196.09 315.21 196.036 315.386 195.94 315.55C195.85 315.703 195.732 315.818 195.58 315.91C195.411 316.013 195.228 316.07 195.03 316.07L181.74 316.07C181.543 316.07 181.359 316.012 181.19 315.91C181.037 315.818 180.92 315.703 180.83 315.55C180.734 315.386 180.68 315.21 180.68 315.02C180.68 314.825 180.723 314.645 180.82 314.48L184.63 307.48L184.63 304.03L177 304.03ZM175 335.712L175 272.923L166.26 280.45L166.26 335.63L175 335.712ZM36.68 219.54L1.98 219.54L1.98 232.35L36.68 232.35L36.68 219.54ZM236.02 219.54L201.32 219.54L201.32 232.35L236.02 232.35L236.02 219.54ZM55.18 233.84L55.72 226.1L63.74 223.47L75.75 281.29L73.62 279.45L66.3 242.6L66.16 241.88L65.43 241.81L59.68 241.25L55.18 233.84ZM182.28 226.1L174.26 223.47L162.26 281.28L164.39 279.45L171.7 242.6L171.84 241.88L172.58 241.81L178.32 241.25L182.82 233.84L182.28 226.1ZM147.36 247.56C147.36 238.993 141.099 231.892 132.91 230.61L132.91 223.57C135.481 223.863 137.939 224.577 140.28 225.71C142.864 226.961 145.14 228.633 147.11 230.74C149.086 232.853 150.614 235.248 151.69 237.92C152.803 240.687 153.36 243.571 153.36 246.58C153.36 259.373 143.013 269.75 130.25 269.75C117.486 269.75 107.14 259.373 107.14 246.58C107.14 243.637 107.665 240.812 108.73 238.1C109.759 235.479 111.224 233.127 113.12 231.03C115.008 228.942 117.199 227.255 119.69 225.97C121.917 224.822 124.259 224.055 126.72 223.68L126.72 230.77C118.958 232.398 113.13 239.296 113.13 247.56C113.13 257.036 120.795 264.72 130.25 264.72C139.704 264.72 147.36 257.036 147.36 247.56ZM145.38 247.56C145.38 239.182 138.609 232.39 130.25 232.39C121.891 232.39 115.11 239.182 115.11 247.56C115.11 255.938 121.891 262.73 130.25 262.73C138.609 262.73 145.38 255.938 145.38 247.56ZM1.98 247.16L1.98 234.34L36.68 234.34L36.68 247.16L1.98 247.16ZM236.02 234.34L201.32 234.34L201.32 247.16L236.02 247.16L236.02 234.34ZM82.36 243.32C82.36 245.291 80.7673 246.89 78.8 246.89C76.8327 246.89 75.23 245.291 75.23 243.32C75.23 241.348 76.8327 239.75 78.8 239.75C80.7673 239.75 82.36 241.348 82.36 243.32ZM80.37 243.32C80.37 242.446 79.6718 241.74 78.8 241.74C77.9282 241.74 77.22 242.446 77.22 243.32C77.22 244.193 77.9282 244.9 78.8 244.9C79.6718 244.9 80.37 244.193 80.37 243.32ZM59.23 243.21L48.37 247.16L51.09 260.05L71.18 277.35L64.5 243.72L59.23 243.21ZM186.91 260.05L166.83 277.35L173.5 243.72L178.77 243.21L189.63 247.16L186.91 260.05ZM1.98 249.14L36.68 249.14L36.68 261.95L1.98 261.95L1.98 249.14ZM236.02 249.14L201.32 249.14L201.32 261.95L236.02 261.95L236.02 249.14ZM1.98 263.94L36.68 263.94L36.68 276.75L1.98 276.75L1.98 263.94ZM236.02 263.94L201.32 263.94L201.32 276.75L236.02 276.75L236.02 263.94ZM88.76 271.83C88.76 273.801 87.1673 275.4 85.2 275.4C83.2327 275.4 81.64 273.801 81.64 271.83C81.64 269.858 83.2327 268.26 85.2 268.26C87.1673 268.26 88.76 269.858 88.76 271.83ZM153.5 275.4C155.467 275.4 157.06 273.801 157.06 271.83C157.06 269.858 155.467 268.26 153.5 268.26C151.532 268.26 149.94 269.858 149.94 271.83C149.94 273.801 151.532 275.4 153.5 275.4ZM86.78 271.83C86.78 270.956 86.0718 270.25 85.2 270.25C84.3283 270.25 83.62 270.956 83.62 271.83C83.62 272.704 84.3283 273.42 85.2 273.42C86.0718 273.42 86.78 272.704 86.78 271.83ZM153.5 270.25C154.372 270.25 155.08 270.956 155.08 271.83C155.08 272.704 154.372 273.42 153.5 273.42C152.628 273.42 151.92 272.704 151.92 271.83C151.92 270.956 152.628 270.25 153.5 270.25ZM63 335.712L63 272.932L71.73 280.45L71.73 335.63L63 335.712ZM1.98 278.74L36.68 278.74L36.68 291.55L1.98 291.55L1.98 278.74ZM236.02 278.74L201.32 278.74L201.32 291.55L236.02 291.55L236.02 278.74ZM73.71 282.16L75.62 283.8L75.62 335.49L73.71 335.49L73.71 282.16ZM162.38 283.8L162.38 335.49L164.28 335.49L164.28 282.16L162.38 283.8ZM84.21 335.5L84.21 291.2L77.6 285.51L77.6 335.57L84.21 335.5ZM153.79 291.2L153.79 335.5L160.39 335.57L160.39 285.51L153.79 291.2ZM86.19 335.48L88.09 335.47L88.09 294.55L86.19 292.91L86.19 335.48ZM149.9 294.55L149.9 335.47L151.81 335.48L151.81 292.91L149.9 294.55ZM1.98 293.54L36.68 293.54L36.68 306.35L1.98 306.35L1.98 293.54ZM236.02 293.54L201.32 293.54L201.32 306.35L236.02 306.35L236.02 293.54ZM96.69 335.38L90.08 335.45L90.08 296.25L96.69 301.95L96.69 335.38ZM147.92 335.45L141.31 335.38L141.31 301.95L147.92 296.26L147.92 335.45ZM61 300.86L61 302.05L38.66 302.05L38.66 300.86L61 300.86ZM119 336.76L119.02 335.16L123 335.2L123 302.8L119.01 302.82L119 301.36L118.99 302.82L115 302.8L115 335.2L118.99 335.16L119 336.76ZM98.68 335.35L98.68 302.7L100.57 302.71L100.57 335.34L99.45 335.35L98.68 335.35ZM137.43 302.71L139.32 302.7L139.32 335.35L138.55 335.35L137.43 335.34L137.43 302.71ZM102.55 335.32L102.55 302.72L109.13 302.76L109.13 335.26L102.55 335.32ZM135.45 302.72L135.45 335.32L128.87 335.26L128.87 302.76L135.45 302.72ZM111.12 335.22L111.12 302.77L113.02 302.79L113.02 335.22L111.12 335.22ZM124.98 302.79L126.88 302.77L126.88 335.22L124.98 335.22L124.98 302.79ZM61 304.03L61 335.731L53.6 335.8L53.59 335.8C53.4891 335.8 53.4004 335.774 53.32 335.7L50.89 333.47L50.88 333.46C50.6579 333.262 50.4151 333.117 50.14 333.01C49.8603 332.902 49.5689 332.84 49.27 332.84L38.66 332.84L38.66 304.03L46 304.03L46 307.47L42.06 314.47C41.9594 314.638 41.91 314.822 41.91 315.02C41.91 315.21 41.9636 315.386 42.06 315.55C42.1506 315.703 42.2778 315.818 42.43 315.91C42.5989 316.013 42.7725 316.07 42.97 316.07L56.26 316.07C56.4574 316.07 56.6411 316.012 56.81 315.91C56.9621 315.818 57.0794 315.703 57.17 315.55C57.2665 315.386 57.32 315.21 57.32 315.02C57.32 314.825 57.2768 314.645 57.18 314.48L53.37 307.48L53.37 304.03L61 304.03ZM51.39 304.03L51.39 307.98L51.51 308.2L54.7 314.08L44.56 314.08L47.86 308.22L47.98 307.99L47.98 304.03L51.39 304.03ZM186.61 304.03L186.61 307.98L186.49 308.2L183.3 314.08L193.45 314.08L190.15 308.22L190.02 307.99L190.02 304.03L186.61 304.03ZM1.98 308.34L36.68 308.34L36.68 321.15L1.98 321.15L1.98 308.34ZM236.02 308.34L201.32 308.34L201.32 321.15L236.02 321.15L236.02 308.34ZM1.98 323.14L36.68 323.14L36.68 336.54L1.98 336.54L1.98 323.14ZM236.02 323.14L201.32 323.14L201.32 336.54L236.02 336.54L236.02 323.14ZM199.34 334.83L188.73 334.83C188.622 334.83 188.526 334.874 188.44 334.95L186.03 337.16C185.805 337.367 185.544 337.532 185.26 337.64C184.976 337.749 184.692 337.79 184.39 337.79L184.37 337.79L152.8 337.48L147.92 337.48L147.92 337.43L138.54 337.34L135.45 337.34L135.45 337.31L124.75 337.21L123 337.21L123 337.19L119.01 337.15L119 337.15L115 337.19L115 337.21L113.25 337.21L102.55 337.31L102.55 337.34L99.46 337.34L90.08 337.43L90.08 337.48L85.2 337.48L53.63 337.79L53.62 337.79C53.317 337.79 53.0254 337.749 52.74 337.64C52.456 337.532 52.2051 337.367 51.98 337.16L49.56 334.95C49.4735 334.874 49.3779 334.83 49.27 334.83L38.66 334.83L38.66 335.05L47.86 335.05C48.1589 335.05 48.4503 335.102 48.73 335.21C49.0051 335.317 49.2479 335.472 49.47 335.67L49.48 335.68L51.91 337.9C51.9904 337.975 52.0791 338.01 52.18 338.01L52.19 338.01L118.99 337.37L119 338L119.02 337.37L185.81 338.01L185.83 338.01C185.93 338.01 186.021 337.974 186.1 337.9L188.52 335.68L188.53 335.68L188.53 335.67C188.752 335.471 189.004 335.316 189.28 335.21C189.56 335.102 189.841 335.05 190.14 335.05L199.34 335.05L199.34 334.83Z" fill-rule="evenodd"  fill="url(#linear_fill_7_1685)" ></path><defs><linearGradient id="linear_fill_7_1685" x1="119" y1="340" x2="119" y2="0" gradientUnits="userSpaceOnUse"><stop offset="0" stop-color="#0072FF"  /><stop offset="1" stop-color="#00C8FF"  /></linearGradient></defs></svg>