<svg xmlns="http://www.w3.org/2000/svg" xmlns:xlink="http://www.w3.org/1999/xlink" width="88" height="88" viewBox="0 0 88 88" fill="none"><ellipse cx="43.99998474121094" cy="44" rx="43.99998474121094" ry="44"   fill="#EDF5FF" ></ellipse><circle  cx="44" cy="44" r="33"    fill="#EDF5FF" ></circle><path fill-rule="evenodd"  fill="rgba(0, 16, 36, 1)"  d="M44 77C62.2254 77 77 62.2254 77 44C77 25.7746 62.2254 11 44 11C25.7746 11 11 25.7746 11 44C11 62.2254 25.7746 77 44 77ZM44 13C61.1208 13 75 26.8792 75 44C75 61.1208 61.1208 75 44 75C26.8792 75 13 61.1208 13 44C13 26.8792 26.8792 13 44 13Z"></path></svg>