<svg xmlns="http://www.w3.org/2000/svg" xmlns:xlink="http://www.w3.org/1999/xlink" width="46" height="46" viewBox="0 0 46 46" fill="none"><path d="M44.5977 21.62L43.1264 21.62C42.7356 16.606 40.8045 12.282 37.2644 8.74C33.7242 5.198 29.4023 3.266 24.3678 2.852L24.3678 1.38C24.3678 0.805 24.023 0.322 23.5173 0.115C23.4253 0.069 23.3103 0.069 23.1955 0.046C23.1265 0.046 23.0575 0 22.9885 0C22.7586 0 22.5517 0.069 22.3678 0.161C21.931 0.391 21.6322 0.828 21.6322 1.357L21.6322 2.829C16.6207 3.243 12.2989 5.152 8.75863 8.694C5.1954 12.236 3.26437 16.56 2.85057 21.62L1.65517 21.62C0.735632 21.62 0 22.241 0 23C0 23.759 0.735632 24.38 1.65517 24.38L2.87357 24.38C3.28737 29.417 5.2184 33.718 8.75863 37.237C12.2989 40.779 16.6207 42.711 21.6322 43.102L21.6322 44.62C21.6322 45.218 22.023 45.724 22.5747 45.908C22.5977 45.908 22.6207 45.931 22.6437 45.954L22.7816 45.954C22.8506 45.954 22.9195 46 23.0115 46C23.1035 46 23.1495 45.977 23.2413 45.954L23.3793 45.954C23.4023 45.954 23.4253 45.931 23.4483 45.908C24 45.724 24.3908 45.218 24.3908 44.62L24.3908 43.102C29.4023 42.711 33.7242 40.779 37.2644 37.237C40.8045 33.695 42.7586 29.371 43.1494 24.357L44.6207 24.357C45.3792 24.357 46 23.736 46 22.977C46 22.218 45.3792 21.597 44.6207 21.597L44.5977 21.62ZM21.6322 5.612L21.6322 8.188C13.954 9.49899 9.49426 13.961 8.1839 21.643L5.60919 21.643C6.06896 13.386 13.1034 6.141 21.6322 5.612ZM40.4367 21.62L37.8391 21.62C36.5288 13.961 32.0689 9.49899 24.3908 8.165L24.3908 5.612C32.3909 6.003 39.862 12.834 40.4367 21.62ZM19.8161 36.179C20.6628 37.1406 21.6689 37.783 22.9932 37.8571C23.4285 37.7655 23.8634 37.6965 24.2528 37.559C25.4713 37.122 26.2759 36.202 26.9424 35.144C27.977 33.465 28.5977 31.602 28.9885 29.67C29.0805 29.233 29.2873 29.095 29.701 28.98C31.0803 28.589 32.4597 28.152 33.816 27.646C34.8965 27.255 35.816 26.588 36.6206 25.76C38.0919 24.219 38.2069 22.241 36.9196 20.585C36.2758 19.757 35.4253 19.159 34.5057 18.676C32.9654 17.848 31.3103 17.319 29.6093 16.974C29.2643 16.905 29.1035 16.767 29.0115 16.399C28.8045 15.479 28.5747 14.559 28.276 13.685C27.7242 12.098 27.0114 10.557 25.7471 9.361C24.2298 7.935 22.2299 7.774 20.6207 9.085C20 9.59099 19.4713 10.235 19.0345 10.902C17.954 12.558 17.3793 14.421 16.9885 16.33C16.8966 16.767 16.6896 16.905 16.2759 17.02C14.8965 17.411 13.5172 17.848 12.1609 18.354C11.0805 18.745 10.1609 19.412 9.35633 20.24C7.88506 21.781 7.77011 23.759 9.05746 25.415C9.70114 26.243 10.5517 26.841 11.4713 27.324C13.0115 28.152 14.6667 28.681 16.3678 29.026C16.7126 29.095 16.8736 29.233 16.9655 29.601C17.1724 30.498 17.4023 31.395 17.7011 32.269C18.1839 33.672 18.8046 35.029 19.8161 36.179ZM25.6781 14.122C25.9486 14.8434 26.1526 15.5868 26.3987 16.3524C25.2547 16.3064 24.1562 16.238 23.0805 16.238C22 16.238 20.9425 16.33 19.7701 16.376C20.023 15.617 20.2069 14.881 20.4827 14.168C20.8505 13.179 21.2873 12.213 22.046 11.431C22.7816 10.695 23.3793 10.695 24.115 11.431C24.8736 12.19 25.3103 13.133 25.6781 14.122ZM26.3987 16.3524C26.4038 16.3679 26.4088 16.3834 26.4139 16.399L26.4139 16.353L26.3987 16.3524ZM26.9426 26.404C26.8966 26.703 26.8046 26.841 26.5059 26.841C25.3793 26.91 24.253 27.002 23.1035 27.071C21.9771 27.002 20.8277 26.91 19.7012 26.841C19.3794 26.818 19.2645 26.68 19.2415 26.381C19.0116 24.127 19.0116 21.873 19.2415 19.619C19.2874 19.32 19.3794 19.182 19.7012 19.159C21.9771 18.906 24.23 18.906 26.5059 19.159C26.8046 19.182 26.9196 19.297 26.9426 19.596C27.1954 21.873 27.1954 24.127 26.9426 26.404ZM11.5402 24.058C10.7586 23.322 10.7586 22.678 11.5402 21.965L11.5172 21.965C11.954 21.574 12.4597 21.183 12.9885 20.953C14.1149 20.47 15.2643 20.056 16.4137 19.619L16.4137 26.289C14.6896 25.829 12.9425 25.323 11.5402 24.058ZM34.5977 21.942C35.4255 22.678 35.4255 23.322 34.5977 24.058L34.5747 24.081C34.138 24.472 33.6324 24.84 33.1037 25.07C32.0001 25.553 30.8738 25.944 29.7243 26.381L29.7243 19.711C31.4483 20.194 33.1954 20.677 34.5977 21.942ZM24.3678 40.411L24.3678 37.812C31.9999 36.524 36.4598 32.062 37.8161 24.38L40.3677 24.38C40.115 31.717 33.7472 39.721 24.3678 40.411ZM21.6092 40.388C13.7241 40.02 6.18392 33.304 5.56321 24.403L8.16092 24.403C9.49426 32.039 13.931 36.501 21.6092 37.835L21.6092 40.388ZM19.7011 29.647C20.1379 30.797 20.5287 31.947 21.0344 33.051C21.2643 33.58 21.6551 34.086 22.0459 34.523C22.7586 35.328 23.4023 35.305 24.1378 34.523C24.9426 33.695 25.3793 32.683 25.7701 31.625C25.9999 30.958 26.1839 30.291 26.3906 29.647L19.7011 29.647Z" fill-rule="evenodd"  fill="#EDF5FF" ></path></svg>
