<svg xmlns="http://www.w3.org/2000/svg" xmlns:xlink="http://www.w3.org/1999/xlink" width="52" height="34.308" viewBox="430 210.837 52 34.308" fill="none"><path d="M433.642 223.567C438.87 217.533 446.25 214.108 455.526 213.019C457.053 212.837 458.394 213.994 458.394 215.491L458.394 240.513C458.394 241.988 457.076 243.145 455.572 242.986C445.671 241.897 437.783 238.585 433.156 231.779C432.393 230.668 432 229.329 432 227.991C432 226.38 432.578 224.792 433.642 223.567ZM447.291 234.955C448.956 234.955 450.298 234.57 451.339 233.821L451.385 233.798C452.426 233.05 452.935 232.074 452.935 230.849C452.935 230.123 452.773 229.488 452.426 228.989C452.079 228.467 451.57 228.036 450.876 227.673C450.182 227.31 449.234 227.016 448.008 226.743C446.782 226.494 445.972 226.222 445.579 225.972C445.186 225.722 444.977 225.359 444.977 224.883C444.977 224.361 445.186 223.953 445.625 223.635C446.065 223.341 446.62 223.182 447.291 223.182C448.008 223.182 448.609 223.386 449.049 223.772C449.488 224.157 449.72 224.634 449.72 225.223L452.819 225.223C452.819 223.953 452.311 222.909 451.293 222.116C450.275 221.322 448.933 220.913 447.291 220.913C445.741 220.913 444.445 221.299 443.451 222.093C442.456 222.864 441.947 223.862 441.947 225.019C441.947 226.426 442.71 227.492 444.26 228.218C444.954 228.535 445.833 228.83 446.897 229.035C447.962 229.239 448.702 229.488 449.164 229.783C449.627 230.078 449.858 230.486 449.858 231.031C449.858 231.53 449.627 231.938 449.211 232.233C448.771 232.528 448.193 232.687 447.337 232.687C446.481 232.687 445.81 232.483 445.301 232.097C444.792 231.711 444.515 231.167 444.469 230.441L441.461 230.441C441.461 231.258 441.716 232.006 442.201 232.709C442.687 233.413 443.381 233.957 444.26 234.366C445.162 234.751 446.157 234.955 447.291 234.955ZM478.265 225.564L464.2 225.564C464.144 225.564 464.087 225.561 464.03 225.555C463.974 225.55 463.918 225.542 463.862 225.531C463.806 225.52 463.751 225.507 463.697 225.49C463.642 225.474 463.589 225.455 463.536 225.434C463.484 225.413 463.433 225.389 463.383 225.363C463.332 225.336 463.284 225.308 463.236 225.277C463.189 225.246 463.144 225.213 463.1 225.177C463.056 225.142 463.014 225.105 462.974 225.065C462.933 225.026 462.895 224.985 462.859 224.942C462.823 224.898 462.789 224.854 462.758 224.807C462.726 224.761 462.697 224.713 462.67 224.664C462.644 224.615 462.619 224.565 462.598 224.513C462.576 224.462 462.557 224.409 462.54 224.356C462.524 224.303 462.51 224.249 462.499 224.194C462.488 224.14 462.479 224.084 462.474 224.029C462.468 223.974 462.465 223.918 462.465 223.862C462.465 223.807 462.468 223.751 462.474 223.696C462.479 223.64 462.488 223.585 462.499 223.53C462.51 223.476 462.524 223.422 462.54 223.368C462.557 223.315 462.576 223.263 462.598 223.211C462.619 223.16 462.644 223.109 462.67 223.06C462.697 223.011 462.726 222.963 462.758 222.917C462.789 222.871 462.823 222.826 462.859 222.783C462.895 222.74 462.933 222.699 462.974 222.659C463.014 222.62 463.056 222.582 463.1 222.547C463.144 222.512 463.189 222.479 463.236 222.448C463.284 222.417 463.332 222.388 463.383 222.362C463.433 222.335 463.484 222.312 463.536 222.29C463.589 222.269 463.642 222.25 463.697 222.234C463.751 222.218 463.806 222.204 463.862 222.194C463.918 222.183 463.974 222.175 464.03 222.169C464.087 222.164 464.144 222.161 464.2 222.161L478.265 222.161C478.322 222.161 478.379 222.164 478.435 222.169C478.492 222.175 478.548 222.183 478.603 222.194C478.659 222.204 478.714 222.218 478.769 222.234C478.823 222.25 478.876 222.269 478.929 222.29C478.981 222.312 479.033 222.335 479.083 222.362C479.133 222.388 479.182 222.417 479.229 222.448C479.276 222.479 479.322 222.512 479.366 222.547C479.41 222.582 479.452 222.62 479.492 222.659C479.532 222.699 479.57 222.74 479.606 222.783C479.642 222.826 479.676 222.871 479.708 222.917C479.739 222.963 479.768 223.011 479.795 223.06C479.822 223.109 479.846 223.16 479.868 223.211C479.89 223.263 479.909 223.315 479.925 223.368C479.942 223.422 479.956 223.476 479.967 223.53C479.978 223.585 479.986 223.64 479.992 223.696C479.997 223.751 480 223.807 480 223.862C480 223.918 479.997 223.974 479.992 224.029C479.986 224.084 479.978 224.14 479.967 224.194C479.956 224.249 479.942 224.303 479.925 224.356C479.909 224.409 479.89 224.462 479.868 224.513C479.846 224.565 479.822 224.615 479.795 224.664C479.768 224.713 479.739 224.761 479.708 224.807C479.676 224.854 479.642 224.898 479.606 224.942C479.57 224.985 479.532 225.026 479.492 225.065C479.452 225.105 479.41 225.142 479.366 225.177C479.322 225.213 479.276 225.246 479.229 225.277C479.182 225.308 479.133 225.336 479.083 225.363C479.033 225.389 478.981 225.413 478.929 225.434C478.876 225.455 478.823 225.474 478.769 225.49C478.714 225.507 478.659 225.52 478.603 225.531C478.548 225.542 478.492 225.55 478.435 225.555C478.379 225.561 478.322 225.564 478.265 225.564ZM466.01 230.068L466.019 230.074L476.781 238.929L476.79 238.938C477.169 239.25 477.41 239.718 477.41 240.241C477.41 241.181 476.633 241.942 475.675 241.942C475.251 241.942 474.862 241.793 474.56 241.544L474.552 241.537L463.79 232.682L463.78 232.674C463.401 232.362 463.16 231.894 463.16 231.371C463.16 230.431 463.937 229.67 464.895 229.67C465.32 229.67 465.709 229.819 466.01 230.068Z" fill-rule="evenodd" fill="#7DA2CE" /><defs><filter id="filter_23_42" x="0" y="0" width="1920" height="121" filterUnits="userSpaceOnUse" color-interpolation-filters="sRGB"><feFlood flood-opacity="0" result="feFloodId_23_42" /><feColorMatrix in="SourceAlpha" type="matrix" values="0 0 0 0 0 0 0 0 0 0 0 0 0 0 0 0 0 0 127 0" result="hardAlpha_23_42" /><feOffset dx="0" dy="1" /><feComposite in2="hardAlpha_23_42" operator="out" /><feColorMatrix type="matrix" values="0 0 0 0 0.27450980392156865 0 0 0 0 0.36470588235294116 0 0 0 0 0.47843137254901963 0 0 0 1 0" /><feBlend mode="normal" in2="feFloodId_23_42" result="dropShadow_1_23_42" /><feBlend mode="normal" in="SourceGraphic" in2="dropShadow_1_23_42" result="shape_23_42" /></filter><filter id="filter_6_7686" x="1017.999999682108" y="436.9999996821084" width="48.00000063578409" height="18.00000063578318" filterUnits="userSpaceOnUse" color-interpolation-filters="sRGB"><feFlood flood-opacity="0" result="feFloodId_6_7686" /><feColorMatrix in="SourceAlpha" type="matrix" values="0 0 0 0 0 0 0 0 0 0 0 0 0 0 0 0 0 0 127 0" result="hardAlpha_6_7686" /><feOffset dx="0" dy="0" /><feGaussianBlur stdDeviation="3.000000158945795" /><feComposite in2="hardAlpha_6_7686" operator="out" /><feColorMatrix type="matrix" values="0 0 0 0 0 0 0 0 0 0.4470588235294118 0 0 0 0 1 0 0 0 1 0" /><feBlend mode="normal" in2="feFloodId_6_7686" result="dropShadow_1_6_7686" /><feBlend mode="normal" in="SourceGraphic" in2="dropShadow_1_6_7686" result="shape_6_7686" /></filter><filter id="filter_6_7690" x="922" y="422" width="48" height="48" filterUnits="userSpaceOnUse" color-interpolation-filters="sRGB"><feFlood flood-opacity="0" result="feFloodId_6_7690" /><feColorMatrix in="SourceAlpha" type="matrix" values="0 0 0 0 0 0 0 0 0 0 0 0 0 0 0 0 0 0 127 0" result="hardAlpha_6_7690" /><feOffset dx="0" dy="0" /><feGaussianBlur stdDeviation="3" /><feComposite in2="hardAlpha_6_7690" operator="out" /><feColorMatrix type="matrix" values="0 0 0 0 0 0 0 0 0 0.4470588235294118 0 0 0 0 1 0 0 0 1 0" /><feBlend mode="normal" in2="feFloodId_6_7690" result="dropShadow_1_6_7690" /><feBlend mode="normal" in="SourceGraphic" in2="dropShadow_1_6_7690" result="shape_6_7690" /></filter><linearGradient id="linear_fill_4_1419_0" x1="1468" y1="334" x2="1468" y2="294" gradientUnits="userSpaceOnUse"><stop offset="0" stop-color="#0072FF" /><stop offset="1" stop-color="#00C8FF" /></linearGradient><filter id="filter_4_1419" x="1446" y="294" width="43.998046875" height="43.998046875" filterUnits="userSpaceOnUse" color-interpolation-filters="sRGB"><feFlood flood-opacity="0" result="feFloodId_4_1419" /><feColorMatrix in="SourceAlpha" type="matrix" values="0 0 0 0 0 0 0 0 0 0 0 0 0 0 0 0 0 0 127 0" result="hardAlpha_4_1419" /><feOffset dx="0" dy="2" /><feGaussianBlur stdDeviation="1" /><feComposite in2="hardAlpha_4_1419" operator="out" /><feColorMatrix type="matrix" values="0 0 0 0 0 0 0 0 0 0 0 0 0 0 0 0 0 0 0.5 0" /><feBlend mode="normal" in2="feFloodId_4_1419" result="dropShadow_1_4_1419" /><feBlend mode="normal" in="SourceGraphic" in2="dropShadow_1_4_1419" result="shape_4_1419" /></filter><filter id="filter_4_1420" x="1453.99951171875" y="301.99993896484375" width="28" height="27.9990234375" filterUnits="userSpaceOnUse" color-interpolation-filters="sRGB"><feFlood flood-opacity="0" result="feFloodId_4_1420" /><feColorMatrix in="SourceAlpha" type="matrix" values="0 0 0 0 0 0 0 0 0 0 0 0 0 0 0 0 0 0 127 0" result="hardAlpha_4_1420" /><feOffset dx="0" dy="2" /><feGaussianBlur stdDeviation="2" /><feComposite in2="hardAlpha_4_1420" operator="out" /><feColorMatrix type="matrix" values="0 0 0 0 0 0 0 0 0 0.4470588235294118 0 0 0 0 1 0 0 0 1 0" /><feBlend mode="normal" in2="feFloodId_4_1420" result="dropShadow_1_4_1420" /><feBlend mode="normal" in="SourceGraphic" in2="dropShadow_1_4_1420" result="shape_4_1420" /></filter><linearGradient id="linear_fill_2_2195_0" x1="1608" y1="334" x2="1608" y2="294" gradientUnits="userSpaceOnUse"><stop offset="0" stop-color="#0072FF" /><stop offset="1" stop-color="#00C8FF" /></linearGradient><filter id="filter_2_2195" x="1548.001953125" y="292" width="43.998046875" height="43.998046875" filterUnits="userSpaceOnUse" color-interpolation-filters="sRGB"><feFlood flood-opacity="0" result="feFloodId_2_2195" /><feColorMatrix in="SourceAlpha" type="matrix" values="0 0 0 0 0 0 0 0 0 0 0 0 0 0 0 0 0 0 127 0" result="hardAlpha_2_2195" /><feOffset dx="2" dy="0" /><feGaussianBlur stdDeviation="1" /><feComposite in2="hardAlpha_2_2195" operator="out" /><feColorMatrix type="matrix" values="0 0 0 0 0 0 0 0 0 0 0 0 0 0 0 0 0 0 0.5 0" /><feBlend mode="normal" in2="feFloodId_2_2195" result="dropShadow_1_2_2195" /><feBlend mode="normal" in="SourceGraphic" in2="dropShadow_1_2_2195" result="shape_2_2195" /></filter><filter id="filter_2_2196" x="1554.00048828125" y="301.99993896484375" width="27.9990234375" height="28" filterUnits="userSpaceOnUse" color-interpolation-filters="sRGB"><feFlood flood-opacity="0" result="feFloodId_2_2196" /><feColorMatrix in="SourceAlpha" type="matrix" values="0 0 0 0 0 0 0 0 0 0 0 0 0 0 0 0 0 0 127 0" result="hardAlpha_2_2196" /><feOffset dx="0" dy="2" /><feGaussianBlur stdDeviation="2" /><feComposite in2="hardAlpha_2_2196" operator="out" /><feColorMatrix type="matrix" values="0 0 0 0 0 0 0 0 0 0.4470588235294118 0 0 0 0 1 0 0 0 1 0" /><feBlend mode="normal" in2="feFloodId_2_2196" result="dropShadow_1_2_2196" /><feBlend mode="normal" in="SourceGraphic" in2="dropShadow_1_2_2196" result="shape_2_2196" /></filter><linearGradient id="linear_fill_3zR3iDLegKgKmshlGodIa" x1="1560" y1="432" x2="1560" y2="460.00006103515625" gradientUnits="userSpaceOnUse"><stop offset="0" stop-color="#EDF5FF" /><stop offset="1" stop-color="#92C3FF" /></linearGradient><linearGradient id="linear_fill_esC89JAD-pbNi9UHjxqZK" x1="224" y1="293" x2="224" y2="335" gradientUnits="userSpaceOnUse"><stop offset="0" stop-color="#EDF5FF" /><stop offset="1" stop-color="#92C3FF" /></linearGradient><linearGradient id="linear_fill_fQk8cYB63cZNgccwALJlu" x1="108" y1="291" x2="108" y2="337" gradientUnits="userSpaceOnUse"><stop offset="0" stop-color="#EDF5FF" /><stop offset="1" stop-color="#92C3FF" /></linearGradient><mask id="mask-1_853" style="mask-type:alpha" maskUnits="userSpaceOnUse"><path d="M168.952 918L82.4428 822.601C79.1857 819.361 79.1857 814.047 82.4428 810.676L166.346 718L278 718L278 917.87L168.952 917.87L168.952 918Z" fill="#000000" /></mask><linearGradient id="linear_fill_1_855" x1="282.07275390625" y1="818.0653381347656" x2="76.05859375" y2="818.0653381347656" gradientUnits="userSpaceOnUse"><stop offset="0" stop-color="#FFFFFF" stop-opacity="0" /><stop offset="0.6" stop-color="#FFFFFF" stop-opacity="0" /><stop offset="0.8" stop-color="#FFFFFF" stop-opacity="0.05" /><stop offset="1" stop-color="#FFFFFF" stop-opacity="0.25" /></linearGradient><linearGradient id="linear_border_1_856_0" x1="279.38818359375" y1="818.0653991699219" x2="78.74365234375" y2="818.0653991699219" gradientUnits="userSpaceOnUse"><stop offset="0" stop-color="#FFFFFF" stop-opacity="0" /><stop offset="0.6" stop-color="#FFFFFF" stop-opacity="0" /><stop offset="1" stop-color="#FFFFFF" stop-opacity="0.75" /></linearGradient><linearGradient id="linear_border_1_857" x1="262.60888671875" y1="818.0008544921875" x2="99.38134765625" y2="818.0008544921875" gradientUnits="userSpaceOnUse"><stop offset="0" stop-color="#FFFFFF" stop-opacity="0" /><stop offset="0.65" stop-color="#FFFFFF" stop-opacity="0" /><stop offset="1" stop-color="#FFFFFF" stop-opacity="0.75" /></linearGradient><mask id="mask-1_863" style="mask-type:alpha" maskUnits="userSpaceOnUse"><path d="M403.048 718L489.557 813.399C492.814 816.639 492.814 821.953 489.557 825.323L405.654 918L294 918L294 718.13L403.048 718.13L403.048 718Z" fill="#000000" /></mask><linearGradient id="linear_fill_1_865" x1="289.927734375" y1="817.9339599609375" x2="495.94189453125" y2="817.9339599609375" gradientUnits="userSpaceOnUse"><stop offset="0" stop-color="#FFFFFF" stop-opacity="0" /><stop offset="0.6" stop-color="#FFFFFF" stop-opacity="0" /><stop offset="0.8" stop-color="#FFFFFF" stop-opacity="0.05" /><stop offset="1" stop-color="#FFFFFF" stop-opacity="0.25" /></linearGradient><linearGradient id="linear_border_1_866_0" x1="292.61181640625" y1="817.9344177246094" x2="493.25634765625" y2="817.9344177246094" gradientUnits="userSpaceOnUse"><stop offset="0" stop-color="#FFFFFF" stop-opacity="0" /><stop offset="0.6" stop-color="#FFFFFF" stop-opacity="0" /><stop offset="1" stop-color="#FFFFFF" stop-opacity="0.75" /></linearGradient><linearGradient id="linear_border_1_867" x1="309.3916015625" y1="817.9984741210938" x2="472.619140625" y2="817.9984741210938" gradientUnits="userSpaceOnUse"><stop offset="0" stop-color="#FFFFFF" stop-opacity="0" /><stop offset="0.65" stop-color="#FFFFFF" stop-opacity="0" /><stop offset="1" stop-color="#FFFFFF" stop-opacity="0.75" /></linearGradient><mask id="mask-1_905" style="mask-type:alpha" maskUnits="userSpaceOnUse"><path d="M168.952 1150L82.4428 1054.6C79.1857 1051.36 79.1857 1046.05 82.4428 1042.68L166.346 950L278 950L278 1149.87L168.952 1149.87L168.952 1150Z" fill="#000000" /></mask><linearGradient id="linear_fill_1_907" x1="282.07275390625" y1="1050.0653839111328" x2="76.05859375" y2="1050.0653839111328" gradientUnits="userSpaceOnUse"><stop offset="0" stop-color="#FFFFFF" stop-opacity="0" /><stop offset="0.6" stop-color="#FFFFFF" stop-opacity="0" /><stop offset="0.8" stop-color="#FFFFFF" stop-opacity="0.1" /><stop offset="1" stop-color="#FFFFFF" /></linearGradient><linearGradient id="linear_border_1_908_0" x1="279.38818359375" y1="1050.0654296875" x2="78.74365234375" y2="1050.0654296875" gradientUnits="userSpaceOnUse"><stop offset="0" stop-color="#FFFFFF" stop-opacity="0" /><stop offset="0.6" stop-color="#FFFFFF" stop-opacity="0" /><stop offset="1" stop-color="#FFFFFF" /></linearGradient><linearGradient id="linear_border_1_909" x1="262.60888671875" y1="1050.0008850097656" x2="99.38134765625" y2="1050.0008850097656" gradientUnits="userSpaceOnUse"><stop offset="0" stop-color="#FFFFFF" stop-opacity="0" /><stop offset="0.65" stop-color="#FFFFFF" stop-opacity="0" /><stop offset="1" stop-color="#FFFFFF" /></linearGradient><mask id="mask-1_927" style="mask-type:alpha" maskUnits="userSpaceOnUse"><path d="M403.048 950L489.557 1045.4C492.814 1048.64 492.814 1053.95 489.557 1057.32L405.654 1150L294 1150L294 950.13L403.048 950.13L403.048 950Z" fill="#000000" /></mask><linearGradient id="linear_fill_1_929" x1="289.92724609375" y1="1049.9346313476562" x2="495.94140625" y2="1049.9346466064453" gradientUnits="userSpaceOnUse"><stop offset="0" stop-color="#FFFFFF" stop-opacity="0" /><stop offset="0.6" stop-color="#FFFFFF" stop-opacity="0" /><stop offset="0.8" stop-color="#FFFFFF" stop-opacity="0.1" /><stop offset="1" stop-color="#FFFFFF" /></linearGradient><linearGradient id="linear_border_1_930_0" x1="292.61181640625" y1="1049.934555053711" x2="493.25634765625" y2="1049.9345703125" gradientUnits="userSpaceOnUse"><stop offset="0" stop-color="#FFFFFF" stop-opacity="0" /><stop offset="0.6" stop-color="#FFFFFF" stop-opacity="0" /><stop offset="1" stop-color="#FFFFFF" /></linearGradient><linearGradient id="linear_border_1_931" x1="309.39111328125" y1="1049.9991302490234" x2="472.61865234375" y2="1049.9991302490234" gradientUnits="userSpaceOnUse"><stop offset="0" stop-color="#FFFFFF" stop-opacity="0" /><stop offset="0.65" stop-color="#FFFFFF" stop-opacity="0" /><stop offset="1" stop-color="#FFFFFF" /></linearGradient><mask id="mask-2_2157" style="mask-type:alpha" maskUnits="userSpaceOnUse"><path d="M852 822.952L947.399 736.443C950.639 733.186 955.953 733.186 959.323 736.443L1052 820.346L1052 932L852.13 932L852.13 822.952L852 822.952Z" fill="#000000" /></mask><linearGradient id="linear_fill_2_2159" x1="951.9345703125" y1="936.0727233886719" x2="951.9345703125" y2="730.0584716796875" gradientUnits="userSpaceOnUse"><stop offset="0" stop-color="#FFFFFF" stop-opacity="0" /><stop offset="0.6" stop-color="#FFFFFF" stop-opacity="0" /><stop offset="0.8" stop-color="#FFFFFF" stop-opacity="0.1" /><stop offset="1" stop-color="#FFFFFF" /></linearGradient><linearGradient id="linear_border_2_2160_0" x1="951.9345703125" y1="933.3881225585938" x2="951.9345703125" y2="732.74365234375" gradientUnits="userSpaceOnUse"><stop offset="0" stop-color="#FFFFFF" stop-opacity="0" /><stop offset="0.6" stop-color="#FFFFFF" stop-opacity="0" /><stop offset="1" stop-color="#FFFFFF" /></linearGradient><linearGradient id="linear_border_2_2161" x1="951.9990234375" y1="916.6085815429688" x2="951.9990234375" y2="753.3814697265625" gradientUnits="userSpaceOnUse"><stop offset="0" stop-color="#FFFFFF" stop-opacity="0" /><stop offset="0.65" stop-color="#FFFFFF" stop-opacity="0" /><stop offset="1" stop-color="#FFFFFF" /></linearGradient><mask id="mask-2_2166" style="mask-type:alpha" maskUnits="userSpaceOnUse"><path d="M1052 1057.05L956.601 1143.56C953.361 1146.81 948.047 1146.81 944.677 1143.56L852 1059.65L852 948L1051.87 948L1051.87 1057.05L1052 1057.05Z" fill="#000000" /></mask><linearGradient id="linear_fill_2_2168" x1="952.0654296875" y1="943.9272766113281" x2="952.0654296875" y2="1149.941520690918" gradientUnits="userSpaceOnUse"><stop offset="0" stop-color="#FFFFFF" stop-opacity="0" /><stop offset="0.6" stop-color="#FFFFFF" stop-opacity="0" /><stop offset="0.8" stop-color="#FFFFFF" stop-opacity="0.1" /><stop offset="1" stop-color="#FFFFFF" /></linearGradient><linearGradient id="linear_border_2_2169_0" x1="952.0654296875" y1="946.6118774414062" x2="952.0654296875" y2="1147.2563171386719" gradientUnits="userSpaceOnUse"><stop offset="0" stop-color="#FFFFFF" stop-opacity="0" /><stop offset="0.6" stop-color="#FFFFFF" stop-opacity="0" /><stop offset="1" stop-color="#FFFFFF" /></linearGradient><linearGradient id="linear_border_2_2170" x1="952.0009765625" y1="963.3914184570312" x2="952.0009765625" y2="1126.6185607910156" gradientUnits="userSpaceOnUse"><stop offset="0" stop-color="#FFFFFF" stop-opacity="0" /><stop offset="0.65" stop-color="#FFFFFF" stop-opacity="0" /><stop offset="1" stop-color="#FFFFFF" /></linearGradient><mask id="mask-2_2175" style="mask-type:alpha" maskUnits="userSpaceOnUse"><path d="M572 822.952L667.399 736.443C670.639 733.186 675.953 733.186 679.323 736.443L772 820.346L772 932L572.13 932L572.13 822.952L572 822.952Z" fill="#000000" /></mask><linearGradient id="linear_fill_2_2177" x1="671.9345703125" y1="936.0727233886719" x2="671.9345703125" y2="730.0584716796875" gradientUnits="userSpaceOnUse"><stop offset="0" stop-color="#FFFFFF" stop-opacity="0" /><stop offset="0.6" stop-color="#FFFFFF" stop-opacity="0" /><stop offset="0.8" stop-color="#FFFFFF" stop-opacity="0.05" /><stop offset="1" stop-color="#FFFFFF" stop-opacity="0.25" /></linearGradient><linearGradient id="linear_border_2_2178_0" x1="671.9345703125" y1="933.3881225585938" x2="671.9345703125" y2="732.74365234375" gradientUnits="userSpaceOnUse"><stop offset="0" stop-color="#FFFFFF" stop-opacity="0" /><stop offset="0.6" stop-color="#FFFFFF" stop-opacity="0" /><stop offset="1" stop-color="#FFFFFF" stop-opacity="0.75" /></linearGradient><linearGradient id="linear_border_2_2179" x1="671.9990234375" y1="916.6085815429688" x2="671.9990234375" y2="753.3814697265625" gradientUnits="userSpaceOnUse"><stop offset="0" stop-color="#FFFFFF" stop-opacity="0" /><stop offset="0.65" stop-color="#FFFFFF" stop-opacity="0" /><stop offset="1" stop-color="#FFFFFF" stop-opacity="0.75" /></linearGradient><mask id="mask-2_2184" style="mask-type:alpha" maskUnits="userSpaceOnUse"><path d="M772 1057.05L676.601 1143.56C673.361 1146.81 668.047 1146.81 664.677 1143.56L572 1059.65L572 948L771.87 948L771.87 1057.05L772 1057.05Z" fill="#000000" /></mask><linearGradient id="linear_fill_2_2186" x1="672.06640625" y1="943.9277648925781" x2="672.06640625" y2="1149.9419708251953" gradientUnits="userSpaceOnUse"><stop offset="0" stop-color="#FFFFFF" stop-opacity="0" /><stop offset="0.6" stop-color="#FFFFFF" stop-opacity="0" /><stop offset="0.8" stop-color="#FFFFFF" stop-opacity="0.05" /><stop offset="1" stop-color="#FFFFFF" stop-opacity="0.25" /></linearGradient><linearGradient id="linear_border_2_2187_0" x1="672.0654296875" y1="946.6118469238281" x2="672.0654296875" y2="1147.2562713623047" gradientUnits="userSpaceOnUse"><stop offset="0" stop-color="#FFFFFF" stop-opacity="0" /><stop offset="0.6" stop-color="#FFFFFF" stop-opacity="0" /><stop offset="1" stop-color="#FFFFFF" stop-opacity="0.75" /></linearGradient><linearGradient id="linear_border_2_2188" x1="672.00146484375" y1="963.3918762207031" x2="672.00146484375" y2="1126.6190032958984" gradientUnits="userSpaceOnUse"><stop offset="0" stop-color="#FFFFFF" stop-opacity="0" /><stop offset="0.65" stop-color="#FFFFFF" stop-opacity="0" /><stop offset="1" stop-color="#FFFFFF" stop-opacity="0.75" /></linearGradient><linearGradient id="linear_fill_7_1504" x1="1261" y1="1145.9999694824219" x2="1261" y2="836" gradientUnits="userSpaceOnUse"><stop offset="0" stop-color="#0072FF" /><stop offset="1" stop-color="#00C8FF" /></linearGradient><filter id="filter_8_9" x="1583" y="809" width="256" height="97" filterUnits="userSpaceOnUse" color-interpolation-filters="sRGB"><feFlood flood-opacity="0" result="feFloodId_8_9" /><feBlend mode="normal" in="SourceGraphic" in2="feFloodId_8_9" result="shape_8_9" /><feColorMatrix in="SourceAlpha" type="matrix" values="0 0 0 0 0 0 0 0 0 0 0 0 0 0 0 0 0 0 127 0" result="hardAlpha_8_9" /><feOffset dx="0" dy="-12" /><feGaussianBlur stdDeviation="16" /><feComposite in2="hardAlpha_8_9" operator="arithmetic" k2="-1" k3="1" /><feColorMatrix type="matrix" values="0 0 0 0 0 0 0 0 0 0.4470588235294118 0 0 0 0 1 0 0 0 0.64 0" /><feBlend mode="normal" in2="shape_8_9" result="innerShadow_0_8_9" /></filter><mask id="mask-8_9" style="mask-type:alpha" maskUnits="userSpaceOnUse"><path d="M1583 906L1736.1 906C1736.1 906 1747.5 906 1755 903C1762.48 900.032 1768.5 893.5 1768.5 893.5L1839 809L1583 809L1583 906Z" fill="#1B2D4D" fill-opacity="0.4" /></mask><linearGradient id="linear_fill_8_10" x1="1750.7119140625" y1="907" x2="1750.7099609375" y2="807.8174438476562" gradientUnits="userSpaceOnUse"><stop offset="0" stop-color="#DBEBFF" /><stop offset="1" stop-color="#DBEBFF" stop-opacity="0" /></linearGradient><linearGradient id="linear_border_8_12_0" x1="1583" y1="860.128173828125" x2="1830.7841796875" y2="860.128173828125" gradientUnits="userSpaceOnUse"><stop offset="0" stop-color="#7EA2CF" /><stop offset="0.2862" stop-color="#00C6FF" /><stop offset="0.6968" stop-color="#92FE9D" /><stop offset="0.8912" stop-color="#00C8FF" /><stop offset="1" stop-color="#7DA2CE" /></linearGradient><linearGradient id="linear_border_8_13_0" x1="1583" y1="857.7345275878906" x2="1824.9990234375" y2="857.7345275878906" gradientUnits="userSpaceOnUse"><stop offset="0" stop-color="#7EA2CF" /><stop offset="0.2862" stop-color="#00C6FF" /><stop offset="0.6968" stop-color="#92FE9D" /><stop offset="0.8912" stop-color="#00C8FF" /><stop offset="1" stop-color="#7DA2CE" /></linearGradient></defs></svg>