<svg xmlns="http://www.w3.org/2000/svg" xmlns:xlink="http://www.w3.org/1999/xlink" width="52" height="34.283" viewBox="546 296.848 52 34.283" fill="none"><path d="M570.12 326.497L570.12 301.477C570.12 299.982 571.425 298.848 572.92 299.017C582.013 300.102 589.242 303.495 594.38 309.547C595.417 310.8 596 312.371 596 313.987C596 315.337 595.618 316.668 594.87 317.777C590.311 324.6 582.586 327.902 572.89 328.987C571.419 329.131 570.12 327.992 570.12 326.497ZM564.91 301.457L549.76 301.457C549.702 301.457 549.647 301.467 549.59 301.467C549.533 301.467 549.477 301.486 549.42 301.497C549.364 301.508 549.305 301.52 549.25 301.537C549.195 301.553 549.143 301.575 549.09 301.597C549.037 301.619 548.981 301.64 548.93 301.667C548.879 301.694 548.828 301.725 548.78 301.757C548.732 301.789 548.685 301.82 548.64 301.857C548.595 301.893 548.561 301.926 548.52 301.967C548.479 302.007 548.437 302.052 548.4 302.097C548.363 302.141 548.332 302.189 548.3 302.237C548.268 302.284 548.237 302.336 548.21 302.387C548.183 302.437 548.152 302.484 548.13 302.537C548.108 302.59 548.097 302.642 548.08 302.697C548.063 302.752 548.041 302.81 548.03 302.867C548.019 302.923 548.01 302.98 548.01 303.037C548.01 303.094 548 303.149 548 303.207C548 303.264 548.01 303.32 548.01 303.377C548.01 303.434 548.019 303.49 548.03 303.547C548.041 303.603 548.063 303.662 548.08 303.717C548.097 303.772 548.108 303.824 548.13 303.877C548.152 303.93 548.183 303.986 548.21 304.037C548.237 304.087 548.268 304.129 548.3 304.177C548.332 304.224 548.363 304.272 548.4 304.317C548.437 304.361 548.479 304.406 548.52 304.447C548.561 304.487 548.595 304.53 548.64 304.567C548.685 304.603 548.732 304.635 548.78 304.667C548.828 304.699 548.879 304.73 548.93 304.757C548.981 304.784 549.037 304.805 549.09 304.827C549.143 304.849 549.195 304.87 549.25 304.887C549.305 304.903 549.364 304.915 549.42 304.927C549.477 304.938 549.533 304.947 549.59 304.947C549.647 304.947 549.702 304.957 549.76 304.957L564.91 304.957C564.968 304.957 565.023 304.947 565.08 304.947C565.137 304.947 565.194 304.938 565.25 304.927C565.307 304.915 565.365 304.903 565.42 304.887C565.475 304.87 565.527 304.849 565.58 304.827C565.633 304.805 565.689 304.784 565.74 304.757C565.791 304.73 565.842 304.699 565.89 304.667C565.938 304.635 565.975 304.603 566.02 304.567C566.065 304.53 566.109 304.487 566.15 304.447C566.191 304.406 566.234 304.361 566.27 304.317C566.307 304.272 566.338 304.224 566.37 304.177C566.402 304.129 566.433 304.087 566.46 304.037C566.487 303.986 566.508 303.93 566.53 303.877C566.552 303.824 566.573 303.772 566.59 303.717C566.607 303.662 566.619 303.603 566.63 303.547C566.641 303.49 566.66 303.434 566.66 303.377C566.66 303.32 566.67 303.264 566.67 303.207C566.67 303.149 566.66 303.094 566.66 303.037C566.66 302.98 566.641 302.923 566.63 302.867C566.619 302.81 566.607 302.752 566.59 302.697C566.573 302.642 566.552 302.59 566.53 302.537C566.508 302.484 566.487 302.437 566.46 302.387C566.433 302.336 566.402 302.284 566.37 302.237C566.338 302.189 566.307 302.141 566.27 302.097C566.234 302.052 566.191 302.007 566.15 301.967C566.109 301.926 566.065 301.893 566.02 301.857C565.975 301.82 565.938 301.789 565.89 301.757C565.842 301.725 565.791 301.694 565.74 301.667C565.689 301.64 565.633 301.619 565.58 301.597C565.527 301.575 565.475 301.553 565.42 301.537C565.365 301.52 565.307 301.508 565.25 301.497C565.194 301.486 565.137 301.467 565.08 301.467C565.023 301.467 564.968 301.457 564.91 301.457ZM564.91 308.957L549.76 308.957C549.702 308.957 549.647 308.967 549.59 308.967C549.533 308.967 549.477 308.976 549.42 308.987C549.364 308.998 549.305 309.02 549.25 309.037C549.195 309.053 549.143 309.065 549.09 309.087C549.037 309.109 548.981 309.14 548.93 309.167C548.879 309.194 548.828 309.225 548.78 309.257C548.732 309.289 548.685 309.32 548.64 309.357C548.595 309.393 548.561 309.426 548.52 309.467C548.479 309.507 548.437 309.552 548.4 309.597C548.363 309.641 548.332 309.689 548.3 309.737C548.268 309.784 548.237 309.836 548.21 309.887C548.183 309.937 548.152 309.984 548.13 310.037C548.108 310.09 548.097 310.142 548.08 310.197C548.063 310.251 548.041 310.31 548.03 310.367C548.019 310.423 548.01 310.48 548.01 310.537C548.01 310.594 548 310.649 548 310.707C548 310.764 548.01 310.82 548.01 310.877C548.01 310.934 548.019 310.991 548.03 311.047C548.041 311.103 548.063 311.162 548.08 311.217C548.097 311.272 548.108 311.324 548.13 311.377C548.152 311.43 548.183 311.486 548.21 311.537C548.237 311.587 548.268 311.629 548.3 311.677C548.332 311.724 548.363 311.772 548.4 311.817C548.437 311.861 548.479 311.906 548.52 311.947C548.561 311.987 548.595 312.02 548.64 312.057C548.685 312.093 548.732 312.135 548.78 312.167C548.828 312.199 548.879 312.22 548.93 312.247C548.981 312.274 549.037 312.305 549.09 312.327C549.143 312.349 549.195 312.37 549.25 312.387C549.305 312.403 549.364 312.416 549.42 312.427C549.477 312.438 549.533 312.447 549.59 312.447C549.647 312.447 549.702 312.457 549.76 312.457L564.91 312.457C564.968 312.457 565.023 312.447 565.08 312.447C565.137 312.447 565.194 312.438 565.25 312.427C565.307 312.416 565.365 312.403 565.42 312.387C565.475 312.37 565.527 312.349 565.58 312.327C565.633 312.305 565.689 312.274 565.74 312.247C565.791 312.22 565.842 312.199 565.89 312.167C565.938 312.135 565.975 312.093 566.02 312.057C566.065 312.02 566.109 311.987 566.15 311.947C566.191 311.906 566.234 311.861 566.27 311.817C566.307 311.772 566.338 311.724 566.37 311.677C566.402 311.629 566.433 311.587 566.46 311.537C566.487 311.486 566.508 311.43 566.53 311.377C566.552 311.324 566.573 311.272 566.59 311.217C566.607 311.162 566.619 311.103 566.63 311.047C566.641 310.99 566.66 310.934 566.66 310.877C566.66 310.82 566.67 310.764 566.67 310.707C566.67 310.649 566.66 310.594 566.66 310.537C566.66 310.48 566.641 310.423 566.63 310.367C566.619 310.31 566.607 310.251 566.59 310.197C566.573 310.142 566.552 310.09 566.53 310.037C566.508 309.984 566.487 309.937 566.46 309.887C566.433 309.836 566.402 309.784 566.37 309.737C566.338 309.689 566.307 309.641 566.27 309.597C566.234 309.552 566.191 309.507 566.15 309.467C566.109 309.426 566.065 309.393 566.02 309.357C565.975 309.32 565.938 309.289 565.89 309.257C565.842 309.225 565.791 309.194 565.74 309.167C565.689 309.14 565.633 309.109 565.58 309.087C565.527 309.065 565.475 309.053 565.42 309.037C565.365 309.02 565.307 308.998 565.25 308.987C565.194 308.975 565.137 308.967 565.08 308.967C565.023 308.967 564.968 308.957 564.91 308.957ZM564.91 315.997L549.76 315.997C549.702 315.997 549.647 316.007 549.59 316.007C549.533 316.007 549.477 316.025 549.42 316.037C549.364 316.048 549.305 316.06 549.25 316.077C549.195 316.093 549.143 316.105 549.09 316.127C549.037 316.149 548.981 316.18 548.93 316.207C548.879 316.234 548.828 316.265 548.78 316.297C548.732 316.328 548.685 316.36 548.64 316.397C548.595 316.433 548.561 316.466 548.52 316.507C548.479 316.547 548.437 316.592 548.4 316.637C548.363 316.681 548.332 316.729 548.3 316.777C548.268 316.824 548.237 316.876 548.21 316.927C548.183 316.977 548.152 317.024 548.13 317.077C548.108 317.13 548.097 317.182 548.08 317.237C548.063 317.292 548.041 317.35 548.03 317.407C548.019 317.463 548.01 317.52 548.01 317.577C548.01 317.634 548 317.689 548 317.747C548 317.804 548.01 317.86 548.01 317.917C548.01 317.974 548.019 318.031 548.03 318.087C548.041 318.143 548.063 318.202 548.08 318.257C548.097 318.312 548.108 318.364 548.13 318.417C548.152 318.47 548.183 318.526 548.21 318.577C548.237 318.627 548.268 318.669 548.3 318.717C548.332 318.764 548.363 318.812 548.4 318.857C548.437 318.901 548.479 318.946 548.52 318.987C548.561 319.027 548.595 319.06 548.64 319.097C548.685 319.133 548.732 319.175 548.78 319.207C548.828 319.239 548.879 319.27 548.93 319.297C548.981 319.324 549.037 319.345 549.09 319.367C549.143 319.389 549.195 319.41 549.25 319.427C549.305 319.443 549.364 319.456 549.42 319.467C549.477 319.478 549.533 319.487 549.59 319.487C549.647 319.487 549.702 319.497 549.76 319.497L564.91 319.497C564.968 319.497 565.023 319.487 565.08 319.487C565.137 319.487 565.194 319.478 565.25 319.467C565.307 319.456 565.365 319.443 565.42 319.427C565.475 319.41 565.527 319.389 565.58 319.367C565.633 319.345 565.689 319.324 565.74 319.297C565.791 319.27 565.842 319.239 565.89 319.207C565.938 319.175 565.975 319.133 566.02 319.097C566.065 319.06 566.109 319.027 566.15 318.987C566.191 318.946 566.234 318.901 566.27 318.857C566.307 318.812 566.338 318.764 566.37 318.717C566.402 318.669 566.433 318.627 566.46 318.577C566.487 318.526 566.508 318.47 566.53 318.417C566.552 318.364 566.573 318.312 566.59 318.257C566.607 318.202 566.619 318.143 566.63 318.087C566.641 318.03 566.66 317.974 566.66 317.917C566.66 317.86 566.67 317.804 566.67 317.747C566.67 317.689 566.66 317.634 566.66 317.577C566.66 317.52 566.641 317.463 566.63 317.407C566.619 317.35 566.607 317.292 566.59 317.237C566.573 317.182 566.552 317.13 566.53 317.077C566.508 317.024 566.487 316.977 566.46 316.927C566.433 316.876 566.402 316.824 566.37 316.777C566.338 316.729 566.307 316.681 566.27 316.637C566.234 316.592 566.191 316.547 566.15 316.507C566.109 316.466 566.065 316.433 566.02 316.397C565.975 316.36 565.938 316.328 565.89 316.297C565.842 316.265 565.791 316.234 565.74 316.207C565.689 316.18 565.633 316.149 565.58 316.127C565.527 316.105 565.475 316.093 565.42 316.077C565.365 316.06 565.307 316.048 565.25 316.037C565.194 316.025 565.137 316.007 565.08 316.007C565.023 316.007 564.968 315.997 564.91 315.997ZM564.91 323.067L549.76 323.067C549.702 323.067 549.647 323.067 549.59 323.067C549.533 323.067 549.477 323.085 549.42 323.097C549.364 323.108 549.305 323.12 549.25 323.137C549.195 323.153 549.143 323.175 549.09 323.197C549.037 323.219 548.981 323.24 548.93 323.267C548.879 323.294 548.828 323.325 548.78 323.357C548.732 323.388 548.685 323.42 548.64 323.457C548.595 323.493 548.561 323.536 548.52 323.577C548.479 323.617 548.437 323.662 548.4 323.707C548.363 323.751 548.332 323.789 548.3 323.837C548.268 323.884 548.237 323.936 548.21 323.987C548.183 324.037 548.152 324.094 548.13 324.147C548.108 324.2 548.097 324.252 548.08 324.307C548.063 324.362 548.041 324.41 548.03 324.467C548.019 324.523 548.01 324.58 548.01 324.637C548.01 324.694 548 324.759 548 324.817C548 324.874 548.01 324.93 548.01 324.987C548.01 325.044 548.019 325.1 548.03 325.157C548.041 325.213 548.063 325.262 548.08 325.317C548.097 325.372 548.108 325.434 548.13 325.487C548.152 325.54 548.183 325.586 548.21 325.637C548.237 325.687 548.268 325.739 548.3 325.787C548.332 325.834 548.363 325.882 548.4 325.927C548.437 325.971 548.479 326.006 548.52 326.047C548.561 326.087 548.595 326.13 548.64 326.167C548.685 326.203 548.732 326.235 548.78 326.267C548.828 326.299 548.879 326.33 548.93 326.357C548.981 326.384 549.037 326.405 549.09 326.427C549.143 326.449 549.195 326.47 549.25 326.487C549.305 326.503 549.364 326.516 549.42 326.527C549.477 326.538 549.533 326.557 549.59 326.557C549.647 326.557 549.702 326.567 549.76 326.567L564.91 326.567C564.968 326.567 565.023 326.557 565.08 326.557C565.137 326.557 565.194 326.538 565.25 326.527C565.307 326.516 565.365 326.503 565.42 326.487C565.475 326.47 565.527 326.449 565.58 326.427C565.633 326.405 565.689 326.384 565.74 326.357C565.791 326.33 565.842 326.299 565.89 326.267C565.938 326.235 565.975 326.203 566.02 326.167C566.065 326.13 566.109 326.087 566.15 326.047C566.191 326.006 566.234 325.971 566.27 325.927C566.307 325.882 566.338 325.834 566.37 325.787C566.402 325.739 566.433 325.687 566.46 325.637C566.487 325.586 566.508 325.54 566.53 325.487C566.552 325.434 566.573 325.372 566.59 325.317C566.607 325.262 566.619 325.213 566.63 325.157C566.641 325.1 566.66 325.044 566.66 324.987C566.66 324.93 566.67 324.874 566.67 324.817C566.67 324.759 566.66 324.694 566.66 324.637C566.66 324.58 566.641 324.523 566.63 324.467C566.619 324.41 566.607 324.361 566.59 324.307C566.573 324.252 566.552 324.2 566.53 324.147C566.508 324.094 566.487 324.037 566.46 323.987C566.433 323.936 566.402 323.884 566.37 323.837C566.338 323.789 566.307 323.751 566.27 323.707C566.234 323.662 566.191 323.617 566.15 323.577C566.109 323.536 566.065 323.493 566.02 323.457C565.975 323.42 565.938 323.388 565.89 323.357C565.842 323.325 565.791 323.294 565.74 323.267C565.689 323.24 565.633 323.219 565.58 323.197C565.527 323.175 565.475 323.153 565.42 323.137C565.365 323.12 565.307 323.108 565.25 323.097C565.194 323.085 565.137 323.067 565.08 323.067C565.023 323.067 564.968 323.067 564.91 323.067Z" fill-rule="evenodd" fill="#EDF5FF" /><defs><filter id="filter_23_42" x="0" y="0" width="1920" height="121" filterUnits="userSpaceOnUse" color-interpolation-filters="sRGB"><feFlood flood-opacity="0" result="feFloodId_23_42" /><feColorMatrix in="SourceAlpha" type="matrix" values="0 0 0 0 0 0 0 0 0 0 0 0 0 0 0 0 0 0 127 0" result="hardAlpha_23_42" /><feOffset dx="0" dy="1" /><feComposite in2="hardAlpha_23_42" operator="out" /><feColorMatrix type="matrix" values="0 0 0 0 0.27450980392156865 0 0 0 0 0.36470588235294116 0 0 0 0 0.47843137254901963 0 0 0 1 0" /><feBlend mode="normal" in2="feFloodId_23_42" result="dropShadow_1_23_42" /><feBlend mode="normal" in="SourceGraphic" in2="dropShadow_1_23_42" result="shape_23_42" /></filter><filter id="filter_6_7686" x="1017.999999682108" y="436.9999996821084" width="48.00000063578409" height="18.00000063578318" filterUnits="userSpaceOnUse" color-interpolation-filters="sRGB"><feFlood flood-opacity="0" result="feFloodId_6_7686" /><feColorMatrix in="SourceAlpha" type="matrix" values="0 0 0 0 0 0 0 0 0 0 0 0 0 0 0 0 0 0 127 0" result="hardAlpha_6_7686" /><feOffset dx="0" dy="0" /><feGaussianBlur stdDeviation="3.000000158945795" /><feComposite in2="hardAlpha_6_7686" operator="out" /><feColorMatrix type="matrix" values="0 0 0 0 0 0 0 0 0 0.4470588235294118 0 0 0 0 1 0 0 0 1 0" /><feBlend mode="normal" in2="feFloodId_6_7686" result="dropShadow_1_6_7686" /><feBlend mode="normal" in="SourceGraphic" in2="dropShadow_1_6_7686" result="shape_6_7686" /></filter><filter id="filter_6_7690" x="922" y="422" width="48" height="48" filterUnits="userSpaceOnUse" color-interpolation-filters="sRGB"><feFlood flood-opacity="0" result="feFloodId_6_7690" /><feColorMatrix in="SourceAlpha" type="matrix" values="0 0 0 0 0 0 0 0 0 0 0 0 0 0 0 0 0 0 127 0" result="hardAlpha_6_7690" /><feOffset dx="0" dy="0" /><feGaussianBlur stdDeviation="3" /><feComposite in2="hardAlpha_6_7690" operator="out" /><feColorMatrix type="matrix" values="0 0 0 0 0 0 0 0 0 0.4470588235294118 0 0 0 0 1 0 0 0 1 0" /><feBlend mode="normal" in2="feFloodId_6_7690" result="dropShadow_1_6_7690" /><feBlend mode="normal" in="SourceGraphic" in2="dropShadow_1_6_7690" result="shape_6_7690" /></filter><linearGradient id="linear_fill_4_1419_0" x1="1468" y1="334" x2="1468" y2="294" gradientUnits="userSpaceOnUse"><stop offset="0" stop-color="#0072FF" /><stop offset="1" stop-color="#00C8FF" /></linearGradient><filter id="filter_4_1419" x="1446" y="294" width="43.998046875" height="43.998046875" filterUnits="userSpaceOnUse" color-interpolation-filters="sRGB"><feFlood flood-opacity="0" result="feFloodId_4_1419" /><feColorMatrix in="SourceAlpha" type="matrix" values="0 0 0 0 0 0 0 0 0 0 0 0 0 0 0 0 0 0 127 0" result="hardAlpha_4_1419" /><feOffset dx="0" dy="2" /><feGaussianBlur stdDeviation="1" /><feComposite in2="hardAlpha_4_1419" operator="out" /><feColorMatrix type="matrix" values="0 0 0 0 0 0 0 0 0 0 0 0 0 0 0 0 0 0 0.5 0" /><feBlend mode="normal" in2="feFloodId_4_1419" result="dropShadow_1_4_1419" /><feBlend mode="normal" in="SourceGraphic" in2="dropShadow_1_4_1419" result="shape_4_1419" /></filter><filter id="filter_4_1420" x="1453.99951171875" y="301.99993896484375" width="28" height="27.9990234375" filterUnits="userSpaceOnUse" color-interpolation-filters="sRGB"><feFlood flood-opacity="0" result="feFloodId_4_1420" /><feColorMatrix in="SourceAlpha" type="matrix" values="0 0 0 0 0 0 0 0 0 0 0 0 0 0 0 0 0 0 127 0" result="hardAlpha_4_1420" /><feOffset dx="0" dy="2" /><feGaussianBlur stdDeviation="2" /><feComposite in2="hardAlpha_4_1420" operator="out" /><feColorMatrix type="matrix" values="0 0 0 0 0 0 0 0 0 0.4470588235294118 0 0 0 0 1 0 0 0 1 0" /><feBlend mode="normal" in2="feFloodId_4_1420" result="dropShadow_1_4_1420" /><feBlend mode="normal" in="SourceGraphic" in2="dropShadow_1_4_1420" result="shape_4_1420" /></filter><linearGradient id="linear_fill_2_2195_0" x1="1608" y1="334" x2="1608" y2="294" gradientUnits="userSpaceOnUse"><stop offset="0" stop-color="#0072FF" /><stop offset="1" stop-color="#00C8FF" /></linearGradient><filter id="filter_2_2195" x="1548.001953125" y="292" width="43.998046875" height="43.998046875" filterUnits="userSpaceOnUse" color-interpolation-filters="sRGB"><feFlood flood-opacity="0" result="feFloodId_2_2195" /><feColorMatrix in="SourceAlpha" type="matrix" values="0 0 0 0 0 0 0 0 0 0 0 0 0 0 0 0 0 0 127 0" result="hardAlpha_2_2195" /><feOffset dx="2" dy="0" /><feGaussianBlur stdDeviation="1" /><feComposite in2="hardAlpha_2_2195" operator="out" /><feColorMatrix type="matrix" values="0 0 0 0 0 0 0 0 0 0 0 0 0 0 0 0 0 0 0.5 0" /><feBlend mode="normal" in2="feFloodId_2_2195" result="dropShadow_1_2_2195" /><feBlend mode="normal" in="SourceGraphic" in2="dropShadow_1_2_2195" result="shape_2_2195" /></filter><filter id="filter_2_2196" x="1554.00048828125" y="301.99993896484375" width="27.9990234375" height="28" filterUnits="userSpaceOnUse" color-interpolation-filters="sRGB"><feFlood flood-opacity="0" result="feFloodId_2_2196" /><feColorMatrix in="SourceAlpha" type="matrix" values="0 0 0 0 0 0 0 0 0 0 0 0 0 0 0 0 0 0 127 0" result="hardAlpha_2_2196" /><feOffset dx="0" dy="2" /><feGaussianBlur stdDeviation="2" /><feComposite in2="hardAlpha_2_2196" operator="out" /><feColorMatrix type="matrix" values="0 0 0 0 0 0 0 0 0 0.4470588235294118 0 0 0 0 1 0 0 0 1 0" /><feBlend mode="normal" in2="feFloodId_2_2196" result="dropShadow_1_2_2196" /><feBlend mode="normal" in="SourceGraphic" in2="dropShadow_1_2_2196" result="shape_2_2196" /></filter><linearGradient id="linear_fill_3zR3iDLegKgKmshlGodIa" x1="1560" y1="432" x2="1560" y2="460.00006103515625" gradientUnits="userSpaceOnUse"><stop offset="0" stop-color="#EDF5FF" /><stop offset="1" stop-color="#92C3FF" /></linearGradient><linearGradient id="linear_fill_esC89JAD-pbNi9UHjxqZK" x1="224" y1="293" x2="224" y2="335" gradientUnits="userSpaceOnUse"><stop offset="0" stop-color="#EDF5FF" /><stop offset="1" stop-color="#92C3FF" /></linearGradient><linearGradient id="linear_fill_fQk8cYB63cZNgccwALJlu" x1="108" y1="291" x2="108" y2="337" gradientUnits="userSpaceOnUse"><stop offset="0" stop-color="#EDF5FF" /><stop offset="1" stop-color="#92C3FF" /></linearGradient><mask id="mask-1_853" style="mask-type:alpha" maskUnits="userSpaceOnUse"><path d="M168.952 918L82.4428 822.601C79.1857 819.361 79.1857 814.047 82.4428 810.676L166.346 718L278 718L278 917.87L168.952 917.87L168.952 918Z" fill="#000000" /></mask><linearGradient id="linear_fill_1_855" x1="282.07275390625" y1="818.0653381347656" x2="76.05859375" y2="818.0653381347656" gradientUnits="userSpaceOnUse"><stop offset="0" stop-color="#FFFFFF" stop-opacity="0" /><stop offset="0.6" stop-color="#FFFFFF" stop-opacity="0" /><stop offset="0.8" stop-color="#FFFFFF" stop-opacity="0.05" /><stop offset="1" stop-color="#FFFFFF" stop-opacity="0.25" /></linearGradient><linearGradient id="linear_border_1_856_0" x1="279.38818359375" y1="818.0653991699219" x2="78.74365234375" y2="818.0653991699219" gradientUnits="userSpaceOnUse"><stop offset="0" stop-color="#FFFFFF" stop-opacity="0" /><stop offset="0.6" stop-color="#FFFFFF" stop-opacity="0" /><stop offset="1" stop-color="#FFFFFF" stop-opacity="0.75" /></linearGradient><linearGradient id="linear_border_1_857" x1="262.60888671875" y1="818.0008544921875" x2="99.38134765625" y2="818.0008544921875" gradientUnits="userSpaceOnUse"><stop offset="0" stop-color="#FFFFFF" stop-opacity="0" /><stop offset="0.65" stop-color="#FFFFFF" stop-opacity="0" /><stop offset="1" stop-color="#FFFFFF" stop-opacity="0.75" /></linearGradient><mask id="mask-1_863" style="mask-type:alpha" maskUnits="userSpaceOnUse"><path d="M403.048 718L489.557 813.399C492.814 816.639 492.814 821.953 489.557 825.323L405.654 918L294 918L294 718.13L403.048 718.13L403.048 718Z" fill="#000000" /></mask><linearGradient id="linear_fill_1_865" x1="289.927734375" y1="817.9339599609375" x2="495.94189453125" y2="817.9339599609375" gradientUnits="userSpaceOnUse"><stop offset="0" stop-color="#FFFFFF" stop-opacity="0" /><stop offset="0.6" stop-color="#FFFFFF" stop-opacity="0" /><stop offset="0.8" stop-color="#FFFFFF" stop-opacity="0.05" /><stop offset="1" stop-color="#FFFFFF" stop-opacity="0.25" /></linearGradient><linearGradient id="linear_border_1_866_0" x1="292.61181640625" y1="817.9344177246094" x2="493.25634765625" y2="817.9344177246094" gradientUnits="userSpaceOnUse"><stop offset="0" stop-color="#FFFFFF" stop-opacity="0" /><stop offset="0.6" stop-color="#FFFFFF" stop-opacity="0" /><stop offset="1" stop-color="#FFFFFF" stop-opacity="0.75" /></linearGradient><linearGradient id="linear_border_1_867" x1="309.3916015625" y1="817.9984741210938" x2="472.619140625" y2="817.9984741210938" gradientUnits="userSpaceOnUse"><stop offset="0" stop-color="#FFFFFF" stop-opacity="0" /><stop offset="0.65" stop-color="#FFFFFF" stop-opacity="0" /><stop offset="1" stop-color="#FFFFFF" stop-opacity="0.75" /></linearGradient><mask id="mask-1_905" style="mask-type:alpha" maskUnits="userSpaceOnUse"><path d="M168.952 1150L82.4428 1054.6C79.1857 1051.36 79.1857 1046.05 82.4428 1042.68L166.346 950L278 950L278 1149.87L168.952 1149.87L168.952 1150Z" fill="#000000" /></mask><linearGradient id="linear_fill_1_907" x1="282.07275390625" y1="1050.0653839111328" x2="76.05859375" y2="1050.0653839111328" gradientUnits="userSpaceOnUse"><stop offset="0" stop-color="#FFFFFF" stop-opacity="0" /><stop offset="0.6" stop-color="#FFFFFF" stop-opacity="0" /><stop offset="0.8" stop-color="#FFFFFF" stop-opacity="0.1" /><stop offset="1" stop-color="#FFFFFF" /></linearGradient><linearGradient id="linear_border_1_908_0" x1="279.38818359375" y1="1050.0654296875" x2="78.74365234375" y2="1050.0654296875" gradientUnits="userSpaceOnUse"><stop offset="0" stop-color="#FFFFFF" stop-opacity="0" /><stop offset="0.6" stop-color="#FFFFFF" stop-opacity="0" /><stop offset="1" stop-color="#FFFFFF" /></linearGradient><linearGradient id="linear_border_1_909" x1="262.60888671875" y1="1050.0008850097656" x2="99.38134765625" y2="1050.0008850097656" gradientUnits="userSpaceOnUse"><stop offset="0" stop-color="#FFFFFF" stop-opacity="0" /><stop offset="0.65" stop-color="#FFFFFF" stop-opacity="0" /><stop offset="1" stop-color="#FFFFFF" /></linearGradient><mask id="mask-1_927" style="mask-type:alpha" maskUnits="userSpaceOnUse"><path d="M403.048 950L489.557 1045.4C492.814 1048.64 492.814 1053.95 489.557 1057.32L405.654 1150L294 1150L294 950.13L403.048 950.13L403.048 950Z" fill="#000000" /></mask><linearGradient id="linear_fill_1_929" x1="289.92724609375" y1="1049.9346313476562" x2="495.94140625" y2="1049.9346466064453" gradientUnits="userSpaceOnUse"><stop offset="0" stop-color="#FFFFFF" stop-opacity="0" /><stop offset="0.6" stop-color="#FFFFFF" stop-opacity="0" /><stop offset="0.8" stop-color="#FFFFFF" stop-opacity="0.1" /><stop offset="1" stop-color="#FFFFFF" /></linearGradient><linearGradient id="linear_border_1_930_0" x1="292.61181640625" y1="1049.934555053711" x2="493.25634765625" y2="1049.9345703125" gradientUnits="userSpaceOnUse"><stop offset="0" stop-color="#FFFFFF" stop-opacity="0" /><stop offset="0.6" stop-color="#FFFFFF" stop-opacity="0" /><stop offset="1" stop-color="#FFFFFF" /></linearGradient><linearGradient id="linear_border_1_931" x1="309.39111328125" y1="1049.9991302490234" x2="472.61865234375" y2="1049.9991302490234" gradientUnits="userSpaceOnUse"><stop offset="0" stop-color="#FFFFFF" stop-opacity="0" /><stop offset="0.65" stop-color="#FFFFFF" stop-opacity="0" /><stop offset="1" stop-color="#FFFFFF" /></linearGradient><mask id="mask-2_2157" style="mask-type:alpha" maskUnits="userSpaceOnUse"><path d="M852 822.952L947.399 736.443C950.639 733.186 955.953 733.186 959.323 736.443L1052 820.346L1052 932L852.13 932L852.13 822.952L852 822.952Z" fill="#000000" /></mask><linearGradient id="linear_fill_2_2159" x1="951.9345703125" y1="936.0727233886719" x2="951.9345703125" y2="730.0584716796875" gradientUnits="userSpaceOnUse"><stop offset="0" stop-color="#FFFFFF" stop-opacity="0" /><stop offset="0.6" stop-color="#FFFFFF" stop-opacity="0" /><stop offset="0.8" stop-color="#FFFFFF" stop-opacity="0.1" /><stop offset="1" stop-color="#FFFFFF" /></linearGradient><linearGradient id="linear_border_2_2160_0" x1="951.9345703125" y1="933.3881225585938" x2="951.9345703125" y2="732.74365234375" gradientUnits="userSpaceOnUse"><stop offset="0" stop-color="#FFFFFF" stop-opacity="0" /><stop offset="0.6" stop-color="#FFFFFF" stop-opacity="0" /><stop offset="1" stop-color="#FFFFFF" /></linearGradient><linearGradient id="linear_border_2_2161" x1="951.9990234375" y1="916.6085815429688" x2="951.9990234375" y2="753.3814697265625" gradientUnits="userSpaceOnUse"><stop offset="0" stop-color="#FFFFFF" stop-opacity="0" /><stop offset="0.65" stop-color="#FFFFFF" stop-opacity="0" /><stop offset="1" stop-color="#FFFFFF" /></linearGradient><mask id="mask-2_2166" style="mask-type:alpha" maskUnits="userSpaceOnUse"><path d="M1052 1057.05L956.601 1143.56C953.361 1146.81 948.047 1146.81 944.677 1143.56L852 1059.65L852 948L1051.87 948L1051.87 1057.05L1052 1057.05Z" fill="#000000" /></mask><linearGradient id="linear_fill_2_2168" x1="952.0654296875" y1="943.9272766113281" x2="952.0654296875" y2="1149.941520690918" gradientUnits="userSpaceOnUse"><stop offset="0" stop-color="#FFFFFF" stop-opacity="0" /><stop offset="0.6" stop-color="#FFFFFF" stop-opacity="0" /><stop offset="0.8" stop-color="#FFFFFF" stop-opacity="0.1" /><stop offset="1" stop-color="#FFFFFF" /></linearGradient><linearGradient id="linear_border_2_2169_0" x1="952.0654296875" y1="946.6118774414062" x2="952.0654296875" y2="1147.2563171386719" gradientUnits="userSpaceOnUse"><stop offset="0" stop-color="#FFFFFF" stop-opacity="0" /><stop offset="0.6" stop-color="#FFFFFF" stop-opacity="0" /><stop offset="1" stop-color="#FFFFFF" /></linearGradient><linearGradient id="linear_border_2_2170" x1="952.0009765625" y1="963.3914184570312" x2="952.0009765625" y2="1126.6185607910156" gradientUnits="userSpaceOnUse"><stop offset="0" stop-color="#FFFFFF" stop-opacity="0" /><stop offset="0.65" stop-color="#FFFFFF" stop-opacity="0" /><stop offset="1" stop-color="#FFFFFF" /></linearGradient><mask id="mask-2_2175" style="mask-type:alpha" maskUnits="userSpaceOnUse"><path d="M572 822.952L667.399 736.443C670.639 733.186 675.953 733.186 679.323 736.443L772 820.346L772 932L572.13 932L572.13 822.952L572 822.952Z" fill="#000000" /></mask><linearGradient id="linear_fill_2_2177" x1="671.9345703125" y1="936.0727233886719" x2="671.9345703125" y2="730.0584716796875" gradientUnits="userSpaceOnUse"><stop offset="0" stop-color="#FFFFFF" stop-opacity="0" /><stop offset="0.6" stop-color="#FFFFFF" stop-opacity="0" /><stop offset="0.8" stop-color="#FFFFFF" stop-opacity="0.05" /><stop offset="1" stop-color="#FFFFFF" stop-opacity="0.25" /></linearGradient><linearGradient id="linear_border_2_2178_0" x1="671.9345703125" y1="933.3881225585938" x2="671.9345703125" y2="732.74365234375" gradientUnits="userSpaceOnUse"><stop offset="0" stop-color="#FFFFFF" stop-opacity="0" /><stop offset="0.6" stop-color="#FFFFFF" stop-opacity="0" /><stop offset="1" stop-color="#FFFFFF" stop-opacity="0.75" /></linearGradient><linearGradient id="linear_border_2_2179" x1="671.9990234375" y1="916.6085815429688" x2="671.9990234375" y2="753.3814697265625" gradientUnits="userSpaceOnUse"><stop offset="0" stop-color="#FFFFFF" stop-opacity="0" /><stop offset="0.65" stop-color="#FFFFFF" stop-opacity="0" /><stop offset="1" stop-color="#FFFFFF" stop-opacity="0.75" /></linearGradient><mask id="mask-2_2184" style="mask-type:alpha" maskUnits="userSpaceOnUse"><path d="M772 1057.05L676.601 1143.56C673.361 1146.81 668.047 1146.81 664.677 1143.56L572 1059.65L572 948L771.87 948L771.87 1057.05L772 1057.05Z" fill="#000000" /></mask><linearGradient id="linear_fill_2_2186" x1="672.06640625" y1="943.9277648925781" x2="672.06640625" y2="1149.9419708251953" gradientUnits="userSpaceOnUse"><stop offset="0" stop-color="#FFFFFF" stop-opacity="0" /><stop offset="0.6" stop-color="#FFFFFF" stop-opacity="0" /><stop offset="0.8" stop-color="#FFFFFF" stop-opacity="0.05" /><stop offset="1" stop-color="#FFFFFF" stop-opacity="0.25" /></linearGradient><linearGradient id="linear_border_2_2187_0" x1="672.0654296875" y1="946.6118469238281" x2="672.0654296875" y2="1147.2562713623047" gradientUnits="userSpaceOnUse"><stop offset="0" stop-color="#FFFFFF" stop-opacity="0" /><stop offset="0.6" stop-color="#FFFFFF" stop-opacity="0" /><stop offset="1" stop-color="#FFFFFF" stop-opacity="0.75" /></linearGradient><linearGradient id="linear_border_2_2188" x1="672.00146484375" y1="963.3918762207031" x2="672.00146484375" y2="1126.6190032958984" gradientUnits="userSpaceOnUse"><stop offset="0" stop-color="#FFFFFF" stop-opacity="0" /><stop offset="0.65" stop-color="#FFFFFF" stop-opacity="0" /><stop offset="1" stop-color="#FFFFFF" stop-opacity="0.75" /></linearGradient><linearGradient id="linear_fill_7_1504" x1="1261" y1="1145.9999694824219" x2="1261" y2="836" gradientUnits="userSpaceOnUse"><stop offset="0" stop-color="#0072FF" /><stop offset="1" stop-color="#00C8FF" /></linearGradient><filter id="filter_8_9" x="1583" y="809" width="256" height="97" filterUnits="userSpaceOnUse" color-interpolation-filters="sRGB"><feFlood flood-opacity="0" result="feFloodId_8_9" /><feBlend mode="normal" in="SourceGraphic" in2="feFloodId_8_9" result="shape_8_9" /><feColorMatrix in="SourceAlpha" type="matrix" values="0 0 0 0 0 0 0 0 0 0 0 0 0 0 0 0 0 0 127 0" result="hardAlpha_8_9" /><feOffset dx="0" dy="-12" /><feGaussianBlur stdDeviation="16" /><feComposite in2="hardAlpha_8_9" operator="arithmetic" k2="-1" k3="1" /><feColorMatrix type="matrix" values="0 0 0 0 0 0 0 0 0 0.4470588235294118 0 0 0 0 1 0 0 0 0.64 0" /><feBlend mode="normal" in2="shape_8_9" result="innerShadow_0_8_9" /></filter><mask id="mask-8_9" style="mask-type:alpha" maskUnits="userSpaceOnUse"><path d="M1583 906L1736.1 906C1736.1 906 1747.5 906 1755 903C1762.48 900.032 1768.5 893.5 1768.5 893.5L1839 809L1583 809L1583 906Z" fill="#1B2D4D" fill-opacity="0.4" /></mask><linearGradient id="linear_fill_8_10" x1="1750.7119140625" y1="907" x2="1750.7099609375" y2="807.8174438476562" gradientUnits="userSpaceOnUse"><stop offset="0" stop-color="#DBEBFF" /><stop offset="1" stop-color="#DBEBFF" stop-opacity="0" /></linearGradient><linearGradient id="linear_border_8_12_0" x1="1583" y1="860.128173828125" x2="1830.7841796875" y2="860.128173828125" gradientUnits="userSpaceOnUse"><stop offset="0" stop-color="#7EA2CF" /><stop offset="0.2862" stop-color="#00C6FF" /><stop offset="0.6968" stop-color="#92FE9D" /><stop offset="0.8912" stop-color="#00C8FF" /><stop offset="1" stop-color="#7DA2CE" /></linearGradient><linearGradient id="linear_border_8_13_0" x1="1583" y1="857.7345275878906" x2="1824.9990234375" y2="857.7345275878906" gradientUnits="userSpaceOnUse"><stop offset="0" stop-color="#7EA2CF" /><stop offset="0.2862" stop-color="#00C6FF" /><stop offset="0.6968" stop-color="#92FE9D" /><stop offset="0.8912" stop-color="#00C8FF" /><stop offset="1" stop-color="#7DA2CE" /></linearGradient></defs></svg>