<svg xmlns="http://www.w3.org/2000/svg" xmlns:xlink="http://www.w3.org/1999/xlink" width="42" height="44" viewBox="623 424 42 44" fill="none"><path d="M636.34 435.4L633.237 435.4L633.237 460.22C633.237 461.203 634.029 462 635.007 462L652.993 462C653.971 462 654.763 461.203 654.763 460.22L654.763 435.4L636.34 435.4ZM652.877 431.4L661.01 431.4C661.141 431.4 661.271 431.413 661.399 431.438C661.527 431.464 661.651 431.502 661.772 431.552C661.893 431.602 662.007 431.664 662.116 431.737C662.224 431.81 662.325 431.893 662.417 431.986C662.51 432.079 662.592 432.18 662.665 432.289C662.737 432.398 662.799 432.513 662.849 432.635C662.899 432.756 662.936 432.881 662.962 433.01C662.987 433.139 663 433.269 663 433.4C663 433.531 662.987 433.661 662.962 433.79C662.936 433.919 662.899 434.044 662.849 434.165C662.799 434.287 662.737 434.402 662.665 434.511C662.592 434.62 662.51 434.721 662.417 434.814C662.325 434.907 662.224 434.99 662.116 435.063C662.007 435.136 661.893 435.198 661.772 435.248C661.651 435.298 661.527 435.336 661.399 435.362C661.271 435.387 661.141 435.4 661.01 435.4L658.742 435.4L658.742 460.22C658.742 463.412 656.168 466 652.993 466L635.007 466C631.832 466 629.258 463.412 629.258 460.22L629.258 435.4L626.99 435.4C626.859 435.4 626.729 435.387 626.601 435.362C626.473 435.336 626.349 435.298 626.228 435.248C626.107 435.198 625.993 435.136 625.884 435.063C625.776 434.99 625.675 434.907 625.583 434.814C625.49 434.721 625.408 434.62 625.335 434.511C625.263 434.402 625.201 434.287 625.151 434.165C625.101 434.044 625.064 433.919 625.038 433.79C625.013 433.661 625 433.531 625 433.4C625 433.269 625.013 433.139 625.038 433.01C625.064 432.881 625.101 432.756 625.151 432.635C625.201 432.513 625.263 432.398 625.335 432.289C625.408 432.18 625.49 432.079 625.583 431.986C625.675 431.893 625.776 431.81 625.884 431.737C625.993 431.664 626.107 431.602 626.228 431.552C626.349 431.502 626.473 431.464 626.601 431.438C626.729 431.413 626.859 431.4 626.99 431.4L635.135 431.4L637.382 427.074C637.725 426.414 638.405 426 639.146 426L648.914 426C649.661 426 650.346 426.421 650.686 427.09L652.877 431.4ZM648.408 431.4L647.697 430L640.351 430L639.624 431.4L648.408 431.4ZM642.587 454.1L642.587 442.4C642.587 442.269 642.575 442.139 642.549 442.01C642.524 441.881 642.486 441.756 642.436 441.635C642.386 441.513 642.325 441.398 642.252 441.289C642.18 441.18 642.097 441.079 642.005 440.986C641.912 440.893 641.812 440.81 641.703 440.737C641.595 440.664 641.48 440.602 641.359 440.552C641.239 440.502 641.114 440.464 640.986 440.438C640.858 440.413 640.729 440.4 640.598 440.4C640.467 440.4 640.338 440.413 640.21 440.438C640.082 440.464 639.957 440.502 639.837 440.552C639.716 440.602 639.601 440.664 639.493 440.737C639.384 440.81 639.283 440.893 639.191 440.986C639.099 441.079 639.016 441.18 638.944 441.289C638.871 441.398 638.81 441.513 638.76 441.635C638.71 441.756 638.672 441.881 638.647 442.01C638.621 442.139 638.608 442.269 638.608 442.4L638.608 454.1C638.608 454.231 638.621 454.361 638.647 454.49C638.672 454.619 638.71 454.744 638.76 454.865C638.81 454.987 638.871 455.102 638.944 455.211C639.016 455.32 639.099 455.421 639.191 455.514C639.283 455.607 639.384 455.69 639.493 455.763C639.601 455.836 639.716 455.898 639.837 455.948C639.957 455.998 640.082 456.036 640.21 456.062C640.338 456.087 640.467 456.1 640.598 456.1C640.729 456.1 640.858 456.087 640.986 456.062C641.114 456.036 641.239 455.998 641.359 455.948C641.48 455.898 641.595 455.836 641.703 455.763C641.812 455.69 641.912 455.607 642.005 455.514C642.097 455.421 642.18 455.32 642.252 455.211C642.325 455.102 642.386 454.987 642.436 454.865C642.486 454.744 642.524 454.619 642.549 454.49C642.575 454.361 642.587 454.231 642.587 454.1ZM649.392 454.1L649.392 442.4C649.392 442.269 649.379 442.139 649.353 442.01C649.328 441.881 649.29 441.756 649.24 441.635C649.19 441.513 649.129 441.398 649.056 441.289C648.984 441.18 648.901 441.079 648.809 440.986C648.717 440.893 648.616 440.81 648.507 440.737C648.399 440.664 648.284 440.602 648.163 440.552C648.043 440.502 647.918 440.464 647.79 440.438C647.662 440.413 647.533 440.4 647.402 440.4C647.271 440.4 647.142 440.413 647.014 440.438C646.886 440.464 646.761 440.502 646.641 440.552C646.52 440.602 646.405 440.664 646.297 440.737C646.188 440.81 646.088 440.893 645.995 440.986C645.903 441.079 645.82 441.18 645.748 441.289C645.675 441.398 645.614 441.513 645.564 441.635C645.514 441.756 645.476 441.881 645.451 442.01C645.425 442.139 645.413 442.269 645.413 442.4L645.413 454.1C645.413 454.231 645.425 454.361 645.451 454.49C645.476 454.619 645.514 454.744 645.564 454.865C645.614 454.987 645.675 455.102 645.748 455.211C645.82 455.32 645.903 455.421 645.995 455.514C646.088 455.607 646.188 455.69 646.297 455.763C646.405 455.836 646.52 455.898 646.641 455.948C646.761 455.998 646.886 456.036 647.014 456.062C647.142 456.087 647.271 456.1 647.402 456.1C647.533 456.1 647.662 456.087 647.79 456.062C647.918 456.036 648.043 455.998 648.163 455.948C648.284 455.898 648.399 455.836 648.507 455.763C648.616 455.69 648.717 455.607 648.809 455.514C648.901 455.421 648.984 455.32 649.056 455.211C649.129 455.102 649.19 454.987 649.24 454.865C649.29 454.744 649.328 454.619 649.353 454.49C649.379 454.361 649.392 454.231 649.392 454.1Z" fill-rule="evenodd" fill="#FF3700" /><defs><filter id="filter_23_42" x="0" y="0" width="1920" height="121" filterUnits="userSpaceOnUse" color-interpolation-filters="sRGB"><feFlood flood-opacity="0" result="feFloodId_23_42" /><feColorMatrix in="SourceAlpha" type="matrix" values="0 0 0 0 0 0 0 0 0 0 0 0 0 0 0 0 0 0 127 0" result="hardAlpha_23_42" /><feOffset dx="0" dy="1" /><feComposite in2="hardAlpha_23_42" operator="out" /><feColorMatrix type="matrix" values="0 0 0 0 0.27450980392156865 0 0 0 0 0.36470588235294116 0 0 0 0 0.47843137254901963 0 0 0 1 0" /><feBlend mode="normal" in2="feFloodId_23_42" result="dropShadow_1_23_42" /><feBlend mode="normal" in="SourceGraphic" in2="dropShadow_1_23_42" result="shape_23_42" /></filter><filter id="filter_6_7686" x="1017.999999682108" y="436.9999996821084" width="48.00000063578409" height="18.00000063578318" filterUnits="userSpaceOnUse" color-interpolation-filters="sRGB"><feFlood flood-opacity="0" result="feFloodId_6_7686" /><feColorMatrix in="SourceAlpha" type="matrix" values="0 0 0 0 0 0 0 0 0 0 0 0 0 0 0 0 0 0 127 0" result="hardAlpha_6_7686" /><feOffset dx="0" dy="0" /><feGaussianBlur stdDeviation="3.000000158945795" /><feComposite in2="hardAlpha_6_7686" operator="out" /><feColorMatrix type="matrix" values="0 0 0 0 0 0 0 0 0 0.4470588235294118 0 0 0 0 1 0 0 0 1 0" /><feBlend mode="normal" in2="feFloodId_6_7686" result="dropShadow_1_6_7686" /><feBlend mode="normal" in="SourceGraphic" in2="dropShadow_1_6_7686" result="shape_6_7686" /></filter><filter id="filter_6_7690" x="922" y="422" width="48" height="48" filterUnits="userSpaceOnUse" color-interpolation-filters="sRGB"><feFlood flood-opacity="0" result="feFloodId_6_7690" /><feColorMatrix in="SourceAlpha" type="matrix" values="0 0 0 0 0 0 0 0 0 0 0 0 0 0 0 0 0 0 127 0" result="hardAlpha_6_7690" /><feOffset dx="0" dy="0" /><feGaussianBlur stdDeviation="3" /><feComposite in2="hardAlpha_6_7690" operator="out" /><feColorMatrix type="matrix" values="0 0 0 0 0 0 0 0 0 0.4470588235294118 0 0 0 0 1 0 0 0 1 0" /><feBlend mode="normal" in2="feFloodId_6_7690" result="dropShadow_1_6_7690" /><feBlend mode="normal" in="SourceGraphic" in2="dropShadow_1_6_7690" result="shape_6_7690" /></filter><linearGradient id="linear_fill_4_1419_0" x1="1468" y1="334" x2="1468" y2="294" gradientUnits="userSpaceOnUse"><stop offset="0" stop-color="#0072FF" /><stop offset="1" stop-color="#00C8FF" /></linearGradient><filter id="filter_4_1419" x="1446" y="294" width="43.998046875" height="43.998046875" filterUnits="userSpaceOnUse" color-interpolation-filters="sRGB"><feFlood flood-opacity="0" result="feFloodId_4_1419" /><feColorMatrix in="SourceAlpha" type="matrix" values="0 0 0 0 0 0 0 0 0 0 0 0 0 0 0 0 0 0 127 0" result="hardAlpha_4_1419" /><feOffset dx="0" dy="2" /><feGaussianBlur stdDeviation="1" /><feComposite in2="hardAlpha_4_1419" operator="out" /><feColorMatrix type="matrix" values="0 0 0 0 0 0 0 0 0 0 0 0 0 0 0 0 0 0 0.5 0" /><feBlend mode="normal" in2="feFloodId_4_1419" result="dropShadow_1_4_1419" /><feBlend mode="normal" in="SourceGraphic" in2="dropShadow_1_4_1419" result="shape_4_1419" /></filter><filter id="filter_4_1420" x="1453.99951171875" y="301.99993896484375" width="28" height="27.9990234375" filterUnits="userSpaceOnUse" color-interpolation-filters="sRGB"><feFlood flood-opacity="0" result="feFloodId_4_1420" /><feColorMatrix in="SourceAlpha" type="matrix" values="0 0 0 0 0 0 0 0 0 0 0 0 0 0 0 0 0 0 127 0" result="hardAlpha_4_1420" /><feOffset dx="0" dy="2" /><feGaussianBlur stdDeviation="2" /><feComposite in2="hardAlpha_4_1420" operator="out" /><feColorMatrix type="matrix" values="0 0 0 0 0 0 0 0 0 0.4470588235294118 0 0 0 0 1 0 0 0 1 0" /><feBlend mode="normal" in2="feFloodId_4_1420" result="dropShadow_1_4_1420" /><feBlend mode="normal" in="SourceGraphic" in2="dropShadow_1_4_1420" result="shape_4_1420" /></filter><linearGradient id="linear_fill_2_2195_0" x1="1608" y1="334" x2="1608" y2="294" gradientUnits="userSpaceOnUse"><stop offset="0" stop-color="#0072FF" /><stop offset="1" stop-color="#00C8FF" /></linearGradient><filter id="filter_2_2195" x="1548.001953125" y="292" width="43.998046875" height="43.998046875" filterUnits="userSpaceOnUse" color-interpolation-filters="sRGB"><feFlood flood-opacity="0" result="feFloodId_2_2195" /><feColorMatrix in="SourceAlpha" type="matrix" values="0 0 0 0 0 0 0 0 0 0 0 0 0 0 0 0 0 0 127 0" result="hardAlpha_2_2195" /><feOffset dx="2" dy="0" /><feGaussianBlur stdDeviation="1" /><feComposite in2="hardAlpha_2_2195" operator="out" /><feColorMatrix type="matrix" values="0 0 0 0 0 0 0 0 0 0 0 0 0 0 0 0 0 0 0.5 0" /><feBlend mode="normal" in2="feFloodId_2_2195" result="dropShadow_1_2_2195" /><feBlend mode="normal" in="SourceGraphic" in2="dropShadow_1_2_2195" result="shape_2_2195" /></filter><filter id="filter_2_2196" x="1554.00048828125" y="301.99993896484375" width="27.9990234375" height="28" filterUnits="userSpaceOnUse" color-interpolation-filters="sRGB"><feFlood flood-opacity="0" result="feFloodId_2_2196" /><feColorMatrix in="SourceAlpha" type="matrix" values="0 0 0 0 0 0 0 0 0 0 0 0 0 0 0 0 0 0 127 0" result="hardAlpha_2_2196" /><feOffset dx="0" dy="2" /><feGaussianBlur stdDeviation="2" /><feComposite in2="hardAlpha_2_2196" operator="out" /><feColorMatrix type="matrix" values="0 0 0 0 0 0 0 0 0 0.4470588235294118 0 0 0 0 1 0 0 0 1 0" /><feBlend mode="normal" in2="feFloodId_2_2196" result="dropShadow_1_2_2196" /><feBlend mode="normal" in="SourceGraphic" in2="dropShadow_1_2_2196" result="shape_2_2196" /></filter><linearGradient id="linear_fill_3zR3iDLegKgKmshlGodIa" x1="1560" y1="432" x2="1560" y2="460.00006103515625" gradientUnits="userSpaceOnUse"><stop offset="0" stop-color="#EDF5FF" /><stop offset="1" stop-color="#92C3FF" /></linearGradient><linearGradient id="linear_fill_esC89JAD-pbNi9UHjxqZK" x1="224" y1="293" x2="224" y2="335" gradientUnits="userSpaceOnUse"><stop offset="0" stop-color="#EDF5FF" /><stop offset="1" stop-color="#92C3FF" /></linearGradient><linearGradient id="linear_fill_fQk8cYB63cZNgccwALJlu" x1="108" y1="291" x2="108" y2="337" gradientUnits="userSpaceOnUse"><stop offset="0" stop-color="#EDF5FF" /><stop offset="1" stop-color="#92C3FF" /></linearGradient><mask id="mask-1_853" style="mask-type:alpha" maskUnits="userSpaceOnUse"><path d="M168.952 918L82.4428 822.601C79.1857 819.361 79.1857 814.047 82.4428 810.676L166.346 718L278 718L278 917.87L168.952 917.87L168.952 918Z" fill="#000000" /></mask><linearGradient id="linear_fill_1_855" x1="282.07275390625" y1="818.0653381347656" x2="76.05859375" y2="818.0653381347656" gradientUnits="userSpaceOnUse"><stop offset="0" stop-color="#FFFFFF" stop-opacity="0" /><stop offset="0.6" stop-color="#FFFFFF" stop-opacity="0" /><stop offset="0.8" stop-color="#FFFFFF" stop-opacity="0.05" /><stop offset="1" stop-color="#FFFFFF" stop-opacity="0.25" /></linearGradient><linearGradient id="linear_border_1_856_0" x1="279.38818359375" y1="818.0653991699219" x2="78.74365234375" y2="818.0653991699219" gradientUnits="userSpaceOnUse"><stop offset="0" stop-color="#FFFFFF" stop-opacity="0" /><stop offset="0.6" stop-color="#FFFFFF" stop-opacity="0" /><stop offset="1" stop-color="#FFFFFF" stop-opacity="0.75" /></linearGradient><linearGradient id="linear_border_1_857" x1="262.60888671875" y1="818.0008544921875" x2="99.38134765625" y2="818.0008544921875" gradientUnits="userSpaceOnUse"><stop offset="0" stop-color="#FFFFFF" stop-opacity="0" /><stop offset="0.65" stop-color="#FFFFFF" stop-opacity="0" /><stop offset="1" stop-color="#FFFFFF" stop-opacity="0.75" /></linearGradient><mask id="mask-1_863" style="mask-type:alpha" maskUnits="userSpaceOnUse"><path d="M403.048 718L489.557 813.399C492.814 816.639 492.814 821.953 489.557 825.323L405.654 918L294 918L294 718.13L403.048 718.13L403.048 718Z" fill="#000000" /></mask><linearGradient id="linear_fill_1_865" x1="289.927734375" y1="817.9339599609375" x2="495.94189453125" y2="817.9339599609375" gradientUnits="userSpaceOnUse"><stop offset="0" stop-color="#FFFFFF" stop-opacity="0" /><stop offset="0.6" stop-color="#FFFFFF" stop-opacity="0" /><stop offset="0.8" stop-color="#FFFFFF" stop-opacity="0.05" /><stop offset="1" stop-color="#FFFFFF" stop-opacity="0.25" /></linearGradient><linearGradient id="linear_border_1_866_0" x1="292.61181640625" y1="817.9344177246094" x2="493.25634765625" y2="817.9344177246094" gradientUnits="userSpaceOnUse"><stop offset="0" stop-color="#FFFFFF" stop-opacity="0" /><stop offset="0.6" stop-color="#FFFFFF" stop-opacity="0" /><stop offset="1" stop-color="#FFFFFF" stop-opacity="0.75" /></linearGradient><linearGradient id="linear_border_1_867" x1="309.3916015625" y1="817.9984741210938" x2="472.619140625" y2="817.9984741210938" gradientUnits="userSpaceOnUse"><stop offset="0" stop-color="#FFFFFF" stop-opacity="0" /><stop offset="0.65" stop-color="#FFFFFF" stop-opacity="0" /><stop offset="1" stop-color="#FFFFFF" stop-opacity="0.75" /></linearGradient><mask id="mask-1_905" style="mask-type:alpha" maskUnits="userSpaceOnUse"><path d="M168.952 1150L82.4428 1054.6C79.1857 1051.36 79.1857 1046.05 82.4428 1042.68L166.346 950L278 950L278 1149.87L168.952 1149.87L168.952 1150Z" fill="#000000" /></mask><linearGradient id="linear_fill_1_907" x1="282.07275390625" y1="1050.0653839111328" x2="76.05859375" y2="1050.0653839111328" gradientUnits="userSpaceOnUse"><stop offset="0" stop-color="#FFFFFF" stop-opacity="0" /><stop offset="0.6" stop-color="#FFFFFF" stop-opacity="0" /><stop offset="0.8" stop-color="#FFFFFF" stop-opacity="0.1" /><stop offset="1" stop-color="#FFFFFF" /></linearGradient><linearGradient id="linear_border_1_908_0" x1="279.38818359375" y1="1050.0654296875" x2="78.74365234375" y2="1050.0654296875" gradientUnits="userSpaceOnUse"><stop offset="0" stop-color="#FFFFFF" stop-opacity="0" /><stop offset="0.6" stop-color="#FFFFFF" stop-opacity="0" /><stop offset="1" stop-color="#FFFFFF" /></linearGradient><linearGradient id="linear_border_1_909" x1="262.60888671875" y1="1050.0008850097656" x2="99.38134765625" y2="1050.0008850097656" gradientUnits="userSpaceOnUse"><stop offset="0" stop-color="#FFFFFF" stop-opacity="0" /><stop offset="0.65" stop-color="#FFFFFF" stop-opacity="0" /><stop offset="1" stop-color="#FFFFFF" /></linearGradient><mask id="mask-1_927" style="mask-type:alpha" maskUnits="userSpaceOnUse"><path d="M403.048 950L489.557 1045.4C492.814 1048.64 492.814 1053.95 489.557 1057.32L405.654 1150L294 1150L294 950.13L403.048 950.13L403.048 950Z" fill="#000000" /></mask><linearGradient id="linear_fill_1_929" x1="289.92724609375" y1="1049.9346313476562" x2="495.94140625" y2="1049.9346466064453" gradientUnits="userSpaceOnUse"><stop offset="0" stop-color="#FFFFFF" stop-opacity="0" /><stop offset="0.6" stop-color="#FFFFFF" stop-opacity="0" /><stop offset="0.8" stop-color="#FFFFFF" stop-opacity="0.1" /><stop offset="1" stop-color="#FFFFFF" /></linearGradient><linearGradient id="linear_border_1_930_0" x1="292.61181640625" y1="1049.934555053711" x2="493.25634765625" y2="1049.9345703125" gradientUnits="userSpaceOnUse"><stop offset="0" stop-color="#FFFFFF" stop-opacity="0" /><stop offset="0.6" stop-color="#FFFFFF" stop-opacity="0" /><stop offset="1" stop-color="#FFFFFF" /></linearGradient><linearGradient id="linear_border_1_931" x1="309.39111328125" y1="1049.9991302490234" x2="472.61865234375" y2="1049.9991302490234" gradientUnits="userSpaceOnUse"><stop offset="0" stop-color="#FFFFFF" stop-opacity="0" /><stop offset="0.65" stop-color="#FFFFFF" stop-opacity="0" /><stop offset="1" stop-color="#FFFFFF" /></linearGradient><mask id="mask-2_2157" style="mask-type:alpha" maskUnits="userSpaceOnUse"><path d="M852 822.952L947.399 736.443C950.639 733.186 955.953 733.186 959.323 736.443L1052 820.346L1052 932L852.13 932L852.13 822.952L852 822.952Z" fill="#000000" /></mask><linearGradient id="linear_fill_2_2159" x1="951.9345703125" y1="936.0727233886719" x2="951.9345703125" y2="730.0584716796875" gradientUnits="userSpaceOnUse"><stop offset="0" stop-color="#FFFFFF" stop-opacity="0" /><stop offset="0.6" stop-color="#FFFFFF" stop-opacity="0" /><stop offset="0.8" stop-color="#FFFFFF" stop-opacity="0.1" /><stop offset="1" stop-color="#FFFFFF" /></linearGradient><linearGradient id="linear_border_2_2160_0" x1="951.9345703125" y1="933.3881225585938" x2="951.9345703125" y2="732.74365234375" gradientUnits="userSpaceOnUse"><stop offset="0" stop-color="#FFFFFF" stop-opacity="0" /><stop offset="0.6" stop-color="#FFFFFF" stop-opacity="0" /><stop offset="1" stop-color="#FFFFFF" /></linearGradient><linearGradient id="linear_border_2_2161" x1="951.9990234375" y1="916.6085815429688" x2="951.9990234375" y2="753.3814697265625" gradientUnits="userSpaceOnUse"><stop offset="0" stop-color="#FFFFFF" stop-opacity="0" /><stop offset="0.65" stop-color="#FFFFFF" stop-opacity="0" /><stop offset="1" stop-color="#FFFFFF" /></linearGradient><mask id="mask-2_2166" style="mask-type:alpha" maskUnits="userSpaceOnUse"><path d="M1052 1057.05L956.601 1143.56C953.361 1146.81 948.047 1146.81 944.677 1143.56L852 1059.65L852 948L1051.87 948L1051.87 1057.05L1052 1057.05Z" fill="#000000" /></mask><linearGradient id="linear_fill_2_2168" x1="952.0654296875" y1="943.9272766113281" x2="952.0654296875" y2="1149.941520690918" gradientUnits="userSpaceOnUse"><stop offset="0" stop-color="#FFFFFF" stop-opacity="0" /><stop offset="0.6" stop-color="#FFFFFF" stop-opacity="0" /><stop offset="0.8" stop-color="#FFFFFF" stop-opacity="0.1" /><stop offset="1" stop-color="#FFFFFF" /></linearGradient><linearGradient id="linear_border_2_2169_0" x1="952.0654296875" y1="946.6118774414062" x2="952.0654296875" y2="1147.2563171386719" gradientUnits="userSpaceOnUse"><stop offset="0" stop-color="#FFFFFF" stop-opacity="0" /><stop offset="0.6" stop-color="#FFFFFF" stop-opacity="0" /><stop offset="1" stop-color="#FFFFFF" /></linearGradient><linearGradient id="linear_border_2_2170" x1="952.0009765625" y1="963.3914184570312" x2="952.0009765625" y2="1126.6185607910156" gradientUnits="userSpaceOnUse"><stop offset="0" stop-color="#FFFFFF" stop-opacity="0" /><stop offset="0.65" stop-color="#FFFFFF" stop-opacity="0" /><stop offset="1" stop-color="#FFFFFF" /></linearGradient><mask id="mask-2_2175" style="mask-type:alpha" maskUnits="userSpaceOnUse"><path d="M572 822.952L667.399 736.443C670.639 733.186 675.953 733.186 679.323 736.443L772 820.346L772 932L572.13 932L572.13 822.952L572 822.952Z" fill="#000000" /></mask><linearGradient id="linear_fill_2_2177" x1="671.9345703125" y1="936.0727233886719" x2="671.9345703125" y2="730.0584716796875" gradientUnits="userSpaceOnUse"><stop offset="0" stop-color="#FFFFFF" stop-opacity="0" /><stop offset="0.6" stop-color="#FFFFFF" stop-opacity="0" /><stop offset="0.8" stop-color="#FFFFFF" stop-opacity="0.05" /><stop offset="1" stop-color="#FFFFFF" stop-opacity="0.25" /></linearGradient><linearGradient id="linear_border_2_2178_0" x1="671.9345703125" y1="933.3881225585938" x2="671.9345703125" y2="732.74365234375" gradientUnits="userSpaceOnUse"><stop offset="0" stop-color="#FFFFFF" stop-opacity="0" /><stop offset="0.6" stop-color="#FFFFFF" stop-opacity="0" /><stop offset="1" stop-color="#FFFFFF" stop-opacity="0.75" /></linearGradient><linearGradient id="linear_border_2_2179" x1="671.9990234375" y1="916.6085815429688" x2="671.9990234375" y2="753.3814697265625" gradientUnits="userSpaceOnUse"><stop offset="0" stop-color="#FFFFFF" stop-opacity="0" /><stop offset="0.65" stop-color="#FFFFFF" stop-opacity="0" /><stop offset="1" stop-color="#FFFFFF" stop-opacity="0.75" /></linearGradient><mask id="mask-2_2184" style="mask-type:alpha" maskUnits="userSpaceOnUse"><path d="M772 1057.05L676.601 1143.56C673.361 1146.81 668.047 1146.81 664.677 1143.56L572 1059.65L572 948L771.87 948L771.87 1057.05L772 1057.05Z" fill="#000000" /></mask><linearGradient id="linear_fill_2_2186" x1="672.06640625" y1="943.9277648925781" x2="672.06640625" y2="1149.9419708251953" gradientUnits="userSpaceOnUse"><stop offset="0" stop-color="#FFFFFF" stop-opacity="0" /><stop offset="0.6" stop-color="#FFFFFF" stop-opacity="0" /><stop offset="0.8" stop-color="#FFFFFF" stop-opacity="0.05" /><stop offset="1" stop-color="#FFFFFF" stop-opacity="0.25" /></linearGradient><linearGradient id="linear_border_2_2187_0" x1="672.0654296875" y1="946.6118469238281" x2="672.0654296875" y2="1147.2562713623047" gradientUnits="userSpaceOnUse"><stop offset="0" stop-color="#FFFFFF" stop-opacity="0" /><stop offset="0.6" stop-color="#FFFFFF" stop-opacity="0" /><stop offset="1" stop-color="#FFFFFF" stop-opacity="0.75" /></linearGradient><linearGradient id="linear_border_2_2188" x1="672.00146484375" y1="963.3918762207031" x2="672.00146484375" y2="1126.6190032958984" gradientUnits="userSpaceOnUse"><stop offset="0" stop-color="#FFFFFF" stop-opacity="0" /><stop offset="0.65" stop-color="#FFFFFF" stop-opacity="0" /><stop offset="1" stop-color="#FFFFFF" stop-opacity="0.75" /></linearGradient><linearGradient id="linear_fill_7_1504" x1="1261" y1="1145.9999694824219" x2="1261" y2="836" gradientUnits="userSpaceOnUse"><stop offset="0" stop-color="#0072FF" /><stop offset="1" stop-color="#00C8FF" /></linearGradient><filter id="filter_8_9" x="1583" y="809" width="256" height="97" filterUnits="userSpaceOnUse" color-interpolation-filters="sRGB"><feFlood flood-opacity="0" result="feFloodId_8_9" /><feBlend mode="normal" in="SourceGraphic" in2="feFloodId_8_9" result="shape_8_9" /><feColorMatrix in="SourceAlpha" type="matrix" values="0 0 0 0 0 0 0 0 0 0 0 0 0 0 0 0 0 0 127 0" result="hardAlpha_8_9" /><feOffset dx="0" dy="-12" /><feGaussianBlur stdDeviation="16" /><feComposite in2="hardAlpha_8_9" operator="arithmetic" k2="-1" k3="1" /><feColorMatrix type="matrix" values="0 0 0 0 0 0 0 0 0 0.4470588235294118 0 0 0 0 1 0 0 0 0.64 0" /><feBlend mode="normal" in2="shape_8_9" result="innerShadow_0_8_9" /></filter><mask id="mask-8_9" style="mask-type:alpha" maskUnits="userSpaceOnUse"><path d="M1583 906L1736.1 906C1736.1 906 1747.5 906 1755 903C1762.48 900.032 1768.5 893.5 1768.5 893.5L1839 809L1583 809L1583 906Z" fill="#1B2D4D" fill-opacity="0.4" /></mask><linearGradient id="linear_fill_8_10" x1="1750.7119140625" y1="907" x2="1750.7099609375" y2="807.8174438476562" gradientUnits="userSpaceOnUse"><stop offset="0" stop-color="#DBEBFF" /><stop offset="1" stop-color="#DBEBFF" stop-opacity="0" /></linearGradient><linearGradient id="linear_border_8_12_0" x1="1583" y1="860.128173828125" x2="1830.7841796875" y2="860.128173828125" gradientUnits="userSpaceOnUse"><stop offset="0" stop-color="#7EA2CF" /><stop offset="0.2862" stop-color="#00C6FF" /><stop offset="0.6968" stop-color="#92FE9D" /><stop offset="0.8912" stop-color="#00C8FF" /><stop offset="1" stop-color="#7DA2CE" /></linearGradient><linearGradient id="linear_border_8_13_0" x1="1583" y1="857.7345275878906" x2="1824.9990234375" y2="857.7345275878906" gradientUnits="userSpaceOnUse"><stop offset="0" stop-color="#7EA2CF" /><stop offset="0.2862" stop-color="#00C6FF" /><stop offset="0.6968" stop-color="#92FE9D" /><stop offset="0.8912" stop-color="#00C8FF" /><stop offset="1" stop-color="#7DA2CE" /></linearGradient></defs></svg>