<svg xmlns="http://www.w3.org/2000/svg" xmlns:xlink="http://www.w3.org/1999/xlink" width="222" height="314" viewBox="1150 834 222 314" fill="none"><path d="M1265.22 836L1256.77 836C1256.43 836 1256.15 836.12 1255.91 836.356C1255.66 836.596 1255.54 836.888 1255.54 837.231L1255.54 883.904C1255.15 884.108 1254.88 884.518 1254.88 884.989L1254.88 909.643C1254.88 910.022 1255.05 910.367 1255.32 910.591L1255.32 925.125L1231.14 925.125L1231.14 924.396C1231.14 924.132 1231.09 923.882 1231 923.639C1230.91 923.397 1230.78 923.181 1230.62 922.991C1230.44 922.794 1230.24 922.637 1230 922.526C1229.75 922.408 1229.49 922.353 1229.22 922.353L1226.89 922.353L1226.89 921.879C1226.89 920.407 1225.7 919.217 1224.22 919.217C1222.75 919.217 1221.55 920.407 1221.55 921.879L1221.55 922.353L1219.23 922.353C1218.96 922.353 1218.69 922.408 1218.44 922.526C1218.21 922.637 1218.01 922.794 1217.83 922.991C1217.66 923.181 1217.54 923.397 1217.45 923.639C1217.35 923.882 1217.31 924.132 1217.31 924.396L1217.31 925.125L1193.55 925.125L1187.33 912.242L1187.1 912.351C1186.82 911.975 1186.37 911.731 1185.86 911.731L1153.56 911.731C1152.7 911.731 1152 912.425 1152 913.281L1152 1143.11C1152 1143.96 1152.7 1144.66 1153.56 1144.66L1185.86 1144.66C1186.66 1144.66 1187.31 1144.06 1187.4 1143.3L1195.84 1143.3C1195.94 1143.3 1196.02 1143.33 1196.1 1143.4L1198.32 1145.43C1198.53 1145.61 1198.76 1145.75 1199.02 1145.85C1199.28 1145.95 1199.55 1146 1199.82 1146L1199.83 1146L1261 1145.42L1261.01 1145.42L1322.17 1146L1322.18 1146C1322.45 1146 1322.72 1145.95 1322.98 1145.85C1323.24 1145.75 1323.48 1145.61 1323.69 1145.43L1325.9 1143.41L1325.9 1143.4C1325.98 1143.33 1326.06 1143.3 1326.16 1143.3L1334.6 1143.3C1334.69 1144.06 1335.34 1144.66 1336.14 1144.66L1368.44 1144.66C1369.3 1144.66 1370 1143.96 1370 1143.11L1370 913.281C1370 912.425 1369.3 911.731 1368.44 911.731L1336.14 911.731C1335.63 911.731 1335.17 911.975 1334.89 912.351L1334.67 912.242L1328.45 925.125L1304.69 925.125L1304.69 924.396C1304.69 924.132 1304.64 923.882 1304.55 923.639C1304.46 923.397 1304.33 923.181 1304.16 922.991C1303.99 922.794 1303.79 922.637 1303.56 922.526C1303.31 922.408 1303.04 922.353 1302.77 922.353L1300.45 922.353L1300.45 921.879C1300.45 920.407 1299.25 919.217 1297.78 919.217C1296.3 919.217 1295.11 920.407 1295.11 921.879L1295.11 922.353L1292.78 922.353C1292.51 922.353 1292.25 922.408 1292 922.526C1291.76 922.637 1291.57 922.794 1291.39 922.991C1291.22 923.181 1291.09 923.397 1291 923.639C1290.91 923.882 1290.86 924.132 1290.86 924.396L1290.86 925.125L1266.67 925.125L1266.67 910.591C1266.94 910.367 1267.12 910.022 1267.12 909.643L1267.12 884.989C1267.12 884.518 1266.85 884.108 1266.46 883.904L1266.46 837.231C1266.46 836.888 1266.34 836.596 1266.09 836.356C1265.85 836.12 1265.56 836 1265.22 836ZM1264.64 837.814L1257.35 837.814L1257.35 846.832L1264.64 846.832L1264.64 837.814ZM1264.64 848.646L1257.35 848.646L1257.35 880.695L1264.64 880.695L1264.64 848.646ZM1264.64 883.767L1257.35 883.767L1257.35 882.5L1264.64 882.5L1264.64 883.767ZM1265.3 909.051L1256.69 909.051L1256.69 885.582L1265.3 885.582L1265.3 909.051ZM1264.86 912.379L1257.14 912.379L1257.14 910.856L1264.86 910.856L1264.86 912.379ZM1153.81 926.411L1185.6 926.411L1185.6 913.546L1153.81 913.546L1153.81 926.411ZM1336.4 926.411L1368.19 926.411L1368.19 913.546L1336.4 913.546L1336.4 926.411ZM1261.01 1013.81L1277.5 1013.74L1293.86 1013.75L1293.9 1013.75C1294.37 1013.77 1294.75 1013.76 1295.03 1013.72C1295.33 1013.68 1295.65 1013.59 1296.01 1013.46C1296.84 1013.13 1297.61 1012.66 1298.28 1012.03C1298.95 1011.42 1299.48 1010.7 1299.9 1009.88L1306.72 996.598C1306.21 995.298 1305.53 994.053 1304.69 992.86C1303.95 991.812 1303.1 990.824 1302.14 989.906C1301.45 989.249 1300.74 988.66 1300.01 988.137C1299.76 987.958 1299.55 987.812 1299.37 987.699L1261.01 987.699L1261.01 985.885L1266.03 985.885L1266.03 972.737L1271.64 972.737L1271.64 985.885L1282.17 985.885L1282.17 972.737L1287.77 972.737L1287.77 985.885L1298.72 985.885L1298.72 977.943C1297.93 976.224 1297.19 974.888 1296.48 973.923C1295.9 973.117 1295.24 972.454 1294.52 971.944C1293.34 971.104 1291.93 970.557 1290.29 970.312C1283.93 969.361 1277.74 969.157 1271.72 969.692L1271.12 969.747L1270.84 969.227L1266.52 961.395L1261.01 961.395L1261.01 959.581L1264.86 959.581L1264.86 914.193L1257.14 914.193L1257.14 959.581L1261 959.581L1261 961.395L1255.49 961.395L1251.17 969.227L1250.89 969.747L1250.29 969.692C1244.27 969.157 1238.08 969.361 1231.72 970.312C1230.08 970.557 1228.67 971.104 1227.49 971.944C1226.77 972.454 1226.11 973.117 1225.52 973.923C1224.82 974.888 1224.08 976.224 1223.29 977.943L1223.29 985.885L1234.23 985.885L1234.23 972.737L1239.82 972.737L1239.82 985.885L1250.36 985.885L1250.36 972.737L1255.96 972.737L1255.96 985.885L1261 985.885L1261 987.699L1222.62 987.699C1222.44 987.812 1222.23 987.958 1221.98 988.137C1221.25 988.66 1220.54 989.249 1219.85 989.906C1218.89 990.824 1218.05 991.812 1217.31 992.86C1216.47 994.053 1215.79 995.298 1215.28 996.598L1222.09 1009.88C1222.51 1010.7 1223.05 1011.42 1223.72 1012.03C1224.39 1012.66 1225.15 1013.13 1225.98 1013.46L1225.99 1013.46C1226.35 1013.59 1226.67 1013.68 1226.97 1013.72C1227.25 1013.76 1227.63 1013.77 1228.1 1013.75L1228.14 1013.75L1244.5 1013.74L1260.99 1013.81L1261.01 1013.81ZM1334.59 943.606L1329.98 926.119L1334.59 916.6L1334.59 943.606ZM1187.41 943.597L1192.02 926.119L1187.41 916.609L1187.41 943.597ZM1225.08 921.879L1225.08 925.125L1223.37 925.125L1223.37 921.879C1223.37 921.409 1223.75 921.031 1224.22 921.031C1224.7 921.031 1225.08 921.409 1225.08 921.879ZM1296.92 921.879L1296.92 925.125L1298.63 925.125L1298.63 921.879C1298.63 921.409 1298.25 921.031 1297.78 921.031C1297.3 921.031 1296.92 921.409 1296.92 921.879ZM1221.55 924.168L1221.55 925.125L1219.13 925.125L1219.13 924.396C1219.13 924.309 1219.15 924.246 1219.2 924.195C1219.21 924.182 1219.21 924.168 1219.22 924.168L1221.55 924.168ZM1229.32 924.396L1229.32 925.125L1226.89 925.125L1226.89 924.168L1229.22 924.168C1229.23 924.168 1229.24 924.182 1229.25 924.195C1229.3 924.246 1229.32 924.309 1229.32 924.396ZM1295.11 924.168L1295.11 925.125L1292.68 925.125L1292.68 924.396C1292.68 924.309 1292.7 924.246 1292.75 924.195C1292.76 924.182 1292.78 924.168 1292.78 924.168L1295.11 924.168ZM1302.87 925.125L1300.45 925.125L1300.45 924.168L1302.77 924.168C1302.78 924.168 1302.79 924.182 1302.8 924.195C1302.85 924.246 1302.87 924.309 1302.87 924.396L1302.87 925.125ZM1221.55 927.76L1221.55 926.93L1193.68 926.93L1193.47 927.76L1221.55 927.76ZM1223.37 926.93L1223.37 933.987C1223.37 934.458 1223.75 934.835 1224.22 934.835C1224.7 934.835 1225.08 934.458 1225.08 933.987L1225.08 926.93L1223.37 926.93ZM1226.89 927.76L1255.32 927.76L1255.32 926.93L1226.89 926.93L1226.89 927.76ZM1266.67 926.93L1266.67 927.76L1295.11 927.76L1295.11 926.93L1266.67 926.93ZM1298.63 933.987L1298.63 926.93L1296.92 926.93L1296.92 933.987C1296.92 934.458 1297.3 934.835 1297.78 934.835C1298.25 934.835 1298.63 934.458 1298.63 933.987ZM1328.31 926.93L1328.53 927.76L1300.45 927.76L1300.45 926.93L1328.31 926.93ZM1185.6 939.896L1185.6 928.225L1153.81 928.225L1153.81 939.896L1185.6 939.896ZM1368.19 939.896L1368.19 928.225L1336.4 928.225L1336.4 939.896L1368.19 939.896ZM1187.69 949.715L1192.99 929.574L1221.55 929.574L1221.55 933.987C1221.55 935.459 1222.75 936.65 1224.22 936.65C1225.7 936.65 1226.89 935.459 1226.89 933.987L1226.89 929.574L1255.32 929.574L1255.32 949.56L1187.69 949.715ZM1266.67 929.574L1266.67 949.56L1334.31 949.715L1329.01 929.574L1300.45 929.574L1300.45 933.987C1300.45 935.459 1299.25 936.65 1297.78 936.65C1296.3 936.65 1295.11 935.459 1295.11 933.987L1295.11 929.574L1266.67 929.574ZM1185.6 950.509L1185.33 951.53L1185.6 951.53L1185.6 953.399L1153.81 953.399L1153.81 941.71L1185.6 941.71L1185.6 950.509ZM1336.4 951.53L1336.67 951.53L1336.4 950.518L1336.4 941.71L1368.19 941.71L1368.19 953.399L1336.4 953.399L1336.4 951.53ZM1255.32 951.366L1187.41 951.53L1187.41 1016.18L1193.69 1002.69L1193.85 1002.33L1194.23 1002.21L1213.38 995.996L1213.38 985.429L1213.64 985.165L1221.62 977.223C1222.47 975.377 1223.28 973.916 1224.06 972.847C1224.76 971.881 1225.56 971.091 1226.44 970.467C1227.86 969.46 1229.53 968.813 1231.45 968.525C1237.75 967.584 1243.88 967.349 1249.86 967.832L1254.16 960.055L1254.41 959.581L1255.32 959.581L1255.32 951.366ZM1266.67 951.366L1266.67 959.581L1267.59 959.581L1267.85 960.055L1272.15 967.832C1278.13 967.349 1284.26 967.584 1290.56 968.525C1292.48 968.813 1294.15 969.46 1295.57 970.467C1296.45 971.091 1297.24 971.881 1297.95 972.847C1298.73 973.92 1299.55 975.387 1300.4 977.241L1308.36 985.165L1308.62 985.429L1308.62 995.996L1327.77 1002.21L1328.15 1002.33L1328.31 1002.69L1334.59 1016.18L1334.59 951.53L1266.67 951.366ZM1153.81 955.204L1153.81 966.893L1185.6 966.893L1185.6 955.204L1153.81 955.204ZM1336.4 955.204L1336.4 966.893L1368.19 966.893L1368.19 955.204L1336.4 955.204ZM1185.6 968.707L1153.81 968.707L1153.81 980.387L1185.6 980.387L1185.6 968.707ZM1368.19 968.707L1336.4 968.707L1336.4 980.387L1368.19 980.387L1368.19 968.707ZM1238.01 974.552L1238.01 985.885L1236.04 985.885L1236.04 974.552L1238.01 974.552ZM1254.15 974.552L1254.15 985.885L1252.17 985.885L1252.17 974.552L1254.15 974.552ZM1269.83 985.885L1267.85 985.885L1267.85 974.552L1269.83 974.552L1269.83 985.885ZM1285.96 985.885L1283.99 985.885L1283.99 974.552L1285.96 974.552L1285.96 985.885ZM1221.48 979.931L1221.48 986.286C1221.31 986.396 1221.13 986.525 1220.93 986.669C1220.13 987.242 1219.35 987.888 1218.6 988.602C1217.55 989.602 1216.62 990.667 1215.82 991.811C1215.6 992.121 1215.39 992.434 1215.19 992.751L1215.19 986.177L1221.48 979.931ZM1300.54 986.295L1300.54 979.94L1306.81 986.177L1306.81 992.751C1306.61 992.434 1306.39 992.121 1306.18 991.811C1305.37 990.667 1304.44 989.602 1303.39 988.602C1302.64 987.888 1301.87 987.242 1301.07 986.669C1300.88 986.528 1300.71 986.404 1300.54 986.295ZM1185.6 982.201L1153.81 982.201L1153.81 993.872L1185.6 993.872L1185.6 982.201ZM1368.19 982.201L1336.4 982.201L1336.4 993.872L1368.19 993.872L1368.19 982.201ZM1185.6 995.686L1153.81 995.686L1153.81 1007.38L1185.6 1007.38L1185.6 995.686ZM1368.19 995.686L1336.4 995.686L1336.4 1007.38L1368.19 1007.38L1368.19 995.686ZM1205.28 1000.53L1213.28 997.938L1210.71 1031.33L1205.28 1000.53ZM1308.72 997.938L1311.29 1031.33L1316.72 1000.53L1308.72 997.938ZM1261 1110.3L1261.01 1110.3L1279.97 1110.18L1298.36 1094.4L1310.01 1038.52L1307.05 999.926L1301.52 1010.71C1301.01 1011.72 1300.33 1012.61 1299.51 1013.37C1298.93 1013.9 1298.3 1014.34 1297.62 1014.71C1297.65 1014.76 1297.68 1014.81 1297.7 1014.86C1298.16 1015.71 1298.55 1016.57 1298.88 1017.44C1299.36 1018.67 1299.68 1019.82 1299.86 1020.91C1300.08 1022.3 1300.04 1023.55 1299.75 1024.65L1294.85 1045.9C1294.81 1046.11 1294.85 1046.32 1294.95 1046.53C1296.87 1050.24 1298.11 1053.88 1298.67 1057.45C1299.21 1060.87 1299.12 1064.16 1298.4 1067.32C1297.71 1070.36 1296.45 1073.2 1294.63 1075.84C1292.88 1078.39 1290.66 1080.67 1287.98 1082.69C1287.78 1082.83 1287.67 1083.01 1287.63 1083.22L1287.63 1083.24L1287.62 1083.27L1285.65 1091.67L1285.65 1091.69C1285.33 1093.15 1284.73 1094.47 1283.84 1095.64C1282.91 1096.86 1281.78 1097.8 1280.45 1098.44L1280.42 1098.45L1280.41 1098.46L1280.38 1098.47L1280.34 1098.5C1279.4 1098.93 1278.37 1099.15 1277.23 1099.15L1246.69 1099.15C1245.55 1099.15 1244.52 1098.93 1243.59 1098.5L1243.54 1098.48L1243.52 1098.47L1243.51 1098.46L1243.48 1098.45C1242.14 1097.8 1241.02 1096.87 1240.1 1095.65C1239.21 1094.48 1238.6 1093.15 1238.27 1091.69L1222.25 1024.66C1221.96 1023.56 1221.92 1022.31 1222.14 1020.91C1222.32 1019.82 1222.64 1018.67 1223.12 1017.44C1223.45 1016.57 1223.84 1015.71 1224.3 1014.86C1224.32 1014.81 1224.35 1014.76 1224.38 1014.71C1223.7 1014.34 1223.07 1013.9 1222.49 1013.37C1221.67 1012.61 1221 1011.72 1220.48 1010.71L1214.95 999.926L1211.99 1038.52L1223.65 1094.4L1242.03 1110.18L1261 1110.3ZM1209.19 1038.23L1210.04 1037.96L1203.54 1001.09L1202.65 1001.39L1209.19 1038.23ZM1312.81 1038.23L1319.35 1001.39L1318.46 1001.09L1311.96 1037.96L1312.81 1038.23ZM1200.91 1001.95L1195.17 1003.81L1186.47 1022.53L1192.7 1039.71L1202.06 1040.55L1207.45 1038.8L1200.91 1001.95ZM1319.94 1040.55L1314.55 1038.8L1321.09 1001.95L1326.83 1003.81L1335.53 1022.53L1329.3 1039.71L1319.94 1040.55ZM1185.6 1009.19L1153.81 1009.19L1153.81 1020.86L1185.24 1020.86L1185.6 1020.09L1185.6 1009.19ZM1368.19 1009.19L1336.4 1009.19L1336.4 1020.09L1336.39 1020.09L1336.76 1020.86L1368.19 1020.86L1368.19 1009.19ZM1246.69 1097.34L1277.23 1097.34C1278.08 1097.34 1278.85 1097.18 1279.54 1096.86C1279.58 1096.84 1279.63 1096.82 1279.68 1096.8C1280.74 1096.28 1281.64 1095.54 1282.38 1094.56C1283.11 1093.59 1283.62 1092.5 1283.88 1091.28L1283.88 1091.28L1285.85 1082.88C1285.91 1082.55 1286.04 1082.24 1286.22 1081.96C1286.39 1081.68 1286.62 1081.44 1286.89 1081.24C1289.42 1079.33 1291.5 1077.19 1293.14 1074.81C1294.82 1072.36 1295.98 1069.73 1296.62 1066.92C1297.29 1063.99 1297.38 1060.93 1296.88 1057.73C1296.35 1054.35 1295.17 1050.89 1293.34 1047.36C1293.2 1047.08 1293.11 1046.78 1293.06 1046.47C1293.01 1046.16 1293.02 1045.85 1293.08 1045.54L1293.08 1045.52L1293.09 1045.51L1297.98 1024.23L1297.99 1024.22L1297.99 1024.2C1298.22 1023.34 1298.24 1022.34 1298.06 1021.19C1297.91 1020.23 1297.62 1019.2 1297.19 1018.1C1296.88 1017.3 1296.52 1016.5 1296.1 1015.71C1296.04 1015.6 1295.98 1015.49 1295.93 1015.39C1295.85 1015.41 1295.78 1015.43 1295.71 1015.44C1296.07 1016.18 1296.38 1016.92 1296.65 1017.67C1297.07 1018.84 1297.34 1019.94 1297.48 1021C1297.66 1022.35 1297.6 1023.58 1297.31 1024.67L1297.3 1024.67L1291.84 1045.33C1291.79 1045.6 1291.85 1045.85 1292.01 1046.08L1292.01 1046.09C1294.01 1048.97 1295.39 1052.09 1296.16 1055.43C1296.93 1058.7 1297.05 1061.96 1296.54 1065.21C1296.02 1068.51 1294.87 1071.56 1293.1 1074.34C1291.26 1077.26 1288.84 1079.7 1285.86 1081.68C1285.65 1081.82 1285.52 1082 1285.47 1082.21L1285.47 1082.22L1283.22 1091.7L1283.22 1091.7C1282.95 1092.77 1282.42 1093.71 1281.63 1094.52C1280.97 1095.19 1280.17 1095.76 1279.2 1096.21C1278.42 1096.58 1277.58 1096.85 1276.69 1097.03C1275.94 1097.18 1275.27 1097.25 1274.7 1097.22L1261.01 1097.22L1261.01 1095.42L1274.77 1095.42C1275.19 1095.44 1275.71 1095.38 1276.32 1095.25C1277.07 1095.1 1277.78 1094.87 1278.43 1094.57C1279.2 1094.21 1279.83 1093.78 1280.33 1093.26C1280.89 1092.69 1281.27 1092.01 1281.46 1091.27L1283.7 1081.82L1283.71 1081.81C1283.78 1081.47 1283.92 1081.16 1284.13 1080.87C1284.32 1080.6 1284.57 1080.36 1284.85 1080.17C1287.62 1078.33 1289.86 1076.07 1291.57 1073.37C1293.2 1070.79 1294.26 1067.98 1294.74 1064.93C1295.22 1061.91 1295.11 1058.88 1294.4 1055.84C1293.67 1052.72 1292.38 1049.82 1290.52 1047.12C1290.3 1046.81 1290.15 1046.46 1290.07 1046.09C1289.99 1045.71 1289.99 1045.34 1290.06 1044.96L1290.06 1044.93L1290.07 1044.9L1295.55 1024.21L1295.55 1024.2C1295.78 1023.33 1295.83 1022.35 1295.68 1021.23C1295.56 1020.31 1295.31 1019.33 1294.94 1018.28C1294.67 1017.53 1294.35 1016.77 1293.97 1016.04C1293.89 1015.86 1293.8 1015.7 1293.73 1015.56L1277.5 1015.55L1261 1015.63L1244.5 1015.55L1228.27 1015.56C1228.2 1015.7 1228.11 1015.86 1228.03 1016.04C1227.65 1016.77 1227.33 1017.53 1227.06 1018.28C1226.69 1019.33 1226.44 1020.31 1226.32 1021.23C1226.17 1022.35 1226.22 1023.33 1226.45 1024.2L1226.45 1024.22L1226.46 1024.22L1242.48 1091.27L1242.49 1091.28C1242.68 1092.02 1243.05 1092.69 1243.61 1093.26C1244.12 1093.78 1244.75 1094.21 1245.51 1094.57C1246.17 1094.87 1246.87 1095.1 1247.62 1095.25C1248.23 1095.38 1248.75 1095.44 1249.17 1095.42L1260.99 1095.42L1260.99 1097.22L1249.24 1097.22C1248.67 1097.25 1248 1097.18 1247.25 1097.03C1246.36 1096.85 1245.53 1096.58 1244.74 1096.21C1243.78 1095.76 1242.97 1095.19 1242.31 1094.52C1241.52 1093.71 1240.99 1092.77 1240.72 1091.7L1240.72 1091.7L1224.69 1024.66C1224.4 1023.57 1224.34 1022.35 1224.52 1021C1224.66 1019.94 1224.93 1018.84 1225.35 1017.67C1225.62 1016.92 1225.94 1016.18 1226.29 1015.44C1226.22 1015.43 1226.15 1015.41 1226.07 1015.39C1226.02 1015.49 1225.96 1015.59 1225.9 1015.71C1225.48 1016.5 1225.12 1017.3 1224.81 1018.1C1224.38 1019.2 1224.09 1020.23 1223.94 1021.19C1223.76 1022.34 1223.78 1023.34 1224.01 1024.2L1224.01 1024.22L1240.04 1091.28L1240.05 1091.28L1240.05 1091.29C1240.32 1092.51 1240.81 1093.59 1241.54 1094.56C1242.29 1095.54 1243.19 1096.29 1244.26 1096.81C1244.3 1096.83 1244.35 1096.85 1244.39 1096.87C1245.08 1097.19 1245.84 1097.34 1246.69 1097.34ZM1246.32 1025.87C1246.32 1029.7 1243.2 1032.81 1239.36 1032.81C1235.51 1032.81 1232.39 1029.7 1232.39 1025.87C1232.39 1022.03 1235.51 1018.92 1239.36 1018.92C1243.2 1018.92 1246.32 1022.03 1246.32 1025.87ZM1244.5 1025.87C1244.5 1023.03 1242.2 1020.73 1239.36 1020.73C1236.51 1020.73 1234.21 1023.03 1234.21 1025.87C1234.21 1028.7 1236.51 1031 1239.36 1031C1242.2 1031 1244.5 1028.7 1244.5 1025.87ZM1184.59 1022.67L1153.81 1022.67L1153.81 1034.35L1185.6 1034.35L1185.6 1025.46L1184.64 1022.79L1184.59 1022.67ZM1368.19 1022.67L1337.41 1022.67L1337.36 1022.79L1336.4 1025.46L1336.4 1034.35L1368.19 1034.35L1368.19 1022.67ZM1221.88 1030.77C1221.88 1032.57 1220.41 1034.03 1218.61 1034.03C1216.81 1034.03 1215.35 1032.57 1215.35 1030.77C1215.35 1028.97 1216.81 1027.51 1218.61 1027.51C1220.41 1027.51 1221.88 1028.97 1221.88 1030.77ZM1304.03 1034.03C1305.83 1034.03 1307.29 1032.57 1307.29 1030.77C1307.29 1028.97 1305.83 1027.51 1304.03 1027.51C1302.23 1027.51 1300.77 1028.97 1300.77 1030.77C1300.77 1032.57 1302.23 1034.03 1304.03 1034.03ZM1281.28 1040.16C1278.89 1039.01 1276.37 1038.29 1273.74 1038.02L1273.74 1030.13C1273.74 1029.27 1273.03 1028.56 1272.17 1028.56L1269.65 1028.56C1268.78 1028.56 1268.07 1029.27 1268.07 1030.13L1268.07 1038.11C1265.52 1038.47 1263.1 1039.24 1260.8 1040.42C1258.32 1041.69 1256.14 1043.36 1254.27 1045.42C1252.38 1047.5 1250.93 1049.83 1249.91 1052.43C1248.85 1055.11 1248.31 1057.91 1248.31 1060.82C1248.31 1073.49 1258.61 1083.75 1271.3 1083.75C1284 1083.75 1294.29 1073.49 1294.29 1060.82C1294.29 1057.84 1293.74 1054.99 1292.63 1052.25C1291.56 1049.61 1290.04 1047.23 1288.08 1045.14C1286.12 1043.05 1283.85 1041.4 1281.28 1040.16ZM1220.06 1030.77C1220.06 1029.97 1219.41 1029.32 1218.61 1029.32C1217.81 1029.32 1217.16 1029.97 1217.16 1030.77C1217.16 1031.57 1217.81 1032.21 1218.61 1032.21C1219.41 1032.21 1220.06 1031.57 1220.06 1030.77ZM1304.03 1029.32C1304.83 1029.32 1305.48 1029.97 1305.48 1030.77C1305.48 1031.57 1304.83 1032.21 1304.03 1032.21C1303.23 1032.21 1302.58 1031.57 1302.58 1030.77C1302.58 1029.97 1303.23 1029.32 1304.03 1029.32ZM1271.3 1046.07C1270.83 1046.07 1270.35 1046.09 1269.88 1046.13L1269.88 1030.38L1271.93 1030.38L1271.93 1046.08C1271.72 1046.08 1271.51 1046.07 1271.3 1046.07ZM1197.38 1074.28L1207.87 1083.28L1207.87 1108.5L1187.41 1108.5L1187.41 1030.46L1191.19 1040.86L1191.39 1041.4L1191.95 1041.46L1201.21 1042.3L1200.71 1049.37L1200.69 1049.65L1200.84 1049.9L1204.78 1056.36L1194.94 1059.92L1194.21 1060.19L1194.36 1060.96L1197.08 1073.78L1197.15 1074.08L1197.38 1074.28ZM1334.59 1030.46L1330.81 1040.86L1330.61 1041.4L1330.05 1041.46L1320.79 1042.3L1321.29 1049.37L1321.31 1049.65L1321.16 1049.9L1317.22 1056.36L1327.06 1059.92L1327.8 1060.19L1327.64 1060.96L1324.92 1073.78L1324.85 1074.08L1324.61 1074.28L1314.13 1083.27L1314.13 1108.5L1334.59 1108.5L1334.59 1030.46ZM1314.13 1110.31L1314.13 1111.4L1334.59 1111.4L1334.59 1110.31L1314.13 1110.31ZM1314.13 1113.2L1314.13 1142.11L1320.9 1142.17L1320.92 1142.17C1321.02 1142.17 1321.1 1142.15 1321.17 1142.08L1323.39 1140.05L1323.4 1140.05L1323.4 1140.04C1323.6 1139.86 1323.83 1139.72 1324.08 1139.63C1324.34 1139.53 1324.6 1139.47 1324.87 1139.47L1334.59 1139.47L1334.59 1113.2L1327.87 1113.2L1327.87 1116.34L1331.47 1122.72C1331.57 1122.88 1331.61 1123.04 1331.61 1123.22C1331.61 1123.4 1331.56 1123.56 1331.47 1123.71C1331.39 1123.85 1331.28 1123.95 1331.14 1124.04C1330.99 1124.13 1330.82 1124.18 1330.64 1124.18L1318.47 1124.18C1318.29 1124.18 1318.12 1124.13 1317.96 1124.04C1317.82 1123.95 1317.72 1123.85 1317.63 1123.71C1317.55 1123.56 1317.5 1123.4 1317.5 1123.22C1317.5 1123.05 1317.54 1122.88 1317.62 1122.73L1321.11 1116.35L1321.11 1113.2L1314.13 1113.2ZM1312.29 1142.09L1312.29 1084.84L1304.29 1091.7L1304.29 1142.02L1312.29 1142.09ZM1185.6 1036.17L1153.81 1036.17L1153.81 1047.85L1185.6 1047.85L1185.6 1036.17ZM1368.19 1036.17L1336.4 1036.17L1336.4 1047.85L1368.19 1047.85L1368.19 1036.17ZM1202.54 1049.21L1203.04 1042.15L1210.38 1039.75L1221.38 1092.47L1219.43 1090.79L1212.73 1057.19L1212.6 1056.54L1211.93 1056.47L1206.66 1055.96L1202.54 1049.21ZM1318.96 1042.15L1311.62 1039.75L1300.62 1092.46L1302.58 1090.79L1309.27 1057.19L1309.4 1056.54L1310.08 1056.47L1315.34 1055.96L1319.46 1049.21L1318.96 1042.15ZM1286.98 1061.72C1286.98 1053.91 1281.24 1047.43 1273.74 1046.26L1273.74 1039.84C1276.1 1040.11 1278.35 1040.76 1280.49 1041.79C1282.86 1042.94 1284.94 1044.46 1286.75 1046.38C1288.56 1048.31 1289.96 1050.49 1290.94 1052.93C1291.96 1055.45 1292.47 1058.08 1292.47 1060.82C1292.47 1072.49 1283 1081.95 1271.3 1081.95C1259.61 1081.95 1250.14 1072.49 1250.14 1060.82C1250.14 1058.14 1250.62 1055.56 1251.59 1053.09C1252.54 1050.7 1253.88 1048.56 1255.61 1046.65C1257.34 1044.74 1259.35 1043.2 1261.63 1042.03C1263.67 1040.98 1265.82 1040.29 1268.07 1039.94L1268.07 1046.41C1260.96 1047.89 1255.62 1054.18 1255.62 1061.72C1255.62 1070.36 1262.64 1077.36 1271.3 1077.36C1279.96 1077.36 1286.98 1070.36 1286.98 1061.72ZM1285.16 1061.72C1285.16 1054.08 1278.96 1047.89 1271.3 1047.89C1263.65 1047.89 1257.44 1054.08 1257.44 1061.72C1257.44 1069.36 1263.65 1075.55 1271.3 1075.55C1278.96 1075.55 1285.16 1069.36 1285.16 1061.72ZM1153.81 1061.35L1153.81 1049.66L1185.6 1049.66L1185.6 1061.35L1153.81 1061.35ZM1368.19 1049.66L1336.4 1049.66L1336.4 1061.35L1368.19 1061.35L1368.19 1049.66ZM1227.44 1057.85C1227.44 1059.65 1225.98 1061.11 1224.18 1061.11C1222.38 1061.11 1220.91 1059.65 1220.91 1057.85C1220.91 1056.05 1222.38 1054.6 1224.18 1054.6C1225.98 1054.6 1227.44 1056.05 1227.44 1057.85ZM1225.62 1057.85C1225.62 1057.05 1224.98 1056.41 1224.18 1056.41C1223.38 1056.41 1222.73 1057.05 1222.73 1057.85C1222.73 1058.65 1223.38 1059.29 1224.18 1059.29C1224.98 1059.29 1225.62 1058.65 1225.62 1057.85ZM1206.25 1057.75L1196.31 1061.35L1198.8 1073.1L1217.2 1088.88L1211.08 1058.22L1206.25 1057.75ZM1323.2 1073.1L1304.81 1088.88L1310.92 1058.22L1315.75 1057.75L1325.69 1061.35L1323.2 1073.1ZM1153.81 1063.16L1185.6 1063.16L1185.6 1074.84L1153.81 1074.84L1153.81 1063.16ZM1368.19 1063.16L1336.4 1063.16L1336.4 1074.84L1368.19 1074.84L1368.19 1063.16ZM1153.81 1076.65L1185.6 1076.65L1185.6 1088.33L1153.81 1088.33L1153.81 1076.65ZM1368.19 1076.65L1336.4 1076.65L1336.4 1088.33L1368.19 1088.33L1368.19 1076.65ZM1233.3 1083.84C1233.3 1085.64 1231.84 1087.1 1230.04 1087.1C1228.24 1087.1 1226.78 1085.64 1226.78 1083.84C1226.78 1082.05 1228.24 1080.59 1230.04 1080.59C1231.84 1080.59 1233.3 1082.05 1233.3 1083.84ZM1292.6 1087.1C1294.4 1087.1 1295.86 1085.64 1295.86 1083.84C1295.86 1082.05 1294.4 1080.59 1292.6 1080.59C1290.8 1080.59 1289.34 1082.05 1289.34 1083.84C1289.34 1085.64 1290.8 1087.1 1292.6 1087.1ZM1231.49 1083.84C1231.49 1083.05 1230.84 1082.4 1230.04 1082.4C1229.24 1082.4 1228.59 1083.05 1228.59 1083.84C1228.59 1084.64 1229.24 1085.29 1230.04 1085.29C1230.84 1085.29 1231.49 1084.64 1231.49 1083.84ZM1292.6 1082.4C1293.4 1082.4 1294.05 1083.05 1294.05 1083.84C1294.05 1084.64 1293.4 1085.29 1292.6 1085.29C1291.8 1085.29 1291.15 1084.64 1291.15 1083.84C1291.15 1083.05 1291.8 1082.4 1292.6 1082.4ZM1209.71 1142.09L1209.71 1084.85L1217.7 1091.7L1217.7 1142.02L1209.71 1142.09ZM1153.81 1090.15L1185.6 1090.15L1185.6 1101.82L1153.81 1101.82L1153.81 1090.15ZM1368.19 1090.15L1336.4 1090.15L1336.4 1101.82L1368.19 1101.82L1368.19 1090.15ZM1219.52 1093.26L1221.27 1094.76L1221.27 1141.89L1219.52 1141.89L1219.52 1093.26ZM1300.73 1094.76L1300.73 1141.89L1302.47 1141.89L1302.47 1093.26L1300.73 1094.76ZM1229.13 1141.9L1229.13 1101.51L1223.08 1096.32L1223.08 1141.96L1229.13 1141.9ZM1292.87 1101.51L1292.87 1141.9L1298.91 1141.96L1298.91 1096.32L1292.87 1101.51ZM1230.95 1141.88L1232.69 1141.87L1232.69 1104.56L1230.95 1103.06L1230.95 1141.88ZM1289.3 1104.56L1289.3 1141.87L1291.05 1141.88L1291.05 1103.06L1289.3 1104.56ZM1153.81 1103.64L1185.6 1103.64L1185.6 1115.32L1153.81 1115.32L1153.81 1103.64ZM1368.19 1103.64L1336.4 1103.64L1336.4 1115.32L1368.19 1115.32L1368.19 1103.64ZM1240.56 1141.79L1234.51 1141.85L1234.51 1106.11L1240.56 1111.31L1240.56 1141.79ZM1287.49 1141.85L1281.44 1141.79L1281.44 1111.31L1287.49 1106.12L1287.49 1141.85ZM1207.87 1110.31L1207.87 1111.4L1187.41 1111.4L1187.41 1110.31L1207.87 1110.31ZM1261 1143.05L1261.02 1141.59L1264.66 1141.62L1264.66 1112.08L1261.01 1112.1L1261 1110.77L1260.99 1112.1L1257.34 1112.08L1257.34 1141.62L1260.99 1141.59L1261 1143.05ZM1242.39 1141.76L1242.39 1111.99L1244.12 1112L1244.12 1141.75L1243.09 1141.76L1242.39 1141.76ZM1277.88 1112L1279.61 1111.99L1279.61 1141.76L1278.91 1141.76L1277.88 1141.75L1277.88 1112ZM1245.93 1141.73L1245.93 1112.01L1251.96 1112.05L1251.96 1141.68L1245.93 1141.73ZM1276.07 1112.01L1276.07 1141.73L1270.04 1141.68L1270.04 1112.05L1276.07 1112.01ZM1253.78 1141.64L1253.78 1112.05L1255.52 1112.07L1255.52 1141.64L1253.78 1141.64ZM1266.48 1112.07L1268.22 1112.05L1268.22 1141.64L1266.48 1141.64L1266.48 1112.07ZM1207.87 1113.2L1207.87 1142.11L1201.1 1142.17L1201.09 1142.17C1200.99 1142.17 1200.91 1142.15 1200.84 1142.08L1198.61 1140.05L1198.6 1140.04C1198.4 1139.86 1198.18 1139.72 1197.93 1139.63C1197.67 1139.53 1197.4 1139.47 1197.13 1139.47L1187.41 1139.47L1187.41 1113.2L1194.13 1113.2L1194.13 1116.34L1190.53 1122.72C1190.43 1122.88 1190.39 1123.04 1190.39 1123.22C1190.39 1123.4 1190.44 1123.56 1190.53 1123.71C1190.61 1123.85 1190.73 1123.95 1190.86 1124.04C1191.02 1124.13 1191.18 1124.18 1191.36 1124.18L1203.53 1124.18C1203.71 1124.18 1203.88 1124.13 1204.04 1124.04C1204.18 1123.95 1204.28 1123.85 1204.37 1123.71C1204.45 1123.56 1204.5 1123.4 1204.5 1123.22C1204.5 1123.05 1204.46 1122.88 1204.38 1122.73L1200.89 1116.35L1200.89 1113.2L1207.87 1113.2ZM1199.07 1113.2L1199.07 1116.81L1199.18 1117.01L1202.1 1122.37L1192.82 1122.37L1195.84 1117.02L1195.95 1116.81L1195.95 1113.2L1199.07 1113.2ZM1322.93 1113.2L1322.93 1116.81L1322.82 1117.01L1319.9 1122.37L1329.19 1122.37L1326.17 1117.02L1326.05 1116.81L1326.05 1113.2L1322.93 1113.2ZM1153.81 1117.13L1185.6 1117.13L1185.6 1128.81L1153.81 1128.81L1153.81 1117.13ZM1368.19 1117.13L1336.4 1117.13L1336.4 1128.81L1368.19 1128.81L1368.19 1117.13ZM1153.81 1130.63L1185.6 1130.63L1185.6 1142.85L1153.81 1142.85L1153.81 1130.63ZM1368.19 1130.63L1336.4 1130.63L1336.4 1142.85L1368.19 1142.85L1368.19 1130.63ZM1334.59 1141.29L1324.87 1141.29C1324.77 1141.29 1324.68 1141.33 1324.6 1141.4L1322.4 1143.41C1322.19 1143.6 1321.95 1143.75 1321.69 1143.85C1321.43 1143.95 1321.17 1143.98 1320.9 1143.98L1320.88 1143.98L1291.96 1143.7L1287.49 1143.7L1287.49 1143.66L1278.9 1143.57L1276.07 1143.57L1276.07 1143.55L1266.27 1143.46L1264.66 1143.46L1264.66 1143.44L1261.01 1143.4L1261 1143.4L1257.34 1143.44L1257.34 1143.46L1255.73 1143.46L1245.93 1143.55L1245.93 1143.57L1243.1 1143.57L1234.51 1143.66L1234.51 1143.7L1230.04 1143.7L1201.12 1143.98L1201.11 1143.98C1200.84 1143.98 1200.57 1143.95 1200.31 1143.85C1200.05 1143.75 1199.82 1143.6 1199.61 1143.41L1197.4 1141.4C1197.32 1141.33 1197.23 1141.29 1197.13 1141.29L1187.41 1141.29L1187.41 1141.49L1195.84 1141.49C1196.11 1141.49 1196.38 1141.53 1196.64 1141.63C1196.89 1141.73 1197.11 1141.87 1197.31 1142.05L1197.32 1142.06L1199.55 1144.09C1199.62 1144.15 1199.7 1144.19 1199.8 1144.19L1199.8 1144.19L1260.99 1143.6L1261 1144.18L1261.02 1143.6L1322.2 1144.19L1322.21 1144.19C1322.31 1144.19 1322.39 1144.15 1322.46 1144.09L1324.68 1142.06L1324.69 1142.06L1324.69 1142.05C1324.89 1141.87 1325.12 1141.73 1325.37 1141.63C1325.63 1141.53 1325.89 1141.49 1326.16 1141.49L1334.59 1141.49L1334.59 1141.29Z" fill-rule="evenodd" fill="url(#linear_fill_7_1504)" /><defs><filter id="filter_23_42" x="0" y="0" width="1920" height="121" filterUnits="userSpaceOnUse" color-interpolation-filters="sRGB"><feFlood flood-opacity="0" result="feFloodId_23_42" /><feColorMatrix in="SourceAlpha" type="matrix" values="0 0 0 0 0 0 0 0 0 0 0 0 0 0 0 0 0 0 127 0" result="hardAlpha_23_42" /><feOffset dx="0" dy="1" /><feComposite in2="hardAlpha_23_42" operator="out" /><feColorMatrix type="matrix" values="0 0 0 0 0.27450980392156865 0 0 0 0 0.36470588235294116 0 0 0 0 0.47843137254901963 0 0 0 1 0" /><feBlend mode="normal" in2="feFloodId_23_42" result="dropShadow_1_23_42" /><feBlend mode="normal" in="SourceGraphic" in2="dropShadow_1_23_42" result="shape_23_42" /></filter><filter id="filter_6_7686" x="1017.999999682108" y="436.9999996821084" width="48.00000063578409" height="18.00000063578318" filterUnits="userSpaceOnUse" color-interpolation-filters="sRGB"><feFlood flood-opacity="0" result="feFloodId_6_7686" /><feColorMatrix in="SourceAlpha" type="matrix" values="0 0 0 0 0 0 0 0 0 0 0 0 0 0 0 0 0 0 127 0" result="hardAlpha_6_7686" /><feOffset dx="0" dy="0" /><feGaussianBlur stdDeviation="3.000000158945795" /><feComposite in2="hardAlpha_6_7686" operator="out" /><feColorMatrix type="matrix" values="0 0 0 0 0 0 0 0 0 0.4470588235294118 0 0 0 0 1 0 0 0 1 0" /><feBlend mode="normal" in2="feFloodId_6_7686" result="dropShadow_1_6_7686" /><feBlend mode="normal" in="SourceGraphic" in2="dropShadow_1_6_7686" result="shape_6_7686" /></filter><filter id="filter_6_7690" x="922" y="422" width="48" height="48" filterUnits="userSpaceOnUse" color-interpolation-filters="sRGB"><feFlood flood-opacity="0" result="feFloodId_6_7690" /><feColorMatrix in="SourceAlpha" type="matrix" values="0 0 0 0 0 0 0 0 0 0 0 0 0 0 0 0 0 0 127 0" result="hardAlpha_6_7690" /><feOffset dx="0" dy="0" /><feGaussianBlur stdDeviation="3" /><feComposite in2="hardAlpha_6_7690" operator="out" /><feColorMatrix type="matrix" values="0 0 0 0 0 0 0 0 0 0.4470588235294118 0 0 0 0 1 0 0 0 1 0" /><feBlend mode="normal" in2="feFloodId_6_7690" result="dropShadow_1_6_7690" /><feBlend mode="normal" in="SourceGraphic" in2="dropShadow_1_6_7690" result="shape_6_7690" /></filter><linearGradient id="linear_fill_4_1419_0" x1="1468" y1="334" x2="1468" y2="294" gradientUnits="userSpaceOnUse"><stop offset="0" stop-color="#0072FF" /><stop offset="1" stop-color="#00C8FF" /></linearGradient><filter id="filter_4_1419" x="1446" y="294" width="43.998046875" height="43.998046875" filterUnits="userSpaceOnUse" color-interpolation-filters="sRGB"><feFlood flood-opacity="0" result="feFloodId_4_1419" /><feColorMatrix in="SourceAlpha" type="matrix" values="0 0 0 0 0 0 0 0 0 0 0 0 0 0 0 0 0 0 127 0" result="hardAlpha_4_1419" /><feOffset dx="0" dy="2" /><feGaussianBlur stdDeviation="1" /><feComposite in2="hardAlpha_4_1419" operator="out" /><feColorMatrix type="matrix" values="0 0 0 0 0 0 0 0 0 0 0 0 0 0 0 0 0 0 0.5 0" /><feBlend mode="normal" in2="feFloodId_4_1419" result="dropShadow_1_4_1419" /><feBlend mode="normal" in="SourceGraphic" in2="dropShadow_1_4_1419" result="shape_4_1419" /></filter><filter id="filter_4_1420" x="1453.99951171875" y="301.99993896484375" width="28" height="27.9990234375" filterUnits="userSpaceOnUse" color-interpolation-filters="sRGB"><feFlood flood-opacity="0" result="feFloodId_4_1420" /><feColorMatrix in="SourceAlpha" type="matrix" values="0 0 0 0 0 0 0 0 0 0 0 0 0 0 0 0 0 0 127 0" result="hardAlpha_4_1420" /><feOffset dx="0" dy="2" /><feGaussianBlur stdDeviation="2" /><feComposite in2="hardAlpha_4_1420" operator="out" /><feColorMatrix type="matrix" values="0 0 0 0 0 0 0 0 0 0.4470588235294118 0 0 0 0 1 0 0 0 1 0" /><feBlend mode="normal" in2="feFloodId_4_1420" result="dropShadow_1_4_1420" /><feBlend mode="normal" in="SourceGraphic" in2="dropShadow_1_4_1420" result="shape_4_1420" /></filter><linearGradient id="linear_fill_2_2195_0" x1="1608" y1="334" x2="1608" y2="294" gradientUnits="userSpaceOnUse"><stop offset="0" stop-color="#0072FF" /><stop offset="1" stop-color="#00C8FF" /></linearGradient><filter id="filter_2_2195" x="1548.001953125" y="292" width="43.998046875" height="43.998046875" filterUnits="userSpaceOnUse" color-interpolation-filters="sRGB"><feFlood flood-opacity="0" result="feFloodId_2_2195" /><feColorMatrix in="SourceAlpha" type="matrix" values="0 0 0 0 0 0 0 0 0 0 0 0 0 0 0 0 0 0 127 0" result="hardAlpha_2_2195" /><feOffset dx="2" dy="0" /><feGaussianBlur stdDeviation="1" /><feComposite in2="hardAlpha_2_2195" operator="out" /><feColorMatrix type="matrix" values="0 0 0 0 0 0 0 0 0 0 0 0 0 0 0 0 0 0 0.5 0" /><feBlend mode="normal" in2="feFloodId_2_2195" result="dropShadow_1_2_2195" /><feBlend mode="normal" in="SourceGraphic" in2="dropShadow_1_2_2195" result="shape_2_2195" /></filter><filter id="filter_2_2196" x="1554.00048828125" y="301.99993896484375" width="27.9990234375" height="28" filterUnits="userSpaceOnUse" color-interpolation-filters="sRGB"><feFlood flood-opacity="0" result="feFloodId_2_2196" /><feColorMatrix in="SourceAlpha" type="matrix" values="0 0 0 0 0 0 0 0 0 0 0 0 0 0 0 0 0 0 127 0" result="hardAlpha_2_2196" /><feOffset dx="0" dy="2" /><feGaussianBlur stdDeviation="2" /><feComposite in2="hardAlpha_2_2196" operator="out" /><feColorMatrix type="matrix" values="0 0 0 0 0 0 0 0 0 0.4470588235294118 0 0 0 0 1 0 0 0 1 0" /><feBlend mode="normal" in2="feFloodId_2_2196" result="dropShadow_1_2_2196" /><feBlend mode="normal" in="SourceGraphic" in2="dropShadow_1_2_2196" result="shape_2_2196" /></filter><linearGradient id="linear_fill_3zR3iDLegKgKmshlGodIa" x1="1560" y1="432" x2="1560" y2="460.00006103515625" gradientUnits="userSpaceOnUse"><stop offset="0" stop-color="#EDF5FF" /><stop offset="1" stop-color="#92C3FF" /></linearGradient><linearGradient id="linear_fill_esC89JAD-pbNi9UHjxqZK" x1="224" y1="293" x2="224" y2="335" gradientUnits="userSpaceOnUse"><stop offset="0" stop-color="#EDF5FF" /><stop offset="1" stop-color="#92C3FF" /></linearGradient><linearGradient id="linear_fill_fQk8cYB63cZNgccwALJlu" x1="108" y1="291" x2="108" y2="337" gradientUnits="userSpaceOnUse"><stop offset="0" stop-color="#EDF5FF" /><stop offset="1" stop-color="#92C3FF" /></linearGradient><mask id="mask-1_853" style="mask-type:alpha" maskUnits="userSpaceOnUse"><path d="M168.952 918L82.4428 822.601C79.1857 819.361 79.1857 814.047 82.4428 810.676L166.346 718L278 718L278 917.87L168.952 917.87L168.952 918Z" fill="#000000" /></mask><linearGradient id="linear_fill_1_855" x1="282.07275390625" y1="818.0653381347656" x2="76.05859375" y2="818.0653381347656" gradientUnits="userSpaceOnUse"><stop offset="0" stop-color="#FFFFFF" stop-opacity="0" /><stop offset="0.6" stop-color="#FFFFFF" stop-opacity="0" /><stop offset="0.8" stop-color="#FFFFFF" stop-opacity="0.05" /><stop offset="1" stop-color="#FFFFFF" stop-opacity="0.25" /></linearGradient><linearGradient id="linear_border_1_856_0" x1="279.38818359375" y1="818.0653991699219" x2="78.74365234375" y2="818.0653991699219" gradientUnits="userSpaceOnUse"><stop offset="0" stop-color="#FFFFFF" stop-opacity="0" /><stop offset="0.6" stop-color="#FFFFFF" stop-opacity="0" /><stop offset="1" stop-color="#FFFFFF" stop-opacity="0.75" /></linearGradient><linearGradient id="linear_border_1_857" x1="262.60888671875" y1="818.0008544921875" x2="99.38134765625" y2="818.0008544921875" gradientUnits="userSpaceOnUse"><stop offset="0" stop-color="#FFFFFF" stop-opacity="0" /><stop offset="0.65" stop-color="#FFFFFF" stop-opacity="0" /><stop offset="1" stop-color="#FFFFFF" stop-opacity="0.75" /></linearGradient><mask id="mask-1_863" style="mask-type:alpha" maskUnits="userSpaceOnUse"><path d="M403.048 718L489.557 813.399C492.814 816.639 492.814 821.953 489.557 825.323L405.654 918L294 918L294 718.13L403.048 718.13L403.048 718Z" fill="#000000" /></mask><linearGradient id="linear_fill_1_865" x1="289.927734375" y1="817.9339599609375" x2="495.94189453125" y2="817.9339599609375" gradientUnits="userSpaceOnUse"><stop offset="0" stop-color="#FFFFFF" stop-opacity="0" /><stop offset="0.6" stop-color="#FFFFFF" stop-opacity="0" /><stop offset="0.8" stop-color="#FFFFFF" stop-opacity="0.05" /><stop offset="1" stop-color="#FFFFFF" stop-opacity="0.25" /></linearGradient><linearGradient id="linear_border_1_866_0" x1="292.61181640625" y1="817.9344177246094" x2="493.25634765625" y2="817.9344177246094" gradientUnits="userSpaceOnUse"><stop offset="0" stop-color="#FFFFFF" stop-opacity="0" /><stop offset="0.6" stop-color="#FFFFFF" stop-opacity="0" /><stop offset="1" stop-color="#FFFFFF" stop-opacity="0.75" /></linearGradient><linearGradient id="linear_border_1_867" x1="309.3916015625" y1="817.9984741210938" x2="472.619140625" y2="817.9984741210938" gradientUnits="userSpaceOnUse"><stop offset="0" stop-color="#FFFFFF" stop-opacity="0" /><stop offset="0.65" stop-color="#FFFFFF" stop-opacity="0" /><stop offset="1" stop-color="#FFFFFF" stop-opacity="0.75" /></linearGradient><mask id="mask-1_905" style="mask-type:alpha" maskUnits="userSpaceOnUse"><path d="M168.952 1150L82.4428 1054.6C79.1857 1051.36 79.1857 1046.05 82.4428 1042.68L166.346 950L278 950L278 1149.87L168.952 1149.87L168.952 1150Z" fill="#000000" /></mask><linearGradient id="linear_fill_1_907" x1="282.07275390625" y1="1050.0653839111328" x2="76.05859375" y2="1050.0653839111328" gradientUnits="userSpaceOnUse"><stop offset="0" stop-color="#FFFFFF" stop-opacity="0" /><stop offset="0.6" stop-color="#FFFFFF" stop-opacity="0" /><stop offset="0.8" stop-color="#FFFFFF" stop-opacity="0.1" /><stop offset="1" stop-color="#FFFFFF" /></linearGradient><linearGradient id="linear_border_1_908_0" x1="279.38818359375" y1="1050.0654296875" x2="78.74365234375" y2="1050.0654296875" gradientUnits="userSpaceOnUse"><stop offset="0" stop-color="#FFFFFF" stop-opacity="0" /><stop offset="0.6" stop-color="#FFFFFF" stop-opacity="0" /><stop offset="1" stop-color="#FFFFFF" /></linearGradient><linearGradient id="linear_border_1_909" x1="262.60888671875" y1="1050.0008850097656" x2="99.38134765625" y2="1050.0008850097656" gradientUnits="userSpaceOnUse"><stop offset="0" stop-color="#FFFFFF" stop-opacity="0" /><stop offset="0.65" stop-color="#FFFFFF" stop-opacity="0" /><stop offset="1" stop-color="#FFFFFF" /></linearGradient><mask id="mask-1_927" style="mask-type:alpha" maskUnits="userSpaceOnUse"><path d="M403.048 950L489.557 1045.4C492.814 1048.64 492.814 1053.95 489.557 1057.32L405.654 1150L294 1150L294 950.13L403.048 950.13L403.048 950Z" fill="#000000" /></mask><linearGradient id="linear_fill_1_929" x1="289.92724609375" y1="1049.9346313476562" x2="495.94140625" y2="1049.9346466064453" gradientUnits="userSpaceOnUse"><stop offset="0" stop-color="#FFFFFF" stop-opacity="0" /><stop offset="0.6" stop-color="#FFFFFF" stop-opacity="0" /><stop offset="0.8" stop-color="#FFFFFF" stop-opacity="0.1" /><stop offset="1" stop-color="#FFFFFF" /></linearGradient><linearGradient id="linear_border_1_930_0" x1="292.61181640625" y1="1049.934555053711" x2="493.25634765625" y2="1049.9345703125" gradientUnits="userSpaceOnUse"><stop offset="0" stop-color="#FFFFFF" stop-opacity="0" /><stop offset="0.6" stop-color="#FFFFFF" stop-opacity="0" /><stop offset="1" stop-color="#FFFFFF" /></linearGradient><linearGradient id="linear_border_1_931" x1="309.39111328125" y1="1049.9991302490234" x2="472.61865234375" y2="1049.9991302490234" gradientUnits="userSpaceOnUse"><stop offset="0" stop-color="#FFFFFF" stop-opacity="0" /><stop offset="0.65" stop-color="#FFFFFF" stop-opacity="0" /><stop offset="1" stop-color="#FFFFFF" /></linearGradient><mask id="mask-2_2157" style="mask-type:alpha" maskUnits="userSpaceOnUse"><path d="M852 822.952L947.399 736.443C950.639 733.186 955.953 733.186 959.323 736.443L1052 820.346L1052 932L852.13 932L852.13 822.952L852 822.952Z" fill="#000000" /></mask><linearGradient id="linear_fill_2_2159" x1="951.9345703125" y1="936.0727233886719" x2="951.9345703125" y2="730.0584716796875" gradientUnits="userSpaceOnUse"><stop offset="0" stop-color="#FFFFFF" stop-opacity="0" /><stop offset="0.6" stop-color="#FFFFFF" stop-opacity="0" /><stop offset="0.8" stop-color="#FFFFFF" stop-opacity="0.1" /><stop offset="1" stop-color="#FFFFFF" /></linearGradient><linearGradient id="linear_border_2_2160_0" x1="951.9345703125" y1="933.3881225585938" x2="951.9345703125" y2="732.74365234375" gradientUnits="userSpaceOnUse"><stop offset="0" stop-color="#FFFFFF" stop-opacity="0" /><stop offset="0.6" stop-color="#FFFFFF" stop-opacity="0" /><stop offset="1" stop-color="#FFFFFF" /></linearGradient><linearGradient id="linear_border_2_2161" x1="951.9990234375" y1="916.6085815429688" x2="951.9990234375" y2="753.3814697265625" gradientUnits="userSpaceOnUse"><stop offset="0" stop-color="#FFFFFF" stop-opacity="0" /><stop offset="0.65" stop-color="#FFFFFF" stop-opacity="0" /><stop offset="1" stop-color="#FFFFFF" /></linearGradient><mask id="mask-2_2166" style="mask-type:alpha" maskUnits="userSpaceOnUse"><path d="M1052 1057.05L956.601 1143.56C953.361 1146.81 948.047 1146.81 944.677 1143.56L852 1059.65L852 948L1051.87 948L1051.87 1057.05L1052 1057.05Z" fill="#000000" /></mask><linearGradient id="linear_fill_2_2168" x1="952.0654296875" y1="943.9272766113281" x2="952.0654296875" y2="1149.941520690918" gradientUnits="userSpaceOnUse"><stop offset="0" stop-color="#FFFFFF" stop-opacity="0" /><stop offset="0.6" stop-color="#FFFFFF" stop-opacity="0" /><stop offset="0.8" stop-color="#FFFFFF" stop-opacity="0.1" /><stop offset="1" stop-color="#FFFFFF" /></linearGradient><linearGradient id="linear_border_2_2169_0" x1="952.0654296875" y1="946.6118774414062" x2="952.0654296875" y2="1147.2563171386719" gradientUnits="userSpaceOnUse"><stop offset="0" stop-color="#FFFFFF" stop-opacity="0" /><stop offset="0.6" stop-color="#FFFFFF" stop-opacity="0" /><stop offset="1" stop-color="#FFFFFF" /></linearGradient><linearGradient id="linear_border_2_2170" x1="952.0009765625" y1="963.3914184570312" x2="952.0009765625" y2="1126.6185607910156" gradientUnits="userSpaceOnUse"><stop offset="0" stop-color="#FFFFFF" stop-opacity="0" /><stop offset="0.65" stop-color="#FFFFFF" stop-opacity="0" /><stop offset="1" stop-color="#FFFFFF" /></linearGradient><mask id="mask-2_2175" style="mask-type:alpha" maskUnits="userSpaceOnUse"><path d="M572 822.952L667.399 736.443C670.639 733.186 675.953 733.186 679.323 736.443L772 820.346L772 932L572.13 932L572.13 822.952L572 822.952Z" fill="#000000" /></mask><linearGradient id="linear_fill_2_2177" x1="671.9345703125" y1="936.0727233886719" x2="671.9345703125" y2="730.0584716796875" gradientUnits="userSpaceOnUse"><stop offset="0" stop-color="#FFFFFF" stop-opacity="0" /><stop offset="0.6" stop-color="#FFFFFF" stop-opacity="0" /><stop offset="0.8" stop-color="#FFFFFF" stop-opacity="0.05" /><stop offset="1" stop-color="#FFFFFF" stop-opacity="0.25" /></linearGradient><linearGradient id="linear_border_2_2178_0" x1="671.9345703125" y1="933.3881225585938" x2="671.9345703125" y2="732.74365234375" gradientUnits="userSpaceOnUse"><stop offset="0" stop-color="#FFFFFF" stop-opacity="0" /><stop offset="0.6" stop-color="#FFFFFF" stop-opacity="0" /><stop offset="1" stop-color="#FFFFFF" stop-opacity="0.75" /></linearGradient><linearGradient id="linear_border_2_2179" x1="671.9990234375" y1="916.6085815429688" x2="671.9990234375" y2="753.3814697265625" gradientUnits="userSpaceOnUse"><stop offset="0" stop-color="#FFFFFF" stop-opacity="0" /><stop offset="0.65" stop-color="#FFFFFF" stop-opacity="0" /><stop offset="1" stop-color="#FFFFFF" stop-opacity="0.75" /></linearGradient><mask id="mask-2_2184" style="mask-type:alpha" maskUnits="userSpaceOnUse"><path d="M772 1057.05L676.601 1143.56C673.361 1146.81 668.047 1146.81 664.677 1143.56L572 1059.65L572 948L771.87 948L771.87 1057.05L772 1057.05Z" fill="#000000" /></mask><linearGradient id="linear_fill_2_2186" x1="672.06640625" y1="943.9277648925781" x2="672.06640625" y2="1149.9419708251953" gradientUnits="userSpaceOnUse"><stop offset="0" stop-color="#FFFFFF" stop-opacity="0" /><stop offset="0.6" stop-color="#FFFFFF" stop-opacity="0" /><stop offset="0.8" stop-color="#FFFFFF" stop-opacity="0.05" /><stop offset="1" stop-color="#FFFFFF" stop-opacity="0.25" /></linearGradient><linearGradient id="linear_border_2_2187_0" x1="672.0654296875" y1="946.6118469238281" x2="672.0654296875" y2="1147.2562713623047" gradientUnits="userSpaceOnUse"><stop offset="0" stop-color="#FFFFFF" stop-opacity="0" /><stop offset="0.6" stop-color="#FFFFFF" stop-opacity="0" /><stop offset="1" stop-color="#FFFFFF" stop-opacity="0.75" /></linearGradient><linearGradient id="linear_border_2_2188" x1="672.00146484375" y1="963.3918762207031" x2="672.00146484375" y2="1126.6190032958984" gradientUnits="userSpaceOnUse"><stop offset="0" stop-color="#FFFFFF" stop-opacity="0" /><stop offset="0.65" stop-color="#FFFFFF" stop-opacity="0" /><stop offset="1" stop-color="#FFFFFF" stop-opacity="0.75" /></linearGradient><linearGradient id="linear_fill_7_1504" x1="1261" y1="1145.9999694824219" x2="1261" y2="836" gradientUnits="userSpaceOnUse"><stop offset="0" stop-color="#0072FF" /><stop offset="1" stop-color="#00C8FF" /></linearGradient><filter id="filter_8_9" x="1583" y="809" width="256" height="97" filterUnits="userSpaceOnUse" color-interpolation-filters="sRGB"><feFlood flood-opacity="0" result="feFloodId_8_9" /><feBlend mode="normal" in="SourceGraphic" in2="feFloodId_8_9" result="shape_8_9" /><feColorMatrix in="SourceAlpha" type="matrix" values="0 0 0 0 0 0 0 0 0 0 0 0 0 0 0 0 0 0 127 0" result="hardAlpha_8_9" /><feOffset dx="0" dy="-12" /><feGaussianBlur stdDeviation="16" /><feComposite in2="hardAlpha_8_9" operator="arithmetic" k2="-1" k3="1" /><feColorMatrix type="matrix" values="0 0 0 0 0 0 0 0 0 0.4470588235294118 0 0 0 0 1 0 0 0 0.64 0" /><feBlend mode="normal" in2="shape_8_9" result="innerShadow_0_8_9" /></filter><mask id="mask-8_9" style="mask-type:alpha" maskUnits="userSpaceOnUse"><path d="M1583 906L1736.1 906C1736.1 906 1747.5 906 1755 903C1762.48 900.032 1768.5 893.5 1768.5 893.5L1839 809L1583 809L1583 906Z" fill="#1B2D4D" fill-opacity="0.4" /></mask><linearGradient id="linear_fill_8_10" x1="1750.7119140625" y1="907" x2="1750.7099609375" y2="807.8174438476562" gradientUnits="userSpaceOnUse"><stop offset="0" stop-color="#DBEBFF" /><stop offset="1" stop-color="#DBEBFF" stop-opacity="0" /></linearGradient><linearGradient id="linear_border_8_12_0" x1="1583" y1="860.128173828125" x2="1830.7841796875" y2="860.128173828125" gradientUnits="userSpaceOnUse"><stop offset="0" stop-color="#7EA2CF" /><stop offset="0.2862" stop-color="#00C6FF" /><stop offset="0.6968" stop-color="#92FE9D" /><stop offset="0.8912" stop-color="#00C8FF" /><stop offset="1" stop-color="#7DA2CE" /></linearGradient><linearGradient id="linear_border_8_13_0" x1="1583" y1="857.7345275878906" x2="1824.9990234375" y2="857.7345275878906" gradientUnits="userSpaceOnUse"><stop offset="0" stop-color="#7EA2CF" /><stop offset="0.2862" stop-color="#00C6FF" /><stop offset="0.6968" stop-color="#92FE9D" /><stop offset="0.8912" stop-color="#00C8FF" /><stop offset="1" stop-color="#7DA2CE" /></linearGradient></defs></svg>