<svg xmlns="http://www.w3.org/2000/svg" xmlns:xlink="http://www.w3.org/1999/xlink" width="50" height="50" viewBox="779 289 50 50" fill="none"><path d="M825.598 312.62L824.126 312.62C823.736 307.606 821.805 303.282 818.264 299.74C814.724 296.198 810.402 294.266 805.368 293.852L805.368 292.38C805.368 291.805 805.023 291.322 804.517 291.115C804.425 291.069 804.31 291.069 804.195 291.046C804.126 291.046 804.057 291 803.988 291C803.759 291 803.552 291.069 803.368 291.161C802.931 291.391 802.632 291.828 802.632 292.357L802.632 293.829C797.621 294.243 793.299 296.152 789.759 299.694C786.195 303.236 784.264 307.56 783.851 312.62L782.655 312.62C781.736 312.62 781 313.241 781 314C781 314.759 781.736 315.38 782.655 315.38L783.874 315.38C784.287 320.417 786.218 324.718 789.759 328.237C793.299 331.779 797.621 333.711 802.632 334.102L802.632 335.62C802.632 336.218 803.023 336.724 803.575 336.908C803.598 336.908 803.621 336.931 803.644 336.954L803.782 336.954C803.851 336.954 803.92 337 804.011 337C804.104 337 804.149 336.977 804.241 336.954L804.379 336.954C804.402 336.954 804.425 336.931 804.448 336.908C805 336.724 805.391 336.218 805.391 335.62L805.391 334.102C810.402 333.711 814.724 331.779 818.264 328.237C821.805 324.695 823.759 320.371 824.149 315.357L825.621 315.357C826.379 315.357 827 314.736 827 313.977C827 313.218 826.379 312.597 825.621 312.597L825.598 312.62ZM802.632 296.612L802.632 299.188C794.954 300.499 790.494 304.961 789.184 312.643L786.609 312.643C787.069 304.386 794.103 297.141 802.632 296.612ZM821.437 312.62L818.839 312.62C817.529 304.961 813.069 300.499 805.391 299.165L805.391 296.612C813.391 297.003 820.862 303.834 821.437 312.62ZM800.816 327.179C801.663 328.141 802.669 328.783 803.993 328.857C804.428 328.766 804.863 328.697 805.253 328.559C806.471 328.122 807.276 327.202 807.942 326.144C808.977 324.465 809.598 322.602 809.989 320.67C810.081 320.233 810.287 320.095 810.701 319.98C812.08 319.589 813.46 319.152 814.816 318.646C815.896 318.255 816.816 317.588 817.621 316.76C819.092 315.219 819.207 313.241 817.92 311.585C817.276 310.757 816.425 310.159 815.506 309.676C813.965 308.848 812.31 308.319 810.609 307.974C810.264 307.905 810.104 307.767 810.011 307.399C809.805 306.479 809.575 305.559 809.276 304.685C808.724 303.098 808.011 301.557 806.747 300.361C805.23 298.935 803.23 298.774 801.621 300.085C801 300.591 800.471 301.235 800.034 301.902C798.954 303.558 798.379 305.421 797.989 307.33C797.897 307.767 797.69 307.905 797.276 308.02C795.897 308.411 794.517 308.848 793.161 309.354C792.08 309.745 791.161 310.412 790.356 311.24C788.885 312.781 788.77 314.759 790.057 316.415C790.701 317.243 791.552 317.841 792.471 318.324C794.011 319.152 795.667 319.681 797.368 320.026C797.713 320.095 797.874 320.233 797.966 320.601C798.172 321.498 798.402 322.395 798.701 323.269C799.184 324.672 799.805 326.029 800.816 327.179ZM806.678 305.122C806.949 305.843 807.153 306.587 807.399 307.352C806.255 307.306 805.156 307.238 804.081 307.238C803 307.238 801.943 307.33 800.77 307.376C801.023 306.617 801.207 305.881 801.483 305.168C801.851 304.179 802.287 303.213 803.046 302.431C803.782 301.695 804.379 301.695 805.115 302.431C805.874 303.19 806.31 304.133 806.678 305.122ZM807.399 307.352C807.404 307.368 807.409 307.383 807.414 307.399L807.414 307.353L807.399 307.352ZM807.943 317.404C807.897 317.703 807.805 317.841 807.506 317.841C806.379 317.91 805.253 318.002 804.104 318.071C802.977 318.002 801.828 317.91 800.701 317.841C800.379 317.818 800.264 317.68 800.241 317.381C800.012 315.127 800.012 312.873 800.241 310.619C800.287 310.32 800.379 310.182 800.701 310.159C802.977 309.906 805.23 309.906 807.506 310.159C807.805 310.182 807.92 310.297 807.943 310.596C808.195 312.873 808.195 315.127 807.943 317.404ZM792.54 315.058C791.759 314.322 791.759 313.678 792.54 312.965L792.517 312.965C792.954 312.574 793.46 312.183 793.988 311.953C795.115 311.47 796.264 311.056 797.414 310.619L797.414 317.289C795.69 316.829 793.943 316.323 792.54 315.058ZM815.598 312.942C816.426 313.678 816.426 314.322 815.598 315.058L815.575 315.081C815.138 315.472 814.632 315.84 814.104 316.07C813 316.553 811.874 316.944 810.724 317.381L810.724 310.711C812.448 311.194 814.195 311.677 815.598 312.942ZM805.368 331.411L805.368 328.812C813 327.524 817.46 323.062 818.816 315.38L821.368 315.38C821.115 322.717 814.747 330.721 805.368 331.411ZM802.609 331.388C794.724 331.02 787.184 324.304 786.563 315.403L789.161 315.403C790.494 323.039 794.931 327.501 802.609 328.835L802.609 331.388ZM800.701 320.647C801.138 321.797 801.529 322.947 802.034 324.051C802.264 324.58 802.655 325.086 803.046 325.523C803.759 326.328 804.402 326.305 805.138 325.523C805.943 324.695 806.379 323.683 806.77 322.625C807 321.958 807.184 321.291 807.391 320.647L800.701 320.647Z" fill-rule="evenodd" fill="#EDF5FF" /><defs><filter id="filter_23_42" x="0" y="0" width="1920" height="121" filterUnits="userSpaceOnUse" color-interpolation-filters="sRGB"><feFlood flood-opacity="0" result="feFloodId_23_42" /><feColorMatrix in="SourceAlpha" type="matrix" values="0 0 0 0 0 0 0 0 0 0 0 0 0 0 0 0 0 0 127 0" result="hardAlpha_23_42" /><feOffset dx="0" dy="1" /><feComposite in2="hardAlpha_23_42" operator="out" /><feColorMatrix type="matrix" values="0 0 0 0 0.27450980392156865 0 0 0 0 0.36470588235294116 0 0 0 0 0.47843137254901963 0 0 0 1 0" /><feBlend mode="normal" in2="feFloodId_23_42" result="dropShadow_1_23_42" /><feBlend mode="normal" in="SourceGraphic" in2="dropShadow_1_23_42" result="shape_23_42" /></filter><filter id="filter_6_7686" x="1017.999999682108" y="436.9999996821084" width="48.00000063578409" height="18.00000063578318" filterUnits="userSpaceOnUse" color-interpolation-filters="sRGB"><feFlood flood-opacity="0" result="feFloodId_6_7686" /><feColorMatrix in="SourceAlpha" type="matrix" values="0 0 0 0 0 0 0 0 0 0 0 0 0 0 0 0 0 0 127 0" result="hardAlpha_6_7686" /><feOffset dx="0" dy="0" /><feGaussianBlur stdDeviation="3.000000158945795" /><feComposite in2="hardAlpha_6_7686" operator="out" /><feColorMatrix type="matrix" values="0 0 0 0 0 0 0 0 0 0.4470588235294118 0 0 0 0 1 0 0 0 1 0" /><feBlend mode="normal" in2="feFloodId_6_7686" result="dropShadow_1_6_7686" /><feBlend mode="normal" in="SourceGraphic" in2="dropShadow_1_6_7686" result="shape_6_7686" /></filter><filter id="filter_6_7690" x="922" y="422" width="48" height="48" filterUnits="userSpaceOnUse" color-interpolation-filters="sRGB"><feFlood flood-opacity="0" result="feFloodId_6_7690" /><feColorMatrix in="SourceAlpha" type="matrix" values="0 0 0 0 0 0 0 0 0 0 0 0 0 0 0 0 0 0 127 0" result="hardAlpha_6_7690" /><feOffset dx="0" dy="0" /><feGaussianBlur stdDeviation="3" /><feComposite in2="hardAlpha_6_7690" operator="out" /><feColorMatrix type="matrix" values="0 0 0 0 0 0 0 0 0 0.4470588235294118 0 0 0 0 1 0 0 0 1 0" /><feBlend mode="normal" in2="feFloodId_6_7690" result="dropShadow_1_6_7690" /><feBlend mode="normal" in="SourceGraphic" in2="dropShadow_1_6_7690" result="shape_6_7690" /></filter><linearGradient id="linear_fill_4_1419_0" x1="1468" y1="334" x2="1468" y2="294" gradientUnits="userSpaceOnUse"><stop offset="0" stop-color="#0072FF" /><stop offset="1" stop-color="#00C8FF" /></linearGradient><filter id="filter_4_1419" x="1446" y="294" width="43.998046875" height="43.998046875" filterUnits="userSpaceOnUse" color-interpolation-filters="sRGB"><feFlood flood-opacity="0" result="feFloodId_4_1419" /><feColorMatrix in="SourceAlpha" type="matrix" values="0 0 0 0 0 0 0 0 0 0 0 0 0 0 0 0 0 0 127 0" result="hardAlpha_4_1419" /><feOffset dx="0" dy="2" /><feGaussianBlur stdDeviation="1" /><feComposite in2="hardAlpha_4_1419" operator="out" /><feColorMatrix type="matrix" values="0 0 0 0 0 0 0 0 0 0 0 0 0 0 0 0 0 0 0.5 0" /><feBlend mode="normal" in2="feFloodId_4_1419" result="dropShadow_1_4_1419" /><feBlend mode="normal" in="SourceGraphic" in2="dropShadow_1_4_1419" result="shape_4_1419" /></filter><filter id="filter_4_1420" x="1453.99951171875" y="301.99993896484375" width="28" height="27.9990234375" filterUnits="userSpaceOnUse" color-interpolation-filters="sRGB"><feFlood flood-opacity="0" result="feFloodId_4_1420" /><feColorMatrix in="SourceAlpha" type="matrix" values="0 0 0 0 0 0 0 0 0 0 0 0 0 0 0 0 0 0 127 0" result="hardAlpha_4_1420" /><feOffset dx="0" dy="2" /><feGaussianBlur stdDeviation="2" /><feComposite in2="hardAlpha_4_1420" operator="out" /><feColorMatrix type="matrix" values="0 0 0 0 0 0 0 0 0 0.4470588235294118 0 0 0 0 1 0 0 0 1 0" /><feBlend mode="normal" in2="feFloodId_4_1420" result="dropShadow_1_4_1420" /><feBlend mode="normal" in="SourceGraphic" in2="dropShadow_1_4_1420" result="shape_4_1420" /></filter><linearGradient id="linear_fill_2_2195_0" x1="1608" y1="334" x2="1608" y2="294" gradientUnits="userSpaceOnUse"><stop offset="0" stop-color="#0072FF" /><stop offset="1" stop-color="#00C8FF" /></linearGradient><filter id="filter_2_2195" x="1548.001953125" y="292" width="43.998046875" height="43.998046875" filterUnits="userSpaceOnUse" color-interpolation-filters="sRGB"><feFlood flood-opacity="0" result="feFloodId_2_2195" /><feColorMatrix in="SourceAlpha" type="matrix" values="0 0 0 0 0 0 0 0 0 0 0 0 0 0 0 0 0 0 127 0" result="hardAlpha_2_2195" /><feOffset dx="2" dy="0" /><feGaussianBlur stdDeviation="1" /><feComposite in2="hardAlpha_2_2195" operator="out" /><feColorMatrix type="matrix" values="0 0 0 0 0 0 0 0 0 0 0 0 0 0 0 0 0 0 0.5 0" /><feBlend mode="normal" in2="feFloodId_2_2195" result="dropShadow_1_2_2195" /><feBlend mode="normal" in="SourceGraphic" in2="dropShadow_1_2_2195" result="shape_2_2195" /></filter><filter id="filter_2_2196" x="1554.00048828125" y="301.99993896484375" width="27.9990234375" height="28" filterUnits="userSpaceOnUse" color-interpolation-filters="sRGB"><feFlood flood-opacity="0" result="feFloodId_2_2196" /><feColorMatrix in="SourceAlpha" type="matrix" values="0 0 0 0 0 0 0 0 0 0 0 0 0 0 0 0 0 0 127 0" result="hardAlpha_2_2196" /><feOffset dx="0" dy="2" /><feGaussianBlur stdDeviation="2" /><feComposite in2="hardAlpha_2_2196" operator="out" /><feColorMatrix type="matrix" values="0 0 0 0 0 0 0 0 0 0.4470588235294118 0 0 0 0 1 0 0 0 1 0" /><feBlend mode="normal" in2="feFloodId_2_2196" result="dropShadow_1_2_2196" /><feBlend mode="normal" in="SourceGraphic" in2="dropShadow_1_2_2196" result="shape_2_2196" /></filter><linearGradient id="linear_fill_3zR3iDLegKgKmshlGodIa" x1="1560" y1="432" x2="1560" y2="460.00006103515625" gradientUnits="userSpaceOnUse"><stop offset="0" stop-color="#EDF5FF" /><stop offset="1" stop-color="#92C3FF" /></linearGradient><linearGradient id="linear_fill_esC89JAD-pbNi9UHjxqZK" x1="224" y1="293" x2="224" y2="335" gradientUnits="userSpaceOnUse"><stop offset="0" stop-color="#EDF5FF" /><stop offset="1" stop-color="#92C3FF" /></linearGradient><linearGradient id="linear_fill_fQk8cYB63cZNgccwALJlu" x1="108" y1="291" x2="108" y2="337" gradientUnits="userSpaceOnUse"><stop offset="0" stop-color="#EDF5FF" /><stop offset="1" stop-color="#92C3FF" /></linearGradient><mask id="mask-1_853" style="mask-type:alpha" maskUnits="userSpaceOnUse"><path d="M168.952 918L82.4428 822.601C79.1857 819.361 79.1857 814.047 82.4428 810.676L166.346 718L278 718L278 917.87L168.952 917.87L168.952 918Z" fill="#000000" /></mask><linearGradient id="linear_fill_1_855" x1="282.07275390625" y1="818.0653381347656" x2="76.05859375" y2="818.0653381347656" gradientUnits="userSpaceOnUse"><stop offset="0" stop-color="#FFFFFF" stop-opacity="0" /><stop offset="0.6" stop-color="#FFFFFF" stop-opacity="0" /><stop offset="0.8" stop-color="#FFFFFF" stop-opacity="0.05" /><stop offset="1" stop-color="#FFFFFF" stop-opacity="0.25" /></linearGradient><linearGradient id="linear_border_1_856_0" x1="279.38818359375" y1="818.0653991699219" x2="78.74365234375" y2="818.0653991699219" gradientUnits="userSpaceOnUse"><stop offset="0" stop-color="#FFFFFF" stop-opacity="0" /><stop offset="0.6" stop-color="#FFFFFF" stop-opacity="0" /><stop offset="1" stop-color="#FFFFFF" stop-opacity="0.75" /></linearGradient><linearGradient id="linear_border_1_857" x1="262.60888671875" y1="818.0008544921875" x2="99.38134765625" y2="818.0008544921875" gradientUnits="userSpaceOnUse"><stop offset="0" stop-color="#FFFFFF" stop-opacity="0" /><stop offset="0.65" stop-color="#FFFFFF" stop-opacity="0" /><stop offset="1" stop-color="#FFFFFF" stop-opacity="0.75" /></linearGradient><mask id="mask-1_863" style="mask-type:alpha" maskUnits="userSpaceOnUse"><path d="M403.048 718L489.557 813.399C492.814 816.639 492.814 821.953 489.557 825.323L405.654 918L294 918L294 718.13L403.048 718.13L403.048 718Z" fill="#000000" /></mask><linearGradient id="linear_fill_1_865" x1="289.927734375" y1="817.9339599609375" x2="495.94189453125" y2="817.9339599609375" gradientUnits="userSpaceOnUse"><stop offset="0" stop-color="#FFFFFF" stop-opacity="0" /><stop offset="0.6" stop-color="#FFFFFF" stop-opacity="0" /><stop offset="0.8" stop-color="#FFFFFF" stop-opacity="0.05" /><stop offset="1" stop-color="#FFFFFF" stop-opacity="0.25" /></linearGradient><linearGradient id="linear_border_1_866_0" x1="292.61181640625" y1="817.9344177246094" x2="493.25634765625" y2="817.9344177246094" gradientUnits="userSpaceOnUse"><stop offset="0" stop-color="#FFFFFF" stop-opacity="0" /><stop offset="0.6" stop-color="#FFFFFF" stop-opacity="0" /><stop offset="1" stop-color="#FFFFFF" stop-opacity="0.75" /></linearGradient><linearGradient id="linear_border_1_867" x1="309.3916015625" y1="817.9984741210938" x2="472.619140625" y2="817.9984741210938" gradientUnits="userSpaceOnUse"><stop offset="0" stop-color="#FFFFFF" stop-opacity="0" /><stop offset="0.65" stop-color="#FFFFFF" stop-opacity="0" /><stop offset="1" stop-color="#FFFFFF" stop-opacity="0.75" /></linearGradient><mask id="mask-1_905" style="mask-type:alpha" maskUnits="userSpaceOnUse"><path d="M168.952 1150L82.4428 1054.6C79.1857 1051.36 79.1857 1046.05 82.4428 1042.68L166.346 950L278 950L278 1149.87L168.952 1149.87L168.952 1150Z" fill="#000000" /></mask><linearGradient id="linear_fill_1_907" x1="282.07275390625" y1="1050.0653839111328" x2="76.05859375" y2="1050.0653839111328" gradientUnits="userSpaceOnUse"><stop offset="0" stop-color="#FFFFFF" stop-opacity="0" /><stop offset="0.6" stop-color="#FFFFFF" stop-opacity="0" /><stop offset="0.8" stop-color="#FFFFFF" stop-opacity="0.1" /><stop offset="1" stop-color="#FFFFFF" /></linearGradient><linearGradient id="linear_border_1_908_0" x1="279.38818359375" y1="1050.0654296875" x2="78.74365234375" y2="1050.0654296875" gradientUnits="userSpaceOnUse"><stop offset="0" stop-color="#FFFFFF" stop-opacity="0" /><stop offset="0.6" stop-color="#FFFFFF" stop-opacity="0" /><stop offset="1" stop-color="#FFFFFF" /></linearGradient><linearGradient id="linear_border_1_909" x1="262.60888671875" y1="1050.0008850097656" x2="99.38134765625" y2="1050.0008850097656" gradientUnits="userSpaceOnUse"><stop offset="0" stop-color="#FFFFFF" stop-opacity="0" /><stop offset="0.65" stop-color="#FFFFFF" stop-opacity="0" /><stop offset="1" stop-color="#FFFFFF" /></linearGradient><mask id="mask-1_927" style="mask-type:alpha" maskUnits="userSpaceOnUse"><path d="M403.048 950L489.557 1045.4C492.814 1048.64 492.814 1053.95 489.557 1057.32L405.654 1150L294 1150L294 950.13L403.048 950.13L403.048 950Z" fill="#000000" /></mask><linearGradient id="linear_fill_1_929" x1="289.92724609375" y1="1049.9346313476562" x2="495.94140625" y2="1049.9346466064453" gradientUnits="userSpaceOnUse"><stop offset="0" stop-color="#FFFFFF" stop-opacity="0" /><stop offset="0.6" stop-color="#FFFFFF" stop-opacity="0" /><stop offset="0.8" stop-color="#FFFFFF" stop-opacity="0.1" /><stop offset="1" stop-color="#FFFFFF" /></linearGradient><linearGradient id="linear_border_1_930_0" x1="292.61181640625" y1="1049.934555053711" x2="493.25634765625" y2="1049.9345703125" gradientUnits="userSpaceOnUse"><stop offset="0" stop-color="#FFFFFF" stop-opacity="0" /><stop offset="0.6" stop-color="#FFFFFF" stop-opacity="0" /><stop offset="1" stop-color="#FFFFFF" /></linearGradient><linearGradient id="linear_border_1_931" x1="309.39111328125" y1="1049.9991302490234" x2="472.61865234375" y2="1049.9991302490234" gradientUnits="userSpaceOnUse"><stop offset="0" stop-color="#FFFFFF" stop-opacity="0" /><stop offset="0.65" stop-color="#FFFFFF" stop-opacity="0" /><stop offset="1" stop-color="#FFFFFF" /></linearGradient><mask id="mask-2_2157" style="mask-type:alpha" maskUnits="userSpaceOnUse"><path d="M852 822.952L947.399 736.443C950.639 733.186 955.953 733.186 959.323 736.443L1052 820.346L1052 932L852.13 932L852.13 822.952L852 822.952Z" fill="#000000" /></mask><linearGradient id="linear_fill_2_2159" x1="951.9345703125" y1="936.0727233886719" x2="951.9345703125" y2="730.0584716796875" gradientUnits="userSpaceOnUse"><stop offset="0" stop-color="#FFFFFF" stop-opacity="0" /><stop offset="0.6" stop-color="#FFFFFF" stop-opacity="0" /><stop offset="0.8" stop-color="#FFFFFF" stop-opacity="0.1" /><stop offset="1" stop-color="#FFFFFF" /></linearGradient><linearGradient id="linear_border_2_2160_0" x1="951.9345703125" y1="933.3881225585938" x2="951.9345703125" y2="732.74365234375" gradientUnits="userSpaceOnUse"><stop offset="0" stop-color="#FFFFFF" stop-opacity="0" /><stop offset="0.6" stop-color="#FFFFFF" stop-opacity="0" /><stop offset="1" stop-color="#FFFFFF" /></linearGradient><linearGradient id="linear_border_2_2161" x1="951.9990234375" y1="916.6085815429688" x2="951.9990234375" y2="753.3814697265625" gradientUnits="userSpaceOnUse"><stop offset="0" stop-color="#FFFFFF" stop-opacity="0" /><stop offset="0.65" stop-color="#FFFFFF" stop-opacity="0" /><stop offset="1" stop-color="#FFFFFF" /></linearGradient><mask id="mask-2_2166" style="mask-type:alpha" maskUnits="userSpaceOnUse"><path d="M1052 1057.05L956.601 1143.56C953.361 1146.81 948.047 1146.81 944.677 1143.56L852 1059.65L852 948L1051.87 948L1051.87 1057.05L1052 1057.05Z" fill="#000000" /></mask><linearGradient id="linear_fill_2_2168" x1="952.0654296875" y1="943.9272766113281" x2="952.0654296875" y2="1149.941520690918" gradientUnits="userSpaceOnUse"><stop offset="0" stop-color="#FFFFFF" stop-opacity="0" /><stop offset="0.6" stop-color="#FFFFFF" stop-opacity="0" /><stop offset="0.8" stop-color="#FFFFFF" stop-opacity="0.1" /><stop offset="1" stop-color="#FFFFFF" /></linearGradient><linearGradient id="linear_border_2_2169_0" x1="952.0654296875" y1="946.6118774414062" x2="952.0654296875" y2="1147.2563171386719" gradientUnits="userSpaceOnUse"><stop offset="0" stop-color="#FFFFFF" stop-opacity="0" /><stop offset="0.6" stop-color="#FFFFFF" stop-opacity="0" /><stop offset="1" stop-color="#FFFFFF" /></linearGradient><linearGradient id="linear_border_2_2170" x1="952.0009765625" y1="963.3914184570312" x2="952.0009765625" y2="1126.6185607910156" gradientUnits="userSpaceOnUse"><stop offset="0" stop-color="#FFFFFF" stop-opacity="0" /><stop offset="0.65" stop-color="#FFFFFF" stop-opacity="0" /><stop offset="1" stop-color="#FFFFFF" /></linearGradient><mask id="mask-2_2175" style="mask-type:alpha" maskUnits="userSpaceOnUse"><path d="M572 822.952L667.399 736.443C670.639 733.186 675.953 733.186 679.323 736.443L772 820.346L772 932L572.13 932L572.13 822.952L572 822.952Z" fill="#000000" /></mask><linearGradient id="linear_fill_2_2177" x1="671.9345703125" y1="936.0727233886719" x2="671.9345703125" y2="730.0584716796875" gradientUnits="userSpaceOnUse"><stop offset="0" stop-color="#FFFFFF" stop-opacity="0" /><stop offset="0.6" stop-color="#FFFFFF" stop-opacity="0" /><stop offset="0.8" stop-color="#FFFFFF" stop-opacity="0.05" /><stop offset="1" stop-color="#FFFFFF" stop-opacity="0.25" /></linearGradient><linearGradient id="linear_border_2_2178_0" x1="671.9345703125" y1="933.3881225585938" x2="671.9345703125" y2="732.74365234375" gradientUnits="userSpaceOnUse"><stop offset="0" stop-color="#FFFFFF" stop-opacity="0" /><stop offset="0.6" stop-color="#FFFFFF" stop-opacity="0" /><stop offset="1" stop-color="#FFFFFF" stop-opacity="0.75" /></linearGradient><linearGradient id="linear_border_2_2179" x1="671.9990234375" y1="916.6085815429688" x2="671.9990234375" y2="753.3814697265625" gradientUnits="userSpaceOnUse"><stop offset="0" stop-color="#FFFFFF" stop-opacity="0" /><stop offset="0.65" stop-color="#FFFFFF" stop-opacity="0" /><stop offset="1" stop-color="#FFFFFF" stop-opacity="0.75" /></linearGradient><mask id="mask-2_2184" style="mask-type:alpha" maskUnits="userSpaceOnUse"><path d="M772 1057.05L676.601 1143.56C673.361 1146.81 668.047 1146.81 664.677 1143.56L572 1059.65L572 948L771.87 948L771.87 1057.05L772 1057.05Z" fill="#000000" /></mask><linearGradient id="linear_fill_2_2186" x1="672.06640625" y1="943.9277648925781" x2="672.06640625" y2="1149.9419708251953" gradientUnits="userSpaceOnUse"><stop offset="0" stop-color="#FFFFFF" stop-opacity="0" /><stop offset="0.6" stop-color="#FFFFFF" stop-opacity="0" /><stop offset="0.8" stop-color="#FFFFFF" stop-opacity="0.05" /><stop offset="1" stop-color="#FFFFFF" stop-opacity="0.25" /></linearGradient><linearGradient id="linear_border_2_2187_0" x1="672.0654296875" y1="946.6118469238281" x2="672.0654296875" y2="1147.2562713623047" gradientUnits="userSpaceOnUse"><stop offset="0" stop-color="#FFFFFF" stop-opacity="0" /><stop offset="0.6" stop-color="#FFFFFF" stop-opacity="0" /><stop offset="1" stop-color="#FFFFFF" stop-opacity="0.75" /></linearGradient><linearGradient id="linear_border_2_2188" x1="672.00146484375" y1="963.3918762207031" x2="672.00146484375" y2="1126.6190032958984" gradientUnits="userSpaceOnUse"><stop offset="0" stop-color="#FFFFFF" stop-opacity="0" /><stop offset="0.65" stop-color="#FFFFFF" stop-opacity="0" /><stop offset="1" stop-color="#FFFFFF" stop-opacity="0.75" /></linearGradient><linearGradient id="linear_fill_7_1504" x1="1261" y1="1145.9999694824219" x2="1261" y2="836" gradientUnits="userSpaceOnUse"><stop offset="0" stop-color="#0072FF" /><stop offset="1" stop-color="#00C8FF" /></linearGradient><filter id="filter_8_9" x="1583" y="809" width="256" height="97" filterUnits="userSpaceOnUse" color-interpolation-filters="sRGB"><feFlood flood-opacity="0" result="feFloodId_8_9" /><feBlend mode="normal" in="SourceGraphic" in2="feFloodId_8_9" result="shape_8_9" /><feColorMatrix in="SourceAlpha" type="matrix" values="0 0 0 0 0 0 0 0 0 0 0 0 0 0 0 0 0 0 127 0" result="hardAlpha_8_9" /><feOffset dx="0" dy="-12" /><feGaussianBlur stdDeviation="16" /><feComposite in2="hardAlpha_8_9" operator="arithmetic" k2="-1" k3="1" /><feColorMatrix type="matrix" values="0 0 0 0 0 0 0 0 0 0.4470588235294118 0 0 0 0 1 0 0 0 0.64 0" /><feBlend mode="normal" in2="shape_8_9" result="innerShadow_0_8_9" /></filter><mask id="mask-8_9" style="mask-type:alpha" maskUnits="userSpaceOnUse"><path d="M1583 906L1736.1 906C1736.1 906 1747.5 906 1755 903C1762.48 900.032 1768.5 893.5 1768.5 893.5L1839 809L1583 809L1583 906Z" fill="#1B2D4D" fill-opacity="0.4" /></mask><linearGradient id="linear_fill_8_10" x1="1750.7119140625" y1="907" x2="1750.7099609375" y2="807.8174438476562" gradientUnits="userSpaceOnUse"><stop offset="0" stop-color="#DBEBFF" /><stop offset="1" stop-color="#DBEBFF" stop-opacity="0" /></linearGradient><linearGradient id="linear_border_8_12_0" x1="1583" y1="860.128173828125" x2="1830.7841796875" y2="860.128173828125" gradientUnits="userSpaceOnUse"><stop offset="0" stop-color="#7EA2CF" /><stop offset="0.2862" stop-color="#00C6FF" /><stop offset="0.6968" stop-color="#92FE9D" /><stop offset="0.8912" stop-color="#00C8FF" /><stop offset="1" stop-color="#7DA2CE" /></linearGradient><linearGradient id="linear_border_8_13_0" x1="1583" y1="857.7345275878906" x2="1824.9990234375" y2="857.7345275878906" gradientUnits="userSpaceOnUse"><stop offset="0" stop-color="#7EA2CF" /><stop offset="0.2862" stop-color="#00C6FF" /><stop offset="0.6968" stop-color="#92FE9D" /><stop offset="0.8912" stop-color="#00C8FF" /><stop offset="1" stop-color="#7DA2CE" /></linearGradient></defs></svg>