<svg xmlns="http://www.w3.org/2000/svg" xmlns:xlink="http://www.w3.org/1999/xlink" width="52" height="34.283" viewBox="546 210.848 52 34.283" fill="none"><path d="M570.12 240.497L570.12 215.477C570.12 213.982 571.425 212.848 572.92 213.017C582.013 214.102 589.242 217.495 594.38 223.547C595.417 224.8 596 226.371 596 227.987C596 229.337 595.618 230.668 594.87 231.777C590.311 238.6 582.586 241.902 572.89 242.987C571.419 243.131 570.12 241.992 570.12 240.497ZM564.91 215.457L549.76 215.457C549.702 215.457 549.647 215.467 549.59 215.467C549.533 215.467 549.477 215.486 549.42 215.497C549.364 215.508 549.305 215.52 549.25 215.537C549.195 215.553 549.143 215.575 549.09 215.597C549.037 215.619 548.981 215.64 548.93 215.667C548.879 215.694 548.828 215.725 548.78 215.757C548.732 215.789 548.685 215.82 548.64 215.857C548.595 215.893 548.561 215.926 548.52 215.967C548.479 216.007 548.437 216.052 548.4 216.097C548.363 216.141 548.332 216.189 548.3 216.237C548.268 216.284 548.237 216.336 548.21 216.387C548.183 216.437 548.152 216.484 548.13 216.537C548.108 216.59 548.097 216.642 548.08 216.697C548.063 216.752 548.041 216.81 548.03 216.867C548.019 216.923 548.01 216.98 548.01 217.037C548.01 217.094 548 217.149 548 217.207C548 217.264 548.01 217.32 548.01 217.377C548.01 217.434 548.019 217.49 548.03 217.547C548.041 217.603 548.063 217.662 548.08 217.717C548.097 217.772 548.108 217.824 548.13 217.877C548.152 217.93 548.183 217.986 548.21 218.037C548.237 218.087 548.268 218.129 548.3 218.177C548.332 218.224 548.363 218.272 548.4 218.317C548.437 218.361 548.479 218.406 548.52 218.447C548.561 218.487 548.595 218.53 548.64 218.567C548.685 218.603 548.732 218.635 548.78 218.667C548.828 218.699 548.879 218.73 548.93 218.757C548.981 218.784 549.037 218.805 549.09 218.827C549.143 218.849 549.195 218.87 549.25 218.887C549.305 218.903 549.364 218.915 549.42 218.927C549.477 218.938 549.533 218.947 549.59 218.947C549.647 218.947 549.702 218.957 549.76 218.957L564.91 218.957C564.968 218.957 565.023 218.947 565.08 218.947C565.137 218.947 565.194 218.938 565.25 218.927C565.307 218.915 565.365 218.903 565.42 218.887C565.475 218.87 565.527 218.849 565.58 218.827C565.633 218.805 565.689 218.784 565.74 218.757C565.791 218.73 565.842 218.699 565.89 218.667C565.938 218.635 565.975 218.603 566.02 218.567C566.065 218.53 566.109 218.487 566.15 218.447C566.191 218.406 566.234 218.361 566.27 218.317C566.307 218.272 566.338 218.224 566.37 218.177C566.402 218.129 566.433 218.087 566.46 218.037C566.487 217.986 566.508 217.93 566.53 217.877C566.552 217.824 566.573 217.772 566.59 217.717C566.607 217.662 566.619 217.603 566.63 217.547C566.641 217.49 566.66 217.434 566.66 217.377C566.66 217.32 566.67 217.264 566.67 217.207C566.67 217.149 566.66 217.094 566.66 217.037C566.66 216.98 566.641 216.923 566.63 216.867C566.619 216.81 566.607 216.752 566.59 216.697C566.573 216.642 566.552 216.59 566.53 216.537C566.508 216.484 566.487 216.437 566.46 216.387C566.433 216.336 566.402 216.284 566.37 216.237C566.338 216.189 566.307 216.141 566.27 216.097C566.234 216.052 566.191 216.007 566.15 215.967C566.109 215.926 566.065 215.893 566.02 215.857C565.975 215.82 565.938 215.789 565.89 215.757C565.842 215.725 565.791 215.694 565.74 215.667C565.689 215.64 565.633 215.619 565.58 215.597C565.527 215.575 565.475 215.553 565.42 215.537C565.365 215.52 565.307 215.508 565.25 215.497C565.194 215.485 565.137 215.467 565.08 215.467C565.023 215.467 564.968 215.457 564.91 215.457ZM564.91 222.957L549.76 222.957C549.702 222.957 549.647 222.967 549.59 222.967C549.533 222.967 549.477 222.976 549.42 222.987C549.364 222.998 549.305 223.02 549.25 223.037C549.195 223.053 549.143 223.065 549.09 223.087C549.037 223.109 548.981 223.14 548.93 223.167C548.879 223.194 548.828 223.225 548.78 223.257C548.732 223.289 548.685 223.32 548.64 223.357C548.595 223.393 548.561 223.426 548.52 223.467C548.479 223.507 548.437 223.552 548.4 223.597C548.363 223.641 548.332 223.689 548.3 223.737C548.268 223.784 548.237 223.836 548.21 223.887C548.183 223.937 548.152 223.984 548.13 224.037C548.108 224.09 548.097 224.142 548.08 224.197C548.063 224.251 548.041 224.31 548.03 224.367C548.019 224.423 548.01 224.48 548.01 224.537C548.01 224.594 548 224.649 548 224.707C548 224.764 548.01 224.82 548.01 224.877C548.01 224.934 548.019 224.99 548.03 225.047C548.041 225.103 548.063 225.162 548.08 225.217C548.097 225.272 548.108 225.324 548.13 225.377C548.152 225.43 548.183 225.486 548.21 225.537C548.237 225.587 548.268 225.629 548.3 225.677C548.332 225.724 548.363 225.772 548.4 225.817C548.437 225.861 548.479 225.906 548.52 225.947C548.561 225.987 548.595 226.02 548.64 226.057C548.685 226.093 548.732 226.135 548.78 226.167C548.828 226.199 548.879 226.22 548.93 226.247C548.981 226.274 549.037 226.305 549.09 226.327C549.143 226.349 549.195 226.37 549.25 226.387C549.305 226.403 549.364 226.416 549.42 226.427C549.477 226.438 549.533 226.447 549.59 226.447C549.647 226.447 549.702 226.457 549.76 226.457L564.91 226.457C564.968 226.457 565.023 226.447 565.08 226.447C565.137 226.447 565.194 226.438 565.25 226.427C565.307 226.416 565.365 226.403 565.42 226.387C565.475 226.37 565.527 226.349 565.58 226.327C565.633 226.305 565.689 226.274 565.74 226.247C565.791 226.22 565.842 226.199 565.89 226.167C565.938 226.135 565.975 226.093 566.02 226.057C566.065 226.02 566.109 225.987 566.15 225.947C566.191 225.906 566.234 225.861 566.27 225.817C566.307 225.772 566.338 225.724 566.37 225.677C566.402 225.629 566.433 225.587 566.46 225.537C566.487 225.486 566.508 225.43 566.53 225.377C566.552 225.324 566.573 225.272 566.59 225.217C566.607 225.162 566.619 225.103 566.63 225.047C566.641 224.99 566.66 224.934 566.66 224.877C566.66 224.82 566.67 224.764 566.67 224.707C566.67 224.649 566.66 224.594 566.66 224.537C566.66 224.48 566.641 224.423 566.63 224.367C566.619 224.31 566.607 224.251 566.59 224.197C566.573 224.142 566.552 224.09 566.53 224.037C566.508 223.984 566.487 223.937 566.46 223.887C566.433 223.836 566.402 223.784 566.37 223.737C566.338 223.689 566.307 223.641 566.27 223.597C566.234 223.552 566.191 223.507 566.15 223.467C566.109 223.426 566.065 223.393 566.02 223.357C565.975 223.32 565.938 223.289 565.89 223.257C565.842 223.225 565.791 223.194 565.74 223.167C565.689 223.14 565.633 223.109 565.58 223.087C565.527 223.065 565.475 223.053 565.42 223.037C565.365 223.02 565.307 222.998 565.25 222.987C565.194 222.975 565.137 222.967 565.08 222.967C565.023 222.967 564.968 222.957 564.91 222.957ZM564.91 229.997L549.76 229.997C549.702 229.997 549.647 230.007 549.59 230.007C549.533 230.007 549.477 230.025 549.42 230.037C549.364 230.048 549.305 230.06 549.25 230.077C549.195 230.093 549.143 230.105 549.09 230.127C549.037 230.149 548.981 230.18 548.93 230.207C548.879 230.234 548.828 230.265 548.78 230.297C548.732 230.328 548.685 230.36 548.64 230.397C548.595 230.433 548.561 230.466 548.52 230.507C548.479 230.547 548.437 230.592 548.4 230.637C548.363 230.681 548.332 230.729 548.3 230.777C548.268 230.824 548.237 230.876 548.21 230.927C548.183 230.977 548.152 231.024 548.13 231.077C548.108 231.13 548.097 231.182 548.08 231.237C548.063 231.292 548.041 231.35 548.03 231.407C548.019 231.463 548.01 231.52 548.01 231.577C548.01 231.634 548 231.689 548 231.747C548 231.804 548.01 231.86 548.01 231.917C548.01 231.974 548.019 232.031 548.03 232.087C548.041 232.143 548.063 232.202 548.08 232.257C548.097 232.312 548.108 232.364 548.13 232.417C548.152 232.47 548.183 232.526 548.21 232.577C548.237 232.627 548.268 232.669 548.3 232.717C548.332 232.764 548.363 232.812 548.4 232.857C548.437 232.901 548.479 232.946 548.52 232.987C548.561 233.027 548.595 233.06 548.64 233.097C548.685 233.133 548.732 233.175 548.78 233.207C548.828 233.239 548.879 233.27 548.93 233.297C548.981 233.324 549.037 233.345 549.09 233.367C549.143 233.389 549.195 233.41 549.25 233.427C549.305 233.443 549.364 233.456 549.42 233.467C549.477 233.478 549.533 233.487 549.59 233.487C549.647 233.487 549.702 233.497 549.76 233.497L564.91 233.497C564.968 233.497 565.023 233.487 565.08 233.487C565.137 233.487 565.194 233.478 565.25 233.467C565.307 233.456 565.365 233.443 565.42 233.427C565.475 233.41 565.527 233.389 565.58 233.367C565.633 233.345 565.689 233.324 565.74 233.297C565.791 233.27 565.842 233.239 565.89 233.207C565.938 233.175 565.975 233.133 566.02 233.097C566.065 233.06 566.109 233.027 566.15 232.987C566.191 232.946 566.234 232.901 566.27 232.857C566.307 232.812 566.338 232.764 566.37 232.717C566.402 232.669 566.433 232.627 566.46 232.577C566.487 232.526 566.508 232.47 566.53 232.417C566.552 232.364 566.573 232.312 566.59 232.257C566.607 232.202 566.619 232.143 566.63 232.087C566.641 232.03 566.66 231.974 566.66 231.917C566.66 231.86 566.67 231.804 566.67 231.747C566.67 231.689 566.66 231.634 566.66 231.577C566.66 231.52 566.641 231.463 566.63 231.407C566.619 231.35 566.607 231.292 566.59 231.237C566.573 231.182 566.552 231.13 566.53 231.077C566.508 231.024 566.487 230.977 566.46 230.927C566.433 230.876 566.402 230.824 566.37 230.777C566.338 230.729 566.307 230.681 566.27 230.637C566.234 230.592 566.191 230.547 566.15 230.507C566.109 230.466 566.065 230.433 566.02 230.397C565.975 230.36 565.938 230.328 565.89 230.297C565.842 230.265 565.791 230.234 565.74 230.207C565.689 230.18 565.633 230.149 565.58 230.127C565.527 230.105 565.475 230.093 565.42 230.077C565.365 230.06 565.307 230.048 565.25 230.037C565.194 230.025 565.137 230.007 565.08 230.007C565.023 230.007 564.968 229.997 564.91 229.997ZM564.91 237.067L549.76 237.067C549.702 237.067 549.647 237.067 549.59 237.067C549.533 237.067 549.477 237.085 549.42 237.097C549.364 237.108 549.305 237.12 549.25 237.137C549.195 237.153 549.143 237.175 549.09 237.197C549.037 237.219 548.981 237.24 548.93 237.267C548.879 237.294 548.828 237.325 548.78 237.357C548.732 237.388 548.685 237.42 548.64 237.457C548.595 237.493 548.561 237.536 548.52 237.577C548.479 237.617 548.437 237.662 548.4 237.707C548.363 237.751 548.332 237.789 548.3 237.837C548.268 237.884 548.237 237.936 548.21 237.987C548.183 238.037 548.152 238.094 548.13 238.147C548.108 238.2 548.097 238.252 548.08 238.307C548.063 238.362 548.041 238.41 548.03 238.467C548.019 238.523 548.01 238.58 548.01 238.637C548.01 238.694 548 238.759 548 238.817C548 238.874 548.01 238.93 548.01 238.987C548.01 239.044 548.019 239.1 548.03 239.157C548.041 239.213 548.063 239.262 548.08 239.317C548.097 239.372 548.108 239.434 548.13 239.487C548.152 239.54 548.183 239.586 548.21 239.637C548.237 239.687 548.268 239.739 548.3 239.787C548.332 239.834 548.363 239.882 548.4 239.927C548.437 239.971 548.479 240.006 548.52 240.047C548.561 240.087 548.595 240.13 548.64 240.167C548.685 240.203 548.732 240.235 548.78 240.267C548.828 240.299 548.879 240.33 548.93 240.357C548.981 240.384 549.037 240.405 549.09 240.427C549.143 240.449 549.195 240.47 549.25 240.487C549.305 240.503 549.364 240.516 549.42 240.527C549.477 240.538 549.533 240.557 549.59 240.557C549.647 240.557 549.702 240.567 549.76 240.567L564.91 240.567C564.968 240.567 565.023 240.557 565.08 240.557C565.137 240.557 565.194 240.538 565.25 240.527C565.307 240.516 565.365 240.503 565.42 240.487C565.475 240.47 565.527 240.449 565.58 240.427C565.633 240.405 565.689 240.384 565.74 240.357C565.791 240.33 565.842 240.299 565.89 240.267C565.938 240.235 565.975 240.203 566.02 240.167C566.065 240.13 566.109 240.087 566.15 240.047C566.191 240.006 566.234 239.971 566.27 239.927C566.307 239.882 566.338 239.834 566.37 239.787C566.402 239.739 566.433 239.687 566.46 239.637C566.487 239.586 566.508 239.54 566.53 239.487C566.552 239.434 566.573 239.372 566.59 239.317C566.607 239.262 566.619 239.213 566.63 239.157C566.641 239.1 566.66 239.044 566.66 238.987C566.66 238.93 566.67 238.874 566.67 238.817C566.67 238.759 566.66 238.694 566.66 238.637C566.66 238.58 566.641 238.523 566.63 238.467C566.619 238.41 566.607 238.361 566.59 238.307C566.573 238.252 566.552 238.2 566.53 238.147C566.508 238.094 566.487 238.037 566.46 237.987C566.433 237.936 566.402 237.884 566.37 237.837C566.338 237.789 566.307 237.751 566.27 237.707C566.234 237.662 566.191 237.617 566.15 237.577C566.109 237.536 566.065 237.493 566.02 237.457C565.975 237.42 565.938 237.388 565.89 237.357C565.842 237.325 565.791 237.294 565.74 237.267C565.689 237.24 565.633 237.219 565.58 237.197C565.527 237.175 565.475 237.153 565.42 237.137C565.365 237.12 565.307 237.108 565.25 237.097C565.194 237.085 565.137 237.067 565.08 237.067C565.023 237.067 564.968 237.067 564.91 237.067Z" fill-rule="evenodd" fill="#7DA2CE" /><defs><filter id="filter_23_42" x="0" y="0" width="1920" height="121" filterUnits="userSpaceOnUse" color-interpolation-filters="sRGB"><feFlood flood-opacity="0" result="feFloodId_23_42" /><feColorMatrix in="SourceAlpha" type="matrix" values="0 0 0 0 0 0 0 0 0 0 0 0 0 0 0 0 0 0 127 0" result="hardAlpha_23_42" /><feOffset dx="0" dy="1" /><feComposite in2="hardAlpha_23_42" operator="out" /><feColorMatrix type="matrix" values="0 0 0 0 0.27450980392156865 0 0 0 0 0.36470588235294116 0 0 0 0 0.47843137254901963 0 0 0 1 0" /><feBlend mode="normal" in2="feFloodId_23_42" result="dropShadow_1_23_42" /><feBlend mode="normal" in="SourceGraphic" in2="dropShadow_1_23_42" result="shape_23_42" /></filter><filter id="filter_6_7686" x="1017.999999682108" y="436.9999996821084" width="48.00000063578409" height="18.00000063578318" filterUnits="userSpaceOnUse" color-interpolation-filters="sRGB"><feFlood flood-opacity="0" result="feFloodId_6_7686" /><feColorMatrix in="SourceAlpha" type="matrix" values="0 0 0 0 0 0 0 0 0 0 0 0 0 0 0 0 0 0 127 0" result="hardAlpha_6_7686" /><feOffset dx="0" dy="0" /><feGaussianBlur stdDeviation="3.000000158945795" /><feComposite in2="hardAlpha_6_7686" operator="out" /><feColorMatrix type="matrix" values="0 0 0 0 0 0 0 0 0 0.4470588235294118 0 0 0 0 1 0 0 0 1 0" /><feBlend mode="normal" in2="feFloodId_6_7686" result="dropShadow_1_6_7686" /><feBlend mode="normal" in="SourceGraphic" in2="dropShadow_1_6_7686" result="shape_6_7686" /></filter><filter id="filter_6_7690" x="922" y="422" width="48" height="48" filterUnits="userSpaceOnUse" color-interpolation-filters="sRGB"><feFlood flood-opacity="0" result="feFloodId_6_7690" /><feColorMatrix in="SourceAlpha" type="matrix" values="0 0 0 0 0 0 0 0 0 0 0 0 0 0 0 0 0 0 127 0" result="hardAlpha_6_7690" /><feOffset dx="0" dy="0" /><feGaussianBlur stdDeviation="3" /><feComposite in2="hardAlpha_6_7690" operator="out" /><feColorMatrix type="matrix" values="0 0 0 0 0 0 0 0 0 0.4470588235294118 0 0 0 0 1 0 0 0 1 0" /><feBlend mode="normal" in2="feFloodId_6_7690" result="dropShadow_1_6_7690" /><feBlend mode="normal" in="SourceGraphic" in2="dropShadow_1_6_7690" result="shape_6_7690" /></filter><linearGradient id="linear_fill_4_1419_0" x1="1468" y1="334" x2="1468" y2="294" gradientUnits="userSpaceOnUse"><stop offset="0" stop-color="#0072FF" /><stop offset="1" stop-color="#00C8FF" /></linearGradient><filter id="filter_4_1419" x="1446" y="294" width="43.998046875" height="43.998046875" filterUnits="userSpaceOnUse" color-interpolation-filters="sRGB"><feFlood flood-opacity="0" result="feFloodId_4_1419" /><feColorMatrix in="SourceAlpha" type="matrix" values="0 0 0 0 0 0 0 0 0 0 0 0 0 0 0 0 0 0 127 0" result="hardAlpha_4_1419" /><feOffset dx="0" dy="2" /><feGaussianBlur stdDeviation="1" /><feComposite in2="hardAlpha_4_1419" operator="out" /><feColorMatrix type="matrix" values="0 0 0 0 0 0 0 0 0 0 0 0 0 0 0 0 0 0 0.5 0" /><feBlend mode="normal" in2="feFloodId_4_1419" result="dropShadow_1_4_1419" /><feBlend mode="normal" in="SourceGraphic" in2="dropShadow_1_4_1419" result="shape_4_1419" /></filter><filter id="filter_4_1420" x="1453.99951171875" y="301.99993896484375" width="28" height="27.9990234375" filterUnits="userSpaceOnUse" color-interpolation-filters="sRGB"><feFlood flood-opacity="0" result="feFloodId_4_1420" /><feColorMatrix in="SourceAlpha" type="matrix" values="0 0 0 0 0 0 0 0 0 0 0 0 0 0 0 0 0 0 127 0" result="hardAlpha_4_1420" /><feOffset dx="0" dy="2" /><feGaussianBlur stdDeviation="2" /><feComposite in2="hardAlpha_4_1420" operator="out" /><feColorMatrix type="matrix" values="0 0 0 0 0 0 0 0 0 0.4470588235294118 0 0 0 0 1 0 0 0 1 0" /><feBlend mode="normal" in2="feFloodId_4_1420" result="dropShadow_1_4_1420" /><feBlend mode="normal" in="SourceGraphic" in2="dropShadow_1_4_1420" result="shape_4_1420" /></filter><linearGradient id="linear_fill_2_2195_0" x1="1608" y1="334" x2="1608" y2="294" gradientUnits="userSpaceOnUse"><stop offset="0" stop-color="#0072FF" /><stop offset="1" stop-color="#00C8FF" /></linearGradient><filter id="filter_2_2195" x="1548.001953125" y="292" width="43.998046875" height="43.998046875" filterUnits="userSpaceOnUse" color-interpolation-filters="sRGB"><feFlood flood-opacity="0" result="feFloodId_2_2195" /><feColorMatrix in="SourceAlpha" type="matrix" values="0 0 0 0 0 0 0 0 0 0 0 0 0 0 0 0 0 0 127 0" result="hardAlpha_2_2195" /><feOffset dx="2" dy="0" /><feGaussianBlur stdDeviation="1" /><feComposite in2="hardAlpha_2_2195" operator="out" /><feColorMatrix type="matrix" values="0 0 0 0 0 0 0 0 0 0 0 0 0 0 0 0 0 0 0.5 0" /><feBlend mode="normal" in2="feFloodId_2_2195" result="dropShadow_1_2_2195" /><feBlend mode="normal" in="SourceGraphic" in2="dropShadow_1_2_2195" result="shape_2_2195" /></filter><filter id="filter_2_2196" x="1554.00048828125" y="301.99993896484375" width="27.9990234375" height="28" filterUnits="userSpaceOnUse" color-interpolation-filters="sRGB"><feFlood flood-opacity="0" result="feFloodId_2_2196" /><feColorMatrix in="SourceAlpha" type="matrix" values="0 0 0 0 0 0 0 0 0 0 0 0 0 0 0 0 0 0 127 0" result="hardAlpha_2_2196" /><feOffset dx="0" dy="2" /><feGaussianBlur stdDeviation="2" /><feComposite in2="hardAlpha_2_2196" operator="out" /><feColorMatrix type="matrix" values="0 0 0 0 0 0 0 0 0 0.4470588235294118 0 0 0 0 1 0 0 0 1 0" /><feBlend mode="normal" in2="feFloodId_2_2196" result="dropShadow_1_2_2196" /><feBlend mode="normal" in="SourceGraphic" in2="dropShadow_1_2_2196" result="shape_2_2196" /></filter><linearGradient id="linear_fill_3zR3iDLegKgKmshlGodIa" x1="1560" y1="432" x2="1560" y2="460.00006103515625" gradientUnits="userSpaceOnUse"><stop offset="0" stop-color="#EDF5FF" /><stop offset="1" stop-color="#92C3FF" /></linearGradient><linearGradient id="linear_fill_esC89JAD-pbNi9UHjxqZK" x1="224" y1="293" x2="224" y2="335" gradientUnits="userSpaceOnUse"><stop offset="0" stop-color="#EDF5FF" /><stop offset="1" stop-color="#92C3FF" /></linearGradient><linearGradient id="linear_fill_fQk8cYB63cZNgccwALJlu" x1="108" y1="291" x2="108" y2="337" gradientUnits="userSpaceOnUse"><stop offset="0" stop-color="#EDF5FF" /><stop offset="1" stop-color="#92C3FF" /></linearGradient><mask id="mask-1_853" style="mask-type:alpha" maskUnits="userSpaceOnUse"><path d="M168.952 918L82.4428 822.601C79.1857 819.361 79.1857 814.047 82.4428 810.676L166.346 718L278 718L278 917.87L168.952 917.87L168.952 918Z" fill="#000000" /></mask><linearGradient id="linear_fill_1_855" x1="282.07275390625" y1="818.0653381347656" x2="76.05859375" y2="818.0653381347656" gradientUnits="userSpaceOnUse"><stop offset="0" stop-color="#FFFFFF" stop-opacity="0" /><stop offset="0.6" stop-color="#FFFFFF" stop-opacity="0" /><stop offset="0.8" stop-color="#FFFFFF" stop-opacity="0.05" /><stop offset="1" stop-color="#FFFFFF" stop-opacity="0.25" /></linearGradient><linearGradient id="linear_border_1_856_0" x1="279.38818359375" y1="818.0653991699219" x2="78.74365234375" y2="818.0653991699219" gradientUnits="userSpaceOnUse"><stop offset="0" stop-color="#FFFFFF" stop-opacity="0" /><stop offset="0.6" stop-color="#FFFFFF" stop-opacity="0" /><stop offset="1" stop-color="#FFFFFF" stop-opacity="0.75" /></linearGradient><linearGradient id="linear_border_1_857" x1="262.60888671875" y1="818.0008544921875" x2="99.38134765625" y2="818.0008544921875" gradientUnits="userSpaceOnUse"><stop offset="0" stop-color="#FFFFFF" stop-opacity="0" /><stop offset="0.65" stop-color="#FFFFFF" stop-opacity="0" /><stop offset="1" stop-color="#FFFFFF" stop-opacity="0.75" /></linearGradient><mask id="mask-1_863" style="mask-type:alpha" maskUnits="userSpaceOnUse"><path d="M403.048 718L489.557 813.399C492.814 816.639 492.814 821.953 489.557 825.323L405.654 918L294 918L294 718.13L403.048 718.13L403.048 718Z" fill="#000000" /></mask><linearGradient id="linear_fill_1_865" x1="289.927734375" y1="817.9339599609375" x2="495.94189453125" y2="817.9339599609375" gradientUnits="userSpaceOnUse"><stop offset="0" stop-color="#FFFFFF" stop-opacity="0" /><stop offset="0.6" stop-color="#FFFFFF" stop-opacity="0" /><stop offset="0.8" stop-color="#FFFFFF" stop-opacity="0.05" /><stop offset="1" stop-color="#FFFFFF" stop-opacity="0.25" /></linearGradient><linearGradient id="linear_border_1_866_0" x1="292.61181640625" y1="817.9344177246094" x2="493.25634765625" y2="817.9344177246094" gradientUnits="userSpaceOnUse"><stop offset="0" stop-color="#FFFFFF" stop-opacity="0" /><stop offset="0.6" stop-color="#FFFFFF" stop-opacity="0" /><stop offset="1" stop-color="#FFFFFF" stop-opacity="0.75" /></linearGradient><linearGradient id="linear_border_1_867" x1="309.3916015625" y1="817.9984741210938" x2="472.619140625" y2="817.9984741210938" gradientUnits="userSpaceOnUse"><stop offset="0" stop-color="#FFFFFF" stop-opacity="0" /><stop offset="0.65" stop-color="#FFFFFF" stop-opacity="0" /><stop offset="1" stop-color="#FFFFFF" stop-opacity="0.75" /></linearGradient><mask id="mask-1_905" style="mask-type:alpha" maskUnits="userSpaceOnUse"><path d="M168.952 1150L82.4428 1054.6C79.1857 1051.36 79.1857 1046.05 82.4428 1042.68L166.346 950L278 950L278 1149.87L168.952 1149.87L168.952 1150Z" fill="#000000" /></mask><linearGradient id="linear_fill_1_907" x1="282.07275390625" y1="1050.0653839111328" x2="76.05859375" y2="1050.0653839111328" gradientUnits="userSpaceOnUse"><stop offset="0" stop-color="#FFFFFF" stop-opacity="0" /><stop offset="0.6" stop-color="#FFFFFF" stop-opacity="0" /><stop offset="0.8" stop-color="#FFFFFF" stop-opacity="0.1" /><stop offset="1" stop-color="#FFFFFF" /></linearGradient><linearGradient id="linear_border_1_908_0" x1="279.38818359375" y1="1050.0654296875" x2="78.74365234375" y2="1050.0654296875" gradientUnits="userSpaceOnUse"><stop offset="0" stop-color="#FFFFFF" stop-opacity="0" /><stop offset="0.6" stop-color="#FFFFFF" stop-opacity="0" /><stop offset="1" stop-color="#FFFFFF" /></linearGradient><linearGradient id="linear_border_1_909" x1="262.60888671875" y1="1050.0008850097656" x2="99.38134765625" y2="1050.0008850097656" gradientUnits="userSpaceOnUse"><stop offset="0" stop-color="#FFFFFF" stop-opacity="0" /><stop offset="0.65" stop-color="#FFFFFF" stop-opacity="0" /><stop offset="1" stop-color="#FFFFFF" /></linearGradient><mask id="mask-1_927" style="mask-type:alpha" maskUnits="userSpaceOnUse"><path d="M403.048 950L489.557 1045.4C492.814 1048.64 492.814 1053.95 489.557 1057.32L405.654 1150L294 1150L294 950.13L403.048 950.13L403.048 950Z" fill="#000000" /></mask><linearGradient id="linear_fill_1_929" x1="289.92724609375" y1="1049.9346313476562" x2="495.94140625" y2="1049.9346466064453" gradientUnits="userSpaceOnUse"><stop offset="0" stop-color="#FFFFFF" stop-opacity="0" /><stop offset="0.6" stop-color="#FFFFFF" stop-opacity="0" /><stop offset="0.8" stop-color="#FFFFFF" stop-opacity="0.1" /><stop offset="1" stop-color="#FFFFFF" /></linearGradient><linearGradient id="linear_border_1_930_0" x1="292.61181640625" y1="1049.934555053711" x2="493.25634765625" y2="1049.9345703125" gradientUnits="userSpaceOnUse"><stop offset="0" stop-color="#FFFFFF" stop-opacity="0" /><stop offset="0.6" stop-color="#FFFFFF" stop-opacity="0" /><stop offset="1" stop-color="#FFFFFF" /></linearGradient><linearGradient id="linear_border_1_931" x1="309.39111328125" y1="1049.9991302490234" x2="472.61865234375" y2="1049.9991302490234" gradientUnits="userSpaceOnUse"><stop offset="0" stop-color="#FFFFFF" stop-opacity="0" /><stop offset="0.65" stop-color="#FFFFFF" stop-opacity="0" /><stop offset="1" stop-color="#FFFFFF" /></linearGradient><mask id="mask-2_2157" style="mask-type:alpha" maskUnits="userSpaceOnUse"><path d="M852 822.952L947.399 736.443C950.639 733.186 955.953 733.186 959.323 736.443L1052 820.346L1052 932L852.13 932L852.13 822.952L852 822.952Z" fill="#000000" /></mask><linearGradient id="linear_fill_2_2159" x1="951.9345703125" y1="936.0727233886719" x2="951.9345703125" y2="730.0584716796875" gradientUnits="userSpaceOnUse"><stop offset="0" stop-color="#FFFFFF" stop-opacity="0" /><stop offset="0.6" stop-color="#FFFFFF" stop-opacity="0" /><stop offset="0.8" stop-color="#FFFFFF" stop-opacity="0.1" /><stop offset="1" stop-color="#FFFFFF" /></linearGradient><linearGradient id="linear_border_2_2160_0" x1="951.9345703125" y1="933.3881225585938" x2="951.9345703125" y2="732.74365234375" gradientUnits="userSpaceOnUse"><stop offset="0" stop-color="#FFFFFF" stop-opacity="0" /><stop offset="0.6" stop-color="#FFFFFF" stop-opacity="0" /><stop offset="1" stop-color="#FFFFFF" /></linearGradient><linearGradient id="linear_border_2_2161" x1="951.9990234375" y1="916.6085815429688" x2="951.9990234375" y2="753.3814697265625" gradientUnits="userSpaceOnUse"><stop offset="0" stop-color="#FFFFFF" stop-opacity="0" /><stop offset="0.65" stop-color="#FFFFFF" stop-opacity="0" /><stop offset="1" stop-color="#FFFFFF" /></linearGradient><mask id="mask-2_2166" style="mask-type:alpha" maskUnits="userSpaceOnUse"><path d="M1052 1057.05L956.601 1143.56C953.361 1146.81 948.047 1146.81 944.677 1143.56L852 1059.65L852 948L1051.87 948L1051.87 1057.05L1052 1057.05Z" fill="#000000" /></mask><linearGradient id="linear_fill_2_2168" x1="952.0654296875" y1="943.9272766113281" x2="952.0654296875" y2="1149.941520690918" gradientUnits="userSpaceOnUse"><stop offset="0" stop-color="#FFFFFF" stop-opacity="0" /><stop offset="0.6" stop-color="#FFFFFF" stop-opacity="0" /><stop offset="0.8" stop-color="#FFFFFF" stop-opacity="0.1" /><stop offset="1" stop-color="#FFFFFF" /></linearGradient><linearGradient id="linear_border_2_2169_0" x1="952.0654296875" y1="946.6118774414062" x2="952.0654296875" y2="1147.2563171386719" gradientUnits="userSpaceOnUse"><stop offset="0" stop-color="#FFFFFF" stop-opacity="0" /><stop offset="0.6" stop-color="#FFFFFF" stop-opacity="0" /><stop offset="1" stop-color="#FFFFFF" /></linearGradient><linearGradient id="linear_border_2_2170" x1="952.0009765625" y1="963.3914184570312" x2="952.0009765625" y2="1126.6185607910156" gradientUnits="userSpaceOnUse"><stop offset="0" stop-color="#FFFFFF" stop-opacity="0" /><stop offset="0.65" stop-color="#FFFFFF" stop-opacity="0" /><stop offset="1" stop-color="#FFFFFF" /></linearGradient><mask id="mask-2_2175" style="mask-type:alpha" maskUnits="userSpaceOnUse"><path d="M572 822.952L667.399 736.443C670.639 733.186 675.953 733.186 679.323 736.443L772 820.346L772 932L572.13 932L572.13 822.952L572 822.952Z" fill="#000000" /></mask><linearGradient id="linear_fill_2_2177" x1="671.9345703125" y1="936.0727233886719" x2="671.9345703125" y2="730.0584716796875" gradientUnits="userSpaceOnUse"><stop offset="0" stop-color="#FFFFFF" stop-opacity="0" /><stop offset="0.6" stop-color="#FFFFFF" stop-opacity="0" /><stop offset="0.8" stop-color="#FFFFFF" stop-opacity="0.05" /><stop offset="1" stop-color="#FFFFFF" stop-opacity="0.25" /></linearGradient><linearGradient id="linear_border_2_2178_0" x1="671.9345703125" y1="933.3881225585938" x2="671.9345703125" y2="732.74365234375" gradientUnits="userSpaceOnUse"><stop offset="0" stop-color="#FFFFFF" stop-opacity="0" /><stop offset="0.6" stop-color="#FFFFFF" stop-opacity="0" /><stop offset="1" stop-color="#FFFFFF" stop-opacity="0.75" /></linearGradient><linearGradient id="linear_border_2_2179" x1="671.9990234375" y1="916.6085815429688" x2="671.9990234375" y2="753.3814697265625" gradientUnits="userSpaceOnUse"><stop offset="0" stop-color="#FFFFFF" stop-opacity="0" /><stop offset="0.65" stop-color="#FFFFFF" stop-opacity="0" /><stop offset="1" stop-color="#FFFFFF" stop-opacity="0.75" /></linearGradient><mask id="mask-2_2184" style="mask-type:alpha" maskUnits="userSpaceOnUse"><path d="M772 1057.05L676.601 1143.56C673.361 1146.81 668.047 1146.81 664.677 1143.56L572 1059.65L572 948L771.87 948L771.87 1057.05L772 1057.05Z" fill="#000000" /></mask><linearGradient id="linear_fill_2_2186" x1="672.06640625" y1="943.9277648925781" x2="672.06640625" y2="1149.9419708251953" gradientUnits="userSpaceOnUse"><stop offset="0" stop-color="#FFFFFF" stop-opacity="0" /><stop offset="0.6" stop-color="#FFFFFF" stop-opacity="0" /><stop offset="0.8" stop-color="#FFFFFF" stop-opacity="0.05" /><stop offset="1" stop-color="#FFFFFF" stop-opacity="0.25" /></linearGradient><linearGradient id="linear_border_2_2187_0" x1="672.0654296875" y1="946.6118469238281" x2="672.0654296875" y2="1147.2562713623047" gradientUnits="userSpaceOnUse"><stop offset="0" stop-color="#FFFFFF" stop-opacity="0" /><stop offset="0.6" stop-color="#FFFFFF" stop-opacity="0" /><stop offset="1" stop-color="#FFFFFF" stop-opacity="0.75" /></linearGradient><linearGradient id="linear_border_2_2188" x1="672.00146484375" y1="963.3918762207031" x2="672.00146484375" y2="1126.6190032958984" gradientUnits="userSpaceOnUse"><stop offset="0" stop-color="#FFFFFF" stop-opacity="0" /><stop offset="0.65" stop-color="#FFFFFF" stop-opacity="0" /><stop offset="1" stop-color="#FFFFFF" stop-opacity="0.75" /></linearGradient><linearGradient id="linear_fill_7_1504" x1="1261" y1="1145.9999694824219" x2="1261" y2="836" gradientUnits="userSpaceOnUse"><stop offset="0" stop-color="#0072FF" /><stop offset="1" stop-color="#00C8FF" /></linearGradient><filter id="filter_8_9" x="1583" y="809" width="256" height="97" filterUnits="userSpaceOnUse" color-interpolation-filters="sRGB"><feFlood flood-opacity="0" result="feFloodId_8_9" /><feBlend mode="normal" in="SourceGraphic" in2="feFloodId_8_9" result="shape_8_9" /><feColorMatrix in="SourceAlpha" type="matrix" values="0 0 0 0 0 0 0 0 0 0 0 0 0 0 0 0 0 0 127 0" result="hardAlpha_8_9" /><feOffset dx="0" dy="-12" /><feGaussianBlur stdDeviation="16" /><feComposite in2="hardAlpha_8_9" operator="arithmetic" k2="-1" k3="1" /><feColorMatrix type="matrix" values="0 0 0 0 0 0 0 0 0 0.4470588235294118 0 0 0 0 1 0 0 0 0.64 0" /><feBlend mode="normal" in2="shape_8_9" result="innerShadow_0_8_9" /></filter><mask id="mask-8_9" style="mask-type:alpha" maskUnits="userSpaceOnUse"><path d="M1583 906L1736.1 906C1736.1 906 1747.5 906 1755 903C1762.48 900.032 1768.5 893.5 1768.5 893.5L1839 809L1583 809L1583 906Z" fill="#1B2D4D" fill-opacity="0.4" /></mask><linearGradient id="linear_fill_8_10" x1="1750.7119140625" y1="907" x2="1750.7099609375" y2="807.8174438476562" gradientUnits="userSpaceOnUse"><stop offset="0" stop-color="#DBEBFF" /><stop offset="1" stop-color="#DBEBFF" stop-opacity="0" /></linearGradient><linearGradient id="linear_border_8_12_0" x1="1583" y1="860.128173828125" x2="1830.7841796875" y2="860.128173828125" gradientUnits="userSpaceOnUse"><stop offset="0" stop-color="#7EA2CF" /><stop offset="0.2862" stop-color="#00C6FF" /><stop offset="0.6968" stop-color="#92FE9D" /><stop offset="0.8912" stop-color="#00C8FF" /><stop offset="1" stop-color="#7DA2CE" /></linearGradient><linearGradient id="linear_border_8_13_0" x1="1583" y1="857.7345275878906" x2="1824.9990234375" y2="857.7345275878906" gradientUnits="userSpaceOnUse"><stop offset="0" stop-color="#7EA2CF" /><stop offset="0.2862" stop-color="#00C6FF" /><stop offset="0.6968" stop-color="#92FE9D" /><stop offset="0.8912" stop-color="#00C8FF" /><stop offset="1" stop-color="#7DA2CE" /></linearGradient></defs></svg>