<svg xmlns="http://www.w3.org/2000/svg" xmlns:xlink="http://www.w3.org/1999/xlink" width="34" height="34" viewBox="731 429.5 34 34" fill="none"><path d="M762.9 444.14C762.6 443.24 761.799 442.64 760.848 442.623C760.28 442.623 759.713 442.623 759.146 442.623C758.962 442.623 758.879 442.573 758.829 442.406C758.795 442.289 758.745 442.173 758.695 442.056C758.54 441.7 758.606 441.378 758.895 441.089C759.196 440.788 759.496 440.505 759.78 440.188C760.647 439.288 760.664 437.987 759.796 437.07C759.012 436.253 758.228 435.469 757.41 434.685C756.493 433.801 755.191 433.818 754.274 434.718C753.89 435.102 753.506 435.469 753.139 435.869C753.006 436.003 752.889 436.019 752.739 435.936C752.455 435.802 752.171 435.686 751.871 435.569C751.871 434.969 751.871 434.368 751.871 433.785C751.871 432.434 750.92 431.5 749.585 431.5C748.534 431.5 747.466 431.5 746.415 431.5C745.063 431.5 744.129 432.434 744.129 433.785C744.129 434.285 744.129 434.802 744.129 435.302C744.129 435.536 744.062 435.636 743.845 435.686C743.762 435.702 743.679 435.736 743.595 435.769C743.195 435.925 742.839 435.852 742.527 435.552C742.227 435.252 741.943 434.952 741.626 434.668C740.775 433.868 739.474 433.835 738.623 434.635C737.772 435.452 736.921 436.286 736.12 437.136C735.319 437.987 735.336 439.288 736.154 440.138C736.537 440.555 736.954 440.939 737.355 441.339C737.472 441.456 737.522 441.556 737.438 441.722C737.321 441.939 737.221 442.173 737.155 442.389C737.105 442.573 736.988 442.623 736.821 442.606C736.27 442.606 735.72 442.606 735.186 442.606C733.968 442.606 733 443.557 733 444.774C733 445.908 733 447.042 733 448.176C733 449.393 733.984 450.327 735.202 450.344C735.82 450.344 736.454 450.344 737.071 450.344C737.221 450.677 737.355 450.994 737.488 451.328C737.522 451.394 737.455 451.528 737.388 451.594C737.021 451.978 736.637 452.362 736.254 452.745C735.336 453.679 735.319 454.996 736.254 455.947C737.021 456.714 737.789 457.481 738.556 458.248C739.491 459.165 740.809 459.149 741.726 458.248C742.11 457.881 742.494 457.498 742.861 457.114C742.978 456.981 743.078 456.947 743.245 457.048C743.362 457.114 743.495 457.164 743.612 457.214C743.957 457.359 744.129 457.62 744.129 457.998C744.129 458.432 744.129 458.865 744.129 459.282C744.129 460.366 744.813 461.2 745.881 461.45C745.931 461.45 745.964 461.483 746.014 461.5L750.002 461.5C750.503 461.367 750.97 461.166 751.337 460.75C751.687 460.349 751.888 459.882 751.888 459.332C751.888 458.748 751.888 458.181 751.888 457.598C751.888 457.448 751.938 457.364 752.071 457.314C752.238 457.264 752.405 457.198 752.555 457.131C752.844 457.009 753.1 457.059 753.323 457.281C753.64 457.598 753.973 457.931 754.29 458.248C755.191 459.115 756.493 459.149 757.394 458.282C758.211 457.498 759.012 456.697 759.796 455.88C760.664 454.98 760.647 453.679 759.763 452.778C759.396 452.395 759.012 452.011 758.628 451.645C758.478 451.511 758.462 451.378 758.562 451.211C758.628 451.111 758.662 450.994 758.712 450.894C758.857 450.538 759.129 450.36 759.529 450.36C759.947 450.36 760.347 450.36 760.764 450.36C761.849 450.36 762.683 449.71 762.95 448.643C762.95 448.593 762.983 448.526 763 448.476L763 444.491C762.967 444.374 762.933 444.257 762.883 444.124L762.9 444.14ZM752.638 446.508C752.638 449.06 750.57 451.128 748.017 451.144C745.43 451.144 743.345 449.076 743.345 446.508C743.345 443.94 745.397 441.872 747.967 441.872C750.553 441.872 752.622 443.924 752.622 446.525L752.638 446.508Z" fill="#EDF5FF" /><defs><filter id="filter_23_42" x="0" y="0" width="1920" height="121" filterUnits="userSpaceOnUse" color-interpolation-filters="sRGB"><feFlood flood-opacity="0" result="feFloodId_23_42" /><feColorMatrix in="SourceAlpha" type="matrix" values="0 0 0 0 0 0 0 0 0 0 0 0 0 0 0 0 0 0 127 0" result="hardAlpha_23_42" /><feOffset dx="0" dy="1" /><feComposite in2="hardAlpha_23_42" operator="out" /><feColorMatrix type="matrix" values="0 0 0 0 0.27450980392156865 0 0 0 0 0.36470588235294116 0 0 0 0 0.47843137254901963 0 0 0 1 0" /><feBlend mode="normal" in2="feFloodId_23_42" result="dropShadow_1_23_42" /><feBlend mode="normal" in="SourceGraphic" in2="dropShadow_1_23_42" result="shape_23_42" /></filter><filter id="filter_6_7686" x="1017.999999682108" y="436.9999996821084" width="48.00000063578409" height="18.00000063578318" filterUnits="userSpaceOnUse" color-interpolation-filters="sRGB"><feFlood flood-opacity="0" result="feFloodId_6_7686" /><feColorMatrix in="SourceAlpha" type="matrix" values="0 0 0 0 0 0 0 0 0 0 0 0 0 0 0 0 0 0 127 0" result="hardAlpha_6_7686" /><feOffset dx="0" dy="0" /><feGaussianBlur stdDeviation="3.000000158945795" /><feComposite in2="hardAlpha_6_7686" operator="out" /><feColorMatrix type="matrix" values="0 0 0 0 0 0 0 0 0 0.4470588235294118 0 0 0 0 1 0 0 0 1 0" /><feBlend mode="normal" in2="feFloodId_6_7686" result="dropShadow_1_6_7686" /><feBlend mode="normal" in="SourceGraphic" in2="dropShadow_1_6_7686" result="shape_6_7686" /></filter><filter id="filter_6_7690" x="922" y="422" width="48" height="48" filterUnits="userSpaceOnUse" color-interpolation-filters="sRGB"><feFlood flood-opacity="0" result="feFloodId_6_7690" /><feColorMatrix in="SourceAlpha" type="matrix" values="0 0 0 0 0 0 0 0 0 0 0 0 0 0 0 0 0 0 127 0" result="hardAlpha_6_7690" /><feOffset dx="0" dy="0" /><feGaussianBlur stdDeviation="3" /><feComposite in2="hardAlpha_6_7690" operator="out" /><feColorMatrix type="matrix" values="0 0 0 0 0 0 0 0 0 0.4470588235294118 0 0 0 0 1 0 0 0 1 0" /><feBlend mode="normal" in2="feFloodId_6_7690" result="dropShadow_1_6_7690" /><feBlend mode="normal" in="SourceGraphic" in2="dropShadow_1_6_7690" result="shape_6_7690" /></filter><linearGradient id="linear_fill_4_1419_0" x1="1468" y1="334" x2="1468" y2="294" gradientUnits="userSpaceOnUse"><stop offset="0" stop-color="#0072FF" /><stop offset="1" stop-color="#00C8FF" /></linearGradient><filter id="filter_4_1419" x="1446" y="294" width="43.998046875" height="43.998046875" filterUnits="userSpaceOnUse" color-interpolation-filters="sRGB"><feFlood flood-opacity="0" result="feFloodId_4_1419" /><feColorMatrix in="SourceAlpha" type="matrix" values="0 0 0 0 0 0 0 0 0 0 0 0 0 0 0 0 0 0 127 0" result="hardAlpha_4_1419" /><feOffset dx="0" dy="2" /><feGaussianBlur stdDeviation="1" /><feComposite in2="hardAlpha_4_1419" operator="out" /><feColorMatrix type="matrix" values="0 0 0 0 0 0 0 0 0 0 0 0 0 0 0 0 0 0 0.5 0" /><feBlend mode="normal" in2="feFloodId_4_1419" result="dropShadow_1_4_1419" /><feBlend mode="normal" in="SourceGraphic" in2="dropShadow_1_4_1419" result="shape_4_1419" /></filter><filter id="filter_4_1420" x="1453.99951171875" y="301.99993896484375" width="28" height="27.9990234375" filterUnits="userSpaceOnUse" color-interpolation-filters="sRGB"><feFlood flood-opacity="0" result="feFloodId_4_1420" /><feColorMatrix in="SourceAlpha" type="matrix" values="0 0 0 0 0 0 0 0 0 0 0 0 0 0 0 0 0 0 127 0" result="hardAlpha_4_1420" /><feOffset dx="0" dy="2" /><feGaussianBlur stdDeviation="2" /><feComposite in2="hardAlpha_4_1420" operator="out" /><feColorMatrix type="matrix" values="0 0 0 0 0 0 0 0 0 0.4470588235294118 0 0 0 0 1 0 0 0 1 0" /><feBlend mode="normal" in2="feFloodId_4_1420" result="dropShadow_1_4_1420" /><feBlend mode="normal" in="SourceGraphic" in2="dropShadow_1_4_1420" result="shape_4_1420" /></filter><linearGradient id="linear_fill_2_2195_0" x1="1608" y1="334" x2="1608" y2="294" gradientUnits="userSpaceOnUse"><stop offset="0" stop-color="#0072FF" /><stop offset="1" stop-color="#00C8FF" /></linearGradient><filter id="filter_2_2195" x="1548.001953125" y="292" width="43.998046875" height="43.998046875" filterUnits="userSpaceOnUse" color-interpolation-filters="sRGB"><feFlood flood-opacity="0" result="feFloodId_2_2195" /><feColorMatrix in="SourceAlpha" type="matrix" values="0 0 0 0 0 0 0 0 0 0 0 0 0 0 0 0 0 0 127 0" result="hardAlpha_2_2195" /><feOffset dx="2" dy="0" /><feGaussianBlur stdDeviation="1" /><feComposite in2="hardAlpha_2_2195" operator="out" /><feColorMatrix type="matrix" values="0 0 0 0 0 0 0 0 0 0 0 0 0 0 0 0 0 0 0.5 0" /><feBlend mode="normal" in2="feFloodId_2_2195" result="dropShadow_1_2_2195" /><feBlend mode="normal" in="SourceGraphic" in2="dropShadow_1_2_2195" result="shape_2_2195" /></filter><filter id="filter_2_2196" x="1554.00048828125" y="301.99993896484375" width="27.9990234375" height="28" filterUnits="userSpaceOnUse" color-interpolation-filters="sRGB"><feFlood flood-opacity="0" result="feFloodId_2_2196" /><feColorMatrix in="SourceAlpha" type="matrix" values="0 0 0 0 0 0 0 0 0 0 0 0 0 0 0 0 0 0 127 0" result="hardAlpha_2_2196" /><feOffset dx="0" dy="2" /><feGaussianBlur stdDeviation="2" /><feComposite in2="hardAlpha_2_2196" operator="out" /><feColorMatrix type="matrix" values="0 0 0 0 0 0 0 0 0 0.4470588235294118 0 0 0 0 1 0 0 0 1 0" /><feBlend mode="normal" in2="feFloodId_2_2196" result="dropShadow_1_2_2196" /><feBlend mode="normal" in="SourceGraphic" in2="dropShadow_1_2_2196" result="shape_2_2196" /></filter><linearGradient id="linear_fill_3zR3iDLegKgKmshlGodIa" x1="1560" y1="432" x2="1560" y2="460.00006103515625" gradientUnits="userSpaceOnUse"><stop offset="0" stop-color="#EDF5FF" /><stop offset="1" stop-color="#92C3FF" /></linearGradient><linearGradient id="linear_fill_esC89JAD-pbNi9UHjxqZK" x1="224" y1="293" x2="224" y2="335" gradientUnits="userSpaceOnUse"><stop offset="0" stop-color="#EDF5FF" /><stop offset="1" stop-color="#92C3FF" /></linearGradient><linearGradient id="linear_fill_fQk8cYB63cZNgccwALJlu" x1="108" y1="291" x2="108" y2="337" gradientUnits="userSpaceOnUse"><stop offset="0" stop-color="#EDF5FF" /><stop offset="1" stop-color="#92C3FF" /></linearGradient><mask id="mask-1_853" style="mask-type:alpha" maskUnits="userSpaceOnUse"><path d="M168.952 918L82.4428 822.601C79.1857 819.361 79.1857 814.047 82.4428 810.676L166.346 718L278 718L278 917.87L168.952 917.87L168.952 918Z" fill="#000000" /></mask><linearGradient id="linear_fill_1_855" x1="282.07275390625" y1="818.0653381347656" x2="76.05859375" y2="818.0653381347656" gradientUnits="userSpaceOnUse"><stop offset="0" stop-color="#FFFFFF" stop-opacity="0" /><stop offset="0.6" stop-color="#FFFFFF" stop-opacity="0" /><stop offset="0.8" stop-color="#FFFFFF" stop-opacity="0.05" /><stop offset="1" stop-color="#FFFFFF" stop-opacity="0.25" /></linearGradient><linearGradient id="linear_border_1_856_0" x1="279.38818359375" y1="818.0653991699219" x2="78.74365234375" y2="818.0653991699219" gradientUnits="userSpaceOnUse"><stop offset="0" stop-color="#FFFFFF" stop-opacity="0" /><stop offset="0.6" stop-color="#FFFFFF" stop-opacity="0" /><stop offset="1" stop-color="#FFFFFF" stop-opacity="0.75" /></linearGradient><linearGradient id="linear_border_1_857" x1="262.60888671875" y1="818.0008544921875" x2="99.38134765625" y2="818.0008544921875" gradientUnits="userSpaceOnUse"><stop offset="0" stop-color="#FFFFFF" stop-opacity="0" /><stop offset="0.65" stop-color="#FFFFFF" stop-opacity="0" /><stop offset="1" stop-color="#FFFFFF" stop-opacity="0.75" /></linearGradient><mask id="mask-1_863" style="mask-type:alpha" maskUnits="userSpaceOnUse"><path d="M403.048 718L489.557 813.399C492.814 816.639 492.814 821.953 489.557 825.323L405.654 918L294 918L294 718.13L403.048 718.13L403.048 718Z" fill="#000000" /></mask><linearGradient id="linear_fill_1_865" x1="289.927734375" y1="817.9339599609375" x2="495.94189453125" y2="817.9339599609375" gradientUnits="userSpaceOnUse"><stop offset="0" stop-color="#FFFFFF" stop-opacity="0" /><stop offset="0.6" stop-color="#FFFFFF" stop-opacity="0" /><stop offset="0.8" stop-color="#FFFFFF" stop-opacity="0.05" /><stop offset="1" stop-color="#FFFFFF" stop-opacity="0.25" /></linearGradient><linearGradient id="linear_border_1_866_0" x1="292.61181640625" y1="817.9344177246094" x2="493.25634765625" y2="817.9344177246094" gradientUnits="userSpaceOnUse"><stop offset="0" stop-color="#FFFFFF" stop-opacity="0" /><stop offset="0.6" stop-color="#FFFFFF" stop-opacity="0" /><stop offset="1" stop-color="#FFFFFF" stop-opacity="0.75" /></linearGradient><linearGradient id="linear_border_1_867" x1="309.3916015625" y1="817.9984741210938" x2="472.619140625" y2="817.9984741210938" gradientUnits="userSpaceOnUse"><stop offset="0" stop-color="#FFFFFF" stop-opacity="0" /><stop offset="0.65" stop-color="#FFFFFF" stop-opacity="0" /><stop offset="1" stop-color="#FFFFFF" stop-opacity="0.75" /></linearGradient><mask id="mask-1_905" style="mask-type:alpha" maskUnits="userSpaceOnUse"><path d="M168.952 1150L82.4428 1054.6C79.1857 1051.36 79.1857 1046.05 82.4428 1042.68L166.346 950L278 950L278 1149.87L168.952 1149.87L168.952 1150Z" fill="#000000" /></mask><linearGradient id="linear_fill_1_907" x1="282.07275390625" y1="1050.0653839111328" x2="76.05859375" y2="1050.0653839111328" gradientUnits="userSpaceOnUse"><stop offset="0" stop-color="#FFFFFF" stop-opacity="0" /><stop offset="0.6" stop-color="#FFFFFF" stop-opacity="0" /><stop offset="0.8" stop-color="#FFFFFF" stop-opacity="0.1" /><stop offset="1" stop-color="#FFFFFF" /></linearGradient><linearGradient id="linear_border_1_908_0" x1="279.38818359375" y1="1050.0654296875" x2="78.74365234375" y2="1050.0654296875" gradientUnits="userSpaceOnUse"><stop offset="0" stop-color="#FFFFFF" stop-opacity="0" /><stop offset="0.6" stop-color="#FFFFFF" stop-opacity="0" /><stop offset="1" stop-color="#FFFFFF" /></linearGradient><linearGradient id="linear_border_1_909" x1="262.60888671875" y1="1050.0008850097656" x2="99.38134765625" y2="1050.0008850097656" gradientUnits="userSpaceOnUse"><stop offset="0" stop-color="#FFFFFF" stop-opacity="0" /><stop offset="0.65" stop-color="#FFFFFF" stop-opacity="0" /><stop offset="1" stop-color="#FFFFFF" /></linearGradient><mask id="mask-1_927" style="mask-type:alpha" maskUnits="userSpaceOnUse"><path d="M403.048 950L489.557 1045.4C492.814 1048.64 492.814 1053.95 489.557 1057.32L405.654 1150L294 1150L294 950.13L403.048 950.13L403.048 950Z" fill="#000000" /></mask><linearGradient id="linear_fill_1_929" x1="289.92724609375" y1="1049.9346313476562" x2="495.94140625" y2="1049.9346466064453" gradientUnits="userSpaceOnUse"><stop offset="0" stop-color="#FFFFFF" stop-opacity="0" /><stop offset="0.6" stop-color="#FFFFFF" stop-opacity="0" /><stop offset="0.8" stop-color="#FFFFFF" stop-opacity="0.1" /><stop offset="1" stop-color="#FFFFFF" /></linearGradient><linearGradient id="linear_border_1_930_0" x1="292.61181640625" y1="1049.934555053711" x2="493.25634765625" y2="1049.9345703125" gradientUnits="userSpaceOnUse"><stop offset="0" stop-color="#FFFFFF" stop-opacity="0" /><stop offset="0.6" stop-color="#FFFFFF" stop-opacity="0" /><stop offset="1" stop-color="#FFFFFF" /></linearGradient><linearGradient id="linear_border_1_931" x1="309.39111328125" y1="1049.9991302490234" x2="472.61865234375" y2="1049.9991302490234" gradientUnits="userSpaceOnUse"><stop offset="0" stop-color="#FFFFFF" stop-opacity="0" /><stop offset="0.65" stop-color="#FFFFFF" stop-opacity="0" /><stop offset="1" stop-color="#FFFFFF" /></linearGradient><mask id="mask-2_2157" style="mask-type:alpha" maskUnits="userSpaceOnUse"><path d="M852 822.952L947.399 736.443C950.639 733.186 955.953 733.186 959.323 736.443L1052 820.346L1052 932L852.13 932L852.13 822.952L852 822.952Z" fill="#000000" /></mask><linearGradient id="linear_fill_2_2159" x1="951.9345703125" y1="936.0727233886719" x2="951.9345703125" y2="730.0584716796875" gradientUnits="userSpaceOnUse"><stop offset="0" stop-color="#FFFFFF" stop-opacity="0" /><stop offset="0.6" stop-color="#FFFFFF" stop-opacity="0" /><stop offset="0.8" stop-color="#FFFFFF" stop-opacity="0.1" /><stop offset="1" stop-color="#FFFFFF" /></linearGradient><linearGradient id="linear_border_2_2160_0" x1="951.9345703125" y1="933.3881225585938" x2="951.9345703125" y2="732.74365234375" gradientUnits="userSpaceOnUse"><stop offset="0" stop-color="#FFFFFF" stop-opacity="0" /><stop offset="0.6" stop-color="#FFFFFF" stop-opacity="0" /><stop offset="1" stop-color="#FFFFFF" /></linearGradient><linearGradient id="linear_border_2_2161" x1="951.9990234375" y1="916.6085815429688" x2="951.9990234375" y2="753.3814697265625" gradientUnits="userSpaceOnUse"><stop offset="0" stop-color="#FFFFFF" stop-opacity="0" /><stop offset="0.65" stop-color="#FFFFFF" stop-opacity="0" /><stop offset="1" stop-color="#FFFFFF" /></linearGradient><mask id="mask-2_2166" style="mask-type:alpha" maskUnits="userSpaceOnUse"><path d="M1052 1057.05L956.601 1143.56C953.361 1146.81 948.047 1146.81 944.677 1143.56L852 1059.65L852 948L1051.87 948L1051.87 1057.05L1052 1057.05Z" fill="#000000" /></mask><linearGradient id="linear_fill_2_2168" x1="952.0654296875" y1="943.9272766113281" x2="952.0654296875" y2="1149.941520690918" gradientUnits="userSpaceOnUse"><stop offset="0" stop-color="#FFFFFF" stop-opacity="0" /><stop offset="0.6" stop-color="#FFFFFF" stop-opacity="0" /><stop offset="0.8" stop-color="#FFFFFF" stop-opacity="0.1" /><stop offset="1" stop-color="#FFFFFF" /></linearGradient><linearGradient id="linear_border_2_2169_0" x1="952.0654296875" y1="946.6118774414062" x2="952.0654296875" y2="1147.2563171386719" gradientUnits="userSpaceOnUse"><stop offset="0" stop-color="#FFFFFF" stop-opacity="0" /><stop offset="0.6" stop-color="#FFFFFF" stop-opacity="0" /><stop offset="1" stop-color="#FFFFFF" /></linearGradient><linearGradient id="linear_border_2_2170" x1="952.0009765625" y1="963.3914184570312" x2="952.0009765625" y2="1126.6185607910156" gradientUnits="userSpaceOnUse"><stop offset="0" stop-color="#FFFFFF" stop-opacity="0" /><stop offset="0.65" stop-color="#FFFFFF" stop-opacity="0" /><stop offset="1" stop-color="#FFFFFF" /></linearGradient><mask id="mask-2_2175" style="mask-type:alpha" maskUnits="userSpaceOnUse"><path d="M572 822.952L667.399 736.443C670.639 733.186 675.953 733.186 679.323 736.443L772 820.346L772 932L572.13 932L572.13 822.952L572 822.952Z" fill="#000000" /></mask><linearGradient id="linear_fill_2_2177" x1="671.9345703125" y1="936.0727233886719" x2="671.9345703125" y2="730.0584716796875" gradientUnits="userSpaceOnUse"><stop offset="0" stop-color="#FFFFFF" stop-opacity="0" /><stop offset="0.6" stop-color="#FFFFFF" stop-opacity="0" /><stop offset="0.8" stop-color="#FFFFFF" stop-opacity="0.05" /><stop offset="1" stop-color="#FFFFFF" stop-opacity="0.25" /></linearGradient><linearGradient id="linear_border_2_2178_0" x1="671.9345703125" y1="933.3881225585938" x2="671.9345703125" y2="732.74365234375" gradientUnits="userSpaceOnUse"><stop offset="0" stop-color="#FFFFFF" stop-opacity="0" /><stop offset="0.6" stop-color="#FFFFFF" stop-opacity="0" /><stop offset="1" stop-color="#FFFFFF" stop-opacity="0.75" /></linearGradient><linearGradient id="linear_border_2_2179" x1="671.9990234375" y1="916.6085815429688" x2="671.9990234375" y2="753.3814697265625" gradientUnits="userSpaceOnUse"><stop offset="0" stop-color="#FFFFFF" stop-opacity="0" /><stop offset="0.65" stop-color="#FFFFFF" stop-opacity="0" /><stop offset="1" stop-color="#FFFFFF" stop-opacity="0.75" /></linearGradient><mask id="mask-2_2184" style="mask-type:alpha" maskUnits="userSpaceOnUse"><path d="M772 1057.05L676.601 1143.56C673.361 1146.81 668.047 1146.81 664.677 1143.56L572 1059.65L572 948L771.87 948L771.87 1057.05L772 1057.05Z" fill="#000000" /></mask><linearGradient id="linear_fill_2_2186" x1="672.06640625" y1="943.9277648925781" x2="672.06640625" y2="1149.9419708251953" gradientUnits="userSpaceOnUse"><stop offset="0" stop-color="#FFFFFF" stop-opacity="0" /><stop offset="0.6" stop-color="#FFFFFF" stop-opacity="0" /><stop offset="0.8" stop-color="#FFFFFF" stop-opacity="0.05" /><stop offset="1" stop-color="#FFFFFF" stop-opacity="0.25" /></linearGradient><linearGradient id="linear_border_2_2187_0" x1="672.0654296875" y1="946.6118469238281" x2="672.0654296875" y2="1147.2562713623047" gradientUnits="userSpaceOnUse"><stop offset="0" stop-color="#FFFFFF" stop-opacity="0" /><stop offset="0.6" stop-color="#FFFFFF" stop-opacity="0" /><stop offset="1" stop-color="#FFFFFF" stop-opacity="0.75" /></linearGradient><linearGradient id="linear_border_2_2188" x1="672.00146484375" y1="963.3918762207031" x2="672.00146484375" y2="1126.6190032958984" gradientUnits="userSpaceOnUse"><stop offset="0" stop-color="#FFFFFF" stop-opacity="0" /><stop offset="0.65" stop-color="#FFFFFF" stop-opacity="0" /><stop offset="1" stop-color="#FFFFFF" stop-opacity="0.75" /></linearGradient><linearGradient id="linear_fill_7_1504" x1="1261" y1="1145.9999694824219" x2="1261" y2="836" gradientUnits="userSpaceOnUse"><stop offset="0" stop-color="#0072FF" /><stop offset="1" stop-color="#00C8FF" /></linearGradient><filter id="filter_8_9" x="1583" y="809" width="256" height="97" filterUnits="userSpaceOnUse" color-interpolation-filters="sRGB"><feFlood flood-opacity="0" result="feFloodId_8_9" /><feBlend mode="normal" in="SourceGraphic" in2="feFloodId_8_9" result="shape_8_9" /><feColorMatrix in="SourceAlpha" type="matrix" values="0 0 0 0 0 0 0 0 0 0 0 0 0 0 0 0 0 0 127 0" result="hardAlpha_8_9" /><feOffset dx="0" dy="-12" /><feGaussianBlur stdDeviation="16" /><feComposite in2="hardAlpha_8_9" operator="arithmetic" k2="-1" k3="1" /><feColorMatrix type="matrix" values="0 0 0 0 0 0 0 0 0 0.4470588235294118 0 0 0 0 1 0 0 0 0.64 0" /><feBlend mode="normal" in2="shape_8_9" result="innerShadow_0_8_9" /></filter><mask id="mask-8_9" style="mask-type:alpha" maskUnits="userSpaceOnUse"><path d="M1583 906L1736.1 906C1736.1 906 1747.5 906 1755 903C1762.48 900.032 1768.5 893.5 1768.5 893.5L1839 809L1583 809L1583 906Z" fill="#1B2D4D" fill-opacity="0.4" /></mask><linearGradient id="linear_fill_8_10" x1="1750.7119140625" y1="907" x2="1750.7099609375" y2="807.8174438476562" gradientUnits="userSpaceOnUse"><stop offset="0" stop-color="#DBEBFF" /><stop offset="1" stop-color="#DBEBFF" stop-opacity="0" /></linearGradient><linearGradient id="linear_border_8_12_0" x1="1583" y1="860.128173828125" x2="1830.7841796875" y2="860.128173828125" gradientUnits="userSpaceOnUse"><stop offset="0" stop-color="#7EA2CF" /><stop offset="0.2862" stop-color="#00C6FF" /><stop offset="0.6968" stop-color="#92FE9D" /><stop offset="0.8912" stop-color="#00C8FF" /><stop offset="1" stop-color="#7DA2CE" /></linearGradient><linearGradient id="linear_border_8_13_0" x1="1583" y1="857.7345275878906" x2="1824.9990234375" y2="857.7345275878906" gradientUnits="userSpaceOnUse"><stop offset="0" stop-color="#7EA2CF" /><stop offset="0.2862" stop-color="#00C6FF" /><stop offset="0.6968" stop-color="#92FE9D" /><stop offset="0.8912" stop-color="#00C8FF" /><stop offset="1" stop-color="#7DA2CE" /></linearGradient></defs></svg>