<svg xmlns="http://www.w3.org/2000/svg" width="40" height="34" viewBox="0 0 40 34" fill="none">
  <path d="M35.4613 14.6493C35.0945 14.9525 34.9612 15.222 35.0612 15.7104C35.3779 17.3947 35.6446 19.0791 35.928 20.7634C36.1781 22.1782 35.4113 22.8182 34.0777 22.3298C29.9436 20.7971 25.8095 19.2643 21.6754 17.7316C21.5753 17.6979 21.4753 17.6642 21.1586 17.5632C21.2086 18.0685 21.1586 18.5064 21.3086 18.8769C22.8756 23.2225 24.4759 27.568 26.0595 31.9135C26.1262 32.0819 26.1929 32.2504 26.2429 32.4357C26.4263 33.0757 26.1262 33.6989 25.5594 33.9179C24.9593 34.1368 24.3425 33.9179 24.0758 33.261C23.7424 32.4862 20.9919 24.8731 19.825 21.7234C19.6583 22.1277 16.9578 29.4881 15.6909 32.8736C15.5575 33.2441 15.2908 33.6989 14.9741 33.8336C14.6407 33.9684 14.0906 33.901 13.7572 33.6989C13.2571 33.3957 13.2237 32.8399 13.4238 32.2841C14.0572 30.5829 17.3412 21.6055 18.3414 18.8096C18.4581 18.4727 18.4414 18.0853 18.4914 17.5463C16.9745 18.119 8.82291 21.2518 6.05573 22.3129C4.72215 22.8182 3.97201 22.2119 4.1387 20.7802C4.32207 19.0454 4.52211 17.3274 4.65547 15.5925C4.67214 15.3062 4.52211 14.9356 4.3054 14.7335C3.12185 13.5882 1.90495 12.4765 0.688063 11.3481C-0.378802 10.3543 -0.195435 9.46163 1.17149 8.93949C4.98886 7.47414 13.107 4.34132 13.3904 4.22341C13.0904 3.38126 12.7903 2.58963 12.5236 1.81485C12.2402 1.00637 12.4736 0.349487 13.107 0.0968402C13.7905 -0.17265 14.4073 0.164213 14.724 1.02321C16.291 5.28453 19.8084 14.8346 19.8084 14.8346C19.8084 14.8346 24.2258 2.77491 24.8426 1.09058C25.176 0.164213 25.7928 -0.189494 26.4929 0.0968402C27.1597 0.36633 27.3598 1.02321 27.043 1.89906C26.7763 2.64016 26.5096 3.38126 26.2095 4.20657C26.4929 4.32447 35.9614 7.87837 39.1786 9.07424C40.0788 9.41108 40.2955 10.6238 39.5454 11.247C38.1951 12.3755 36.3781 13.9082 35.4613 14.6661L35.4613 14.6493Z" fill="#001024"/>
</svg>
