<svg xmlns="http://www.w3.org/2000/svg" width="30" height="30" viewBox="0 0 30 30" fill="none">
  <path d="M29.8999 12.6404C29.5995 11.7399 28.7987 11.1395 27.8476 11.1228C27.2803 11.1228 26.713 11.1228 26.1457 11.1228C25.9622 11.1228 25.8787 11.0728 25.8287 10.9061C25.7953 10.7893 25.7453 10.6726 25.6952 10.5559C25.5395 10.2001 25.6063 9.8777 25.8954 9.58866C26.1958 9.28849 26.4961 9.005 26.7797 8.68816C27.6474 7.78766 27.6641 6.48694 26.7964 5.56976C26.0122 4.75264 25.228 3.96887 24.4104 3.1851C23.4928 2.30128 22.1913 2.31795 21.2736 3.21845C20.8899 3.602 20.5061 3.96887 20.139 4.36909C20.0056 4.5025 19.8888 4.51918 19.7386 4.4358C19.4549 4.30239 19.1713 4.18566 18.871 4.06893C18.871 3.46859 18.871 2.86826 18.871 2.2846C18.871 0.933852 17.9199 0 16.5851 0C15.5339 0 14.4661 0 13.4149 0C12.0634 0 11.129 0.933852 11.129 2.2846C11.129 2.78488 11.129 3.30183 11.129 3.80211C11.129 4.03557 11.0623 4.13563 10.8454 4.18566C10.762 4.20233 10.6785 4.23568 10.5951 4.26904C10.1947 4.42467 9.83871 4.35242 9.52725 4.05225C9.22692 3.75208 8.94327 3.45192 8.62625 3.16843C7.7753 2.36798 6.47386 2.33463 5.62291 3.13507C4.77197 3.95219 3.92102 4.78599 3.12013 5.63646C2.31924 6.48694 2.33593 7.78766 3.1535 8.63813C3.53726 9.05503 3.95439 9.43857 4.35484 9.8388C4.47163 9.95553 4.52169 10.0556 4.43826 10.2223C4.32147 10.4391 4.22136 10.6726 4.15461 10.8894C4.10456 11.0728 3.98776 11.1228 3.82091 11.1062C3.2703 11.1062 2.71969 11.1062 2.18576 11.1062C0.967742 11.1062 0 12.0567 0 13.274C0 14.408 0 15.542 0 16.6759C0 17.8933 0.984427 18.8271 2.20245 18.8438C2.8198 18.8438 3.45384 18.8438 4.07119 18.8438C4.22136 19.1773 4.35484 19.4942 4.48832 19.8277C4.52169 19.8944 4.45495 20.0278 4.38821 20.0945C4.02113 20.478 3.63737 20.8616 3.25361 21.2451C2.33593 22.179 2.31924 23.4964 3.25361 24.4469C4.02113 25.214 4.78865 25.9811 5.55617 26.7482C6.49054 27.6654 7.80867 27.6487 8.72636 26.7482C9.11012 26.3813 9.49388 25.9978 9.86095 25.6142C9.97775 25.4808 10.0779 25.4475 10.2447 25.5475C10.3615 25.6142 10.495 25.6642 10.6118 25.7143C10.9566 25.8589 11.129 26.12 11.129 26.498C11.129 26.9316 11.129 27.3652 11.129 27.7821C11.129 28.866 11.8131 29.6998 12.881 29.95C12.931 29.95 12.9644 29.9833 13.0145 30L17.0022 30C17.5028 29.8666 17.97 29.6665 18.337 29.2496C18.6874 28.8494 18.8876 28.3824 18.8876 27.8321C18.8876 27.2485 18.8876 26.6815 18.8876 26.0978C18.8876 25.9477 18.9377 25.8644 19.0712 25.8143C19.238 25.7643 19.4049 25.6976 19.5551 25.6309C19.8442 25.5087 20.1002 25.5587 20.3226 25.781C20.6396 26.0978 20.9733 26.4313 21.2903 26.7482C22.1913 27.6153 23.4928 27.6487 24.3938 26.7815C25.2113 25.9978 26.0122 25.1973 26.7964 24.3802C27.6641 23.4797 27.6474 22.179 26.7631 21.2785C26.396 20.8949 26.0122 20.5114 25.6285 20.1445C25.4783 20.0111 25.4616 19.8777 25.5617 19.7109C25.6285 19.6109 25.6618 19.4942 25.7119 19.3941C25.8566 19.0384 26.129 18.8605 26.5295 18.8605C26.9466 18.8605 27.347 18.8605 27.7642 18.8605C28.8487 18.8605 29.683 18.2101 29.9499 17.1429C29.9499 17.0928 29.9833 17.0261 30 16.9761L30 12.9905C29.9666 12.8738 29.9333 12.7571 29.8832 12.6237L29.8999 12.6404ZM19.6385 15.0083C19.6385 17.5597 17.5695 19.6276 15.0167 19.6442C12.4305 19.6442 10.3448 17.5764 10.3448 15.0083C10.3448 12.4402 12.3971 10.3724 14.9666 10.3724C17.5528 10.3724 19.6218 12.4236 19.6218 15.025L19.6385 15.0083Z" fill="#EDF5FF"/>
</svg>
