<svg xmlns="http://www.w3.org/2000/svg" xmlns:xlink="http://www.w3.org/1999/xlink" width="257" height="98" viewBox="0 0 257 98" fill="none"><path d="M0 98L153.1 98C153.1 98 164.5 98 172 95C179.484 92.0318 185.5 85.5 185.5 85.5L256 1L0 1L0 98Z"   fill="#1B2D4D" fill-opacity="0.4"></path><g opacity="0.08"><path d="M108.74 -19L5.8 99L-39 99L63.96 -19L108.74 -19ZM181.39 -19L78.45 99L33.65 99L136.61 -19L181.39 -19ZM254.05 -19L151.09 99L106.3 99L209.26 -19L254.05 -19Z" fill-rule="evenodd"  fill="url(#linear_fill_8_144)" ></path></g><path    stroke="url(#linear_border_8_146_0)" stroke-width="2"    d="M0 98L153.1 98C153.1 98 164.5 98 172 95C179.599 92.3707 185.5 85.5 185.5 85.5L257 0"></path><path    stroke="url(#linear_border_8_147_0)" stroke-width="1"    d="M0 93.5L151 93.5C151 93.5 162 93.5 169.5 90.5C177.936 87.0057 183.5 80.5 183.5 80.5L251 0"></path><path d="M103.005 44.6589L84.1167 59.4113C83.8876 59.6075 84.0185 60 84.3131 60L132.369 60C133.547 60 134.66 59.4767 135.413 58.5935L155.513 35.2056C156.626 33.9626 155.709 32 154.007 32L124.218 32L116.361 39.2617L140.749 39.2617L140.945 39.6542L129.913 52.0841C129.455 52.5748 128.833 52.8365 128.178 52.8365L105.362 52.8365C102.972 52.8365 101.237 50.5795 101.925 48.3552L103.038 44.6589L103.005 44.6589Z"   fill="url(#linear_fill_2_1419)" ></path><defs><linearGradient id="linear_fill_8_144" x1="167.711669921875" y1="99" x2="167.709716796875" y2="-0.1826171875" gradientUnits="userSpaceOnUse"><stop offset="0" stop-color="#DBEBFF"  /><stop offset="1" stop-color="#DBEBFF" stop-opacity="0" /></linearGradient><linearGradient id="linear_border_8_146_0" x1="0" y1="52.128173828125" x2="247.783935546875" y2="52.128173828125" gradientUnits="userSpaceOnUse"><stop offset="0" stop-color="#7EA2CF"  /><stop offset="0.2862" stop-color="#00C6FF"  /><stop offset="0.6968" stop-color="#92FE9D"  /><stop offset="0.8912" stop-color="#00C8FF"  /><stop offset="1" stop-color="#7DA2CE"  /></linearGradient><linearGradient id="linear_border_8_147_0" x1="0" y1="49.734619140625" x2="241.9991455078125" y2="49.734619140625" gradientUnits="userSpaceOnUse"><stop offset="0" stop-color="#7EA2CF"  /><stop offset="0.2862" stop-color="#00C6FF"  /><stop offset="0.6968" stop-color="#92FE9D"  /><stop offset="0.8912" stop-color="#00C8FF"  /><stop offset="1" stop-color="#7DA2CE"  /></linearGradient><linearGradient id="linear_fill_2_1419" x1="120" y1="32" x2="120" y2="60" gradientUnits="userSpaceOnUse"><stop offset="0" stop-color="#EDF5FF"  /><stop offset="1" stop-color="#92C3FF"  /></linearGradient></defs></svg>