<svg xmlns="http://www.w3.org/2000/svg" xmlns:xlink="http://www.w3.org/1999/xlink" width="56" height="56" viewBox="0 0 56 56" fill="none"><path d="M29.1108 24.3043C32.6041 22.9046 36.0747 21.5049 39.5681 20.1052C39.6822 20.0593 39.7964 20.0363 39.9105 19.9904L39.9105 29.6049C39.9105 29.6049 39.8192 29.6049 39.7964 29.582C39.7279 29.5361 39.6822 29.4902 39.6137 29.4673C38.1068 28.4347 36.4628 27.9987 34.6362 28.2282C34.4079 28.2511 34.1796 28.3429 33.9513 28.3888L42.5819 35.6627C42.5819 35.4562 42.6276 35.2726 42.6276 35.0661L42.6276 6.93409C42.6276 6.03919 42.5135 5.37375 41.897 5.07545C41.486 4.84598 40.801 5.21312 40.801 5.21312C40.801 5.21312 26.7134 10.8808 19.6581 13.7261C18.722 14.0933 18.4937 14.3916 18.4708 15.3553L29.1108 24.3273L29.1108 24.3043ZM47.4569 45.5755C47.1176 45.5729 46.7571 45.458 46.4635 45.2083L9.54329 13.8868C8.88115 13.3361 8.81265 12.3494 9.36063 11.7069C9.90861 11.0415 10.8904 10.9726 11.5297 11.5233L48.4499 42.8449C49.112 43.3956 49.1805 44.3823 48.6326 45.0247C48.3382 45.3887 47.9092 45.5722 47.4569 45.5755ZM47.4569 45.5755L47.4453 45.5755L47.4681 45.5755L47.4569 45.5755ZM18.4709 23.7078L18.4709 38.2786C18.3111 38.1868 18.2426 38.1409 18.1513 38.095C16.5073 36.9477 14.7036 36.5576 12.74 36.9248C8.99542 37.5902 6.39252 41.3993 7.12316 45.1395C7.89946 49.0862 11.6212 51.6562 15.4342 50.8531C18.8362 50.1417 21.1423 47.2964 21.1423 43.7627L21.1423 27.9528C21.1423 27.6545 21.2108 27.4709 21.5076 27.3562C21.8045 27.2415 22.1013 27.1267 22.3753 27.012L18.4709 23.7078ZM29.0194 32.6109C28.5399 33.7811 28.3344 35.0891 28.5856 36.4429C29.3162 40.5273 33.2435 43.1432 37.1935 42.1565C37.9469 41.9729 38.6548 41.6517 39.2941 41.2616L29.0194 32.6109Z" fill-rule="evenodd"  fill="#7DA2CE" ></path></svg>
