<svg xmlns="http://www.w3.org/2000/svg" xmlns:xlink="http://www.w3.org/1999/xlink" width="56" height="56" viewBox="0 0 56 56" fill="none"><path d="M45.2616 5.09834C45.8846 5.3965 45.9999 6.0616 45.9999 6.95606C45.9999 16.3364 45.9999 25.6937 45.9999 35.0741C45.9999 38.5372 43.8082 41.3582 40.509 42.1609C36.5177 43.1242 32.5265 40.5096 31.8113 36.4502C31.0961 32.5283 33.9337 28.7441 37.925 28.2395C39.7707 28.0102 41.4318 28.4459 42.9545 29.478C43.0237 29.5239 43.0699 29.5697 43.1391 29.5927C43.1622 29.5927 43.1852 29.5927 43.2545 29.6156L43.2545 20.0059C43.1391 20.0518 43.0237 20.0747 42.9084 20.1206C36.8176 22.5287 30.75 24.9598 24.6592 27.368C24.3362 27.4826 24.2901 27.6661 24.2901 27.9643C24.2901 33.2393 24.2901 38.4913 24.2901 43.7663C24.2901 47.2753 21.9599 50.1422 18.5223 50.8532C14.6695 51.6559 10.8858 49.0872 10.1244 45.1424C9.38617 41.4041 12.0163 37.5969 15.7999 36.9318C17.7841 36.5878 19.6067 36.9777 21.2678 38.1015C21.3601 38.1473 21.4293 38.1932 21.5908 38.2849C21.5908 38.0556 21.5908 37.8721 21.5908 37.7116C21.5908 30.3037 21.5908 22.8957 21.5908 15.5107C21.5908 14.4098 21.7754 14.1346 22.7905 13.7218C29.9195 10.8779 44.1542 5.21302 44.1542 5.21302C44.1542 5.21302 44.8694 4.84606 45.2616 5.07541L45.2616 5.09834Z"   fill="url(#linear_fill_0_1283)" ></path><defs><linearGradient id="linear_fill_0_1283" x1="28" y1="5" x2="28" y2="51" gradientUnits="userSpaceOnUse"><stop offset="0" stop-color="#EDF5FF"  /><stop offset="1" stop-color="#92C3FF"  /></linearGradient></defs></svg>
