<svg xmlns="http://www.w3.org/2000/svg" xmlns:xlink="http://www.w3.org/1999/xlink" width="56" height="56" viewBox="0 0 56 56" fill="none"><path d="M40.2471 33.4432L40.2471 8.92963C40.2471 8.08997 39.8156 7.46022 38.9527 7.04039C38.0897 6.83047 37.2268 7.04039 36.5796 7.67014C33.3436 10.8189 30.1316 13.9443 27.1114 17.093C26.6799 17.5128 26.2485 17.5128 25.817 17.5128L20.6395 17.5128L40.2231 33.4432L40.2471 33.4432ZM46.719 45.1281C47.0306 45.3846 47.4141 45.5013 47.7737 45.5013C48.2531 45.5013 48.7085 45.3147 49.0201 44.9415C49.5954 44.2884 49.5235 43.2855 48.8284 42.7257L10.0686 10.8885C9.39742 10.3287 8.3667 10.3987 7.79142 11.0751C7.21613 11.7281 7.28804 12.7311 7.98318 13.2908L46.719 45.1281ZM16.5645 22.5505L16.5645 34.0725C16.5645 36.8014 18.2904 38.4807 21.0949 38.4807L25.841 38.4807C26.2724 38.4807 26.3204 38.5274 26.7039 38.9006L36.1721 48.1135L36.6036 48.5334C37.898 49.373 39.6238 48.9532 40.0553 47.4838L40.0553 41.8394L16.5645 22.5505Z" fill-rule="evenodd"  fill="#7DA2CE" ></path></svg>
