<svg xmlns="http://www.w3.org/2000/svg" xmlns:xlink="http://www.w3.org/1999/xlink" width="56" height="56" viewBox="0 0 56 56" fill="none"><path d="M7 34.0758L7 21.9067C7 19.2723 8.76994 17.5006 11.4298 17.5006L16.0997 17.5006C16.473 17.5006 16.7297 17.4007 17.0097 17.1209C20.1129 13.9971 23.2428 10.8732 26.3693 7.74933C27.0226 7.09658 27.7893 6.81683 28.6992 7.11989C29.5159 7.37633 30.0525 8.10568 30.0992 8.96824L30.0992 46.5246C30.0992 46.851 30.0992 47.1507 30.0292 47.4538C29.6325 48.8992 27.9093 49.4853 26.7193 48.5528C26.556 48.4129 26.3893 48.2431 26.2493 48.1032C23.1694 45.026 20.0862 41.9487 17.0296 38.8715C16.7497 38.5917 16.4763 38.5018 16.0797 38.5018L11.4598 38.5018C8.7766 38.5018 7 36.7334 7 34.0758ZM41.6188 37.8124C41.1232 38.4829 40.5722 39.1264 39.9688 39.7407C39.3501 40.3741 39.1295 41.1337 39.2989 41.8188C39.3854 42.2014 39.5908 42.5555 39.9189 42.8579C40.8055 43.6972 42.0688 43.6339 42.9787 42.6781C46.9453 38.5984 48.9285 33.6993 48.9985 28.0112L48.9985 28.0312C49.0146 26.7146 48.8989 25.4238 48.6585 24.1447C48.5559 23.5814 48.4291 23.0244 48.2786 22.4662C47.2986 18.8993 45.502 15.7955 42.8887 13.1845C42.1888 12.4851 41.1855 12.3485 40.3688 12.8148C39.7053 13.1832 39.2689 13.858 39.2689 14.5732C39.2689 14.7707 39.2926 14.9641 39.3589 15.1627C39.5222 15.6289 39.8489 16.0785 40.1988 16.4515C43.4619 20.0176 44.9952 24.1113 44.7687 28.7305C44.7351 29.3883 44.6732 30.0599 44.5687 30.7387C44.344 32.2032 43.9299 33.5773 43.3487 34.8651C42.8795 35.9008 42.3013 36.8832 41.6188 37.8124ZM36.309 29.1602C36.0572 30.8311 35.2893 32.4515 33.9991 33.816C33.5436 34.307 33.3191 34.8855 33.3191 35.4445C33.3191 35.9901 33.5253 36.5231 33.9691 36.9432C34.8557 37.7824 36.1423 37.7058 37.029 36.7733C39.3855 34.3255 40.5288 31.4182 40.5988 28.5507L40.5988 28.4508C40.5988 24.6975 39.2722 21.487 37.009 19.1791C36.0757 18.2466 34.7924 18.2 33.9291 19.0392C33.5037 19.4641 33.2991 19.9843 33.2991 20.5179C33.2991 21.0822 33.5268 21.6604 33.9991 22.1564C35.8934 24.1458 36.6597 26.7057 36.309 29.1602Z" fill-rule="evenodd"  fill="url(#linear_fill_2_517)" ></path><defs><linearGradient id="linear_fill_2_517" x1="28" y1="7" x2="28" y2="49" gradientUnits="userSpaceOnUse"><stop offset="0" stop-color="#EDF5FF"  /><stop offset="1" stop-color="#92C3FF"  /></linearGradient></defs></svg>
