<svg xmlns="http://www.w3.org/2000/svg" xmlns:xlink="http://www.w3.org/1999/xlink" width="46" height="46" viewBox="0 0 46 46" fill="none"><path d="M0 23C0 10.3088 10.3088 0 23 0C35.6912 0 46 10.3088 46 23C46 35.6912 35.6912 46 23 46C10.3088 46 0 35.6912 0 23ZM3.53846 23C3.53846 33.7334 12.2666 42.4615 23 42.4615C33.7334 42.4615 42.4615 33.7334 42.4615 23C42.4615 12.2666 33.7334 3.53846 23 3.53846C12.2666 3.53846 3.53846 12.2666 3.53846 23ZM20.2871 17.1968L20.2871 14.2482L16.843 14.2482C16.7014 14.2482 16.6071 14.1774 16.5599 14.0594C16.5128 13.9414 16.6307 13.7291 16.6307 13.7291L22.9528 7.35993C22.9999 7.28916 23.165 7.26557 23.165 7.26557C23.2358 7.26557 23.3774 7.35993 23.3774 7.35993L29.3456 13.7291C29.4163 13.8236 29.4399 13.9414 29.3928 14.0594C29.3456 14.1774 29.1333 14.2482 29.1333 14.2482L25.6656 14.2482L25.6656 17.1968C25.6656 17.3384 25.5476 17.4799 25.3825 17.4799L20.5702 17.4799C20.4286 17.4799 20.2871 17.362 20.2871 17.1968ZM31.6812 16.6308L38.0503 22.9528L38.0503 22.9292C38.1211 22.9764 38.1447 23.0708 38.1447 23.1415C38.1447 23.2123 38.0503 23.3538 38.0503 23.3538L31.6812 29.322C31.6104 29.3692 31.5396 29.3928 31.4689 29.3928C31.4216 29.3928 31.3981 29.3692 31.3509 29.3692C31.2329 29.322 31.1621 29.1097 31.1621 29.1097L31.1621 25.642L25.1939 25.642C25.0524 25.642 24.9109 25.5241 24.9109 25.3589L24.9109 20.5703C24.9109 20.4288 25.0289 20.2872 25.1939 20.2872L31.1621 20.2872L31.1621 16.8431C31.1621 16.7015 31.2329 16.6072 31.3509 16.56C31.4689 16.5129 31.6812 16.6308 31.6812 16.6308ZM21.0891 20.5937L21.0891 25.4061C21.0891 25.5476 20.9711 25.6891 20.8061 25.6891L14.8378 25.6891L14.8378 29.1568C14.8378 29.2748 14.767 29.3691 14.6491 29.4163C14.6019 29.4399 14.5784 29.4399 14.5311 29.4399C14.4368 29.4399 14.3188 29.3691 14.3188 29.3691L7.94964 23.401C7.87887 23.3537 7.85528 23.2594 7.85528 23.1887C7.85528 23.1179 7.94964 22.9763 7.94964 22.9763L14.3188 16.6543C14.4132 16.5836 14.5311 16.5363 14.6491 16.5836C14.767 16.6308 14.8378 16.7486 14.8378 16.8666L14.8378 20.3107L20.8061 20.3107C20.9476 20.3107 21.0891 20.4286 21.0891 20.5937ZM25.6893 28.8031L25.6893 31.7518L29.157 31.7518C29.275 31.7518 29.3693 31.8226 29.4165 31.9405C29.4637 32.0585 29.3693 32.2708 29.3693 32.2708L23.4011 38.64C23.3539 38.7108 23.236 38.758 23.1888 38.7344C23.118 38.7344 22.9764 38.64 22.9764 38.64L16.6544 32.2708C16.5837 32.1764 16.5364 32.0585 16.5837 31.9405C16.6309 31.8226 16.7488 31.7518 16.8667 31.7518L20.3109 31.7518L20.3109 28.8031C20.3109 28.6615 20.4288 28.52 20.5939 28.52L25.4063 28.52C25.5478 28.52 25.6893 28.638 25.6893 28.8031Z" fill-rule="evenodd"  fill="#EDF5FF" ></path></svg>
