<svg xmlns="http://www.w3.org/2000/svg" xmlns:xlink="http://www.w3.org/1999/xlink" width="48" height="29.9990234375" viewBox="0 0 48 29.9990234375" fill="none"><path d="M22.12 27.4967L22.12 2.47667C22.12 0.981731 23.4246 -0.152116 24.92 0.0166675C34.0135 1.10169 41.2424 4.49464 46.3801 10.5467C47.4172 11.8005 48 13.3712 48 14.9867C48 16.3369 47.6178 17.6676 46.87 18.7767C42.3113 25.6003 34.5865 28.9017 24.89 29.9867C23.4187 30.1314 22.12 28.9916 22.12 27.4967ZM16.91 2.45667L1.76001 2.45667C1.70241 2.45667 1.64729 2.46668 1.58997 2.46668C1.53264 2.46668 1.47654 2.4855 1.42004 2.49668C1.36355 2.50787 1.30512 2.52005 1.25 2.53669C1.19488 2.55333 1.14319 2.57475 1.08997 2.59669C1.03675 2.61862 0.980857 2.63968 0.930054 2.6667C0.879252 2.69372 0.827924 2.72484 0.780029 2.75669C0.732135 2.78854 0.684542 2.82033 0.640015 2.8567C0.595487 2.89306 0.56075 2.92615 0.52002 2.96668C0.479289 3.00722 0.436567 3.05238 0.400024 3.09669C0.363482 3.14099 0.332051 3.18901 0.300049 3.23667C0.268047 3.28434 0.237115 3.33615 0.209961 3.3867C0.182807 3.43725 0.152048 3.48373 0.130005 3.53669C0.107961 3.58964 0.0966774 3.64184 0.0799561 3.69669C0.063235 3.75155 0.041267 3.81046 0.0300293 3.86668C0.0187916 3.9229 0.0100098 3.97965 0.0100098 4.03669C0.0100098 4.09374 0 4.14935 0 4.20667C0 4.26399 0.0100098 4.31964 0.0100098 4.37669C0.0100098 4.43373 0.0187916 4.49048 0.0300293 4.5467C0.041267 4.60292 0.063235 4.66183 0.0799561 4.71668C0.0966774 4.77154 0.107961 4.82373 0.130005 4.87669C0.152048 4.92965 0.182807 4.98614 0.209961 5.03669C0.237115 5.08724 0.268047 5.12902 0.300049 5.17667C0.332051 5.22434 0.363482 5.27238 0.400024 5.31669C0.436567 5.361 0.479289 5.40616 0.52002 5.44669C0.56075 5.48723 0.595487 5.53033 0.640015 5.56669C0.684542 5.60306 0.732135 5.63485 0.780029 5.6667C0.827924 5.69854 0.879252 5.72967 0.930054 5.75669C0.980857 5.78371 1.03675 5.80477 1.08997 5.8267C1.14319 5.84863 1.19488 5.87006 1.25 5.8867C1.30512 5.90334 1.36355 5.91549 1.42004 5.92667C1.47654 5.93785 1.53264 5.94669 1.58997 5.94669C1.64729 5.94669 1.70241 5.95667 1.76001 5.95667L16.91 5.95667C16.9676 5.95667 17.0227 5.94667 17.08 5.94667C17.1374 5.94667 17.1935 5.93785 17.25 5.92667C17.3065 5.91548 17.3649 5.90331 17.42 5.88667C17.4751 5.87003 17.5268 5.84861 17.58 5.82667C17.6332 5.80474 17.6892 5.78369 17.74 5.75667C17.7908 5.72965 17.8421 5.69852 17.89 5.66667C17.9379 5.63482 17.9755 5.60304 18.02 5.56667C18.0645 5.53031 18.1093 5.4872 18.15 5.44667C18.1908 5.40614 18.2335 5.36098 18.27 5.31667C18.3066 5.27236 18.338 5.22434 18.37 5.17667C18.402 5.12902 18.4329 5.08722 18.46 5.03667C18.4872 4.98612 18.508 4.92963 18.53 4.87667C18.5521 4.82372 18.5733 4.77152 18.59 4.71667C18.6068 4.66182 18.6188 4.60289 18.63 4.54667C18.6412 4.49045 18.66 4.43371 18.66 4.37667C18.66 4.31962 18.67 4.26399 18.67 4.20667C18.67 4.14935 18.66 4.09372 18.66 4.03667C18.66 3.97963 18.6412 3.92289 18.63 3.86667C18.6188 3.81045 18.6068 3.75152 18.59 3.69667C18.5733 3.64182 18.5521 3.58962 18.53 3.53667C18.508 3.48371 18.4872 3.43722 18.46 3.38667C18.4329 3.33612 18.4021 3.28434 18.37 3.23667C18.3381 3.18901 18.3066 3.14098 18.27 3.09667C18.2335 3.05236 18.1908 3.0072 18.15 2.96667C18.1093 2.92614 18.0645 2.89303 18.02 2.85667C17.9755 2.8203 17.9379 2.78852 17.89 2.75667C17.8421 2.72482 17.7908 2.69369 17.74 2.66667C17.6892 2.63965 17.6332 2.6186 17.58 2.59667C17.5268 2.57474 17.4751 2.55331 17.42 2.53667C17.3649 2.52003 17.3065 2.50786 17.25 2.49667C17.1935 2.48549 17.1374 2.46667 17.08 2.46667C17.0227 2.46667 16.9676 2.45667 16.91 2.45667ZM16.91 9.95667L1.76001 9.9567C1.70241 9.9567 1.64729 9.96668 1.58997 9.96668C1.53264 9.96668 1.47654 9.97552 1.42004 9.9867C1.36355 9.99787 1.30512 10.02 1.25 10.0367C1.19488 10.0533 1.14319 10.0647 1.08997 10.0867C1.03675 10.1087 0.980857 10.1397 0.930054 10.1667C0.879252 10.1937 0.827924 10.2248 0.780029 10.2567C0.732135 10.2886 0.684542 10.3204 0.640015 10.3567C0.595487 10.393 0.56075 10.4262 0.52002 10.4667C0.479289 10.5072 0.436567 10.5524 0.400024 10.5967C0.363482 10.641 0.332051 10.689 0.300049 10.7367C0.268047 10.7843 0.237115 10.8361 0.209961 10.8867C0.182807 10.9372 0.152048 10.9838 0.130005 11.0367C0.107961 11.0897 0.0966774 11.1418 0.0799561 11.1967C0.063235 11.2515 0.041267 11.3104 0.0300293 11.3667C0.0187916 11.4229 0.0100098 11.4796 0.0100098 11.5367C0.0100098 11.5937 0 11.6494 0 11.7067C0 11.764 0.0100098 11.8197 0.0100098 11.8767C0.0100098 11.9338 0.0187916 11.9905 0.0300293 12.0467C0.041267 12.103 0.063235 12.1619 0.0799561 12.2167C0.0966774 12.2716 0.107961 12.3237 0.130005 12.3767C0.152048 12.4296 0.182807 12.4862 0.209961 12.5367C0.237115 12.5873 0.268047 12.6291 0.300049 12.6767C0.332051 12.7244 0.363482 12.7724 0.400024 12.8167C0.436567 12.861 0.479289 12.9062 0.52002 12.9467C0.56075 12.9872 0.595487 13.0203 0.640015 13.0567C0.684542 13.093 0.732135 13.1348 0.780029 13.1667C0.827924 13.1986 0.879252 13.2197 0.930054 13.2467C0.980857 13.2737 1.03675 13.3048 1.08997 13.3267C1.14319 13.3487 1.19488 13.3701 1.25 13.3867C1.30512 13.4034 1.36355 13.4156 1.42004 13.4267C1.47654 13.4379 1.53264 13.4467 1.58997 13.4467C1.64729 13.4467 1.70241 13.4567 1.76001 13.4567L16.91 13.4567C16.9676 13.4567 17.0227 13.4467 17.08 13.4467C17.1374 13.4467 17.1935 13.4379 17.25 13.4267C17.3065 13.4155 17.3649 13.4033 17.42 13.3867C17.4751 13.3701 17.5268 13.3487 17.58 13.3267C17.6332 13.3047 17.6892 13.2737 17.74 13.2467C17.7908 13.2197 17.8421 13.1985 17.89 13.1667C17.9379 13.1348 17.9755 13.093 18.02 13.0567C18.0645 13.0203 18.1093 12.9872 18.15 12.9467C18.1908 12.9061 18.2335 12.861 18.27 12.8167C18.3066 12.7723 18.338 12.7243 18.37 12.6767C18.402 12.6291 18.4329 12.5873 18.46 12.5367C18.4872 12.4861 18.508 12.4296 18.53 12.3767C18.5521 12.3237 18.5733 12.2715 18.59 12.2167C18.6068 12.1619 18.6188 12.1029 18.63 12.0467C18.6412 11.9905 18.66 11.9337 18.66 11.8767C18.66 11.8197 18.67 11.764 18.67 11.7067C18.67 11.6493 18.66 11.5937 18.66 11.5367C18.66 11.4796 18.6412 11.4229 18.63 11.3667C18.6188 11.3104 18.6068 11.2515 18.59 11.1967C18.5733 11.1418 18.5521 11.0897 18.53 11.0367C18.508 10.9837 18.4872 10.9372 18.46 10.8867C18.4329 10.8361 18.4021 10.7843 18.37 10.7367C18.3381 10.689 18.3066 10.641 18.27 10.5967C18.2335 10.5523 18.1908 10.5072 18.15 10.4667C18.1093 10.4261 18.0645 10.393 18.02 10.3567C17.9755 10.3203 17.9379 10.2885 17.89 10.2567C17.8421 10.2248 17.7908 10.1937 17.74 10.1667C17.6892 10.1397 17.6332 10.1087 17.58 10.0867C17.5268 10.0647 17.4751 10.0533 17.42 10.0367C17.3649 10.02 17.3065 9.99784 17.25 9.98667C17.1935 9.97549 17.1374 9.96667 17.08 9.96667C17.0227 9.96667 16.9676 9.95667 16.91 9.95667ZM16.91 16.9967L1.76001 16.9967C1.70241 16.9967 1.64729 17.0067 1.58997 17.0067C1.53264 17.0067 1.47654 17.0255 1.42004 17.0367C1.36355 17.0478 1.30512 17.06 1.25 17.0767C1.19488 17.0933 1.14319 17.1048 1.08997 17.1267C1.03675 17.1486 0.980857 17.1796 0.930054 17.2067C0.879252 17.2337 0.827924 17.2648 0.780029 17.2967C0.732135 17.3285 0.684542 17.3603 0.640015 17.3967C0.595487 17.433 0.56075 17.4662 0.52002 17.5067C0.479289 17.5472 0.436567 17.5924 0.400024 17.6367C0.363482 17.681 0.332051 17.729 0.300049 17.7767C0.268047 17.8243 0.237115 17.8761 0.209961 17.9267C0.182807 17.9772 0.152048 18.0238 0.130005 18.0767C0.107961 18.1297 0.0966774 18.1818 0.0799561 18.2367C0.063235 18.2915 0.041267 18.3504 0.0300293 18.4067C0.0187916 18.4629 0.0100098 18.5196 0.0100098 18.5767C0.0100098 18.6337 0 18.6893 0 18.7467C0 18.804 0.0100098 18.8597 0.0100098 18.9167C0.0100098 18.9738 0.0187916 19.0305 0.0300293 19.0867C0.041267 19.143 0.063235 19.2019 0.0799561 19.2567C0.0966774 19.3116 0.107961 19.3637 0.130005 19.4167C0.152048 19.4696 0.182807 19.5262 0.209961 19.5767C0.237115 19.6273 0.268047 19.6691 0.300049 19.7167C0.332051 19.7643 0.363482 19.8124 0.400024 19.8567C0.436567 19.901 0.479289 19.9462 0.52002 19.9867C0.56075 20.0272 0.595487 20.0604 0.640015 20.0967C0.684542 20.133 0.732135 20.1748 0.780029 20.2067C0.827924 20.2386 0.879252 20.2697 0.930054 20.2967C0.980857 20.3237 1.03675 20.3448 1.08997 20.3667C1.14319 20.3887 1.19488 20.4101 1.25 20.4267C1.30512 20.4434 1.36355 20.4556 1.42004 20.4667C1.47654 20.4779 1.53264 20.4867 1.58997 20.4867C1.64729 20.4867 1.70241 20.4967 1.76001 20.4967L16.91 20.4967C16.9676 20.4967 17.0227 20.4867 17.08 20.4867C17.1374 20.4867 17.1935 20.4779 17.25 20.4667C17.3065 20.4555 17.3649 20.4433 17.42 20.4267C17.4751 20.4101 17.5268 20.3887 17.58 20.3667C17.6332 20.3447 17.6892 20.3237 17.74 20.2967C17.7908 20.2697 17.8421 20.2386 17.89 20.2067C17.9379 20.1748 17.9755 20.133 18.02 20.0967C18.0645 20.0603 18.1093 20.0272 18.15 19.9867C18.1908 19.9461 18.2335 19.901 18.27 19.8567C18.3066 19.8123 18.338 19.7643 18.37 19.7167C18.402 19.6691 18.4329 19.6273 18.46 19.5767C18.4872 19.5261 18.508 19.4696 18.53 19.4167C18.5521 19.3637 18.5733 19.3115 18.59 19.2567C18.6068 19.2019 18.6188 19.1429 18.63 19.0867C18.6412 19.0305 18.66 18.9737 18.66 18.9167C18.66 18.8597 18.67 18.804 18.67 18.7467C18.67 18.6893 18.66 18.6337 18.66 18.5767C18.66 18.5196 18.6412 18.4629 18.63 18.4067C18.6188 18.3504 18.6068 18.2915 18.59 18.2367C18.5733 18.1819 18.5521 18.1297 18.53 18.0767C18.508 18.0237 18.4872 17.9772 18.46 17.9267C18.4329 17.8761 18.4021 17.8243 18.37 17.7767C18.3381 17.729 18.3066 17.681 18.27 17.6367C18.2335 17.5923 18.1908 17.5472 18.15 17.5067C18.1093 17.4661 18.0645 17.433 18.02 17.3967C17.9755 17.3603 17.9379 17.3285 17.89 17.2967C17.8421 17.2648 17.7908 17.2337 17.74 17.2067C17.6892 17.1796 17.6332 17.1486 17.58 17.1267C17.5268 17.1047 17.4751 17.0933 17.42 17.0767C17.3649 17.06 17.3065 17.0478 17.25 17.0367C17.1935 17.0255 17.1374 17.0067 17.08 17.0067C17.0227 17.0067 16.9676 16.9967 16.91 16.9967ZM16.91 24.0667L1.76001 24.0667C1.70241 24.0667 1.64729 24.0667 1.58997 24.0667C1.53264 24.0667 1.47654 24.0855 1.42004 24.0967C1.36355 24.1078 1.30512 24.12 1.25 24.1367C1.19488 24.1533 1.14319 24.1748 1.08997 24.1967C1.03675 24.2187 0.980857 24.2397 0.930054 24.2667C0.879252 24.2937 0.827924 24.3248 0.780029 24.3567C0.732135 24.3885 0.684542 24.4203 0.640015 24.4567C0.595487 24.493 0.56075 24.5362 0.52002 24.5767C0.479289 24.6172 0.436567 24.6624 0.400024 24.7067C0.363482 24.751 0.332051 24.789 0.300049 24.8367C0.268047 24.8843 0.237115 24.9361 0.209961 24.9867C0.182807 25.0372 0.152048 25.0938 0.130005 25.1467C0.107961 25.1997 0.0966774 25.2519 0.0799561 25.3067C0.063235 25.3616 0.041267 25.4104 0.0300293 25.4667C0.0187916 25.5229 0.0100098 25.5796 0.0100098 25.6367C0.0100098 25.6937 0 25.7594 0 25.8167C0 25.874 0.0100098 25.9297 0.0100098 25.9867C0.0100098 26.0438 0.0187916 26.1005 0.0300293 26.1567C0.041267 26.213 0.063235 26.2619 0.0799561 26.3167C0.0966774 26.3716 0.107961 26.4337 0.130005 26.4867C0.152048 26.5396 0.182807 26.5862 0.209961 26.6367C0.237115 26.6873 0.268047 26.7391 0.300049 26.7867C0.332051 26.8344 0.363482 26.8824 0.400024 26.9267C0.436567 26.971 0.479289 27.0062 0.52002 27.0467C0.56075 27.0872 0.595487 27.1304 0.640015 27.1667C0.684542 27.203 0.732135 27.2348 0.780029 27.2667C0.827924 27.2986 0.879252 27.3297 0.930054 27.3567C0.980857 27.3837 1.03675 27.4048 1.08997 27.4267C1.14319 27.4487 1.19488 27.4701 1.25 27.4867C1.30512 27.5034 1.36355 27.5156 1.42004 27.5267C1.47654 27.5379 1.53264 27.5567 1.58997 27.5567C1.64729 27.5567 1.70241 27.5667 1.76001 27.5667L16.91 27.5667C16.9676 27.5667 17.0227 27.5567 17.08 27.5567C17.1374 27.5567 17.1935 27.5379 17.25 27.5267C17.3065 27.5156 17.3649 27.5034 17.42 27.4867C17.4751 27.4701 17.5268 27.4487 17.58 27.4267C17.6332 27.4048 17.6892 27.3837 17.74 27.3567C17.7908 27.3297 17.8421 27.2986 17.89 27.2667C17.9379 27.2348 17.9755 27.203 18.02 27.1667C18.0645 27.1304 18.1093 27.0872 18.15 27.0467C18.1908 27.0062 18.2335 26.971 18.27 26.9267C18.3066 26.8824 18.338 26.8344 18.37 26.7867C18.402 26.7391 18.4329 26.6873 18.46 26.6367C18.4872 26.5862 18.508 26.5396 18.53 26.4867C18.5521 26.4337 18.5733 26.3716 18.59 26.3167C18.6068 26.2619 18.6188 26.213 18.63 26.1567C18.6412 26.1005 18.66 26.0438 18.66 25.9867C18.66 25.9297 18.67 25.874 18.67 25.8167C18.67 25.7594 18.66 25.6937 18.66 25.6367C18.66 25.5796 18.6412 25.5229 18.63 25.4667C18.6188 25.4104 18.6068 25.3615 18.59 25.3067C18.5733 25.2518 18.5521 25.1997 18.53 25.1467C18.508 25.0938 18.4872 25.0372 18.46 24.9867C18.4329 24.9361 18.4021 24.8843 18.37 24.8367C18.3381 24.789 18.3066 24.751 18.27 24.7067C18.2335 24.6624 18.1908 24.6172 18.15 24.5767C18.1093 24.5362 18.0645 24.493 18.02 24.4567C17.9755 24.4203 17.9379 24.3885 17.89 24.3567C17.8421 24.3248 17.7908 24.2937 17.74 24.2667C17.6892 24.2397 17.6332 24.2187 17.58 24.1967C17.5268 24.1748 17.4751 24.1533 17.42 24.1367C17.3649 24.12 17.3065 24.1078 17.25 24.0967C17.1935 24.0855 17.1374 24.0667 17.08 24.0667C17.0227 24.0667 16.9676 24.0667 16.91 24.0667Z" fill-rule="evenodd"  fill="#EDF5FF" ></path></svg>
