<svg xmlns="http://www.w3.org/2000/svg" xmlns:xlink="http://www.w3.org/1999/xlink" width="1624" height="750" viewBox="0 0 1624 750" fill="none"><path     fill="#001024"  d="M0 750L1624 750L1624 0L0 0L0 750Z"></path><path  transform="translate(80, 136)"   fill="#001024"  d="M0 568L224 568L224 0L0 0L0 568Z"></path><rect x="80" y="136" width="224" height="88"   fill="#001024" ></rect><g ><text transform="translate(136, 160)"><tspan x="0" y="29.68" font-size="28" line-height="0"  fill="#7DA2CE"  font-family=".PingFang SC Regular; 10.11d9e1; 2015-05-20" letter-spacing="0" >基本设置</tspan></text></g><rect x="80" y="232" width="224" height="87.99994277954102"   fill="#001024" ></rect><g ><text transform="translate(136, 256)"><tspan x="0" y="29.68" font-size="28" line-height="0"  fill="#7DA2CE"  font-family=".PingFang SC Regular; 10.11d9e1; 2015-05-20" letter-spacing="0" >通道设置</tspan></text></g><rect x="80" y="328" width="224" height="87.99994277954102"   fill="url(#linear_fill_0_3131)" fill-opacity="1"></rect><rect x="80" y="328" width="6" height="88"   fill="url(#linear_fill_0_3132)" fill-opacity="1"></rect><g ><text transform="translate(136, 352)"><tspan x="0" y="29.68" font-size="28" line-height="0"  fill="#EDF5FF"  font-family=".PingFang SC Semibold; 10.11d9e1; 2015-05-20" letter-spacing="0" >失控保护</tspan></text></g><rect x="80" y="424" width="224" height="87.99994277954102"   fill="#001024" ></rect><g ><text transform="translate(136, 448)"><tspan x="0" y="29.68" font-size="28" line-height="0"  fill="#7DA2CE"  font-family=".PingFang SC Regular; 10.11d9e1; 2015-05-20" letter-spacing="0" >履带混控</tspan></text></g><rect x="80" y="520" width="224" height="88"   fill="#001024" ></rect><g ><text transform="translate(136, 544)"><tspan x="0" y="29.68" font-size="28" line-height="0"  fill="#7DA2CE"  font-family=".PingFang SC Regular; 10.11d9e1; 2015-05-20" letter-spacing="0" >报警提示</tspan></text></g><rect x="80" y="616" width="224" height="88"   fill="#001024" ></rect><g ><text transform="translate(136, 640)"><tspan x="0" y="29.68" font-size="28" line-height="0"  fill="#7DA2CE"  font-family=".PingFang SC Regular; 10.11d9e1; 2015-05-20" letter-spacing="0" >固件升级</tspan></text></g><rect x="328" y="136" width="1216" height="88"   fill="#1B2D4D" fill-opacity="0.4"></rect><g filter="url(#filter_2_2900)"><rect  x="1220" y="152" width="120" height="56" rx="4"    fill="#1B2D4D" fill-opacity="0.4"></rect><rect  x="1220" y="152" width="120" height="56" rx="4"    fill="url(#linear_fill_2_2900_1)" ></rect><path fill-rule="evenodd"  fill="rgba(0, 198, 255, 1)"  d="M1336 152L1224 152C1221.79 152 1220 153.791 1220 156L1220 204C1220 206.209 1221.79 208 1224 208L1336 208C1338.21 208 1340 206.209 1340 204L1340 156C1340 153.791 1338.21 152 1336 152ZM1221 156C1221 154.343 1222.34 153 1224 153L1336 153C1337.66 153 1339 154.343 1339 156L1339 204C1339 205.657 1337.66 207 1336 207L1224 207C1222.34 207 1221 205.657 1221 204L1221 156Z"></path></g><g ><text transform="translate(1261.5, 164)"><tspan x="0" y="25.9765625" font-size="28" line-height="0"  fill="#EDF5FF"  font-family="Roboto" letter-spacing="0" >0%</tspan></text></g><g filter="url(#filter_2_2904)"><rect  x="1364" y="152" width="148" height="56" rx="4"    fill="#1B2D4D" fill-opacity="0.4"></rect><path fill-rule="evenodd"  fill="rgba(0, 114, 255, 1)"  d="M1508 152L1368 152C1365.79 152 1364 153.791 1364 156L1364 204C1364 206.209 1365.79 208 1368 208L1508 208C1510.21 208 1512 206.209 1512 204L1512 156C1512 153.791 1510.21 152 1508 152ZM1365 156C1365 154.343 1366.34 153 1368 153L1508 153C1509.66 153 1511 154.343 1511 156L1511 204C1511 205.657 1509.66 207 1508 207L1368 207C1366.34 207 1365 205.657 1365 204L1365 156Z"></path></g><g ><text transform="translate(1396, 160)"><tspan x="0" y="29.68" font-size="28" line-height="0"  fill="#EDF5FF"  font-family=".PingFang SC Regular; 10.11d9e1; 2015-05-20" letter-spacing="0" >固定值</tspan></text></g><g ><text transform="translate(360, 160)"><tspan x="0" y="29.68" font-size="28" line-height="0"  fill="#EDF5FF"  font-family=".PingFang SC Regular; 10.11d9e1; 2015-05-20" letter-spacing="0" >油门</tspan></text></g><rect x="328" y="232" width="1216" height="88"   fill="#1B2D4D" fill-opacity="0.4"></rect><g ><text transform="translate(360, 256)"><tspan x="0" y="29.68" font-size="28" line-height="0"  fill="#EDF5FF"  font-family=".PingFang SC Regular; 10.11d9e1; 2015-05-20" letter-spacing="0" >方向</tspan></text></g><g filter="url(#filter_0_2452)"><rect  x="1364" y="248" width="148" height="56" rx="4"    fill="#1B2D4D" fill-opacity="0.4"></rect><path fill-rule="evenodd"  fill="rgba(0, 114, 255, 1)"  d="M1508 248L1368 248C1365.79 248 1364 249.791 1364 252L1364 300C1364 302.209 1365.79 304 1368 304L1508 304C1510.21 304 1512 302.209 1512 300L1512 252C1512 249.791 1510.21 248 1508 248ZM1365 252C1365 250.343 1366.34 249 1368 249L1508 249C1509.66 249 1511 250.343 1511 252L1511 300C1511 301.657 1509.66 303 1508 303L1368 303C1366.34 303 1365 301.657 1365 300L1365 252Z"></path></g><g ><text transform="translate(1410, 256)"><tspan x="0" y="29.68" font-size="28" line-height="0"  fill="#EDF5FF"  font-family=".PingFang SC Regular; 10.11d9e1; 2015-05-20" letter-spacing="0" >保持</tspan></text></g><rect  x="762" y="576" width="348" height="88" rx="8"    fill="url(#linear_fill_0_2457_0)" ></rect><g ><text transform="translate(897, 601)"><tspan x="0" y="29.6875" font-size="32" line-height="0"  fill="#001024"  font-family="Roboto Bold" letter-spacing="0" >TEST</tspan></text></g><rect  x="603" y="725" width="418" height="10" rx="5"    fill="#EDF5FF" fill-opacity="0.48"></rect><g filter="url(#filter_0_2501)"><rect x="80" y="0" width="1464" height="120"   fill="#1B2D4D" fill-opacity="0"></rect></g><path    stroke="rgba(237, 245, 255, 1)" stroke-width="4"  stroke-linecap="round"  d="M1475.2 72.8027L1500.8 47.1973"></path><path    stroke="rgba(237, 245, 255, 1)" stroke-width="4"  stroke-linecap="round"  d="M1501 73.0002L1475 47.0005"></path><rect x="80" y="118" width="1464" height="2"   fill="url(#linear_fill_0_2507)" ></rect><g ><path     fill="#EDF5FF"  d="M97.56 68.88L92.44 64.52L92.72 62.6L99.2 62.6L102.6 65.6L106.64 62.96L106.8 61.8L92.84 61.8L93.36 58.08L113.6 58.08L112.6 65.32L106.56 69.04L112.72 74.36L104 74.36L101.44 72.2L97.88 74.36L89.2 74.36L97.56 68.88ZM106.24 57.04L107.2 50.08L101.72 50.08L100.24 57.04L93.6 57.04L95.56 47.76L94.32 46.32L113.96 46.32L113.04 53.04L113.76 53.04L115.08 51.52L114.32 57.04L106.24 57.04ZM81.72 73.64L84.08 56.96L81.72 56.96L82.24 53.16L91.28 53.16L89.2 68.12L92.16 67.32L91.6 71.28L81.72 73.64ZM90.4 46.32L91.56 51.64L85.44 51.64L84.28 46.32L90.4 46.32ZM133.44 53.92L133.92 52.76L121.88 52.76L122.68 47.12L121.88 46.28L153 46.28L152.08 52.76L139.92 52.76L139.52 53.92L152.72 53.92L152.32 56.96L138.44 56.96L138.04 58.04L149.88 58.04L148.04 70.92L151.12 70.92L150.72 73.68L117.36 73.68L117.76 70.92L119.96 70.92L121.76 58.04L131.84 58.04L132.24 56.96L120.44 56.96L120.84 53.92L133.44 53.92ZM128.04 61.84L142.44 61.84L142.56 61.08L128.16 61.08L128.04 61.84ZM127.2 67.88L141.6 67.88L141.68 67.16L127.32 67.16L127.2 67.88ZM126.8 70.92L141.16 70.92L141.24 70.2L126.88 70.2L126.8 70.92ZM127.64 64.84L142 64.84L142.12 64.16L127.72 64.16L127.64 64.84ZM143.56 48.64L143.32 50.44L145.64 50.44L145.88 48.64L143.56 48.64ZM131.28 50.44L131.52 48.64L129.28 48.64L129.04 50.44L131.28 50.44ZM136.12 50.44L138.36 50.44L138.6 48.64L136.36 48.64L136.12 50.44Z"></path></g><defs><linearGradient id="linear_fill_0_3131" x1="80" y1="371.9999713897705" x2="304" y2="371.9999713897705" gradientUnits="userSpaceOnUse"><stop offset="0" stop-color="#0072FF" stop-opacity="0.48" /><stop offset="1" stop-color="#0073FF" stop-opacity="0" /></linearGradient><linearGradient id="linear_fill_0_3132" x1="83" y1="328" x2="83" y2="416" gradientUnits="userSpaceOnUse"><stop offset="0.0486" stop-color="#0072FF" stop-opacity="0" /><stop offset="0.4622" stop-color="#0072FF"  /><stop offset="0.9583" stop-color="#0072FF" stop-opacity="0" /></linearGradient><linearGradient id="linear_fill_2_2900_1" x1="1280" y1="208" x2="1280" y2="152" gradientUnits="userSpaceOnUse"><stop offset="0" stop-color="#00C6FF" stop-opacity="0.5" /><stop offset="1" stop-color="#00C6FF" stop-opacity="0" /></linearGradient><filter id="filter_2_2900" x="1220" y="152" width="120" height="56" filterUnits="userSpaceOnUse" color-interpolation-filters="sRGB"><feFlood flood-opacity="0" result="feFloodId_2_2900"/><feBlend mode="normal" in="SourceGraphic" in2="feFloodId_2_2900" result="shape_2_2900"/><feColorMatrix in="SourceAlpha" type="matrix" values="0 0 0 0 0 0 0 0 0 0 0 0 0 0 0 0 0 0 127 0" result="hardAlpha_2_2900"/><feOffset dx="0" dy="0"/><feGaussianBlur stdDeviation="4"/><feComposite in2="hardAlpha_2_2900" operator="arithmetic" k2="-1" k3="1"/><feColorMatrix type="matrix" values="0 0 0 0 0 0 0 0 0 0.4470588235294118 0 0 0 0 1 0 0 0 0.64 0"/><feBlend mode="normal" in2="shape_2_2900" result="innerShadow_0_2_2900" /></filter><filter id="filter_2_2904" x="1364" y="152" width="148" height="56" filterUnits="userSpaceOnUse" color-interpolation-filters="sRGB"><feFlood flood-opacity="0" result="feFloodId_2_2904"/><feBlend mode="normal" in="SourceGraphic" in2="feFloodId_2_2904" result="shape_2_2904"/><feColorMatrix in="SourceAlpha" type="matrix" values="0 0 0 0 0 0 0 0 0 0 0 0 0 0 0 0 0 0 127 0" result="hardAlpha_2_2904"/><feOffset dx="0" dy="0"/><feGaussianBlur stdDeviation="4"/><feComposite in2="hardAlpha_2_2904" operator="arithmetic" k2="-1" k3="1"/><feColorMatrix type="matrix" values="0 0 0 0 0 0 0 0 0 0.4470588235294118 0 0 0 0 1 0 0 0 0.64 0"/><feBlend mode="normal" in2="shape_2_2904" result="innerShadow_0_2_2904" /></filter><filter id="filter_0_2452" x="1364" y="248" width="148" height="56" filterUnits="userSpaceOnUse" color-interpolation-filters="sRGB"><feFlood flood-opacity="0" result="feFloodId_0_2452"/><feBlend mode="normal" in="SourceGraphic" in2="feFloodId_0_2452" result="shape_0_2452"/><feColorMatrix in="SourceAlpha" type="matrix" values="0 0 0 0 0 0 0 0 0 0 0 0 0 0 0 0 0 0 127 0" result="hardAlpha_0_2452"/><feOffset dx="0" dy="0"/><feGaussianBlur stdDeviation="4"/><feComposite in2="hardAlpha_0_2452" operator="arithmetic" k2="-1" k3="1"/><feColorMatrix type="matrix" values="0 0 0 0 0 0 0 0 0 0.4470588235294118 0 0 0 0 1 0 0 0 0.64 0"/><feBlend mode="normal" in2="shape_0_2452" result="innerShadow_0_0_2452" /></filter><linearGradient id="linear_fill_0_2457_0" x1="936" y1="664" x2="936" y2="576" gradientUnits="userSpaceOnUse"><stop offset="0" stop-color="#0072FF"  /><stop offset="1" stop-color="#00C8FF"  /></linearGradient><filter id="filter_0_2501" x="80" y="0" width="1464" height="120" filterUnits="userSpaceOnUse" color-interpolation-filters="sRGB"><feFlood flood-opacity="0" result="feFloodId_0_2501"/><feBlend mode="normal" in="SourceGraphic" in2="feFloodId_0_2501" result="shape_0_2501"/><feColorMatrix in="SourceAlpha" type="matrix" values="0 0 0 0 0 0 0 0 0 0 0 0 0 0 0 0 0 0 127 0" result="hardAlpha_0_2501"/><feOffset dx="0" dy="0"/><feGaussianBlur stdDeviation="8"/><feComposite in2="hardAlpha_0_2501" operator="arithmetic" k2="-1" k3="1"/><feColorMatrix type="matrix" values="0 0 0 0 0 0 0 0 0 0.4470588235294118 0 0 0 0 1 0 0 0 0.24 0"/><feBlend mode="normal" in2="shape_0_2501" result="innerShadow_0_0_2501" /></filter><linearGradient id="linear_fill_0_2507" x1="80" y1="119" x2="1544" y2="119" gradientUnits="userSpaceOnUse"><stop offset="0" stop-color="#7EA2CF"  /><stop offset="0.3334" stop-color="#00C6FF"  /><stop offset="0.5092" stop-color="#92FE9D"  /><stop offset="0.678" stop-color="#00C8FF"  /><stop offset="1" stop-color="#7DA2CE"  /></linearGradient></defs></svg>