<svg xmlns="http://www.w3.org/2000/svg" xmlns:xlink="http://www.w3.org/1999/xlink" width="1624" height="750" viewBox="0 0 1624 750" fill="none"><path     fill="#001024"  d="M0 750L1624 750L1624 0L0 0L0 750Z"></path><g filter="url(#filter_5_1011)"><rect x="80" y="0" width="1464" height="120"   fill="#1B2D4D" fill-opacity="0"></rect></g><path    stroke="rgba(237, 245, 255, 1)" stroke-width="4"  stroke-linecap="round"  d="M1475.2 72.8027L1500.8 47.1973"></path><path    stroke="rgba(237, 245, 255, 1)" stroke-width="4"  stroke-linecap="round"  d="M1501 73.0002L1475 47.0005"></path><rect x="80" y="118" width="1464" height="2"   fill="url(#linear_fill_5_1017)" ></rect><g ><path     fill="#EDF5FF"  d="M97.56 68.88L92.44 64.52L92.72 62.6L99.2 62.6L102.6 65.6L106.64 62.96L106.8 61.8L92.84 61.8L93.36 58.08L113.6 58.08L112.6 65.32L106.56 69.04L112.72 74.36L104 74.36L101.44 72.2L97.88 74.36L89.2 74.36L97.56 68.88ZM106.24 57.04L107.2 50.08L101.72 50.08L100.24 57.04L93.6 57.04L95.56 47.76L94.32 46.32L113.96 46.32L113.04 53.04L113.76 53.04L115.08 51.52L114.32 57.04L106.24 57.04ZM81.72 73.64L84.08 56.96L81.72 56.96L82.24 53.16L91.28 53.16L89.2 68.12L92.16 67.32L91.6 71.28L81.72 73.64ZM90.4 46.32L91.56 51.64L85.44 51.64L84.28 46.32L90.4 46.32ZM133.44 53.92L133.92 52.76L121.88 52.76L122.68 47.12L121.88 46.28L153 46.28L152.08 52.76L139.92 52.76L139.52 53.92L152.72 53.92L152.32 56.96L138.44 56.96L138.04 58.04L149.88 58.04L148.04 70.92L151.12 70.92L150.72 73.68L117.36 73.68L117.76 70.92L119.96 70.92L121.76 58.04L131.84 58.04L132.24 56.96L120.44 56.96L120.84 53.92L133.44 53.92ZM128.04 61.84L142.44 61.84L142.56 61.08L128.16 61.08L128.04 61.84ZM127.2 67.88L141.6 67.88L141.68 67.16L127.32 67.16L127.2 67.88ZM126.8 70.92L141.16 70.92L141.24 70.2L126.88 70.2L126.8 70.92ZM127.64 64.84L142 64.84L142.12 64.16L127.72 64.16L127.64 64.84ZM143.56 48.64L143.32 50.44L145.64 50.44L145.88 48.64L143.56 48.64ZM131.28 50.44L131.52 48.64L129.28 48.64L129.04 50.44L131.28 50.44ZM136.12 50.44L138.36 50.44L138.6 48.64L136.36 48.64L136.12 50.44Z"></path></g><path  transform="translate(80, 136)"   fill="#001024"  d="M0 568L224 568L224 0L0 0L0 568Z"></path><rect x="80" y="136" width="224" height="88"   fill="#001024" ></rect><g ><text transform="translate(136, 160)"><tspan x="0" y="29.68" font-size="28" line-height="0"  fill="#7DA2CE"  font-family=".PingFang SC Regular; 10.11d9e1; 2015-05-20" letter-spacing="0" >基本设置</tspan></text></g><rect x="80" y="232" width="224" height="87.99994277954102"   fill="#001024" ></rect><g ><text transform="translate(136, 256)"><tspan x="0" y="29.68" font-size="28" line-height="0"  fill="#7DA2CE"  font-family=".PingFang SC Regular; 10.11d9e1; 2015-05-20" letter-spacing="0" >通道设置</tspan></text></g><rect x="80" y="328" width="224" height="87.99994277954102"   fill="#001024" ></rect><g ><text transform="translate(136, 352)"><tspan x="0" y="29.68" font-size="28" line-height="0"  fill="#7DA2CE"  font-family=".PingFang SC Regular; 10.11d9e1; 2015-05-20" letter-spacing="0" >失控保护</tspan></text></g><rect x="80" y="424" width="224" height="87.99994277954102"   fill="#001024" ></rect><g ><text transform="translate(136, 448)"><tspan x="0" y="29.68" font-size="28" line-height="0"  fill="#7DA2CE"  font-family=".PingFang SC Regular; 10.11d9e1; 2015-05-20" letter-spacing="0" >履带混控</tspan></text></g><rect x="80" y="520" width="224" height="88"   fill="url(#linear_fill_5_1038)" fill-opacity="1"></rect><rect x="80" y="520" width="6" height="88"   fill="url(#linear_fill_5_1039)" fill-opacity="1"></rect><g ><text transform="translate(136, 544)"><tspan x="0" y="29.68" font-size="28" line-height="0"  fill="#EDF5FF"  font-family=".PingFang SC Semibold; 10.11d9e1; 2015-05-20" letter-spacing="0" >报警提示</tspan></text></g><rect x="80" y="616" width="224" height="88"   fill="#001024" ></rect><g ><text transform="translate(136, 640)"><tspan x="0" y="29.68" font-size="28" line-height="0"  fill="#7DA2CE"  font-family=".PingFang SC Regular; 10.11d9e1; 2015-05-20" letter-spacing="0" >固件升级</tspan></text></g><rect x="328" y="136" width="1216" height="88"   fill="#1B2D4D" fill-opacity="0.4"></rect><rect  x="1424" y="156" width="88" height="48.0000017606295" rx="24.00000088031475"    fill="url(#linear_fill_5_1053_0)" fill-opacity="1"></rect><path fill-rule="evenodd"  fill="url(#linear_border_5_1053_0)"  d="M1488 156L1448 156C1434.75 156 1424 166.745 1424 180C1424 193.255 1434.75 204 1448 204L1488 204C1501.25 204 1512 193.255 1512 180C1512 166.745 1501.25 156 1488 156ZM1431.74 163.737Q1438.47 157 1448 157L1488 157C1500.7 157 1511 167.297 1511 180C1511 192.703 1500.7 203 1488 203L1448 203C1435.3 203 1425 192.703 1425 180Q1425 170.473 1431.74 163.737Z"></path><g filter="url(#filter_5_1054)"><circle cx="1488" cy="180" r="21"   fill="#EDF5FF" ></circle></g><rect  x="1424" y="156" width="88" height="48.0000017606295" rx="24.00000088031475"    fill="#465D7A" ></rect><path fill-rule="evenodd"  fill="url(#linear_border_5_1154_0)"  d="M1488 156L1448 156C1434.75 156 1424 166.745 1424 180C1424 193.255 1434.75 204 1448 204L1488 204C1501.25 204 1512 193.255 1512 180C1512 166.745 1501.25 156 1488 156ZM1431.74 163.737Q1438.47 157 1448 157L1488 157C1500.7 157 1511 167.297 1511 180C1511 192.703 1500.7 203 1488 203L1448 203C1435.3 203 1425 192.703 1425 180Q1425 170.473 1431.74 163.737Z"></path><g filter="url(#filter_5_1155)"><circle cx="1448" cy="180" r="21"   fill="#EDF5FF" ></circle></g><g ><text transform="translate(360, 160)"><tspan x="0" y="29.68" font-size="28" line-height="0"  fill="#EDF5FF"  font-family=".PingFang SC Regular; 10.11d9e1; 2015-05-20" letter-spacing="0" >模型低电压报警</tspan></text></g><rect x="328" y="232" width="1216" height="88"   fill="#1B2D4D" fill-opacity="0.4"></rect><rect  x="1424" y="252" width="88" height="48.0000017606295" rx="24.00000088031475"    fill="url(#linear_fill_5_1104_0)" fill-opacity="1"></rect><path fill-rule="evenodd"  fill="url(#linear_border_5_1104_0)"  d="M1488 252L1448 252C1434.75 252 1424 262.745 1424 276C1424 289.255 1434.75 300 1448 300L1488 300C1501.25 300 1512 289.255 1512 276C1512 262.745 1501.25 252 1488 252ZM1431.74 259.737Q1438.47 253 1448 253L1488 253C1500.7 253 1511 263.297 1511 276C1511 288.703 1500.7 299 1488 299L1448 299C1435.3 299 1425 288.703 1425 276Q1425 266.473 1431.74 259.737Z"></path><g filter="url(#filter_5_1105)"><circle cx="1488" cy="276" r="21"   fill="#EDF5FF" ></circle></g><rect  x="1424" y="252" width="88" height="48.0000017606295" rx="24.00000088031475"    fill="#465D7A" ></rect><path fill-rule="evenodd"  fill="url(#linear_border_5_1158_0)"  d="M1488 252L1448 252C1434.75 252 1424 262.745 1424 276C1424 289.255 1434.75 300 1448 300L1488 300C1501.25 300 1512 289.255 1512 276C1512 262.745 1501.25 252 1488 252ZM1431.74 259.737Q1438.47 253 1448 253L1488 253C1500.7 253 1511 263.297 1511 276C1511 288.703 1500.7 299 1488 299L1448 299C1435.3 299 1425 288.703 1425 276Q1425 266.473 1431.74 259.737Z"></path><g filter="url(#filter_5_1159)"><circle cx="1448" cy="276" r="21"   fill="#EDF5FF" ></circle></g><g ><text transform="translate(360, 256)"><tspan x="0" y="29.68" font-size="28" line-height="0"  fill="#EDF5FF"  font-family=".PingFang SC Regular; 10.11d9e1; 2015-05-20" letter-spacing="0" >模型低信号报警</tspan></text></g><rect x="328" y="328" width="1216" height="88"   fill="#1B2D4D" fill-opacity="0.4"></rect><g ><text transform="translate(360, 352)"><tspan x="0" y="29.68" font-size="28" line-height="0"  fill="#EDF5FF"  font-family=".PingFang SC Regular; 10.11d9e1; 2015-05-20" letter-spacing="0" >模型断开/连上提示</tspan></text></g><path d="M1230 390L1202 390C1199.8 390 1198 388.2 1198 386L1198 358C1198 355.8 1199.8 354 1202 354L1230 354C1232.2 354 1234 355.8 1234 358L1234 386C1234 388.2 1232.2 390 1230 390Z" stroke="rgba(0, 114, 255, 1)" stroke-width="4"   ></path><g ><text transform="translate(1256, 352)"><tspan x="0" y="29.68" font-size="28" line-height="0"  fill="#EDF5FF"  font-family=".PingFang SC Regular; 10.11d9e1; 2015-05-20" letter-spacing="0" >语音</tspan></text></g><path d="M1430 352L1402 352C1398.6 352 1396 354.6 1396 358L1396 386C1396 389.4 1398.6 392 1402 392L1430 392C1433.4 392 1436 389.4 1436 386L1436 358C1436 354.6 1433.4 352 1430 352ZM1426.4 367.4L1414.4 379.4C1414 379.8 1413.6 380 1413 380C1412.4 380 1412 379.8 1411.6 379.4L1405.6 373.4C1404.8 372.6 1404.8 371.4 1405.6 370.6C1406.4 369.8 1407.6 369.8 1408.4 370.6L1413 375.2L1423.6 364.6C1424.4 363.8 1425.6 363.8 1426.4 364.6C1427.2 365.4 1427.2 366.6 1426.4 367.4Z"   fill="#0072FF" ></path><g ><text transform="translate(1456, 352)"><tspan x="0" y="29.68" font-size="28" line-height="0"  fill="#EDF5FF"  font-family=".PingFang SC Regular; 10.11d9e1; 2015-05-20" letter-spacing="0" >振动</tspan></text></g><rect  x="603" y="725" width="418" height="10" rx="5"    fill="#EDF5FF" fill-opacity="0.48"></rect><defs><filter id="filter_5_1011" x="80" y="0" width="1464" height="120" filterUnits="userSpaceOnUse" color-interpolation-filters="sRGB"><feFlood flood-opacity="0" result="feFloodId_5_1011"/><feBlend mode="normal" in="SourceGraphic" in2="feFloodId_5_1011" result="shape_5_1011"/><feColorMatrix in="SourceAlpha" type="matrix" values="0 0 0 0 0 0 0 0 0 0 0 0 0 0 0 0 0 0 127 0" result="hardAlpha_5_1011"/><feOffset dx="0" dy="0"/><feGaussianBlur stdDeviation="8"/><feComposite in2="hardAlpha_5_1011" operator="arithmetic" k2="-1" k3="1"/><feColorMatrix type="matrix" values="0 0 0 0 0 0 0 0 0 0.4470588235294118 0 0 0 0 1 0 0 0 0.24 0"/><feBlend mode="normal" in2="shape_5_1011" result="innerShadow_0_5_1011" /></filter><linearGradient id="linear_fill_5_1017" x1="80" y1="119" x2="1544" y2="119" gradientUnits="userSpaceOnUse"><stop offset="0" stop-color="#7EA2CF"  /><stop offset="0.3334" stop-color="#00C6FF"  /><stop offset="0.5092" stop-color="#92FE9D"  /><stop offset="0.678" stop-color="#00C8FF"  /><stop offset="1" stop-color="#7DA2CE"  /></linearGradient><linearGradient id="linear_fill_5_1038" x1="80" y1="564" x2="304" y2="564" gradientUnits="userSpaceOnUse"><stop offset="0" stop-color="#0072FF" stop-opacity="0.48" /><stop offset="1" stop-color="#0073FF" stop-opacity="0" /></linearGradient><linearGradient id="linear_fill_5_1039" x1="83" y1="520" x2="83" y2="608" gradientUnits="userSpaceOnUse"><stop offset="0.0486" stop-color="#0072FF" stop-opacity="0" /><stop offset="0.4622" stop-color="#0072FF"  /><stop offset="0.9583" stop-color="#0072FF" stop-opacity="0" /></linearGradient><linearGradient id="linear_fill_5_1053_0" x1="1424" y1="180.00000088031476" x2="1512" y2="180.00000088031476" gradientUnits="userSpaceOnUse"><stop offset="0" stop-color="#0072FF"  /><stop offset="1" stop-color="#00C8FF"  /></linearGradient><linearGradient id="linear_border_5_1053_0" x1="1468" y1="156" x2="1468" y2="204.00000176062952" gradientUnits="userSpaceOnUse"><stop offset="0" stop-color="#7DA2CE" stop-opacity="0.4" /><stop offset="0.2807" stop-color="#7DA2CE" stop-opacity="0.64" /><stop offset="0.5394" stop-color="#7DA2CE"  /><stop offset="0.7954" stop-color="#7DA2CE" stop-opacity="0.64" /><stop offset="1" stop-color="#7DA2CE" stop-opacity="0.4" /></linearGradient><filter id="filter_5_1054" x="1463.5714284456694" y="155.57142844566897" width="48.857143108661376" height="48.85714310866206" filterUnits="userSpaceOnUse" color-interpolation-filters="sRGB"><feFlood flood-opacity="0" result="feFloodId_5_1054"/><feColorMatrix in="SourceAlpha" type="matrix" values="0 0 0 0 0 0 0 0 0 0 0 0 0 0 0 0 0 0 127 0" result="hardAlpha_5_1054"/><feOffset dx="0" dy="0"/><feGaussianBlur stdDeviation="1.7142857771653395"/><feComposite in2="hardAlpha_5_1054" operator="out"/><feColorMatrix type="matrix" values="0 0 0 0 0 0 0 0 0 0.06274509803921569 0 0 0 0 0.1411764705882353 0 0 0 0.25 0"/><feBlend mode="normal" in2="feFloodId_5_1054" result="dropShadow_1_5_1054"/><feBlend mode="normal" in="SourceGraphic" in2="dropShadow_1_5_1054" result="shape_5_1054"/></filter><linearGradient id="linear_border_5_1154_0" x1="1468" y1="156" x2="1468" y2="204.00000176062952" gradientUnits="userSpaceOnUse"><stop offset="0" stop-color="#7DA2CE" stop-opacity="0.4" /><stop offset="0.2807" stop-color="#7DA2CE" stop-opacity="0.64" /><stop offset="0.5394" stop-color="#7DA2CE"  /><stop offset="0.7954" stop-color="#7DA2CE" stop-opacity="0.64" /><stop offset="1" stop-color="#7DA2CE" stop-opacity="0.4" /></linearGradient><filter id="filter_5_1155" x="1423.5714284456694" y="155.57142844566897" width="48.857143108661376" height="48.85714310866206" filterUnits="userSpaceOnUse" color-interpolation-filters="sRGB"><feFlood flood-opacity="0" result="feFloodId_5_1155"/><feColorMatrix in="SourceAlpha" type="matrix" values="0 0 0 0 0 0 0 0 0 0 0 0 0 0 0 0 0 0 127 0" result="hardAlpha_5_1155"/><feOffset dx="0" dy="0"/><feGaussianBlur stdDeviation="1.7142857771653395"/><feComposite in2="hardAlpha_5_1155" operator="out"/><feColorMatrix type="matrix" values="0 0 0 0 0 0 0 0 0 0.06274509803921569 0 0 0 0 0.1411764705882353 0 0 0 0.25 0"/><feBlend mode="normal" in2="feFloodId_5_1155" result="dropShadow_1_5_1155"/><feBlend mode="normal" in="SourceGraphic" in2="dropShadow_1_5_1155" result="shape_5_1155"/></filter><linearGradient id="linear_fill_5_1104_0" x1="1424" y1="276.00000088031476" x2="1512" y2="276.00000088031476" gradientUnits="userSpaceOnUse"><stop offset="0" stop-color="#0072FF"  /><stop offset="1" stop-color="#00C8FF"  /></linearGradient><linearGradient id="linear_border_5_1104_0" x1="1468" y1="252" x2="1468" y2="300.0000017606295" gradientUnits="userSpaceOnUse"><stop offset="0" stop-color="#7DA2CE" stop-opacity="0.4" /><stop offset="0.2807" stop-color="#7DA2CE" stop-opacity="0.64" /><stop offset="0.5394" stop-color="#7DA2CE"  /><stop offset="0.7954" stop-color="#7DA2CE" stop-opacity="0.64" /><stop offset="1" stop-color="#7DA2CE" stop-opacity="0.4" /></linearGradient><filter id="filter_5_1105" x="1463.5714284456694" y="251.57142844566897" width="48.857143108661376" height="48.85714310866206" filterUnits="userSpaceOnUse" color-interpolation-filters="sRGB"><feFlood flood-opacity="0" result="feFloodId_5_1105"/><feColorMatrix in="SourceAlpha" type="matrix" values="0 0 0 0 0 0 0 0 0 0 0 0 0 0 0 0 0 0 127 0" result="hardAlpha_5_1105"/><feOffset dx="0" dy="0"/><feGaussianBlur stdDeviation="1.7142857771653395"/><feComposite in2="hardAlpha_5_1105" operator="out"/><feColorMatrix type="matrix" values="0 0 0 0 0 0 0 0 0 0.06274509803921569 0 0 0 0 0.1411764705882353 0 0 0 0.25 0"/><feBlend mode="normal" in2="feFloodId_5_1105" result="dropShadow_1_5_1105"/><feBlend mode="normal" in="SourceGraphic" in2="dropShadow_1_5_1105" result="shape_5_1105"/></filter><linearGradient id="linear_border_5_1158_0" x1="1468" y1="252" x2="1468" y2="300.0000017606295" gradientUnits="userSpaceOnUse"><stop offset="0" stop-color="#7DA2CE" stop-opacity="0.4" /><stop offset="0.2807" stop-color="#7DA2CE" stop-opacity="0.64" /><stop offset="0.5394" stop-color="#7DA2CE"  /><stop offset="0.7954" stop-color="#7DA2CE" stop-opacity="0.64" /><stop offset="1" stop-color="#7DA2CE" stop-opacity="0.4" /></linearGradient><filter id="filter_5_1159" x="1423.5714284456694" y="251.57142844566897" width="48.857143108661376" height="48.85714310866206" filterUnits="userSpaceOnUse" color-interpolation-filters="sRGB"><feFlood flood-opacity="0" result="feFloodId_5_1159"/><feColorMatrix in="SourceAlpha" type="matrix" values="0 0 0 0 0 0 0 0 0 0 0 0 0 0 0 0 0 0 127 0" result="hardAlpha_5_1159"/><feOffset dx="0" dy="0"/><feGaussianBlur stdDeviation="1.7142857771653395"/><feComposite in2="hardAlpha_5_1159" operator="out"/><feColorMatrix type="matrix" values="0 0 0 0 0 0 0 0 0 0.06274509803921569 0 0 0 0 0.1411764705882353 0 0 0 0.25 0"/><feBlend mode="normal" in2="feFloodId_5_1159" result="dropShadow_1_5_1159"/><feBlend mode="normal" in="SourceGraphic" in2="dropShadow_1_5_1159" result="shape_5_1159"/></filter></defs></svg>