<svg xmlns="http://www.w3.org/2000/svg" xmlns:xlink="http://www.w3.org/1999/xlink" width="1624" height="750" viewBox="0 0 1624 750" fill="none"><path     fill="#001024"  d="M0 750L1624 750L1624 0L0 0L0 750Z"></path><g filter="url(#filter_0_2474)"><rect x="80" y="0" width="1464" height="120"   fill="#1B2D4D" fill-opacity="0"></rect></g><path    stroke="rgba(237, 245, 255, 1)" stroke-width="4"  stroke-linecap="round"  d="M1475.2 72.8027L1500.8 47.1973"></path><path    stroke="rgba(237, 245, 255, 1)" stroke-width="4"  stroke-linecap="round"  d="M1501 73.0002L1475 47.0005"></path><rect x="80" y="118" width="1464" height="2"   fill="url(#linear_fill_0_2480)" ></rect><g ><path     fill="#EDF5FF"  d="M97.56 68.88L92.44 64.52L92.72 62.6L99.2 62.6L102.6 65.6L106.64 62.96L106.8 61.8L92.84 61.8L93.36 58.08L113.6 58.08L112.6 65.32L106.56 69.04L112.72 74.36L104 74.36L101.44 72.2L97.88 74.36L89.2 74.36L97.56 68.88ZM106.24 57.04L107.2 50.08L101.72 50.08L100.24 57.04L93.6 57.04L95.56 47.76L94.32 46.32L113.96 46.32L113.04 53.04L113.76 53.04L115.08 51.52L114.32 57.04L106.24 57.04ZM81.72 73.64L84.08 56.96L81.72 56.96L82.24 53.16L91.28 53.16L89.2 68.12L92.16 67.32L91.6 71.28L81.72 73.64ZM90.4 46.32L91.56 51.64L85.44 51.64L84.28 46.32L90.4 46.32ZM133.44 53.92L133.92 52.76L121.88 52.76L122.68 47.12L121.88 46.28L153 46.28L152.08 52.76L139.92 52.76L139.52 53.92L152.72 53.92L152.32 56.96L138.44 56.96L138.04 58.04L149.88 58.04L148.04 70.92L151.12 70.92L150.72 73.68L117.36 73.68L117.76 70.92L119.96 70.92L121.76 58.04L131.84 58.04L132.24 56.96L120.44 56.96L120.84 53.92L133.44 53.92ZM128.04 61.84L142.44 61.84L142.56 61.08L128.16 61.08L128.04 61.84ZM127.2 67.88L141.6 67.88L141.68 67.16L127.32 67.16L127.2 67.88ZM126.8 70.92L141.16 70.92L141.24 70.2L126.88 70.2L126.8 70.92ZM127.64 64.84L142 64.84L142.12 64.16L127.72 64.16L127.64 64.84ZM143.56 48.64L143.32 50.44L145.64 50.44L145.88 48.64L143.56 48.64ZM131.28 50.44L131.52 48.64L129.28 48.64L129.04 50.44L131.28 50.44ZM136.12 50.44L138.36 50.44L138.6 48.64L136.36 48.64L136.12 50.44Z"></path></g><path  transform="translate(80, 136)"   fill="#001024"  d="M0 568L224 568L224 0L0 0L0 568Z"></path><rect x="80" y="136" width="224" height="88"   fill="url(#linear_fill_0_2977)" fill-opacity="1"></rect><rect x="80" y="136" width="6" height="88"   fill="url(#linear_fill_0_2978)" fill-opacity="1"></rect><g ><text transform="translate(136, 160)"><tspan x="0" y="29.68" font-size="28" line-height="0"  fill="#EDF5FF"  font-family=".PingFang SC Semibold; 10.11d9e1; 2015-05-20" letter-spacing="0" >基本设置</tspan></text></g><rect x="80" y="232" width="224" height="87.99994277954102"   fill="#001024" ></rect><g ><text transform="translate(136, 256)"><tspan x="0" y="29.68" font-size="28" line-height="0"  fill="#7DA2CE"  font-family=".PingFang SC Regular; 10.11d9e1; 2015-05-20" letter-spacing="0" >通道设置</tspan></text></g><rect x="80" y="328" width="224" height="87.99994277954102"   fill="#001024" ></rect><g ><text transform="translate(136, 352)"><tspan x="0" y="29.68" font-size="28" line-height="0"  fill="#7DA2CE"  font-family=".PingFang SC Regular; 10.11d9e1; 2015-05-20" letter-spacing="0" >失控保护</tspan></text></g><rect x="80" y="424" width="224" height="87.99994277954102"   fill="#001024" ></rect><g ><text transform="translate(136, 448)"><tspan x="0" y="29.68" font-size="28" line-height="0"  fill="#7DA2CE"  font-family=".PingFang SC Regular; 10.11d9e1; 2015-05-20" letter-spacing="0" >履带混控</tspan></text></g><rect x="80" y="520" width="224" height="88"   fill="#001024" ></rect><g ><text transform="translate(136, 544)"><tspan x="0" y="29.68" font-size="28" line-height="0"  fill="#7DA2CE"  font-family=".PingFang SC Regular; 10.11d9e1; 2015-05-20" letter-spacing="0" >报警提示</tspan></text></g><rect x="80" y="616" width="224" height="88"   fill="#001024" ></rect><g ><text transform="translate(136, 640)"><tspan x="0" y="29.68" font-size="28" line-height="0"  fill="#7DA2CE"  font-family=".PingFang SC Regular; 10.11d9e1; 2015-05-20" letter-spacing="0" >固件升级</tspan></text></g><rect x="328" y="136" width="1216" height="184"   fill="#1B2D4D" fill-opacity="0.4"></rect><g filter="url(#filter_28_375)"><rect  x="1352" y="156" width="160" height="144" rx="8"    fill="url(#linear_fill_28_375_0)" ></rect><path fill-rule="evenodd"  fill="url(#linear_border_28_375_0)"  d="M1504 156L1360 156C1355.58 156 1352 159.582 1352 164L1352 292C1352 296.418 1355.58 300 1360 300L1504 300C1508.42 300 1512 296.418 1512 292L1512 164C1512 159.582 1508.42 156 1504 156ZM1353 164C1353 160.134 1356.13 157 1360 157L1504 157C1507.87 157 1511 160.134 1511 164L1511 292C1511 295.866 1507.87 299 1504 299L1360 299C1356.13 299 1353 295.866 1353 292L1353 164Z"></path></g><g ><text transform="translate(1384, 254)"><tspan x="0" y="25.44" font-size="24" line-height="0"  fill="#EDF5FF"  font-family=".PingFang SC Regular; 10.11d9e1; 2015-05-20" letter-spacing="0" >左手油门</tspan></text></g><path fill-rule="evenodd"  fill="rgba(255, 255, 255, 1.00)"  d="M1381.04 235L1403.97 235Q1404.54 235 1405.07 234.788Q1405.58 234.583 1405.99 234.203Q1406.39 233.823 1406.63 233.32Q1406.88 232.801 1406.92 232.226L1408 217.537Q1408.03 216.907 1407.83 216.318Q1407.62 215.745 1407.22 215.298Q1406.8 214.846 1406.25 214.595Q1405.68 214.333 1405.04 214.333L1379.96 214.333Q1379.32 214.333 1378.75 214.595Q1378.2 214.846 1377.79 215.298Q1377.38 215.745 1377.18 216.318Q1376.97 216.907 1377.01 217.548L1378.08 232.222Q1378.12 232.795 1378.37 233.311Q1378.61 233.81 1379.01 234.191Q1379.42 234.573 1379.93 234.782Q1380.46 235 1381.04 235ZM1381.04 234L1403.97 234C1404.99 234 1405.85 233.212 1405.92 232.153L1407 217.475C1407.07 216.318 1406.19 215.333 1405.04 215.333L1379.96 215.333C1378.82 215.333 1377.93 216.318 1378.01 217.475L1379.08 232.153C1379.15 233.187 1380.01 234 1381.04 234Z"></path><g opacity="0.48"><path     fill="#EDF5FF"  d="M1403.97 234L1381.04 234C1380.01 234 1379.15 233.187 1379.08 232.153L1378.01 217.475C1377.93 216.318 1378.82 215.333 1379.96 215.333L1405.04 215.333C1406.19 215.333 1407.07 216.318 1407 217.475L1405.92 232.153C1405.85 233.212 1404.99 234 1403.97 234Z"></path><path fill-rule="evenodd"  fill="rgba(237, 245, 255, 1)"  d="M1381.04 235L1403.97 235Q1404.54 235 1405.07 234.788Q1405.58 234.583 1405.99 234.203Q1406.39 233.823 1406.63 233.32Q1406.88 232.801 1406.92 232.226L1408 217.537Q1408.03 216.907 1407.83 216.318Q1407.62 215.745 1407.22 215.298Q1406.8 214.846 1406.25 214.595Q1405.68 214.333 1405.04 214.333L1379.96 214.333Q1379.32 214.333 1378.75 214.595Q1378.2 214.846 1377.79 215.298Q1377.38 215.745 1377.18 216.318Q1376.97 216.907 1377.01 217.548L1378.08 232.222Q1378.12 232.795 1378.37 233.311Q1378.61 233.81 1379.01 234.191Q1379.42 234.573 1379.93 234.782Q1380.46 235 1381.04 235ZM1381.04 234L1403.97 234C1404.99 234 1405.85 233.212 1405.92 232.153L1407 217.475C1407.07 216.318 1406.19 215.333 1405.04 215.333L1379.96 215.333C1378.82 215.333 1377.93 216.318 1378.01 217.475L1379.08 232.153C1379.15 233.187 1380.01 234 1381.04 234Z"></path></g><g opacity="0.64"><path d="M1381.26 232.887C1380.75 232.887 1380.33 232.478 1380.28 231.973L1379.23 217.637C1379.2 217.372 1379.3 217.107 1379.48 216.915C1379.67 216.698 1379.93 216.578 1380.21 216.578L1404.79 216.578C1405.07 216.578 1405.33 216.698 1405.52 216.915C1405.71 217.107 1405.8 217.372 1405.78 217.661L1404.72 231.997C1404.68 232.503 1404.26 232.911 1403.74 232.911L1381.26 232.911L1381.26 232.887Z"   fill="#001024" ></path></g><path d="M1382.18 220.357L1382.18 222.007C1382.18 222.376 1382.47 222.672 1382.83 222.672C1383.02 222.672 1383.21 222.573 1383.33 222.426C1383.71 221.662 1384.16 220.948 1384.93 220.406C1385.33 220.086 1384.97 219.273 1384.4 219.273L1383.18 219.273C1382.63 219.298 1382.18 219.766 1382.18 220.357Z"   fill="#EDF5FF" ></path><path d="M1399.7 223.288C1398.1 224.814 1396.4 227.154 1394.92 229.346C1394.54 229.912 1394.76 230.725 1395.38 230.996C1395.88 231.217 1396.43 231.045 1396.76 230.626L1396.88 230.478C1397.43 229.764 1398.38 229.493 1399.2 229.887C1399.24 229.912 1399.29 229.937 1399.34 229.961C1399.58 230.109 1399.86 230.183 1400.15 230.158C1400.6 230.109 1401.01 229.789 1401.18 229.346L1402.73 225.43C1403.13 224.396 1402.63 223.238 1401.61 222.869C1400.94 222.647 1400.2 222.795 1399.7 223.288Z"   fill="#EDF5FF" ></path><path d="M1384.69 226.686C1384.54 226.858 1384.33 226.957 1384.11 226.957L1383.16 226.957C1383.04 226.957 1382.94 226.932 1382.85 226.858C1382.61 226.686 1382.56 226.316 1382.75 226.095C1384.42 223.657 1386.12 221.44 1387.98 219.569C1388.12 219.396 1388.34 219.298 1388.55 219.298L1389.51 219.298C1389.63 219.298 1389.72 219.322 1389.82 219.396C1390.06 219.569 1390.1 219.938 1389.91 220.16C1387.93 222.278 1386.31 224.469 1384.69 226.686Z"   fill="#EDF5FF" ></path><path d="M1387 229.789C1386.86 229.961 1386.64 230.06 1386.43 230.06L1385.47 230.06C1385.36 230.06 1385.26 230.035 1385.16 229.961C1384.93 229.789 1384.88 229.419 1385.07 229.198C1386.74 226.76 1390.84 221.44 1392.71 219.569C1392.85 219.396 1393.06 219.298 1393.28 219.298L1394.23 219.298C1394.35 219.298 1394.45 219.322 1394.54 219.396C1394.78 219.569 1394.83 219.938 1394.64 220.16C1392.68 222.278 1388.65 227.572 1387 229.789Z"   fill="#EDF5FF" ></path><path d="M1391.25 230.577C1391.11 230.749 1390.89 230.872 1390.68 230.872L1389.72 230.897C1389.6 230.897 1389.51 230.872 1389.41 230.798C1389.17 230.626 1389.1 230.281 1389.29 230.035C1390.89 227.548 1395.85 221.539 1397.64 219.618C1397.79 219.446 1398 219.322 1398.22 219.322L1399.17 219.298C1399.29 219.298 1399.39 219.322 1399.48 219.396C1399.72 219.569 1399.79 219.914 1399.6 220.16C1397.71 222.327 1392.82 228.286 1391.25 230.577Z"   fill="#EDF5FF" ></path><ellipse cx="1402.1062927246094" cy="220.06126403808594" rx="0.739715576171875" ry="0.7634124755859375"   fill="#EDF5FF" ></ellipse><path fill-rule="evenodd"  fill="rgba(255, 255, 255, 1.00)"  d="M1385.46 211.044L1399.85 211.044Q1400.46 211.044 1401.02 210.798Q1401.55 210.563 1401.96 210.138Q1402.36 209.717 1402.58 209.174Q1402.81 208.613 1402.81 208.003L1402.81 180.041Q1402.81 179.431 1402.58 178.871Q1402.36 178.328 1401.96 177.907Q1401.55 177.482 1401.02 177.246Q1400.46 177 1399.85 177L1385.46 177Q1384.85 177 1384.29 177.246Q1383.76 177.482 1383.35 177.907Q1382.95 178.328 1382.73 178.871Q1382.5 179.431 1382.5 180.041L1382.5 208.003Q1382.5 208.613 1382.73 209.174Q1382.95 209.717 1383.35 210.138Q1383.76 210.563 1384.29 210.798Q1384.85 211.044 1385.46 211.044ZM1385.46 210.044L1399.85 210.044C1400.93 210.044 1401.81 209.126 1401.81 208.003L1401.81 180.041C1401.81 178.918 1400.93 178 1399.85 178L1385.46 178C1384.38 178 1383.5 178.918 1383.5 180.041L1383.5 208.003C1383.5 209.126 1384.38 210.044 1385.46 210.044Z"></path><g opacity="0.48"><path     fill="#EDF5FF"  d="M1399.85 210.044L1385.46 210.044C1384.38 210.044 1383.5 209.126 1383.5 208.003L1383.5 180.041C1383.5 178.918 1384.38 178 1385.46 178L1399.85 178C1400.93 178 1401.81 178.918 1401.81 180.041L1401.81 208.003C1401.81 209.126 1400.93 210.044 1399.85 210.044Z"></path><path fill-rule="evenodd"  fill="rgba(237, 245, 255, 1)"  d="M1385.46 211.044L1399.85 211.044Q1400.46 211.044 1401.02 210.798Q1401.55 210.563 1401.96 210.138Q1402.36 209.717 1402.58 209.174Q1402.81 208.613 1402.81 208.003L1402.81 180.041Q1402.81 179.431 1402.58 178.871Q1402.36 178.328 1401.96 177.907Q1401.55 177.482 1401.02 177.246Q1400.46 177 1399.85 177L1385.46 177Q1384.85 177 1384.29 177.246Q1383.76 177.482 1383.35 177.907Q1382.95 178.328 1382.73 178.871Q1382.5 179.431 1382.5 180.041L1382.5 208.003Q1382.5 208.613 1382.73 209.174Q1382.95 209.717 1383.35 210.138Q1383.76 210.563 1384.29 210.798Q1384.85 211.044 1385.46 211.044ZM1385.46 210.044L1399.85 210.044C1400.93 210.044 1401.81 209.126 1401.81 208.003L1401.81 180.041C1401.81 178.918 1400.93 178 1399.85 178L1385.46 178C1384.38 178 1383.5 178.918 1383.5 180.041L1383.5 208.003C1383.5 209.126 1384.38 210.044 1385.46 210.044Z"></path></g><g opacity="0.64"><path d="M1385.67 208.8C1385.15 208.8 1384.72 208.348 1384.72 207.795L1384.72 180.25C1384.72 179.697 1385.15 179.245 1385.67 179.245L1399.64 179.245C1400.16 179.245 1400.59 179.697 1400.59 180.25L1400.59 207.795C1400.59 208.348 1400.16 208.8 1399.64 208.8L1385.67 208.8Z"   fill="#001024" ></path></g><ellipse cx="1387.3698425292969" cy="183.05165100097656" rx="0.760101318359375" ry="0.7909088134765625"   fill="#EDF5FF" ></ellipse><path d="M1398.09 184.94L1398.09 186.572C1398.09 186.828 1397.99 187.057 1397.84 187.261C1395.09 190.17 1391.42 194.303 1387.86 198.895C1387.74 199.023 1387.59 199.099 1387.42 199.099C1387.08 199.099 1386.81 198.819 1386.81 198.462L1386.81 196.395C1386.81 196.14 1386.9 195.885 1387.05 195.706C1389.65 192.211 1393.33 188.205 1396.86 184.429C1396.98 184.276 1397.18 184.2 1397.37 184.2C1397.77 184.2 1398.09 184.531 1398.09 184.94Z"   fill="#EDF5FF" ></path><path d="M1392.27 182.261L1393.35 182.261C1393.72 182.261 1394.04 182.567 1394.04 182.975C1394.04 183.154 1393.97 183.307 1393.87 183.46C1391.78 185.552 1389.75 187.874 1387.76 190.425C1387.64 190.578 1387.47 190.655 1387.27 190.655C1386.9 190.655 1386.61 190.348 1386.61 189.966L1386.61 188.486C1386.61 188.231 1386.71 187.976 1386.88 187.797C1388.28 186.062 1389.85 184.327 1391.56 182.592C1391.76 182.388 1392 182.261 1392.27 182.261Z"   fill="#EDF5FF" ></path><path d="M1397.67 191.777C1398.09 191.777 1398.4 192.135 1398.4 192.543L1398.4 193.92C1398.4 194.099 1398.35 194.278 1398.23 194.405C1395.41 197.747 1392.81 201.039 1390.48 204.228C1390.31 204.457 1390.04 204.585 1389.75 204.585C1389.23 204.585 1388.79 204.151 1388.79 203.59L1388.79 202.34C1388.79 202.161 1388.87 201.983 1388.96 201.829C1391.66 198.232 1394.36 194.915 1397.08 192.032C1397.25 191.879 1397.45 191.777 1397.67 191.777Z"   fill="#EDF5FF" ></path><path d="M1398.67 200.222L1398.67 204.84C1398.67 205.35 1398.28 205.759 1397.79 205.759C1397.52 205.759 1397.23 205.682 1397.13 205.427C1396.86 204.789 1396.1 204.33 1395.12 204.508C1394.6 204.611 1394.38 204.049 1394.38 203.59C1394.38 203.386 1394.46 203.182 1394.55 203.029L1397.06 199.635C1397.23 199.406 1397.5 199.278 1397.77 199.278C1398.28 199.278 1398.67 199.712 1398.67 200.222Z"   fill="#EDF5FF" ></path><path d="M1459 178C1466.48 178 1473.52 180.907 1478.8 186.202C1484.09 191.485 1487 198.521 1487 206C1487 213.479 1484.08 220.515 1478.8 225.798C1473.52 231.093 1466.48 234 1459 234C1451.52 234 1444.48 231.08 1439.2 225.798C1433.91 220.515 1431 213.479 1431 206C1431 198.521 1433.91 191.485 1439.2 186.202C1444.48 180.907 1451.52 178 1459 178ZM1463.17 227.893C1463.37 228.21 1463.57 228.45 1463.8 228.666C1473.53 226.609 1481.01 218.457 1482.03 208.425L1481.12 207.206C1481.04 207.104 1480.93 207.041 1480.8 207.041L1473.79 207.041L1473.79 200.4L1475.48 200.4C1475.66 200.4 1475.84 200.451 1475.99 200.54L1477.83 201.62C1478.01 201.721 1478.2 201.81 1478.4 201.873C1479.38 202.153 1480.41 201.835 1481.04 201.098L1481.53 200.54C1479.06 190.381 1469.9 182.825 1459 182.825C1448.08 182.825 1438.91 190.406 1436.46 200.59L1436.9 201.098C1437.39 201.644 1438.07 201.962 1438.81 201.962C1439.27 201.962 1439.71 201.834 1440.1 201.606L1441.96 200.514C1442.11 200.425 1442.29 200.375 1442.47 200.375L1444.19 200.375L1444.19 207.016L1437.17 207.016C1437.04 207.016 1436.93 207.079 1436.85 207.181L1435.95 208.4C1436.99 218.495 1444.54 226.673 1454.3 228.705C1454.53 228.476 1454.76 228.209 1454.97 227.879C1455.2 227.523 1455.33 227.13 1455.37 226.711C1455.47 225.492 1455.7 223.271 1455.79 222.382C1455.81 222.166 1455.99 222 1456.21 222L1461.92 222C1462.14 222 1462.31 222.166 1462.34 222.382L1462.76 226.698C1462.8 227.117 1462.92 227.537 1463.17 227.893ZM1443.47 192.527L1444.49 193.531C1444.59 193.62 1444.63 193.771 1444.6 193.898L1443.44 199.359L1442.47 199.359C1442.3 199.359 1442.14 199.396 1442 199.485C1440.94 200.095 1439.91 200.769 1439.57 200.832C1439.94 197.569 1440.85 194.445 1442.89 192.515C1443.05 192.362 1443.3 192.362 1443.47 192.527ZM1475.5 199.372L1474.52 199.372L1473.36 193.924C1473.34 193.785 1473.37 193.645 1473.48 193.543L1474.49 192.54C1474.66 192.375 1474.91 192.375 1475.08 192.527C1477.11 194.457 1478.02 197.581 1478.39 200.845C1478.05 200.769 1477.01 200.107 1475.96 199.498C1475.83 199.422 1475.66 199.372 1475.5 199.372ZM1473.3 207.028L1470.62 207.028C1469.96 207.028 1469.31 207.232 1468.79 207.626C1466.28 209.505 1464.57 213.301 1463.61 219.232C1463.58 219.422 1463.51 219.6 1463.39 219.753L1462.78 220.591C1462.62 220.807 1462.38 220.933 1462.11 220.933L1455.88 220.933C1455.61 220.933 1455.36 220.807 1455.2 220.591L1454.59 219.753C1454.48 219.6 1454.4 219.422 1454.38 219.232C1453.41 213.301 1451.72 209.505 1449.2 207.626C1448.69 207.245 1448.04 207.028 1447.38 207.028L1444.71 207.028L1444.71 200.388L1445.59 200.388C1445.72 200.388 1445.83 200.362 1445.93 200.311L1451.98 197.555C1452.3 197.415 1452.64 197.34 1452.99 197.34L1464.98 197.34C1465.34 197.34 1465.68 197.415 1466 197.555L1472.04 200.311C1472.16 200.362 1472.27 200.388 1472.38 200.388L1473.3 200.388L1473.3 207.028ZM1446.91 203.295C1446.91 204.958 1448.27 206.305 1449.92 206.305C1451.57 206.305 1452.93 204.958 1452.93 203.295C1452.93 201.632 1451.58 200.286 1449.92 200.286C1448.26 200.286 1446.91 201.632 1446.91 203.295ZM1469.31 201.364C1469.31 200.78 1468.83 200.299 1468.24 200.299C1467.66 200.299 1467.18 200.78 1467.18 201.364C1467.18 201.949 1467.66 202.432 1468.24 202.432C1468.83 202.432 1469.31 201.949 1469.31 201.364ZM1449.3 201.111L1450.54 201.111L1450.54 202.685L1452.12 202.685L1452.12 203.93L1450.54 203.93L1450.54 205.505L1449.3 205.505L1449.3 203.93L1447.72 203.93L1447.72 202.685L1449.3 202.685L1449.3 201.111ZM1449.92 201.226L1449.46 201.836L1450.38 201.836L1449.92 201.226ZM1454.68 206C1454.68 208.387 1456.61 210.317 1459 210.317C1461.39 210.317 1463.32 208.387 1463.32 206C1463.32 203.613 1461.39 201.683 1459 201.683C1456.61 201.683 1454.68 203.613 1454.68 206ZM1465.25 203.307C1465.25 203.891 1465.73 204.374 1466.31 204.374C1466.91 204.374 1467.38 203.891 1467.38 203.307C1467.38 202.723 1466.9 202.242 1466.31 202.242C1465.73 202.242 1465.25 202.723 1465.25 203.307ZM1471.24 203.307C1471.24 202.723 1470.76 202.242 1470.18 202.242C1469.58 202.242 1469.11 202.71 1469.11 203.307C1469.11 203.891 1469.59 204.374 1470.18 204.374C1470.76 204.374 1471.24 203.891 1471.24 203.307ZM1447.85 203.307L1448.46 203.765L1448.46 202.852L1447.85 203.307ZM1451.99 203.307L1451.38 202.852L1451.38 203.765L1451.99 203.307ZM1459 208.921C1460.61 208.921 1461.92 207.613 1461.92 206C1461.92 204.387 1460.61 203.079 1459 203.079C1457.39 203.079 1456.08 204.387 1456.08 206C1456.08 207.613 1457.39 208.921 1459 208.921ZM1468.24 204.171C1467.66 204.171 1467.18 204.654 1467.18 205.238C1467.18 205.835 1467.66 206.305 1468.24 206.305C1468.83 206.305 1469.31 205.822 1469.31 205.238C1469.31 204.654 1468.83 204.171 1468.24 204.171ZM1449.46 204.768L1449.92 205.378L1450.38 204.768L1449.46 204.768ZM1439.38 208.044L1447.38 208.044C1448 208.044 1448.61 208.222 1449.12 208.565L1449.22 208.641L1445.12 211.359C1444.99 211.448 1444.92 211.6 1444.94 211.752L1445.09 212.883C1445.12 213.023 1445.06 213.162 1444.94 213.238L1441.98 215.321C1441.81 215.448 1441.55 215.41 1441.41 215.232C1440.3 213.772 1439.62 211.384 1439.38 208.044ZM1468.79 208.654L1468.89 208.578C1469.4 208.222 1470.01 208.044 1470.63 208.056L1478.63 208.056C1478.39 211.383 1477.72 213.784 1476.6 215.245C1476.47 215.422 1476.21 215.46 1476.03 215.333L1473.07 213.25C1472.96 213.174 1472.9 213.036 1472.92 212.896L1473.07 211.765C1473.1 211.613 1473.02 211.46 1472.89 211.371L1468.79 208.654ZM1458.09 214.825C1458.25 214.825 1458.38 214.698 1458.38 214.546L1458.38 212.972C1458.38 212.82 1458.24 212.692 1458.09 212.692L1455.05 212.692C1454.96 212.692 1454.87 212.729 1454.82 212.806C1454.76 212.869 1454.75 212.959 1454.77 213.048L1455.23 214.622C1455.27 214.737 1455.38 214.825 1455.51 214.825L1458.09 214.825ZM1462.76 214.622L1463.22 213.048C1463.24 212.959 1463.23 212.869 1463.17 212.806C1463.11 212.729 1463.03 212.692 1462.94 212.692L1459.9 212.692C1459.74 212.692 1459.61 212.82 1459.61 212.972L1459.61 214.546C1459.61 214.698 1459.75 214.825 1459.9 214.825L1462.48 214.825C1462.61 214.825 1462.72 214.749 1462.76 214.622ZM1456.45 218.686C1456.45 219.155 1456.83 219.536 1457.3 219.536C1457.77 219.536 1458.15 219.155 1458.15 218.686C1458.15 218.216 1457.77 217.835 1457.3 217.835C1456.83 217.835 1456.45 218.216 1456.45 218.686ZM1459.85 218.686C1459.85 219.155 1460.23 219.536 1460.7 219.536C1461.17 219.536 1461.55 219.155 1461.55 218.686C1461.55 218.216 1461.17 217.835 1460.7 217.835C1460.23 217.835 1459.85 218.216 1459.85 218.686Z" fill-rule="evenodd"  fill="#EDF5FF" ></path><g filter="url(#filter_28_459)"><rect  x="1168" y="156" width="160" height="144" rx="8"    fill="#1B2D4D" fill-opacity="0.4"></rect><rect  x="1168" y="156" width="160" height="144" rx="8"    fill="url(#linear_fill_28_459_1)" ></rect><path fill-rule="evenodd"  fill="url(#linear_border_28_459_0)"  d="M1320 156L1176 156C1171.58 156 1168 159.582 1168 164L1168 292C1168 296.418 1171.58 300 1176 300L1320 300C1324.42 300 1328 296.418 1328 292L1328 164C1328 159.582 1324.42 156 1320 156ZM1169 164C1169 160.134 1172.13 157 1176 157L1320 157C1323.87 157 1327 160.134 1327 164L1327 292C1327 295.866 1323.87 299 1320 299L1176 299C1172.13 299 1169 295.866 1169 292L1169 164Z"></path></g><g ><text transform="translate(1200, 254)"><tspan x="0" y="25.44" font-size="24" line-height="0"  fill="#EDF5FF"  font-family=".PingFang SC Regular; 10.11d9e1; 2015-05-20" letter-spacing="0" >右手油门</tspan></text></g><path d="M1222 178C1229.48 178 1236.52 180.907 1241.8 186.202C1247.09 191.485 1250 198.521 1250 206C1250 213.479 1247.08 220.515 1241.8 225.798C1236.52 231.093 1229.48 234 1222 234C1214.52 234 1207.48 231.08 1202.2 225.798C1196.91 220.515 1194 213.479 1194 206C1194 198.521 1196.91 191.485 1202.2 186.202C1207.48 180.907 1214.52 178 1222 178ZM1226.17 227.893C1226.37 228.21 1226.57 228.45 1226.8 228.666C1236.53 226.609 1244.01 218.457 1245.03 208.425L1244.12 207.206C1244.04 207.104 1243.93 207.041 1243.8 207.041L1236.79 207.041L1236.79 200.4L1238.48 200.4C1238.66 200.4 1238.84 200.451 1238.99 200.54L1240.83 201.62C1241.01 201.721 1241.2 201.81 1241.4 201.873C1242.38 202.153 1243.41 201.835 1244.04 201.098L1244.53 200.54C1242.06 190.381 1232.9 182.825 1222 182.825C1211.08 182.825 1201.91 190.406 1199.46 200.59L1199.9 201.098C1200.39 201.644 1201.07 201.962 1201.81 201.962C1202.27 201.962 1202.71 201.834 1203.1 201.606L1204.96 200.514C1205.11 200.425 1205.29 200.375 1205.47 200.375L1207.19 200.375L1207.19 207.016L1200.17 207.016C1200.04 207.016 1199.93 207.079 1199.85 207.181L1198.95 208.4C1199.99 218.495 1207.54 226.673 1217.3 228.705C1217.53 228.476 1217.76 228.209 1217.97 227.879C1218.2 227.523 1218.33 227.13 1218.37 226.711C1218.47 225.492 1218.7 223.271 1218.79 222.382C1218.81 222.166 1218.99 222 1219.21 222L1224.92 222C1225.14 222 1225.31 222.166 1225.34 222.382L1225.76 226.698C1225.8 227.117 1225.92 227.537 1226.17 227.893ZM1206.47 192.527L1207.49 193.531C1207.59 193.62 1207.63 193.771 1207.6 193.898L1206.44 199.359L1205.47 199.359C1205.3 199.359 1205.14 199.396 1205 199.485C1203.94 200.095 1202.91 200.769 1202.57 200.832C1202.94 197.569 1203.85 194.445 1205.89 192.515C1206.05 192.362 1206.3 192.362 1206.47 192.527ZM1238.5 199.372L1237.52 199.372L1236.36 193.924C1236.34 193.785 1236.37 193.645 1236.48 193.543L1237.49 192.54C1237.66 192.375 1237.91 192.375 1238.08 192.527C1240.11 194.457 1241.02 197.581 1241.39 200.845C1241.05 200.769 1240.01 200.107 1238.96 199.498C1238.83 199.422 1238.66 199.372 1238.5 199.372ZM1236.3 207.028L1233.62 207.028C1232.96 207.028 1232.31 207.232 1231.79 207.626C1229.28 209.505 1227.57 213.301 1226.61 219.232C1226.58 219.422 1226.51 219.6 1226.39 219.753L1225.78 220.591C1225.62 220.807 1225.38 220.933 1225.11 220.933L1218.88 220.933C1218.61 220.933 1218.36 220.807 1218.2 220.591L1217.59 219.753C1217.48 219.6 1217.4 219.422 1217.38 219.232C1216.41 213.301 1214.72 209.505 1212.2 207.626C1211.69 207.245 1211.04 207.028 1210.38 207.028L1207.71 207.028L1207.71 200.388L1208.59 200.388C1208.72 200.388 1208.83 200.362 1208.93 200.311L1214.98 197.555C1215.3 197.415 1215.64 197.34 1215.99 197.34L1227.98 197.34C1228.34 197.34 1228.68 197.415 1229 197.555L1235.04 200.311C1235.16 200.362 1235.27 200.388 1235.38 200.388L1236.3 200.388L1236.3 207.028ZM1209.91 203.295C1209.91 204.958 1211.27 206.305 1212.92 206.305C1214.57 206.305 1215.93 204.958 1215.93 203.295C1215.93 201.632 1214.58 200.286 1212.92 200.286C1211.26 200.286 1209.91 201.632 1209.91 203.295ZM1232.31 201.364C1232.31 200.78 1231.83 200.299 1231.24 200.299C1230.66 200.299 1230.18 200.78 1230.18 201.364C1230.18 201.949 1230.66 202.432 1231.24 202.432C1231.83 202.432 1232.31 201.949 1232.31 201.364ZM1212.3 201.111L1213.54 201.111L1213.54 202.685L1215.12 202.685L1215.12 203.93L1213.54 203.93L1213.54 205.505L1212.3 205.505L1212.3 203.93L1210.72 203.93L1210.72 202.685L1212.3 202.685L1212.3 201.111ZM1212.92 201.226L1212.46 201.836L1213.38 201.836L1212.92 201.226ZM1217.68 206C1217.68 208.387 1219.61 210.317 1222 210.317C1224.39 210.317 1226.32 208.387 1226.32 206C1226.32 203.613 1224.39 201.683 1222 201.683C1219.61 201.683 1217.68 203.613 1217.68 206ZM1228.25 203.307C1228.25 203.891 1228.73 204.374 1229.31 204.374C1229.91 204.374 1230.38 203.891 1230.38 203.307C1230.38 202.723 1229.9 202.242 1229.31 202.242C1228.73 202.242 1228.25 202.723 1228.25 203.307ZM1234.24 203.307C1234.24 202.723 1233.76 202.242 1233.18 202.242C1232.58 202.242 1232.11 202.71 1232.11 203.307C1232.11 203.891 1232.59 204.374 1233.18 204.374C1233.76 204.374 1234.24 203.891 1234.24 203.307ZM1210.85 203.307L1211.46 203.765L1211.46 202.852L1210.85 203.307ZM1214.99 203.307L1214.38 202.852L1214.38 203.765L1214.99 203.307ZM1222 208.921C1223.61 208.921 1224.92 207.613 1224.92 206C1224.92 204.387 1223.61 203.079 1222 203.079C1220.39 203.079 1219.08 204.387 1219.08 206C1219.08 207.613 1220.39 208.921 1222 208.921ZM1231.24 204.171C1230.66 204.171 1230.18 204.654 1230.18 205.238C1230.18 205.835 1230.66 206.305 1231.24 206.305C1231.83 206.305 1232.31 205.822 1232.31 205.238C1232.31 204.654 1231.83 204.171 1231.24 204.171ZM1212.46 204.768L1212.92 205.378L1213.38 204.768L1212.46 204.768ZM1202.38 208.044L1210.38 208.044C1211 208.044 1211.61 208.222 1212.12 208.565L1212.22 208.641L1208.12 211.359C1207.99 211.448 1207.92 211.6 1207.94 211.752L1208.09 212.883C1208.12 213.023 1208.06 213.162 1207.94 213.238L1204.98 215.321C1204.81 215.448 1204.55 215.41 1204.41 215.232C1203.3 213.772 1202.62 211.384 1202.38 208.044ZM1231.79 208.654L1231.89 208.578C1232.4 208.222 1233.01 208.044 1233.63 208.056L1241.63 208.056C1241.39 211.383 1240.72 213.784 1239.6 215.245C1239.47 215.422 1239.21 215.46 1239.03 215.333L1236.07 213.25C1235.96 213.174 1235.9 213.036 1235.92 212.896L1236.07 211.765C1236.1 211.613 1236.02 211.46 1235.89 211.371L1231.79 208.654ZM1221.09 214.825C1221.25 214.825 1221.38 214.698 1221.38 214.546L1221.38 212.972C1221.38 212.82 1221.24 212.692 1221.09 212.692L1218.05 212.692C1217.96 212.692 1217.87 212.729 1217.82 212.806C1217.76 212.869 1217.75 212.959 1217.77 213.048L1218.23 214.622C1218.27 214.737 1218.38 214.825 1218.51 214.825L1221.09 214.825ZM1225.76 214.622L1226.22 213.048C1226.24 212.959 1226.23 212.869 1226.17 212.806C1226.11 212.729 1226.03 212.692 1225.94 212.692L1222.9 212.692C1222.74 212.692 1222.61 212.82 1222.61 212.972L1222.61 214.546C1222.61 214.698 1222.75 214.825 1222.9 214.825L1225.48 214.825C1225.61 214.825 1225.72 214.749 1225.76 214.622ZM1219.45 218.686C1219.45 219.155 1219.83 219.536 1220.3 219.536C1220.77 219.536 1221.15 219.155 1221.15 218.686C1221.15 218.216 1220.77 217.835 1220.3 217.835C1219.83 217.835 1219.45 218.216 1219.45 218.686ZM1222.85 218.686C1222.85 219.155 1223.23 219.536 1223.7 219.536C1224.17 219.536 1224.55 219.155 1224.55 218.686C1224.55 218.216 1224.17 217.835 1223.7 217.835C1223.23 217.835 1222.85 218.216 1222.85 218.686Z" fill-rule="evenodd"  fill="#EDF5FF" ></path><path fill-rule="evenodd"  fill="rgba(255, 255, 255, 1.00)"  d="M1277.03 235L1299.97 235Q1300.54 235 1301.07 234.789Q1301.58 234.583 1301.99 234.204Q1302.39 233.823 1302.63 233.32Q1302.88 232.802 1302.92 232.226L1303.99 217.538Q1304.03 216.907 1303.82 216.318Q1303.62 215.746 1303.21 215.299Q1302.8 214.846 1302.25 214.595Q1301.68 214.333 1301.04 214.333L1275.96 214.333Q1275.32 214.333 1274.75 214.595Q1274.2 214.846 1273.79 215.299Q1273.38 215.746 1273.18 216.318Q1272.97 216.907 1273.01 217.549L1274.08 232.222Q1274.12 232.795 1274.37 233.312Q1274.61 233.811 1275.01 234.191Q1275.42 234.574 1275.93 234.783Q1276.46 235 1277.03 235ZM1277.03 234L1299.97 234C1300.99 234 1301.85 233.212 1301.92 232.153L1303 217.476C1303.07 216.319 1302.19 215.333 1301.04 215.333L1275.96 215.333C1274.82 215.333 1273.93 216.319 1274 217.476L1275.08 232.153C1275.15 233.188 1276.01 234 1277.03 234Z"></path><g opacity="0.48"><path     fill="#EDF5FF"  d="M1299.97 234L1277.03 234C1276.01 234 1275.15 233.188 1275.08 232.153L1274 217.476C1273.93 216.319 1274.82 215.333 1275.96 215.333L1301.04 215.333C1302.19 215.333 1303.07 216.319 1303 217.476L1301.92 232.153C1301.85 233.212 1300.99 234 1299.97 234Z"></path><path fill-rule="evenodd"  fill="rgba(237, 245, 255, 1)"  d="M1277.03 235L1299.97 235Q1300.54 235 1301.07 234.789Q1301.58 234.583 1301.99 234.204Q1302.39 233.823 1302.63 233.32Q1302.88 232.802 1302.92 232.226L1303.99 217.538Q1304.03 216.907 1303.82 216.318Q1303.62 215.746 1303.21 215.299Q1302.8 214.846 1302.25 214.595Q1301.68 214.333 1301.04 214.333L1275.96 214.333Q1275.32 214.333 1274.75 214.595Q1274.2 214.846 1273.79 215.299Q1273.38 215.746 1273.18 216.318Q1272.97 216.907 1273.01 217.549L1274.08 232.222Q1274.12 232.795 1274.37 233.312Q1274.61 233.811 1275.01 234.191Q1275.42 234.574 1275.93 234.783Q1276.46 235 1277.03 235ZM1277.03 234L1299.97 234C1300.99 234 1301.85 233.212 1301.92 232.153L1303 217.476C1303.07 216.319 1302.19 215.333 1301.04 215.333L1275.96 215.333C1274.82 215.333 1273.93 216.319 1274 217.476L1275.08 232.153C1275.15 233.188 1276.01 234 1277.03 234Z"></path></g><g opacity="0.64"><path d="M1277.26 232.887C1276.75 232.887 1276.32 232.478 1276.28 231.973L1275.22 217.637C1275.2 217.372 1275.29 217.107 1275.48 216.915C1275.67 216.698 1275.93 216.578 1276.21 216.578L1300.79 216.578C1301.07 216.578 1301.33 216.698 1301.52 216.915C1301.71 217.107 1301.8 217.372 1301.78 217.661L1300.72 231.997C1300.68 232.503 1300.26 232.911 1299.74 232.911L1277.26 232.911L1277.26 232.887Z"   fill="#001024" ></path></g><path d="M1278.18 220.357L1278.18 222.007C1278.18 222.376 1278.47 222.672 1278.82 222.672C1279.02 222.672 1279.21 222.573 1279.33 222.426C1279.71 221.662 1280.16 220.948 1280.92 220.406C1281.33 220.086 1280.97 219.273 1280.4 219.273L1279.18 219.273C1278.63 219.298 1278.18 219.766 1278.18 220.357Z"   fill="#EDF5FF" ></path><path d="M1295.7 223.288C1294.1 224.814 1292.4 227.154 1290.92 229.346C1290.54 229.912 1290.76 230.725 1291.38 230.996C1291.88 231.217 1292.43 231.045 1292.76 230.626L1292.88 230.478C1293.43 229.764 1294.38 229.493 1295.19 229.887C1295.24 229.912 1295.29 229.937 1295.34 229.961C1295.58 230.109 1295.86 230.183 1296.15 230.158C1296.6 230.109 1297.01 229.789 1297.17 229.346L1298.73 225.43C1299.13 224.396 1298.63 223.238 1297.6 222.869C1296.94 222.647 1296.2 222.795 1295.7 223.288Z"   fill="#EDF5FF" ></path><path d="M1280.69 226.686C1280.54 226.859 1280.33 226.957 1280.11 226.957L1279.16 226.957C1279.04 226.957 1278.94 226.932 1278.85 226.859C1278.61 226.686 1278.56 226.317 1278.75 226.095C1280.42 223.657 1282.12 221.441 1283.98 219.569C1284.12 219.397 1284.34 219.298 1284.55 219.298L1285.51 219.298C1285.63 219.298 1285.72 219.323 1285.82 219.397C1286.05 219.569 1286.1 219.939 1285.91 220.16C1283.93 222.278 1282.31 224.47 1280.69 226.686Z"   fill="#EDF5FF" ></path><path d="M1283 229.789C1282.86 229.962 1282.64 230.06 1282.43 230.06L1281.47 230.06C1281.35 230.06 1281.26 230.035 1281.16 229.962C1280.93 229.789 1280.88 229.42 1281.07 229.198C1282.74 226.76 1286.84 221.441 1288.7 219.569C1288.85 219.397 1289.06 219.298 1289.28 219.298L1290.23 219.298C1290.35 219.298 1290.45 219.323 1290.54 219.397C1290.78 219.569 1290.83 219.939 1290.64 220.16C1288.68 222.278 1284.65 227.573 1283 229.789Z"   fill="#EDF5FF" ></path><path d="M1287.25 230.577C1287.1 230.75 1286.89 230.873 1286.67 230.873L1285.72 230.897C1285.6 230.897 1285.51 230.873 1285.41 230.799C1285.17 230.626 1285.1 230.282 1285.29 230.035C1286.89 227.548 1291.85 221.539 1293.64 219.618C1293.79 219.446 1294 219.323 1294.22 219.323L1295.17 219.298C1295.29 219.298 1295.38 219.323 1295.48 219.397C1295.72 219.569 1295.79 219.914 1295.6 220.16C1293.71 222.327 1288.82 228.287 1287.25 230.577Z"   fill="#EDF5FF" ></path><ellipse cx="1298.1054382324219" cy="220.06175231933594" rx="0.739715576171875" ry="0.7634124755859375"   fill="#EDF5FF" ></ellipse><path fill-rule="evenodd"  fill="rgba(255, 255, 255, 1.00)"  d="M1281.46 211.044L1295.85 211.044Q1296.46 211.044 1297.02 210.798Q1297.55 210.563 1297.96 210.138Q1298.36 209.717 1298.58 209.174Q1298.81 208.613 1298.81 208.003L1298.81 180.041Q1298.81 179.431 1298.58 178.871Q1298.36 178.328 1297.96 177.907Q1297.55 177.482 1297.02 177.246Q1296.46 177 1295.85 177L1281.46 177Q1280.85 177 1280.29 177.246Q1279.76 177.482 1279.35 177.907Q1278.95 178.328 1278.72 178.871Q1278.5 179.431 1278.5 180.041L1278.5 208.003Q1278.5 208.613 1278.72 209.174Q1278.95 209.717 1279.35 210.138Q1279.76 210.563 1280.29 210.798Q1280.85 211.044 1281.46 211.044ZM1281.46 210.044L1295.85 210.044C1296.93 210.044 1297.81 209.126 1297.81 208.003L1297.81 180.041C1297.81 178.918 1296.93 178 1295.85 178L1281.46 178C1280.38 178 1279.5 178.918 1279.5 180.041L1279.5 208.003C1279.5 209.126 1280.38 210.044 1281.46 210.044Z"></path><g opacity="0.48"><path     fill="#EDF5FF"  d="M1295.85 210.044L1281.46 210.044C1280.38 210.044 1279.5 209.126 1279.5 208.003L1279.5 180.041C1279.5 178.918 1280.38 178 1281.46 178L1295.85 178C1296.93 178 1297.81 178.918 1297.81 180.041L1297.81 208.003C1297.81 209.126 1296.93 210.044 1295.85 210.044Z"></path><path fill-rule="evenodd"  fill="rgba(237, 245, 255, 1)"  d="M1281.46 211.044L1295.85 211.044Q1296.46 211.044 1297.02 210.798Q1297.55 210.563 1297.96 210.138Q1298.36 209.717 1298.58 209.174Q1298.81 208.613 1298.81 208.003L1298.81 180.041Q1298.81 179.431 1298.58 178.871Q1298.36 178.328 1297.96 177.907Q1297.55 177.482 1297.02 177.246Q1296.46 177 1295.85 177L1281.46 177Q1280.85 177 1280.29 177.246Q1279.76 177.482 1279.35 177.907Q1278.95 178.328 1278.72 178.871Q1278.5 179.431 1278.5 180.041L1278.5 208.003Q1278.5 208.613 1278.72 209.174Q1278.95 209.717 1279.35 210.138Q1279.76 210.563 1280.29 210.798Q1280.85 211.044 1281.46 211.044ZM1281.46 210.044L1295.85 210.044C1296.93 210.044 1297.81 209.126 1297.81 208.003L1297.81 180.041C1297.81 178.918 1296.93 178 1295.85 178L1281.46 178C1280.38 178 1279.5 178.918 1279.5 180.041L1279.5 208.003C1279.5 209.126 1280.38 210.044 1281.46 210.044Z"></path></g><g opacity="0.64"><path d="M1281.67 208.8C1281.15 208.8 1280.72 208.348 1280.72 207.795L1280.72 180.25C1280.72 179.697 1281.15 179.245 1281.67 179.245L1295.64 179.245C1296.16 179.245 1296.59 179.697 1296.59 180.25L1296.59 207.795C1296.59 208.348 1296.16 208.8 1295.64 208.8L1281.67 208.8Z"   fill="#001024" ></path></g><ellipse cx="1283.3689880371094" cy="183.05213928222656" rx="0.760101318359375" ry="0.7909088134765625"   fill="#EDF5FF" ></ellipse><path d="M1294.08 184.94L1294.08 186.572C1294.08 186.828 1293.99 187.057 1293.84 187.261C1291.09 190.17 1287.42 194.303 1283.86 198.895C1283.74 199.023 1283.59 199.099 1283.42 199.099C1283.08 199.099 1282.81 198.819 1282.81 198.462L1282.81 196.395C1282.81 196.14 1282.9 195.885 1283.05 195.706C1285.65 192.211 1289.33 188.205 1292.86 184.429C1292.98 184.276 1293.18 184.2 1293.37 184.2C1293.77 184.2 1294.08 184.531 1294.08 184.94Z"   fill="#EDF5FF" ></path><path d="M1288.27 182.261L1289.35 182.261C1289.72 182.261 1290.04 182.567 1290.04 182.976C1290.04 183.154 1289.96 183.307 1289.87 183.46C1287.78 185.552 1285.75 187.874 1283.76 190.425C1283.64 190.578 1283.47 190.655 1283.27 190.655C1282.9 190.655 1282.61 190.349 1282.61 189.966L1282.61 188.486C1282.61 188.231 1282.71 187.976 1282.88 187.798C1284.28 186.063 1285.85 184.328 1287.56 182.593C1287.76 182.389 1288 182.261 1288.27 182.261Z"   fill="#EDF5FF" ></path><path d="M1293.67 191.777C1294.08 191.777 1294.4 192.135 1294.4 192.543L1294.4 193.92C1294.4 194.099 1294.35 194.278 1294.23 194.405C1291.41 197.747 1288.81 201.039 1286.48 204.228C1286.31 204.457 1286.04 204.585 1285.75 204.585C1285.23 204.585 1284.79 204.151 1284.79 203.59L1284.79 202.34C1284.79 202.161 1284.87 201.983 1284.96 201.829C1287.66 198.232 1290.36 194.915 1293.08 192.032C1293.25 191.879 1293.45 191.777 1293.67 191.777Z"   fill="#EDF5FF" ></path><path d="M1294.67 200.222L1294.67 204.84C1294.67 205.35 1294.28 205.759 1293.79 205.759C1293.52 205.759 1293.23 205.682 1293.13 205.427C1292.86 204.789 1292.1 204.33 1291.12 204.508C1290.6 204.611 1290.38 204.049 1290.38 203.59C1290.38 203.386 1290.46 203.182 1290.55 203.029L1293.05 199.635C1293.23 199.406 1293.5 199.278 1293.77 199.278C1294.28 199.278 1294.67 199.712 1294.67 200.222Z"   fill="#EDF5FF" ></path><g ><text transform="translate(360, 156)"><tspan x="0" y="29.68" font-size="28" line-height="0"  fill="#EDF5FF"  font-family=".PingFang SC Regular; 10.11d9e1; 2015-05-20" letter-spacing="0" >手型设置</tspan></text></g><g ><text transform="translate(360, 204)"><tspan x="0" y="26.64" font-size="24" line-height="36"  fill="#7DA2CE"   font-family=".PingFang SC Regular; 10.11d9e1; 2015-05-20" letter-spacing="0"  >右手油门表示右边区域控制油门</tspan><tspan x="0" y="62.64" font-size="24" line-height="36"  fill="#7DA2CE"  font-family=".PingFang SC Regular; 10.11d9e1; 2015-05-20" letter-spacing="0" >左边油门表示左边区域控制油门</tspan></text></g><rect x="328" y="328" width="1216" height="184"   fill="#1B2D4D" fill-opacity="0.4"></rect><g filter="url(#filter_28_572)"><rect  x="1168" y="350" width="160" height="144" rx="8"    fill="#1B2D4D" fill-opacity="0.4"></rect><rect  x="1168" y="350" width="160" height="144" rx="8"    fill="url(#linear_fill_28_572_1)" ></rect><path fill-rule="evenodd"  fill="url(#linear_border_28_572_0)"  d="M1320 350L1176 350C1171.58 350 1168 353.582 1168 358L1168 486C1168 490.418 1171.58 494 1176 494L1320 494C1324.42 494 1328 490.418 1328 486L1328 358C1328 353.582 1324.42 350 1320 350ZM1169 358C1169 354.134 1172.13 351 1176 351L1320 351C1323.87 351 1327 354.134 1327 358L1327 486C1327 489.866 1323.87 493 1320 493L1176 493C1172.13 493 1169 489.866 1169 486L1169 358Z"></path></g><path fill-rule="evenodd"  fill="rgba(237, 245, 255, 1)"  d="M1212 428C1227.46 428 1240 415.464 1240 400C1240 384.536 1227.46 372 1212 372C1196.54 372 1184 384.536 1184 400C1184 415.464 1196.54 428 1212 428ZM1212 374C1226.36 374 1238 385.641 1238 400C1238 414.359 1226.36 426 1212 426C1197.64 426 1186 414.359 1186 400C1186 385.641 1197.64 374 1212 374Z"></path><circle cx="1212" cy="400" r="8"   fill="#FF3700" ></circle><path fill-rule="evenodd"  fill="rgba(237, 245, 255, 1)"  d="M1284 428C1299.46 428 1312 415.464 1312 400C1312 384.536 1299.46 372 1284 372C1268.54 372 1256 384.536 1256 400C1256 415.464 1268.54 428 1284 428ZM1284 374C1298.36 374 1310 385.641 1310 400C1310 414.359 1298.36 426 1284 426C1269.64 426 1258 414.359 1258 400C1258 385.641 1269.64 374 1284 374Z"></path><circle cx="1284" cy="400" r="8"   fill="#FF3700" ></circle><g ><text transform="translate(1200, 448)"><tspan x="0" y="25.44" font-size="24" line-height="0"  fill="#EDF5FF"  font-family=".PingFang SC Regular; 10.11d9e1; 2015-05-20" letter-spacing="0" >固定位置</tspan></text></g><g filter="url(#filter_28_609)"><rect  x="1352" y="350" width="160" height="144" rx="8"    fill="url(#linear_fill_28_609_0)" ></rect><path fill-rule="evenodd"  fill="url(#linear_border_28_609_0)"  d="M1504 350L1360 350C1355.58 350 1352 353.582 1352 358L1352 486C1352 490.418 1355.58 494 1360 494L1504 494C1508.42 494 1512 490.418 1512 486L1512 358C1512 353.582 1508.42 350 1504 350ZM1353 358C1353 354.134 1356.13 351 1360 351L1504 351C1507.87 351 1511 354.134 1511 358L1511 486C1511 489.866 1507.87 493 1504 493L1360 493C1356.13 493 1353 489.866 1353 486L1353 358Z"></path></g><g opacity="0.32"><path fill-rule="evenodd"  fill="rgba(237, 245, 255, 1)"  d="M1392.23 372.252C1392.89 372.163 1393.55 372.098 1394.22 372.056L1394.35 374.052Q1393.42 374.11 1392.49 374.234L1392.23 372.252ZM1388.32 373.067C1388.96 372.884 1389.61 372.723 1390.28 372.586L1390.68 374.544Q1389.77 374.734 1388.87 374.991L1388.32 373.067ZM1384.57 374.433C1385.17 374.162 1385.79 373.912 1386.42 373.683L1387.1 375.563Q1386.23 375.879 1385.38 376.258L1384.57 374.433ZM1381.04 376.327C1381.6 375.971 1382.18 375.635 1382.77 375.319L1383.71 377.081Q1382.9 377.52 1382.11 378.017L1381.04 376.327ZM1377.82 378.703C1378.33 378.27 1378.85 377.854 1379.39 377.457L1380.58 379.066Q1379.83 379.619 1379.12 380.224L1377.82 378.703ZM1374.97 381.51C1375.41 381.009 1375.87 380.524 1376.35 380.056L1377.75 381.481Q1377.09 382.133 1376.47 382.831L1374.97 381.51ZM1372.55 384.695C1372.92 384.136 1373.3 383.59 1373.7 383.059L1375.3 384.27Q1374.73 385.011 1374.22 385.79L1372.55 384.695ZM1370.6 388.191C1370.89 387.583 1371.19 386.987 1371.52 386.405L1373.26 387.377Q1372.81 388.191 1372.42 389.035L1370.6 388.191ZM1369.18 391.921C1369.38 391.282 1369.59 390.652 1369.83 390.032L1371.7 390.744Q1371.37 391.61 1371.1 392.498L1369.18 391.921ZM1368.31 395.823C1368.41 395.164 1368.53 394.512 1368.67 393.869L1370.63 394.305Q1370.42 395.205 1370.29 396.119L1368.31 395.823ZM1368 399.832C1368 399.151 1368.03 398.476 1368.08 397.808L1370.08 397.962Q1370.01 398.899 1370 399.844L1368 399.832ZM1368.26 403.853C1368.17 403.196 1368.1 402.532 1368.06 401.862L1370.06 401.731Q1370.12 402.66 1370.24 403.58L1368.26 403.853ZM1369.09 407.762C1368.9 407.119 1368.74 406.467 1368.6 405.806L1370.56 405.393Q1370.75 406.309 1371.01 407.209L1369.09 407.762ZM1370.47 411.508C1370.19 410.904 1369.94 410.288 1369.71 409.661L1371.59 408.971Q1371.91 409.841 1372.29 410.686L1370.47 411.508ZM1372.37 415.029C1372.01 414.468 1371.68 413.894 1371.36 413.307L1373.12 412.355Q1373.56 413.171 1374.06 413.954L1372.37 415.029ZM1374.76 418.241C1374.32 417.735 1373.9 417.214 1373.51 416.677L1375.11 415.485Q1375.67 416.232 1376.27 416.938L1374.76 418.241ZM1377.57 421.081C1377.07 420.642 1376.58 420.185 1376.11 419.711L1377.53 418.303Q1378.19 418.964 1378.89 419.576L1377.57 421.081ZM1380.76 423.496C1380.2 423.131 1379.66 422.748 1379.12 422.345L1380.33 420.75Q1381.07 421.312 1381.85 421.819L1380.76 423.496ZM1384.27 425.43C1383.66 425.149 1383.06 424.846 1382.48 424.524L1383.44 422.773Q1384.26 423.224 1385.1 423.615L1384.27 425.43ZM1388 426.841C1387.36 426.65 1386.73 426.437 1386.11 426.203L1386.82 424.332Q1387.68 424.659 1388.57 424.924L1388 426.841ZM1391.9 427.703C1391.24 427.606 1390.59 427.486 1389.95 427.345L1390.38 425.392Q1391.28 425.59 1392.19 425.724L1391.9 427.703ZM1395.92 428C1395.23 427.998 1394.56 427.972 1393.89 427.922L1394.04 425.927Q1394.98 425.997 1395.92 426L1395.92 428ZM1399.93 427.726C1399.28 427.818 1398.61 427.888 1397.94 427.934L1397.81 425.938Q1398.74 425.875 1399.66 425.745L1399.93 427.726ZM1403.84 426.887C1403.2 427.074 1402.55 427.239 1401.89 427.38L1401.47 425.424Q1402.38 425.228 1403.28 424.967L1403.84 426.887ZM1407.58 425.499C1406.98 425.774 1406.36 426.028 1405.74 426.26L1405.04 424.385Q1405.91 424.063 1406.76 423.679L1407.58 425.499ZM1411.1 423.585C1410.54 423.944 1409.97 424.283 1409.38 424.603L1408.42 422.847Q1409.24 422.403 1410.02 421.901L1411.1 423.585ZM1414.3 421.189C1413.8 421.626 1413.28 422.045 1412.74 422.445L1411.55 420.842Q1412.29 420.285 1413 419.677L1414.3 421.189ZM1417.14 418.366C1416.7 418.87 1416.24 419.357 1415.77 419.828L1414.36 418.412Q1415.02 417.755 1415.63 417.054L1417.14 418.366ZM1419.54 415.167C1419.18 415.729 1418.8 416.276 1418.4 416.809L1416.8 415.607Q1417.36 414.864 1417.86 414.082L1419.54 415.167ZM1421.46 411.659C1421.19 412.269 1420.88 412.866 1420.56 413.451L1418.81 412.489Q1419.26 411.672 1419.65 410.825L1421.46 411.659ZM1422.86 407.92C1422.68 408.562 1422.46 409.194 1422.23 409.815L1420.36 409.114Q1420.68 408.245 1420.95 407.356L1422.86 407.92ZM1423.71 404.015C1423.62 404.674 1423.5 405.325 1423.36 405.969L1421.41 405.544Q1421.6 404.644 1421.73 403.731L1423.71 404.015ZM1424 400C1424 400.682 1423.98 401.358 1423.93 402.027L1421.93 401.884Q1422 400.946 1422 400L1424 400ZM1423.76 396.309C1423.85 396.967 1423.91 397.632 1423.95 398.304L1421.95 398.423Q1421.9 397.492 1421.78 396.57L1423.76 396.309ZM1422.96 392.397C1423.14 393.041 1423.3 393.695 1423.43 394.358L1421.47 394.759Q1421.28 393.84 1421.03 392.939L1422.96 392.397ZM1421.6 388.643C1421.87 389.248 1422.12 389.865 1422.34 390.493L1420.46 391.172Q1420.15 390.301 1419.77 389.455L1421.6 388.643ZM1419.72 385.11C1420.07 385.673 1420.41 386.249 1420.72 386.839L1418.96 387.78Q1418.52 386.961 1418.02 386.175L1419.72 385.11ZM1417.35 381.884C1417.78 382.392 1418.2 382.917 1418.59 383.456L1416.98 384.639Q1416.43 383.888 1415.83 383.178L1417.35 381.884ZM1414.55 379.027C1415.05 379.47 1415.53 379.929 1416 380.406L1414.57 381.805Q1413.92 381.141 1413.23 380.525L1414.55 379.027ZM1411.37 376.594C1411.93 376.962 1412.48 377.349 1413.01 377.754L1411.79 379.342Q1411.05 378.776 1410.27 378.265L1411.37 376.594ZM1407.88 374.64C1408.49 374.925 1409.09 375.23 1409.67 375.556L1408.69 377.301Q1407.88 376.846 1407.03 376.45L1407.88 374.64ZM1404.16 373.207C1404.8 373.401 1405.43 373.618 1406.04 373.856L1405.33 375.722Q1404.46 375.39 1403.58 375.12L1404.16 373.207ZM1400.26 372.322C1400.92 372.422 1401.57 372.546 1402.21 372.692L1401.77 374.642Q1400.87 374.438 1399.96 374.299L1400.26 372.322ZM1398.27 372.091L1398.11 374.085Q1397.18 374.009 1396.23 374.001L1396.25 372.001C1396.93 372.007 1397.61 372.037 1398.27 372.091Z"></path><circle cx="1396" cy="400" r="8"   fill="#EDF5FF" ></circle><path fill-rule="evenodd"  fill="rgba(237, 245, 255, 1)"  d="M1464.23 372.252C1464.89 372.163 1465.55 372.098 1466.22 372.056L1466.35 374.052Q1465.42 374.11 1464.49 374.234L1464.23 372.252ZM1460.32 373.067C1460.96 372.884 1461.61 372.723 1462.28 372.586L1462.68 374.544Q1461.77 374.734 1460.87 374.991L1460.32 373.067ZM1456.57 374.433C1457.17 374.162 1457.79 373.912 1458.42 373.683L1459.1 375.563Q1458.23 375.879 1457.38 376.258L1456.57 374.433ZM1453.04 376.327C1453.6 375.971 1454.18 375.635 1454.77 375.319L1455.71 377.081Q1454.9 377.52 1454.11 378.017L1453.04 376.327ZM1449.82 378.703C1450.33 378.27 1450.85 377.854 1451.39 377.457L1452.58 379.066Q1451.83 379.619 1451.12 380.224L1449.82 378.703ZM1446.97 381.51C1447.41 381.009 1447.87 380.524 1448.35 380.056L1449.75 381.481Q1449.09 382.133 1448.47 382.831L1446.97 381.51ZM1444.55 384.695C1444.92 384.136 1445.3 383.59 1445.7 383.059L1447.3 384.27Q1446.73 385.011 1446.22 385.79L1444.55 384.695ZM1442.6 388.191C1442.89 387.583 1443.19 386.987 1443.52 386.405L1445.26 387.377Q1444.81 388.191 1444.42 389.035L1442.6 388.191ZM1441.18 391.921C1441.38 391.282 1441.59 390.652 1441.83 390.032L1443.7 390.744Q1443.37 391.61 1443.1 392.498L1441.18 391.921ZM1440.31 395.823C1440.41 395.164 1440.53 394.512 1440.67 393.869L1442.63 394.305Q1442.42 395.205 1442.29 396.119L1440.31 395.823ZM1440 399.832C1440 399.151 1440.03 398.476 1440.08 397.808L1442.08 397.962Q1442.01 398.899 1442 399.844L1440 399.832ZM1440.26 403.853C1440.17 403.196 1440.1 402.532 1440.06 401.862L1442.06 401.731Q1442.12 402.66 1442.24 403.58L1440.26 403.853ZM1441.09 407.762C1440.9 407.119 1440.74 406.467 1440.6 405.806L1442.56 405.393Q1442.75 406.309 1443.01 407.209L1441.09 407.762ZM1442.47 411.508C1442.19 410.904 1441.94 410.288 1441.71 409.661L1443.59 408.971Q1443.91 409.841 1444.29 410.686L1442.47 411.508ZM1444.37 415.029C1444.01 414.468 1443.68 413.894 1443.36 413.307L1445.12 412.355Q1445.56 413.171 1446.06 413.954L1444.37 415.029ZM1446.76 418.241C1446.32 417.735 1445.9 417.214 1445.51 416.677L1447.11 415.485Q1447.67 416.232 1448.27 416.938L1446.76 418.241ZM1449.57 421.081C1449.07 420.642 1448.58 420.185 1448.11 419.711L1449.53 418.303Q1450.19 418.964 1450.89 419.576L1449.57 421.081ZM1452.76 423.496C1452.2 423.131 1451.66 422.748 1451.12 422.345L1452.33 420.75Q1453.07 421.312 1453.85 421.819L1452.76 423.496ZM1456.27 425.43C1455.66 425.149 1455.06 424.846 1454.48 424.524L1455.44 422.773Q1456.26 423.224 1457.1 423.615L1456.27 425.43ZM1460 426.841C1459.36 426.65 1458.73 426.437 1458.11 426.203L1458.82 424.332Q1459.68 424.659 1460.57 424.924L1460 426.841ZM1463.9 427.703C1463.24 427.606 1462.59 427.486 1461.95 427.345L1462.38 425.392Q1463.28 425.59 1464.19 425.724L1463.9 427.703ZM1467.92 428C1467.23 427.998 1466.56 427.972 1465.89 427.922L1466.04 425.927Q1466.98 425.997 1467.92 426L1467.92 428ZM1471.93 427.726C1471.28 427.818 1470.61 427.888 1469.94 427.934L1469.81 425.938Q1470.74 425.875 1471.66 425.745L1471.93 427.726ZM1475.84 426.887C1475.2 427.074 1474.55 427.239 1473.89 427.38L1473.47 425.424Q1474.38 425.228 1475.28 424.967L1475.84 426.887ZM1479.58 425.499C1478.98 425.774 1478.36 426.028 1477.74 426.26L1477.04 424.385Q1477.91 424.063 1478.76 423.679L1479.58 425.499ZM1483.1 423.585C1482.54 423.944 1481.97 424.283 1481.38 424.603L1480.42 422.847Q1481.24 422.403 1482.02 421.901L1483.1 423.585ZM1486.3 421.189C1485.8 421.626 1485.28 422.045 1484.74 422.445L1483.55 420.842Q1484.29 420.285 1485 419.677L1486.3 421.189ZM1489.14 418.366C1488.7 418.87 1488.24 419.357 1487.77 419.828L1486.36 418.412Q1487.02 417.755 1487.63 417.054L1489.14 418.366ZM1491.54 415.167C1491.18 415.729 1490.8 416.276 1490.4 416.809L1488.8 415.607Q1489.36 414.864 1489.86 414.082L1491.54 415.167ZM1493.46 411.659C1493.19 412.269 1492.88 412.866 1492.56 413.451L1490.81 412.489Q1491.26 411.672 1491.65 410.825L1493.46 411.659ZM1494.86 407.92C1494.68 408.562 1494.46 409.194 1494.23 409.815L1492.36 409.114Q1492.68 408.245 1492.95 407.356L1494.86 407.92ZM1495.71 404.015C1495.62 404.674 1495.5 405.325 1495.36 405.969L1493.41 405.544Q1493.6 404.644 1493.73 403.731L1495.71 404.015ZM1496 400C1496 400.682 1495.98 401.358 1495.93 402.027L1493.93 401.884Q1494 400.946 1494 400L1496 400ZM1495.76 396.309C1495.85 396.967 1495.91 397.632 1495.95 398.304L1493.95 398.423Q1493.9 397.492 1493.78 396.57L1495.76 396.309ZM1494.96 392.397C1495.14 393.041 1495.3 393.695 1495.43 394.358L1493.47 394.759Q1493.28 393.84 1493.03 392.939L1494.96 392.397ZM1493.6 388.643C1493.87 389.248 1494.12 389.865 1494.34 390.493L1492.46 391.172Q1492.15 390.301 1491.77 389.455L1493.6 388.643ZM1491.72 385.11C1492.07 385.673 1492.41 386.249 1492.72 386.839L1490.96 387.78Q1490.52 386.961 1490.02 386.175L1491.72 385.11ZM1489.35 381.884C1489.78 382.392 1490.2 382.917 1490.59 383.456L1488.98 384.639Q1488.43 383.888 1487.83 383.178L1489.35 381.884ZM1486.55 379.027C1487.05 379.47 1487.53 379.929 1488 380.406L1486.57 381.805Q1485.92 381.141 1485.23 380.525L1486.55 379.027ZM1483.37 376.594C1483.93 376.962 1484.48 377.349 1485.01 377.754L1483.79 379.342Q1483.05 378.776 1482.27 378.265L1483.37 376.594ZM1479.88 374.64C1480.49 374.925 1481.09 375.23 1481.67 375.556L1480.69 377.301Q1479.88 376.846 1479.03 376.45L1479.88 374.64ZM1476.16 373.207C1476.8 373.401 1477.43 373.618 1478.04 373.856L1477.33 375.722Q1476.46 375.39 1475.58 375.12L1476.16 373.207ZM1472.26 372.322C1472.92 372.422 1473.57 372.546 1474.21 372.692L1473.77 374.642Q1472.87 374.438 1471.96 374.299L1472.26 372.322ZM1470.27 372.091L1470.11 374.085Q1469.18 374.009 1468.23 374.001L1468.25 372.001C1468.93 372.007 1469.61 372.037 1470.27 372.091Z"></path><circle cx="1468" cy="400" r="8"   fill="#EDF5FF" ></circle></g><g ><text transform="translate(1360, 448)"><tspan x="0" y="25.44" font-size="24" line-height="0"  fill="#EDF5FF"  font-family=".PingFang SC Regular; 10.11d9e1; 2015-05-20" letter-spacing="0" >隐藏可变位置</tspan></text></g><g ><text transform="translate(360, 348)"><tspan x="0" y="29.68" font-size="28" line-height="0"  fill="#EDF5FF"  font-family=".PingFang SC Regular; 10.11d9e1; 2015-05-20" letter-spacing="0" >操控模式</tspan></text></g><g ><text transform="translate(360, 396)"><tspan x="0" y="26.64" font-size="24" line-height="36"  fill="#7DA2CE"   font-family=".PingFang SC Regular; 10.11d9e1; 2015-05-20" letter-spacing="0"  >固定位置表示可以固定起点开始行程</tspan><tspan x="0" y="62.64" font-size="24" line-height="36"  fill="#7DA2CE"  font-family=".PingFang SC Regular; 10.11d9e1; 2015-05-20" letter-spacing="0" >隐藏可变位置表示可以任意起点开始行程</tspan></text></g><rect x="328" y="520" width="1216" height="88"   fill="#1B2D4D" fill-opacity="0.4"></rect><g filter="url(#filter_28_649)"><rect  x="1217" y="536" width="148" height="56"    fill="#1B2D4D" fill-opacity="0.4"></rect><path fill-rule="evenodd"  fill="rgba(0, 114, 255, 1)"  d="M1365 536L1217 536L1217 592L1365 592L1365 536ZM1218 591L1218 537L1364 537L1364 591L1218 591Z"></path></g><g ><text transform="translate(1263, 544)"><tspan x="0" y="29.68" font-size="28" line-height="0"  fill="#7DA2CE"  font-family=".PingFang SC Regular; 10.11d9e1; 2015-05-20" letter-spacing="0" >油门</tspan></text></g><g filter="url(#filter_28_652)"><path     fill="#1B2D4D" fill-opacity="0.4" d="M1364 536L1508 536C1510.21 536 1512 537.791 1512 540L1512 588C1512 590.209 1510.21 592 1508 592L1364 592L1364 536Z"></path><path fill-rule="evenodd"  fill="rgba(0, 114, 255, 1)"  d="M1364 536L1364 592L1508 592C1510.21 592 1512 590.209 1512 588L1512 540C1512 537.791 1510.21 536 1508 536L1364 536ZM1365 537L1365 591L1508 591C1509.66 591 1511 589.657 1511 588L1511 540C1511 538.343 1509.66 537 1508 537L1365 537Z"></path></g><g ><text transform="translate(1423.5, 544)"><tspan x="0" y="29.68" font-size="28" line-height="0"  fill="#7DA2CE"  font-family=".PingFang SC Regular; 10.11d9e1; 2015-05-20" letter-spacing="0" >all</tspan></text></g><g filter="url(#filter_28_646)"><path     fill="#1B2D4D" fill-opacity="0.4" d="M1074 536L1218 536L1218 592L1074 592C1071.79 592 1070 590.209 1070 588L1070 540C1070 537.791 1071.79 536 1074 536Z"></path><path     fill="url(#linear_fill_28_646_1)"  d="M1074 536L1218 536L1218 592L1074 592C1071.79 592 1070 590.209 1070 588L1070 540C1070 537.791 1071.79 536 1074 536Z"></path><path fill-rule="evenodd"  fill="rgba(0, 198, 255, 1)"  d="M1217 536L1074 536C1071.79 536 1070 537.791 1070 540L1070 588C1070 590.209 1071.79 592 1074 592L1218 592L1218 536L1217 536ZM1217 537L1074 537C1072.34 537 1071 538.343 1071 540L1071 588C1071 589.657 1072.34 591 1074 591L1217 591L1217 537Z"></path></g><g ><text transform="translate(1116, 544)"><tspan x="0" y="29.68" font-size="28" line-height="0"  fill="#EDF5FF"  font-family=".PingFang SC Regular; 10.11d9e1; 2015-05-20" letter-spacing="0" >方向</tspan></text></g><g ><text transform="translate(360, 544)"><tspan x="0" y="29.68" font-size="28" line-height="0"  fill="#EDF5FF"  font-family=".PingFang SC Regular; 10.11d9e1; 2015-05-20" letter-spacing="0" >陀螺仪设置</tspan></text></g><rect x="328" y="616" width="1216" height="88"   fill="#1B2D4D" fill-opacity="0.4"></rect><path    stroke="rgba(125, 162, 206, 1)" stroke-width="2.6666666666666665" stroke-linejoin="round" stroke-linecap="round"  d="M1490 671L1502 660L1490 649"></path><g ><text transform="translate(360, 640)"><tspan x="0" y="29.68" font-size="28" line-height="0"  fill="#EDF5FF"  font-family=".PingFang SC Regular; 10.11d9e1; 2015-05-20" letter-spacing="0" >设置接收机退出蓝牙模式</tspan></text></g><rect  x="603" y="725" width="418" height="10" rx="5"    fill="#EDF5FF" fill-opacity="0.48"></rect><defs><filter id="filter_0_2474" x="80" y="0" width="1464" height="120" filterUnits="userSpaceOnUse" color-interpolation-filters="sRGB"><feFlood flood-opacity="0" result="feFloodId_0_2474"/><feBlend mode="normal" in="SourceGraphic" in2="feFloodId_0_2474" result="shape_0_2474"/><feColorMatrix in="SourceAlpha" type="matrix" values="0 0 0 0 0 0 0 0 0 0 0 0 0 0 0 0 0 0 127 0" result="hardAlpha_0_2474"/><feOffset dx="0" dy="0"/><feGaussianBlur stdDeviation="8"/><feComposite in2="hardAlpha_0_2474" operator="arithmetic" k2="-1" k3="1"/><feColorMatrix type="matrix" values="0 0 0 0 0 0 0 0 0 0.4470588235294118 0 0 0 0 1 0 0 0 0.24 0"/><feBlend mode="normal" in2="shape_0_2474" result="innerShadow_0_0_2474" /></filter><linearGradient id="linear_fill_0_2480" x1="80" y1="119" x2="1544" y2="119" gradientUnits="userSpaceOnUse"><stop offset="0" stop-color="#7EA2CF"  /><stop offset="0.3334" stop-color="#00C6FF"  /><stop offset="0.5092" stop-color="#92FE9D"  /><stop offset="0.678" stop-color="#00C8FF"  /><stop offset="1" stop-color="#7DA2CE"  /></linearGradient><linearGradient id="linear_fill_0_2977" x1="80" y1="180" x2="304" y2="180" gradientUnits="userSpaceOnUse"><stop offset="0" stop-color="#0072FF" stop-opacity="0.48" /><stop offset="1" stop-color="#0073FF" stop-opacity="0" /></linearGradient><linearGradient id="linear_fill_0_2978" x1="83" y1="136" x2="83" y2="224" gradientUnits="userSpaceOnUse"><stop offset="0.0486" stop-color="#0072FF" stop-opacity="0" /><stop offset="0.4622" stop-color="#0072FF"  /><stop offset="0.9583" stop-color="#0072FF" stop-opacity="0" /></linearGradient><linearGradient id="linear_fill_28_375_0" x1="1432" y1="156" x2="1432" y2="300" gradientUnits="userSpaceOnUse"><stop offset="0" stop-color="#1B2D4D"  /><stop offset="1" stop-color="#1B2D4D" stop-opacity="0" /></linearGradient><linearGradient id="linear_border_28_375_0" x1="1432" y1="300" x2="1432" y2="156" gradientUnits="userSpaceOnUse"><stop offset="0" stop-color="#7DA2CE" stop-opacity="0.4" /><stop offset="0.2807" stop-color="#7DA2CE" stop-opacity="0.64" /><stop offset="0.5394" stop-color="#7DA2CE"  /><stop offset="0.7815" stop-color="#7DA2CE" stop-opacity="0.64" /><stop offset="1" stop-color="#7DA2CE" stop-opacity="0.4" /></linearGradient><filter id="filter_28_375" x="1352" y="156" width="160" height="144" filterUnits="userSpaceOnUse" color-interpolation-filters="sRGB"><feFlood flood-opacity="0" result="feFloodId_28_375"/><feBlend mode="normal" in="SourceGraphic" in2="feFloodId_28_375" result="shape_28_375"/><feColorMatrix in="SourceAlpha" type="matrix" values="0 0 0 0 0 0 0 0 0 0 0 0 0 0 0 0 0 0 127 0" result="hardAlpha_28_375"/><feOffset dx="0" dy="0"/><feGaussianBlur stdDeviation="4"/><feComposite in2="hardAlpha_28_375" operator="arithmetic" k2="-1" k3="1"/><feColorMatrix type="matrix" values="0 0 0 0 0 0 0 0 0 0.4470588235294118 0 0 0 0 1 0 0 0 0.64 0"/><feBlend mode="normal" in2="shape_28_375" result="innerShadow_0_28_375" /></filter><linearGradient id="linear_fill_28_459_1" x1="1248" y1="300" x2="1248" y2="156" gradientUnits="userSpaceOnUse"><stop offset="0" stop-color="#0072FF" stop-opacity="0.48" /><stop offset="1" stop-color="#0073FF" stop-opacity="0" /></linearGradient><linearGradient id="linear_border_28_459_0" x1="1248" y1="300" x2="1248" y2="156" gradientUnits="userSpaceOnUse"><stop offset="0" stop-color="#7DA2CE" stop-opacity="0.4" /><stop offset="0.2807" stop-color="#7DA2CE" stop-opacity="0.64" /><stop offset="0.5394" stop-color="#7DA2CE"  /><stop offset="0.7815" stop-color="#7DA2CE" stop-opacity="0.64" /><stop offset="1" stop-color="#7DA2CE" stop-opacity="0.4" /></linearGradient><filter id="filter_28_459" x="1168" y="156" width="160" height="144" filterUnits="userSpaceOnUse" color-interpolation-filters="sRGB"><feFlood flood-opacity="0" result="feFloodId_28_459"/><feBlend mode="normal" in="SourceGraphic" in2="feFloodId_28_459" result="shape_28_459"/><feColorMatrix in="SourceAlpha" type="matrix" values="0 0 0 0 0 0 0 0 0 0 0 0 0 0 0 0 0 0 127 0" result="hardAlpha_28_459"/><feOffset dx="0" dy="0"/><feGaussianBlur stdDeviation="4"/><feComposite in2="hardAlpha_28_459" operator="arithmetic" k2="-1" k3="1"/><feColorMatrix type="matrix" values="0 0 0 0 0 0 0 0 0 0.4470588235294118 0 0 0 0 1 0 0 0 0.64 0"/><feBlend mode="normal" in2="shape_28_459" result="innerShadow_0_28_459" /></filter><linearGradient id="linear_fill_28_572_1" x1="1248" y1="494" x2="1248" y2="350" gradientUnits="userSpaceOnUse"><stop offset="0" stop-color="#0072FF" stop-opacity="0.48" /><stop offset="1" stop-color="#0073FF" stop-opacity="0" /></linearGradient><linearGradient id="linear_border_28_572_0" x1="1248" y1="494" x2="1248" y2="350" gradientUnits="userSpaceOnUse"><stop offset="0" stop-color="#7DA2CE" stop-opacity="0.4" /><stop offset="0.2807" stop-color="#7DA2CE" stop-opacity="0.64" /><stop offset="0.5394" stop-color="#7DA2CE"  /><stop offset="0.7815" stop-color="#7DA2CE" stop-opacity="0.64" /><stop offset="1" stop-color="#7DA2CE" stop-opacity="0.4" /></linearGradient><filter id="filter_28_572" x="1168" y="350" width="160" height="144" filterUnits="userSpaceOnUse" color-interpolation-filters="sRGB"><feFlood flood-opacity="0" result="feFloodId_28_572"/><feBlend mode="normal" in="SourceGraphic" in2="feFloodId_28_572" result="shape_28_572"/><feColorMatrix in="SourceAlpha" type="matrix" values="0 0 0 0 0 0 0 0 0 0 0 0 0 0 0 0 0 0 127 0" result="hardAlpha_28_572"/><feOffset dx="0" dy="0"/><feGaussianBlur stdDeviation="4"/><feComposite in2="hardAlpha_28_572" operator="arithmetic" k2="-1" k3="1"/><feColorMatrix type="matrix" values="0 0 0 0 0 0 0 0 0 0.4470588235294118 0 0 0 0 1 0 0 0 0.64 0"/><feBlend mode="normal" in2="shape_28_572" result="innerShadow_0_28_572" /></filter><linearGradient id="linear_fill_28_609_0" x1="1432" y1="350" x2="1432" y2="494" gradientUnits="userSpaceOnUse"><stop offset="0" stop-color="#1B2D4D"  /><stop offset="1" stop-color="#1B2D4D" stop-opacity="0" /></linearGradient><linearGradient id="linear_border_28_609_0" x1="1432" y1="494" x2="1432" y2="350" gradientUnits="userSpaceOnUse"><stop offset="0" stop-color="#7DA2CE" stop-opacity="0.4" /><stop offset="0.2807" stop-color="#7DA2CE" stop-opacity="0.64" /><stop offset="0.5394" stop-color="#7DA2CE"  /><stop offset="0.7815" stop-color="#7DA2CE" stop-opacity="0.64" /><stop offset="1" stop-color="#7DA2CE" stop-opacity="0.4" /></linearGradient><filter id="filter_28_609" x="1352" y="350" width="160" height="144" filterUnits="userSpaceOnUse" color-interpolation-filters="sRGB"><feFlood flood-opacity="0" result="feFloodId_28_609"/><feBlend mode="normal" in="SourceGraphic" in2="feFloodId_28_609" result="shape_28_609"/><feColorMatrix in="SourceAlpha" type="matrix" values="0 0 0 0 0 0 0 0 0 0 0 0 0 0 0 0 0 0 127 0" result="hardAlpha_28_609"/><feOffset dx="0" dy="0"/><feGaussianBlur stdDeviation="4"/><feComposite in2="hardAlpha_28_609" operator="arithmetic" k2="-1" k3="1"/><feColorMatrix type="matrix" values="0 0 0 0 0 0 0 0 0 0.4470588235294118 0 0 0 0 1 0 0 0 0.64 0"/><feBlend mode="normal" in2="shape_28_609" result="innerShadow_0_28_609" /></filter><filter id="filter_28_649" x="1217" y="536" width="148" height="56" filterUnits="userSpaceOnUse" color-interpolation-filters="sRGB"><feFlood flood-opacity="0" result="feFloodId_28_649"/><feBlend mode="normal" in="SourceGraphic" in2="feFloodId_28_649" result="shape_28_649"/><feColorMatrix in="SourceAlpha" type="matrix" values="0 0 0 0 0 0 0 0 0 0 0 0 0 0 0 0 0 0 127 0" result="hardAlpha_28_649"/><feOffset dx="0" dy="0"/><feGaussianBlur stdDeviation="4"/><feComposite in2="hardAlpha_28_649" operator="arithmetic" k2="-1" k3="1"/><feColorMatrix type="matrix" values="0 0 0 0 0 0 0 0 0 0.4470588235294118 0 0 0 0 1 0 0 0 0.64 0"/><feBlend mode="normal" in2="shape_28_649" result="innerShadow_0_28_649" /></filter><filter id="filter_28_652" x="1364" y="536" width="148" height="56" filterUnits="userSpaceOnUse" color-interpolation-filters="sRGB"><feFlood flood-opacity="0" result="feFloodId_28_652"/><feBlend mode="normal" in="SourceGraphic" in2="feFloodId_28_652" result="shape_28_652"/><feColorMatrix in="SourceAlpha" type="matrix" values="0 0 0 0 0 0 0 0 0 0 0 0 0 0 0 0 0 0 127 0" result="hardAlpha_28_652"/><feOffset dx="0" dy="0"/><feGaussianBlur stdDeviation="4"/><feComposite in2="hardAlpha_28_652" operator="arithmetic" k2="-1" k3="1"/><feColorMatrix type="matrix" values="0 0 0 0 0 0 0 0 0 0.4470588235294118 0 0 0 0 1 0 0 0 0.64 0"/><feBlend mode="normal" in2="shape_28_652" result="innerShadow_0_28_652" /></filter><linearGradient id="linear_fill_28_646_1" x1="1144" y1="592" x2="1144" y2="536" gradientUnits="userSpaceOnUse"><stop offset="0" stop-color="#00C6FF" stop-opacity="0.5" /><stop offset="1" stop-color="#00C6FF" stop-opacity="0" /></linearGradient><filter id="filter_28_646" x="1070" y="536" width="148" height="56" filterUnits="userSpaceOnUse" color-interpolation-filters="sRGB"><feFlood flood-opacity="0" result="feFloodId_28_646"/><feBlend mode="normal" in="SourceGraphic" in2="feFloodId_28_646" result="shape_28_646"/><feColorMatrix in="SourceAlpha" type="matrix" values="0 0 0 0 0 0 0 0 0 0 0 0 0 0 0 0 0 0 127 0" result="hardAlpha_28_646"/><feOffset dx="0" dy="0"/><feGaussianBlur stdDeviation="4"/><feComposite in2="hardAlpha_28_646" operator="arithmetic" k2="-1" k3="1"/><feColorMatrix type="matrix" values="0 0 0 0 0 0 0 0 0 0.4470588235294118 0 0 0 0 1 0 0 0 0.64 0"/><feBlend mode="normal" in2="shape_28_646" result="innerShadow_0_28_646" /></filter></defs></svg>