<svg xmlns="http://www.w3.org/2000/svg" xmlns:xlink="http://www.w3.org/1999/xlink" width="1624" height="750" viewBox="0 0 1624 750" fill="none"><path     fill="#001024"  d="M0 750L1624 750L1624 0L0 0L0 750Z"></path><g filter="url(#filter_0_2519)"><rect x="80" y="0" width="1464" height="120"   fill="#1B2D4D" fill-opacity="0"></rect></g><path    stroke="rgba(237, 245, 255, 1)" stroke-width="4"  stroke-linecap="round"  d="M1475.2 72.8027L1500.8 47.1973"></path><path    stroke="rgba(237, 245, 255, 1)" stroke-width="4"  stroke-linecap="round"  d="M1501 73.0002L1475 47.0005"></path><rect x="80" y="118" width="1464" height="2"   fill="url(#linear_fill_0_2525)" ></rect><g ><path     fill="#EDF5FF"  d="M97.56 68.88L92.44 64.52L92.72 62.6L99.2 62.6L102.6 65.6L106.64 62.96L106.8 61.8L92.84 61.8L93.36 58.08L113.6 58.08L112.6 65.32L106.56 69.04L112.72 74.36L104 74.36L101.44 72.2L97.88 74.36L89.2 74.36L97.56 68.88ZM106.24 57.04L107.2 50.08L101.72 50.08L100.24 57.04L93.6 57.04L95.56 47.76L94.32 46.32L113.96 46.32L113.04 53.04L113.76 53.04L115.08 51.52L114.32 57.04L106.24 57.04ZM81.72 73.64L84.08 56.96L81.72 56.96L82.24 53.16L91.28 53.16L89.2 68.12L92.16 67.32L91.6 71.28L81.72 73.64ZM90.4 46.32L91.56 51.64L85.44 51.64L84.28 46.32L90.4 46.32ZM133.44 53.92L133.92 52.76L121.88 52.76L122.68 47.12L121.88 46.28L153 46.28L152.08 52.76L139.92 52.76L139.52 53.92L152.72 53.92L152.32 56.96L138.44 56.96L138.04 58.04L149.88 58.04L148.04 70.92L151.12 70.92L150.72 73.68L117.36 73.68L117.76 70.92L119.96 70.92L121.76 58.04L131.84 58.04L132.24 56.96L120.44 56.96L120.84 53.92L133.44 53.92ZM128.04 61.84L142.44 61.84L142.56 61.08L128.16 61.08L128.04 61.84ZM127.2 67.88L141.6 67.88L141.68 67.16L127.32 67.16L127.2 67.88ZM126.8 70.92L141.16 70.92L141.24 70.2L126.88 70.2L126.8 70.92ZM127.64 64.84L142 64.84L142.12 64.16L127.72 64.16L127.64 64.84ZM143.56 48.64L143.32 50.44L145.64 50.44L145.88 48.64L143.56 48.64ZM131.28 50.44L131.52 48.64L129.28 48.64L129.04 50.44L131.28 50.44ZM136.12 50.44L138.36 50.44L138.6 48.64L136.36 48.64L136.12 50.44Z"></path></g><path  transform="translate(80, 136)"   fill="#001024"  d="M0 568L224 568L224 0L0 0L0 568Z"></path><rect x="80" y="136" width="224" height="88"   fill="#001024" ></rect><g ><text transform="translate(136, 160)"><tspan x="0" y="29.68" font-size="28" line-height="0"  fill="#7DA2CE"  font-family=".PingFang SC Regular; 10.11d9e1; 2015-05-20" letter-spacing="0" >基本设置</tspan></text></g><rect x="80" y="232" width="224" height="87.99994277954102"   fill="url(#linear_fill_0_3069)" fill-opacity="1"></rect><rect x="80" y="232" width="6" height="88"   fill="url(#linear_fill_0_3070)" fill-opacity="1"></rect><g ><text transform="translate(136, 256)"><tspan x="0" y="29.68" font-size="28" line-height="0"  fill="#EDF5FF"  font-family=".PingFang SC Semibold; 10.11d9e1; 2015-05-20" letter-spacing="0" >通道设置</tspan></text></g><rect x="80" y="328" width="224" height="87.99994277954102"   fill="#001024" ></rect><g ><text transform="translate(136, 352)"><tspan x="0" y="29.68" font-size="28" line-height="0"  fill="#7DA2CE"  font-family=".PingFang SC Regular; 10.11d9e1; 2015-05-20" letter-spacing="0" >失控保护</tspan></text></g><rect x="80" y="424" width="224" height="87.99994277954102"   fill="#001024" ></rect><g ><text transform="translate(136, 448)"><tspan x="0" y="29.68" font-size="28" line-height="0"  fill="#7DA2CE"  font-family=".PingFang SC Regular; 10.11d9e1; 2015-05-20" letter-spacing="0" >履带混控</tspan></text></g><rect x="80" y="520" width="224" height="88"   fill="#001024" ></rect><g ><text transform="translate(136, 544)"><tspan x="0" y="29.68" font-size="28" line-height="0"  fill="#7DA2CE"  font-family=".PingFang SC Regular; 10.11d9e1; 2015-05-20" letter-spacing="0" >报警提示</tspan></text></g><rect x="80" y="616" width="224" height="88"   fill="#001024" ></rect><g ><text transform="translate(136, 640)"><tspan x="0" y="29.68" font-size="28" line-height="0"  fill="#7DA2CE"  font-family=".PingFang SC Regular; 10.11d9e1; 2015-05-20" letter-spacing="0" >固件升级</tspan></text></g><rect x="328" y="136" width="1216" height="88"   fill="#1B2D4D" fill-opacity="0.4"></rect><g ><text transform="translate(360, 160)"><tspan x="0" y="29.68" font-size="28" line-height="0"  fill="#EDF5FF"  font-family=".PingFang SC Regular; 10.11d9e1; 2015-05-20" letter-spacing="0" >方向(CH1)</tspan></text></g><g ><text transform="translate(748, 160)"><tspan x="0" y="29.68" font-size="28" line-height="0"  fill="#EDF5FF"  font-family=".PingFang SC Regular; 10.11d9e1; 2015-05-20" letter-spacing="0" >低</tspan></text></g><g filter="url(#filter_0_1768)"><rect  x="800" y="152" width="120" height="56" rx="4"    fill="#1B2D4D" fill-opacity="0.4"></rect><rect  x="800" y="152" width="120" height="56" rx="4"    fill="url(#linear_fill_0_1768_1)" ></rect><path fill-rule="evenodd"  fill="rgba(0, 198, 255, 1)"  d="M916 152L804 152C801.791 152 800 153.791 800 156L800 204C800 206.209 801.791 208 804 208L916 208C918.209 208 920 206.209 920 204L920 156C920 153.791 918.209 152 916 152ZM801 156C801 154.343 802.343 153 804 153L916 153C917.657 153 919 154.343 919 156L919 204C919 205.657 917.657 207 916 207L804 207C802.343 207 801 205.657 801 204L801 156Z"></path></g><g ><text transform="translate(822, 164)"><tspan x="0" y="25.9765625" font-size="28" line-height="0"  fill="#EDF5FF"  font-family="Roboto" letter-spacing="0" >-100%</tspan></text></g><g ><text transform="translate(944, 160)"><tspan x="0" y="29.68" font-size="28" line-height="0"  fill="#EDF5FF"  font-family=".PingFang SC Regular; 10.11d9e1; 2015-05-20" letter-spacing="0" >高</tspan></text></g><g filter="url(#filter_0_1850)"><rect  x="996" y="152" width="120" height="56" rx="4"    fill="#1B2D4D" fill-opacity="0.4"></rect><path fill-rule="evenodd"  fill="rgba(0, 114, 255, 1)"  d="M1112 152L1000 152C997.791 152 996 153.791 996 156L996 204C996 206.209 997.791 208 1000 208L1112 208C1114.21 208 1116 206.209 1116 204L1116 156C1116 153.791 1114.21 152 1112 152ZM997 156C997 154.343 998.343 153 1000 153L1112 153C1113.66 153 1115 154.343 1115 156L1115 204C1115 205.657 1113.66 207 1112 207L1000 207C998.343 207 997 205.657 997 204L997 156Z"></path></g><g ><text transform="translate(1022, 164)"><tspan x="0" y="25.9765625" font-size="28" line-height="0"  fill="#7DA2CE"  font-family="Roboto" letter-spacing="0" >100%</tspan></text></g><g ><text transform="translate(1140, 160)"><tspan x="0" y="29.68" font-size="28" line-height="0"  fill="#EDF5FF"  font-family=".PingFang SC Regular; 10.11d9e1; 2015-05-20" letter-spacing="0" >中</tspan></text></g><g filter="url(#filter_0_1855)"><rect  x="1192" y="152" width="120" height="56" rx="4"    fill="#1B2D4D" fill-opacity="0.4"></rect><path fill-rule="evenodd"  fill="rgba(0, 114, 255, 1)"  d="M1308 152L1196 152C1193.79 152 1192 153.791 1192 156L1192 204C1192 206.209 1193.79 208 1196 208L1308 208C1310.21 208 1312 206.209 1312 204L1312 156C1312 153.791 1310.21 152 1308 152ZM1193 156C1193 154.343 1194.34 153 1196 153L1308 153C1309.66 153 1311 154.343 1311 156L1311 204C1311 205.657 1309.66 207 1308 207L1196 207C1194.34 207 1193 205.657 1193 204L1193 156Z"></path></g><g ><text transform="translate(1233.5, 164)"><tspan x="0" y="25.9765625" font-size="28" line-height="0"  fill="#7DA2CE"  font-family="Roboto" letter-spacing="0" >0%</tspan></text></g><path d="M1430 198L1402 198C1399.8 198 1398 196.2 1398 194L1398 166C1398 163.8 1399.8 162 1402 162L1430 162C1432.2 162 1434 163.8 1434 166L1434 194C1434 196.2 1432.2 198 1430 198Z" stroke="rgba(0, 114, 255, 1)" stroke-width="4"   ></path><g ><text transform="translate(1456, 160)"><tspan x="0" y="29.68" font-size="28" line-height="0"  fill="#EDF5FF"  font-family=".PingFang SC Regular; 10.11d9e1; 2015-05-20" letter-spacing="0" >反向</tspan></text></g><rect x="328" y="232" width="1216" height="88"   fill="#1B2D4D" fill-opacity="0.4"></rect><g ><text transform="translate(360, 256)"><tspan x="0" y="29.68" font-size="28" line-height="0"  fill="#EDF5FF"  font-family=".PingFang SC Regular; 10.11d9e1; 2015-05-20" letter-spacing="0" >油门(CH2)</tspan></text></g><g ><text transform="translate(748, 256)"><tspan x="0" y="29.68" font-size="28" line-height="0"  fill="#EDF5FF"  font-family=".PingFang SC Regular; 10.11d9e1; 2015-05-20" letter-spacing="0" >低</tspan></text></g><g filter="url(#filter_0_1873)"><rect  x="800" y="248" width="120" height="56" rx="4"    fill="#1B2D4D" fill-opacity="0.4"></rect><path fill-rule="evenodd"  fill="rgba(0, 114, 255, 1)"  d="M916 248L804 248C801.791 248 800 249.791 800 252L800 300C800 302.209 801.791 304 804 304L916 304C918.209 304 920 302.209 920 300L920 252C920 249.791 918.209 248 916 248ZM801 252C801 250.343 802.343 249 804 249L916 249C917.657 249 919 250.343 919 252L919 300C919 301.657 917.657 303 916 303L804 303C802.343 303 801 301.657 801 300L801 252Z"></path></g><g ><text transform="translate(822, 260)"><tspan x="0" y="25.9765625" font-size="28" line-height="0"  fill="#7DA2CE"  font-family="Roboto" letter-spacing="0" >-100%</tspan></text></g><g ><text transform="translate(944, 256)"><tspan x="0" y="29.68" font-size="28" line-height="0"  fill="#EDF5FF"  font-family=".PingFang SC Regular; 10.11d9e1; 2015-05-20" letter-spacing="0" >高</tspan></text></g><g filter="url(#filter_0_1878)"><rect  x="996" y="248" width="120" height="56" rx="4"    fill="#1B2D4D" fill-opacity="0.4"></rect><path fill-rule="evenodd"  fill="rgba(0, 114, 255, 1)"  d="M1112 248L1000 248C997.791 248 996 249.791 996 252L996 300C996 302.209 997.791 304 1000 304L1112 304C1114.21 304 1116 302.209 1116 300L1116 252C1116 249.791 1114.21 248 1112 248ZM997 252C997 250.343 998.343 249 1000 249L1112 249C1113.66 249 1115 250.343 1115 252L1115 300C1115 301.657 1113.66 303 1112 303L1000 303C998.343 303 997 301.657 997 300L997 252Z"></path></g><g ><text transform="translate(1022, 260)"><tspan x="0" y="25.9765625" font-size="28" line-height="0"  fill="#7DA2CE"  font-family="Roboto" letter-spacing="0" >100%</tspan></text></g><g ><text transform="translate(1140, 256)"><tspan x="0" y="29.68" font-size="28" line-height="0"  fill="#EDF5FF"  font-family=".PingFang SC Regular; 10.11d9e1; 2015-05-20" letter-spacing="0" >中</tspan></text></g><g filter="url(#filter_0_1883)"><rect  x="1192" y="248" width="120" height="56" rx="4"    fill="#1B2D4D" fill-opacity="0.4"></rect><path fill-rule="evenodd"  fill="rgba(0, 114, 255, 1)"  d="M1308 248L1196 248C1193.79 248 1192 249.791 1192 252L1192 300C1192 302.209 1193.79 304 1196 304L1308 304C1310.21 304 1312 302.209 1312 300L1312 252C1312 249.791 1310.21 248 1308 248ZM1193 252C1193 250.343 1194.34 249 1196 249L1308 249C1309.66 249 1311 250.343 1311 252L1311 300C1311 301.657 1309.66 303 1308 303L1196 303C1194.34 303 1193 301.657 1193 300L1193 252Z"></path></g><g ><text transform="translate(1233.5, 260)"><tspan x="0" y="25.9765625" font-size="28" line-height="0"  fill="#7DA2CE"  font-family="Roboto" letter-spacing="0" >0%</tspan></text></g><path d="M1430 256L1402 256C1398.6 256 1396 258.6 1396 262L1396 290C1396 293.4 1398.6 296 1402 296L1430 296C1433.4 296 1436 293.4 1436 290L1436 262C1436 258.6 1433.4 256 1430 256ZM1426.4 271.4L1414.4 283.4C1414 283.8 1413.6 284 1413 284C1412.4 284 1412 283.8 1411.6 283.4L1405.6 277.4C1404.8 276.6 1404.8 275.4 1405.6 274.6C1406.4 273.8 1407.6 273.8 1408.4 274.6L1413 279.2L1423.6 268.6C1424.4 267.8 1425.6 267.8 1426.4 268.6C1427.2 269.4 1427.2 270.6 1426.4 271.4Z"   fill="#0072FF" ></path><g ><text transform="translate(1456, 256)"><tspan x="0" y="29.68" font-size="28" line-height="0"  fill="#EDF5FF"  font-family=".PingFang SC Regular; 10.11d9e1; 2015-05-20" letter-spacing="0" >反向</tspan></text></g><rect x="328" y="328" width="1216" height="88"   fill="#1B2D4D" fill-opacity="0.4"></rect><g ><text transform="translate(944, 352)"><tspan x="0" y="29.68" font-size="28" line-height="0"  fill="#EDF5FF"  font-family=".PingFang SC Regular; 10.11d9e1; 2015-05-20" letter-spacing="0" >关</tspan></text></g><g filter="url(#filter_0_1916)"><rect  x="996" y="344" width="120" height="56" rx="4"    fill="#1B2D4D" fill-opacity="0.4"></rect><path fill-rule="evenodd"  fill="rgba(0, 114, 255, 1)"  d="M1112 344L1000 344C997.791 344 996 345.791 996 348L996 396C996 398.209 997.791 400 1000 400L1112 400C1114.21 400 1116 398.209 1116 396L1116 348C1116 345.791 1114.21 344 1112 344ZM997 348C997 346.343 998.343 345 1000 345L1112 345C1113.66 345 1115 346.343 1115 348L1115 396C1115 397.657 1113.66 399 1112 399L1000 399C998.343 399 997 397.657 997 396L997 348Z"></path></g><g ><text transform="translate(1018, 356)"><tspan x="0" y="25.9765625" font-size="28" line-height="0"  fill="#7DA2CE"  font-family="Roboto" letter-spacing="0" >-100%</tspan></text></g><g ><text transform="translate(1140, 352)"><tspan x="0" y="29.68" font-size="28" line-height="0"  fill="#EDF5FF"  font-family=".PingFang SC Regular; 10.11d9e1; 2015-05-20" letter-spacing="0" >开</tspan></text></g><g filter="url(#filter_0_1926)"><rect  x="1192" y="344" width="120" height="56" rx="4"    fill="#1B2D4D" fill-opacity="0.4"></rect><path fill-rule="evenodd"  fill="rgba(0, 114, 255, 1)"  d="M1308 344L1196 344C1193.79 344 1192 345.791 1192 348L1192 396C1192 398.209 1193.79 400 1196 400L1308 400C1310.21 400 1312 398.209 1312 396L1312 348C1312 345.791 1310.21 344 1308 344ZM1193 348C1193 346.343 1194.34 345 1196 345L1308 345C1309.66 345 1311 346.343 1311 348L1311 396C1311 397.657 1309.66 399 1308 399L1196 399C1194.34 399 1193 397.657 1193 396L1193 348Z"></path></g><g ><text transform="translate(1233.5, 356)"><tspan x="0" y="25.9765625" font-size="28" line-height="0"  fill="#7DA2CE"  font-family="Roboto" letter-spacing="0" >0%</tspan></text></g><path    stroke="rgba(125, 162, 206, 1)" stroke-width="2.6666666666666665" stroke-linejoin="round" stroke-linecap="round"  d="M1490 383L1502 372L1490 361"></path><g ><text transform="translate(360, 352)"><tspan x="0" y="29.68" font-size="28" line-height="0"  fill="#EDF5FF"  font-family=".PingFang SC Regular; 10.11d9e1; 2015-05-20" letter-spacing="0" >大灯(CH3)</tspan></text></g><rect x="328" y="424" width="1216" height="88"   fill="#1B2D4D" fill-opacity="0.4"></rect><path    stroke="rgba(125, 162, 206, 1)" stroke-width="2.6666666666666665" stroke-linejoin="round" stroke-linecap="round"  d="M1490 479L1502 468L1490 457"></path><g ><text transform="translate(360, 448)"><tspan x="0" y="29.68" font-size="28" line-height="0"  fill="#EDF5FF"  font-family=".PingFang SC Regular; 10.11d9e1; 2015-05-20" letter-spacing="0" >无(CH4)</tspan></text></g><rect  x="603" y="725" width="418" height="10" rx="5"    fill="#EDF5FF" fill-opacity="0.48"></rect><defs><filter id="filter_0_2519" x="80" y="0" width="1464" height="120" filterUnits="userSpaceOnUse" color-interpolation-filters="sRGB"><feFlood flood-opacity="0" result="feFloodId_0_2519"/><feBlend mode="normal" in="SourceGraphic" in2="feFloodId_0_2519" result="shape_0_2519"/><feColorMatrix in="SourceAlpha" type="matrix" values="0 0 0 0 0 0 0 0 0 0 0 0 0 0 0 0 0 0 127 0" result="hardAlpha_0_2519"/><feOffset dx="0" dy="0"/><feGaussianBlur stdDeviation="8"/><feComposite in2="hardAlpha_0_2519" operator="arithmetic" k2="-1" k3="1"/><feColorMatrix type="matrix" values="0 0 0 0 0 0 0 0 0 0.4470588235294118 0 0 0 0 1 0 0 0 0.24 0"/><feBlend mode="normal" in2="shape_0_2519" result="innerShadow_0_0_2519" /></filter><linearGradient id="linear_fill_0_2525" x1="80" y1="119" x2="1544" y2="119" gradientUnits="userSpaceOnUse"><stop offset="0" stop-color="#7EA2CF"  /><stop offset="0.3334" stop-color="#00C6FF"  /><stop offset="0.5092" stop-color="#92FE9D"  /><stop offset="0.678" stop-color="#00C8FF"  /><stop offset="1" stop-color="#7DA2CE"  /></linearGradient><linearGradient id="linear_fill_0_3069" x1="80" y1="275.9999713897705" x2="304" y2="275.9999713897705" gradientUnits="userSpaceOnUse"><stop offset="0" stop-color="#0072FF" stop-opacity="0.48" /><stop offset="1" stop-color="#0073FF" stop-opacity="0" /></linearGradient><linearGradient id="linear_fill_0_3070" x1="83" y1="232" x2="83" y2="320" gradientUnits="userSpaceOnUse"><stop offset="0.0486" stop-color="#0072FF" stop-opacity="0" /><stop offset="0.4622" stop-color="#0072FF"  /><stop offset="0.9583" stop-color="#0072FF" stop-opacity="0" /></linearGradient><linearGradient id="linear_fill_0_1768_1" x1="860" y1="208" x2="860" y2="152" gradientUnits="userSpaceOnUse"><stop offset="0" stop-color="#00C6FF" stop-opacity="0.5" /><stop offset="1" stop-color="#00C6FF" stop-opacity="0" /></linearGradient><filter id="filter_0_1768" x="800" y="152" width="120" height="56" filterUnits="userSpaceOnUse" color-interpolation-filters="sRGB"><feFlood flood-opacity="0" result="feFloodId_0_1768"/><feBlend mode="normal" in="SourceGraphic" in2="feFloodId_0_1768" result="shape_0_1768"/><feColorMatrix in="SourceAlpha" type="matrix" values="0 0 0 0 0 0 0 0 0 0 0 0 0 0 0 0 0 0 127 0" result="hardAlpha_0_1768"/><feOffset dx="0" dy="0"/><feGaussianBlur stdDeviation="4"/><feComposite in2="hardAlpha_0_1768" operator="arithmetic" k2="-1" k3="1"/><feColorMatrix type="matrix" values="0 0 0 0 0 0 0 0 0 0.4470588235294118 0 0 0 0 1 0 0 0 0.64 0"/><feBlend mode="normal" in2="shape_0_1768" result="innerShadow_0_0_1768" /></filter><filter id="filter_0_1850" x="996" y="152" width="120" height="56" filterUnits="userSpaceOnUse" color-interpolation-filters="sRGB"><feFlood flood-opacity="0" result="feFloodId_0_1850"/><feBlend mode="normal" in="SourceGraphic" in2="feFloodId_0_1850" result="shape_0_1850"/><feColorMatrix in="SourceAlpha" type="matrix" values="0 0 0 0 0 0 0 0 0 0 0 0 0 0 0 0 0 0 127 0" result="hardAlpha_0_1850"/><feOffset dx="0" dy="0"/><feGaussianBlur stdDeviation="4"/><feComposite in2="hardAlpha_0_1850" operator="arithmetic" k2="-1" k3="1"/><feColorMatrix type="matrix" values="0 0 0 0 0 0 0 0 0 0.4470588235294118 0 0 0 0 1 0 0 0 0.64 0"/><feBlend mode="normal" in2="shape_0_1850" result="innerShadow_0_0_1850" /></filter><filter id="filter_0_1855" x="1192" y="152" width="120" height="56" filterUnits="userSpaceOnUse" color-interpolation-filters="sRGB"><feFlood flood-opacity="0" result="feFloodId_0_1855"/><feBlend mode="normal" in="SourceGraphic" in2="feFloodId_0_1855" result="shape_0_1855"/><feColorMatrix in="SourceAlpha" type="matrix" values="0 0 0 0 0 0 0 0 0 0 0 0 0 0 0 0 0 0 127 0" result="hardAlpha_0_1855"/><feOffset dx="0" dy="0"/><feGaussianBlur stdDeviation="4"/><feComposite in2="hardAlpha_0_1855" operator="arithmetic" k2="-1" k3="1"/><feColorMatrix type="matrix" values="0 0 0 0 0 0 0 0 0 0.4470588235294118 0 0 0 0 1 0 0 0 0.64 0"/><feBlend mode="normal" in2="shape_0_1855" result="innerShadow_0_0_1855" /></filter><filter id="filter_0_1873" x="800" y="248" width="120" height="56" filterUnits="userSpaceOnUse" color-interpolation-filters="sRGB"><feFlood flood-opacity="0" result="feFloodId_0_1873"/><feBlend mode="normal" in="SourceGraphic" in2="feFloodId_0_1873" result="shape_0_1873"/><feColorMatrix in="SourceAlpha" type="matrix" values="0 0 0 0 0 0 0 0 0 0 0 0 0 0 0 0 0 0 127 0" result="hardAlpha_0_1873"/><feOffset dx="0" dy="0"/><feGaussianBlur stdDeviation="4"/><feComposite in2="hardAlpha_0_1873" operator="arithmetic" k2="-1" k3="1"/><feColorMatrix type="matrix" values="0 0 0 0 0 0 0 0 0 0.4470588235294118 0 0 0 0 1 0 0 0 0.64 0"/><feBlend mode="normal" in2="shape_0_1873" result="innerShadow_0_0_1873" /></filter><filter id="filter_0_1878" x="996" y="248" width="120" height="56" filterUnits="userSpaceOnUse" color-interpolation-filters="sRGB"><feFlood flood-opacity="0" result="feFloodId_0_1878"/><feBlend mode="normal" in="SourceGraphic" in2="feFloodId_0_1878" result="shape_0_1878"/><feColorMatrix in="SourceAlpha" type="matrix" values="0 0 0 0 0 0 0 0 0 0 0 0 0 0 0 0 0 0 127 0" result="hardAlpha_0_1878"/><feOffset dx="0" dy="0"/><feGaussianBlur stdDeviation="4"/><feComposite in2="hardAlpha_0_1878" operator="arithmetic" k2="-1" k3="1"/><feColorMatrix type="matrix" values="0 0 0 0 0 0 0 0 0 0.4470588235294118 0 0 0 0 1 0 0 0 0.64 0"/><feBlend mode="normal" in2="shape_0_1878" result="innerShadow_0_0_1878" /></filter><filter id="filter_0_1883" x="1192" y="248" width="120" height="56" filterUnits="userSpaceOnUse" color-interpolation-filters="sRGB"><feFlood flood-opacity="0" result="feFloodId_0_1883"/><feBlend mode="normal" in="SourceGraphic" in2="feFloodId_0_1883" result="shape_0_1883"/><feColorMatrix in="SourceAlpha" type="matrix" values="0 0 0 0 0 0 0 0 0 0 0 0 0 0 0 0 0 0 127 0" result="hardAlpha_0_1883"/><feOffset dx="0" dy="0"/><feGaussianBlur stdDeviation="4"/><feComposite in2="hardAlpha_0_1883" operator="arithmetic" k2="-1" k3="1"/><feColorMatrix type="matrix" values="0 0 0 0 0 0 0 0 0 0.4470588235294118 0 0 0 0 1 0 0 0 0.64 0"/><feBlend mode="normal" in2="shape_0_1883" result="innerShadow_0_0_1883" /></filter><filter id="filter_0_1916" x="996" y="344" width="120" height="56" filterUnits="userSpaceOnUse" color-interpolation-filters="sRGB"><feFlood flood-opacity="0" result="feFloodId_0_1916"/><feBlend mode="normal" in="SourceGraphic" in2="feFloodId_0_1916" result="shape_0_1916"/><feColorMatrix in="SourceAlpha" type="matrix" values="0 0 0 0 0 0 0 0 0 0 0 0 0 0 0 0 0 0 127 0" result="hardAlpha_0_1916"/><feOffset dx="0" dy="0"/><feGaussianBlur stdDeviation="4"/><feComposite in2="hardAlpha_0_1916" operator="arithmetic" k2="-1" k3="1"/><feColorMatrix type="matrix" values="0 0 0 0 0 0 0 0 0 0.4470588235294118 0 0 0 0 1 0 0 0 0.64 0"/><feBlend mode="normal" in2="shape_0_1916" result="innerShadow_0_0_1916" /></filter><filter id="filter_0_1926" x="1192" y="344" width="120" height="56" filterUnits="userSpaceOnUse" color-interpolation-filters="sRGB"><feFlood flood-opacity="0" result="feFloodId_0_1926"/><feBlend mode="normal" in="SourceGraphic" in2="feFloodId_0_1926" result="shape_0_1926"/><feColorMatrix in="SourceAlpha" type="matrix" values="0 0 0 0 0 0 0 0 0 0 0 0 0 0 0 0 0 0 127 0" result="hardAlpha_0_1926"/><feOffset dx="0" dy="0"/><feGaussianBlur stdDeviation="4"/><feComposite in2="hardAlpha_0_1926" operator="arithmetic" k2="-1" k3="1"/><feColorMatrix type="matrix" values="0 0 0 0 0 0 0 0 0 0.4470588235294118 0 0 0 0 1 0 0 0 0.64 0"/><feBlend mode="normal" in2="shape_0_1926" result="innerShadow_0_0_1926" /></filter></defs></svg>