<svg xmlns="http://www.w3.org/2000/svg" xmlns:xlink="http://www.w3.org/1999/xlink" width="48" height="48" viewBox="0 0 48 48" fill="none"><path d="M27.378 24.0004L35.358 16.4604C35.758 16.0804 35.998 15.5404 35.978 14.9804C35.958 14.4204 35.738 13.9004 35.318 13.5204L25.318 4.5204C24.738 3.9804 23.878 3.8604 23.158 4.1804C22.438 4.5004 21.978 5.2204 21.978 6.0004L21.978 18.9004L15.358 12.6404C14.558 11.8804 13.2781 11.9204 12.5381 12.7204C11.7781 13.5204 11.8181 14.7804 12.6181 15.5404L21.558 23.9804L12.6181 32.4205C11.8181 33.1805 11.7781 34.4405 12.5381 35.2405C13.2981 36.0405 14.558 36.0805 15.358 35.3205L21.978 29.0605L21.978 41.9605C21.978 42.7605 22.438 43.4605 23.158 43.7805C23.418 43.9005 23.698 43.9605 23.978 43.9605C24.458 43.9605 24.938 43.7805 25.318 43.4405L35.318 34.4405C35.738 34.0605 35.978 33.5405 35.978 32.9805C35.978 32.4205 35.758 31.8805 35.358 31.5005L27.378 23.9604L27.378 24.0004ZM25.998 10.5004L31.058 15.0404L25.998 19.8204L25.998 10.5004Z"   fill="url(#linear_fill_FEZ4WDfjDa7WtEaxshVBc)" ></path><defs><linearGradient id="linear_fill_FEZ4WDfjDa7WtEaxshVBc" x1="23.986328125" y1="4.0048828125" x2="23.986328125" y2="43.96044921875" gradientUnits="userSpaceOnUse"><stop offset="0.4792" stop-color="#EDF5FF"  /><stop offset="1" stop-color="#92C3FF"  /></linearGradient></defs></svg>