<svg xmlns="http://www.w3.org/2000/svg" xmlns:xlink="http://www.w3.org/1999/xlink" width="48" height="48" viewBox="0 0 48 48" fill="none"><path   fill="rgba(125, 162, 206, 1)"  d="M8 4L18 4C20.2091 4 22 5.79086 22 8L22 18C22 20.2091 20.2091 22 18 22L8 22C5.79086 22 4 20.2091 4 18L4 8C4 5.79086 5.79086 4 8 4ZM8 8C8 8 8 8 8 8L8 18C8 18 8 18 8 18L18 18C18 18 18 18 18 18L18 8C18 8 18 8 18 8L8 8Z"></path><path   fill="rgba(125, 162, 206, 1)"  d="M8 26L18 26C20.2091 26 22 27.7909 22 30L22 40C22 42.2091 20.2091 44 18 44L8 44C5.79086 44 4 42.2091 4 40L4 30C4 27.7909 5.79086 26 8 26ZM8 30C8 30 8 30 8 30L8 40C8 40 8 40 8 40L18 40C18 40 18 40 18 40L18 30C18 30 18 30 18 30L8 30Z"></path><path   fill="rgba(125, 162, 206, 1)"  d="M30 4L40 4C42.2091 4 44 5.79086 44 8L44 18C44 20.2091 42.2091 22 40 22L30 22C27.7909 22 26 20.2091 26 18L26 8C26 5.79086 27.7909 4 30 4ZM30 8C30 8 30 8 30 8L30 18C30 18 30 18 30 18L40 18C40 18 40 18 40 18L40 8C40 8 40 8 40 8L30 8Z"></path><path   fill="rgba(125, 162, 206, 1)"  d="M30 26L40 26C42.2091 26 44 27.7909 44 30L44 40C44 42.2091 42.2091 44 40 44L30 44C27.7909 44 26 42.2091 26 40L26 30C26 27.7909 27.7909 26 30 26ZM30 30C30 30 30 30 30 30L30 40C30 40 30 40 30 40L40 40C40 40 40 40 40 40L40 30C40 30 40 30 40 30L30 30Z"></path></svg>