<svg xmlns="http://www.w3.org/2000/svg" xmlns:xlink="http://www.w3.org/1999/xlink" width="48" height="48" viewBox="0 0 48 48" fill="none"><path d="M8 4L18 4C20.2091 4 22 5.79086 22 8L22 18C22 20.2091 20.2091 22 18 22L8 22C5.79086 22 4 20.2091 4 18L4 8C4 5.79086 5.79086 4 8 4ZM30 4L40 4C42.2091 4 44 5.79086 44 8L44 18C44 20.2091 42.2091 22 40 22L30 22C27.7909 22 26 20.2091 26 18L26 8C26 5.79086 27.7909 4 30 4ZM8 26L18 26C20.2091 26 22 27.7909 22 30L22 40C22 42.2091 20.2091 44 18 44L8 44C5.79086 44 4 42.2091 4 40L4 30C4 27.7909 5.79086 26 8 26ZM30 26L40 26C42.2091 26 44 27.7909 44 30L44 40C44 42.2091 42.2091 44 40 44L30 44C27.7909 44 26 42.2091 26 40L26 30C26 27.7909 27.7909 26 30 26Z" fill-rule="evenodd"  fill="url(#linear_fill_3_1836)" ></path><defs><linearGradient id="linear_fill_3_1836" x1="24" y1="4" x2="24" y2="44" gradientUnits="userSpaceOnUse"><stop offset="0.4792" stop-color="#EDF5FF"  /><stop offset="1" stop-color="#92C3FF"  /></linearGradient></defs></svg>