<svg xmlns="http://www.w3.org/2000/svg" xmlns:xlink="http://www.w3.org/1999/xlink" width="48" height="48" viewBox="0 0 48 48" fill="none"><path d="M41 17.1667L27.8 5.39616C25.4 3.40115 22.2 3.40115 20.2 5.39616L7 17.1667C5.6 18.1642 5 19.9598 5 21.7553L5 38.1144C5 41.3064 7.6 43.8999 10.8 43.8999L37.2 43.8999C40.4 43.8999 43 41.3064 43 38.1144L43 21.7553C43 19.9598 42.2 18.1642 41 17.1667ZM28.8 26.7428L18.2 26.7428C17 26.7428 16.2 25.9448 16.2 24.7478C16.2 23.5508 17 22.7528 18.2 22.7528L28.8 22.7528C30 22.7528 30.8 23.5508 30.8 24.7478C30.8 25.9448 29.8 26.7428 28.8 26.7428Z"   fill="url(#linear_fill_21_321)" ></path><defs><linearGradient id="linear_fill_21_321" x1="24" y1="3.89990234375" x2="24" y2="43.89990234375" gradientUnits="userSpaceOnUse"><stop offset="0.5139" stop-color="#EDF5FF"  /><stop offset="1" stop-color="#92C3FF"  /></linearGradient></defs></svg>