<svg xmlns="http://www.w3.org/2000/svg" xmlns:xlink="http://www.w3.org/1999/xlink" width="120.00048828125" height="146.00048828125" viewBox="0 0 120.00048828125 146.00048828125" fill="none"><path d="M36.3159 28.9768L39.0383 26.1988L55.2633 42.7553L55.2633 29.3741L64.737 29.3741L64.737 42.7586L80.962 26.2021L83.6843 28.9801L64.737 48.3146L64.737 92.0874L79.3576 92.0874C80.4347 92.0874 81.3159 92.9668 81.3159 94.0415L81.3159 117.49L77.3993 117.49L77.3993 95.9956L64.737 95.9956L64.737 117.49L55.2633 117.49L55.2633 95.9956L42.6009 95.9956L42.6009 117.49L38.6843 117.49L38.6843 94.0415C38.6843 92.9668 39.5656 92.0874 40.6426 92.0874L55.2633 92.0874L55.2633 48.3113L36.3159 28.9768Z" fill-rule="evenodd"  fill="#7DA2CE" ></path><rect  x="48.94775390625" y="66.65283203125" width="22.105247497558594" height="38.08679962158203" rx="3.126436781609195"    fill="#EDF5FF" ></rect><rect x="25.263671875" y="117.43505859375" width="69.4736442565918" height="9.521697998046875"   fill="#EDF5FF" ></rect><rect x="24.4736328125" y="19.83740234375" width="69.4736328125" height="9.521697998046875"   fill="#EDF5FF" ></rect><path d="M23.0075 98.3916L3.83458 98.3916C1.71598 98.3916 -6.1729e-09 100.096 -1.37942e-08 102.2L-1.58633e-07 142.191C-1.66254e-07 144.296 1.71598 146 3.83458 146L23.0075 146C25.1261 146 26.8421 144.296 26.8421 142.191L26.8421 102.2C26.8421 100.096 25.1261 98.3916 23.0075 98.3916ZM8.50319 140.125L3.07725 134.736L5.79022 132.041L11.2162 137.431L8.50319 140.125ZM8.50319 126.233L3.07725 120.844L5.79022 118.149L11.2162 123.538L8.50319 126.233ZM8.50319 112.35L3.07725 106.961L5.79022 104.266L11.2162 109.656L8.50319 112.35ZM18.3389 140.125L15.6259 137.431L21.0519 132.041L23.7648 134.736L18.3389 140.125ZM18.3389 126.233L15.6259 123.538L21.0519 118.149L23.7648 120.844L18.3389 126.233ZM18.3389 112.35L15.6259 109.656L21.0519 104.266L23.7648 106.961L18.3389 112.35Z"   fill="url(#linear_fill_12_3319)" ></path><path d="M96.9928 98.3916L116.166 98.3916C118.284 98.3916 120 100.096 120 102.2L120 142.191C120 144.296 118.284 146 116.166 146L96.9928 146C94.8742 146 93.1582 144.296 93.1582 142.191L93.1582 102.2C93.1582 100.096 94.8742 98.3916 96.9928 98.3916ZM111.497 140.125L116.923 134.736L114.21 132.041L108.784 137.431L111.497 140.125ZM111.497 126.233L116.923 120.844L114.21 118.149L108.784 123.538L111.497 126.233ZM111.497 112.35L116.923 106.961L114.21 104.266L108.784 109.656L111.497 112.35ZM101.661 140.125L104.374 137.431L98.9484 132.041L96.2355 134.736L101.661 140.125ZM101.661 126.233L104.374 123.538L98.9484 118.149L96.2355 120.844L101.661 126.233ZM101.661 112.35L104.374 109.656L98.9484 104.266L96.2355 106.961L101.661 112.35Z"   fill="url(#linear_fill_12_3320)" ></path><path d="M23.0075 -4.20874e-08L3.83458 -7.01457e-09C1.71598 -3.13902e-09 3.08645e-09 1.70438 6.89709e-09 3.80868L7.93165e-08 43.7998C8.31272e-08 45.9041 1.71598 47.6085 3.83458 47.6085L23.0075 47.6085C25.1261 47.6085 26.8421 45.9041 26.8421 43.7998L26.8421 3.80868C26.8421 1.70438 25.1261 -4.5963e-08 23.0075 -4.20874e-08ZM8.50319 41.7336L3.07725 36.3443L5.79022 33.6497L11.2162 39.039L8.50319 41.7336ZM8.50319 27.8415L3.07725 22.4522L5.79022 19.7575L11.2162 25.1468L8.50319 27.8415ZM8.50319 13.9588L3.07725 8.56953L5.79022 5.87489L11.2162 11.2642L8.50319 13.9588ZM18.3389 41.7336L15.6259 39.039L21.0519 33.6497L23.7648 36.3443L18.3389 41.7336ZM18.3389 27.8415L15.6259 25.1468L21.0519 19.7575L23.7648 22.4522L18.3389 27.8415ZM18.3389 13.9588L15.6259 11.2642L21.0519 5.87489L23.7648 8.56953L18.3389 13.9588Z"   fill="url(#linear_fill_12_3321)" ></path><path d="M96.9928 1.40291e-08L116.166 8.41749e-08C118.284 9.1926e-08 120 1.70438 120 3.80868L120 43.7998C120 45.9041 118.284 47.6085 116.166 47.6085L96.9928 47.6085C94.8742 47.6085 93.1582 45.9041 93.1582 43.7998L93.1582 3.80868C93.1582 1.70438 94.8742 6.27801e-09 96.9928 1.40291e-08ZM111.497 41.7336L116.923 36.3443L114.21 33.6497L108.784 39.039L111.497 41.7336ZM111.497 27.8415L116.923 22.4522L114.21 19.7575L108.784 25.1468L111.497 27.8415ZM111.497 13.9588L116.923 8.56953L114.21 5.87489L108.784 11.2642L111.497 13.9588ZM101.661 41.7336L104.374 39.039L98.9484 33.6497L96.2355 36.3443L101.661 41.7336ZM101.661 27.8415L104.374 25.1468L98.9484 19.7575L96.2355 22.4522L101.661 27.8415ZM101.661 13.9588L104.374 11.2642L98.9484 5.87489L96.2355 8.56953L101.661 13.9588Z"   fill="url(#linear_fill_12_3322)" ></path><defs><linearGradient id="linear_fill_12_3319" x1="13.4208984375" y1="146" x2="13.4208984375" y2="98.3916015625" gradientUnits="userSpaceOnUse"><stop offset="0" stop-color="#0072FF"  /><stop offset="1" stop-color="#00C8FF"  /></linearGradient><linearGradient id="linear_fill_12_3320" x1="106.5791015625" y1="146" x2="106.5791015625" y2="98.3916015625" gradientUnits="userSpaceOnUse"><stop offset="0" stop-color="#0072FF"  /><stop offset="1" stop-color="#00C8FF"  /></linearGradient><linearGradient id="linear_fill_12_3321" x1="13.4208984375" y1="47.6083984375" x2="13.4208984375" y2="0" gradientUnits="userSpaceOnUse"><stop offset="0" stop-color="#0072FF"  /><stop offset="1" stop-color="#00C8FF"  /></linearGradient><linearGradient id="linear_fill_12_3322" x1="106.5791015625" y1="47.6083984375" x2="106.5791015625" y2="0" gradientUnits="userSpaceOnUse"><stop offset="0" stop-color="#0072FF"  /><stop offset="1" stop-color="#00C8FF"  /></linearGradient></defs></svg>