<svg xmlns="http://www.w3.org/2000/svg" xmlns:xlink="http://www.w3.org/1999/xlink" width="120" height="146.00048828125" viewBox="0 0 120 146.00048828125" fill="none"><path d="M36.3154 28.9763L39.0378 26.1983L55.2628 42.7548L55.2628 29.3736L64.7365 29.3736L64.7365 42.7581L80.9615 26.2016L83.6838 28.9796L64.7365 48.3141L64.7365 92.0869L79.3571 92.0869C80.4342 92.0869 81.3154 92.9663 81.3154 94.041L81.3154 117.49L77.3988 117.49L77.3988 95.9951L64.7365 95.9951L64.7365 117.49L55.2628 117.49L55.2628 95.9951L42.6004 95.9951L42.6004 117.49L38.6838 117.49L38.6838 94.041C38.6838 92.9663 39.5651 92.0869 40.6421 92.0869L55.2628 92.0869L55.2628 48.3108L36.3154 28.9763Z" fill-rule="evenodd"  fill="#7DA2CE" ></path><rect  x="48.947265625" y="66.65234375" width="22.105247497558594" height="38.086769104003906" rx="3.126436781609195"    fill="#EDF5FF" ></rect><rect x="25.26318359375" y="117.4345703125" width="69.47362899780273" height="9.521690368652344"   fill="#EDF5FF" ></rect><rect x="24.4736328125" y="19.8369140625" width="69.4736328125" height="9.521692276000977"   fill="#EDF5FF" ></rect><path d="M23.0075 98.3911L3.83458 98.3911C1.71598 98.3911 -6.1729e-09 100.095 -1.37942e-08 102.2L-1.58633e-07 142.191C-1.66254e-07 144.295 1.71598 146 3.83458 146L23.0075 146C25.1261 146 26.8421 144.295 26.8421 142.191L26.8421 102.2C26.8421 100.095 25.1261 98.3911 23.0075 98.3911ZM8.50319 140.125L3.07725 134.735L5.79022 132.041L11.2162 137.43L8.50319 140.125ZM8.50319 126.233L3.07725 120.843L5.79022 118.149L11.2162 123.538L8.50319 126.233ZM8.50319 112.35L3.07725 106.961L5.79022 104.266L11.2162 109.655L8.50319 112.35ZM18.3389 140.125L15.6259 137.43L21.0519 132.041L23.7648 134.735L18.3389 140.125ZM18.3389 126.233L15.6259 123.538L21.0519 118.149L23.7648 120.843L18.3389 126.233ZM18.3389 112.35L15.6259 109.655L21.0519 104.266L23.7648 106.961L18.3389 112.35Z"   fill="url(#linear_fill_12_3330)" ></path><path d="M96.9923 98.3911L116.165 98.3911C118.284 98.3911 120 100.095 120 102.2L120 142.191C120 144.295 118.284 146 116.165 146L96.9923 146C94.8737 146 93.1577 144.295 93.1577 142.191L93.1577 102.2C93.1577 100.095 94.8737 98.3911 96.9923 98.3911ZM111.497 140.125L116.923 134.735L114.21 132.041L108.784 137.43L111.497 140.125ZM111.497 126.233L116.923 120.843L114.21 118.149L108.784 123.538L111.497 126.233ZM111.497 112.35L116.923 106.961L114.21 104.266L108.784 109.655L111.497 112.35ZM101.661 140.125L104.374 137.43L98.9479 132.041L96.235 134.735L101.661 140.125ZM101.661 126.233L104.374 123.538L98.9479 118.149L96.235 120.843L101.661 126.233ZM101.661 112.35L104.374 109.655L98.9479 104.266L96.235 106.961L101.661 112.35Z"   fill="url(#linear_fill_12_3331)" ></path><path d="M23.0075 -4.20874e-08L3.83458 -7.01457e-09C1.71598 -3.13902e-09 3.08645e-09 1.70438 6.89709e-09 3.80868L7.93165e-08 43.7998C8.31272e-08 45.9041 1.71598 47.6085 3.83458 47.6085L23.0075 47.6085C25.1261 47.6085 26.8421 45.9041 26.8421 43.7998L26.8421 3.80868C26.8421 1.70438 25.1261 -4.5963e-08 23.0075 -4.20874e-08ZM8.50319 41.7336L3.07725 36.3443L5.79022 33.6497L11.2162 39.039L8.50319 41.7336ZM8.50319 27.8414L3.07725 22.4522L5.79022 19.7575L11.2162 25.1468L8.50319 27.8414ZM8.50319 13.9588L3.07725 8.56953L5.79022 5.87489L11.2162 11.2642L8.50319 13.9588ZM18.3389 41.7336L15.6259 39.039L21.0519 33.6497L23.7648 36.3443L18.3389 41.7336ZM18.3389 27.8414L15.6259 25.1468L21.0519 19.7575L23.7648 22.4522L18.3389 27.8414ZM18.3389 13.9588L15.6259 11.2642L21.0519 5.87489L23.7648 8.56953L18.3389 13.9588Z"   fill="url(#linear_fill_12_3332)" ></path><path d="M96.9923 1.40291e-08L116.165 8.41749e-08C118.284 9.1926e-08 120 1.70438 120 3.80868L120 43.7998C120 45.9041 118.284 47.6085 116.165 47.6085L96.9923 47.6085C94.8737 47.6085 93.1577 45.9041 93.1577 43.7998L93.1577 3.80868C93.1577 1.70438 94.8737 6.27801e-09 96.9923 1.40291e-08ZM111.497 41.7336L116.923 36.3443L114.21 33.6497L108.784 39.039L111.497 41.7336ZM111.497 27.8414L116.923 22.4522L114.21 19.7575L108.784 25.1468L111.497 27.8414ZM111.497 13.9588L116.923 8.56953L114.21 5.87489L108.784 11.2642L111.497 13.9588ZM101.661 41.7336L104.374 39.039L98.9479 33.6497L96.235 36.3443L101.661 41.7336ZM101.661 27.8414L104.374 25.1468L98.9479 19.7575L96.235 22.4522L101.661 27.8414ZM101.661 13.9588L104.374 11.2642L98.9479 5.87489L96.235 8.56953L101.661 13.9588Z"   fill="url(#linear_fill_12_3333)" ></path><defs><linearGradient id="linear_fill_12_3330" x1="13.4208984375" y1="98.39111328125" x2="13.4208984375" y2="145.99951171875" gradientUnits="userSpaceOnUse"><stop offset="0" stop-color="#EDF5FF"  /><stop offset="1" stop-color="#92C3FF"  /></linearGradient><linearGradient id="linear_fill_12_3331" x1="106.57861328125" y1="98.39111328125" x2="106.57861328125" y2="145.99951171875" gradientUnits="userSpaceOnUse"><stop offset="0" stop-color="#EDF5FF"  /><stop offset="1" stop-color="#92C3FF"  /></linearGradient><linearGradient id="linear_fill_12_3332" x1="13.4208984375" y1="47.6083984375" x2="13.4208984375" y2="0" gradientUnits="userSpaceOnUse"><stop offset="0" stop-color="#0072FF"  /><stop offset="1" stop-color="#00C8FF"  /></linearGradient><linearGradient id="linear_fill_12_3333" x1="106.57861328125" y1="47.6083984375" x2="106.57861328125" y2="0" gradientUnits="userSpaceOnUse"><stop offset="0" stop-color="#0072FF"  /><stop offset="1" stop-color="#00C8FF"  /></linearGradient></defs></svg>