<svg xmlns="http://www.w3.org/2000/svg" xmlns:xlink="http://www.w3.org/1999/xlink" width="120.00048828125" height="146.00048828125" viewBox="0 0 120.00048828125 146.00048828125" fill="none"><path d="M36.3159 28.9763L39.0383 26.1983L55.2632 42.7548L55.2632 29.3736L64.7368 29.3736L64.7368 42.7581L80.9617 26.2016L83.6841 28.9796L64.7368 48.3141L64.7368 92.0869L79.3574 92.0869C80.4345 92.0869 81.3157 92.9663 81.3157 94.041L81.3157 117.49L77.3991 117.49L77.3991 95.9951L64.7368 95.9951L64.7368 117.49L55.2632 117.49L55.2632 95.9951L42.6008 95.9951L42.6008 117.49L38.6843 117.49L38.6843 94.041C38.6843 92.9663 39.5655 92.0869 40.6426 92.0869L55.2632 92.0869L55.2632 48.3108L36.3159 28.9763Z" fill-rule="evenodd"  fill="#7DA2CE" ></path><rect  x="48.947265625" y="66.65283203125" width="22.10513687133789" height="38.08678436279297" rx="3.126436781609195"    fill="#EDF5FF" ></rect><rect x="25.26318359375" y="117.43505859375" width="69.47328186035156" height="9.521697998046875"   fill="#EDF5FF" ></rect><rect x="24.4736328125" y="19.83740234375" width="69.47330474853516" height="9.52169418334961"   fill="#EDF5FF" ></rect><path d="M23.0074 98.3916L3.83457 98.3916C1.71597 98.3916 -6.17287e-09 100.096 -1.37941e-08 102.2L-1.58632e-07 142.191C-1.66254e-07 144.296 1.71597 146 3.83456 146L23.0074 146C25.126 146 26.842 144.296 26.842 142.191L26.842 102.2C26.842 100.096 25.126 98.3916 23.0074 98.3916ZM8.50315 140.125L3.07724 134.736L5.79019 132.041L11.2161 137.431L8.50315 140.125ZM8.50315 126.233L3.07724 120.844L5.79019 118.149L11.2161 123.538L8.50315 126.233ZM8.50315 112.35L3.07724 106.961L5.79019 104.266L11.2161 109.656L8.50315 112.35ZM18.3388 140.125L15.6259 137.431L21.0518 132.041L23.7647 134.736L18.3388 140.125ZM18.3388 126.233L15.6259 123.538L21.0518 118.149L23.7647 120.844L18.3388 126.233ZM18.3388 112.35L15.6259 109.656L21.0518 104.266L23.7647 106.961L18.3388 112.35Z"   fill="url(#linear_fill_12_3308)" ></path><path d="M96.9923 98.3916L116.165 98.3916C118.284 98.3916 120 100.096 120 102.2L120 142.191C120 144.296 118.284 146 116.165 146L96.9923 146C94.8737 146 93.1577 144.296 93.1577 142.191L93.1577 102.2C93.1577 100.096 94.8737 98.3916 96.9923 98.3916ZM111.497 140.125L116.922 134.736L114.209 132.041L108.784 137.431L111.497 140.125ZM111.497 126.233L116.922 120.844L114.209 118.149L108.784 123.538L111.497 126.233ZM111.497 112.35L116.922 106.961L114.209 104.266L108.784 109.656L111.497 112.35ZM101.661 140.125L104.374 137.431L98.9479 132.041L96.235 134.736L101.661 140.125ZM101.661 126.233L104.374 123.538L98.9479 118.149L96.235 120.844L101.661 126.233ZM101.661 112.35L104.374 109.656L98.9479 104.266L96.235 106.961L101.661 112.35Z"   fill="url(#linear_fill_12_3309)" ></path><path d="M23.0074 -4.20874e-08L3.83457 -7.01457e-09C1.71597 -3.13902e-09 3.08643e-09 1.70438 6.89706e-09 3.80868L7.93161e-08 43.7998C8.31268e-08 45.9041 1.71597 47.6085 3.83457 47.6085L23.0074 47.6085C25.126 47.6085 26.842 45.9041 26.842 43.7998L26.842 3.80868C26.842 1.70438 25.126 -4.5963e-08 23.0074 -4.20874e-08ZM8.50315 41.7336L3.07724 36.3443L5.79019 33.6497L11.2161 39.039L8.50315 41.7336ZM8.50315 27.8414L3.07724 22.4522L5.79019 19.7575L11.2161 25.1468L8.50315 27.8414ZM8.50315 13.9588L3.07724 8.56953L5.79019 5.87489L11.2161 11.2642L8.50315 13.9588ZM18.3388 41.7336L15.6259 39.039L21.0518 33.6497L23.7647 36.3443L18.3388 41.7336ZM18.3388 27.8414L15.6259 25.1468L21.0518 19.7575L23.7647 22.4522L18.3388 27.8414ZM18.3388 13.9588L15.6259 11.2642L21.0518 5.87489L23.7647 8.56953L18.3388 13.9588Z"   fill="url(#linear_fill_12_3310)" ></path><path d="M96.9923 1.40291e-08L116.165 8.41749e-08C118.284 9.1926e-08 120 1.70438 120 3.80868L120 43.7998C120 45.9041 118.284 47.6085 116.165 47.6085L96.9923 47.6085C94.8737 47.6085 93.1577 45.9041 93.1577 43.7998L93.1577 3.80868C93.1577 1.70438 94.8737 6.27801e-09 96.9923 1.40291e-08ZM111.497 41.7336L116.922 36.3443L114.209 33.6497L108.784 39.039L111.497 41.7336ZM111.497 27.8414L116.922 22.4522L114.209 19.7575L108.784 25.1468L111.497 27.8414ZM111.497 13.9588L116.922 8.56953L114.209 5.87489L108.784 11.2642L111.497 13.9588ZM101.661 41.7336L104.374 39.039L98.9479 33.6497L96.235 36.3443L101.661 41.7336ZM101.661 27.8414L104.374 25.1468L98.9479 19.7575L96.235 22.4522L101.661 27.8414ZM101.661 13.9588L104.374 11.2642L98.9479 5.87489L96.235 8.56953L101.661 13.9588Z"   fill="url(#linear_fill_12_3311)" ></path><defs><linearGradient id="linear_fill_12_3308" x1="13.4208984375" y1="146" x2="13.4208984375" y2="98.3916015625" gradientUnits="userSpaceOnUse"><stop offset="0" stop-color="#0072FF"  /><stop offset="1" stop-color="#00C8FF"  /></linearGradient><linearGradient id="linear_fill_12_3309" x1="106.57861328125" y1="146" x2="106.57861328125" y2="98.3916015625" gradientUnits="userSpaceOnUse"><stop offset="0" stop-color="#0072FF"  /><stop offset="1" stop-color="#00C8FF"  /></linearGradient><linearGradient id="linear_fill_12_3310" x1="13.4208984375" y1="0" x2="13.4208984375" y2="47.6083984375" gradientUnits="userSpaceOnUse"><stop offset="0" stop-color="#EDF5FF"  /><stop offset="1" stop-color="#92C3FF"  /></linearGradient><linearGradient id="linear_fill_12_3311" x1="106.57861328125" y1="0" x2="106.57861328125" y2="47.6083984375" gradientUnits="userSpaceOnUse"><stop offset="0" stop-color="#EDF5FF"  /><stop offset="1" stop-color="#92C3FF"  /></linearGradient></defs></svg>