<svg xmlns="http://www.w3.org/2000/svg" xmlns:xlink="http://www.w3.org/1999/xlink" width="330" height="299" viewBox="0 0 330 299" fill="none"><path     fill="#001024" fill-opacity="0.88" d="M0 283L0 16C0 7.16344 7.16344 0 16 0L314 0C322.837 0 330 7.16344 330 16L330 283C330 291.837 322.837 299 314 299L16 299C7.16344 299 0 291.837 0 283Z"></path><path d="M165 182C199.794 182 228 153.794 228 119C228 84.2061 199.794 56 165 56C130.206 56 102 84.2061 102 119C102 153.794 130.206 182 165 182ZM165 62C196.48 62 222 87.5198 222 119C222 150.48 196.48 176 165 176C133.52 176 108 150.48 108 119C108 87.5198 133.52 62 165 62Z" fill-rule="evenodd"  fill="#1B2D4D" ></path><path fill-rule="evenodd"  fill="rgba(27, 45, 77, 1)"  d="M165 182C199.794 182 228 153.794 228 119C228 84.2061 199.794 56 165 56C130.206 56 102 84.2061 102 119C102 153.794 130.206 182 165 182ZM165 62C196.48 62 222 87.5198 222 119C222 150.48 196.48 176 165 176C133.52 176 108 150.48 108 119C108 87.5198 133.52 62 165 62Z"></path><path d="M165 62C196.48 62 222 87.5198 222 119L228 119C228 84.2061 199.794 56 165 56L165 62Z" fill-rule="evenodd"  fill="#00C6FF" ></path><g ><text transform="translate(48, 206)"><tspan x="21" y="33.92" font-size="32" line-height="0"  fill="#FFFFFF"  font-family=".PingFang SC Regular; 10.11d9e1; 2015-05-20" letter-spacing="0" >设备连接中…</tspan></text></g></svg>