<svg xmlns="http://www.w3.org/2000/svg" xmlns:xlink="http://www.w3.org/1999/xlink" width="128" height="56" viewBox="0 0 128 56" fill="none"><path fill-rule="evenodd"  fill="rgba(237, 245, 255, 1)"  d="M28 56C43.464 56 56 43.464 56 28C56 12.536 43.464 0 28 0C12.536 0 0 12.536 0 28C0 43.464 12.536 56 28 56ZM28 2C42.3594 2 54 13.6406 54 28C54 42.3594 42.3594 54 28 54C13.6406 54 2 42.3594 2 28C2 13.6406 13.6406 2 28 2Z"></path><circle cx="28" cy="28" r="8"   fill="#FF3700" ></circle><path fill-rule="evenodd"  fill="rgba(237, 245, 255, 1)"  d="M100 56C115.464 56 128 43.464 128 28C128 12.536 115.464 0 100 0C84.536 0 72 12.536 72 28C72 43.464 84.536 56 100 56ZM100 2C114.359 2 126 13.6406 126 28C126 42.3594 114.359 54 100 54C85.6406 54 74 42.3594 74 28C74 13.6406 85.6406 2 100 2Z"></path><circle cx="100" cy="28" r="8"   fill="#FF3700" ></circle></svg>