<svg xmlns="http://www.w3.org/2000/svg" xmlns:xlink="http://www.w3.org/1999/xlink" width="128" height="56" viewBox="0 0 128 56" fill="none"><g opacity="0.32"><path fill-rule="evenodd"  fill="rgba(237, 245, 255, 1)"  d="M24.2281 0.251892C24.8854 0.163372 25.5501 0.0976655 26.2211 0.0555949L26.3463 2.05168Q25.4158 2.11001 24.4949 2.234L24.2281 0.251892ZM20.3174 1.0671C20.9611 0.883836 21.6143 0.723025 22.276 0.585568L22.6828 2.54377Q21.7654 2.73432 20.8651 2.99066L20.3174 1.0671ZM16.567 2.4329C17.1721 2.1619 17.7886 1.91175 18.4156 1.68336L19.1001 3.56256Q18.2302 3.87947 17.3845 4.2582L16.567 2.4329ZM13.0403 4.32705C13.6023 3.97118 14.1778 3.63476 14.7659 3.31876L15.7125 5.08053Q14.8951 5.51973 14.1103 6.01674L13.0403 4.32705ZM9.82105 6.70316C10.3284 6.26969 10.8514 5.85402 11.3891 5.45714L12.5768 7.06629Q11.8282 7.61886 11.1202 8.22372L9.82105 6.70316ZM6.97288 9.51C7.41364 9.00915 7.87202 8.52418 8.34703 8.05605L9.75088 9.48055Q9.08853 10.1333 8.47429 10.8313L6.97288 9.51ZM4.5491 12.6953C4.91504 12.1357 5.30046 11.59 5.70441 11.0592L7.29597 12.2704Q6.73209 13.0113 6.22295 13.7899L4.5491 12.6953ZM2.60483 16.1907C2.88782 15.5832 3.19197 14.9875 3.51633 14.4046L5.26396 15.3771Q4.81083 16.1914 4.41779 17.0352L2.60483 16.1907ZM1.18303 19.9214C1.37549 19.2816 1.59023 18.6515 1.82633 18.0319L3.69524 18.7441Q3.36519 19.6102 3.09824 20.4976L1.18303 19.9214ZM0.309402 23.8233C0.408009 23.164 0.529603 22.5122 0.673343 21.8688L2.62523 22.3048Q2.4241 23.2052 2.2874 24.1192L0.309402 23.8233ZM0.000494138 27.8319C0.00449642 27.1512 0.0327885 26.4762 0.0845475 25.8079L2.07858 25.9623Q2.00601 26.8993 2.00046 27.8436L0.000494138 27.8319ZM0.262933 31.853C0.172538 31.1963 0.104921 30.5322 0.0609073 29.8617L2.05661 29.7307Q2.11764 30.6604 2.24426 31.5803L0.262933 31.853ZM1.08984 35.762C0.904724 35.1191 0.742029 34.4667 0.602652 33.8056L2.55962 33.393Q2.75284 34.3094 3.01176 35.2086L1.08984 35.762ZM2.46685 39.5085C2.19393 38.9039 1.94184 38.2879 1.71152 37.6614L3.58869 36.9713Q3.90831 37.8407 4.28972 38.6856L2.46685 39.5085ZM4.37106 43.029C4.01359 42.4681 3.67554 41.8937 3.35786 41.3066L5.11683 40.3548Q5.55839 41.1708 6.05762 41.954L4.37106 43.029ZM6.75674 46.2415C6.32181 45.7354 5.90464 45.2137 5.50621 44.6772L7.11187 43.4848Q7.66659 44.2317 8.2735 44.9378L6.75674 46.2415ZM9.57188 49.0814C9.06973 48.6421 8.58342 48.1851 8.1139 47.7115L9.5343 46.3035Q10.189 46.964 10.8888 47.5762L9.57188 49.0814ZM12.764 51.4957C12.2034 51.1315 11.6567 50.7477 11.1249 50.3454L12.3314 48.7503Q13.0738 49.3119 13.8537 49.8186L12.764 51.4957ZM16.2657 53.43C15.6572 53.1487 15.0605 52.8463 14.4766 52.5236L15.4439 50.7731Q16.2597 51.2239 17.1048 51.6145L16.2657 53.43ZM20.0004 54.8406C19.3598 54.65 18.7289 54.437 18.1084 54.2027L18.8151 52.3317Q19.6825 52.6593 20.5709 52.9237L20.0004 54.8406ZM23.9041 55.7026C23.245 55.606 22.5934 55.4864 21.95 55.3447L22.3802 53.3915Q23.2805 53.5898 24.1942 53.7237L23.9041 55.7026ZM27.9159 55.9999C27.2347 55.9979 26.5593 55.9715 25.8904 55.9217L26.0389 53.9272Q26.9767 53.9971 27.9218 53.9999L27.9159 55.9999ZM31.9341 55.7258C31.2779 55.8181 30.6144 55.8876 29.9444 55.9335L29.8075 53.9382Q30.7365 53.8745 31.6556 53.7453L31.9341 55.7258ZM35.8413 54.8872C35.1991 55.0742 34.5475 55.2387 33.8872 55.38L33.4687 53.4243Q34.384 53.2284 35.2822 52.9669L35.8413 54.8872ZM39.5839 53.499C38.9798 53.7738 38.3643 54.0278 37.7382 54.2601L37.0426 52.385Q37.9114 52.0627 38.7555 51.6786L39.5839 53.499ZM43.0981 51.5847C42.5384 51.9438 41.9651 52.2835 41.379 52.6028L40.422 50.8467Q41.2366 50.4028 42.0183 49.9013L43.0981 51.5847ZM46.3039 49.1895C45.7991 49.6259 45.2786 50.0446 44.7433 50.4445L43.5462 48.8424Q44.2915 48.2855 44.9958 47.6765L46.3039 49.1895ZM49.1355 46.3661C48.6977 46.8695 48.2421 47.3572 47.7699 47.8281L46.3577 46.4118Q47.0163 45.7551 47.6264 45.0536L49.1355 46.3661ZM51.5403 43.1672C51.1778 43.7287 50.7957 44.2764 50.3951 44.8093L48.7964 43.6075Q49.3557 42.8635 49.8601 42.0823L51.5403 43.1672ZM53.4646 39.6591C53.1851 40.2686 52.8843 40.8663 52.5633 41.4513L50.81 40.4891Q51.2585 39.6719 51.6466 38.8254L53.4646 39.6591ZM54.864 35.9205C54.6752 36.5618 54.4641 37.1936 54.2315 37.8149L52.3584 37.1138Q52.6836 36.2452 52.9454 35.3557L54.864 35.9205ZM55.7143 32.015C55.6197 32.6739 55.5021 33.3254 55.3625 33.9686L53.408 33.5443Q53.6034 32.6442 53.7346 31.7307L55.7143 32.015ZM56 28C56 28.6816 55.9756 29.3576 55.9277 30.027L53.9328 29.8843Q54 28.9457 54 28L56 28ZM55.7589 24.3092C55.8456 24.9672 55.9094 25.6324 55.9495 26.304L53.953 26.4232Q53.8974 25.492 53.776 24.5703L55.7589 24.3092ZM54.9554 20.3969C55.1368 21.0414 55.2957 21.6953 55.4313 22.3577L53.4719 22.7586Q53.284 21.8403 53.0302 20.9388L54.9554 20.3969ZM53.6008 16.6427C53.8699 17.2483 54.1181 17.8653 54.3446 18.4926L52.4634 19.1716Q52.1492 18.3011 51.7731 17.4547L53.6008 16.6427ZM51.7168 13.1097C52.0711 13.6728 52.4058 14.2494 52.7201 14.8385L50.9556 15.78Q50.5187 14.9612 50.024 14.1748L51.7168 13.1097ZM49.3503 9.88375C49.7823 10.3924 50.1964 10.9166 50.5918 11.4556L48.9791 12.6385Q48.4287 11.8882 47.8259 11.1785L49.3503 9.88375ZM46.5518 7.02738C47.0513 7.46959 47.5349 7.92937 48.0017 8.40576L46.5731 9.80544Q45.9223 9.1412 45.2261 8.52492L46.5518 7.02738ZM43.3734 4.59411C43.932 4.96175 44.4766 5.34885 45.0064 5.75444L43.7905 7.34244Q43.051 6.77625 42.2738 6.26475L43.3734 4.59411ZM39.8843 2.63986C40.4908 2.92459 41.0855 3.23044 41.6673 3.55646L40.6896 5.30123Q39.8768 4.84579 39.0344 4.4503L39.8843 2.63986ZM36.1575 1.2069C36.7965 1.40119 37.4258 1.61772 38.0445 1.85558L37.3268 3.72238Q36.4619 3.38989 35.5757 3.12039L36.1575 1.2069ZM32.2574 0.321597C32.9169 0.422206 33.5689 0.545824 34.2124 0.691608L33.7706 2.64219Q32.8701 2.43819 31.9558 2.29872L32.2574 0.321597ZM30.2746 0.091055L30.1143 2.08462Q29.1781 2.00936 28.2345 2.00103L28.2521 0.0011114C28.9323 0.00711093 29.6068 0.0373664 30.2746 0.091055Z"></path><circle cx="28" cy="28" r="8"   fill="#EDF5FF" ></circle><path fill-rule="evenodd"  fill="rgba(237, 245, 255, 1)"  d="M96.2281 0.251892C96.8854 0.163372 97.5501 0.0976655 98.2211 0.0555949L98.3463 2.05168Q97.4158 2.11001 96.4949 2.234L96.2281 0.251892ZM92.3174 1.0671C92.9611 0.883836 93.6143 0.723025 94.276 0.585568L94.6828 2.54377Q93.7654 2.73432 92.8651 2.99066L92.3174 1.0671ZM88.567 2.4329C89.1721 2.1619 89.7886 1.91175 90.4156 1.68336L91.1001 3.56256Q90.2302 3.87947 89.3845 4.2582L88.567 2.4329ZM85.0403 4.32705C85.6022 3.97118 86.1778 3.63476 86.7659 3.31876L87.7125 5.08053Q86.8951 5.51973 86.1103 6.01674L85.0403 4.32705ZM81.821 6.70316C82.3284 6.26969 82.8514 5.85402 83.3891 5.45714L84.5768 7.06629Q83.8282 7.61886 83.1202 8.22372L81.821 6.70316ZM78.9729 9.51C79.4136 9.00915 79.872 8.52418 80.347 8.05605L81.7509 9.48055Q81.0885 10.1333 80.4743 10.8313L78.9729 9.51ZM76.5491 12.6953C76.915 12.1357 77.3005 11.59 77.7044 11.0592L79.296 12.2704Q78.7321 13.0113 78.223 13.7899L76.5491 12.6953ZM74.6048 16.1907C74.8878 15.5832 75.192 14.9875 75.5163 14.4046L77.264 15.3771Q76.8108 16.1914 76.4178 17.0352L74.6048 16.1907ZM73.183 19.9214C73.3755 19.2816 73.5902 18.6515 73.8263 18.0319L75.6952 18.7441Q75.3652 19.6102 75.0982 20.4976L73.183 19.9214ZM72.3094 23.8233C72.408 23.164 72.5296 22.5122 72.6733 21.8688L74.6252 22.3048Q74.4241 23.2052 74.2874 24.1192L72.3094 23.8233ZM72.0005 27.8319C72.0045 27.1512 72.0328 26.4762 72.0845 25.8079L74.0786 25.9623Q74.006 26.8993 74.0005 27.8436L72.0005 27.8319ZM72.2629 31.853C72.1725 31.1963 72.1049 30.5322 72.0609 29.8617L74.0566 29.7307Q74.1176 30.6604 74.2443 31.5803L72.2629 31.853ZM73.0898 35.762C72.9047 35.1191 72.742 34.4667 72.6027 33.8056L74.5596 33.393Q74.7528 34.3094 75.0118 35.2086L73.0898 35.762ZM74.4669 39.5085C74.1939 38.9039 73.9418 38.2879 73.7115 37.6614L75.5887 36.9713Q75.9083 37.8407 76.2897 38.6856L74.4669 39.5085ZM76.3711 43.029C76.0136 42.4681 75.6755 41.8937 75.3579 41.3066L77.1168 40.3548Q77.5584 41.1708 78.0576 41.954L76.3711 43.029ZM78.7567 46.2415C78.3218 45.7354 77.9046 45.2137 77.5062 44.6772L79.1119 43.4848Q79.6666 44.2317 80.2735 44.9378L78.7567 46.2415ZM81.5719 49.0814C81.0697 48.6421 80.5834 48.1851 80.1139 47.7115L81.5343 46.3035Q82.189 46.964 82.8888 47.5762L81.5719 49.0814ZM84.764 51.4957C84.2034 51.1315 83.6567 50.7477 83.1249 50.3454L84.3314 48.7503Q85.0738 49.3119 85.8537 49.8186L84.764 51.4957ZM88.2657 53.43C87.6572 53.1487 87.0605 52.8463 86.4766 52.5236L87.4439 50.7731Q88.2597 51.2239 89.1048 51.6145L88.2657 53.43ZM92.0004 54.8406C91.3598 54.65 90.7289 54.437 90.1084 54.2027L90.8151 52.3317Q91.6825 52.6593 92.5709 52.9237L92.0004 54.8406ZM95.9041 55.7026C95.245 55.606 94.5934 55.4864 93.95 55.3447L94.3802 53.3915Q95.2805 53.5898 96.1942 53.7237L95.9041 55.7026ZM99.9159 55.9999C99.2347 55.9979 98.5593 55.9715 97.8904 55.9217L98.0389 53.9272Q98.9767 53.9971 99.9218 53.9999L99.9159 55.9999ZM103.934 55.7258C103.278 55.8181 102.614 55.8876 101.944 55.9335L101.808 53.9382Q102.736 53.8745 103.656 53.7453L103.934 55.7258ZM107.841 54.8872C107.199 55.0742 106.547 55.2387 105.887 55.38L105.469 53.4243Q106.384 53.2284 107.282 52.9669L107.841 54.8872ZM111.584 53.499C110.98 53.7738 110.364 54.0278 109.738 54.2601L109.043 52.385Q109.911 52.0627 110.756 51.6786L111.584 53.499ZM115.098 51.5847C114.538 51.9438 113.965 52.2835 113.379 52.6028L112.422 50.8467Q113.237 50.4028 114.018 49.9013L115.098 51.5847ZM118.304 49.1895C117.799 49.6259 117.279 50.0446 116.743 50.4445L115.546 48.8424Q116.291 48.2855 116.996 47.6765L118.304 49.1895ZM121.136 46.3661C120.698 46.8695 120.242 47.3572 119.77 47.8281L118.358 46.4118Q119.016 45.7551 119.626 45.0536L121.136 46.3661ZM123.54 43.1672C123.178 43.7287 122.796 44.2764 122.395 44.8093L120.796 43.6075Q121.356 42.8635 121.86 42.0823L123.54 43.1672ZM125.465 39.6591C125.185 40.2686 124.884 40.8663 124.563 41.4513L122.81 40.4891Q123.258 39.6719 123.647 38.8254L125.465 39.6591ZM126.864 35.9205C126.675 36.5618 126.464 37.1936 126.232 37.8149L124.358 37.1138Q124.684 36.2452 124.945 35.3557L126.864 35.9205ZM127.714 32.015C127.62 32.6739 127.502 33.3254 127.362 33.9686L125.408 33.5443Q125.603 32.6442 125.735 31.7307L127.714 32.015ZM128 28C128 28.6816 127.976 29.3576 127.928 30.027L125.933 29.8843Q126 28.9457 126 28L128 28ZM127.759 24.3092C127.846 24.9672 127.909 25.6324 127.949 26.304L125.953 26.4232Q125.897 25.492 125.776 24.5703L127.759 24.3092ZM126.955 20.3969C127.137 21.0414 127.296 21.6953 127.431 22.3577L125.472 22.7586Q125.284 21.8403 125.03 20.9388L126.955 20.3969ZM125.601 16.6427C125.87 17.2483 126.118 17.8653 126.345 18.4926L124.463 19.1716Q124.149 18.3011 123.773 17.4547L125.601 16.6427ZM123.717 13.1097C124.071 13.6728 124.406 14.2494 124.72 14.8385L122.956 15.78Q122.519 14.9612 122.024 14.1748L123.717 13.1097ZM121.35 9.88375C121.782 10.3924 122.196 10.9166 122.592 11.4556L120.979 12.6385Q120.429 11.8882 119.826 11.1785L121.35 9.88375ZM118.552 7.02738C119.051 7.46959 119.535 7.92937 120.002 8.40576L118.573 9.80544Q117.922 9.1412 117.226 8.52492L118.552 7.02738ZM115.373 4.59411C115.932 4.96175 116.477 5.34885 117.006 5.75444L115.791 7.34244Q115.051 6.77625 114.274 6.26475L115.373 4.59411ZM111.884 2.63986C112.491 2.92459 113.085 3.23044 113.667 3.55646L112.69 5.30123Q111.877 4.84579 111.034 4.4503L111.884 2.63986ZM108.158 1.2069C108.796 1.40119 109.426 1.61772 110.044 1.85558L109.327 3.72238Q108.462 3.38989 107.576 3.12039L108.158 1.2069ZM104.257 0.321597C104.917 0.422206 105.569 0.545824 106.212 0.691608L105.771 2.64219Q104.87 2.43819 103.956 2.29872L104.257 0.321597ZM102.275 0.091055L102.114 2.08462Q101.178 2.00936 100.234 2.00103L100.252 0.0011114C100.932 0.00711093 101.607 0.0373664 102.275 0.091055Z"></path><circle cx="100" cy="28" r="8"   fill="#EDF5FF" ></circle></g></svg>
