<svg xmlns="http://www.w3.org/2000/svg" xmlns:xlink="http://www.w3.org/1999/xlink" width="109.998291015625" height="57.99951171875" viewBox="0 0 109.998291015625 57.99951171875" fill="none"><path fill-rule="evenodd"  fill="rgba(255, 255, 255, 1.00)"  d="M4.03411 57.9997L26.9651 57.9997Q27.5373 57.9997 28.0652 57.7884Q28.5795 57.5826 28.9847 57.2034Q29.3914 56.8228 29.6321 56.3197Q29.8802 55.8015 29.9191 55.2257L30.9936 40.5372Q31.0326 39.9068 30.8234 39.3178Q30.6202 38.7454 30.2139 38.298Q29.8031 37.8455 29.252 37.5948Q28.6767 37.333 28.0389 37.333L2.96035 37.333Q2.32259 37.333 1.74722 37.5948Q1.1961 37.8455 0.785298 38.298Q0.379079 38.7454 0.17582 39.3178Q-0.0333813 39.9068 0.00636393 40.5485L1.07986 55.2218Q1.11951 55.7948 1.36798 56.3112Q1.60807 56.8102 2.01119 57.191Q2.41571 57.5731 2.92725 57.7822Q3.45933 57.9997 4.03411 57.9997ZM4.03411 56.9997L26.9651 56.9997C27.9912 56.9997 28.8502 56.2116 28.9218 55.1527L29.9956 40.4755C30.0671 39.3181 29.1843 38.333 28.0389 38.333L2.96035 38.333C1.81499 38.333 0.932113 39.3181 1.0037 40.4755L2.07747 55.1527C2.14906 56.187 3.00807 56.9997 4.03411 56.9997Z"></path><g opacity="0.48"><path     fill="#EDF5FF"  d="M26.9651 56.9997L4.03411 56.9997C3.00807 56.9997 2.14906 56.187 2.07747 55.1527L1.0037 40.4755C0.932113 39.3181 1.81499 38.333 2.96035 38.333L28.0389 38.333C29.1843 38.333 30.0671 39.3181 29.9956 40.4755L28.9218 55.1527C28.8502 56.2116 27.9912 56.9997 26.9651 56.9997Z"></path><path fill-rule="evenodd"  fill="rgba(237, 245, 255, 1)"  d="M4.03411 57.9997L26.9651 57.9997Q27.5373 57.9997 28.0652 57.7884Q28.5795 57.5826 28.9847 57.2034Q29.3914 56.8228 29.6321 56.3197Q29.8802 55.8015 29.9191 55.2257L30.9936 40.5372Q31.0326 39.9068 30.8234 39.3178Q30.6202 38.7454 30.2139 38.298Q29.8031 37.8455 29.252 37.5948Q28.6767 37.333 28.0389 37.333L2.96035 37.333Q2.32259 37.333 1.74722 37.5948Q1.1961 37.8455 0.785298 38.298Q0.379079 38.7454 0.17582 39.3178Q-0.0333813 39.9068 0.00636393 40.5485L1.07986 55.2218Q1.11951 55.7948 1.36798 56.3112Q1.60807 56.8102 2.01119 57.191Q2.41571 57.5731 2.92725 57.7822Q3.45933 57.9997 4.03411 57.9997ZM4.03411 56.9997L26.9651 56.9997C27.9912 56.9997 28.8502 56.2116 28.9218 55.1527L29.9956 40.4755C30.0671 39.3181 29.1843 38.333 28.0389 38.333L2.96035 38.333C1.81499 38.333 0.932113 39.3181 1.0037 40.4755L2.07747 55.1527C2.14906 56.187 3.00807 56.9997 4.03411 56.9997Z"></path></g><g opacity="0.64"><path d="M4.25904 55.8874C3.7444 55.8874 3.32333 55.4785 3.27654 54.9733L2.22387 40.6365C2.20048 40.3719 2.29405 40.1073 2.48119 39.9149C2.66833 39.6984 2.92565 39.5781 3.20637 39.5781L27.7922 39.5781C28.0729 39.5781 28.3302 39.6984 28.5173 39.9149C28.7045 40.1073 28.798 40.3719 28.7747 40.6606L27.722 54.9974C27.6752 55.5025 27.2541 55.9114 26.7395 55.9114L4.25904 55.9114L4.25904 55.8874Z"   fill="#001024" ></path></g><path d="M5.17932 43.357L5.17932 45.007C5.17932 45.3764 5.46566 45.6719 5.82358 45.6719C6.01448 45.6719 6.20537 45.5734 6.32468 45.4256C6.70646 44.6622 7.15983 43.948 7.9234 43.4063C8.32905 43.0861 7.97113 42.2734 7.39845 42.2734L6.18151 42.2734C5.63269 42.2981 5.17932 42.766 5.17932 43.357Z"   fill="#EDF5FF" ></path><path d="M22.6944 46.2876C21.0957 47.8144 19.4015 50.1539 17.9221 52.3457C17.5403 52.9121 17.7551 53.7247 18.3755 53.9956C18.8766 54.2173 19.4254 54.0449 19.7594 53.6262L19.8788 53.4785C20.4276 52.7643 21.382 52.4934 22.1933 52.8874C22.2411 52.9121 22.2888 52.9367 22.3365 52.9613C22.5751 53.1091 22.8615 53.1829 23.1478 53.1583C23.6012 53.1091 24.0068 52.7889 24.1739 52.3457L25.7249 48.4301C26.1305 47.3958 25.6294 46.2384 24.6034 45.869C23.9352 45.6473 23.1955 45.7951 22.6944 46.2876Z"   fill="#EDF5FF" ></path><path d="M7.68498 49.6857C7.54181 49.8581 7.32706 49.9566 7.1123 49.9566L6.15784 49.9566C6.03853 49.9566 5.94308 49.932 5.84764 49.8581C5.60902 49.6857 5.5613 49.3163 5.75219 49.0947C7.4225 46.6567 9.11667 44.4403 10.9779 42.5687C11.121 42.3964 11.3358 42.2979 11.5505 42.2979L12.505 42.2979C12.6243 42.2979 12.7198 42.3225 12.8152 42.3964C13.0538 42.5687 13.1016 42.9381 12.9107 43.1598C10.9301 45.2776 9.30756 47.4694 7.68498 49.6857Z"   fill="#EDF5FF" ></path><path d="M10.0004 52.7886C9.85724 52.961 9.64249 53.0595 9.42773 53.0595L8.47327 53.0595C8.35396 53.0595 8.25851 53.0349 8.16306 52.961C7.92445 52.7886 7.87673 52.4192 8.06762 52.1976C9.73793 49.7596 13.8421 44.4403 15.7033 42.5687C15.8465 42.3964 16.0613 42.2979 16.276 42.2979L17.2305 42.2979C17.3498 42.2979 17.4452 42.3225 17.5407 42.3964C17.7793 42.5687 17.827 42.9381 17.6361 43.1598C15.6795 45.2776 11.6469 50.5723 10.0004 52.7886Z"   fill="#EDF5FF" ></path><path d="M14.2467 53.5767C14.1035 53.7491 13.8888 53.8722 13.674 53.8722L12.7195 53.8968C12.6002 53.8968 12.5048 53.8722 12.4093 53.7983C12.1707 53.626 12.0991 53.2812 12.29 53.0349C13.8888 50.5477 18.852 44.5388 20.6416 42.618C20.7848 42.4456 20.9995 42.3225 21.2143 42.3225L22.1687 42.2979C22.288 42.2979 22.3835 42.3225 22.4789 42.3964C22.7176 42.5687 22.7891 42.9135 22.5982 43.1598C20.7132 45.3269 15.8215 51.2865 14.2467 53.5767Z"   fill="#EDF5FF" ></path><ellipse cx="25.104583740234375" cy="43.06126403808594" rx="0.739715576171875" ry="0.7634124755859375"   fill="#EDF5FF" ></ellipse><path fill-rule="evenodd"  fill="rgba(255, 255, 255, 1.00)"  d="M8.45628 34.0445L22.849 34.0445Q23.4575 34.0445 24.015 33.798Q24.5468 33.5629 24.9554 33.1378Q25.3599 32.7169 25.5816 32.1739Q25.8105 31.6131 25.8105 31.0034L25.8105 3.04105Q25.8105 2.43136 25.5816 1.87055Q25.3599 1.32755 24.9554 0.906636Q24.5468 0.481556 24.015 0.246432Q23.4575 1.78814e-07 22.849 1.78814e-07L8.45628 4.17233e-07Q7.8478 4.17233e-07 7.29034 0.246432Q6.75846 0.481556 6.34994 0.906636Q5.94542 1.32755 5.72372 1.87055Q5.49475 2.43136 5.49475 3.04105L5.49475 31.0034Q5.49475 31.6131 5.72372 32.1739Q5.94542 32.7169 6.34994 33.1378Q6.75845 33.5629 7.29034 33.798Q7.84781 34.0445 8.45628 34.0445ZM8.45628 33.0445L22.849 33.0445C23.9279 33.0445 24.8105 32.126 24.8105 31.0034L24.8105 3.04105C24.8105 1.91847 23.9279 1 22.849 1L8.45628 1C7.37744 1 6.49475 1.91847 6.49475 3.04105L6.49475 31.0034C6.49475 32.126 7.37744 33.0445 8.45628 33.0445Z"></path><g opacity="0.48"><path     fill="#EDF5FF"  d="M22.849 33.0445L8.45628 33.0445C7.37744 33.0445 6.49475 32.126 6.49475 31.0034L6.49475 3.04105C6.49475 1.91847 7.37744 1 8.45628 1L22.849 1C23.9279 1 24.8105 1.91847 24.8105 3.04105L24.8105 31.0034C24.8105 32.126 23.9279 33.0445 22.849 33.0445Z"></path><path fill-rule="evenodd"  fill="rgba(237, 245, 255, 1)"  d="M8.45628 34.0445L22.849 34.0445Q23.4575 34.0445 24.015 33.798Q24.5468 33.5629 24.9554 33.1378Q25.3599 32.7169 25.5816 32.1739Q25.8105 31.6131 25.8105 31.0034L25.8105 3.04105Q25.8105 2.43136 25.5816 1.87055Q25.3599 1.32755 24.9554 0.906636Q24.5468 0.481556 24.015 0.246432Q23.4575 1.78814e-07 22.849 1.78814e-07L8.45628 4.17233e-07Q7.8478 4.17233e-07 7.29034 0.246432Q6.75846 0.481556 6.34994 0.906636Q5.94542 1.32755 5.72372 1.87055Q5.49475 2.43136 5.49475 3.04105L5.49475 31.0034Q5.49475 31.6131 5.72372 32.1739Q5.94542 32.7169 6.34994 33.1378Q6.75845 33.5629 7.29034 33.798Q7.84781 34.0445 8.45628 34.0445ZM8.45628 33.0445L22.849 33.0445C23.9279 33.0445 24.8105 32.126 24.8105 31.0034L24.8105 3.04105C24.8105 1.91847 23.9279 1 22.849 1L8.45628 1C7.37744 1 6.49475 1.91847 6.49475 3.04105L6.49475 31.0034C6.49475 32.126 7.37744 33.0445 8.45628 33.0445Z"></path></g><g opacity="0.64"><path d="M8.66838 31.8002C8.14481 31.8002 7.71643 31.3478 7.71643 30.7949L7.71643 3.24992C7.71643 2.69701 8.14481 2.24463 8.66838 2.24463L22.6382 2.24463C23.1618 2.24463 23.5901 2.69701 23.5901 3.24992L23.5901 30.7949C23.5901 31.3478 23.1618 31.8002 22.6382 31.8002L8.66838 31.8002Z"   fill="#001024" ></path></g><ellipse cx="10.368133544921875" cy="6.0516510009765625" rx="0.760101318359375" ry="0.7909088134765625"   fill="#EDF5FF" ></ellipse><path d="M21.0836 7.93959L21.0836 9.57242C21.0836 9.82755 20.9855 10.0572 20.8384 10.2613C18.0923 13.1698 14.4144 17.3029 10.8591 21.8952C10.7365 22.0228 10.5894 22.0993 10.4178 22.0993C10.0745 22.0993 9.80481 21.8187 9.80481 21.4615L9.80481 19.3949C9.80481 19.1398 9.90289 18.8847 10.05 18.7061C12.649 15.2108 16.3269 11.2053 19.8577 7.42933C19.9803 7.27625 20.1764 7.19971 20.3726 7.19971C20.7649 7.19971 21.0836 7.53138 21.0836 7.93959Z"   fill="#EDF5FF" ></path><path d="M15.272 5.26074L16.3508 5.26074C16.7186 5.26074 17.0373 5.5669 17.0373 5.97511C17.0373 6.1537 16.9638 6.30678 16.8657 6.45986C14.7816 8.55192 12.7465 10.8736 10.7604 13.4249C10.6378 13.578 10.4662 13.6545 10.2701 13.6545C9.90226 13.6545 9.60803 13.3484 9.60803 12.9657L9.60803 11.4859C9.60803 11.2308 9.70611 10.9757 9.87774 10.7971C11.2753 9.06219 12.8446 7.3273 14.5609 5.59241C14.7571 5.38831 15.0023 5.26074 15.272 5.26074Z"   fill="#EDF5FF" ></path><path d="M20.6666 14.7773C21.0834 14.7773 21.4022 15.1345 21.4022 15.5427L21.4022 16.9204C21.4022 17.099 21.3531 17.2776 21.2305 17.4052C18.4108 20.7474 15.8118 24.0386 13.4825 27.2277C13.3108 27.4573 13.0411 27.5849 12.7469 27.5849C12.232 27.5849 11.7906 27.1512 11.7906 26.5899L11.7906 25.3398C11.7906 25.1612 11.8642 24.9826 11.9623 24.8295C14.6594 21.2322 17.3565 17.9155 20.0781 15.0325C20.2498 14.8794 20.4459 14.7773 20.6666 14.7773Z"   fill="#EDF5FF" ></path><path d="M21.6723 23.2223L21.6723 27.8402C21.6723 28.3504 21.28 28.7586 20.7896 28.7586C20.5199 28.7586 20.2257 28.6821 20.1276 28.427C19.8579 27.7891 19.0978 27.3299 18.117 27.5085C17.6021 27.6105 17.3815 27.0493 17.3815 26.59C17.3815 26.3859 17.455 26.1818 17.5531 26.0287L20.0541 22.6355C20.2257 22.4059 20.4954 22.2783 20.7651 22.2783C21.28 22.2783 21.6723 22.712 21.6723 23.2223Z"   fill="#EDF5FF" ></path><path d="M81.9983 1C89.4776 1 96.5133 3.9072 101.796 9.20244C107.091 14.485 109.998 21.5207 109.998 29C109.998 36.4793 107.078 43.515 101.796 48.7975C96.5133 54.0927 89.4776 57 81.9983 57C74.519 57 67.4833 54.0801 62.2007 48.7975C56.9055 43.515 53.9983 36.4793 53.9983 29C53.9983 21.5207 56.9055 14.485 62.2007 9.20244C67.4833 3.9072 74.519 1 81.9983 1ZM86.1641 50.8929C86.3672 51.2103 86.57 51.45 86.7987 51.666C96.5256 49.6089 104.004 41.457 105.033 31.4251L104.118 30.2055C104.042 30.104 103.928 30.0407 103.801 30.0407L96.7916 30.0407L96.7916 23.4L98.4809 23.4C98.6587 23.4 98.8358 23.4511 98.9881 23.54L100.83 24.6195C101.008 24.721 101.198 24.8096 101.401 24.8731C102.379 25.1526 103.407 24.835 104.042 24.0984L104.526 23.54C102.062 13.3813 92.8934 5.82533 81.9983 5.82533C71.0777 5.82533 61.9091 13.4057 59.4583 23.5898L59.9032 24.0984C60.3857 24.6444 61.0707 24.9618 61.8072 24.9618C62.2643 24.9618 62.7093 24.8343 63.103 24.6055L64.9572 23.5135C65.1096 23.4246 65.2865 23.3751 65.4643 23.3751L67.1925 23.3751L67.1925 30.0158L60.1692 30.0158C60.0422 30.0158 59.928 30.0792 59.8518 30.1807L58.9512 31.4002C59.9924 41.4954 67.5354 49.6733 77.3005 51.7049C77.5291 51.4763 77.7566 51.2091 77.9725 50.8789C78.2011 50.5233 78.3279 50.1298 78.3661 49.7107C78.4677 48.4916 78.6972 46.2705 78.7861 45.3815C78.8114 45.1658 78.9887 45.0004 79.2045 45.0004L84.9196 45.0004C85.1356 45.0004 85.3127 45.1658 85.3381 45.3815L85.7565 49.6982C85.7947 50.1172 85.9229 50.5373 86.1641 50.8929ZM66.4676 15.5273L67.4834 16.5307C67.585 16.6195 67.6239 16.7708 67.5985 16.8978L66.4427 22.3593L65.4643 22.3593C65.2992 22.3593 65.1342 22.3964 64.9945 22.4853C63.9405 23.0949 62.9123 23.7689 62.5694 23.8324C62.9377 20.569 63.8525 17.445 65.8843 15.5149C66.0494 15.3625 66.3025 15.3623 66.4676 15.5273ZM98.4934 22.3718L97.5149 22.3718L96.3607 16.9242C96.3354 16.7845 96.3728 16.6447 96.4743 16.5431L97.4901 15.5398C97.6551 15.3747 97.9099 15.3749 98.075 15.5273C100.107 17.4575 101.02 20.5813 101.388 23.8449C101.045 23.7686 100.004 23.1073 98.9632 22.4978C98.8235 22.4216 98.6584 22.3718 98.4934 22.3718ZM96.297 30.0282L93.6167 30.0282C92.9563 30.0282 92.3096 30.232 91.7889 30.6255C89.2746 32.5049 87.5725 36.3013 86.6074 42.2315C86.582 42.4219 86.507 42.6002 86.3927 42.7527L85.783 43.5911C85.6178 43.807 85.3761 43.9333 85.1094 43.9333L78.8747 43.9333C78.608 43.9333 78.3536 43.807 78.2012 43.5911L77.5914 42.7527C77.4771 42.6002 77.4021 42.4219 77.3767 42.2315C76.4118 36.3013 74.7222 32.5049 72.1952 30.6255C71.6871 30.2446 71.0402 30.0282 70.3798 30.0282L67.7121 30.0282L67.7121 23.3875L68.5894 23.3875C68.7164 23.3875 68.83 23.3621 68.9316 23.3113L74.9765 20.5549C75.294 20.4152 75.6367 20.3402 75.9923 20.3402L87.9794 20.3402C88.335 20.3402 88.6777 20.4152 88.9952 20.5549L95.0401 23.3113C95.1543 23.3621 95.268 23.3875 95.3823 23.3875L96.297 23.3875L96.297 30.0282ZM69.9101 26.2949C69.9101 27.9584 71.2677 29.3049 72.9185 29.3049C74.5693 29.3049 75.9285 27.9584 75.9285 26.2949C75.9285 24.6315 74.5821 23.2864 72.9185 23.2864C71.255 23.2864 69.9101 24.6315 69.9101 26.2949ZM92.3101 24.3644C92.3101 23.7803 91.8271 23.2989 91.243 23.2989C90.659 23.2989 90.1758 23.7803 90.1758 24.3644C90.1758 24.9486 90.659 25.4315 91.243 25.4315C91.8271 25.4315 92.3101 24.9486 92.3101 24.3644ZM72.2963 24.1109L73.5407 24.1109L73.5407 25.6851L75.115 25.6851L75.115 26.9295L73.5407 26.9295L73.5407 28.5053L72.2963 28.5053L72.2963 26.9295L70.7221 26.9295L70.7221 25.6851L72.2963 25.6851L72.2963 24.1109ZM72.9185 24.226L72.4612 24.8358L73.3758 24.8358L72.9185 24.226ZM77.6816 29C77.6816 31.3873 79.6109 33.3167 81.9983 33.3167C84.3856 33.3167 86.3149 31.3873 86.3149 29C86.3149 26.6126 84.3856 24.6833 81.9983 24.6833C79.6109 24.6833 77.6816 26.6126 77.6816 29ZM88.2454 26.3073C88.2454 26.8915 88.7284 27.3744 89.3125 27.3744C89.9093 27.3744 90.3796 26.8915 90.3796 26.3073C90.3796 25.7232 89.8967 25.2418 89.3125 25.2418C88.7284 25.2418 88.2454 25.7232 88.2454 26.3073ZM94.239 26.3073C94.239 25.7232 93.7575 25.2418 93.1734 25.2418C92.5766 25.2418 92.1063 25.7104 92.1063 26.3073C92.1063 26.8915 92.5892 27.3744 93.1734 27.3744C93.7575 27.3744 94.239 26.8915 94.239 26.3073ZM70.8496 26.3073L71.4578 26.7647L71.4578 25.8515L70.8496 26.3073ZM74.989 26.3073L74.3792 25.8515L74.3792 26.7647L74.989 26.3073ZM81.9983 31.9213C83.6113 31.9213 84.9196 30.613 84.9196 29C84.9196 27.387 83.6113 26.0787 81.9983 26.0787C80.3853 26.0787 79.077 27.387 79.077 29C79.077 30.613 80.3853 31.9213 81.9983 31.9213ZM91.243 27.1707C90.659 27.1707 90.1758 27.6536 90.1758 28.2378C90.1758 28.8347 90.659 29.3049 91.243 29.3049C91.8271 29.3049 92.3101 28.8219 92.3101 28.2378C92.3101 27.6536 91.8271 27.1707 91.243 27.1707ZM72.4612 27.768L72.9185 28.3778L73.3758 27.768L72.4612 27.768ZM62.3796 31.044L70.3798 31.044C71.0021 31.044 71.6109 31.2221 72.119 31.5651L72.2201 31.6413L68.1196 34.3589C67.9926 34.4478 67.9153 34.6 67.9407 34.7524L68.0932 35.8833C68.1186 36.023 68.055 36.1617 67.9407 36.238L64.9821 38.3209C64.8043 38.4478 64.5509 38.41 64.4112 38.2322C63.2937 36.7718 62.6209 34.3837 62.3796 31.044ZM91.7889 31.6538L91.8901 31.5775C92.3981 31.2219 93.0086 31.0438 93.6307 31.0564L101.629 31.0564C101.388 34.3834 100.715 36.7845 99.5978 38.2447C99.471 38.4225 99.2047 38.4604 99.0269 38.3333L96.0683 36.2504C95.954 36.1743 95.9032 36.0356 95.9158 35.8958L96.0683 34.7649C96.0937 34.6126 96.018 34.4602 95.8909 34.3713L91.7889 31.6538ZM81.0836 37.8247C81.2486 37.8247 81.3761 37.6985 81.3761 37.5462L81.3761 35.972C81.3761 35.8196 81.2359 35.692 81.0836 35.692L78.0487 35.692C77.9598 35.692 77.8708 35.7294 77.8201 35.8055C77.7565 35.8691 77.7449 35.9593 77.7703 36.0482L78.2276 37.6224C78.2658 37.7367 78.3792 37.8247 78.5061 37.8247L81.0836 37.8247ZM85.7565 37.6224L86.2138 36.0482C86.2392 35.9593 86.2274 35.8691 86.1641 35.8055C86.1131 35.7294 86.0243 35.692 85.9354 35.692L82.9005 35.692C82.7355 35.692 82.6081 35.8196 82.6081 35.972L82.6081 37.5462C82.6081 37.6985 82.7481 37.8247 82.9005 37.8247L85.4781 37.8247C85.6051 37.8247 85.7184 37.7493 85.7565 37.6224ZM79.4456 41.6855C79.4456 42.1554 79.8266 42.5364 80.2965 42.5364C80.7664 42.5364 81.1474 42.1554 81.1474 41.6855C81.1474 41.2157 80.7664 40.8347 80.2965 40.8347C79.8266 40.8347 79.4456 41.2157 79.4456 41.6855ZM82.8492 41.6855C82.8492 42.1554 83.2304 42.5364 83.7001 42.5364C84.1699 42.5364 84.5509 42.1554 84.5509 41.6855C84.5509 41.2157 84.1699 40.8347 83.7001 40.8347C83.2304 40.8347 82.8492 41.2157 82.8492 41.6855Z" fill-rule="evenodd"  fill="#EDF5FF" ></path></svg>