<svg xmlns="http://www.w3.org/2000/svg" xmlns:xlink="http://www.w3.org/1999/xlink" width="110.0006103515625" height="58" viewBox="0 0 110.0006103515625 58" fill="none"><path d="M28 1C35.4793 1 42.515 3.9072 47.7975 9.20244C53.0927 14.485 56 21.5207 56 29C56 36.4793 53.0801 43.515 47.7975 48.7975C42.515 54.0927 35.4793 57 28 57C20.5207 57 13.485 54.0801 8.20244 48.7975C2.9072 43.515 0 36.4793 0 29C0 21.5207 2.9072 14.485 8.20244 9.20244C13.485 3.9072 20.5207 1 28 1ZM32.1658 50.8929C32.3689 51.2103 32.5717 51.45 32.8004 51.666C42.5273 49.6089 50.0062 41.457 51.0347 31.4251L50.12 30.2055C50.0437 30.104 49.9295 30.0407 49.8027 30.0407L42.7933 30.0407L42.7933 23.4L44.4827 23.4C44.6605 23.4 44.8375 23.4511 44.9898 23.54L46.8315 24.6195C47.0093 24.721 47.1993 24.8096 47.4024 24.8731C48.3803 25.1526 49.4089 24.835 50.0438 24.0984L50.5275 23.54C48.0641 13.3813 38.8951 5.82533 28 5.82533C17.0794 5.82533 7.91079 13.4057 5.46 23.5898L5.90489 24.0984C6.38743 24.6444 7.07236 24.9618 7.80889 24.9618C8.26602 24.9618 8.71102 24.8343 9.10466 24.6055L10.9589 23.5135C11.1113 23.4246 11.2882 23.3751 11.466 23.3751L13.1942 23.3751L13.1942 30.0158L6.17089 30.0158C6.04391 30.0158 5.92975 30.0792 5.85355 30.1807L4.95289 31.4002C5.99415 41.4954 13.5371 49.6733 23.3022 51.7049C23.5308 51.4763 23.7583 51.2091 23.9742 50.8789C24.2028 50.5233 24.3296 50.1298 24.3678 49.7107C24.4694 48.4916 24.6989 46.2705 24.7878 45.3815C24.8131 45.1658 24.9904 45.0004 25.2062 45.0004L30.9213 45.0004C31.1373 45.0004 31.3144 45.1658 31.3398 45.3815L31.7582 49.6982C31.7964 50.1172 31.9246 50.5373 32.1658 50.8929ZM12.4693 15.5273L13.4851 16.5307C13.5867 16.6195 13.6256 16.7708 13.6002 16.8978L12.4444 22.3593L11.466 22.3593C11.3009 22.3593 11.1359 22.3964 10.9962 22.4853C9.94225 23.0949 8.91397 23.7689 8.57111 23.8324C8.93936 20.569 9.85425 17.445 11.886 15.5149C12.0511 15.3625 12.3043 15.3623 12.4693 15.5273ZM44.4951 22.3718L43.5167 22.3718L42.3624 16.9242C42.3371 16.7845 42.3745 16.6447 42.476 16.5431L43.4918 15.5398C43.6568 15.3747 43.9116 15.3749 44.0767 15.5273C46.1084 17.4575 47.0216 20.5813 47.39 23.8449C47.0472 23.7686 46.0061 23.1073 44.9649 22.4978C44.8252 22.4216 44.6601 22.3718 44.4951 22.3718ZM42.2987 30.0282L39.6184 30.0282C38.958 30.0282 38.3113 30.232 37.7907 30.6255C35.2763 32.5049 33.5742 36.3013 32.6091 42.2315C32.5837 42.4219 32.5087 42.6002 32.3944 42.7527L31.7847 43.5911C31.6195 43.807 31.3778 43.9333 31.1111 43.9333L24.8764 43.9333C24.6097 43.9333 24.3553 43.807 24.2029 43.5911L23.5931 42.7527C23.4788 42.6002 23.4038 42.4219 23.3784 42.2315C22.4135 36.3013 20.7239 32.5049 18.1969 30.6255C17.6889 30.2446 17.0419 30.0282 16.3816 30.0282L13.7138 30.0282L13.7138 23.3875L14.5911 23.3875C14.7181 23.3875 14.8317 23.3621 14.9333 23.3113L20.9782 20.5549C21.2957 20.4152 21.6384 20.3402 21.994 20.3402L33.9811 20.3402C34.3367 20.3402 34.6794 20.4152 34.9969 20.5549L41.0418 23.3113C41.156 23.3621 41.2697 23.3875 41.384 23.3875L42.2987 23.3875L42.2987 30.0282ZM15.9118 26.2949C15.9118 27.9584 17.2694 29.3049 18.9202 29.3049C20.571 29.3049 21.9302 27.9584 21.9302 26.2949C21.9302 24.6315 20.5838 23.2864 18.9202 23.2864C17.2567 23.2864 15.9118 24.6315 15.9118 26.2949ZM38.3118 24.3644C38.3118 23.7803 37.8288 23.2989 37.2447 23.2989C36.6607 23.2989 36.1775 23.7803 36.1775 24.3644C36.1775 24.9486 36.6607 25.4315 37.2447 25.4315C37.8288 25.4315 38.3118 24.9486 38.3118 24.3644ZM18.298 24.1109L19.5424 24.1109L19.5424 25.6851L21.1167 25.6851L21.1167 26.9295L19.5424 26.9295L19.5424 28.5053L18.298 28.5053L18.298 26.9295L16.7238 26.9295L16.7238 25.6851L18.298 25.6851L18.298 24.1109ZM18.9202 24.226L18.4629 24.8358L19.3776 24.8358L18.9202 24.226ZM23.6833 29C23.6833 31.3873 25.6126 33.3167 28 33.3167C30.3873 33.3167 32.3167 31.3873 32.3167 29C32.3167 26.6126 30.3873 24.6833 28 24.6833C25.6126 24.6833 23.6833 26.6126 23.6833 29ZM34.2471 26.3073C34.2471 26.8915 34.7301 27.3744 35.3142 27.3744C35.911 27.3744 36.3813 26.8915 36.3813 26.3073C36.3813 25.7232 35.8984 25.2418 35.3142 25.2418C34.7301 25.2418 34.2471 25.7232 34.2471 26.3073ZM40.2407 26.3073C40.2407 25.7232 39.7593 25.2418 39.1751 25.2418C38.5784 25.2418 38.108 25.7104 38.108 26.3073C38.108 26.8915 38.591 27.3744 39.1751 27.3744C39.7593 27.3744 40.2407 26.8915 40.2407 26.3073ZM16.8513 26.3073L17.4596 26.7647L17.4596 25.8515L16.8513 26.3073ZM20.9907 26.3073L20.3809 25.8515L20.3809 26.7647L20.9907 26.3073ZM28 31.9213C29.613 31.9213 30.9213 30.613 30.9213 29C30.9213 27.387 29.613 26.0787 28 26.0787C26.387 26.0787 25.0787 27.387 25.0787 29C25.0787 30.613 26.387 31.9213 28 31.9213ZM37.2447 27.1707C36.6607 27.1707 36.1775 27.6536 36.1775 28.2378C36.1775 28.8347 36.6607 29.3049 37.2447 29.3049C37.8288 29.3049 38.3118 28.8219 38.3118 28.2378C38.3118 27.6536 37.8288 27.1707 37.2447 27.1707ZM18.4629 27.768L18.9202 28.3778L19.3776 27.768L18.4629 27.768ZM8.38133 31.044L16.3816 31.044C17.0038 31.044 17.6126 31.2221 18.1207 31.5651L18.2218 31.6413L14.1213 34.3589C13.9943 34.4478 13.917 34.6 13.9424 34.7524L14.0949 35.8833C14.1203 36.023 14.0567 36.1617 13.9424 36.238L10.9838 38.3209C10.806 38.4478 10.5526 38.41 10.4129 38.2322C9.29542 36.7718 8.6226 34.3837 8.38133 31.044ZM37.7907 31.6538L37.8918 31.5775C38.3998 31.2219 39.0103 31.0438 39.6324 31.0564L47.6311 31.0564C47.3899 34.3834 46.7171 36.7845 45.5995 38.2447C45.4727 38.4225 45.2065 38.4604 45.0287 38.3333L42.07 36.2504C41.9557 36.1743 41.9049 36.0356 41.9175 35.8958L42.07 34.7649C42.0954 34.6126 42.0197 34.4602 41.8927 34.3713L37.7907 31.6538ZM27.0853 37.8247C27.2504 37.8247 27.3778 37.6985 27.3778 37.5462L27.3778 35.972C27.3778 35.8196 27.2376 35.692 27.0853 35.692L24.0504 35.692C23.9615 35.692 23.8725 35.7294 23.8218 35.8055C23.7582 35.8691 23.7466 35.9593 23.772 36.0482L24.2293 37.6224C24.2675 37.7367 24.3809 37.8247 24.5078 37.8247L27.0853 37.8247ZM31.7582 37.6224L32.2155 36.0482C32.2409 35.9593 32.2291 35.8691 32.1658 35.8055C32.1148 35.7294 32.026 35.692 31.9371 35.692L28.9022 35.692C28.7372 35.692 28.6098 35.8196 28.6098 35.972L28.6098 37.5462C28.6098 37.6985 28.7498 37.8247 28.9022 37.8247L31.4798 37.8247C31.6068 37.8247 31.7201 37.7493 31.7582 37.6224ZM25.4473 41.6855C25.4473 42.1554 25.8283 42.5364 26.2982 42.5364C26.7681 42.5364 27.1491 42.1554 27.1491 41.6855C27.1491 41.2157 26.7681 40.8347 26.2982 40.8347C25.8283 40.8347 25.4473 41.2157 25.4473 41.6855ZM28.8509 41.6855C28.8509 42.1554 29.2321 42.5364 29.7018 42.5364C30.1716 42.5364 30.5527 42.1554 30.5527 41.6855C30.5527 41.2157 30.1716 40.8347 29.7018 40.8347C29.2321 40.8347 28.8509 41.2157 28.8509 41.6855Z" fill-rule="evenodd"  fill="#EDF5FF" ></path><path fill-rule="evenodd"  fill="rgba(255, 255, 255, 1.00)"  d="M83.035 58.0002L105.966 58.0002Q106.538 58.0002 107.066 57.7889Q107.58 57.583 107.986 57.2039Q108.392 56.8233 108.633 56.3202Q108.881 55.802 108.92 55.2262L109.994 40.5377Q110.033 39.9073 109.824 39.3183Q109.621 38.7459 109.215 38.2985Q108.804 37.846 108.253 37.5953Q107.678 37.3335 107.04 37.3335L81.9612 37.3335Q81.3234 37.3335 80.7481 37.5953Q80.197 37.846 79.7862 38.2985Q79.3799 38.7459 79.1767 39.3183Q78.9675 39.9073 79.0072 40.5489L80.0807 55.2222Q80.1204 55.7952 80.3688 56.3117Q80.6089 56.8107 81.012 57.1915Q81.4166 57.5736 81.9281 57.7827Q82.4602 58.0002 83.035 58.0002ZM83.035 57.0002L105.966 57.0002C106.992 57.0002 107.851 56.2121 107.923 55.1532L108.996 40.476C109.068 39.3185 108.185 38.3335 107.04 38.3335L81.9612 38.3335C80.8158 38.3335 79.933 39.3185 80.0046 40.476L81.0783 55.1532C81.1499 56.1875 82.0089 57.0002 83.035 57.0002Z"></path><g opacity="0.48"><path     fill="#EDF5FF"  d="M105.966 57.0002L83.035 57.0002C82.0089 57.0002 81.1499 56.1875 81.0783 55.1532L80.0046 40.476C79.933 39.3185 80.8158 38.3335 81.9612 38.3335L107.04 38.3335C108.185 38.3335 109.068 39.3185 108.996 40.476L107.923 55.1532C107.851 56.2121 106.992 57.0002 105.966 57.0002Z"></path><path fill-rule="evenodd"  fill="rgba(237, 245, 255, 1)"  d="M83.035 58.0002L105.966 58.0002Q106.538 58.0002 107.066 57.7889Q107.58 57.583 107.986 57.2039Q108.392 56.8233 108.633 56.3202Q108.881 55.802 108.92 55.2262L109.994 40.5377Q110.033 39.9073 109.824 39.3183Q109.621 38.7459 109.215 38.2985Q108.804 37.846 108.253 37.5953Q107.678 37.3335 107.04 37.3335L81.9612 37.3335Q81.3234 37.3335 80.7481 37.5953Q80.197 37.846 79.7862 38.2985Q79.3799 38.7459 79.1767 39.3183Q78.9675 39.9073 79.0072 40.5489L80.0807 55.2222Q80.1204 55.7952 80.3688 56.3117Q80.6089 56.8107 81.012 57.1915Q81.4166 57.5736 81.9281 57.7827Q82.4602 58.0002 83.035 58.0002ZM83.035 57.0002L105.966 57.0002C106.992 57.0002 107.851 56.2121 107.923 55.1532L108.996 40.476C109.068 39.3185 108.185 38.3335 107.04 38.3335L81.9612 38.3335C80.8158 38.3335 79.933 39.3185 80.0046 40.476L81.0783 55.1532C81.1499 56.1875 82.0089 57.0002 83.035 57.0002Z"></path></g><g opacity="0.64"><path d="M83.2599 55.8874C82.7453 55.8874 82.3242 55.4785 82.2774 54.9733L81.2247 40.6365C81.2013 40.3719 81.2949 40.1073 81.482 39.9149C81.6692 39.6984 81.9265 39.5781 82.2072 39.5781L106.793 39.5781C107.074 39.5781 107.331 39.6984 107.518 39.9149C107.705 40.1073 107.799 40.3719 107.776 40.6606L106.723 54.9974C106.676 55.5025 106.255 55.9114 105.74 55.9114L83.2599 55.9114L83.2599 55.8874Z"   fill="#001024" ></path></g><path d="M84.1802 43.357L84.1802 45.007C84.1802 45.3764 84.4665 45.6719 84.8244 45.6719C85.0153 45.6719 85.2062 45.5734 85.3255 45.4256C85.7073 44.6622 86.1607 43.948 86.9243 43.4063C87.3299 43.0861 86.972 42.2734 86.3993 42.2734L85.1824 42.2734C84.6335 42.2981 84.1802 42.766 84.1802 43.357Z"   fill="#EDF5FF" ></path><path d="M101.695 46.2876C100.097 47.8144 98.4024 50.1539 96.923 52.3457C96.5412 52.9121 96.7559 53.7247 97.3763 53.9956C97.8774 54.2173 98.4262 54.0449 98.7603 53.6262L98.8796 53.4785C99.4284 52.7643 100.383 52.4934 101.194 52.8874C101.242 52.9121 101.29 52.9367 101.337 52.9613C101.576 53.1091 101.862 53.1829 102.149 53.1583C102.602 53.1091 103.008 52.7889 103.175 52.3457L104.726 48.4301C105.131 47.3958 104.63 46.2384 103.604 45.869C102.936 45.6473 102.196 45.7951 101.695 46.2876Z"   fill="#EDF5FF" ></path><path d="M86.6858 49.6862C86.5427 49.8586 86.3279 49.9571 86.1132 49.9571L85.1587 49.9571C85.0394 49.9571 84.9439 49.9325 84.8485 49.8586C84.6099 49.6862 84.5621 49.3168 84.753 49.0952C86.4234 46.6572 88.1175 44.4408 89.9787 42.5692C90.1219 42.3968 90.3366 42.2983 90.5514 42.2983L91.5059 42.2983C91.6252 42.2983 91.7206 42.323 91.8161 42.3968C92.0547 42.5692 92.1024 42.9386 91.9115 43.1603C89.931 45.2781 88.3084 47.4699 86.6858 49.6862Z"   fill="#EDF5FF" ></path><path d="M89.0013 52.7891C88.8581 52.9615 88.6433 53.06 88.4286 53.06L87.4741 53.06C87.3548 53.06 87.2594 53.0354 87.1639 52.9615C86.9253 52.7891 86.8776 52.4197 87.0685 52.1981C88.7388 49.7601 92.843 44.4408 94.7042 42.5692C94.8474 42.3968 95.0621 42.2983 95.2769 42.2983L96.2313 42.2983C96.3506 42.2983 96.4461 42.323 96.5415 42.3968C96.7801 42.5692 96.8279 42.9386 96.637 43.1603C94.6803 45.2781 90.6477 50.5728 89.0013 52.7891Z"   fill="#EDF5FF" ></path><path d="M93.2475 53.5772C93.1044 53.7496 92.8896 53.8727 92.6749 53.8727L91.7204 53.8973C91.6011 53.8973 91.5056 53.8727 91.4102 53.7988C91.1716 53.6264 91.1 53.2817 91.2909 53.0354C92.8896 50.5482 97.8528 44.5393 99.6424 42.6185C99.7856 42.4461 100 42.323 100.215 42.323L101.17 42.2983C101.289 42.2983 101.384 42.323 101.48 42.3968C101.718 42.5692 101.79 42.914 101.599 43.1603C99.714 45.3274 94.8224 51.2869 93.2475 53.5772Z"   fill="#EDF5FF" ></path><ellipse cx="104.10543823242188" cy="43.06175231933594" rx="0.739715576171875" ry="0.7634124755859375"   fill="#EDF5FF" ></ellipse><path fill-rule="evenodd"  fill="rgba(255, 255, 255, 1.00)"  d="M87.4571 34.0445L101.85 34.0445Q102.458 34.0445 103.016 33.798Q103.548 33.5629 103.956 33.1378Q104.361 32.7169 104.582 32.1739Q104.811 31.6131 104.811 31.0034L104.811 3.04105Q104.811 2.43136 104.582 1.87055Q104.361 1.32755 103.956 0.906636Q103.548 0.481556 103.016 0.246432Q102.458 1.78814e-07 101.85 1.78814e-07L87.4571 4.17233e-07Q86.8487 4.17233e-07 86.2912 0.246432Q85.7593 0.481556 85.3508 0.906636Q84.9463 1.32755 84.7246 1.87055Q84.4956 2.43136 84.4956 3.04105L84.4956 31.0034Q84.4956 31.6131 84.7246 32.1739Q84.9463 32.7169 85.3508 33.1378Q85.7593 33.5629 86.2912 33.798Q86.8487 34.0445 87.4571 34.0445ZM87.4571 33.0445L101.85 33.0445C102.929 33.0445 103.811 32.126 103.811 31.0034L103.811 3.04105C103.811 1.91847 102.929 1 101.85 1L87.4571 1C86.3783 1 85.4956 1.91847 85.4956 3.04105L85.4956 31.0034C85.4956 32.126 86.3783 33.0445 87.4571 33.0445Z"></path><g opacity="0.48"><path     fill="#EDF5FF"  d="M101.85 33.0445L87.4571 33.0445C86.3783 33.0445 85.4956 32.126 85.4956 31.0034L85.4956 3.04105C85.4956 1.91847 86.3783 1 87.4571 1L101.85 1C102.929 1 103.811 1.91847 103.811 3.04105L103.811 31.0034C103.811 32.126 102.929 33.0445 101.85 33.0445Z"></path><path fill-rule="evenodd"  fill="rgba(237, 245, 255, 1)"  d="M87.4571 34.0445L101.85 34.0445Q102.458 34.0445 103.016 33.798Q103.548 33.5629 103.956 33.1378Q104.361 32.7169 104.582 32.1739Q104.811 31.6131 104.811 31.0034L104.811 3.04105Q104.811 2.43136 104.582 1.87055Q104.361 1.32755 103.956 0.906636Q103.548 0.481556 103.016 0.246432Q102.458 1.78814e-07 101.85 1.78814e-07L87.4571 4.17233e-07Q86.8487 4.17233e-07 86.2912 0.246432Q85.7593 0.481556 85.3508 0.906636Q84.9463 1.32755 84.7246 1.87055Q84.4956 2.43136 84.4956 3.04105L84.4956 31.0034Q84.4956 31.6131 84.7246 32.1739Q84.9463 32.7169 85.3508 33.1378Q85.7593 33.5629 86.2912 33.798Q86.8487 34.0445 87.4571 34.0445ZM87.4571 33.0445L101.85 33.0445C102.929 33.0445 103.811 32.126 103.811 31.0034L103.811 3.04105C103.811 1.91847 102.929 1 101.85 1L87.4571 1C86.3783 1 85.4956 1.91847 85.4956 3.04105L85.4956 31.0034C85.4956 32.126 86.3783 33.0445 87.4571 33.0445Z"></path></g><g opacity="0.64"><path d="M87.6692 31.8002C87.1457 31.8002 86.7173 31.3478 86.7173 30.7949L86.7173 3.24992C86.7173 2.69701 87.1457 2.24463 87.6692 2.24463L101.639 2.24463C102.163 2.24463 102.591 2.69701 102.591 3.24992L102.591 30.7949C102.591 31.3478 102.163 31.8002 101.639 31.8002L87.6692 31.8002Z"   fill="#001024" ></path></g><ellipse cx="89.36898803710938" cy="6.0521392822265625" rx="0.760101318359375" ry="0.7909088134765625"   fill="#EDF5FF" ></ellipse><path d="M100.084 7.93959L100.084 9.57242C100.084 9.82755 99.9864 10.0572 99.8393 10.2613C97.0931 13.1698 93.4153 17.3029 89.86 21.8952C89.7374 22.0228 89.5903 22.0993 89.4186 22.0993C89.0754 22.0993 88.8057 21.8187 88.8057 21.4615L88.8057 19.3949C88.8057 19.1398 88.9037 18.8847 89.0509 18.7061C91.6499 15.2108 95.3278 11.2053 98.8585 7.42933C98.9811 7.27625 99.1773 7.19971 99.3734 7.19971C99.7657 7.19971 100.084 7.53138 100.084 7.93959Z"   fill="#EDF5FF" ></path><path d="M94.2728 5.26123L95.3517 5.26123C95.7195 5.26123 96.0382 5.56739 96.0382 5.9756C96.0382 6.15419 95.9646 6.30727 95.8666 6.46034C93.7824 8.55241 91.7473 10.8741 89.7613 13.4254C89.6387 13.5785 89.4671 13.655 89.2709 13.655C88.9031 13.655 88.6089 13.3489 88.6089 12.9662L88.6089 11.4864C88.6089 11.2313 88.707 10.9762 88.8786 10.7976C90.2762 9.06267 91.8454 7.32779 93.5618 5.5929C93.7579 5.3888 94.0031 5.26123 94.2728 5.26123Z"   fill="#EDF5FF" ></path><path d="M99.6674 14.7773C100.084 14.7773 100.403 15.1345 100.403 15.5427L100.403 16.9204C100.403 17.099 100.354 17.2776 100.231 17.4052C97.4117 20.7474 94.8127 24.0386 92.4833 27.2277C92.3117 27.4573 92.042 27.5849 91.7477 27.5849C91.2328 27.5849 90.7915 27.1512 90.7915 26.5899L90.7915 25.3398C90.7915 25.1612 90.8651 24.9826 90.9631 24.8295C93.6602 21.2322 96.3574 17.9155 99.079 15.0325C99.2506 14.8794 99.4468 14.7773 99.6674 14.7773Z"   fill="#EDF5FF" ></path><path d="M100.673 23.2223L100.673 27.8402C100.673 28.3504 100.281 28.7586 99.7905 28.7586C99.5208 28.7586 99.2266 28.6821 99.1285 28.427C98.8588 27.7891 98.0987 27.3299 97.1179 27.5085C96.603 27.6105 96.3823 27.0493 96.3823 26.59C96.3823 26.3859 96.4559 26.1818 96.554 26.0287L99.0549 22.6355C99.2266 22.4059 99.4963 22.2783 99.766 22.2783C100.281 22.2783 100.673 22.712 100.673 23.2223Z"   fill="#EDF5FF" ></path></svg>